<?xml version="1.0" encoding="UTF-8" standalone="no"?>
<!DOCTYPE svg PUBLIC "-//W3C//DTD SVG 1.1//EN"
 "http://www.w3.org/Graphics/SVG/1.1/DTD/svg11.dtd">
<!-- Generated by graphviz version 12.2.1 (20241206.2353)
 -->
<!-- Title: Tree Pages: 1 -->
<svg width="2766pt" height="579pt"
 viewBox="0.00 0.00 2765.75 579.00" xmlns="http://www.w3.org/2000/svg" xmlns:xlink="http://www.w3.org/1999/xlink">
<g id="graph0" class="graph" transform="scale(1 1) rotate(0) translate(4 575)">
<title>Tree</title>
<polygon fill="white" stroke="none" points="-4,4 -4,-575 2761.75,-575 2761.75,4 -4,4"/>
<!-- 0 -->
<g id="node1" class="node">
<title>0</title>
<path fill="#f1bb95" stroke="black" d="M1455.5,-571C1455.5,-571 1314.25,-571 1314.25,-571 1308.25,-571 1302.25,-565 1302.25,-559 1302.25,-559 1302.25,-512 1302.25,-512 1302.25,-506 1308.25,-500 1314.25,-500 1314.25,-500 1455.5,-500 1455.5,-500 1461.5,-500 1467.5,-506 1467.5,-512 1467.5,-512 1467.5,-559 1467.5,-559 1467.5,-565 1461.5,-571 1455.5,-571"/>
<text text-anchor="start" x="1344.75" y="-553.7" font-family="Helvetica,sans-Serif" font-size="14.00">P4_8_3 ≤ 1.5</text>
<text text-anchor="start" x="1310.25" y="-537.95" font-family="Helvetica,sans-Serif" font-size="14.00">squared_error = 147.139</text>
<text text-anchor="start" x="1336.5" y="-522.2" font-family="Helvetica,sans-Serif" font-size="14.00">samples = 5057</text>
<text text-anchor="start" x="1340.25" y="-506.45" font-family="Helvetica,sans-Serif" font-size="14.00">value = 56.344</text>
</g>
<!-- 1 -->
<g id="node2" class="node">
<title>1</title>
<path fill="#eeaf81" stroke="black" d="M1103.5,-464C1103.5,-464 962.25,-464 962.25,-464 956.25,-464 950.25,-458 950.25,-452 950.25,-452 950.25,-405 950.25,-405 950.25,-399 956.25,-393 962.25,-393 962.25,-393 1103.5,-393 1103.5,-393 1109.5,-393 1115.5,-399 1115.5,-405 1115.5,-405 1115.5,-452 1115.5,-452 1115.5,-458 1109.5,-464 1103.5,-464"/>
<text text-anchor="start" x="992.75" y="-446.7" font-family="Helvetica,sans-Serif" font-size="14.00">P4_8_2 ≤ 1.5</text>
<text text-anchor="start" x="958.25" y="-430.95" font-family="Helvetica,sans-Serif" font-size="14.00">squared_error = 135.834</text>
<text text-anchor="start" x="984.5" y="-415.2" font-family="Helvetica,sans-Serif" font-size="14.00">samples = 2475</text>
<text text-anchor="start" x="988.25" y="-399.45" font-family="Helvetica,sans-Serif" font-size="14.00">value = 61.639</text>
</g>
<!-- 0&#45;&gt;1 -->
<g id="edge1" class="edge">
<title>0&#45;&gt;1</title>
<path fill="none" stroke="black" d="M1301.9,-509.75C1249.31,-494.06 1181.16,-473.73 1126.62,-457.46"/>
<polygon fill="black" stroke="black" points="1127.93,-454.2 1117.35,-454.7 1125.93,-460.91 1127.93,-454.2"/>
<text text-anchor="middle" x="1127.79" y="-470.83" font-family="Helvetica,sans-Serif" font-size="14.00">True</text>
</g>
<!-- 200 -->
<g id="node33" class="node">
<title>200</title>
<path fill="#f4c8a8" stroke="black" d="M1803.5,-464C1803.5,-464 1662.25,-464 1662.25,-464 1656.25,-464 1650.25,-458 1650.25,-452 1650.25,-452 1650.25,-405 1650.25,-405 1650.25,-399 1656.25,-393 1662.25,-393 1662.25,-393 1803.5,-393 1803.5,-393 1809.5,-393 1815.5,-399 1815.5,-405 1815.5,-405 1815.5,-452 1815.5,-452 1815.5,-458 1809.5,-464 1803.5,-464"/>
<text text-anchor="start" x="1692.75" y="-446.7" font-family="Helvetica,sans-Serif" font-size="14.00">P4_8_2 ≤ 1.5</text>
<text text-anchor="start" x="1658.25" y="-430.95" font-family="Helvetica,sans-Serif" font-size="14.00">squared_error = 105.354</text>
<text text-anchor="start" x="1684.5" y="-415.2" font-family="Helvetica,sans-Serif" font-size="14.00">samples = 2582</text>
<text text-anchor="start" x="1688.25" y="-399.45" font-family="Helvetica,sans-Serif" font-size="14.00">value = 51.269</text>
</g>
<!-- 0&#45;&gt;200 -->
<g id="edge32" class="edge">
<title>0&#45;&gt;200</title>
<path fill="none" stroke="black" d="M1467.79,-509.48C1519.32,-493.93 1585.7,-473.91 1639.14,-457.78"/>
<polygon fill="black" stroke="black" points="1639.98,-461.18 1648.55,-454.94 1637.96,-454.48 1639.98,-461.18"/>
<text text-anchor="middle" x="1638.18" y="-471.11" font-family="Helvetica,sans-Serif" font-size="14.00">False</text>
</g>
<!-- 2 -->
<g id="node3" class="node">
<title>2</title>
<path fill="#f2be99" stroke="black" d="M583.5,-357C583.5,-357 442.25,-357 442.25,-357 436.25,-357 430.25,-351 430.25,-345 430.25,-345 430.25,-298 430.25,-298 430.25,-292 436.25,-286 442.25,-286 442.25,-286 583.5,-286 583.5,-286 589.5,-286 595.5,-292 595.5,-298 595.5,-298 595.5,-345 595.5,-345 595.5,-351 589.5,-357 583.5,-357"/>
<text text-anchor="start" x="472.75" y="-339.7" font-family="Helvetica,sans-Serif" font-size="14.00">P4_6_4 ≤ 1.5</text>
<text text-anchor="start" x="438.25" y="-323.95" font-family="Helvetica,sans-Serif" font-size="14.00">squared_error = 106.736</text>
<text text-anchor="start" x="464.5" y="-308.2" font-family="Helvetica,sans-Serif" font-size="14.00">samples = 1003</text>
<text text-anchor="start" x="468.25" y="-292.45" font-family="Helvetica,sans-Serif" font-size="14.00">value = 55.182</text>
</g>
<!-- 1&#45;&gt;2 -->
<g id="edge2" class="edge">
<title>1&#45;&gt;2</title>
<path fill="none" stroke="black" d="M949.9,-410.75C856.45,-391.87 704.87,-361.27 607.04,-341.51"/>
<polygon fill="black" stroke="black" points="607.96,-338.13 597.46,-339.58 606.57,-344.99 607.96,-338.13"/>
</g>
<!-- 95 -->
<g id="node18" class="node">
<title>95</title>
<path fill="#eca470" stroke="black" d="M1103.5,-357C1103.5,-357 962.25,-357 962.25,-357 956.25,-357 950.25,-351 950.25,-345 950.25,-345 950.25,-298 950.25,-298 950.25,-292 956.25,-286 962.25,-286 962.25,-286 1103.5,-286 1103.5,-286 1109.5,-286 1115.5,-292 1115.5,-298 1115.5,-298 1115.5,-345 1115.5,-345 1115.5,-351 1109.5,-357 1103.5,-357"/>
<text text-anchor="start" x="1000.25" y="-339.7" font-family="Helvetica,sans-Serif" font-size="14.00">P4_1 ≤ 0.5</text>
<text text-anchor="start" x="958.25" y="-323.95" font-family="Helvetica,sans-Serif" font-size="14.00">squared_error = 107.902</text>
<text text-anchor="start" x="984.5" y="-308.2" font-family="Helvetica,sans-Serif" font-size="14.00">samples = 1472</text>
<text text-anchor="start" x="988.25" y="-292.45" font-family="Helvetica,sans-Serif" font-size="14.00">value = 66.038</text>
</g>
<!-- 1&#45;&gt;95 -->
<g id="edge17" class="edge">
<title>1&#45;&gt;95</title>
<path fill="none" stroke="black" d="M1032.88,-392.54C1032.88,-384.92 1032.88,-376.75 1032.88,-368.77"/>
<polygon fill="black" stroke="black" points="1036.38,-368.82 1032.88,-358.82 1029.38,-368.82 1036.38,-368.82"/>
</g>
<!-- 3 -->
<g id="node4" class="node">
<title>3</title>
<path fill="#efb287" stroke="black" d="M321.75,-250C321.75,-250 188,-250 188,-250 182,-250 176,-244 176,-238 176,-238 176,-191 176,-191 176,-185 182,-179 188,-179 188,-179 321.75,-179 321.75,-179 327.75,-179 333.75,-185 333.75,-191 333.75,-191 333.75,-238 333.75,-238 333.75,-244 327.75,-250 321.75,-250"/>
<text text-anchor="start" x="214.75" y="-232.7" font-family="Helvetica,sans-Serif" font-size="14.00">P4_8_1 ≤ 1.5</text>
<text text-anchor="start" x="184" y="-216.95" font-family="Helvetica,sans-Serif" font-size="14.00">squared_error = 90.403</text>
<text text-anchor="start" x="210.25" y="-201.2" font-family="Helvetica,sans-Serif" font-size="14.00">samples = 436</text>
<text text-anchor="start" x="210.25" y="-185.45" font-family="Helvetica,sans-Serif" font-size="14.00">value = 60.055</text>
</g>
<!-- 2&#45;&gt;3 -->
<g id="edge3" class="edge">
<title>2&#45;&gt;3</title>
<path fill="none" stroke="black" d="M429.82,-286.7C402.52,-275.59 372.06,-263.19 344.31,-251.9"/>
<polygon fill="black" stroke="black" points="345.8,-248.73 335.22,-248.2 343.16,-255.21 345.8,-248.73"/>
</g>
<!-- 48 -->
<g id="node11" class="node">
<title>48</title>
<path fill="#f4c7a8" stroke="black" d="M576,-250C576,-250 449.75,-250 449.75,-250 443.75,-250 437.75,-244 437.75,-238 437.75,-238 437.75,-191 437.75,-191 437.75,-185 443.75,-179 449.75,-179 449.75,-179 576,-179 576,-179 582,-179 588,-185 588,-191 588,-191 588,-238 588,-238 588,-244 582,-250 576,-250"/>
<text text-anchor="start" x="472.75" y="-232.7" font-family="Helvetica,sans-Serif" font-size="14.00">P4_6_1 ≤ 1.5</text>
<text text-anchor="start" x="445.75" y="-216.95" font-family="Helvetica,sans-Serif" font-size="14.00">squared_error = 86.99</text>
<text text-anchor="start" x="468.25" y="-201.2" font-family="Helvetica,sans-Serif" font-size="14.00">samples = 567</text>
<text text-anchor="start" x="468.25" y="-185.45" font-family="Helvetica,sans-Serif" font-size="14.00">value = 51.435</text>
</g>
<!-- 2&#45;&gt;48 -->
<g id="edge10" class="edge">
<title>2&#45;&gt;48</title>
<path fill="none" stroke="black" d="M512.88,-285.54C512.88,-277.92 512.88,-269.75 512.88,-261.77"/>
<polygon fill="black" stroke="black" points="516.38,-261.82 512.88,-251.82 509.38,-261.82 516.38,-261.82"/>
</g>
<!-- 4 -->
<g id="node5" class="node">
<title>4</title>
<path fill="#f1bc95" stroke="black" d="M145.75,-143C145.75,-143 12,-143 12,-143 6,-143 0,-137 0,-131 0,-131 0,-84 0,-84 0,-78 6,-72 12,-72 12,-72 145.75,-72 145.75,-72 151.75,-72 157.75,-78 157.75,-84 157.75,-84 157.75,-131 157.75,-131 157.75,-137 151.75,-143 145.75,-143"/>
<text text-anchor="start" x="46.25" y="-125.7" font-family="Helvetica,sans-Serif" font-size="14.00">P4_1 ≤ 0.5</text>
<text text-anchor="start" x="8" y="-109.95" font-family="Helvetica,sans-Serif" font-size="14.00">squared_error = 70.391</text>
<text text-anchor="start" x="34.25" y="-94.2" font-family="Helvetica,sans-Serif" font-size="14.00">samples = 246</text>
<text text-anchor="start" x="34.25" y="-78.45" font-family="Helvetica,sans-Serif" font-size="14.00">value = 56.265</text>
</g>
<!-- 3&#45;&gt;4 -->
<g id="edge4" class="edge">
<title>3&#45;&gt;4</title>
<path fill="none" stroke="black" d="M196.27,-178.54C180.47,-169.11 163.24,-158.83 146.97,-149.13"/>
<polygon fill="black" stroke="black" points="149.21,-146.38 138.82,-144.27 145.62,-152.39 149.21,-146.38"/>
</g>
<!-- 25 -->
<g id="node8" class="node">
<title>25</title>
<path fill="#eda774" stroke="black" d="M321.75,-143C321.75,-143 188,-143 188,-143 182,-143 176,-137 176,-131 176,-131 176,-84 176,-84 176,-78 182,-72 188,-72 188,-72 321.75,-72 321.75,-72 327.75,-72 333.75,-78 333.75,-84 333.75,-84 333.75,-131 333.75,-131 333.75,-137 327.75,-143 321.75,-143"/>
<text text-anchor="start" x="207.25" y="-125.7" font-family="Helvetica,sans-Serif" font-size="14.00">P7_9_2_2 ≤ 0.5</text>
<text text-anchor="start" x="184" y="-109.95" font-family="Helvetica,sans-Serif" font-size="14.00">squared_error = 73.636</text>
<text text-anchor="start" x="210.25" y="-94.2" font-family="Helvetica,sans-Serif" font-size="14.00">samples = 190</text>
<text text-anchor="start" x="210.25" y="-78.45" font-family="Helvetica,sans-Serif" font-size="14.00">value = 64.962</text>
</g>
<!-- 3&#45;&gt;25 -->
<g id="edge7" class="edge">
<title>3&#45;&gt;25</title>
<path fill="none" stroke="black" d="M254.88,-178.54C254.88,-170.92 254.88,-162.75 254.88,-154.77"/>
<polygon fill="black" stroke="black" points="258.38,-154.82 254.88,-144.82 251.38,-154.82 258.38,-154.82"/>
</g>
<!-- 5 -->
<g id="node6" class="node">
<title>5</title>
<path fill="#c0c0c0" stroke="black" d="M57.88,-36C57.88,-36 27.88,-36 27.88,-36 21.88,-36 15.88,-30 15.88,-24 15.88,-24 15.88,-12 15.88,-12 15.88,-6 21.88,0 27.88,0 27.88,0 57.88,0 57.88,0 63.88,0 69.88,-6 69.88,-12 69.88,-12 69.88,-24 69.88,-24 69.88,-30 63.88,-36 57.88,-36"/>
<text text-anchor="middle" x="42.88" y="-12.57" font-family="Helvetica,sans-Serif" font-size="14.00">(...)</text>
</g>
<!-- 4&#45;&gt;5 -->
<g id="edge5" class="edge">
<title>4&#45;&gt;5</title>
<path fill="none" stroke="black" d="M64.54,-71.67C61.13,-63.37 57.54,-54.63 54.28,-46.71"/>
<polygon fill="black" stroke="black" points="57.56,-45.5 50.52,-37.58 51.09,-48.16 57.56,-45.5"/>
</g>
<!-- 12 -->
<g id="node7" class="node">
<title>12</title>
<path fill="#c0c0c0" stroke="black" d="M129.88,-36C129.88,-36 99.88,-36 99.88,-36 93.88,-36 87.88,-30 87.88,-24 87.88,-24 87.88,-12 87.88,-12 87.88,-6 93.88,0 99.88,0 99.88,0 129.88,0 129.88,0 135.88,0 141.88,-6 141.88,-12 141.88,-12 141.88,-24 141.88,-24 141.88,-30 135.88,-36 129.88,-36"/>
<text text-anchor="middle" x="114.88" y="-12.57" font-family="Helvetica,sans-Serif" font-size="14.00">(...)</text>
</g>
<!-- 4&#45;&gt;12 -->
<g id="edge6" class="edge">
<title>4&#45;&gt;12</title>
<path fill="none" stroke="black" d="M93.21,-71.67C96.62,-63.37 100.21,-54.63 103.47,-46.71"/>
<polygon fill="black" stroke="black" points="106.66,-48.16 107.23,-37.58 100.19,-45.5 106.66,-48.16"/>
</g>
<!-- 26 -->
<g id="node9" class="node">
<title>26</title>
<path fill="#c0c0c0" stroke="black" d="M235.88,-36C235.88,-36 205.88,-36 205.88,-36 199.88,-36 193.88,-30 193.88,-24 193.88,-24 193.88,-12 193.88,-12 193.88,-6 199.88,0 205.88,0 205.88,0 235.88,0 235.88,0 241.88,0 247.88,-6 247.88,-12 247.88,-12 247.88,-24 247.88,-24 247.88,-30 241.88,-36 235.88,-36"/>
<text text-anchor="middle" x="220.88" y="-12.57" font-family="Helvetica,sans-Serif" font-size="14.00">(...)</text>
</g>
<!-- 25&#45;&gt;26 -->
<g id="edge8" class="edge">
<title>25&#45;&gt;26</title>
<path fill="none" stroke="black" d="M241.34,-71.67C238.12,-63.37 234.72,-54.63 231.64,-46.71"/>
<polygon fill="black" stroke="black" points="234.98,-45.65 228.1,-37.59 228.46,-48.18 234.98,-45.65"/>
</g>
<!-- 35 -->
<g id="node10" class="node">
<title>35</title>
<path fill="#c0c0c0" stroke="black" d="M307.88,-36C307.88,-36 277.88,-36 277.88,-36 271.88,-36 265.88,-30 265.88,-24 265.88,-24 265.88,-12 265.88,-12 265.88,-6 271.88,0 277.88,0 277.88,0 307.88,0 307.88,0 313.88,0 319.88,-6 319.88,-12 319.88,-12 319.88,-24 319.88,-24 319.88,-30 313.88,-36 307.88,-36"/>
<text text-anchor="middle" x="292.88" y="-12.57" font-family="Helvetica,sans-Serif" font-size="14.00">(...)</text>
</g>
<!-- 25&#45;&gt;35 -->
<g id="edge9" class="edge">
<title>25&#45;&gt;35</title>
<path fill="none" stroke="black" d="M270,-71.67C273.6,-63.37 277.4,-54.63 280.84,-46.71"/>
<polygon fill="black" stroke="black" points="284.04,-48.14 284.81,-37.57 277.62,-45.35 284.04,-48.14"/>
</g>
<!-- 49 -->
<g id="node12" class="node">
<title>49</title>
<path fill="#f2c19e" stroke="black" d="M490,-143C490,-143 363.75,-143 363.75,-143 357.75,-143 351.75,-137 351.75,-131 351.75,-131 351.75,-84 351.75,-84 351.75,-78 357.75,-72 363.75,-72 363.75,-72 490,-72 490,-72 496,-72 502,-78 502,-84 502,-84 502,-131 502,-131 502,-137 496,-143 490,-143"/>
<text text-anchor="start" x="386.75" y="-125.7" font-family="Helvetica,sans-Serif" font-size="14.00">P7_1_2 ≤ 2.5</text>
<text text-anchor="start" x="359.75" y="-109.95" font-family="Helvetica,sans-Serif" font-size="14.00">squared_error = 76.39</text>
<text text-anchor="start" x="382.25" y="-94.2" font-family="Helvetica,sans-Serif" font-size="14.00">samples = 380</text>
<text text-anchor="start" x="382.25" y="-78.45" font-family="Helvetica,sans-Serif" font-size="14.00">value = 54.073</text>
</g>
<!-- 48&#45;&gt;49 -->
<g id="edge11" class="edge">
<title>48&#45;&gt;49</title>
<path fill="none" stroke="black" d="M484.24,-178.54C477.28,-170.04 469.74,-160.84 462.5,-152"/>
<polygon fill="black" stroke="black" points="465.39,-150 456.35,-144.48 459.97,-154.44 465.39,-150"/>
</g>
<!-- 70 -->
<g id="node15" class="node">
<title>70</title>
<path fill="#f6d4bc" stroke="black" d="M665.75,-143C665.75,-143 532,-143 532,-143 526,-143 520,-137 520,-131 520,-131 520,-84 520,-84 520,-78 526,-72 532,-72 532,-72 665.75,-72 665.75,-72 671.75,-72 677.75,-78 677.75,-84 677.75,-84 677.75,-131 677.75,-131 677.75,-137 671.75,-143 665.75,-143"/>
<text text-anchor="start" x="558.75" y="-125.7" font-family="Helvetica,sans-Serif" font-size="14.00">P4_7_3 ≤ 1.5</text>
<text text-anchor="start" x="528" y="-109.95" font-family="Helvetica,sans-Serif" font-size="14.00">squared_error = 65.654</text>
<text text-anchor="start" x="554.25" y="-94.2" font-family="Helvetica,sans-Serif" font-size="14.00">samples = 187</text>
<text text-anchor="start" x="554.25" y="-78.45" font-family="Helvetica,sans-Serif" font-size="14.00">value = 46.074</text>
</g>
<!-- 48&#45;&gt;70 -->
<g id="edge14" class="edge">
<title>48&#45;&gt;70</title>
<path fill="none" stroke="black" d="M541.51,-178.54C548.47,-170.04 556.01,-160.84 563.25,-152"/>
<polygon fill="black" stroke="black" points="565.78,-154.44 569.4,-144.48 560.36,-150 565.78,-154.44"/>
</g>
<!-- 50 -->
<g id="node13" class="node">
<title>50</title>
<path fill="#c0c0c0" stroke="black" d="M410.88,-36C410.88,-36 380.88,-36 380.88,-36 374.88,-36 368.88,-30 368.88,-24 368.88,-24 368.88,-12 368.88,-12 368.88,-6 374.88,0 380.88,0 380.88,0 410.88,0 410.88,0 416.88,0 422.88,-6 422.88,-12 422.88,-12 422.88,-24 422.88,-24 422.88,-30 416.88,-36 410.88,-36"/>
<text text-anchor="middle" x="395.88" y="-12.57" font-family="Helvetica,sans-Serif" font-size="14.00">(...)</text>
</g>
<!-- 49&#45;&gt;50 -->
<g id="edge12" class="edge">
<title>49&#45;&gt;50</title>
<path fill="none" stroke="black" d="M414.53,-71.67C411.63,-63.47 408.57,-54.84 405.79,-46.98"/>
<polygon fill="black" stroke="black" points="409.11,-45.87 402.47,-37.61 402.51,-48.2 409.11,-45.87"/>
</g>
<!-- 57 -->
<g id="node14" class="node">
<title>57</title>
<path fill="#c0c0c0" stroke="black" d="M482.88,-36C482.88,-36 452.88,-36 452.88,-36 446.88,-36 440.88,-30 440.88,-24 440.88,-24 440.88,-12 440.88,-12 440.88,-6 446.88,0 452.88,0 452.88,0 482.88,0 482.88,0 488.88,0 494.88,-6 494.88,-12 494.88,-12 494.88,-24 494.88,-24 494.88,-30 488.88,-36 482.88,-36"/>
<text text-anchor="middle" x="467.88" y="-12.57" font-family="Helvetica,sans-Serif" font-size="14.00">(...)</text>
</g>
<!-- 49&#45;&gt;57 -->
<g id="edge13" class="edge">
<title>49&#45;&gt;57</title>
<path fill="none" stroke="black" d="M443.2,-71.67C447.13,-63.28 451.27,-54.43 455.02,-46.44"/>
<polygon fill="black" stroke="black" points="458.11,-48.09 459.18,-37.55 451.77,-45.12 458.11,-48.09"/>
</g>
<!-- 71 -->
<g id="node16" class="node">
<title>71</title>
<path fill="#c0c0c0" stroke="black" d="M601.88,-36C601.88,-36 571.88,-36 571.88,-36 565.88,-36 559.88,-30 559.88,-24 559.88,-24 559.88,-12 559.88,-12 559.88,-6 565.88,0 571.88,0 571.88,0 601.88,0 601.88,0 607.88,0 613.88,-6 613.88,-12 613.88,-12 613.88,-24 613.88,-24 613.88,-30 607.88,-36 601.88,-36"/>
<text text-anchor="middle" x="586.88" y="-12.57" font-family="Helvetica,sans-Serif" font-size="14.00">(...)</text>
</g>
<!-- 70&#45;&gt;71 -->
<g id="edge15" class="edge">
<title>70&#45;&gt;71</title>
<path fill="none" stroke="black" d="M594.1,-71.67C593,-63.66 591.84,-55.24 590.79,-47.53"/>
<polygon fill="black" stroke="black" points="594.26,-47.11 589.44,-37.68 587.33,-48.07 594.26,-47.11"/>
</g>
<!-- 84 -->
<g id="node17" class="node">
<title>84</title>
<path fill="#c0c0c0" stroke="black" d="M673.88,-36C673.88,-36 643.88,-36 643.88,-36 637.88,-36 631.88,-30 631.88,-24 631.88,-24 631.88,-12 631.88,-12 631.88,-6 637.88,0 643.88,0 643.88,0 673.88,0 673.88,0 679.88,0 685.88,-6 685.88,-12 685.88,-12 685.88,-24 685.88,-24 685.88,-30 679.88,-36 673.88,-36"/>
<text text-anchor="middle" x="658.88" y="-12.57" font-family="Helvetica,sans-Serif" font-size="14.00">(...)</text>
</g>
<!-- 70&#45;&gt;84 -->
<g id="edge16" class="edge">
<title>70&#45;&gt;84</title>
<path fill="none" stroke="black" d="M622.76,-71.67C628.71,-62.99 634.99,-53.83 640.62,-45.62"/>
<polygon fill="black" stroke="black" points="643.47,-47.66 646.24,-37.43 637.69,-43.7 643.47,-47.66"/>
</g>
<!-- 96 -->
<g id="node19" class="node">
<title>96</title>
<path fill="#e9975b" stroke="black" d="M1011.75,-250C1011.75,-250 878,-250 878,-250 872,-250 866,-244 866,-238 866,-238 866,-191 866,-191 866,-185 872,-179 878,-179 878,-179 1011.75,-179 1011.75,-179 1017.75,-179 1023.75,-185 1023.75,-191 1023.75,-191 1023.75,-238 1023.75,-238 1023.75,-244 1017.75,-250 1011.75,-250"/>
<text text-anchor="start" x="904.75" y="-232.7" font-family="Helvetica,sans-Serif" font-size="14.00">P4_8_1 ≤ 1.5</text>
<text text-anchor="start" x="874" y="-216.95" font-family="Helvetica,sans-Serif" font-size="14.00">squared_error = 92.212</text>
<text text-anchor="start" x="900.25" y="-201.2" font-family="Helvetica,sans-Serif" font-size="14.00">samples = 552</text>
<text text-anchor="start" x="900.25" y="-185.45" font-family="Helvetica,sans-Serif" font-size="14.00">value = 71.569</text>
</g>
<!-- 95&#45;&gt;96 -->
<g id="edge18" class="edge">
<title>95&#45;&gt;96</title>
<path fill="none" stroke="black" d="M1003.57,-285.54C996.45,-277.04 988.74,-267.84 981.33,-259"/>
<polygon fill="black" stroke="black" points="984.13,-256.89 975.02,-251.47 978.76,-261.38 984.13,-256.89"/>
</g>
<!-- 143 -->
<g id="node26" class="node">
<title>143</title>
<path fill="#eeac7d" stroke="black" d="M1187.75,-250C1187.75,-250 1054,-250 1054,-250 1048,-250 1042,-244 1042,-238 1042,-238 1042,-191 1042,-191 1042,-185 1048,-179 1054,-179 1054,-179 1187.75,-179 1187.75,-179 1193.75,-179 1199.75,-185 1199.75,-191 1199.75,-191 1199.75,-238 1199.75,-238 1199.75,-244 1193.75,-250 1187.75,-250"/>
<text text-anchor="start" x="1080.75" y="-232.7" font-family="Helvetica,sans-Serif" font-size="14.00">P4_8_1 ≤ 2.5</text>
<text text-anchor="start" x="1050" y="-216.95" font-family="Helvetica,sans-Serif" font-size="14.00">squared_error = 87.942</text>
<text text-anchor="start" x="1076.25" y="-201.2" font-family="Helvetica,sans-Serif" font-size="14.00">samples = 920</text>
<text text-anchor="start" x="1076.25" y="-185.45" font-family="Helvetica,sans-Serif" font-size="14.00">value = 62.719</text>
</g>
<!-- 95&#45;&gt;143 -->
<g id="edge25" class="edge">
<title>95&#45;&gt;143</title>
<path fill="none" stroke="black" d="M1062.18,-285.54C1069.3,-277.04 1077.01,-267.84 1084.42,-259"/>
<polygon fill="black" stroke="black" points="1086.99,-261.38 1090.73,-251.47 1081.62,-256.89 1086.99,-261.38"/>
</g>
<!-- 97 -->
<g id="node20" class="node">
<title>97</title>
<path fill="#eca470" stroke="black" d="M841.75,-143C841.75,-143 708,-143 708,-143 702,-143 696,-137 696,-131 696,-131 696,-84 696,-84 696,-78 702,-72 708,-72 708,-72 841.75,-72 841.75,-72 847.75,-72 853.75,-78 853.75,-84 853.75,-84 853.75,-131 853.75,-131 853.75,-137 847.75,-143 841.75,-143"/>
<text text-anchor="start" x="734.75" y="-125.7" font-family="Helvetica,sans-Serif" font-size="14.00">P4_6_1 ≤ 1.5</text>
<text text-anchor="start" x="704" y="-109.95" font-family="Helvetica,sans-Serif" font-size="14.00">squared_error = 69.985</text>
<text text-anchor="start" x="730.25" y="-94.2" font-family="Helvetica,sans-Serif" font-size="14.00">samples = 161</text>
<text text-anchor="start" x="730.25" y="-78.45" font-family="Helvetica,sans-Serif" font-size="14.00">value = 66.055</text>
</g>
<!-- 96&#45;&gt;97 -->
<g id="edge19" class="edge">
<title>96&#45;&gt;97</title>
<path fill="none" stroke="black" d="M888.27,-178.54C873.15,-169.2 856.68,-159.03 841.09,-149.4"/>
<polygon fill="black" stroke="black" points="843.16,-146.56 832.81,-144.29 839.48,-152.52 843.16,-146.56"/>
</g>
<!-- 118 -->
<g id="node23" class="node">
<title>118</title>
<path fill="#e89152" stroke="black" d="M1010,-143C1010,-143 883.75,-143 883.75,-143 877.75,-143 871.75,-137 871.75,-131 871.75,-131 871.75,-84 871.75,-84 871.75,-78 877.75,-72 883.75,-72 883.75,-72 1010,-72 1010,-72 1016,-72 1022,-78 1022,-84 1022,-84 1022,-131 1022,-131 1022,-137 1016,-143 1010,-143"/>
<text text-anchor="start" x="906.75" y="-125.7" font-family="Helvetica,sans-Serif" font-size="14.00">P4_6_4 ≤ 1.5</text>
<text text-anchor="start" x="879.75" y="-109.95" font-family="Helvetica,sans-Serif" font-size="14.00">squared_error = 83.69</text>
<text text-anchor="start" x="902.25" y="-94.2" font-family="Helvetica,sans-Serif" font-size="14.00">samples = 391</text>
<text text-anchor="start" x="906" y="-78.45" font-family="Helvetica,sans-Serif" font-size="14.00">value = 73.84</text>
</g>
<!-- 96&#45;&gt;118 -->
<g id="edge22" class="edge">
<title>96&#45;&gt;118</title>
<path fill="none" stroke="black" d="M945.54,-178.54C945.69,-170.92 945.84,-162.75 945.99,-154.77"/>
<polygon fill="black" stroke="black" points="949.49,-154.89 946.18,-144.82 942.49,-154.76 949.49,-154.89"/>
</g>
<!-- 98 -->
<g id="node21" class="node">
<title>98</title>
<path fill="#c0c0c0" stroke="black" d="M753.88,-36C753.88,-36 723.88,-36 723.88,-36 717.88,-36 711.88,-30 711.88,-24 711.88,-24 711.88,-12 711.88,-12 711.88,-6 717.88,0 723.88,0 723.88,0 753.88,0 753.88,0 759.88,0 765.88,-6 765.88,-12 765.88,-12 765.88,-24 765.88,-24 765.88,-30 759.88,-36 753.88,-36"/>
<text text-anchor="middle" x="738.88" y="-12.57" font-family="Helvetica,sans-Serif" font-size="14.00">(...)</text>
</g>
<!-- 97&#45;&gt;98 -->
<g id="edge20" class="edge">
<title>97&#45;&gt;98</title>
<path fill="none" stroke="black" d="M760.54,-71.67C757.13,-63.37 753.54,-54.63 750.28,-46.71"/>
<polygon fill="black" stroke="black" points="753.56,-45.5 746.52,-37.58 747.09,-48.16 753.56,-45.5"/>
</g>
<!-- 111 -->
<g id="node22" class="node">
<title>111</title>
<path fill="#c0c0c0" stroke="black" d="M825.88,-36C825.88,-36 795.88,-36 795.88,-36 789.88,-36 783.88,-30 783.88,-24 783.88,-24 783.88,-12 783.88,-12 783.88,-6 789.88,0 795.88,0 795.88,0 825.88,0 825.88,0 831.88,0 837.88,-6 837.88,-12 837.88,-12 837.88,-24 837.88,-24 837.88,-30 831.88,-36 825.88,-36"/>
<text text-anchor="middle" x="810.88" y="-12.57" font-family="Helvetica,sans-Serif" font-size="14.00">(...)</text>
</g>
<!-- 97&#45;&gt;111 -->
<g id="edge21" class="edge">
<title>97&#45;&gt;111</title>
<path fill="none" stroke="black" d="M789.21,-71.67C792.62,-63.37 796.21,-54.63 799.47,-46.71"/>
<polygon fill="black" stroke="black" points="802.66,-48.16 803.23,-37.58 796.19,-45.5 802.66,-48.16"/>
</g>
<!-- 119 -->
<g id="node24" class="node">
<title>119</title>
<path fill="#c0c0c0" stroke="black" d="M901.88,-36C901.88,-36 871.88,-36 871.88,-36 865.88,-36 859.88,-30 859.88,-24 859.88,-24 859.88,-12 859.88,-12 859.88,-6 865.88,0 871.88,0 871.88,0 901.88,0 901.88,0 907.88,0 913.88,-6 913.88,-12 913.88,-12 913.88,-24 913.88,-24 913.88,-30 907.88,-36 901.88,-36"/>
<text text-anchor="middle" x="886.88" y="-12.57" font-family="Helvetica,sans-Serif" font-size="14.00">(...)</text>
</g>
<!-- 118&#45;&gt;119 -->
<g id="edge23" class="edge">
<title>118&#45;&gt;119</title>
<path fill="none" stroke="black" d="M922.99,-71.67C917.04,-62.99 910.76,-53.83 905.13,-45.62"/>
<polygon fill="black" stroke="black" points="908.06,-43.7 899.51,-37.43 902.28,-47.66 908.06,-43.7"/>
</g>
<!-- 132 -->
<g id="node25" class="node">
<title>132</title>
<path fill="#c0c0c0" stroke="black" d="M973.88,-36C973.88,-36 943.88,-36 943.88,-36 937.88,-36 931.88,-30 931.88,-24 931.88,-24 931.88,-12 931.88,-12 931.88,-6 937.88,0 943.88,0 943.88,0 973.88,0 973.88,0 979.88,0 985.88,-6 985.88,-12 985.88,-12 985.88,-24 985.88,-24 985.88,-30 979.88,-36 973.88,-36"/>
<text text-anchor="middle" x="958.88" y="-12.57" font-family="Helvetica,sans-Serif" font-size="14.00">(...)</text>
</g>
<!-- 118&#45;&gt;132 -->
<g id="edge24" class="edge">
<title>118&#45;&gt;132</title>
<path fill="none" stroke="black" d="M951.65,-71.67C952.75,-63.66 953.91,-55.24 954.96,-47.53"/>
<polygon fill="black" stroke="black" points="958.42,-48.07 956.31,-37.68 951.49,-47.11 958.42,-48.07"/>
</g>
<!-- 144 -->
<g id="node27" class="node">
<title>144</title>
<path fill="#f0b489" stroke="black" d="M1185.75,-143C1185.75,-143 1052,-143 1052,-143 1046,-143 1040,-137 1040,-131 1040,-131 1040,-84 1040,-84 1040,-78 1046,-72 1052,-72 1052,-72 1185.75,-72 1185.75,-72 1191.75,-72 1197.75,-78 1197.75,-84 1197.75,-84 1197.75,-131 1197.75,-131 1197.75,-137 1191.75,-143 1185.75,-143"/>
<text text-anchor="start" x="1078.75" y="-125.7" font-family="Helvetica,sans-Serif" font-size="14.00">P4_7_3 ≤ 1.5</text>
<text text-anchor="start" x="1048" y="-109.95" font-family="Helvetica,sans-Serif" font-size="14.00">squared_error = 71.571</text>
<text text-anchor="start" x="1074.25" y="-94.2" font-family="Helvetica,sans-Serif" font-size="14.00">samples = 530</text>
<text text-anchor="start" x="1074.25" y="-78.45" font-family="Helvetica,sans-Serif" font-size="14.00">value = 59.341</text>
</g>
<!-- 143&#45;&gt;144 -->
<g id="edge26" class="edge">
<title>143&#45;&gt;144</title>
<path fill="none" stroke="black" d="M1120.21,-178.54C1120.06,-170.92 1119.91,-162.75 1119.76,-154.77"/>
<polygon fill="black" stroke="black" points="1123.26,-154.76 1119.57,-144.82 1116.26,-154.89 1123.26,-154.76"/>
</g>
<!-- 173 -->
<g id="node30" class="node">
<title>173</title>
<path fill="#eca16b" stroke="black" d="M1361.75,-143C1361.75,-143 1228,-143 1228,-143 1222,-143 1216,-137 1216,-131 1216,-131 1216,-84 1216,-84 1216,-78 1222,-72 1228,-72 1228,-72 1361.75,-72 1361.75,-72 1367.75,-72 1373.75,-78 1373.75,-84 1373.75,-84 1373.75,-131 1373.75,-131 1373.75,-137 1367.75,-143 1361.75,-143"/>
<text text-anchor="start" x="1254.75" y="-125.7" font-family="Helvetica,sans-Serif" font-size="14.00">P4_6_4 ≤ 1.5</text>
<text text-anchor="start" x="1224" y="-109.95" font-family="Helvetica,sans-Serif" font-size="14.00">squared_error = 73.609</text>
<text text-anchor="start" x="1250.25" y="-94.2" font-family="Helvetica,sans-Serif" font-size="14.00">samples = 390</text>
<text text-anchor="start" x="1254" y="-78.45" font-family="Helvetica,sans-Serif" font-size="14.00">value = 67.31</text>
</g>
<!-- 143&#45;&gt;173 -->
<g id="edge29" class="edge">
<title>143&#45;&gt;173</title>
<path fill="none" stroke="black" d="M1178.81,-178.54C1194.29,-169.2 1211.15,-159.03 1227.1,-149.4"/>
<polygon fill="black" stroke="black" points="1228.84,-152.44 1235.6,-144.27 1225.23,-146.44 1228.84,-152.44"/>
</g>
<!-- 145 -->
<g id="node28" class="node">
<title>145</title>
<path fill="#c0c0c0" stroke="black" d="M1077.88,-36C1077.88,-36 1047.88,-36 1047.88,-36 1041.88,-36 1035.88,-30 1035.88,-24 1035.88,-24 1035.88,-12 1035.88,-12 1035.88,-6 1041.88,0 1047.88,0 1047.88,0 1077.88,0 1077.88,0 1083.88,0 1089.88,-6 1089.88,-12 1089.88,-12 1089.88,-24 1089.88,-24 1089.88,-30 1083.88,-36 1077.88,-36"/>
<text text-anchor="middle" x="1062.88" y="-12.57" font-family="Helvetica,sans-Serif" font-size="14.00">(...)</text>
</g>
<!-- 144&#45;&gt;145 -->
<g id="edge27" class="edge">
<title>144&#45;&gt;145</title>
<path fill="none" stroke="black" d="M1096.58,-71.67C1091.03,-62.99 1085.17,-53.83 1079.91,-45.62"/>
<polygon fill="black" stroke="black" points="1083.03,-43.99 1074.69,-37.46 1077.13,-47.77 1083.03,-43.99"/>
</g>
<!-- 158 -->
<g id="node29" class="node">
<title>158</title>
<path fill="#c0c0c0" stroke="black" d="M1149.88,-36C1149.88,-36 1119.88,-36 1119.88,-36 1113.88,-36 1107.88,-30 1107.88,-24 1107.88,-24 1107.88,-12 1107.88,-12 1107.88,-6 1113.88,0 1119.88,0 1119.88,0 1149.88,0 1149.88,0 1155.88,0 1161.88,-6 1161.88,-12 1161.88,-12 1161.88,-24 1161.88,-24 1161.88,-30 1155.88,-36 1149.88,-36"/>
<text text-anchor="middle" x="1134.88" y="-12.57" font-family="Helvetica,sans-Serif" font-size="14.00">(...)</text>
</g>
<!-- 144&#45;&gt;158 -->
<g id="edge28" class="edge">
<title>144&#45;&gt;158</title>
<path fill="none" stroke="black" d="M1125.24,-71.67C1126.73,-63.56 1128.29,-55.04 1129.71,-47.26"/>
<polygon fill="black" stroke="black" points="1133.1,-48.14 1131.46,-37.67 1126.22,-46.88 1133.1,-48.14"/>
</g>
<!-- 174 -->
<g id="node31" class="node">
<title>174</title>
<path fill="#c0c0c0" stroke="black" d="M1253.88,-36C1253.88,-36 1223.88,-36 1223.88,-36 1217.88,-36 1211.88,-30 1211.88,-24 1211.88,-24 1211.88,-12 1211.88,-12 1211.88,-6 1217.88,0 1223.88,0 1223.88,0 1253.88,0 1253.88,0 1259.88,0 1265.88,-6 1265.88,-12 1265.88,-12 1265.88,-24 1265.88,-24 1265.88,-30 1259.88,-36 1253.88,-36"/>
<text text-anchor="middle" x="1238.88" y="-12.57" font-family="Helvetica,sans-Serif" font-size="14.00">(...)</text>
</g>
<!-- 173&#45;&gt;174 -->
<g id="edge30" class="edge">
<title>173&#45;&gt;174</title>
<path fill="none" stroke="black" d="M1272.58,-71.67C1267.03,-62.99 1261.17,-53.83 1255.91,-45.62"/>
<polygon fill="black" stroke="black" points="1259.03,-43.99 1250.69,-37.46 1253.13,-47.77 1259.03,-43.99"/>
</g>
<!-- 187 -->
<g id="node32" class="node">
<title>187</title>
<path fill="#c0c0c0" stroke="black" d="M1325.88,-36C1325.88,-36 1295.88,-36 1295.88,-36 1289.88,-36 1283.88,-30 1283.88,-24 1283.88,-24 1283.88,-12 1283.88,-12 1283.88,-6 1289.88,0 1295.88,0 1295.88,0 1325.88,0 1325.88,0 1331.88,0 1337.88,-6 1337.88,-12 1337.88,-12 1337.88,-24 1337.88,-24 1337.88,-30 1331.88,-36 1325.88,-36"/>
<text text-anchor="middle" x="1310.88" y="-12.57" font-family="Helvetica,sans-Serif" font-size="14.00">(...)</text>
</g>
<!-- 173&#45;&gt;187 -->
<g id="edge31" class="edge">
<title>173&#45;&gt;187</title>
<path fill="none" stroke="black" d="M1301.24,-71.67C1302.73,-63.56 1304.29,-55.04 1305.71,-47.26"/>
<polygon fill="black" stroke="black" points="1309.1,-48.14 1307.46,-37.67 1302.22,-46.88 1309.1,-48.14"/>
</g>
<!-- 201 -->
<g id="node34" class="node">
<title>201</title>
<path fill="#f5d1b7" stroke="black" d="M1799.75,-357C1799.75,-357 1666,-357 1666,-357 1660,-357 1654,-351 1654,-345 1654,-345 1654,-298 1654,-298 1654,-292 1660,-286 1666,-286 1666,-286 1799.75,-286 1799.75,-286 1805.75,-286 1811.75,-292 1811.75,-298 1811.75,-298 1811.75,-345 1811.75,-345 1811.75,-351 1805.75,-357 1799.75,-357"/>
<text text-anchor="start" x="1692.75" y="-339.7" font-family="Helvetica,sans-Serif" font-size="14.00">P4_6_4 ≤ 1.5</text>
<text text-anchor="start" x="1662" y="-323.95" font-family="Helvetica,sans-Serif" font-size="14.00">squared_error = 85.575</text>
<text text-anchor="start" x="1684.5" y="-308.2" font-family="Helvetica,sans-Serif" font-size="14.00">samples = 1265</text>
<text text-anchor="start" x="1692" y="-292.45" font-family="Helvetica,sans-Serif" font-size="14.00">value = 47.48</text>
</g>
<!-- 200&#45;&gt;201 -->
<g id="edge33" class="edge">
<title>200&#45;&gt;201</title>
<path fill="none" stroke="black" d="M1732.88,-392.54C1732.88,-384.92 1732.88,-376.75 1732.88,-368.77"/>
<polygon fill="black" stroke="black" points="1736.38,-368.82 1732.88,-358.82 1729.38,-368.82 1736.38,-368.82"/>
</g>
<!-- 302 -->
<g id="node49" class="node">
<title>302</title>
<path fill="#f2bf9a" stroke="black" d="M2317.75,-357C2317.75,-357 2184,-357 2184,-357 2178,-357 2172,-351 2172,-345 2172,-345 2172,-298 2172,-298 2172,-292 2178,-286 2184,-286 2184,-286 2317.75,-286 2317.75,-286 2323.75,-286 2329.75,-292 2329.75,-298 2329.75,-298 2329.75,-345 2329.75,-345 2329.75,-351 2323.75,-357 2317.75,-357"/>
<text text-anchor="start" x="2210.75" y="-339.7" font-family="Helvetica,sans-Serif" font-size="14.00">P4_6_1 ≤ 1.5</text>
<text text-anchor="start" x="2180" y="-323.95" font-family="Helvetica,sans-Serif" font-size="14.00">squared_error = 97.307</text>
<text text-anchor="start" x="2202.5" y="-308.2" font-family="Helvetica,sans-Serif" font-size="14.00">samples = 1317</text>
<text text-anchor="start" x="2210" y="-292.45" font-family="Helvetica,sans-Serif" font-size="14.00">value = 54.91</text>
</g>
<!-- 200&#45;&gt;302 -->
<g id="edge48" class="edge">
<title>200&#45;&gt;302</title>
<path fill="none" stroke="black" d="M1815.81,-410.69C1909.98,-391.6 2063.1,-360.56 2160.31,-340.86"/>
<polygon fill="black" stroke="black" points="2161,-344.29 2170.1,-338.87 2159.61,-337.43 2161,-344.29"/>
</g>
<!-- 202 -->
<g id="node35" class="node">
<title>202</title>
<path fill="#f3c5a3" stroke="black" d="M1713.75,-250C1713.75,-250 1580,-250 1580,-250 1574,-250 1568,-244 1568,-238 1568,-238 1568,-191 1568,-191 1568,-185 1574,-179 1580,-179 1580,-179 1713.75,-179 1713.75,-179 1719.75,-179 1725.75,-185 1725.75,-191 1725.75,-191 1725.75,-238 1725.75,-238 1725.75,-244 1719.75,-250 1713.75,-250"/>
<text text-anchor="start" x="1606.75" y="-232.7" font-family="Helvetica,sans-Serif" font-size="14.00">P7_1_2 ≤ 2.5</text>
<text text-anchor="start" x="1576" y="-216.95" font-family="Helvetica,sans-Serif" font-size="14.00">squared_error = 66.316</text>
<text text-anchor="start" x="1602.25" y="-201.2" font-family="Helvetica,sans-Serif" font-size="14.00">samples = 367</text>
<text text-anchor="start" x="1602.25" y="-185.45" font-family="Helvetica,sans-Serif" font-size="14.00">value = 52.589</text>
</g>
<!-- 201&#45;&gt;202 -->
<g id="edge34" class="edge">
<title>201&#45;&gt;202</title>
<path fill="none" stroke="black" d="M1704.24,-285.54C1697.28,-277.04 1689.74,-267.84 1682.5,-259"/>
<polygon fill="black" stroke="black" points="1685.39,-257 1676.35,-251.48 1679.97,-261.44 1685.39,-257"/>
</g>
<!-- 239 -->
<g id="node42" class="node">
<title>239</title>
<path fill="#f7d6bf" stroke="black" d="M1882,-250C1882,-250 1755.75,-250 1755.75,-250 1749.75,-250 1743.75,-244 1743.75,-238 1743.75,-238 1743.75,-191 1743.75,-191 1743.75,-185 1749.75,-179 1755.75,-179 1755.75,-179 1882,-179 1882,-179 1888,-179 1894,-185 1894,-191 1894,-191 1894,-238 1894,-238 1894,-244 1888,-250 1882,-250"/>
<text text-anchor="start" x="1778.75" y="-232.7" font-family="Helvetica,sans-Serif" font-size="14.00">P4_7_3 ≤ 1.5</text>
<text text-anchor="start" x="1751.75" y="-216.95" font-family="Helvetica,sans-Serif" font-size="14.00">squared_error = 78.42</text>
<text text-anchor="start" x="1774.25" y="-201.2" font-family="Helvetica,sans-Serif" font-size="14.00">samples = 898</text>
<text text-anchor="start" x="1774.25" y="-185.45" font-family="Helvetica,sans-Serif" font-size="14.00">value = 45.392</text>
</g>
<!-- 201&#45;&gt;239 -->
<g id="edge41" class="edge">
<title>201&#45;&gt;239</title>
<path fill="none" stroke="black" d="M1761.51,-285.54C1768.47,-277.04 1776.01,-267.84 1783.25,-259"/>
<polygon fill="black" stroke="black" points="1785.78,-261.44 1789.4,-251.48 1780.36,-257 1785.78,-261.44"/>
</g>
<!-- 203 -->
<g id="node36" class="node">
<title>203</title>
<path fill="#efb084" stroke="black" d="M1537.75,-143C1537.75,-143 1404,-143 1404,-143 1398,-143 1392,-137 1392,-131 1392,-131 1392,-84 1392,-84 1392,-78 1398,-72 1404,-72 1404,-72 1537.75,-72 1537.75,-72 1543.75,-72 1549.75,-78 1549.75,-84 1549.75,-84 1549.75,-131 1549.75,-131 1549.75,-137 1543.75,-143 1537.75,-143"/>
<text text-anchor="start" x="1442.75" y="-125.7" font-family="Helvetica,sans-Serif" font-size="14.00">NIV ≤ 4.5</text>
<text text-anchor="start" x="1400" y="-109.95" font-family="Helvetica,sans-Serif" font-size="14.00">squared_error = 50.266</text>
<text text-anchor="start" x="1430" y="-94.2" font-family="Helvetica,sans-Serif" font-size="14.00">samples = 50</text>
<text text-anchor="start" x="1426.25" y="-78.45" font-family="Helvetica,sans-Serif" font-size="14.00">value = 60.889</text>
</g>
<!-- 202&#45;&gt;203 -->
<g id="edge35" class="edge">
<title>202&#45;&gt;203</title>
<path fill="none" stroke="black" d="M1588.27,-178.54C1572.47,-169.11 1555.24,-158.83 1538.97,-149.13"/>
<polygon fill="black" stroke="black" points="1541.21,-146.38 1530.82,-144.27 1537.62,-152.39 1541.21,-146.38"/>
</g>
<!-- 212 -->
<g id="node39" class="node">
<title>212</title>
<path fill="#f4c8a8" stroke="black" d="M1713.75,-143C1713.75,-143 1580,-143 1580,-143 1574,-143 1568,-137 1568,-131 1568,-131 1568,-84 1568,-84 1568,-78 1574,-72 1580,-72 1580,-72 1713.75,-72 1713.75,-72 1719.75,-72 1725.75,-78 1725.75,-84 1725.75,-84 1725.75,-131 1725.75,-131 1725.75,-137 1719.75,-143 1713.75,-143"/>
<text text-anchor="start" x="1606.75" y="-125.7" font-family="Helvetica,sans-Serif" font-size="14.00">P5_1_6 ≤ 0.5</text>
<text text-anchor="start" x="1576" y="-109.95" font-family="Helvetica,sans-Serif" font-size="14.00">squared_error = 56.267</text>
<text text-anchor="start" x="1602.25" y="-94.2" font-family="Helvetica,sans-Serif" font-size="14.00">samples = 317</text>
<text text-anchor="start" x="1602.25" y="-78.45" font-family="Helvetica,sans-Serif" font-size="14.00">value = 51.279</text>
</g>
<!-- 202&#45;&gt;212 -->
<g id="edge38" class="edge">
<title>202&#45;&gt;212</title>
<path fill="none" stroke="black" d="M1646.88,-178.54C1646.88,-170.92 1646.88,-162.75 1646.88,-154.77"/>
<polygon fill="black" stroke="black" points="1650.38,-154.82 1646.88,-144.82 1643.38,-154.82 1650.38,-154.82"/>
</g>
<!-- 204 -->
<g id="node37" class="node">
<title>204</title>
<path fill="#c0c0c0" stroke="black" d="M1429.88,-36C1429.88,-36 1399.88,-36 1399.88,-36 1393.88,-36 1387.88,-30 1387.88,-24 1387.88,-24 1387.88,-12 1387.88,-12 1387.88,-6 1393.88,0 1399.88,0 1399.88,0 1429.88,0 1429.88,0 1435.88,0 1441.88,-6 1441.88,-12 1441.88,-12 1441.88,-24 1441.88,-24 1441.88,-30 1435.88,-36 1429.88,-36"/>
<text text-anchor="middle" x="1414.88" y="-12.57" font-family="Helvetica,sans-Serif" font-size="14.00">(...)</text>
</g>
<!-- 203&#45;&gt;204 -->
<g id="edge36" class="edge">
<title>203&#45;&gt;204</title>
<path fill="none" stroke="black" d="M1448.58,-71.67C1443.03,-62.99 1437.17,-53.83 1431.91,-45.62"/>
<polygon fill="black" stroke="black" points="1435.03,-43.99 1426.69,-37.46 1429.13,-47.77 1435.03,-43.99"/>
</g>
<!-- 205 -->
<g id="node38" class="node">
<title>205</title>
<path fill="#c0c0c0" stroke="black" d="M1501.88,-36C1501.88,-36 1471.88,-36 1471.88,-36 1465.88,-36 1459.88,-30 1459.88,-24 1459.88,-24 1459.88,-12 1459.88,-12 1459.88,-6 1465.88,0 1471.88,0 1471.88,0 1501.88,0 1501.88,0 1507.88,0 1513.88,-6 1513.88,-12 1513.88,-12 1513.88,-24 1513.88,-24 1513.88,-30 1507.88,-36 1501.88,-36"/>
<text text-anchor="middle" x="1486.88" y="-12.57" font-family="Helvetica,sans-Serif" font-size="14.00">(...)</text>
</g>
<!-- 203&#45;&gt;205 -->
<g id="edge37" class="edge">
<title>203&#45;&gt;205</title>
<path fill="none" stroke="black" d="M1477.24,-71.67C1478.73,-63.56 1480.29,-55.04 1481.71,-47.26"/>
<polygon fill="black" stroke="black" points="1485.1,-48.14 1483.46,-37.67 1478.22,-46.88 1485.1,-48.14"/>
</g>
<!-- 213 -->
<g id="node40" class="node">
<title>213</title>
<path fill="#c0c0c0" stroke="black" d="M1603.88,-36C1603.88,-36 1573.88,-36 1573.88,-36 1567.88,-36 1561.88,-30 1561.88,-24 1561.88,-24 1561.88,-12 1561.88,-12 1561.88,-6 1567.88,0 1573.88,0 1573.88,0 1603.88,0 1603.88,0 1609.88,0 1615.88,-6 1615.88,-12 1615.88,-12 1615.88,-24 1615.88,-24 1615.88,-30 1609.88,-36 1603.88,-36"/>
<text text-anchor="middle" x="1588.88" y="-12.57" font-family="Helvetica,sans-Serif" font-size="14.00">(...)</text>
</g>
<!-- 212&#45;&gt;213 -->
<g id="edge39" class="edge">
<title>212&#45;&gt;213</title>
<path fill="none" stroke="black" d="M1623.79,-71.67C1618.04,-62.99 1611.96,-53.83 1606.52,-45.62"/>
<polygon fill="black" stroke="black" points="1609.54,-43.85 1601.1,-37.44 1603.71,-47.71 1609.54,-43.85"/>
</g>
<!-- 224 -->
<g id="node41" class="node">
<title>224</title>
<path fill="#c0c0c0" stroke="black" d="M1675.88,-36C1675.88,-36 1645.88,-36 1645.88,-36 1639.88,-36 1633.88,-30 1633.88,-24 1633.88,-24 1633.88,-12 1633.88,-12 1633.88,-6 1639.88,0 1645.88,0 1645.88,0 1675.88,0 1675.88,0 1681.88,0 1687.88,-6 1687.88,-12 1687.88,-12 1687.88,-24 1687.88,-24 1687.88,-30 1681.88,-36 1675.88,-36"/>
<text text-anchor="middle" x="1660.88" y="-12.57" font-family="Helvetica,sans-Serif" font-size="14.00">(...)</text>
</g>
<!-- 212&#45;&gt;224 -->
<g id="edge40" class="edge">
<title>212&#45;&gt;224</title>
<path fill="none" stroke="black" d="M1652.45,-71.67C1653.73,-63.66 1655.08,-55.24 1656.31,-47.53"/>
<polygon fill="black" stroke="black" points="1659.76,-48.1 1657.89,-37.68 1652.85,-47 1659.76,-48.1"/>
</g>
<!-- 240 -->
<g id="node43" class="node">
<title>240</title>
<path fill="#f5d0b5" stroke="black" d="M1882,-143C1882,-143 1755.75,-143 1755.75,-143 1749.75,-143 1743.75,-137 1743.75,-131 1743.75,-131 1743.75,-84 1743.75,-84 1743.75,-78 1749.75,-72 1755.75,-72 1755.75,-72 1882,-72 1882,-72 1888,-72 1894,-78 1894,-84 1894,-84 1894,-131 1894,-131 1894,-137 1888,-143 1882,-143"/>
<text text-anchor="start" x="1778.75" y="-125.7" font-family="Helvetica,sans-Serif" font-size="14.00">P4_6_1 ≤ 1.5</text>
<text text-anchor="start" x="1751.75" y="-109.95" font-family="Helvetica,sans-Serif" font-size="14.00">squared_error = 68.21</text>
<text text-anchor="start" x="1774.25" y="-94.2" font-family="Helvetica,sans-Serif" font-size="14.00">samples = 585</text>
<text text-anchor="start" x="1774.25" y="-78.45" font-family="Helvetica,sans-Serif" font-size="14.00">value = 47.869</text>
</g>
<!-- 239&#45;&gt;240 -->
<g id="edge42" class="edge">
<title>239&#45;&gt;240</title>
<path fill="none" stroke="black" d="M1818.88,-178.54C1818.88,-170.92 1818.88,-162.75 1818.88,-154.77"/>
<polygon fill="black" stroke="black" points="1822.38,-154.82 1818.88,-144.82 1815.38,-154.82 1822.38,-154.82"/>
</g>
<!-- 271 -->
<g id="node46" class="node">
<title>271</title>
<path fill="#f9e1d0" stroke="black" d="M2057.75,-143C2057.75,-143 1924,-143 1924,-143 1918,-143 1912,-137 1912,-131 1912,-131 1912,-84 1912,-84 1912,-78 1918,-72 1924,-72 1924,-72 2057.75,-72 2057.75,-72 2063.75,-72 2069.75,-78 2069.75,-84 2069.75,-84 2069.75,-131 2069.75,-131 2069.75,-137 2063.75,-143 2057.75,-143"/>
<text text-anchor="start" x="1950.75" y="-125.7" font-family="Helvetica,sans-Serif" font-size="14.00">P4_6_1 ≤ 1.5</text>
<text text-anchor="start" x="1920" y="-109.95" font-family="Helvetica,sans-Serif" font-size="14.00">squared_error = 64.607</text>
<text text-anchor="start" x="1946.25" y="-94.2" font-family="Helvetica,sans-Serif" font-size="14.00">samples = 313</text>
<text text-anchor="start" x="1946.25" y="-78.45" font-family="Helvetica,sans-Serif" font-size="14.00">value = 40.763</text>
</g>
<!-- 239&#45;&gt;271 -->
<g id="edge45" class="edge">
<title>239&#45;&gt;271</title>
<path fill="none" stroke="black" d="M1876.15,-178.54C1891.44,-169.2 1908.11,-159.03 1923.88,-149.4"/>
<polygon fill="black" stroke="black" points="1925.56,-152.48 1932.27,-144.28 1921.91,-146.5 1925.56,-152.48"/>
</g>
<!-- 241 -->
<g id="node44" class="node">
<title>241</title>
<path fill="#c0c0c0" stroke="black" d="M1775.88,-36C1775.88,-36 1745.88,-36 1745.88,-36 1739.88,-36 1733.88,-30 1733.88,-24 1733.88,-24 1733.88,-12 1733.88,-12 1733.88,-6 1739.88,0 1745.88,0 1745.88,0 1775.88,0 1775.88,0 1781.88,0 1787.88,-6 1787.88,-12 1787.88,-12 1787.88,-24 1787.88,-24 1787.88,-30 1781.88,-36 1775.88,-36"/>
<text text-anchor="middle" x="1760.88" y="-12.57" font-family="Helvetica,sans-Serif" font-size="14.00">(...)</text>
</g>
<!-- 240&#45;&gt;241 -->
<g id="edge43" class="edge">
<title>240&#45;&gt;241</title>
<path fill="none" stroke="black" d="M1795.79,-71.67C1790.04,-62.99 1783.96,-53.83 1778.52,-45.62"/>
<polygon fill="black" stroke="black" points="1781.54,-43.85 1773.1,-37.44 1775.71,-47.71 1781.54,-43.85"/>
</g>
<!-- 256 -->
<g id="node45" class="node">
<title>256</title>
<path fill="#c0c0c0" stroke="black" d="M1847.88,-36C1847.88,-36 1817.88,-36 1817.88,-36 1811.88,-36 1805.88,-30 1805.88,-24 1805.88,-24 1805.88,-12 1805.88,-12 1805.88,-6 1811.88,0 1817.88,0 1817.88,0 1847.88,0 1847.88,0 1853.88,0 1859.88,-6 1859.88,-12 1859.88,-12 1859.88,-24 1859.88,-24 1859.88,-30 1853.88,-36 1847.88,-36"/>
<text text-anchor="middle" x="1832.88" y="-12.57" font-family="Helvetica,sans-Serif" font-size="14.00">(...)</text>
</g>
<!-- 240&#45;&gt;256 -->
<g id="edge44" class="edge">
<title>240&#45;&gt;256</title>
<path fill="none" stroke="black" d="M1824.45,-71.67C1825.73,-63.66 1827.08,-55.24 1828.31,-47.53"/>
<polygon fill="black" stroke="black" points="1831.76,-48.1 1829.89,-37.68 1824.85,-47 1831.76,-48.1"/>
</g>
<!-- 272 -->
<g id="node47" class="node">
<title>272</title>
<path fill="#c0c0c0" stroke="black" d="M1949.88,-36C1949.88,-36 1919.88,-36 1919.88,-36 1913.88,-36 1907.88,-30 1907.88,-24 1907.88,-24 1907.88,-12 1907.88,-12 1907.88,-6 1913.88,0 1919.88,0 1919.88,0 1949.88,0 1949.88,0 1955.88,0 1961.88,-6 1961.88,-12 1961.88,-12 1961.88,-24 1961.88,-24 1961.88,-30 1955.88,-36 1949.88,-36"/>
<text text-anchor="middle" x="1934.88" y="-12.57" font-family="Helvetica,sans-Serif" font-size="14.00">(...)</text>
</g>
<!-- 271&#45;&gt;272 -->
<g id="edge46" class="edge">
<title>271&#45;&gt;272</title>
<path fill="none" stroke="black" d="M1968.58,-71.67C1963.03,-62.99 1957.17,-53.83 1951.91,-45.62"/>
<polygon fill="black" stroke="black" points="1955.03,-43.99 1946.69,-37.46 1949.13,-47.77 1955.03,-43.99"/>
</g>
<!-- 287 -->
<g id="node48" class="node">
<title>287</title>
<path fill="#c0c0c0" stroke="black" d="M2021.88,-36C2021.88,-36 1991.88,-36 1991.88,-36 1985.88,-36 1979.88,-30 1979.88,-24 1979.88,-24 1979.88,-12 1979.88,-12 1979.88,-6 1985.88,0 1991.88,0 1991.88,0 2021.88,0 2021.88,0 2027.88,0 2033.88,-6 2033.88,-12 2033.88,-12 2033.88,-24 2033.88,-24 2033.88,-30 2027.88,-36 2021.88,-36"/>
<text text-anchor="middle" x="2006.88" y="-12.57" font-family="Helvetica,sans-Serif" font-size="14.00">(...)</text>
</g>
<!-- 271&#45;&gt;287 -->
<g id="edge47" class="edge">
<title>271&#45;&gt;287</title>
<path fill="none" stroke="black" d="M1997.24,-71.67C1998.73,-63.56 2000.29,-55.04 2001.71,-47.26"/>
<polygon fill="black" stroke="black" points="2005.1,-48.14 2003.46,-37.67 1998.22,-46.88 2005.1,-48.14"/>
</g>
<!-- 303 -->
<g id="node50" class="node">
<title>303</title>
<path fill="#f0b890" stroke="black" d="M2317.75,-250C2317.75,-250 2184,-250 2184,-250 2178,-250 2172,-244 2172,-238 2172,-238 2172,-191 2172,-191 2172,-185 2178,-179 2184,-179 2184,-179 2317.75,-179 2317.75,-179 2323.75,-179 2329.75,-185 2329.75,-191 2329.75,-191 2329.75,-238 2329.75,-238 2329.75,-244 2323.75,-250 2317.75,-250"/>
<text text-anchor="start" x="2210.75" y="-232.7" font-family="Helvetica,sans-Serif" font-size="14.00">P4_8_1 ≤ 2.5</text>
<text text-anchor="start" x="2180" y="-216.95" font-family="Helvetica,sans-Serif" font-size="14.00">squared_error = 81.318</text>
<text text-anchor="start" x="2206.25" y="-201.2" font-family="Helvetica,sans-Serif" font-size="14.00">samples = 856</text>
<text text-anchor="start" x="2206.25" y="-185.45" font-family="Helvetica,sans-Serif" font-size="14.00">value = 57.608</text>
</g>
<!-- 302&#45;&gt;303 -->
<g id="edge49" class="edge">
<title>302&#45;&gt;303</title>
<path fill="none" stroke="black" d="M2250.88,-285.54C2250.88,-277.92 2250.88,-269.75 2250.88,-261.77"/>
<polygon fill="black" stroke="black" points="2254.38,-261.82 2250.88,-251.82 2247.38,-261.82 2254.38,-261.82"/>
</g>
<!-- 362 -->
<g id="node57" class="node">
<title>362</title>
<path fill="#f4cbad" stroke="black" d="M2570,-250C2570,-250 2443.75,-250 2443.75,-250 2437.75,-250 2431.75,-244 2431.75,-238 2431.75,-238 2431.75,-191 2431.75,-191 2431.75,-185 2437.75,-179 2443.75,-179 2443.75,-179 2570,-179 2570,-179 2576,-179 2582,-185 2582,-191 2582,-191 2582,-238 2582,-238 2582,-244 2576,-250 2570,-250"/>
<text text-anchor="start" x="2466.75" y="-232.7" font-family="Helvetica,sans-Serif" font-size="14.00">P4_6_2 ≤ 1.5</text>
<text text-anchor="start" x="2439.75" y="-216.95" font-family="Helvetica,sans-Serif" font-size="14.00">squared_error = 88.36</text>
<text text-anchor="start" x="2462.25" y="-201.2" font-family="Helvetica,sans-Serif" font-size="14.00">samples = 461</text>
<text text-anchor="start" x="2462.25" y="-185.45" font-family="Helvetica,sans-Serif" font-size="14.00">value = 49.898</text>
</g>
<!-- 302&#45;&gt;362 -->
<g id="edge56" class="edge">
<title>302&#45;&gt;362</title>
<path fill="none" stroke="black" d="M2330.12,-288C2358.89,-276.2 2391.53,-262.81 2420.86,-250.78"/>
<polygon fill="black" stroke="black" points="2422.18,-254.02 2430.1,-246.99 2419.52,-247.55 2422.18,-254.02"/>
</g>
<!-- 304 -->
<g id="node51" class="node">
<title>304</title>
<path fill="#f2c09b" stroke="black" d="M2233.75,-143C2233.75,-143 2100,-143 2100,-143 2094,-143 2088,-137 2088,-131 2088,-131 2088,-84 2088,-84 2088,-78 2094,-72 2100,-72 2100,-72 2233.75,-72 2233.75,-72 2239.75,-72 2245.75,-78 2245.75,-84 2245.75,-84 2245.75,-131 2245.75,-131 2245.75,-137 2239.75,-143 2233.75,-143"/>
<text text-anchor="start" x="2123.38" y="-125.7" font-family="Helvetica,sans-Serif" font-size="14.00">P11_3_9 ≤ 0.5</text>
<text text-anchor="start" x="2096" y="-109.95" font-family="Helvetica,sans-Serif" font-size="14.00">squared_error = 66.039</text>
<text text-anchor="start" x="2122.25" y="-94.2" font-family="Helvetica,sans-Serif" font-size="14.00">samples = 521</text>
<text text-anchor="start" x="2122.25" y="-78.45" font-family="Helvetica,sans-Serif" font-size="14.00">value = 54.654</text>
</g>
<!-- 303&#45;&gt;304 -->
<g id="edge50" class="edge">
<title>303&#45;&gt;304</title>
<path fill="none" stroke="black" d="M2222.9,-178.54C2216.17,-170.12 2208.9,-161.03 2201.89,-152.27"/>
<polygon fill="black" stroke="black" points="2204.65,-150.11 2195.67,-144.49 2199.18,-154.49 2204.65,-150.11"/>
</g>
<!-- 333 -->
<g id="node54" class="node">
<title>333</title>
<path fill="#eead7f" stroke="black" d="M2402,-143C2402,-143 2275.75,-143 2275.75,-143 2269.75,-143 2263.75,-137 2263.75,-131 2263.75,-131 2263.75,-84 2263.75,-84 2263.75,-78 2269.75,-72 2275.75,-72 2275.75,-72 2402,-72 2402,-72 2408,-72 2414,-78 2414,-84 2414,-84 2414,-131 2414,-131 2414,-137 2408,-143 2402,-143"/>
<text text-anchor="start" x="2298.75" y="-125.7" font-family="Helvetica,sans-Serif" font-size="14.00">P4_6_4 ≤ 1.5</text>
<text text-anchor="start" x="2271.75" y="-109.95" font-family="Helvetica,sans-Serif" font-size="14.00">squared_error = 70.39</text>
<text text-anchor="start" x="2294.25" y="-94.2" font-family="Helvetica,sans-Serif" font-size="14.00">samples = 335</text>
<text text-anchor="start" x="2294.25" y="-78.45" font-family="Helvetica,sans-Serif" font-size="14.00">value = 62.203</text>
</g>
<!-- 303&#45;&gt;333 -->
<g id="edge53" class="edge">
<title>303&#45;&gt;333</title>
<path fill="none" stroke="black" d="M2280.18,-178.54C2287.3,-170.04 2295.01,-160.84 2302.42,-152"/>
<polygon fill="black" stroke="black" points="2304.99,-154.38 2308.73,-144.47 2299.62,-149.89 2304.99,-154.38"/>
</g>
<!-- 305 -->
<g id="node52" class="node">
<title>305</title>
<path fill="#c0c0c0" stroke="black" d="M2123.88,-36C2123.88,-36 2093.88,-36 2093.88,-36 2087.88,-36 2081.88,-30 2081.88,-24 2081.88,-24 2081.88,-12 2081.88,-12 2081.88,-6 2087.88,0 2093.88,0 2093.88,0 2123.88,0 2123.88,0 2129.88,0 2135.88,-6 2135.88,-12 2135.88,-12 2135.88,-24 2135.88,-24 2135.88,-30 2129.88,-36 2123.88,-36"/>
<text text-anchor="middle" x="2108.88" y="-12.57" font-family="Helvetica,sans-Serif" font-size="14.00">(...)</text>
</g>
<!-- 304&#45;&gt;305 -->
<g id="edge51" class="edge">
<title>304&#45;&gt;305</title>
<path fill="none" stroke="black" d="M2143.79,-71.67C2138.04,-62.99 2131.96,-53.83 2126.52,-45.62"/>
<polygon fill="black" stroke="black" points="2129.54,-43.85 2121.1,-37.44 2123.71,-47.71 2129.54,-43.85"/>
</g>
<!-- 320 -->
<g id="node53" class="node">
<title>320</title>
<path fill="#c0c0c0" stroke="black" d="M2195.88,-36C2195.88,-36 2165.88,-36 2165.88,-36 2159.88,-36 2153.88,-30 2153.88,-24 2153.88,-24 2153.88,-12 2153.88,-12 2153.88,-6 2159.88,0 2165.88,0 2165.88,0 2195.88,0 2195.88,0 2201.88,0 2207.88,-6 2207.88,-12 2207.88,-12 2207.88,-24 2207.88,-24 2207.88,-30 2201.88,-36 2195.88,-36"/>
<text text-anchor="middle" x="2180.88" y="-12.57" font-family="Helvetica,sans-Serif" font-size="14.00">(...)</text>
</g>
<!-- 304&#45;&gt;320 -->
<g id="edge52" class="edge">
<title>304&#45;&gt;320</title>
<path fill="none" stroke="black" d="M2172.45,-71.67C2173.73,-63.66 2175.08,-55.24 2176.31,-47.53"/>
<polygon fill="black" stroke="black" points="2179.76,-48.1 2177.89,-37.68 2172.85,-47 2179.76,-48.1"/>
</g>
<!-- 334 -->
<g id="node55" class="node">
<title>334</title>
<path fill="#c0c0c0" stroke="black" d="M2293.88,-36C2293.88,-36 2263.88,-36 2263.88,-36 2257.88,-36 2251.88,-30 2251.88,-24 2251.88,-24 2251.88,-12 2251.88,-12 2251.88,-6 2257.88,0 2263.88,0 2263.88,0 2293.88,0 2293.88,0 2299.88,0 2305.88,-6 2305.88,-12 2305.88,-12 2305.88,-24 2305.88,-24 2305.88,-30 2299.88,-36 2293.88,-36"/>
<text text-anchor="middle" x="2278.88" y="-12.57" font-family="Helvetica,sans-Serif" font-size="14.00">(...)</text>
</g>
<!-- 333&#45;&gt;334 -->
<g id="edge54" class="edge">
<title>333&#45;&gt;334</title>
<path fill="none" stroke="black" d="M2314.99,-71.67C2309.04,-62.99 2302.76,-53.83 2297.13,-45.62"/>
<polygon fill="black" stroke="black" points="2300.06,-43.7 2291.51,-37.43 2294.28,-47.66 2300.06,-43.7"/>
</g>
<!-- 347 -->
<g id="node56" class="node">
<title>347</title>
<path fill="#c0c0c0" stroke="black" d="M2365.88,-36C2365.88,-36 2335.88,-36 2335.88,-36 2329.88,-36 2323.88,-30 2323.88,-24 2323.88,-24 2323.88,-12 2323.88,-12 2323.88,-6 2329.88,0 2335.88,0 2335.88,0 2365.88,0 2365.88,0 2371.88,0 2377.88,-6 2377.88,-12 2377.88,-12 2377.88,-24 2377.88,-24 2377.88,-30 2371.88,-36 2365.88,-36"/>
<text text-anchor="middle" x="2350.88" y="-12.57" font-family="Helvetica,sans-Serif" font-size="14.00">(...)</text>
</g>
<!-- 333&#45;&gt;347 -->
<g id="edge55" class="edge">
<title>333&#45;&gt;347</title>
<path fill="none" stroke="black" d="M2343.65,-71.67C2344.75,-63.66 2345.91,-55.24 2346.96,-47.53"/>
<polygon fill="black" stroke="black" points="2350.42,-48.07 2348.31,-37.68 2343.49,-47.11 2350.42,-48.07"/>
</g>
<!-- 363 -->
<g id="node58" class="node">
<title>363</title>
<path fill="#f3c3a1" stroke="black" d="M2570,-143C2570,-143 2443.75,-143 2443.75,-143 2437.75,-143 2431.75,-137 2431.75,-131 2431.75,-131 2431.75,-84 2431.75,-84 2431.75,-78 2437.75,-72 2443.75,-72 2443.75,-72 2570,-72 2570,-72 2576,-72 2582,-78 2582,-84 2582,-84 2582,-131 2582,-131 2582,-137 2576,-143 2570,-143"/>
<text text-anchor="start" x="2466.75" y="-125.7" font-family="Helvetica,sans-Serif" font-size="14.00">P4_2_5 ≤ 0.5</text>
<text text-anchor="start" x="2439.75" y="-109.95" font-family="Helvetica,sans-Serif" font-size="14.00">squared_error = 71.83</text>
<text text-anchor="start" x="2462.25" y="-94.2" font-family="Helvetica,sans-Serif" font-size="14.00">samples = 260</text>
<text text-anchor="start" x="2462.25" y="-78.45" font-family="Helvetica,sans-Serif" font-size="14.00">value = 53.248</text>
</g>
<!-- 362&#45;&gt;363 -->
<g id="edge57" class="edge">
<title>362&#45;&gt;363</title>
<path fill="none" stroke="black" d="M2506.88,-178.54C2506.88,-170.92 2506.88,-162.75 2506.88,-154.77"/>
<polygon fill="black" stroke="black" points="2510.38,-154.82 2506.88,-144.82 2503.38,-154.82 2510.38,-154.82"/>
</g>
<!-- 384 -->
<g id="node61" class="node">
<title>384</title>
<path fill="#f6d6be" stroke="black" d="M2745.75,-143C2745.75,-143 2612,-143 2612,-143 2606,-143 2600,-137 2600,-131 2600,-131 2600,-84 2600,-84 2600,-78 2606,-72 2612,-72 2612,-72 2745.75,-72 2745.75,-72 2751.75,-72 2757.75,-78 2757.75,-84 2757.75,-84 2757.75,-131 2757.75,-131 2757.75,-137 2751.75,-143 2745.75,-143"/>
<text text-anchor="start" x="2638.75" y="-125.7" font-family="Helvetica,sans-Serif" font-size="14.00">P4_7_3 ≤ 1.5</text>
<text text-anchor="start" x="2608" y="-109.95" font-family="Helvetica,sans-Serif" font-size="14.00">squared_error = 76.459</text>
<text text-anchor="start" x="2634.25" y="-94.2" font-family="Helvetica,sans-Serif" font-size="14.00">samples = 201</text>
<text text-anchor="start" x="2634.25" y="-78.45" font-family="Helvetica,sans-Serif" font-size="14.00">value = 45.566</text>
</g>
<!-- 362&#45;&gt;384 -->
<g id="edge60" class="edge">
<title>362&#45;&gt;384</title>
<path fill="none" stroke="black" d="M2564.15,-178.54C2579.44,-169.2 2596.11,-159.03 2611.88,-149.4"/>
<polygon fill="black" stroke="black" points="2613.56,-152.48 2620.27,-144.28 2609.91,-146.5 2613.56,-152.48"/>
</g>
<!-- 364 -->
<g id="node59" class="node">
<title>364</title>
<path fill="#c0c0c0" stroke="black" d="M2481.88,-36C2481.88,-36 2451.88,-36 2451.88,-36 2445.88,-36 2439.88,-30 2439.88,-24 2439.88,-24 2439.88,-12 2439.88,-12 2439.88,-6 2445.88,0 2451.88,0 2451.88,0 2481.88,0 2481.88,0 2487.88,0 2493.88,-6 2493.88,-12 2493.88,-12 2493.88,-24 2493.88,-24 2493.88,-30 2487.88,-36 2481.88,-36"/>
<text text-anchor="middle" x="2466.88" y="-12.57" font-family="Helvetica,sans-Serif" font-size="14.00">(...)</text>
</g>
<!-- 363&#45;&gt;364 -->
<g id="edge58" class="edge">
<title>363&#45;&gt;364</title>
<path fill="none" stroke="black" d="M2490.95,-71.67C2487.12,-63.28 2483.07,-54.43 2479.42,-46.44"/>
<polygon fill="black" stroke="black" points="2482.7,-45.2 2475.36,-37.56 2476.33,-48.11 2482.7,-45.2"/>
</g>
<!-- 369 -->
<g id="node60" class="node">
<title>369</title>
<path fill="#c0c0c0" stroke="black" d="M2553.88,-36C2553.88,-36 2523.88,-36 2523.88,-36 2517.88,-36 2511.88,-30 2511.88,-24 2511.88,-24 2511.88,-12 2511.88,-12 2511.88,-6 2517.88,0 2523.88,0 2523.88,0 2553.88,0 2553.88,0 2559.88,0 2565.88,-6 2565.88,-12 2565.88,-12 2565.88,-24 2565.88,-24 2565.88,-30 2559.88,-36 2553.88,-36"/>
<text text-anchor="middle" x="2538.88" y="-12.57" font-family="Helvetica,sans-Serif" font-size="14.00">(...)</text>
</g>
<!-- 363&#45;&gt;369 -->
<g id="edge59" class="edge">
<title>363&#45;&gt;369</title>
<path fill="none" stroke="black" d="M2519.61,-71.67C2522.61,-63.47 2525.77,-54.84 2528.64,-46.98"/>
<polygon fill="black" stroke="black" points="2531.92,-48.2 2532.07,-37.6 2525.35,-45.79 2531.92,-48.2"/>
</g>
<!-- 385 -->
<g id="node62" class="node">
<title>385</title>
<path fill="#c0c0c0" stroke="black" d="M2657.88,-36C2657.88,-36 2627.88,-36 2627.88,-36 2621.88,-36 2615.88,-30 2615.88,-24 2615.88,-24 2615.88,-12 2615.88,-12 2615.88,-6 2621.88,0 2627.88,0 2627.88,0 2657.88,0 2657.88,0 2663.88,0 2669.88,-6 2669.88,-12 2669.88,-12 2669.88,-24 2669.88,-24 2669.88,-30 2663.88,-36 2657.88,-36"/>
<text text-anchor="middle" x="2642.88" y="-12.57" font-family="Helvetica,sans-Serif" font-size="14.00">(...)</text>
</g>
<!-- 384&#45;&gt;385 -->
<g id="edge61" class="edge">
<title>384&#45;&gt;385</title>
<path fill="none" stroke="black" d="M2664.54,-71.67C2661.13,-63.37 2657.54,-54.63 2654.28,-46.71"/>
<polygon fill="black" stroke="black" points="2657.56,-45.5 2650.52,-37.58 2651.09,-48.16 2657.56,-45.5"/>
</g>
<!-- 398 -->
<g id="node63" class="node">
<title>398</title>
<path fill="#c0c0c0" stroke="black" d="M2729.88,-36C2729.88,-36 2699.88,-36 2699.88,-36 2693.88,-36 2687.88,-30 2687.88,-24 2687.88,-24 2687.88,-12 2687.88,-12 2687.88,-6 2693.88,0 2699.88,0 2699.88,0 2729.88,0 2729.88,0 2735.88,0 2741.88,-6 2741.88,-12 2741.88,-12 2741.88,-24 2741.88,-24 2741.88,-30 2735.88,-36 2729.88,-36"/>
<text text-anchor="middle" x="2714.88" y="-12.57" font-family="Helvetica,sans-Serif" font-size="14.00">(...)</text>
</g>
<!-- 384&#45;&gt;398 -->
<g id="edge62" class="edge">
<title>384&#45;&gt;398</title>
<path fill="none" stroke="black" d="M2693.21,-71.67C2696.62,-63.37 2700.21,-54.63 2703.47,-46.71"/>
<polygon fill="black" stroke="black" points="2706.66,-48.16 2707.23,-37.58 2700.19,-45.5 2706.66,-48.16"/>
</g>
</g>
</svg>
