<?xml version="1.0" encoding="UTF-8" standalone="no"?>
<!DOCTYPE svg PUBLIC "-//W3C//DTD SVG 1.1//EN"
 "http://www.w3.org/Graphics/SVG/1.1/DTD/svg11.dtd">
<!-- Generated by graphviz version 12.2.1 (20241206.2353)
 -->
<!-- Title: Tree Pages: 1 -->
<svg width="2804pt" height="579pt"
 viewBox="0.00 0.00 2803.75 579.00" xmlns="http://www.w3.org/2000/svg" xmlns:xlink="http://www.w3.org/1999/xlink">
<g id="graph0" class="graph" transform="scale(1 1) rotate(0) translate(4 575)">
<title>Tree</title>
<polygon fill="white" stroke="none" points="-4,4 -4,-575 2799.75,-575 2799.75,4 -4,4"/>
<!-- 0 -->
<g id="node1" class="node">
<title>0</title>
<path fill="#f2c09b" stroke="black" d="M1465.5,-571C1465.5,-571 1324.25,-571 1324.25,-571 1318.25,-571 1312.25,-565 1312.25,-559 1312.25,-559 1312.25,-512 1312.25,-512 1312.25,-506 1318.25,-500 1324.25,-500 1324.25,-500 1465.5,-500 1465.5,-500 1471.5,-500 1477.5,-506 1477.5,-512 1477.5,-512 1477.5,-559 1477.5,-559 1477.5,-565 1471.5,-571 1465.5,-571"/>
<text text-anchor="start" x="1354.75" y="-553.7" font-family="Helvetica,sans-Serif" font-size="14.00">P4_8_3 ≤ 1.5</text>
<text text-anchor="start" x="1320.25" y="-537.95" font-family="Helvetica,sans-Serif" font-size="14.00">squared_error = 164.537</text>
<text text-anchor="start" x="1346.5" y="-522.2" font-family="Helvetica,sans-Serif" font-size="14.00">samples = 4936</text>
<text text-anchor="start" x="1350.25" y="-506.45" font-family="Helvetica,sans-Serif" font-size="14.00">value = 55.918</text>
</g>
<!-- 1 -->
<g id="node2" class="node">
<title>1</title>
<path fill="#efb388" stroke="black" d="M1117.5,-464C1117.5,-464 976.25,-464 976.25,-464 970.25,-464 964.25,-458 964.25,-452 964.25,-452 964.25,-405 964.25,-405 964.25,-399 970.25,-393 976.25,-393 976.25,-393 1117.5,-393 1117.5,-393 1123.5,-393 1129.5,-399 1129.5,-405 1129.5,-405 1129.5,-452 1129.5,-452 1129.5,-458 1123.5,-464 1117.5,-464"/>
<text text-anchor="start" x="1006.75" y="-446.7" font-family="Helvetica,sans-Serif" font-size="14.00">P4_8_2 ≤ 1.5</text>
<text text-anchor="start" x="972.25" y="-430.95" font-family="Helvetica,sans-Serif" font-size="14.00">squared_error = 137.482</text>
<text text-anchor="start" x="998.5" y="-415.2" font-family="Helvetica,sans-Serif" font-size="14.00">samples = 2349</text>
<text text-anchor="start" x="1006" y="-399.45" font-family="Helvetica,sans-Serif" font-size="14.00">value = 61.92</text>
</g>
<!-- 0&#45;&gt;1 -->
<g id="edge1" class="edge">
<title>0&#45;&gt;1</title>
<path fill="none" stroke="black" d="M1311.96,-509.48C1260.43,-493.93 1194.05,-473.91 1140.61,-457.78"/>
<polygon fill="black" stroke="black" points="1141.79,-454.48 1131.2,-454.94 1139.77,-461.18 1141.79,-454.48"/>
<text text-anchor="middle" x="1141.57" y="-471.11" font-family="Helvetica,sans-Serif" font-size="14.00">True</text>
</g>
<!-- 308 -->
<g id="node33" class="node">
<title>308</title>
<path fill="#f4cbad" stroke="black" d="M1815.5,-464C1815.5,-464 1674.25,-464 1674.25,-464 1668.25,-464 1662.25,-458 1662.25,-452 1662.25,-452 1662.25,-405 1662.25,-405 1662.25,-399 1668.25,-393 1674.25,-393 1674.25,-393 1815.5,-393 1815.5,-393 1821.5,-393 1827.5,-399 1827.5,-405 1827.5,-405 1827.5,-452 1827.5,-452 1827.5,-458 1821.5,-464 1815.5,-464"/>
<text text-anchor="start" x="1704.75" y="-446.7" font-family="Helvetica,sans-Serif" font-size="14.00">P4_8_2 ≤ 1.5</text>
<text text-anchor="start" x="1670.25" y="-430.95" font-family="Helvetica,sans-Serif" font-size="14.00">squared_error = 126.693</text>
<text text-anchor="start" x="1696.5" y="-415.2" font-family="Helvetica,sans-Serif" font-size="14.00">samples = 2587</text>
<text text-anchor="start" x="1700.25" y="-399.45" font-family="Helvetica,sans-Serif" font-size="14.00">value = 50.468</text>
</g>
<!-- 0&#45;&gt;308 -->
<g id="edge32" class="edge">
<title>0&#45;&gt;308</title>
<path fill="none" stroke="black" d="M1477.82,-509.62C1529.83,-494.01 1597,-473.86 1650.96,-457.67"/>
<polygon fill="black" stroke="black" points="1651.9,-461.05 1660.47,-454.82 1649.89,-454.34 1651.9,-461.05"/>
<text text-anchor="middle" x="1650.07" y="-470.97" font-family="Helvetica,sans-Serif" font-size="14.00">False</text>
</g>
<!-- 2 -->
<g id="node3" class="node">
<title>2</title>
<path fill="#f2bf9a" stroke="black" d="M589.12,-357C589.12,-357 448.62,-357 448.62,-357 442.62,-357 436.62,-351 436.62,-345 436.62,-345 436.62,-298 436.62,-298 436.62,-292 442.62,-286 448.62,-286 448.62,-286 589.12,-286 589.12,-286 595.12,-286 601.12,-292 601.12,-298 601.12,-298 601.12,-345 601.12,-345 601.12,-351 595.12,-357 589.12,-357"/>
<text text-anchor="start" x="486.25" y="-339.7" font-family="Helvetica,sans-Serif" font-size="14.00">P4_1 ≤ 0.5</text>
<text text-anchor="start" x="444.62" y="-323.95" font-family="Helvetica,sans-Serif" font-size="14.00">squared_error = 105.114</text>
<text text-anchor="start" x="470.5" y="-308.2" font-family="Helvetica,sans-Serif" font-size="14.00">samples = 1082</text>
<text text-anchor="start" x="474.25" y="-292.45" font-family="Helvetica,sans-Serif" font-size="14.00">value = 56.183</text>
</g>
<!-- 1&#45;&gt;2 -->
<g id="edge2" class="edge">
<title>1&#45;&gt;2</title>
<path fill="none" stroke="black" d="M963.79,-410.98C868.44,-392.02 712.41,-360.99 612.74,-341.17"/>
<polygon fill="black" stroke="black" points="613.45,-337.74 602.96,-339.22 612.08,-344.6 613.45,-337.74"/>
</g>
<!-- 145 -->
<g id="node18" class="node">
<title>145</title>
<path fill="#eda977" stroke="black" d="M1117.12,-357C1117.12,-357 976.62,-357 976.62,-357 970.62,-357 964.62,-351 964.62,-345 964.62,-345 964.62,-298 964.62,-298 964.62,-292 970.62,-286 976.62,-286 976.62,-286 1117.12,-286 1117.12,-286 1123.12,-286 1129.12,-292 1129.12,-298 1129.12,-298 1129.12,-345 1129.12,-345 1129.12,-351 1123.12,-357 1117.12,-357"/>
<text text-anchor="start" x="1014.25" y="-339.7" font-family="Helvetica,sans-Serif" font-size="14.00">P4_1 ≤ 0.5</text>
<text text-anchor="start" x="972.62" y="-323.95" font-family="Helvetica,sans-Serif" font-size="14.00">squared_error = 113.015</text>
<text text-anchor="start" x="998.5" y="-308.2" font-family="Helvetica,sans-Serif" font-size="14.00">samples = 1267</text>
<text text-anchor="start" x="1006" y="-292.45" font-family="Helvetica,sans-Serif" font-size="14.00">value = 66.82</text>
</g>
<!-- 1&#45;&gt;145 -->
<g id="edge17" class="edge">
<title>1&#45;&gt;145</title>
<path fill="none" stroke="black" d="M1046.88,-392.54C1046.88,-384.92 1046.88,-376.75 1046.88,-368.77"/>
<polygon fill="black" stroke="black" points="1050.38,-368.82 1046.88,-358.82 1043.38,-368.82 1050.38,-368.82"/>
</g>
<!-- 3 -->
<g id="node4" class="node">
<title>3</title>
<path fill="#efb286" stroke="black" d="M321.75,-250C321.75,-250 188,-250 188,-250 182,-250 176,-244 176,-238 176,-238 176,-191 176,-191 176,-185 182,-179 188,-179 188,-179 321.75,-179 321.75,-179 327.75,-179 333.75,-185 333.75,-191 333.75,-191 333.75,-238 333.75,-238 333.75,-244 327.75,-250 321.75,-250"/>
<text text-anchor="start" x="218.5" y="-232.7" font-family="Helvetica,sans-Serif" font-size="14.00">P12_2 ≤ 1.5</text>
<text text-anchor="start" x="184" y="-216.95" font-family="Helvetica,sans-Serif" font-size="14.00">squared_error = 81.349</text>
<text text-anchor="start" x="210.25" y="-201.2" font-family="Helvetica,sans-Serif" font-size="14.00">samples = 336</text>
<text text-anchor="start" x="210.25" y="-185.45" font-family="Helvetica,sans-Serif" font-size="14.00">value = 62.406</text>
</g>
<!-- 2&#45;&gt;3 -->
<g id="edge3" class="edge">
<title>2&#45;&gt;3</title>
<path fill="none" stroke="black" d="M436.43,-287.71C407.2,-276.08 374.17,-262.95 344.38,-251.1"/>
<polygon fill="black" stroke="black" points="345.98,-247.97 335.4,-247.53 343.39,-254.47 345.98,-247.97"/>
</g>
<!-- 50 -->
<g id="node11" class="node">
<title>50</title>
<path fill="#f3c5a4" stroke="black" d="M585.75,-250C585.75,-250 452,-250 452,-250 446,-250 440,-244 440,-238 440,-238 440,-191 440,-191 440,-185 446,-179 452,-179 452,-179 585.75,-179 585.75,-179 591.75,-179 597.75,-185 597.75,-191 597.75,-191 597.75,-238 597.75,-238 597.75,-244 591.75,-250 585.75,-250"/>
<text text-anchor="start" x="478.75" y="-232.7" font-family="Helvetica,sans-Serif" font-size="14.00">P4_6_2 ≤ 1.5</text>
<text text-anchor="start" x="448" y="-216.95" font-family="Helvetica,sans-Serif" font-size="14.00">squared_error = 90.527</text>
<text text-anchor="start" x="474.25" y="-201.2" font-family="Helvetica,sans-Serif" font-size="14.00">samples = 746</text>
<text text-anchor="start" x="474.25" y="-185.45" font-family="Helvetica,sans-Serif" font-size="14.00">value = 53.381</text>
</g>
<!-- 2&#45;&gt;50 -->
<g id="edge10" class="edge">
<title>2&#45;&gt;50</title>
<path fill="none" stroke="black" d="M518.88,-285.54C518.88,-277.92 518.88,-269.75 518.88,-261.77"/>
<polygon fill="black" stroke="black" points="522.38,-261.82 518.88,-251.82 515.38,-261.82 522.38,-261.82"/>
</g>
<!-- 4 -->
<g id="node5" class="node">
<title>4</title>
<path fill="#f1bc96" stroke="black" d="M145.75,-143C145.75,-143 12,-143 12,-143 6,-143 0,-137 0,-131 0,-131 0,-84 0,-84 0,-78 6,-72 12,-72 12,-72 145.75,-72 145.75,-72 151.75,-72 157.75,-78 157.75,-84 157.75,-84 157.75,-131 157.75,-131 157.75,-137 151.75,-143 145.75,-143"/>
<text text-anchor="start" x="38.75" y="-125.7" font-family="Helvetica,sans-Serif" font-size="14.00">P4_6_3 ≤ 1.5</text>
<text text-anchor="start" x="8" y="-109.95" font-family="Helvetica,sans-Serif" font-size="14.00">squared_error = 62.008</text>
<text text-anchor="start" x="38" y="-94.2" font-family="Helvetica,sans-Serif" font-size="14.00">samples = 88</text>
<text text-anchor="start" x="34.25" y="-78.45" font-family="Helvetica,sans-Serif" font-size="14.00">value = 57.395</text>
</g>
<!-- 3&#45;&gt;4 -->
<g id="edge4" class="edge">
<title>3&#45;&gt;4</title>
<path fill="none" stroke="black" d="M196.27,-178.54C180.47,-169.11 163.24,-158.83 146.97,-149.13"/>
<polygon fill="black" stroke="black" points="149.21,-146.38 138.82,-144.27 145.62,-152.39 149.21,-146.38"/>
</g>
<!-- 17 -->
<g id="node8" class="node">
<title>17</title>
<path fill="#eeae80" stroke="black" d="M321.75,-143C321.75,-143 188,-143 188,-143 182,-143 176,-137 176,-131 176,-131 176,-84 176,-84 176,-78 182,-72 188,-72 188,-72 321.75,-72 321.75,-72 327.75,-72 333.75,-78 333.75,-84 333.75,-84 333.75,-131 333.75,-131 333.75,-137 327.75,-143 321.75,-143"/>
<text text-anchor="start" x="214.75" y="-125.7" font-family="Helvetica,sans-Serif" font-size="14.00">P4_7_2 ≤ 1.5</text>
<text text-anchor="start" x="184" y="-109.95" font-family="Helvetica,sans-Serif" font-size="14.00">squared_error = 76.144</text>
<text text-anchor="start" x="210.25" y="-94.2" font-family="Helvetica,sans-Serif" font-size="14.00">samples = 248</text>
<text text-anchor="start" x="210.25" y="-78.45" font-family="Helvetica,sans-Serif" font-size="14.00">value = 64.183</text>
</g>
<!-- 3&#45;&gt;17 -->
<g id="edge7" class="edge">
<title>3&#45;&gt;17</title>
<path fill="none" stroke="black" d="M254.88,-178.54C254.88,-170.92 254.88,-162.75 254.88,-154.77"/>
<polygon fill="black" stroke="black" points="258.38,-154.82 254.88,-144.82 251.38,-154.82 258.38,-154.82"/>
</g>
<!-- 5 -->
<g id="node6" class="node">
<title>5</title>
<path fill="#c0c0c0" stroke="black" d="M57.88,-36C57.88,-36 27.88,-36 27.88,-36 21.88,-36 15.88,-30 15.88,-24 15.88,-24 15.88,-12 15.88,-12 15.88,-6 21.88,0 27.88,0 27.88,0 57.88,0 57.88,0 63.88,0 69.88,-6 69.88,-12 69.88,-12 69.88,-24 69.88,-24 69.88,-30 63.88,-36 57.88,-36"/>
<text text-anchor="middle" x="42.88" y="-12.57" font-family="Helvetica,sans-Serif" font-size="14.00">(...)</text>
</g>
<!-- 4&#45;&gt;5 -->
<g id="edge5" class="edge">
<title>4&#45;&gt;5</title>
<path fill="none" stroke="black" d="M64.54,-71.67C61.13,-63.37 57.54,-54.63 54.28,-46.71"/>
<polygon fill="black" stroke="black" points="57.56,-45.5 50.52,-37.58 51.09,-48.16 57.56,-45.5"/>
</g>
<!-- 6 -->
<g id="node7" class="node">
<title>6</title>
<path fill="#c0c0c0" stroke="black" d="M129.88,-36C129.88,-36 99.88,-36 99.88,-36 93.88,-36 87.88,-30 87.88,-24 87.88,-24 87.88,-12 87.88,-12 87.88,-6 93.88,0 99.88,0 99.88,0 129.88,0 129.88,0 135.88,0 141.88,-6 141.88,-12 141.88,-12 141.88,-24 141.88,-24 141.88,-30 135.88,-36 129.88,-36"/>
<text text-anchor="middle" x="114.88" y="-12.57" font-family="Helvetica,sans-Serif" font-size="14.00">(...)</text>
</g>
<!-- 4&#45;&gt;6 -->
<g id="edge6" class="edge">
<title>4&#45;&gt;6</title>
<path fill="none" stroke="black" d="M93.21,-71.67C96.62,-63.37 100.21,-54.63 103.47,-46.71"/>
<polygon fill="black" stroke="black" points="106.66,-48.16 107.23,-37.58 100.19,-45.5 106.66,-48.16"/>
</g>
<!-- 18 -->
<g id="node9" class="node">
<title>18</title>
<path fill="#c0c0c0" stroke="black" d="M235.88,-36C235.88,-36 205.88,-36 205.88,-36 199.88,-36 193.88,-30 193.88,-24 193.88,-24 193.88,-12 193.88,-12 193.88,-6 199.88,0 205.88,0 205.88,0 235.88,0 235.88,0 241.88,0 247.88,-6 247.88,-12 247.88,-12 247.88,-24 247.88,-24 247.88,-30 241.88,-36 235.88,-36"/>
<text text-anchor="middle" x="220.88" y="-12.57" font-family="Helvetica,sans-Serif" font-size="14.00">(...)</text>
</g>
<!-- 17&#45;&gt;18 -->
<g id="edge8" class="edge">
<title>17&#45;&gt;18</title>
<path fill="none" stroke="black" d="M241.34,-71.67C238.12,-63.37 234.72,-54.63 231.64,-46.71"/>
<polygon fill="black" stroke="black" points="234.98,-45.65 228.1,-37.59 228.46,-48.18 234.98,-45.65"/>
</g>
<!-- 45 -->
<g id="node10" class="node">
<title>45</title>
<path fill="#c0c0c0" stroke="black" d="M307.88,-36C307.88,-36 277.88,-36 277.88,-36 271.88,-36 265.88,-30 265.88,-24 265.88,-24 265.88,-12 265.88,-12 265.88,-6 271.88,0 277.88,0 277.88,0 307.88,0 307.88,0 313.88,0 319.88,-6 319.88,-12 319.88,-12 319.88,-24 319.88,-24 319.88,-30 313.88,-36 307.88,-36"/>
<text text-anchor="middle" x="292.88" y="-12.57" font-family="Helvetica,sans-Serif" font-size="14.00">(...)</text>
</g>
<!-- 17&#45;&gt;45 -->
<g id="edge9" class="edge">
<title>17&#45;&gt;45</title>
<path fill="none" stroke="black" d="M270,-71.67C273.6,-63.37 277.4,-54.63 280.84,-46.71"/>
<polygon fill="black" stroke="black" points="284.04,-48.14 284.81,-37.57 277.62,-45.35 284.04,-48.14"/>
</g>
<!-- 51 -->
<g id="node12" class="node">
<title>51</title>
<path fill="#f2c19d" stroke="black" d="M497.75,-143C497.75,-143 364,-143 364,-143 358,-143 352,-137 352,-131 352,-131 352,-84 352,-84 352,-78 358,-72 364,-72 364,-72 497.75,-72 497.75,-72 503.75,-72 509.75,-78 509.75,-84 509.75,-84 509.75,-131 509.75,-131 509.75,-137 503.75,-143 497.75,-143"/>
<text text-anchor="start" x="390.75" y="-125.7" font-family="Helvetica,sans-Serif" font-size="14.00">P4_7_3 ≤ 1.5</text>
<text text-anchor="start" x="360" y="-109.95" font-family="Helvetica,sans-Serif" font-size="14.00">squared_error = 73.241</text>
<text text-anchor="start" x="386.25" y="-94.2" font-family="Helvetica,sans-Serif" font-size="14.00">samples = 578</text>
<text text-anchor="start" x="390" y="-78.45" font-family="Helvetica,sans-Serif" font-size="14.00">value = 55.41</text>
</g>
<!-- 50&#45;&gt;51 -->
<g id="edge11" class="edge">
<title>50&#45;&gt;51</title>
<path fill="none" stroke="black" d="M489.57,-178.54C482.45,-170.04 474.74,-160.84 467.33,-152"/>
<polygon fill="black" stroke="black" points="470.13,-149.89 461.02,-144.47 464.76,-154.38 470.13,-149.89"/>
</g>
<!-- 122 -->
<g id="node15" class="node">
<title>122</title>
<path fill="#f6d4bb" stroke="black" d="M673.75,-143C673.75,-143 540,-143 540,-143 534,-143 528,-137 528,-131 528,-131 528,-84 528,-84 528,-78 534,-72 540,-72 540,-72 673.75,-72 673.75,-72 679.75,-72 685.75,-78 685.75,-84 685.75,-84 685.75,-131 685.75,-131 685.75,-137 679.75,-143 673.75,-143"/>
<text text-anchor="start" x="566.75" y="-125.7" font-family="Helvetica,sans-Serif" font-size="14.00">P4_6_1 ≤ 1.5</text>
<text text-anchor="start" x="536" y="-109.95" font-family="Helvetica,sans-Serif" font-size="14.00">squared_error = 87.103</text>
<text text-anchor="start" x="562.25" y="-94.2" font-family="Helvetica,sans-Serif" font-size="14.00">samples = 168</text>
<text text-anchor="start" x="569.75" y="-78.45" font-family="Helvetica,sans-Serif" font-size="14.00">value = 46.4</text>
</g>
<!-- 50&#45;&gt;122 -->
<g id="edge14" class="edge">
<title>50&#45;&gt;122</title>
<path fill="none" stroke="black" d="M548.18,-178.54C555.3,-170.04 563.01,-160.84 570.42,-152"/>
<polygon fill="black" stroke="black" points="572.99,-154.38 576.73,-144.47 567.62,-149.89 572.99,-154.38"/>
</g>
<!-- 52 -->
<g id="node13" class="node">
<title>52</title>
<path fill="#c0c0c0" stroke="black" d="M412.88,-36C412.88,-36 382.88,-36 382.88,-36 376.88,-36 370.88,-30 370.88,-24 370.88,-24 370.88,-12 370.88,-12 370.88,-6 376.88,0 382.88,0 382.88,0 412.88,0 412.88,0 418.88,0 424.88,-6 424.88,-12 424.88,-12 424.88,-24 424.88,-24 424.88,-30 418.88,-36 412.88,-36"/>
<text text-anchor="middle" x="397.88" y="-12.57" font-family="Helvetica,sans-Serif" font-size="14.00">(...)</text>
</g>
<!-- 51&#45;&gt;52 -->
<g id="edge12" class="edge">
<title>51&#45;&gt;52</title>
<path fill="none" stroke="black" d="M417.74,-71.67C414.61,-63.37 411.31,-54.63 408.33,-46.71"/>
<polygon fill="black" stroke="black" points="411.69,-45.72 404.89,-37.6 405.14,-48.19 411.69,-45.72"/>
</g>
<!-- 95 -->
<g id="node14" class="node">
<title>95</title>
<path fill="#c0c0c0" stroke="black" d="M484.88,-36C484.88,-36 454.88,-36 454.88,-36 448.88,-36 442.88,-30 442.88,-24 442.88,-24 442.88,-12 442.88,-12 442.88,-6 448.88,0 454.88,0 454.88,0 484.88,0 484.88,0 490.88,0 496.88,-6 496.88,-12 496.88,-12 496.88,-24 496.88,-24 496.88,-30 490.88,-36 484.88,-36"/>
<text text-anchor="middle" x="469.88" y="-12.57" font-family="Helvetica,sans-Serif" font-size="14.00">(...)</text>
</g>
<!-- 51&#45;&gt;95 -->
<g id="edge13" class="edge">
<title>51&#45;&gt;95</title>
<path fill="none" stroke="black" d="M446.4,-71.67C450.14,-63.28 454.08,-54.43 457.65,-46.44"/>
<polygon fill="black" stroke="black" points="460.73,-48.12 461.6,-37.57 454.33,-45.27 460.73,-48.12"/>
</g>
<!-- 123 -->
<g id="node16" class="node">
<title>123</title>
<path fill="#c0c0c0" stroke="black" d="M608.88,-36C608.88,-36 578.88,-36 578.88,-36 572.88,-36 566.88,-30 566.88,-24 566.88,-24 566.88,-12 566.88,-12 566.88,-6 572.88,0 578.88,0 578.88,0 608.88,0 608.88,0 614.88,0 620.88,-6 620.88,-12 620.88,-12 620.88,-24 620.88,-24 620.88,-30 614.88,-36 608.88,-36"/>
<text text-anchor="middle" x="593.88" y="-12.57" font-family="Helvetica,sans-Serif" font-size="14.00">(...)</text>
</g>
<!-- 122&#45;&gt;123 -->
<g id="edge15" class="edge">
<title>122&#45;&gt;123</title>
<path fill="none" stroke="black" d="M601.7,-71.67C600.51,-63.66 599.26,-55.24 598.11,-47.53"/>
<polygon fill="black" stroke="black" points="601.58,-47.06 596.65,-37.68 594.66,-48.09 601.58,-47.06"/>
</g>
<!-- 136 -->
<g id="node17" class="node">
<title>136</title>
<path fill="#c0c0c0" stroke="black" d="M680.88,-36C680.88,-36 650.88,-36 650.88,-36 644.88,-36 638.88,-30 638.88,-24 638.88,-24 638.88,-12 638.88,-12 638.88,-6 644.88,0 650.88,0 650.88,0 680.88,0 680.88,0 686.88,0 692.88,-6 692.88,-12 692.88,-12 692.88,-24 692.88,-24 692.88,-30 686.88,-36 680.88,-36"/>
<text text-anchor="middle" x="665.88" y="-12.57" font-family="Helvetica,sans-Serif" font-size="14.00">(...)</text>
</g>
<!-- 122&#45;&gt;136 -->
<g id="edge16" class="edge">
<title>122&#45;&gt;136</title>
<path fill="none" stroke="black" d="M630.36,-71.67C636.21,-62.99 642.39,-53.83 647.92,-45.62"/>
<polygon fill="black" stroke="black" points="650.75,-47.69 653.44,-37.44 644.95,-43.77 650.75,-47.69"/>
</g>
<!-- 146 -->
<g id="node19" class="node">
<title>146</title>
<path fill="#eb9e67" stroke="black" d="M1025.75,-250C1025.75,-250 892,-250 892,-250 886,-250 880,-244 880,-238 880,-238 880,-191 880,-191 880,-185 886,-179 892,-179 892,-179 1025.75,-179 1025.75,-179 1031.75,-179 1037.75,-185 1037.75,-191 1037.75,-191 1037.75,-238 1037.75,-238 1037.75,-244 1031.75,-250 1025.75,-250"/>
<text text-anchor="start" x="918.75" y="-232.7" font-family="Helvetica,sans-Serif" font-size="14.00">P4_7_3 ≤ 1.5</text>
<text text-anchor="start" x="888" y="-216.95" font-family="Helvetica,sans-Serif" font-size="14.00">squared_error = 91.355</text>
<text text-anchor="start" x="914.25" y="-201.2" font-family="Helvetica,sans-Serif" font-size="14.00">samples = 540</text>
<text text-anchor="start" x="918" y="-185.45" font-family="Helvetica,sans-Serif" font-size="14.00">value = 71.84</text>
</g>
<!-- 145&#45;&gt;146 -->
<g id="edge18" class="edge">
<title>145&#45;&gt;146</title>
<path fill="none" stroke="black" d="M1017.57,-285.54C1010.45,-277.04 1002.74,-267.84 995.33,-259"/>
<polygon fill="black" stroke="black" points="998.13,-256.89 989.02,-251.47 992.76,-261.38 998.13,-256.89"/>
</g>
<!-- 215 -->
<g id="node26" class="node">
<title>215</title>
<path fill="#efb184" stroke="black" d="M1201.75,-250C1201.75,-250 1068,-250 1068,-250 1062,-250 1056,-244 1056,-238 1056,-238 1056,-191 1056,-191 1056,-185 1062,-179 1068,-179 1068,-179 1201.75,-179 1201.75,-179 1207.75,-179 1213.75,-185 1213.75,-191 1213.75,-191 1213.75,-238 1213.75,-238 1213.75,-244 1207.75,-250 1201.75,-250"/>
<text text-anchor="start" x="1094.75" y="-232.7" font-family="Helvetica,sans-Serif" font-size="14.00">P4_8_1 ≤ 2.5</text>
<text text-anchor="start" x="1064" y="-216.95" font-family="Helvetica,sans-Serif" font-size="14.00">squared_error = 96.475</text>
<text text-anchor="start" x="1090.25" y="-201.2" font-family="Helvetica,sans-Serif" font-size="14.00">samples = 727</text>
<text text-anchor="start" x="1094" y="-185.45" font-family="Helvetica,sans-Serif" font-size="14.00">value = 63.09</text>
</g>
<!-- 145&#45;&gt;215 -->
<g id="edge25" class="edge">
<title>145&#45;&gt;215</title>
<path fill="none" stroke="black" d="M1076.18,-285.54C1083.3,-277.04 1091.01,-267.84 1098.42,-259"/>
<polygon fill="black" stroke="black" points="1100.99,-261.38 1104.73,-251.47 1095.62,-256.89 1100.99,-261.38"/>
</g>
<!-- 147 -->
<g id="node20" class="node">
<title>147</title>
<path fill="#ea9a60" stroke="black" d="M849.75,-143C849.75,-143 716,-143 716,-143 710,-143 704,-137 704,-131 704,-131 704,-84 704,-84 704,-78 710,-72 716,-72 716,-72 849.75,-72 849.75,-72 855.75,-72 861.75,-78 861.75,-84 861.75,-84 861.75,-131 861.75,-131 861.75,-137 855.75,-143 849.75,-143"/>
<text text-anchor="start" x="742.75" y="-125.7" font-family="Helvetica,sans-Serif" font-size="14.00">P4_8_1 ≤ 2.5</text>
<text text-anchor="start" x="712" y="-109.95" font-family="Helvetica,sans-Serif" font-size="14.00">squared_error = 76.498</text>
<text text-anchor="start" x="738.25" y="-94.2" font-family="Helvetica,sans-Serif" font-size="14.00">samples = 418</text>
<text text-anchor="start" x="738.25" y="-78.45" font-family="Helvetica,sans-Serif" font-size="14.00">value = 73.946</text>
</g>
<!-- 146&#45;&gt;147 -->
<g id="edge19" class="edge">
<title>146&#45;&gt;147</title>
<path fill="none" stroke="black" d="M900.27,-178.54C884.47,-169.11 867.24,-158.83 850.97,-149.13"/>
<polygon fill="black" stroke="black" points="853.21,-146.38 842.82,-144.27 849.62,-152.39 853.21,-146.38"/>
</g>
<!-- 196 -->
<g id="node23" class="node">
<title>196</title>
<path fill="#eead7f" stroke="black" d="M1025.75,-143C1025.75,-143 892,-143 892,-143 886,-143 880,-137 880,-131 880,-131 880,-84 880,-84 880,-78 886,-72 892,-72 892,-72 1025.75,-72 1025.75,-72 1031.75,-72 1037.75,-78 1037.75,-84 1037.75,-84 1037.75,-131 1037.75,-131 1037.75,-137 1031.75,-143 1025.75,-143"/>
<text text-anchor="start" x="918.75" y="-125.7" font-family="Helvetica,sans-Serif" font-size="14.00">P4_6_4 ≤ 1.5</text>
<text text-anchor="start" x="888" y="-109.95" font-family="Helvetica,sans-Serif" font-size="14.00">squared_error = 74.986</text>
<text text-anchor="start" x="914.25" y="-94.2" font-family="Helvetica,sans-Serif" font-size="14.00">samples = 122</text>
<text text-anchor="start" x="914.25" y="-78.45" font-family="Helvetica,sans-Serif" font-size="14.00">value = 64.624</text>
</g>
<!-- 146&#45;&gt;196 -->
<g id="edge22" class="edge">
<title>146&#45;&gt;196</title>
<path fill="none" stroke="black" d="M958.88,-178.54C958.88,-170.92 958.88,-162.75 958.88,-154.77"/>
<polygon fill="black" stroke="black" points="962.38,-154.82 958.88,-144.82 955.38,-154.82 962.38,-154.82"/>
</g>
<!-- 148 -->
<g id="node21" class="node">
<title>148</title>
<path fill="#c0c0c0" stroke="black" d="M764.88,-36C764.88,-36 734.88,-36 734.88,-36 728.88,-36 722.88,-30 722.88,-24 722.88,-24 722.88,-12 722.88,-12 722.88,-6 728.88,0 734.88,0 734.88,0 764.88,0 764.88,0 770.88,0 776.88,-6 776.88,-12 776.88,-12 776.88,-24 776.88,-24 776.88,-30 770.88,-36 764.88,-36"/>
<text text-anchor="middle" x="749.88" y="-12.57" font-family="Helvetica,sans-Serif" font-size="14.00">(...)</text>
</g>
<!-- 147&#45;&gt;148 -->
<g id="edge20" class="edge">
<title>147&#45;&gt;148</title>
<path fill="none" stroke="black" d="M769.74,-71.67C766.61,-63.37 763.31,-54.63 760.33,-46.71"/>
<polygon fill="black" stroke="black" points="763.69,-45.72 756.89,-37.6 757.14,-48.19 763.69,-45.72"/>
</g>
<!-- 171 -->
<g id="node22" class="node">
<title>171</title>
<path fill="#c0c0c0" stroke="black" d="M836.88,-36C836.88,-36 806.88,-36 806.88,-36 800.88,-36 794.88,-30 794.88,-24 794.88,-24 794.88,-12 794.88,-12 794.88,-6 800.88,0 806.88,0 806.88,0 836.88,0 836.88,0 842.88,0 848.88,-6 848.88,-12 848.88,-12 848.88,-24 848.88,-24 848.88,-30 842.88,-36 836.88,-36"/>
<text text-anchor="middle" x="821.88" y="-12.57" font-family="Helvetica,sans-Serif" font-size="14.00">(...)</text>
</g>
<!-- 147&#45;&gt;171 -->
<g id="edge21" class="edge">
<title>147&#45;&gt;171</title>
<path fill="none" stroke="black" d="M798.4,-71.67C802.14,-63.28 806.08,-54.43 809.65,-46.44"/>
<polygon fill="black" stroke="black" points="812.73,-48.12 813.6,-37.57 806.33,-45.27 812.73,-48.12"/>
</g>
<!-- 197 -->
<g id="node24" class="node">
<title>197</title>
<path fill="#c0c0c0" stroke="black" d="M914.88,-36C914.88,-36 884.88,-36 884.88,-36 878.88,-36 872.88,-30 872.88,-24 872.88,-24 872.88,-12 872.88,-12 872.88,-6 878.88,0 884.88,0 884.88,0 914.88,0 914.88,0 920.88,0 926.88,-6 926.88,-12 926.88,-12 926.88,-24 926.88,-24 926.88,-30 920.88,-36 914.88,-36"/>
<text text-anchor="middle" x="899.88" y="-12.57" font-family="Helvetica,sans-Serif" font-size="14.00">(...)</text>
</g>
<!-- 196&#45;&gt;197 -->
<g id="edge23" class="edge">
<title>196&#45;&gt;197</title>
<path fill="none" stroke="black" d="M935.39,-71.67C929.54,-62.99 923.36,-53.83 917.83,-45.62"/>
<polygon fill="black" stroke="black" points="920.8,-43.77 912.31,-37.44 915,-47.69 920.8,-43.77"/>
</g>
<!-- 208 -->
<g id="node25" class="node">
<title>208</title>
<path fill="#c0c0c0" stroke="black" d="M986.88,-36C986.88,-36 956.88,-36 956.88,-36 950.88,-36 944.88,-30 944.88,-24 944.88,-24 944.88,-12 944.88,-12 944.88,-6 950.88,0 956.88,0 956.88,0 986.88,0 986.88,0 992.88,0 998.88,-6 998.88,-12 998.88,-12 998.88,-24 998.88,-24 998.88,-30 992.88,-36 986.88,-36"/>
<text text-anchor="middle" x="971.88" y="-12.57" font-family="Helvetica,sans-Serif" font-size="14.00">(...)</text>
</g>
<!-- 196&#45;&gt;208 -->
<g id="edge24" class="edge">
<title>196&#45;&gt;208</title>
<path fill="none" stroke="black" d="M964.05,-71.67C965.24,-63.66 966.49,-55.24 967.64,-47.53"/>
<polygon fill="black" stroke="black" points="971.09,-48.09 969.1,-37.68 964.17,-47.06 971.09,-48.09"/>
</g>
<!-- 216 -->
<g id="node27" class="node">
<title>216</title>
<path fill="#f0b890" stroke="black" d="M1201.75,-143C1201.75,-143 1068,-143 1068,-143 1062,-143 1056,-137 1056,-131 1056,-131 1056,-84 1056,-84 1056,-78 1062,-72 1068,-72 1068,-72 1201.75,-72 1201.75,-72 1207.75,-72 1213.75,-78 1213.75,-84 1213.75,-84 1213.75,-131 1213.75,-131 1213.75,-137 1207.75,-143 1201.75,-143"/>
<text text-anchor="start" x="1094.75" y="-125.7" font-family="Helvetica,sans-Serif" font-size="14.00">P4_6_1 ≤ 1.5</text>
<text text-anchor="start" x="1064" y="-109.95" font-family="Helvetica,sans-Serif" font-size="14.00">squared_error = 88.762</text>
<text text-anchor="start" x="1090.25" y="-94.2" font-family="Helvetica,sans-Serif" font-size="14.00">samples = 387</text>
<text text-anchor="start" x="1090.25" y="-78.45" font-family="Helvetica,sans-Serif" font-size="14.00">value = 59.345</text>
</g>
<!-- 215&#45;&gt;216 -->
<g id="edge26" class="edge">
<title>215&#45;&gt;216</title>
<path fill="none" stroke="black" d="M1134.88,-178.54C1134.88,-170.92 1134.88,-162.75 1134.88,-154.77"/>
<polygon fill="black" stroke="black" points="1138.38,-154.82 1134.88,-144.82 1131.38,-154.82 1138.38,-154.82"/>
</g>
<!-- 267 -->
<g id="node30" class="node">
<title>267</title>
<path fill="#eda876" stroke="black" d="M1377.75,-143C1377.75,-143 1244,-143 1244,-143 1238,-143 1232,-137 1232,-131 1232,-131 1232,-84 1232,-84 1232,-78 1238,-72 1244,-72 1244,-72 1377.75,-72 1377.75,-72 1383.75,-72 1389.75,-78 1389.75,-84 1389.75,-84 1389.75,-131 1389.75,-131 1389.75,-137 1383.75,-143 1377.75,-143"/>
<text text-anchor="start" x="1270.75" y="-125.7" font-family="Helvetica,sans-Serif" font-size="14.00">P4_7_3 ≤ 1.5</text>
<text text-anchor="start" x="1240" y="-109.95" font-family="Helvetica,sans-Serif" font-size="14.00">squared_error = 71.121</text>
<text text-anchor="start" x="1266.25" y="-94.2" font-family="Helvetica,sans-Serif" font-size="14.00">samples = 340</text>
<text text-anchor="start" x="1266.25" y="-78.45" font-family="Helvetica,sans-Serif" font-size="14.00">value = 67.353</text>
</g>
<!-- 215&#45;&gt;267 -->
<g id="edge29" class="edge">
<title>215&#45;&gt;267</title>
<path fill="none" stroke="black" d="M1193.48,-178.54C1209.28,-169.11 1226.51,-158.83 1242.78,-149.13"/>
<polygon fill="black" stroke="black" points="1244.13,-152.39 1250.93,-144.27 1240.54,-146.38 1244.13,-152.39"/>
</g>
<!-- 217 -->
<g id="node28" class="node">
<title>217</title>
<path fill="#c0c0c0" stroke="black" d="M1093.88,-36C1093.88,-36 1063.88,-36 1063.88,-36 1057.88,-36 1051.88,-30 1051.88,-24 1051.88,-24 1051.88,-12 1051.88,-12 1051.88,-6 1057.88,0 1063.88,0 1063.88,0 1093.88,0 1093.88,0 1099.88,0 1105.88,-6 1105.88,-12 1105.88,-12 1105.88,-24 1105.88,-24 1105.88,-30 1099.88,-36 1093.88,-36"/>
<text text-anchor="middle" x="1078.88" y="-12.57" font-family="Helvetica,sans-Serif" font-size="14.00">(...)</text>
</g>
<!-- 216&#45;&gt;217 -->
<g id="edge27" class="edge">
<title>216&#45;&gt;217</title>
<path fill="none" stroke="black" d="M1112.58,-71.67C1107.03,-62.99 1101.17,-53.83 1095.91,-45.62"/>
<polygon fill="black" stroke="black" points="1099.03,-43.99 1090.69,-37.46 1093.13,-47.77 1099.03,-43.99"/>
</g>
<!-- 256 -->
<g id="node29" class="node">
<title>256</title>
<path fill="#c0c0c0" stroke="black" d="M1165.88,-36C1165.88,-36 1135.88,-36 1135.88,-36 1129.88,-36 1123.88,-30 1123.88,-24 1123.88,-24 1123.88,-12 1123.88,-12 1123.88,-6 1129.88,0 1135.88,0 1135.88,0 1165.88,0 1165.88,0 1171.88,0 1177.88,-6 1177.88,-12 1177.88,-12 1177.88,-24 1177.88,-24 1177.88,-30 1171.88,-36 1165.88,-36"/>
<text text-anchor="middle" x="1150.88" y="-12.57" font-family="Helvetica,sans-Serif" font-size="14.00">(...)</text>
</g>
<!-- 216&#45;&gt;256 -->
<g id="edge28" class="edge">
<title>216&#45;&gt;256</title>
<path fill="none" stroke="black" d="M1141.24,-71.67C1142.73,-63.56 1144.29,-55.04 1145.71,-47.26"/>
<polygon fill="black" stroke="black" points="1149.1,-48.14 1147.46,-37.67 1142.22,-46.88 1149.1,-48.14"/>
</g>
<!-- 268 -->
<g id="node31" class="node">
<title>268</title>
<path fill="#c0c0c0" stroke="black" d="M1269.88,-36C1269.88,-36 1239.88,-36 1239.88,-36 1233.88,-36 1227.88,-30 1227.88,-24 1227.88,-24 1227.88,-12 1227.88,-12 1227.88,-6 1233.88,0 1239.88,0 1239.88,0 1269.88,0 1269.88,0 1275.88,0 1281.88,-6 1281.88,-12 1281.88,-12 1281.88,-24 1281.88,-24 1281.88,-30 1275.88,-36 1269.88,-36"/>
<text text-anchor="middle" x="1254.88" y="-12.57" font-family="Helvetica,sans-Serif" font-size="14.00">(...)</text>
</g>
<!-- 267&#45;&gt;268 -->
<g id="edge30" class="edge">
<title>267&#45;&gt;268</title>
<path fill="none" stroke="black" d="M1288.58,-71.67C1283.03,-62.99 1277.17,-53.83 1271.91,-45.62"/>
<polygon fill="black" stroke="black" points="1275.03,-43.99 1266.69,-37.46 1269.13,-47.77 1275.03,-43.99"/>
</g>
<!-- 291 -->
<g id="node32" class="node">
<title>291</title>
<path fill="#c0c0c0" stroke="black" d="M1341.88,-36C1341.88,-36 1311.88,-36 1311.88,-36 1305.88,-36 1299.88,-30 1299.88,-24 1299.88,-24 1299.88,-12 1299.88,-12 1299.88,-6 1305.88,0 1311.88,0 1311.88,0 1341.88,0 1341.88,0 1347.88,0 1353.88,-6 1353.88,-12 1353.88,-12 1353.88,-24 1353.88,-24 1353.88,-30 1347.88,-36 1341.88,-36"/>
<text text-anchor="middle" x="1326.88" y="-12.57" font-family="Helvetica,sans-Serif" font-size="14.00">(...)</text>
</g>
<!-- 267&#45;&gt;291 -->
<g id="edge31" class="edge">
<title>267&#45;&gt;291</title>
<path fill="none" stroke="black" d="M1317.24,-71.67C1318.73,-63.56 1320.29,-55.04 1321.71,-47.26"/>
<polygon fill="black" stroke="black" points="1325.1,-48.14 1323.46,-37.67 1318.22,-46.88 1325.1,-48.14"/>
</g>
<!-- 309 -->
<g id="node34" class="node">
<title>309</title>
<path fill="#f6d3bb" stroke="black" d="M1811.75,-357C1811.75,-357 1678,-357 1678,-357 1672,-357 1666,-351 1666,-345 1666,-345 1666,-298 1666,-298 1666,-292 1672,-286 1678,-286 1678,-286 1811.75,-286 1811.75,-286 1817.75,-286 1823.75,-292 1823.75,-298 1823.75,-298 1823.75,-345 1823.75,-345 1823.75,-351 1817.75,-357 1811.75,-357"/>
<text text-anchor="start" x="1704.75" y="-339.7" font-family="Helvetica,sans-Serif" font-size="14.00">P4_6_4 ≤ 1.5</text>
<text text-anchor="start" x="1674" y="-323.95" font-family="Helvetica,sans-Serif" font-size="14.00">squared_error = 98.121</text>
<text text-anchor="start" x="1696.5" y="-308.2" font-family="Helvetica,sans-Serif" font-size="14.00">samples = 1294</text>
<text text-anchor="start" x="1700.25" y="-292.45" font-family="Helvetica,sans-Serif" font-size="14.00">value = 46.427</text>
</g>
<!-- 308&#45;&gt;309 -->
<g id="edge33" class="edge">
<title>308&#45;&gt;309</title>
<path fill="none" stroke="black" d="M1744.88,-392.54C1744.88,-384.92 1744.88,-376.75 1744.88,-368.77"/>
<polygon fill="black" stroke="black" points="1748.38,-368.82 1744.88,-358.82 1741.38,-368.82 1748.38,-368.82"/>
</g>
<!-- 476 -->
<g id="node49" class="node">
<title>476</title>
<path fill="#f3c3a0" stroke="black" d="M2340.5,-357C2340.5,-357 2199.25,-357 2199.25,-357 2193.25,-357 2187.25,-351 2187.25,-345 2187.25,-345 2187.25,-298 2187.25,-298 2187.25,-292 2193.25,-286 2199.25,-286 2199.25,-286 2340.5,-286 2340.5,-286 2346.5,-286 2352.5,-292 2352.5,-298 2352.5,-298 2352.5,-345 2352.5,-345 2352.5,-351 2346.5,-357 2340.5,-357"/>
<text text-anchor="start" x="2229.75" y="-339.7" font-family="Helvetica,sans-Serif" font-size="14.00">P4_6_2 ≤ 1.5</text>
<text text-anchor="start" x="2195.25" y="-323.95" font-family="Helvetica,sans-Serif" font-size="14.00">squared_error = 122.577</text>
<text text-anchor="start" x="2221.5" y="-308.2" font-family="Helvetica,sans-Serif" font-size="14.00">samples = 1293</text>
<text text-anchor="start" x="2225.25" y="-292.45" font-family="Helvetica,sans-Serif" font-size="14.00">value = 54.513</text>
</g>
<!-- 308&#45;&gt;476 -->
<g id="edge48" class="edge">
<title>308&#45;&gt;476</title>
<path fill="none" stroke="black" d="M1827.77,-410.92C1922.37,-392 2076.75,-361.13 2175.78,-341.32"/>
<polygon fill="black" stroke="black" points="2176.38,-344.77 2185.5,-339.38 2175,-337.91 2176.38,-344.77"/>
</g>
<!-- 310 -->
<g id="node35" class="node">
<title>310</title>
<path fill="#f4c8a9" stroke="black" d="M1723.75,-250C1723.75,-250 1590,-250 1590,-250 1584,-250 1578,-244 1578,-238 1578,-238 1578,-191 1578,-191 1578,-185 1584,-179 1590,-179 1590,-179 1723.75,-179 1723.75,-179 1729.75,-179 1735.75,-185 1735.75,-191 1735.75,-191 1735.75,-238 1735.75,-238 1735.75,-244 1729.75,-250 1723.75,-250"/>
<text text-anchor="start" x="1616.75" y="-232.7" font-family="Helvetica,sans-Serif" font-size="14.00">P4_7_3 ≤ 1.5</text>
<text text-anchor="start" x="1586" y="-216.95" font-family="Helvetica,sans-Serif" font-size="14.00">squared_error = 92.698</text>
<text text-anchor="start" x="1612.25" y="-201.2" font-family="Helvetica,sans-Serif" font-size="14.00">samples = 415</text>
<text text-anchor="start" x="1616" y="-185.45" font-family="Helvetica,sans-Serif" font-size="14.00">value = 51.67</text>
</g>
<!-- 309&#45;&gt;310 -->
<g id="edge34" class="edge">
<title>309&#45;&gt;310</title>
<path fill="none" stroke="black" d="M1715.57,-285.54C1708.45,-277.04 1700.74,-267.84 1693.33,-259"/>
<polygon fill="black" stroke="black" points="1696.13,-256.89 1687.02,-251.47 1690.76,-261.38 1696.13,-256.89"/>
</g>
<!-- 369 -->
<g id="node42" class="node">
<title>369</title>
<path fill="#f7d9c3" stroke="black" d="M1899.75,-250C1899.75,-250 1766,-250 1766,-250 1760,-250 1754,-244 1754,-238 1754,-238 1754,-191 1754,-191 1754,-185 1760,-179 1766,-179 1766,-179 1899.75,-179 1899.75,-179 1905.75,-179 1911.75,-185 1911.75,-191 1911.75,-191 1911.75,-238 1911.75,-238 1911.75,-244 1905.75,-250 1899.75,-250"/>
<text text-anchor="start" x="1792.75" y="-232.7" font-family="Helvetica,sans-Serif" font-size="14.00">P4_6_1 ≤ 1.5</text>
<text text-anchor="start" x="1762" y="-216.95" font-family="Helvetica,sans-Serif" font-size="14.00">squared_error = 81.577</text>
<text text-anchor="start" x="1788.25" y="-201.2" font-family="Helvetica,sans-Serif" font-size="14.00">samples = 879</text>
<text text-anchor="start" x="1788.25" y="-185.45" font-family="Helvetica,sans-Serif" font-size="14.00">value = 43.951</text>
</g>
<!-- 309&#45;&gt;369 -->
<g id="edge41" class="edge">
<title>309&#45;&gt;369</title>
<path fill="none" stroke="black" d="M1774.18,-285.54C1781.3,-277.04 1789.01,-267.84 1796.42,-259"/>
<polygon fill="black" stroke="black" points="1798.99,-261.38 1802.73,-251.47 1793.62,-256.89 1798.99,-261.38"/>
</g>
<!-- 311 -->
<g id="node36" class="node">
<title>311</title>
<path fill="#f3c3a1" stroke="black" d="M1553.75,-143C1553.75,-143 1420,-143 1420,-143 1414,-143 1408,-137 1408,-131 1408,-131 1408,-84 1408,-84 1408,-78 1414,-72 1420,-72 1420,-72 1553.75,-72 1553.75,-72 1559.75,-72 1565.75,-78 1565.75,-84 1565.75,-84 1565.75,-131 1565.75,-131 1565.75,-137 1559.75,-143 1553.75,-143"/>
<text text-anchor="start" x="1446.75" y="-125.7" font-family="Helvetica,sans-Serif" font-size="14.00">P4_6_2 ≤ 1.5</text>
<text text-anchor="start" x="1416" y="-109.95" font-family="Helvetica,sans-Serif" font-size="14.00">squared_error = 73.216</text>
<text text-anchor="start" x="1442.25" y="-94.2" font-family="Helvetica,sans-Serif" font-size="14.00">samples = 287</text>
<text text-anchor="start" x="1442.25" y="-78.45" font-family="Helvetica,sans-Serif" font-size="14.00">value = 54.129</text>
</g>
<!-- 310&#45;&gt;311 -->
<g id="edge35" class="edge">
<title>310&#45;&gt;311</title>
<path fill="none" stroke="black" d="M1600.27,-178.54C1585.15,-169.2 1568.68,-159.03 1553.09,-149.4"/>
<polygon fill="black" stroke="black" points="1555.16,-146.56 1544.81,-144.29 1551.48,-152.52 1555.16,-146.56"/>
</g>
<!-- 352 -->
<g id="node39" class="node">
<title>352</title>
<path fill="#f6d4bc" stroke="black" d="M1722,-143C1722,-143 1595.75,-143 1595.75,-143 1589.75,-143 1583.75,-137 1583.75,-131 1583.75,-131 1583.75,-84 1583.75,-84 1583.75,-78 1589.75,-72 1595.75,-72 1595.75,-72 1722,-72 1722,-72 1728,-72 1734,-78 1734,-84 1734,-84 1734,-131 1734,-131 1734,-137 1728,-143 1722,-143"/>
<text text-anchor="start" x="1618.75" y="-125.7" font-family="Helvetica,sans-Serif" font-size="14.00">P4_7_1 ≤ 1.5</text>
<text text-anchor="start" x="1591.75" y="-109.95" font-family="Helvetica,sans-Serif" font-size="14.00">squared_error = 92.42</text>
<text text-anchor="start" x="1614.25" y="-94.2" font-family="Helvetica,sans-Serif" font-size="14.00">samples = 128</text>
<text text-anchor="start" x="1614.25" y="-78.45" font-family="Helvetica,sans-Serif" font-size="14.00">value = 46.156</text>
</g>
<!-- 310&#45;&gt;352 -->
<g id="edge38" class="edge">
<title>310&#45;&gt;352</title>
<path fill="none" stroke="black" d="M1657.54,-178.54C1657.69,-170.92 1657.84,-162.75 1657.99,-154.77"/>
<polygon fill="black" stroke="black" points="1661.49,-154.89 1658.18,-144.82 1654.49,-154.76 1661.49,-154.89"/>
</g>
<!-- 312 -->
<g id="node37" class="node">
<title>312</title>
<path fill="#c0c0c0" stroke="black" d="M1443.88,-36C1443.88,-36 1413.88,-36 1413.88,-36 1407.88,-36 1401.88,-30 1401.88,-24 1401.88,-24 1401.88,-12 1401.88,-12 1401.88,-6 1407.88,0 1413.88,0 1413.88,0 1443.88,0 1443.88,0 1449.88,0 1455.88,-6 1455.88,-12 1455.88,-12 1455.88,-24 1455.88,-24 1455.88,-30 1449.88,-36 1443.88,-36"/>
<text text-anchor="middle" x="1428.88" y="-12.57" font-family="Helvetica,sans-Serif" font-size="14.00">(...)</text>
</g>
<!-- 311&#45;&gt;312 -->
<g id="edge36" class="edge">
<title>311&#45;&gt;312</title>
<path fill="none" stroke="black" d="M1463.79,-71.67C1458.04,-62.99 1451.96,-53.83 1446.52,-45.62"/>
<polygon fill="black" stroke="black" points="1449.54,-43.85 1441.1,-37.44 1443.71,-47.71 1449.54,-43.85"/>
</g>
<!-- 339 -->
<g id="node38" class="node">
<title>339</title>
<path fill="#c0c0c0" stroke="black" d="M1515.88,-36C1515.88,-36 1485.88,-36 1485.88,-36 1479.88,-36 1473.88,-30 1473.88,-24 1473.88,-24 1473.88,-12 1473.88,-12 1473.88,-6 1479.88,0 1485.88,0 1485.88,0 1515.88,0 1515.88,0 1521.88,0 1527.88,-6 1527.88,-12 1527.88,-12 1527.88,-24 1527.88,-24 1527.88,-30 1521.88,-36 1515.88,-36"/>
<text text-anchor="middle" x="1500.88" y="-12.57" font-family="Helvetica,sans-Serif" font-size="14.00">(...)</text>
</g>
<!-- 311&#45;&gt;339 -->
<g id="edge37" class="edge">
<title>311&#45;&gt;339</title>
<path fill="none" stroke="black" d="M1492.45,-71.67C1493.73,-63.66 1495.08,-55.24 1496.31,-47.53"/>
<polygon fill="black" stroke="black" points="1499.76,-48.1 1497.89,-37.68 1492.85,-47 1499.76,-48.1"/>
</g>
<!-- 353 -->
<g id="node40" class="node">
<title>353</title>
<path fill="#c0c0c0" stroke="black" d="M1615.88,-36C1615.88,-36 1585.88,-36 1585.88,-36 1579.88,-36 1573.88,-30 1573.88,-24 1573.88,-24 1573.88,-12 1573.88,-12 1573.88,-6 1579.88,0 1585.88,0 1585.88,0 1615.88,0 1615.88,0 1621.88,0 1627.88,-6 1627.88,-12 1627.88,-12 1627.88,-24 1627.88,-24 1627.88,-30 1621.88,-36 1615.88,-36"/>
<text text-anchor="middle" x="1600.88" y="-12.57" font-family="Helvetica,sans-Serif" font-size="14.00">(...)</text>
</g>
<!-- 352&#45;&gt;353 -->
<g id="edge39" class="edge">
<title>352&#45;&gt;353</title>
<path fill="none" stroke="black" d="M1635.79,-71.67C1630.04,-62.99 1623.96,-53.83 1618.52,-45.62"/>
<polygon fill="black" stroke="black" points="1621.54,-43.85 1613.1,-37.44 1615.71,-47.71 1621.54,-43.85"/>
</g>
<!-- 368 -->
<g id="node41" class="node">
<title>368</title>
<path fill="#c0c0c0" stroke="black" d="M1687.88,-36C1687.88,-36 1657.88,-36 1657.88,-36 1651.88,-36 1645.88,-30 1645.88,-24 1645.88,-24 1645.88,-12 1645.88,-12 1645.88,-6 1651.88,0 1657.88,0 1657.88,0 1687.88,0 1687.88,0 1693.88,0 1699.88,-6 1699.88,-12 1699.88,-12 1699.88,-24 1699.88,-24 1699.88,-30 1693.88,-36 1687.88,-36"/>
<text text-anchor="middle" x="1672.88" y="-12.57" font-family="Helvetica,sans-Serif" font-size="14.00">(...)</text>
</g>
<!-- 352&#45;&gt;368 -->
<g id="edge40" class="edge">
<title>352&#45;&gt;368</title>
<path fill="none" stroke="black" d="M1664.45,-71.67C1665.73,-63.66 1667.08,-55.24 1668.31,-47.53"/>
<polygon fill="black" stroke="black" points="1671.76,-48.1 1669.89,-37.68 1664.85,-47 1671.76,-48.1"/>
</g>
<!-- 370 -->
<g id="node43" class="node">
<title>370</title>
<path fill="#f6d3ba" stroke="black" d="M1897.75,-143C1897.75,-143 1764,-143 1764,-143 1758,-143 1752,-137 1752,-131 1752,-131 1752,-84 1752,-84 1752,-78 1758,-72 1764,-72 1764,-72 1897.75,-72 1897.75,-72 1903.75,-72 1909.75,-78 1909.75,-84 1909.75,-84 1909.75,-131 1909.75,-131 1909.75,-137 1903.75,-143 1897.75,-143"/>
<text text-anchor="start" x="1790.75" y="-125.7" font-family="Helvetica,sans-Serif" font-size="14.00">P5_1_6 ≤ 0.5</text>
<text text-anchor="start" x="1760" y="-109.95" font-family="Helvetica,sans-Serif" font-size="14.00">squared_error = 69.492</text>
<text text-anchor="start" x="1786.25" y="-94.2" font-family="Helvetica,sans-Serif" font-size="14.00">samples = 507</text>
<text text-anchor="start" x="1786.25" y="-78.45" font-family="Helvetica,sans-Serif" font-size="14.00">value = 46.752</text>
</g>
<!-- 369&#45;&gt;370 -->
<g id="edge42" class="edge">
<title>369&#45;&gt;370</title>
<path fill="none" stroke="black" d="M1832.21,-178.54C1832.06,-170.92 1831.91,-162.75 1831.76,-154.77"/>
<polygon fill="black" stroke="black" points="1835.26,-154.76 1831.57,-144.82 1828.26,-154.89 1835.26,-154.76"/>
</g>
<!-- 425 -->
<g id="node46" class="node">
<title>425</title>
<path fill="#f9e1cf" stroke="black" d="M2073.75,-143C2073.75,-143 1940,-143 1940,-143 1934,-143 1928,-137 1928,-131 1928,-131 1928,-84 1928,-84 1928,-78 1934,-72 1940,-72 1940,-72 2073.75,-72 2073.75,-72 2079.75,-72 2085.75,-78 2085.75,-84 2085.75,-84 2085.75,-131 2085.75,-131 2085.75,-137 2079.75,-143 2073.75,-143"/>
<text text-anchor="start" x="1966.75" y="-125.7" font-family="Helvetica,sans-Serif" font-size="14.00">P4_7_3 ≤ 1.5</text>
<text text-anchor="start" x="1936" y="-109.95" font-family="Helvetica,sans-Serif" font-size="14.00">squared_error = 72.794</text>
<text text-anchor="start" x="1962.25" y="-94.2" font-family="Helvetica,sans-Serif" font-size="14.00">samples = 372</text>
<text text-anchor="start" x="1962.25" y="-78.45" font-family="Helvetica,sans-Serif" font-size="14.00">value = 40.135</text>
</g>
<!-- 369&#45;&gt;425 -->
<g id="edge45" class="edge">
<title>369&#45;&gt;425</title>
<path fill="none" stroke="black" d="M1890.81,-178.54C1906.29,-169.2 1923.15,-159.03 1939.1,-149.4"/>
<polygon fill="black" stroke="black" points="1940.84,-152.44 1947.6,-144.27 1937.23,-146.44 1940.84,-152.44"/>
</g>
<!-- 371 -->
<g id="node44" class="node">
<title>371</title>
<path fill="#c0c0c0" stroke="black" d="M1789.88,-36C1789.88,-36 1759.88,-36 1759.88,-36 1753.88,-36 1747.88,-30 1747.88,-24 1747.88,-24 1747.88,-12 1747.88,-12 1747.88,-6 1753.88,0 1759.88,0 1759.88,0 1789.88,0 1789.88,0 1795.88,0 1801.88,-6 1801.88,-12 1801.88,-12 1801.88,-24 1801.88,-24 1801.88,-30 1795.88,-36 1789.88,-36"/>
<text text-anchor="middle" x="1774.88" y="-12.57" font-family="Helvetica,sans-Serif" font-size="14.00">(...)</text>
</g>
<!-- 370&#45;&gt;371 -->
<g id="edge43" class="edge">
<title>370&#45;&gt;371</title>
<path fill="none" stroke="black" d="M1808.58,-71.67C1803.03,-62.99 1797.17,-53.83 1791.91,-45.62"/>
<polygon fill="black" stroke="black" points="1795.03,-43.99 1786.69,-37.46 1789.13,-47.77 1795.03,-43.99"/>
</g>
<!-- 392 -->
<g id="node45" class="node">
<title>392</title>
<path fill="#c0c0c0" stroke="black" d="M1861.88,-36C1861.88,-36 1831.88,-36 1831.88,-36 1825.88,-36 1819.88,-30 1819.88,-24 1819.88,-24 1819.88,-12 1819.88,-12 1819.88,-6 1825.88,0 1831.88,0 1831.88,0 1861.88,0 1861.88,0 1867.88,0 1873.88,-6 1873.88,-12 1873.88,-12 1873.88,-24 1873.88,-24 1873.88,-30 1867.88,-36 1861.88,-36"/>
<text text-anchor="middle" x="1846.88" y="-12.57" font-family="Helvetica,sans-Serif" font-size="14.00">(...)</text>
</g>
<!-- 370&#45;&gt;392 -->
<g id="edge44" class="edge">
<title>370&#45;&gt;392</title>
<path fill="none" stroke="black" d="M1837.24,-71.67C1838.73,-63.56 1840.29,-55.04 1841.71,-47.26"/>
<polygon fill="black" stroke="black" points="1845.1,-48.14 1843.46,-37.67 1838.22,-46.88 1845.1,-48.14"/>
</g>
<!-- 426 -->
<g id="node47" class="node">
<title>426</title>
<path fill="#c0c0c0" stroke="black" d="M1965.88,-36C1965.88,-36 1935.88,-36 1935.88,-36 1929.88,-36 1923.88,-30 1923.88,-24 1923.88,-24 1923.88,-12 1923.88,-12 1923.88,-6 1929.88,0 1935.88,0 1935.88,0 1965.88,0 1965.88,0 1971.88,0 1977.88,-6 1977.88,-12 1977.88,-12 1977.88,-24 1977.88,-24 1977.88,-30 1971.88,-36 1965.88,-36"/>
<text text-anchor="middle" x="1950.88" y="-12.57" font-family="Helvetica,sans-Serif" font-size="14.00">(...)</text>
</g>
<!-- 425&#45;&gt;426 -->
<g id="edge46" class="edge">
<title>425&#45;&gt;426</title>
<path fill="none" stroke="black" d="M1984.58,-71.67C1979.03,-62.99 1973.17,-53.83 1967.91,-45.62"/>
<polygon fill="black" stroke="black" points="1971.03,-43.99 1962.69,-37.46 1965.13,-47.77 1971.03,-43.99"/>
</g>
<!-- 455 -->
<g id="node48" class="node">
<title>455</title>
<path fill="#c0c0c0" stroke="black" d="M2037.88,-36C2037.88,-36 2007.88,-36 2007.88,-36 2001.88,-36 1995.88,-30 1995.88,-24 1995.88,-24 1995.88,-12 1995.88,-12 1995.88,-6 2001.88,0 2007.88,0 2007.88,0 2037.88,0 2037.88,0 2043.88,0 2049.88,-6 2049.88,-12 2049.88,-12 2049.88,-24 2049.88,-24 2049.88,-30 2043.88,-36 2037.88,-36"/>
<text text-anchor="middle" x="2022.88" y="-12.57" font-family="Helvetica,sans-Serif" font-size="14.00">(...)</text>
</g>
<!-- 425&#45;&gt;455 -->
<g id="edge47" class="edge">
<title>425&#45;&gt;455</title>
<path fill="none" stroke="black" d="M2013.24,-71.67C2014.73,-63.56 2016.29,-55.04 2017.71,-47.26"/>
<polygon fill="black" stroke="black" points="2021.1,-48.14 2019.46,-37.67 2014.22,-46.88 2021.1,-48.14"/>
</g>
<!-- 477 -->
<g id="node50" class="node">
<title>477</title>
<path fill="#f1bc96" stroke="black" d="M2340.5,-250C2340.5,-250 2199.25,-250 2199.25,-250 2193.25,-250 2187.25,-244 2187.25,-238 2187.25,-238 2187.25,-191 2187.25,-191 2187.25,-185 2193.25,-179 2199.25,-179 2199.25,-179 2340.5,-179 2340.5,-179 2346.5,-179 2352.5,-185 2352.5,-191 2352.5,-191 2352.5,-238 2352.5,-238 2352.5,-244 2346.5,-250 2340.5,-250"/>
<text text-anchor="start" x="2229.75" y="-232.7" font-family="Helvetica,sans-Serif" font-size="14.00">P4_7_3 ≤ 1.5</text>
<text text-anchor="start" x="2195.25" y="-216.95" font-family="Helvetica,sans-Serif" font-size="14.00">squared_error = 102.063</text>
<text text-anchor="start" x="2225.25" y="-201.2" font-family="Helvetica,sans-Serif" font-size="14.00">samples = 858</text>
<text text-anchor="start" x="2225.25" y="-185.45" font-family="Helvetica,sans-Serif" font-size="14.00">value = 57.672</text>
</g>
<!-- 476&#45;&gt;477 -->
<g id="edge49" class="edge">
<title>476&#45;&gt;477</title>
<path fill="none" stroke="black" d="M2269.88,-285.54C2269.88,-277.92 2269.88,-269.75 2269.88,-261.77"/>
<polygon fill="black" stroke="black" points="2273.38,-261.82 2269.88,-251.82 2266.38,-261.82 2273.38,-261.82"/>
</g>
<!-- 586 -->
<g id="node57" class="node">
<title>586</title>
<path fill="#f5d0b5" stroke="black" d="M2611.5,-250C2611.5,-250 2470.25,-250 2470.25,-250 2464.25,-250 2458.25,-244 2458.25,-238 2458.25,-238 2458.25,-191 2458.25,-191 2458.25,-185 2464.25,-179 2470.25,-179 2470.25,-179 2611.5,-179 2611.5,-179 2617.5,-179 2623.5,-185 2623.5,-191 2623.5,-191 2623.5,-238 2623.5,-238 2623.5,-244 2617.5,-250 2611.5,-250"/>
<text text-anchor="start" x="2500.75" y="-232.7" font-family="Helvetica,sans-Serif" font-size="14.00">P4_7_2 ≤ 1.5</text>
<text text-anchor="start" x="2466.25" y="-216.95" font-family="Helvetica,sans-Serif" font-size="14.00">squared_error = 104.545</text>
<text text-anchor="start" x="2496.25" y="-201.2" font-family="Helvetica,sans-Serif" font-size="14.00">samples = 435</text>
<text text-anchor="start" x="2496.25" y="-185.45" font-family="Helvetica,sans-Serif" font-size="14.00">value = 48.283</text>
</g>
<!-- 476&#45;&gt;586 -->
<g id="edge56" class="edge">
<title>476&#45;&gt;586</title>
<path fill="none" stroke="black" d="M2352.66,-288.43C2382.72,-276.78 2416.89,-263.54 2447.79,-251.57"/>
<polygon fill="black" stroke="black" points="2448.66,-254.98 2456.72,-248.11 2446.13,-248.45 2448.66,-254.98"/>
</g>
<!-- 478 -->
<g id="node51" class="node">
<title>478</title>
<path fill="#f0b78e" stroke="black" d="M2249.75,-143C2249.75,-143 2116,-143 2116,-143 2110,-143 2104,-137 2104,-131 2104,-131 2104,-84 2104,-84 2104,-78 2110,-72 2116,-72 2116,-72 2249.75,-72 2249.75,-72 2255.75,-72 2261.75,-78 2261.75,-84 2261.75,-84 2261.75,-131 2261.75,-131 2261.75,-137 2255.75,-143 2249.75,-143"/>
<text text-anchor="start" x="2142.75" y="-125.7" font-family="Helvetica,sans-Serif" font-size="14.00">P4_8_1 ≤ 2.5</text>
<text text-anchor="start" x="2112" y="-109.95" font-family="Helvetica,sans-Serif" font-size="14.00">squared_error = 78.551</text>
<text text-anchor="start" x="2138.25" y="-94.2" font-family="Helvetica,sans-Serif" font-size="14.00">samples = 601</text>
<text text-anchor="start" x="2138.25" y="-78.45" font-family="Helvetica,sans-Serif" font-size="14.00">value = 60.106</text>
</g>
<!-- 477&#45;&gt;478 -->
<g id="edge50" class="edge">
<title>477&#45;&gt;478</title>
<path fill="none" stroke="black" d="M2240.91,-178.54C2233.86,-170.04 2226.24,-160.84 2218.92,-152"/>
<polygon fill="black" stroke="black" points="2221.76,-149.94 2212.68,-144.48 2216.37,-154.41 2221.76,-149.94"/>
</g>
<!-- 549 -->
<g id="node54" class="node">
<title>549</title>
<path fill="#f4c8a8" stroke="black" d="M2432.12,-143C2432.12,-143 2291.62,-143 2291.62,-143 2285.62,-143 2279.62,-137 2279.62,-131 2279.62,-131 2279.62,-84 2279.62,-84 2279.62,-78 2285.62,-72 2291.62,-72 2291.62,-72 2432.12,-72 2432.12,-72 2438.12,-72 2444.12,-78 2444.12,-84 2444.12,-84 2444.12,-131 2444.12,-131 2444.12,-137 2438.12,-143 2432.12,-143"/>
<text text-anchor="start" x="2321.75" y="-125.7" font-family="Helvetica,sans-Serif" font-size="14.00">P4_7_2 ≤ 1.5</text>
<text text-anchor="start" x="2287.62" y="-109.95" font-family="Helvetica,sans-Serif" font-size="14.00">squared_error = 110.786</text>
<text text-anchor="start" x="2317.25" y="-94.2" font-family="Helvetica,sans-Serif" font-size="14.00">samples = 257</text>
<text text-anchor="start" x="2317.25" y="-78.45" font-family="Helvetica,sans-Serif" font-size="14.00">value = 51.979</text>
</g>
<!-- 477&#45;&gt;549 -->
<g id="edge53" class="edge">
<title>477&#45;&gt;549</title>
<path fill="none" stroke="black" d="M2300.51,-178.54C2308.04,-169.95 2316.18,-160.65 2324,-151.72"/>
<polygon fill="black" stroke="black" points="2326.42,-154.28 2330.38,-144.45 2321.15,-149.66 2326.42,-154.28"/>
</g>
<!-- 479 -->
<g id="node52" class="node">
<title>479</title>
<path fill="#c0c0c0" stroke="black" d="M2142.88,-36C2142.88,-36 2112.88,-36 2112.88,-36 2106.88,-36 2100.88,-30 2100.88,-24 2100.88,-24 2100.88,-12 2100.88,-12 2100.88,-6 2106.88,0 2112.88,0 2112.88,0 2142.88,0 2142.88,0 2148.88,0 2154.88,-6 2154.88,-12 2154.88,-12 2154.88,-24 2154.88,-24 2154.88,-30 2148.88,-36 2142.88,-36"/>
<text text-anchor="middle" x="2127.88" y="-12.57" font-family="Helvetica,sans-Serif" font-size="14.00">(...)</text>
</g>
<!-- 478&#45;&gt;479 -->
<g id="edge51" class="edge">
<title>478&#45;&gt;479</title>
<path fill="none" stroke="black" d="M2160.98,-71.67C2155.59,-63.09 2149.89,-54.03 2144.78,-45.89"/>
<polygon fill="black" stroke="black" points="2147.77,-44.07 2139.48,-37.46 2141.84,-47.79 2147.77,-44.07"/>
</g>
<!-- 518 -->
<g id="node53" class="node">
<title>518</title>
<path fill="#c0c0c0" stroke="black" d="M2214.88,-36C2214.88,-36 2184.88,-36 2184.88,-36 2178.88,-36 2172.88,-30 2172.88,-24 2172.88,-24 2172.88,-12 2172.88,-12 2172.88,-6 2178.88,0 2184.88,0 2184.88,0 2214.88,0 2214.88,0 2220.88,0 2226.88,-6 2226.88,-12 2226.88,-12 2226.88,-24 2226.88,-24 2226.88,-30 2220.88,-36 2214.88,-36"/>
<text text-anchor="middle" x="2199.88" y="-12.57" font-family="Helvetica,sans-Serif" font-size="14.00">(...)</text>
</g>
<!-- 478&#45;&gt;518 -->
<g id="edge52" class="edge">
<title>478&#45;&gt;518</title>
<path fill="none" stroke="black" d="M2189.64,-71.67C2191.22,-63.56 2192.87,-55.04 2194.38,-47.26"/>
<polygon fill="black" stroke="black" points="2197.78,-48.15 2196.25,-37.67 2190.9,-46.82 2197.78,-48.15"/>
</g>
<!-- 550 -->
<g id="node55" class="node">
<title>550</title>
<path fill="#c0c0c0" stroke="black" d="M2321.88,-36C2321.88,-36 2291.88,-36 2291.88,-36 2285.88,-36 2279.88,-30 2279.88,-24 2279.88,-24 2279.88,-12 2279.88,-12 2279.88,-6 2285.88,0 2291.88,0 2291.88,0 2321.88,0 2321.88,0 2327.88,0 2333.88,-6 2333.88,-12 2333.88,-12 2333.88,-24 2333.88,-24 2333.88,-30 2327.88,-36 2321.88,-36"/>
<text text-anchor="middle" x="2306.88" y="-12.57" font-family="Helvetica,sans-Serif" font-size="14.00">(...)</text>
</g>
<!-- 549&#45;&gt;550 -->
<g id="edge54" class="edge">
<title>549&#45;&gt;550</title>
<path fill="none" stroke="black" d="M2339.98,-71.67C2334.59,-63.09 2328.89,-54.03 2323.78,-45.89"/>
<polygon fill="black" stroke="black" points="2326.77,-44.07 2318.48,-37.46 2320.84,-47.79 2326.77,-44.07"/>
</g>
<!-- 575 -->
<g id="node56" class="node">
<title>575</title>
<path fill="#c0c0c0" stroke="black" d="M2393.88,-36C2393.88,-36 2363.88,-36 2363.88,-36 2357.88,-36 2351.88,-30 2351.88,-24 2351.88,-24 2351.88,-12 2351.88,-12 2351.88,-6 2357.88,0 2363.88,0 2363.88,0 2393.88,0 2393.88,0 2399.88,0 2405.88,-6 2405.88,-12 2405.88,-12 2405.88,-24 2405.88,-24 2405.88,-30 2399.88,-36 2393.88,-36"/>
<text text-anchor="middle" x="2378.88" y="-12.57" font-family="Helvetica,sans-Serif" font-size="14.00">(...)</text>
</g>
<!-- 549&#45;&gt;575 -->
<g id="edge55" class="edge">
<title>549&#45;&gt;575</title>
<path fill="none" stroke="black" d="M2368.64,-71.67C2370.22,-63.56 2371.87,-55.04 2373.38,-47.26"/>
<polygon fill="black" stroke="black" points="2376.78,-48.15 2375.25,-37.67 2369.9,-46.82 2376.78,-48.15"/>
</g>
<!-- 587 -->
<g id="node58" class="node">
<title>587</title>
<path fill="#f4c9aa" stroke="black" d="M2607.75,-143C2607.75,-143 2474,-143 2474,-143 2468,-143 2462,-137 2462,-131 2462,-131 2462,-84 2462,-84 2462,-78 2468,-72 2474,-72 2474,-72 2607.75,-72 2607.75,-72 2613.75,-72 2619.75,-78 2619.75,-84 2619.75,-84 2619.75,-131 2619.75,-131 2619.75,-137 2613.75,-143 2607.75,-143"/>
<text text-anchor="start" x="2500.75" y="-125.7" font-family="Helvetica,sans-Serif" font-size="14.00">P4_8_1 ≤ 2.5</text>
<text text-anchor="start" x="2470" y="-109.95" font-family="Helvetica,sans-Serif" font-size="14.00">squared_error = 77.155</text>
<text text-anchor="start" x="2496.25" y="-94.2" font-family="Helvetica,sans-Serif" font-size="14.00">samples = 312</text>
<text text-anchor="start" x="2496.25" y="-78.45" font-family="Helvetica,sans-Serif" font-size="14.00">value = 51.338</text>
</g>
<!-- 586&#45;&gt;587 -->
<g id="edge57" class="edge">
<title>586&#45;&gt;587</title>
<path fill="none" stroke="black" d="M2540.88,-178.54C2540.88,-170.92 2540.88,-162.75 2540.88,-154.77"/>
<polygon fill="black" stroke="black" points="2544.38,-154.82 2540.88,-144.82 2537.38,-154.82 2544.38,-154.82"/>
</g>
<!-- 632 -->
<g id="node61" class="node">
<title>632</title>
<path fill="#f9e0ce" stroke="black" d="M2783.75,-143C2783.75,-143 2650,-143 2650,-143 2644,-143 2638,-137 2638,-131 2638,-131 2638,-84 2638,-84 2638,-78 2644,-72 2650,-72 2650,-72 2783.75,-72 2783.75,-72 2789.75,-72 2795.75,-78 2795.75,-84 2795.75,-84 2795.75,-131 2795.75,-131 2795.75,-137 2789.75,-143 2783.75,-143"/>
<text text-anchor="start" x="2676.75" y="-125.7" font-family="Helvetica,sans-Serif" font-size="14.00">P4_7_3 ≤ 1.5</text>
<text text-anchor="start" x="2646" y="-109.95" font-family="Helvetica,sans-Serif" font-size="14.00">squared_error = 90.305</text>
<text text-anchor="start" x="2672.25" y="-94.2" font-family="Helvetica,sans-Serif" font-size="14.00">samples = 123</text>
<text text-anchor="start" x="2672.25" y="-78.45" font-family="Helvetica,sans-Serif" font-size="14.00">value = 40.534</text>
</g>
<!-- 586&#45;&gt;632 -->
<g id="edge60" class="edge">
<title>586&#45;&gt;632</title>
<path fill="none" stroke="black" d="M2599.48,-178.54C2615.28,-169.11 2632.51,-158.83 2648.78,-149.13"/>
<polygon fill="black" stroke="black" points="2650.13,-152.39 2656.93,-144.27 2646.54,-146.38 2650.13,-152.39"/>
</g>
<!-- 588 -->
<g id="node59" class="node">
<title>588</title>
<path fill="#c0c0c0" stroke="black" d="M2517.88,-36C2517.88,-36 2487.88,-36 2487.88,-36 2481.88,-36 2475.88,-30 2475.88,-24 2475.88,-24 2475.88,-12 2475.88,-12 2475.88,-6 2481.88,0 2487.88,0 2487.88,0 2517.88,0 2517.88,0 2523.88,0 2529.88,-6 2529.88,-12 2529.88,-12 2529.88,-24 2529.88,-24 2529.88,-30 2523.88,-36 2517.88,-36"/>
<text text-anchor="middle" x="2502.88" y="-12.57" font-family="Helvetica,sans-Serif" font-size="14.00">(...)</text>
</g>
<!-- 587&#45;&gt;588 -->
<g id="edge58" class="edge">
<title>587&#45;&gt;588</title>
<path fill="none" stroke="black" d="M2525.75,-71.67C2522.15,-63.37 2518.35,-54.63 2514.91,-46.71"/>
<polygon fill="black" stroke="black" points="2518.13,-45.35 2510.94,-37.57 2511.71,-48.14 2518.13,-45.35"/>
</g>
<!-- 615 -->
<g id="node60" class="node">
<title>615</title>
<path fill="#c0c0c0" stroke="black" d="M2589.88,-36C2589.88,-36 2559.88,-36 2559.88,-36 2553.88,-36 2547.88,-30 2547.88,-24 2547.88,-24 2547.88,-12 2547.88,-12 2547.88,-6 2553.88,0 2559.88,0 2559.88,0 2589.88,0 2589.88,0 2595.88,0 2601.88,-6 2601.88,-12 2601.88,-12 2601.88,-24 2601.88,-24 2601.88,-30 2595.88,-36 2589.88,-36"/>
<text text-anchor="middle" x="2574.88" y="-12.57" font-family="Helvetica,sans-Serif" font-size="14.00">(...)</text>
</g>
<!-- 587&#45;&gt;615 -->
<g id="edge59" class="edge">
<title>587&#45;&gt;615</title>
<path fill="none" stroke="black" d="M2554.41,-71.67C2557.63,-63.37 2561.03,-54.63 2564.11,-46.71"/>
<polygon fill="black" stroke="black" points="2567.29,-48.18 2567.65,-37.59 2560.77,-45.65 2567.29,-48.18"/>
</g>
<!-- 633 -->
<g id="node62" class="node">
<title>633</title>
<path fill="#c0c0c0" stroke="black" d="M2695.88,-36C2695.88,-36 2665.88,-36 2665.88,-36 2659.88,-36 2653.88,-30 2653.88,-24 2653.88,-24 2653.88,-12 2653.88,-12 2653.88,-6 2659.88,0 2665.88,0 2665.88,0 2695.88,0 2695.88,0 2701.88,0 2707.88,-6 2707.88,-12 2707.88,-12 2707.88,-24 2707.88,-24 2707.88,-30 2701.88,-36 2695.88,-36"/>
<text text-anchor="middle" x="2680.88" y="-12.57" font-family="Helvetica,sans-Serif" font-size="14.00">(...)</text>
</g>
<!-- 632&#45;&gt;633 -->
<g id="edge61" class="edge">
<title>632&#45;&gt;633</title>
<path fill="none" stroke="black" d="M2702.54,-71.67C2699.13,-63.37 2695.54,-54.63 2692.28,-46.71"/>
<polygon fill="black" stroke="black" points="2695.56,-45.5 2688.52,-37.58 2689.09,-48.16 2695.56,-45.5"/>
</g>
<!-- 640 -->
<g id="node63" class="node">
<title>640</title>
<path fill="#c0c0c0" stroke="black" d="M2767.88,-36C2767.88,-36 2737.88,-36 2737.88,-36 2731.88,-36 2725.88,-30 2725.88,-24 2725.88,-24 2725.88,-12 2725.88,-12 2725.88,-6 2731.88,0 2737.88,0 2737.88,0 2767.88,0 2767.88,0 2773.88,0 2779.88,-6 2779.88,-12 2779.88,-12 2779.88,-24 2779.88,-24 2779.88,-30 2773.88,-36 2767.88,-36"/>
<text text-anchor="middle" x="2752.88" y="-12.57" font-family="Helvetica,sans-Serif" font-size="14.00">(...)</text>
</g>
<!-- 632&#45;&gt;640 -->
<g id="edge62" class="edge">
<title>632&#45;&gt;640</title>
<path fill="none" stroke="black" d="M2731.21,-71.67C2734.62,-63.37 2738.21,-54.63 2741.47,-46.71"/>
<polygon fill="black" stroke="black" points="2744.66,-48.16 2745.23,-37.58 2738.19,-45.5 2744.66,-48.16"/>
</g>
</g>
</svg>
