<?xml version="1.0" encoding="UTF-8" standalone="no"?>
<!DOCTYPE svg PUBLIC "-//W3C//DTD SVG 1.1//EN"
 "http://www.w3.org/Graphics/SVG/1.1/DTD/svg11.dtd">
<!-- Generated by graphviz version 12.2.1 (20241206.2353)
 -->
<!-- Title: Tree Pages: 1 -->
<svg width="2804pt" height="579pt"
 viewBox="0.00 0.00 2803.75 579.00" xmlns="http://www.w3.org/2000/svg" xmlns:xlink="http://www.w3.org/1999/xlink">
<g id="graph0" class="graph" transform="scale(1 1) rotate(0) translate(4 575)">
<title>Tree</title>
<polygon fill="white" stroke="none" points="-4,4 -4,-575 2799.75,-575 2799.75,4 -4,4"/>
<!-- 0 -->
<g id="node1" class="node">
<title>0</title>
<path fill="#f2bf9a" stroke="black" d="M1468.5,-571C1468.5,-571 1327.25,-571 1327.25,-571 1321.25,-571 1315.25,-565 1315.25,-559 1315.25,-559 1315.25,-512 1315.25,-512 1315.25,-506 1321.25,-500 1327.25,-500 1327.25,-500 1468.5,-500 1468.5,-500 1474.5,-500 1480.5,-506 1480.5,-512 1480.5,-512 1480.5,-559 1480.5,-559 1480.5,-565 1474.5,-571 1468.5,-571"/>
<text text-anchor="start" x="1357.75" y="-553.7" font-family="Helvetica,sans-Serif" font-size="14.00">P4_8_2 ≤ 1.5</text>
<text text-anchor="start" x="1323.25" y="-537.95" font-family="Helvetica,sans-Serif" font-size="14.00">squared_error = 153.738</text>
<text text-anchor="start" x="1349.5" y="-522.2" font-family="Helvetica,sans-Serif" font-size="14.00">samples = 5047</text>
<text text-anchor="start" x="1353.25" y="-506.45" font-family="Helvetica,sans-Serif" font-size="14.00">value = 55.683</text>
</g>
<!-- 1 -->
<g id="node2" class="node">
<title>1</title>
<path fill="#f5cdb0" stroke="black" d="M1117.5,-464C1117.5,-464 976.25,-464 976.25,-464 970.25,-464 964.25,-458 964.25,-452 964.25,-452 964.25,-405 964.25,-405 964.25,-399 970.25,-393 976.25,-393 976.25,-393 1117.5,-393 1117.5,-393 1123.5,-393 1129.5,-399 1129.5,-405 1129.5,-405 1129.5,-452 1129.5,-452 1129.5,-458 1123.5,-464 1117.5,-464"/>
<text text-anchor="start" x="1006.75" y="-446.7" font-family="Helvetica,sans-Serif" font-size="14.00">P4_6_4 ≤ 1.5</text>
<text text-anchor="start" x="972.25" y="-430.95" font-family="Helvetica,sans-Serif" font-size="14.00">squared_error = 106.571</text>
<text text-anchor="start" x="998.5" y="-415.2" font-family="Helvetica,sans-Serif" font-size="14.00">samples = 2275</text>
<text text-anchor="start" x="1002.25" y="-399.45" font-family="Helvetica,sans-Serif" font-size="14.00">value = 49.437</text>
</g>
<!-- 0&#45;&gt;1 -->
<g id="edge1" class="edge">
<title>0&#45;&gt;1</title>
<path fill="none" stroke="black" d="M1315.14,-509.75C1262.9,-494.12 1195.27,-473.89 1140.99,-457.65"/>
<polygon fill="black" stroke="black" points="1142,-454.3 1131.42,-454.79 1140,-461.01 1142,-454.3"/>
<text text-anchor="middle" x="1141.84" y="-470.93" font-family="Helvetica,sans-Serif" font-size="14.00">True</text>
</g>
<!-- 188 -->
<g id="node33" class="node">
<title>188</title>
<path fill="#efb387" stroke="black" d="M1820.5,-464C1820.5,-464 1679.25,-464 1679.25,-464 1673.25,-464 1667.25,-458 1667.25,-452 1667.25,-452 1667.25,-405 1667.25,-405 1667.25,-399 1673.25,-393 1679.25,-393 1679.25,-393 1820.5,-393 1820.5,-393 1826.5,-393 1832.5,-399 1832.5,-405 1832.5,-405 1832.5,-452 1832.5,-452 1832.5,-458 1826.5,-464 1820.5,-464"/>
<text text-anchor="start" x="1709.75" y="-446.7" font-family="Helvetica,sans-Serif" font-size="14.00">P4_8_3 ≤ 1.5</text>
<text text-anchor="start" x="1675.25" y="-430.95" font-family="Helvetica,sans-Serif" font-size="14.00">squared_error = 134.146</text>
<text text-anchor="start" x="1701.5" y="-415.2" font-family="Helvetica,sans-Serif" font-size="14.00">samples = 2772</text>
<text text-anchor="start" x="1705.25" y="-399.45" font-family="Helvetica,sans-Serif" font-size="14.00">value = 60.809</text>
</g>
<!-- 0&#45;&gt;188 -->
<g id="edge32" class="edge">
<title>0&#45;&gt;188</title>
<path fill="none" stroke="black" d="M1480.85,-509.75C1533.44,-494.06 1601.59,-473.73 1656.13,-457.46"/>
<polygon fill="black" stroke="black" points="1656.82,-460.91 1665.4,-454.7 1654.82,-454.2 1656.82,-460.91"/>
<text text-anchor="middle" x="1654.96" y="-470.83" font-family="Helvetica,sans-Serif" font-size="14.00">False</text>
</g>
<!-- 2 -->
<g id="node3" class="node">
<title>2</title>
<path fill="#f2c19d" stroke="black" d="M585.75,-357C585.75,-357 452,-357 452,-357 446,-357 440,-351 440,-345 440,-345 440,-298 440,-298 440,-292 446,-286 452,-286 452,-286 585.75,-286 585.75,-286 591.75,-286 597.75,-292 597.75,-298 597.75,-298 597.75,-345 597.75,-345 597.75,-351 591.75,-357 585.75,-357"/>
<text text-anchor="start" x="478.75" y="-339.7" font-family="Helvetica,sans-Serif" font-size="14.00">P4_8_3 ≤ 1.5</text>
<text text-anchor="start" x="448" y="-323.95" font-family="Helvetica,sans-Serif" font-size="14.00">squared_error = 93.423</text>
<text text-anchor="start" x="474.25" y="-308.2" font-family="Helvetica,sans-Serif" font-size="14.00">samples = 892</text>
<text text-anchor="start" x="474.25" y="-292.45" font-family="Helvetica,sans-Serif" font-size="14.00">value = 54.655</text>
</g>
<!-- 1&#45;&gt;2 -->
<g id="edge2" class="edge">
<title>1&#45;&gt;2</title>
<path fill="none" stroke="black" d="M963.79,-410.98C867.32,-391.79 708.74,-360.26 609.25,-340.47"/>
<polygon fill="black" stroke="black" points="610,-337.05 599.51,-338.53 608.63,-343.92 610,-337.05"/>
</g>
<!-- 89 -->
<g id="node18" class="node">
<title>89</title>
<path fill="#f6d4bc" stroke="black" d="M1113.75,-357C1113.75,-357 980,-357 980,-357 974,-357 968,-351 968,-345 968,-345 968,-298 968,-298 968,-292 974,-286 980,-286 980,-286 1113.75,-286 1113.75,-286 1119.75,-286 1125.75,-292 1125.75,-298 1125.75,-298 1125.75,-345 1125.75,-345 1125.75,-351 1119.75,-357 1113.75,-357"/>
<text text-anchor="start" x="1006.75" y="-339.7" font-family="Helvetica,sans-Serif" font-size="14.00">P4_7_2 ≤ 1.5</text>
<text text-anchor="start" x="976" y="-323.95" font-family="Helvetica,sans-Serif" font-size="14.00">squared_error = 86.158</text>
<text text-anchor="start" x="998.5" y="-308.2" font-family="Helvetica,sans-Serif" font-size="14.00">samples = 1383</text>
<text text-anchor="start" x="1002.25" y="-292.45" font-family="Helvetica,sans-Serif" font-size="14.00">value = 46.071</text>
</g>
<!-- 1&#45;&gt;89 -->
<g id="edge17" class="edge">
<title>1&#45;&gt;89</title>
<path fill="none" stroke="black" d="M1046.88,-392.54C1046.88,-384.92 1046.88,-376.75 1046.88,-368.77"/>
<polygon fill="black" stroke="black" points="1050.38,-368.82 1046.88,-358.82 1043.38,-368.82 1050.38,-368.82"/>
</g>
<!-- 3 -->
<g id="node4" class="node">
<title>3</title>
<path fill="#f1b991" stroke="black" d="M318,-250C318,-250 191.75,-250 191.75,-250 185.75,-250 179.75,-244 179.75,-238 179.75,-238 179.75,-191 179.75,-191 179.75,-185 185.75,-179 191.75,-179 191.75,-179 318,-179 318,-179 324,-179 330,-185 330,-191 330,-191 330,-238 330,-238 330,-244 324,-250 318,-250"/>
<text text-anchor="start" x="214.75" y="-232.7" font-family="Helvetica,sans-Serif" font-size="14.00">P4_8_1 ≤ 1.5</text>
<text text-anchor="start" x="187.75" y="-216.95" font-family="Helvetica,sans-Serif" font-size="14.00">squared_error = 88.94</text>
<text text-anchor="start" x="210.25" y="-201.2" font-family="Helvetica,sans-Serif" font-size="14.00">samples = 455</text>
<text text-anchor="start" x="210.25" y="-185.45" font-family="Helvetica,sans-Serif" font-size="14.00">value = 58.235</text>
</g>
<!-- 2&#45;&gt;3 -->
<g id="edge3" class="edge">
<title>2&#45;&gt;3</title>
<path fill="none" stroke="black" d="M439.67,-289C408.55,-276.62 372.76,-262.39 341.01,-249.76"/>
<polygon fill="black" stroke="black" points="342.4,-246.54 331.81,-246.1 339.81,-253.05 342.4,-246.54"/>
</g>
<!-- 52 -->
<g id="node11" class="node">
<title>52</title>
<path fill="#f4c9ab" stroke="black" d="M585.75,-250C585.75,-250 452,-250 452,-250 446,-250 440,-244 440,-238 440,-238 440,-191 440,-191 440,-185 446,-179 452,-179 452,-179 585.75,-179 585.75,-179 591.75,-179 597.75,-185 597.75,-191 597.75,-191 597.75,-238 597.75,-238 597.75,-244 591.75,-250 585.75,-250"/>
<text text-anchor="start" x="478.75" y="-232.7" font-family="Helvetica,sans-Serif" font-size="14.00">P4_6_3 ≤ 2.5</text>
<text text-anchor="start" x="448" y="-216.95" font-family="Helvetica,sans-Serif" font-size="14.00">squared_error = 70.857</text>
<text text-anchor="start" x="474.25" y="-201.2" font-family="Helvetica,sans-Serif" font-size="14.00">samples = 437</text>
<text text-anchor="start" x="474.25" y="-185.45" font-family="Helvetica,sans-Serif" font-size="14.00">value = 50.928</text>
</g>
<!-- 2&#45;&gt;52 -->
<g id="edge10" class="edge">
<title>2&#45;&gt;52</title>
<path fill="none" stroke="black" d="M518.88,-285.54C518.88,-277.92 518.88,-269.75 518.88,-261.77"/>
<polygon fill="black" stroke="black" points="522.38,-261.82 518.88,-251.82 515.38,-261.82 522.38,-261.82"/>
</g>
<!-- 4 -->
<g id="node5" class="node">
<title>4</title>
<path fill="#f2c09b" stroke="black" d="M145.75,-143C145.75,-143 12,-143 12,-143 6,-143 0,-137 0,-131 0,-131 0,-84 0,-84 0,-78 6,-72 12,-72 12,-72 145.75,-72 145.75,-72 151.75,-72 157.75,-78 157.75,-84 157.75,-84 157.75,-131 157.75,-131 157.75,-137 151.75,-143 145.75,-143"/>
<text text-anchor="start" x="35.38" y="-125.7" font-family="Helvetica,sans-Serif" font-size="14.00">P11_3_9 ≤ 0.5</text>
<text text-anchor="start" x="8" y="-109.95" font-family="Helvetica,sans-Serif" font-size="14.00">squared_error = 64.083</text>
<text text-anchor="start" x="34.25" y="-94.2" font-family="Helvetica,sans-Serif" font-size="14.00">samples = 289</text>
<text text-anchor="start" x="34.25" y="-78.45" font-family="Helvetica,sans-Serif" font-size="14.00">value = 55.253</text>
</g>
<!-- 3&#45;&gt;4 -->
<g id="edge4" class="edge">
<title>3&#45;&gt;4</title>
<path fill="none" stroke="black" d="M196.27,-178.54C180.47,-169.11 163.24,-158.83 146.97,-149.13"/>
<polygon fill="black" stroke="black" points="149.21,-146.38 138.82,-144.27 145.62,-152.39 149.21,-146.38"/>
</g>
<!-- 31 -->
<g id="node8" class="node">
<title>31</title>
<path fill="#eead7e" stroke="black" d="M321.75,-143C321.75,-143 188,-143 188,-143 182,-143 176,-137 176,-131 176,-131 176,-84 176,-84 176,-78 182,-72 188,-72 188,-72 321.75,-72 321.75,-72 327.75,-72 333.75,-78 333.75,-84 333.75,-84 333.75,-131 333.75,-131 333.75,-137 327.75,-143 321.75,-143"/>
<text text-anchor="start" x="207.25" y="-125.7" font-family="Helvetica,sans-Serif" font-size="14.00">P7_9_2_2 ≤ 0.5</text>
<text text-anchor="start" x="184" y="-109.95" font-family="Helvetica,sans-Serif" font-size="14.00">squared_error = 89.803</text>
<text text-anchor="start" x="210.25" y="-94.2" font-family="Helvetica,sans-Serif" font-size="14.00">samples = 166</text>
<text text-anchor="start" x="210.25" y="-78.45" font-family="Helvetica,sans-Serif" font-size="14.00">value = 63.425</text>
</g>
<!-- 3&#45;&gt;31 -->
<g id="edge7" class="edge">
<title>3&#45;&gt;31</title>
<path fill="none" stroke="black" d="M254.88,-178.54C254.88,-170.92 254.88,-162.75 254.88,-154.77"/>
<polygon fill="black" stroke="black" points="258.38,-154.82 254.88,-144.82 251.38,-154.82 258.38,-154.82"/>
</g>
<!-- 5 -->
<g id="node6" class="node">
<title>5</title>
<path fill="#c0c0c0" stroke="black" d="M57.88,-36C57.88,-36 27.88,-36 27.88,-36 21.88,-36 15.88,-30 15.88,-24 15.88,-24 15.88,-12 15.88,-12 15.88,-6 21.88,0 27.88,0 27.88,0 57.88,0 57.88,0 63.88,0 69.88,-6 69.88,-12 69.88,-12 69.88,-24 69.88,-24 69.88,-30 63.88,-36 57.88,-36"/>
<text text-anchor="middle" x="42.88" y="-12.57" font-family="Helvetica,sans-Serif" font-size="14.00">(...)</text>
</g>
<!-- 4&#45;&gt;5 -->
<g id="edge5" class="edge">
<title>4&#45;&gt;5</title>
<path fill="none" stroke="black" d="M64.54,-71.67C61.13,-63.37 57.54,-54.63 54.28,-46.71"/>
<polygon fill="black" stroke="black" points="57.56,-45.5 50.52,-37.58 51.09,-48.16 57.56,-45.5"/>
</g>
<!-- 18 -->
<g id="node7" class="node">
<title>18</title>
<path fill="#c0c0c0" stroke="black" d="M129.88,-36C129.88,-36 99.88,-36 99.88,-36 93.88,-36 87.88,-30 87.88,-24 87.88,-24 87.88,-12 87.88,-12 87.88,-6 93.88,0 99.88,0 99.88,0 129.88,0 129.88,0 135.88,0 141.88,-6 141.88,-12 141.88,-12 141.88,-24 141.88,-24 141.88,-30 135.88,-36 129.88,-36"/>
<text text-anchor="middle" x="114.88" y="-12.57" font-family="Helvetica,sans-Serif" font-size="14.00">(...)</text>
</g>
<!-- 4&#45;&gt;18 -->
<g id="edge6" class="edge">
<title>4&#45;&gt;18</title>
<path fill="none" stroke="black" d="M93.21,-71.67C96.62,-63.37 100.21,-54.63 103.47,-46.71"/>
<polygon fill="black" stroke="black" points="106.66,-48.16 107.23,-37.58 100.19,-45.5 106.66,-48.16"/>
</g>
<!-- 32 -->
<g id="node9" class="node">
<title>32</title>
<path fill="#c0c0c0" stroke="black" d="M235.88,-36C235.88,-36 205.88,-36 205.88,-36 199.88,-36 193.88,-30 193.88,-24 193.88,-24 193.88,-12 193.88,-12 193.88,-6 199.88,0 205.88,0 205.88,0 235.88,0 235.88,0 241.88,0 247.88,-6 247.88,-12 247.88,-12 247.88,-24 247.88,-24 247.88,-30 241.88,-36 235.88,-36"/>
<text text-anchor="middle" x="220.88" y="-12.57" font-family="Helvetica,sans-Serif" font-size="14.00">(...)</text>
</g>
<!-- 31&#45;&gt;32 -->
<g id="edge8" class="edge">
<title>31&#45;&gt;32</title>
<path fill="none" stroke="black" d="M241.34,-71.67C238.12,-63.37 234.72,-54.63 231.64,-46.71"/>
<polygon fill="black" stroke="black" points="234.98,-45.65 228.1,-37.59 228.46,-48.18 234.98,-45.65"/>
</g>
<!-- 39 -->
<g id="node10" class="node">
<title>39</title>
<path fill="#c0c0c0" stroke="black" d="M307.88,-36C307.88,-36 277.88,-36 277.88,-36 271.88,-36 265.88,-30 265.88,-24 265.88,-24 265.88,-12 265.88,-12 265.88,-6 271.88,0 277.88,0 277.88,0 307.88,0 307.88,0 313.88,0 319.88,-6 319.88,-12 319.88,-12 319.88,-24 319.88,-24 319.88,-30 313.88,-36 307.88,-36"/>
<text text-anchor="middle" x="292.88" y="-12.57" font-family="Helvetica,sans-Serif" font-size="14.00">(...)</text>
</g>
<!-- 31&#45;&gt;39 -->
<g id="edge9" class="edge">
<title>31&#45;&gt;39</title>
<path fill="none" stroke="black" d="M270,-71.67C273.6,-63.37 277.4,-54.63 280.84,-46.71"/>
<polygon fill="black" stroke="black" points="284.04,-48.14 284.81,-37.57 277.62,-45.35 284.04,-48.14"/>
</g>
<!-- 53 -->
<g id="node12" class="node">
<title>53</title>
<path fill="#f5ceb2" stroke="black" d="M497.75,-143C497.75,-143 364,-143 364,-143 358,-143 352,-137 352,-131 352,-131 352,-84 352,-84 352,-78 358,-72 364,-72 364,-72 497.75,-72 497.75,-72 503.75,-72 509.75,-78 509.75,-84 509.75,-84 509.75,-131 509.75,-131 509.75,-137 503.75,-143 497.75,-143"/>
<text text-anchor="start" x="390.75" y="-125.7" font-family="Helvetica,sans-Serif" font-size="14.00">P4_6_1 ≤ 1.5</text>
<text text-anchor="start" x="360" y="-109.95" font-family="Helvetica,sans-Serif" font-size="14.00">squared_error = 61.008</text>
<text text-anchor="start" x="386.25" y="-94.2" font-family="Helvetica,sans-Serif" font-size="14.00">samples = 299</text>
<text text-anchor="start" x="386.25" y="-78.45" font-family="Helvetica,sans-Serif" font-size="14.00">value = 48.851</text>
</g>
<!-- 52&#45;&gt;53 -->
<g id="edge11" class="edge">
<title>52&#45;&gt;53</title>
<path fill="none" stroke="black" d="M489.57,-178.54C482.45,-170.04 474.74,-160.84 467.33,-152"/>
<polygon fill="black" stroke="black" points="470.13,-149.89 461.02,-144.47 464.76,-154.38 470.13,-149.89"/>
</g>
<!-- 74 -->
<g id="node15" class="node">
<title>74</title>
<path fill="#f2bf9b" stroke="black" d="M673.75,-143C673.75,-143 540,-143 540,-143 534,-143 528,-137 528,-131 528,-131 528,-84 528,-84 528,-78 534,-72 540,-72 540,-72 673.75,-72 673.75,-72 679.75,-72 685.75,-78 685.75,-84 685.75,-84 685.75,-131 685.75,-131 685.75,-137 679.75,-143 673.75,-143"/>
<text text-anchor="start" x="574.25" y="-125.7" font-family="Helvetica,sans-Serif" font-size="14.00">P4_1 ≤ 0.5</text>
<text text-anchor="start" x="536" y="-109.95" font-family="Helvetica,sans-Serif" font-size="14.00">squared_error = 62.589</text>
<text text-anchor="start" x="562.25" y="-94.2" font-family="Helvetica,sans-Serif" font-size="14.00">samples = 138</text>
<text text-anchor="start" x="562.25" y="-78.45" font-family="Helvetica,sans-Serif" font-size="14.00">value = 55.429</text>
</g>
<!-- 52&#45;&gt;74 -->
<g id="edge14" class="edge">
<title>52&#45;&gt;74</title>
<path fill="none" stroke="black" d="M548.18,-178.54C555.3,-170.04 563.01,-160.84 570.42,-152"/>
<polygon fill="black" stroke="black" points="572.99,-154.38 576.73,-144.47 567.62,-149.89 572.99,-154.38"/>
</g>
<!-- 54 -->
<g id="node13" class="node">
<title>54</title>
<path fill="#c0c0c0" stroke="black" d="M412.88,-36C412.88,-36 382.88,-36 382.88,-36 376.88,-36 370.88,-30 370.88,-24 370.88,-24 370.88,-12 370.88,-12 370.88,-6 376.88,0 382.88,0 382.88,0 412.88,0 412.88,0 418.88,0 424.88,-6 424.88,-12 424.88,-12 424.88,-24 424.88,-24 424.88,-30 418.88,-36 412.88,-36"/>
<text text-anchor="middle" x="397.88" y="-12.57" font-family="Helvetica,sans-Serif" font-size="14.00">(...)</text>
</g>
<!-- 53&#45;&gt;54 -->
<g id="edge12" class="edge">
<title>53&#45;&gt;54</title>
<path fill="none" stroke="black" d="M417.74,-71.67C414.61,-63.37 411.31,-54.63 408.33,-46.71"/>
<polygon fill="black" stroke="black" points="411.69,-45.72 404.89,-37.6 405.14,-48.19 411.69,-45.72"/>
</g>
<!-- 63 -->
<g id="node14" class="node">
<title>63</title>
<path fill="#c0c0c0" stroke="black" d="M484.88,-36C484.88,-36 454.88,-36 454.88,-36 448.88,-36 442.88,-30 442.88,-24 442.88,-24 442.88,-12 442.88,-12 442.88,-6 448.88,0 454.88,0 454.88,0 484.88,0 484.88,0 490.88,0 496.88,-6 496.88,-12 496.88,-12 496.88,-24 496.88,-24 496.88,-30 490.88,-36 484.88,-36"/>
<text text-anchor="middle" x="469.88" y="-12.57" font-family="Helvetica,sans-Serif" font-size="14.00">(...)</text>
</g>
<!-- 53&#45;&gt;63 -->
<g id="edge13" class="edge">
<title>53&#45;&gt;63</title>
<path fill="none" stroke="black" d="M446.4,-71.67C450.14,-63.28 454.08,-54.43 457.65,-46.44"/>
<polygon fill="black" stroke="black" points="460.73,-48.12 461.6,-37.57 454.33,-45.27 460.73,-48.12"/>
</g>
<!-- 75 -->
<g id="node16" class="node">
<title>75</title>
<path fill="#c0c0c0" stroke="black" d="M608.88,-36C608.88,-36 578.88,-36 578.88,-36 572.88,-36 566.88,-30 566.88,-24 566.88,-24 566.88,-12 566.88,-12 566.88,-6 572.88,0 578.88,0 578.88,0 608.88,0 608.88,0 614.88,0 620.88,-6 620.88,-12 620.88,-12 620.88,-24 620.88,-24 620.88,-30 614.88,-36 608.88,-36"/>
<text text-anchor="middle" x="593.88" y="-12.57" font-family="Helvetica,sans-Serif" font-size="14.00">(...)</text>
</g>
<!-- 74&#45;&gt;75 -->
<g id="edge15" class="edge">
<title>74&#45;&gt;75</title>
<path fill="none" stroke="black" d="M601.7,-71.67C600.51,-63.66 599.26,-55.24 598.11,-47.53"/>
<polygon fill="black" stroke="black" points="601.58,-47.06 596.65,-37.68 594.66,-48.09 601.58,-47.06"/>
</g>
<!-- 76 -->
<g id="node17" class="node">
<title>76</title>
<path fill="#c0c0c0" stroke="black" d="M680.88,-36C680.88,-36 650.88,-36 650.88,-36 644.88,-36 638.88,-30 638.88,-24 638.88,-24 638.88,-12 638.88,-12 638.88,-6 644.88,0 650.88,0 650.88,0 680.88,0 680.88,0 686.88,0 692.88,-6 692.88,-12 692.88,-12 692.88,-24 692.88,-24 692.88,-30 686.88,-36 680.88,-36"/>
<text text-anchor="middle" x="665.88" y="-12.57" font-family="Helvetica,sans-Serif" font-size="14.00">(...)</text>
</g>
<!-- 74&#45;&gt;76 -->
<g id="edge16" class="edge">
<title>74&#45;&gt;76</title>
<path fill="none" stroke="black" d="M630.36,-71.67C636.21,-62.99 642.39,-53.83 647.92,-45.62"/>
<polygon fill="black" stroke="black" points="650.75,-47.69 653.44,-37.44 644.95,-43.77 650.75,-47.69"/>
</g>
<!-- 90 -->
<g id="node19" class="node">
<title>90</title>
<path fill="#f5d0b4" stroke="black" d="M1025.75,-250C1025.75,-250 892,-250 892,-250 886,-250 880,-244 880,-238 880,-238 880,-191 880,-191 880,-185 886,-179 892,-179 892,-179 1025.75,-179 1025.75,-179 1031.75,-179 1037.75,-185 1037.75,-191 1037.75,-191 1037.75,-238 1037.75,-238 1037.75,-244 1031.75,-250 1025.75,-250"/>
<text text-anchor="start" x="918.75" y="-232.7" font-family="Helvetica,sans-Serif" font-size="14.00">P4_6_1 ≤ 1.5</text>
<text text-anchor="start" x="888" y="-216.95" font-family="Helvetica,sans-Serif" font-size="14.00">squared_error = 78.743</text>
<text text-anchor="start" x="914.25" y="-201.2" font-family="Helvetica,sans-Serif" font-size="14.00">samples = 979</text>
<text text-anchor="start" x="914.25" y="-185.45" font-family="Helvetica,sans-Serif" font-size="14.00">value = 48.187</text>
</g>
<!-- 89&#45;&gt;90 -->
<g id="edge18" class="edge">
<title>89&#45;&gt;90</title>
<path fill="none" stroke="black" d="M1017.57,-285.54C1010.45,-277.04 1002.74,-267.84 995.33,-259"/>
<polygon fill="black" stroke="black" points="998.13,-256.89 989.02,-251.47 992.76,-261.38 998.13,-256.89"/>
</g>
<!-- 145 -->
<g id="node26" class="node">
<title>145</title>
<path fill="#f9e0ce" stroke="black" d="M1201.75,-250C1201.75,-250 1068,-250 1068,-250 1062,-250 1056,-244 1056,-238 1056,-238 1056,-191 1056,-191 1056,-185 1062,-179 1068,-179 1068,-179 1201.75,-179 1201.75,-179 1207.75,-179 1213.75,-185 1213.75,-191 1213.75,-191 1213.75,-238 1213.75,-238 1213.75,-244 1207.75,-250 1201.75,-250"/>
<text text-anchor="start" x="1094.75" y="-232.7" font-family="Helvetica,sans-Serif" font-size="14.00">P4_8_3 ≤ 1.5</text>
<text text-anchor="start" x="1064" y="-216.95" font-family="Helvetica,sans-Serif" font-size="14.00">squared_error = 66.992</text>
<text text-anchor="start" x="1090.25" y="-201.2" font-family="Helvetica,sans-Serif" font-size="14.00">samples = 404</text>
<text text-anchor="start" x="1090.25" y="-185.45" font-family="Helvetica,sans-Serif" font-size="14.00">value = 40.944</text>
</g>
<!-- 89&#45;&gt;145 -->
<g id="edge25" class="edge">
<title>89&#45;&gt;145</title>
<path fill="none" stroke="black" d="M1076.18,-285.54C1083.3,-277.04 1091.01,-267.84 1098.42,-259"/>
<polygon fill="black" stroke="black" points="1100.99,-261.38 1104.73,-251.47 1095.62,-256.89 1100.99,-261.38"/>
</g>
<!-- 91 -->
<g id="node20" class="node">
<title>91</title>
<path fill="#f4caac" stroke="black" d="M849.75,-143C849.75,-143 716,-143 716,-143 710,-143 704,-137 704,-131 704,-131 704,-84 704,-84 704,-78 710,-72 716,-72 716,-72 849.75,-72 849.75,-72 855.75,-72 861.75,-78 861.75,-84 861.75,-84 861.75,-131 861.75,-131 861.75,-137 855.75,-143 849.75,-143"/>
<text text-anchor="start" x="742.75" y="-125.7" font-family="Helvetica,sans-Serif" font-size="14.00">P4_8_1 ≤ 2.5</text>
<text text-anchor="start" x="712" y="-109.95" font-family="Helvetica,sans-Serif" font-size="14.00">squared_error = 69.132</text>
<text text-anchor="start" x="738.25" y="-94.2" font-family="Helvetica,sans-Serif" font-size="14.00">samples = 623</text>
<text text-anchor="start" x="738.25" y="-78.45" font-family="Helvetica,sans-Serif" font-size="14.00">value = 50.654</text>
</g>
<!-- 90&#45;&gt;91 -->
<g id="edge19" class="edge">
<title>90&#45;&gt;91</title>
<path fill="none" stroke="black" d="M900.27,-178.54C884.47,-169.11 867.24,-158.83 850.97,-149.13"/>
<polygon fill="black" stroke="black" points="853.21,-146.38 842.82,-144.27 849.62,-152.39 853.21,-146.38"/>
</g>
<!-- 120 -->
<g id="node23" class="node">
<title>120</title>
<path fill="#f7d9c4" stroke="black" d="M1025.75,-143C1025.75,-143 892,-143 892,-143 886,-143 880,-137 880,-131 880,-131 880,-84 880,-84 880,-78 886,-72 892,-72 892,-72 1025.75,-72 1025.75,-72 1031.75,-72 1037.75,-78 1037.75,-84 1037.75,-84 1037.75,-131 1037.75,-131 1037.75,-137 1031.75,-143 1025.75,-143"/>
<text text-anchor="start" x="918.75" y="-125.7" font-family="Helvetica,sans-Serif" font-size="14.00">P4_8_3 ≤ 1.5</text>
<text text-anchor="start" x="888" y="-109.95" font-family="Helvetica,sans-Serif" font-size="14.00">squared_error = 66.274</text>
<text text-anchor="start" x="914.25" y="-94.2" font-family="Helvetica,sans-Serif" font-size="14.00">samples = 356</text>
<text text-anchor="start" x="914.25" y="-78.45" font-family="Helvetica,sans-Serif" font-size="14.00">value = 43.869</text>
</g>
<!-- 90&#45;&gt;120 -->
<g id="edge22" class="edge">
<title>90&#45;&gt;120</title>
<path fill="none" stroke="black" d="M958.88,-178.54C958.88,-170.92 958.88,-162.75 958.88,-154.77"/>
<polygon fill="black" stroke="black" points="962.38,-154.82 958.88,-144.82 955.38,-154.82 962.38,-154.82"/>
</g>
<!-- 92 -->
<g id="node21" class="node">
<title>92</title>
<path fill="#c0c0c0" stroke="black" d="M764.88,-36C764.88,-36 734.88,-36 734.88,-36 728.88,-36 722.88,-30 722.88,-24 722.88,-24 722.88,-12 722.88,-12 722.88,-6 728.88,0 734.88,0 734.88,0 764.88,0 764.88,0 770.88,0 776.88,-6 776.88,-12 776.88,-12 776.88,-24 776.88,-24 776.88,-30 770.88,-36 764.88,-36"/>
<text text-anchor="middle" x="749.88" y="-12.57" font-family="Helvetica,sans-Serif" font-size="14.00">(...)</text>
</g>
<!-- 91&#45;&gt;92 -->
<g id="edge20" class="edge">
<title>91&#45;&gt;92</title>
<path fill="none" stroke="black" d="M769.74,-71.67C766.61,-63.37 763.31,-54.63 760.33,-46.71"/>
<polygon fill="black" stroke="black" points="763.69,-45.72 756.89,-37.6 757.14,-48.19 763.69,-45.72"/>
</g>
<!-- 107 -->
<g id="node22" class="node">
<title>107</title>
<path fill="#c0c0c0" stroke="black" d="M836.88,-36C836.88,-36 806.88,-36 806.88,-36 800.88,-36 794.88,-30 794.88,-24 794.88,-24 794.88,-12 794.88,-12 794.88,-6 800.88,0 806.88,0 806.88,0 836.88,0 836.88,0 842.88,0 848.88,-6 848.88,-12 848.88,-12 848.88,-24 848.88,-24 848.88,-30 842.88,-36 836.88,-36"/>
<text text-anchor="middle" x="821.88" y="-12.57" font-family="Helvetica,sans-Serif" font-size="14.00">(...)</text>
</g>
<!-- 91&#45;&gt;107 -->
<g id="edge21" class="edge">
<title>91&#45;&gt;107</title>
<path fill="none" stroke="black" d="M798.4,-71.67C802.14,-63.28 806.08,-54.43 809.65,-46.44"/>
<polygon fill="black" stroke="black" points="812.73,-48.12 813.6,-37.57 806.33,-45.27 812.73,-48.12"/>
</g>
<!-- 121 -->
<g id="node24" class="node">
<title>121</title>
<path fill="#c0c0c0" stroke="black" d="M914.88,-36C914.88,-36 884.88,-36 884.88,-36 878.88,-36 872.88,-30 872.88,-24 872.88,-24 872.88,-12 872.88,-12 872.88,-6 878.88,0 884.88,0 884.88,0 914.88,0 914.88,0 920.88,0 926.88,-6 926.88,-12 926.88,-12 926.88,-24 926.88,-24 926.88,-30 920.88,-36 914.88,-36"/>
<text text-anchor="middle" x="899.88" y="-12.57" font-family="Helvetica,sans-Serif" font-size="14.00">(...)</text>
</g>
<!-- 120&#45;&gt;121 -->
<g id="edge23" class="edge">
<title>120&#45;&gt;121</title>
<path fill="none" stroke="black" d="M935.39,-71.67C929.54,-62.99 923.36,-53.83 917.83,-45.62"/>
<polygon fill="black" stroke="black" points="920.8,-43.77 912.31,-37.44 915,-47.69 920.8,-43.77"/>
</g>
<!-- 132 -->
<g id="node25" class="node">
<title>132</title>
<path fill="#c0c0c0" stroke="black" d="M986.88,-36C986.88,-36 956.88,-36 956.88,-36 950.88,-36 944.88,-30 944.88,-24 944.88,-24 944.88,-12 944.88,-12 944.88,-6 950.88,0 956.88,0 956.88,0 986.88,0 986.88,0 992.88,0 998.88,-6 998.88,-12 998.88,-12 998.88,-24 998.88,-24 998.88,-30 992.88,-36 986.88,-36"/>
<text text-anchor="middle" x="971.88" y="-12.57" font-family="Helvetica,sans-Serif" font-size="14.00">(...)</text>
</g>
<!-- 120&#45;&gt;132 -->
<g id="edge24" class="edge">
<title>120&#45;&gt;132</title>
<path fill="none" stroke="black" d="M964.05,-71.67C965.24,-63.66 966.49,-55.24 967.64,-47.53"/>
<polygon fill="black" stroke="black" points="971.09,-48.09 969.1,-37.68 964.17,-47.06 971.09,-48.09"/>
</g>
<!-- 146 -->
<g id="node27" class="node">
<title>146</title>
<path fill="#f7d8c1" stroke="black" d="M1201.75,-143C1201.75,-143 1068,-143 1068,-143 1062,-143 1056,-137 1056,-131 1056,-131 1056,-84 1056,-84 1056,-78 1062,-72 1068,-72 1068,-72 1201.75,-72 1201.75,-72 1207.75,-72 1213.75,-78 1213.75,-84 1213.75,-84 1213.75,-131 1213.75,-131 1213.75,-137 1207.75,-143 1201.75,-143"/>
<text text-anchor="start" x="1094.75" y="-125.7" font-family="Helvetica,sans-Serif" font-size="14.00">P4_8_1 ≤ 2.5</text>
<text text-anchor="start" x="1064" y="-109.95" font-family="Helvetica,sans-Serif" font-size="14.00">squared_error = 73.513</text>
<text text-anchor="start" x="1090.25" y="-94.2" font-family="Helvetica,sans-Serif" font-size="14.00">samples = 142</text>
<text text-anchor="start" x="1090.25" y="-78.45" font-family="Helvetica,sans-Serif" font-size="14.00">value = 44.668</text>
</g>
<!-- 145&#45;&gt;146 -->
<g id="edge26" class="edge">
<title>145&#45;&gt;146</title>
<path fill="none" stroke="black" d="M1134.88,-178.54C1134.88,-170.92 1134.88,-162.75 1134.88,-154.77"/>
<polygon fill="black" stroke="black" points="1138.38,-154.82 1134.88,-144.82 1131.38,-154.82 1138.38,-154.82"/>
</g>
<!-- 165 -->
<g id="node30" class="node">
<title>165</title>
<path fill="#fae5d5" stroke="black" d="M1377.75,-143C1377.75,-143 1244,-143 1244,-143 1238,-143 1232,-137 1232,-131 1232,-131 1232,-84 1232,-84 1232,-78 1238,-72 1244,-72 1244,-72 1377.75,-72 1377.75,-72 1383.75,-72 1389.75,-78 1389.75,-84 1389.75,-84 1389.75,-131 1389.75,-131 1389.75,-137 1383.75,-143 1377.75,-143"/>
<text text-anchor="start" x="1274.5" y="-125.7" font-family="Helvetica,sans-Serif" font-size="14.00">P12_4 ≤ 2.5</text>
<text text-anchor="start" x="1240" y="-109.95" font-family="Helvetica,sans-Serif" font-size="14.00">squared_error = 51.865</text>
<text text-anchor="start" x="1266.25" y="-94.2" font-family="Helvetica,sans-Serif" font-size="14.00">samples = 262</text>
<text text-anchor="start" x="1266.25" y="-78.45" font-family="Helvetica,sans-Serif" font-size="14.00">value = 38.925</text>
</g>
<!-- 145&#45;&gt;165 -->
<g id="edge29" class="edge">
<title>145&#45;&gt;165</title>
<path fill="none" stroke="black" d="M1193.48,-178.54C1209.28,-169.11 1226.51,-158.83 1242.78,-149.13"/>
<polygon fill="black" stroke="black" points="1244.13,-152.39 1250.93,-144.27 1240.54,-146.38 1244.13,-152.39"/>
</g>
<!-- 147 -->
<g id="node28" class="node">
<title>147</title>
<path fill="#c0c0c0" stroke="black" d="M1093.88,-36C1093.88,-36 1063.88,-36 1063.88,-36 1057.88,-36 1051.88,-30 1051.88,-24 1051.88,-24 1051.88,-12 1051.88,-12 1051.88,-6 1057.88,0 1063.88,0 1063.88,0 1093.88,0 1093.88,0 1099.88,0 1105.88,-6 1105.88,-12 1105.88,-12 1105.88,-24 1105.88,-24 1105.88,-30 1099.88,-36 1093.88,-36"/>
<text text-anchor="middle" x="1078.88" y="-12.57" font-family="Helvetica,sans-Serif" font-size="14.00">(...)</text>
</g>
<!-- 146&#45;&gt;147 -->
<g id="edge27" class="edge">
<title>146&#45;&gt;147</title>
<path fill="none" stroke="black" d="M1112.58,-71.67C1107.03,-62.99 1101.17,-53.83 1095.91,-45.62"/>
<polygon fill="black" stroke="black" points="1099.03,-43.99 1090.69,-37.46 1093.13,-47.77 1099.03,-43.99"/>
</g>
<!-- 160 -->
<g id="node29" class="node">
<title>160</title>
<path fill="#c0c0c0" stroke="black" d="M1165.88,-36C1165.88,-36 1135.88,-36 1135.88,-36 1129.88,-36 1123.88,-30 1123.88,-24 1123.88,-24 1123.88,-12 1123.88,-12 1123.88,-6 1129.88,0 1135.88,0 1135.88,0 1165.88,0 1165.88,0 1171.88,0 1177.88,-6 1177.88,-12 1177.88,-12 1177.88,-24 1177.88,-24 1177.88,-30 1171.88,-36 1165.88,-36"/>
<text text-anchor="middle" x="1150.88" y="-12.57" font-family="Helvetica,sans-Serif" font-size="14.00">(...)</text>
</g>
<!-- 146&#45;&gt;160 -->
<g id="edge28" class="edge">
<title>146&#45;&gt;160</title>
<path fill="none" stroke="black" d="M1141.24,-71.67C1142.73,-63.56 1144.29,-55.04 1145.71,-47.26"/>
<polygon fill="black" stroke="black" points="1149.1,-48.14 1147.46,-37.67 1142.22,-46.88 1149.1,-48.14"/>
</g>
<!-- 166 -->
<g id="node31" class="node">
<title>166</title>
<path fill="#c0c0c0" stroke="black" d="M1269.88,-36C1269.88,-36 1239.88,-36 1239.88,-36 1233.88,-36 1227.88,-30 1227.88,-24 1227.88,-24 1227.88,-12 1227.88,-12 1227.88,-6 1233.88,0 1239.88,0 1239.88,0 1269.88,0 1269.88,0 1275.88,0 1281.88,-6 1281.88,-12 1281.88,-12 1281.88,-24 1281.88,-24 1281.88,-30 1275.88,-36 1269.88,-36"/>
<text text-anchor="middle" x="1254.88" y="-12.57" font-family="Helvetica,sans-Serif" font-size="14.00">(...)</text>
</g>
<!-- 165&#45;&gt;166 -->
<g id="edge30" class="edge">
<title>165&#45;&gt;166</title>
<path fill="none" stroke="black" d="M1288.58,-71.67C1283.03,-62.99 1277.17,-53.83 1271.91,-45.62"/>
<polygon fill="black" stroke="black" points="1275.03,-43.99 1266.69,-37.46 1269.13,-47.77 1275.03,-43.99"/>
</g>
<!-- 173 -->
<g id="node32" class="node">
<title>173</title>
<path fill="#c0c0c0" stroke="black" d="M1341.88,-36C1341.88,-36 1311.88,-36 1311.88,-36 1305.88,-36 1299.88,-30 1299.88,-24 1299.88,-24 1299.88,-12 1299.88,-12 1299.88,-6 1305.88,0 1311.88,0 1311.88,0 1341.88,0 1341.88,0 1347.88,0 1353.88,-6 1353.88,-12 1353.88,-12 1353.88,-24 1353.88,-24 1353.88,-30 1347.88,-36 1341.88,-36"/>
<text text-anchor="middle" x="1326.88" y="-12.57" font-family="Helvetica,sans-Serif" font-size="14.00">(...)</text>
</g>
<!-- 165&#45;&gt;173 -->
<g id="edge31" class="edge">
<title>165&#45;&gt;173</title>
<path fill="none" stroke="black" d="M1317.24,-71.67C1318.73,-63.56 1320.29,-55.04 1321.71,-47.26"/>
<polygon fill="black" stroke="black" points="1325.1,-48.14 1323.46,-37.67 1318.22,-46.88 1325.1,-48.14"/>
</g>
<!-- 189 -->
<g id="node34" class="node">
<title>189</title>
<path fill="#eda876" stroke="black" d="M1820.5,-357C1820.5,-357 1679.25,-357 1679.25,-357 1673.25,-357 1667.25,-351 1667.25,-345 1667.25,-345 1667.25,-298 1667.25,-298 1667.25,-292 1673.25,-286 1679.25,-286 1679.25,-286 1820.5,-286 1820.5,-286 1826.5,-286 1832.5,-292 1832.5,-298 1832.5,-298 1832.5,-345 1832.5,-345 1832.5,-351 1826.5,-357 1820.5,-357"/>
<text text-anchor="start" x="1717.25" y="-339.7" font-family="Helvetica,sans-Serif" font-size="14.00">P4_1 ≤ 0.5</text>
<text text-anchor="start" x="1675.25" y="-323.95" font-family="Helvetica,sans-Serif" font-size="14.00">squared_error = 105.105</text>
<text text-anchor="start" x="1701.5" y="-308.2" font-family="Helvetica,sans-Serif" font-size="14.00">samples = 1508</text>
<text text-anchor="start" x="1705.25" y="-292.45" font-family="Helvetica,sans-Serif" font-size="14.00">value = 65.765</text>
</g>
<!-- 188&#45;&gt;189 -->
<g id="edge33" class="edge">
<title>188&#45;&gt;189</title>
<path fill="none" stroke="black" d="M1749.88,-392.54C1749.88,-384.92 1749.88,-376.75 1749.88,-368.77"/>
<polygon fill="black" stroke="black" points="1753.38,-368.82 1749.88,-358.82 1746.38,-368.82 1753.38,-368.82"/>
</g>
<!-- 294 -->
<g id="node49" class="node">
<title>294</title>
<path fill="#f2c09d" stroke="black" d="M2343.75,-357C2343.75,-357 2210,-357 2210,-357 2204,-357 2198,-351 2198,-345 2198,-345 2198,-298 2198,-298 2198,-292 2204,-286 2210,-286 2210,-286 2343.75,-286 2343.75,-286 2349.75,-286 2355.75,-292 2355.75,-298 2355.75,-298 2355.75,-345 2355.75,-345 2355.75,-351 2349.75,-357 2343.75,-357"/>
<text text-anchor="start" x="2236.75" y="-339.7" font-family="Helvetica,sans-Serif" font-size="14.00">P4_6_4 ≤ 1.5</text>
<text text-anchor="start" x="2206" y="-323.95" font-family="Helvetica,sans-Serif" font-size="14.00">squared_error = 104.55</text>
<text text-anchor="start" x="2228.5" y="-308.2" font-family="Helvetica,sans-Serif" font-size="14.00">samples = 1264</text>
<text text-anchor="start" x="2232.25" y="-292.45" font-family="Helvetica,sans-Serif" font-size="14.00">value = 54.898</text>
</g>
<!-- 188&#45;&gt;294 -->
<g id="edge48" class="edge">
<title>188&#45;&gt;294</title>
<path fill="none" stroke="black" d="M1832.8,-410.98C1929.09,-391.79 2087.37,-360.26 2186.67,-340.47"/>
<polygon fill="black" stroke="black" points="2187.27,-343.92 2196.39,-338.54 2185.9,-337.06 2187.27,-343.92"/>
</g>
<!-- 190 -->
<g id="node35" class="node">
<title>190</title>
<path fill="#ea995f" stroke="black" d="M1728.75,-250C1728.75,-250 1595,-250 1595,-250 1589,-250 1583,-244 1583,-238 1583,-238 1583,-191 1583,-191 1583,-185 1589,-179 1595,-179 1595,-179 1728.75,-179 1728.75,-179 1734.75,-179 1740.75,-185 1740.75,-191 1740.75,-191 1740.75,-238 1740.75,-238 1740.75,-244 1734.75,-250 1728.75,-250"/>
<text text-anchor="start" x="1621.75" y="-232.7" font-family="Helvetica,sans-Serif" font-size="14.00">P4_8_1 ≤ 2.5</text>
<text text-anchor="start" x="1591" y="-216.95" font-family="Helvetica,sans-Serif" font-size="14.00">squared_error = 82.325</text>
<text text-anchor="start" x="1617.25" y="-201.2" font-family="Helvetica,sans-Serif" font-size="14.00">samples = 497</text>
<text text-anchor="start" x="1617.25" y="-185.45" font-family="Helvetica,sans-Serif" font-size="14.00">value = 72.064</text>
</g>
<!-- 189&#45;&gt;190 -->
<g id="edge34" class="edge">
<title>189&#45;&gt;190</title>
<path fill="none" stroke="black" d="M1720.57,-285.54C1713.45,-277.04 1705.74,-267.84 1698.33,-259"/>
<polygon fill="black" stroke="black" points="1701.13,-256.89 1692.02,-251.47 1695.76,-261.38 1701.13,-256.89"/>
</g>
<!-- 241 -->
<g id="node42" class="node">
<title>241</title>
<path fill="#eeaf81" stroke="black" d="M1904.75,-250C1904.75,-250 1771,-250 1771,-250 1765,-250 1759,-244 1759,-238 1759,-238 1759,-191 1759,-191 1759,-185 1765,-179 1771,-179 1771,-179 1904.75,-179 1904.75,-179 1910.75,-179 1916.75,-185 1916.75,-191 1916.75,-191 1916.75,-238 1916.75,-238 1916.75,-244 1910.75,-250 1904.75,-250"/>
<text text-anchor="start" x="1797.75" y="-232.7" font-family="Helvetica,sans-Serif" font-size="14.00">P4_8_1 ≤ 2.5</text>
<text text-anchor="start" x="1767" y="-216.95" font-family="Helvetica,sans-Serif" font-size="14.00">squared_error = 87.205</text>
<text text-anchor="start" x="1789.88" y="-201.2" font-family="Helvetica,sans-Serif" font-size="14.00">samples = 1011</text>
<text text-anchor="start" x="1793.25" y="-185.45" font-family="Helvetica,sans-Serif" font-size="14.00">value = 62.668</text>
</g>
<!-- 189&#45;&gt;241 -->
<g id="edge41" class="edge">
<title>189&#45;&gt;241</title>
<path fill="none" stroke="black" d="M1779.18,-285.54C1786.3,-277.04 1794.01,-267.84 1801.42,-259"/>
<polygon fill="black" stroke="black" points="1803.99,-261.38 1807.73,-251.47 1798.62,-256.89 1803.99,-261.38"/>
</g>
<!-- 191 -->
<g id="node36" class="node">
<title>191</title>
<path fill="#eca36e" stroke="black" d="M1553.75,-143C1553.75,-143 1420,-143 1420,-143 1414,-143 1408,-137 1408,-131 1408,-131 1408,-84 1408,-84 1408,-78 1414,-72 1420,-72 1420,-72 1553.75,-72 1553.75,-72 1559.75,-72 1565.75,-78 1565.75,-84 1565.75,-84 1565.75,-131 1565.75,-131 1565.75,-137 1559.75,-143 1553.75,-143"/>
<text text-anchor="start" x="1446.75" y="-125.7" font-family="Helvetica,sans-Serif" font-size="14.00">P4_6_1 ≤ 1.5</text>
<text text-anchor="start" x="1416" y="-109.95" font-family="Helvetica,sans-Serif" font-size="14.00">squared_error = 75.324</text>
<text text-anchor="start" x="1442.25" y="-94.2" font-family="Helvetica,sans-Serif" font-size="14.00">samples = 248</text>
<text text-anchor="start" x="1442.25" y="-78.45" font-family="Helvetica,sans-Serif" font-size="14.00">value = 67.972</text>
</g>
<!-- 190&#45;&gt;191 -->
<g id="edge35" class="edge">
<title>190&#45;&gt;191</title>
<path fill="none" stroke="black" d="M1603.6,-178.54C1588.04,-169.2 1571.08,-159.03 1555.04,-149.4"/>
<polygon fill="black" stroke="black" points="1556.86,-146.41 1546.49,-144.27 1553.26,-152.41 1556.86,-146.41"/>
</g>
<!-- 214 -->
<g id="node39" class="node">
<title>214</title>
<path fill="#e89051" stroke="black" d="M1729.75,-143C1729.75,-143 1596,-143 1596,-143 1590,-143 1584,-137 1584,-131 1584,-131 1584,-84 1584,-84 1584,-78 1590,-72 1596,-72 1596,-72 1729.75,-72 1729.75,-72 1735.75,-72 1741.75,-78 1741.75,-84 1741.75,-84 1741.75,-131 1741.75,-131 1741.75,-137 1735.75,-143 1729.75,-143"/>
<text text-anchor="start" x="1622.75" y="-125.7" font-family="Helvetica,sans-Serif" font-size="14.00">P4_7_3 ≤ 1.5</text>
<text text-anchor="start" x="1592" y="-109.95" font-family="Helvetica,sans-Serif" font-size="14.00">squared_error = 56.014</text>
<text text-anchor="start" x="1618.25" y="-94.2" font-family="Helvetica,sans-Serif" font-size="14.00">samples = 249</text>
<text text-anchor="start" x="1618.25" y="-78.45" font-family="Helvetica,sans-Serif" font-size="14.00">value = 76.139</text>
</g>
<!-- 190&#45;&gt;214 -->
<g id="edge38" class="edge">
<title>190&#45;&gt;214</title>
<path fill="none" stroke="black" d="M1662.21,-178.54C1662.28,-170.92 1662.36,-162.75 1662.43,-154.77"/>
<polygon fill="black" stroke="black" points="1665.93,-154.86 1662.53,-144.82 1658.93,-154.79 1665.93,-154.86"/>
</g>
<!-- 192 -->
<g id="node37" class="node">
<title>192</title>
<path fill="#c0c0c0" stroke="black" d="M1445.88,-36C1445.88,-36 1415.88,-36 1415.88,-36 1409.88,-36 1403.88,-30 1403.88,-24 1403.88,-24 1403.88,-12 1403.88,-12 1403.88,-6 1409.88,0 1415.88,0 1415.88,0 1445.88,0 1445.88,0 1451.88,0 1457.88,-6 1457.88,-12 1457.88,-12 1457.88,-24 1457.88,-24 1457.88,-30 1451.88,-36 1445.88,-36"/>
<text text-anchor="middle" x="1430.88" y="-12.57" font-family="Helvetica,sans-Serif" font-size="14.00">(...)</text>
</g>
<!-- 191&#45;&gt;192 -->
<g id="edge36" class="edge">
<title>191&#45;&gt;192</title>
<path fill="none" stroke="black" d="M1464.58,-71.67C1459.03,-62.99 1453.17,-53.83 1447.91,-45.62"/>
<polygon fill="black" stroke="black" points="1451.03,-43.99 1442.69,-37.46 1445.13,-47.77 1451.03,-43.99"/>
</g>
<!-- 207 -->
<g id="node38" class="node">
<title>207</title>
<path fill="#c0c0c0" stroke="black" d="M1517.88,-36C1517.88,-36 1487.88,-36 1487.88,-36 1481.88,-36 1475.88,-30 1475.88,-24 1475.88,-24 1475.88,-12 1475.88,-12 1475.88,-6 1481.88,0 1487.88,0 1487.88,0 1517.88,0 1517.88,0 1523.88,0 1529.88,-6 1529.88,-12 1529.88,-12 1529.88,-24 1529.88,-24 1529.88,-30 1523.88,-36 1517.88,-36"/>
<text text-anchor="middle" x="1502.88" y="-12.57" font-family="Helvetica,sans-Serif" font-size="14.00">(...)</text>
</g>
<!-- 191&#45;&gt;207 -->
<g id="edge37" class="edge">
<title>191&#45;&gt;207</title>
<path fill="none" stroke="black" d="M1493.24,-71.67C1494.73,-63.56 1496.29,-55.04 1497.71,-47.26"/>
<polygon fill="black" stroke="black" points="1501.1,-48.14 1499.46,-37.67 1494.22,-46.88 1501.1,-48.14"/>
</g>
<!-- 215 -->
<g id="node40" class="node">
<title>215</title>
<path fill="#c0c0c0" stroke="black" d="M1620.88,-36C1620.88,-36 1590.88,-36 1590.88,-36 1584.88,-36 1578.88,-30 1578.88,-24 1578.88,-24 1578.88,-12 1578.88,-12 1578.88,-6 1584.88,0 1590.88,0 1590.88,0 1620.88,0 1620.88,0 1626.88,0 1632.88,-6 1632.88,-12 1632.88,-12 1632.88,-24 1632.88,-24 1632.88,-30 1626.88,-36 1620.88,-36"/>
<text text-anchor="middle" x="1605.88" y="-12.57" font-family="Helvetica,sans-Serif" font-size="14.00">(...)</text>
</g>
<!-- 214&#45;&gt;215 -->
<g id="edge39" class="edge">
<title>214&#45;&gt;215</title>
<path fill="none" stroke="black" d="M1640.18,-71.67C1634.53,-62.99 1628.56,-53.83 1623.22,-45.62"/>
<polygon fill="black" stroke="black" points="1626.29,-43.92 1617.89,-37.45 1620.42,-47.74 1626.29,-43.92"/>
</g>
<!-- 230 -->
<g id="node41" class="node">
<title>230</title>
<path fill="#c0c0c0" stroke="black" d="M1692.88,-36C1692.88,-36 1662.88,-36 1662.88,-36 1656.88,-36 1650.88,-30 1650.88,-24 1650.88,-24 1650.88,-12 1650.88,-12 1650.88,-6 1656.88,0 1662.88,0 1662.88,0 1692.88,0 1692.88,0 1698.88,0 1704.88,-6 1704.88,-12 1704.88,-12 1704.88,-24 1704.88,-24 1704.88,-30 1698.88,-36 1692.88,-36"/>
<text text-anchor="middle" x="1677.88" y="-12.57" font-family="Helvetica,sans-Serif" font-size="14.00">(...)</text>
</g>
<!-- 214&#45;&gt;230 -->
<g id="edge40" class="edge">
<title>214&#45;&gt;230</title>
<path fill="none" stroke="black" d="M1668.85,-71.67C1670.24,-63.56 1671.7,-55.04 1673.03,-47.26"/>
<polygon fill="black" stroke="black" points="1676.43,-48.12 1674.67,-37.67 1669.53,-46.94 1676.43,-48.12"/>
</g>
<!-- 242 -->
<g id="node43" class="node">
<title>242</title>
<path fill="#f0b68c" stroke="black" d="M1904.38,-143C1904.38,-143 1771.38,-143 1771.38,-143 1765.38,-143 1759.38,-137 1759.38,-131 1759.38,-131 1759.38,-84 1759.38,-84 1759.38,-78 1765.38,-72 1771.38,-72 1771.38,-72 1904.38,-72 1904.38,-72 1910.38,-72 1916.38,-78 1916.38,-84 1916.38,-84 1916.38,-131 1916.38,-131 1916.38,-137 1910.38,-143 1904.38,-143"/>
<text text-anchor="start" x="1790.25" y="-125.7" font-family="Helvetica,sans-Serif" font-size="14.00">P7_9_2_2 ≤ 0.5</text>
<text text-anchor="start" x="1767.38" y="-109.95" font-family="Helvetica,sans-Serif" font-size="14.00">squared_error = 76.115</text>
<text text-anchor="start" x="1793.25" y="-94.2" font-family="Helvetica,sans-Serif" font-size="14.00">samples = 576</text>
<text text-anchor="start" x="1793.25" y="-78.45" font-family="Helvetica,sans-Serif" font-size="14.00">value = 59.593</text>
</g>
<!-- 241&#45;&gt;242 -->
<g id="edge42" class="edge">
<title>241&#45;&gt;242</title>
<path fill="none" stroke="black" d="M1837.88,-178.54C1837.88,-170.92 1837.88,-162.75 1837.88,-154.77"/>
<polygon fill="black" stroke="black" points="1841.38,-154.82 1837.88,-144.82 1834.38,-154.82 1841.38,-154.82"/>
</g>
<!-- 267 -->
<g id="node46" class="node">
<title>267</title>
<path fill="#eda572" stroke="black" d="M2079.75,-143C2079.75,-143 1946,-143 1946,-143 1940,-143 1934,-137 1934,-131 1934,-131 1934,-84 1934,-84 1934,-78 1940,-72 1946,-72 1946,-72 2079.75,-72 2079.75,-72 2085.75,-72 2091.75,-78 2091.75,-84 2091.75,-84 2091.75,-131 2091.75,-131 2091.75,-137 2085.75,-143 2079.75,-143"/>
<text text-anchor="start" x="1972.75" y="-125.7" font-family="Helvetica,sans-Serif" font-size="14.00">P4_7_3 ≤ 1.5</text>
<text text-anchor="start" x="1942" y="-109.95" font-family="Helvetica,sans-Serif" font-size="14.00">squared_error = 72.789</text>
<text text-anchor="start" x="1968.25" y="-94.2" font-family="Helvetica,sans-Serif" font-size="14.00">samples = 435</text>
<text text-anchor="start" x="1972" y="-78.45" font-family="Helvetica,sans-Serif" font-size="14.00">value = 66.74</text>
</g>
<!-- 241&#45;&gt;267 -->
<g id="edge45" class="edge">
<title>241&#45;&gt;267</title>
<path fill="none" stroke="black" d="M1896.15,-178.54C1911.71,-169.2 1928.67,-159.03 1944.71,-149.4"/>
<polygon fill="black" stroke="black" points="1946.49,-152.41 1953.26,-144.27 1942.89,-146.41 1946.49,-152.41"/>
</g>
<!-- 243 -->
<g id="node44" class="node">
<title>243</title>
<path fill="#c0c0c0" stroke="black" d="M1795.88,-36C1795.88,-36 1765.88,-36 1765.88,-36 1759.88,-36 1753.88,-30 1753.88,-24 1753.88,-24 1753.88,-12 1753.88,-12 1753.88,-6 1759.88,0 1765.88,0 1765.88,0 1795.88,0 1795.88,0 1801.88,0 1807.88,-6 1807.88,-12 1807.88,-12 1807.88,-24 1807.88,-24 1807.88,-30 1801.88,-36 1795.88,-36"/>
<text text-anchor="middle" x="1780.88" y="-12.57" font-family="Helvetica,sans-Serif" font-size="14.00">(...)</text>
</g>
<!-- 242&#45;&gt;243 -->
<g id="edge43" class="edge">
<title>242&#45;&gt;243</title>
<path fill="none" stroke="black" d="M1815.18,-71.67C1809.53,-62.99 1803.56,-53.83 1798.22,-45.62"/>
<polygon fill="black" stroke="black" points="1801.29,-43.92 1792.89,-37.45 1795.42,-47.74 1801.29,-43.92"/>
</g>
<!-- 252 -->
<g id="node45" class="node">
<title>252</title>
<path fill="#c0c0c0" stroke="black" d="M1867.88,-36C1867.88,-36 1837.88,-36 1837.88,-36 1831.88,-36 1825.88,-30 1825.88,-24 1825.88,-24 1825.88,-12 1825.88,-12 1825.88,-6 1831.88,0 1837.88,0 1837.88,0 1867.88,0 1867.88,0 1873.88,0 1879.88,-6 1879.88,-12 1879.88,-12 1879.88,-24 1879.88,-24 1879.88,-30 1873.88,-36 1867.88,-36"/>
<text text-anchor="middle" x="1852.88" y="-12.57" font-family="Helvetica,sans-Serif" font-size="14.00">(...)</text>
</g>
<!-- 242&#45;&gt;252 -->
<g id="edge44" class="edge">
<title>242&#45;&gt;252</title>
<path fill="none" stroke="black" d="M1843.85,-71.67C1845.24,-63.56 1846.7,-55.04 1848.03,-47.26"/>
<polygon fill="black" stroke="black" points="1851.43,-48.12 1849.67,-37.67 1844.53,-46.94 1851.43,-48.12"/>
</g>
<!-- 268 -->
<g id="node47" class="node">
<title>268</title>
<path fill="#c0c0c0" stroke="black" d="M1971.88,-36C1971.88,-36 1941.88,-36 1941.88,-36 1935.88,-36 1929.88,-30 1929.88,-24 1929.88,-24 1929.88,-12 1929.88,-12 1929.88,-6 1935.88,0 1941.88,0 1941.88,0 1971.88,0 1971.88,0 1977.88,0 1983.88,-6 1983.88,-12 1983.88,-12 1983.88,-24 1983.88,-24 1983.88,-30 1977.88,-36 1971.88,-36"/>
<text text-anchor="middle" x="1956.88" y="-12.57" font-family="Helvetica,sans-Serif" font-size="14.00">(...)</text>
</g>
<!-- 267&#45;&gt;268 -->
<g id="edge46" class="edge">
<title>267&#45;&gt;268</title>
<path fill="none" stroke="black" d="M1990.58,-71.67C1985.03,-62.99 1979.17,-53.83 1973.91,-45.62"/>
<polygon fill="black" stroke="black" points="1977.03,-43.99 1968.69,-37.46 1971.13,-47.77 1977.03,-43.99"/>
</g>
<!-- 283 -->
<g id="node48" class="node">
<title>283</title>
<path fill="#c0c0c0" stroke="black" d="M2043.88,-36C2043.88,-36 2013.88,-36 2013.88,-36 2007.88,-36 2001.88,-30 2001.88,-24 2001.88,-24 2001.88,-12 2001.88,-12 2001.88,-6 2007.88,0 2013.88,0 2013.88,0 2043.88,0 2043.88,0 2049.88,0 2055.88,-6 2055.88,-12 2055.88,-12 2055.88,-24 2055.88,-24 2055.88,-30 2049.88,-36 2043.88,-36"/>
<text text-anchor="middle" x="2028.88" y="-12.57" font-family="Helvetica,sans-Serif" font-size="14.00">(...)</text>
</g>
<!-- 267&#45;&gt;283 -->
<g id="edge47" class="edge">
<title>267&#45;&gt;283</title>
<path fill="none" stroke="black" d="M2019.24,-71.67C2020.73,-63.56 2022.29,-55.04 2023.71,-47.26"/>
<polygon fill="black" stroke="black" points="2027.1,-48.14 2025.46,-37.67 2020.22,-46.88 2027.1,-48.14"/>
</g>
<!-- 295 -->
<g id="node50" class="node">
<title>295</title>
<path fill="#efb489" stroke="black" d="M2343.75,-250C2343.75,-250 2210,-250 2210,-250 2204,-250 2198,-244 2198,-238 2198,-238 2198,-191 2198,-191 2198,-185 2204,-179 2210,-179 2210,-179 2343.75,-179 2343.75,-179 2349.75,-179 2355.75,-185 2355.75,-191 2355.75,-191 2355.75,-238 2355.75,-238 2355.75,-244 2349.75,-250 2343.75,-250"/>
<text text-anchor="start" x="2233.38" y="-232.7" font-family="Helvetica,sans-Serif" font-size="14.00">P11_3_9 ≤ 0.5</text>
<text text-anchor="start" x="2206" y="-216.95" font-family="Helvetica,sans-Serif" font-size="14.00">squared_error = 92.723</text>
<text text-anchor="start" x="2232.25" y="-201.2" font-family="Helvetica,sans-Serif" font-size="14.00">samples = 440</text>
<text text-anchor="start" x="2232.25" y="-185.45" font-family="Helvetica,sans-Serif" font-size="14.00">value = 60.455</text>
</g>
<!-- 294&#45;&gt;295 -->
<g id="edge49" class="edge">
<title>294&#45;&gt;295</title>
<path fill="none" stroke="black" d="M2276.88,-285.54C2276.88,-277.92 2276.88,-269.75 2276.88,-261.77"/>
<polygon fill="black" stroke="black" points="2280.38,-261.82 2276.88,-251.82 2273.38,-261.82 2280.38,-261.82"/>
</g>
<!-- 340 -->
<g id="node57" class="node">
<title>340</title>
<path fill="#f3c7a7" stroke="black" d="M2607.75,-250C2607.75,-250 2474,-250 2474,-250 2468,-250 2462,-244 2462,-238 2462,-238 2462,-191 2462,-191 2462,-185 2468,-179 2474,-179 2474,-179 2607.75,-179 2607.75,-179 2613.75,-179 2619.75,-185 2619.75,-191 2619.75,-191 2619.75,-238 2619.75,-238 2619.75,-244 2613.75,-250 2607.75,-250"/>
<text text-anchor="start" x="2500.75" y="-232.7" font-family="Helvetica,sans-Serif" font-size="14.00">P4_8_1 ≤ 2.5</text>
<text text-anchor="start" x="2470" y="-216.95" font-family="Helvetica,sans-Serif" font-size="14.00">squared_error = 85.571</text>
<text text-anchor="start" x="2496.25" y="-201.2" font-family="Helvetica,sans-Serif" font-size="14.00">samples = 824</text>
<text text-anchor="start" x="2500" y="-185.45" font-family="Helvetica,sans-Serif" font-size="14.00">value = 51.93</text>
</g>
<!-- 294&#45;&gt;340 -->
<g id="edge56" class="edge">
<title>294&#45;&gt;340</title>
<path fill="none" stroke="black" d="M2356.08,-289C2386.1,-277.06 2420.49,-263.38 2451.39,-251.09"/>
<polygon fill="black" stroke="black" points="2452.32,-254.49 2460.32,-247.54 2449.73,-247.98 2452.32,-254.49"/>
</g>
<!-- 296 -->
<g id="node51" class="node">
<title>296</title>
<path fill="#eeaa7a" stroke="black" d="M2255.75,-143C2255.75,-143 2122,-143 2122,-143 2116,-143 2110,-137 2110,-131 2110,-131 2110,-84 2110,-84 2110,-78 2116,-72 2122,-72 2122,-72 2255.75,-72 2255.75,-72 2261.75,-72 2267.75,-78 2267.75,-84 2267.75,-84 2267.75,-131 2267.75,-131 2267.75,-137 2261.75,-143 2255.75,-143"/>
<text text-anchor="start" x="2148.75" y="-125.7" font-family="Helvetica,sans-Serif" font-size="14.00">P4_8_1 ≤ 2.5</text>
<text text-anchor="start" x="2118" y="-109.95" font-family="Helvetica,sans-Serif" font-size="14.00">squared_error = 71.052</text>
<text text-anchor="start" x="2144.25" y="-94.2" font-family="Helvetica,sans-Serif" font-size="14.00">samples = 223</text>
<text text-anchor="start" x="2144.25" y="-78.45" font-family="Helvetica,sans-Serif" font-size="14.00">value = 64.567</text>
</g>
<!-- 295&#45;&gt;296 -->
<g id="edge50" class="edge">
<title>295&#45;&gt;296</title>
<path fill="none" stroke="black" d="M2247.57,-178.54C2240.45,-170.04 2232.74,-160.84 2225.33,-152"/>
<polygon fill="black" stroke="black" points="2228.13,-149.89 2219.02,-144.47 2222.76,-154.38 2228.13,-149.89"/>
</g>
<!-- 315 -->
<g id="node54" class="node">
<title>315</title>
<path fill="#f1bd98" stroke="black" d="M2431.75,-143C2431.75,-143 2298,-143 2298,-143 2292,-143 2286,-137 2286,-131 2286,-131 2286,-84 2286,-84 2286,-78 2292,-72 2298,-72 2298,-72 2431.75,-72 2431.75,-72 2437.75,-72 2443.75,-78 2443.75,-84 2443.75,-84 2443.75,-131 2443.75,-131 2443.75,-137 2437.75,-143 2431.75,-143"/>
<text text-anchor="start" x="2324.75" y="-125.7" font-family="Helvetica,sans-Serif" font-size="14.00">P4_8_1 ≤ 2.5</text>
<text text-anchor="start" x="2294" y="-109.95" font-family="Helvetica,sans-Serif" font-size="14.00">squared_error = 79.754</text>
<text text-anchor="start" x="2320.25" y="-94.2" font-family="Helvetica,sans-Serif" font-size="14.00">samples = 217</text>
<text text-anchor="start" x="2320.25" y="-78.45" font-family="Helvetica,sans-Serif" font-size="14.00">value = 56.229</text>
</g>
<!-- 295&#45;&gt;315 -->
<g id="edge53" class="edge">
<title>295&#45;&gt;315</title>
<path fill="none" stroke="black" d="M2306.18,-178.54C2313.3,-170.04 2321.01,-160.84 2328.42,-152"/>
<polygon fill="black" stroke="black" points="2330.99,-154.38 2334.73,-144.47 2325.62,-149.89 2330.99,-154.38"/>
</g>
<!-- 297 -->
<g id="node52" class="node">
<title>297</title>
<path fill="#c0c0c0" stroke="black" d="M2147.88,-36C2147.88,-36 2117.88,-36 2117.88,-36 2111.88,-36 2105.88,-30 2105.88,-24 2105.88,-24 2105.88,-12 2105.88,-12 2105.88,-6 2111.88,0 2117.88,0 2117.88,0 2147.88,0 2147.88,0 2153.88,0 2159.88,-6 2159.88,-12 2159.88,-12 2159.88,-24 2159.88,-24 2159.88,-30 2153.88,-36 2147.88,-36"/>
<text text-anchor="middle" x="2132.88" y="-12.57" font-family="Helvetica,sans-Serif" font-size="14.00">(...)</text>
</g>
<!-- 296&#45;&gt;297 -->
<g id="edge51" class="edge">
<title>296&#45;&gt;297</title>
<path fill="none" stroke="black" d="M2166.58,-71.67C2161.03,-62.99 2155.17,-53.83 2149.91,-45.62"/>
<polygon fill="black" stroke="black" points="2153.03,-43.99 2144.69,-37.46 2147.13,-47.77 2153.03,-43.99"/>
</g>
<!-- 306 -->
<g id="node53" class="node">
<title>306</title>
<path fill="#c0c0c0" stroke="black" d="M2219.88,-36C2219.88,-36 2189.88,-36 2189.88,-36 2183.88,-36 2177.88,-30 2177.88,-24 2177.88,-24 2177.88,-12 2177.88,-12 2177.88,-6 2183.88,0 2189.88,0 2189.88,0 2219.88,0 2219.88,0 2225.88,0 2231.88,-6 2231.88,-12 2231.88,-12 2231.88,-24 2231.88,-24 2231.88,-30 2225.88,-36 2219.88,-36"/>
<text text-anchor="middle" x="2204.88" y="-12.57" font-family="Helvetica,sans-Serif" font-size="14.00">(...)</text>
</g>
<!-- 296&#45;&gt;306 -->
<g id="edge52" class="edge">
<title>296&#45;&gt;306</title>
<path fill="none" stroke="black" d="M2195.24,-71.67C2196.73,-63.56 2198.29,-55.04 2199.71,-47.26"/>
<polygon fill="black" stroke="black" points="2203.1,-48.14 2201.46,-37.67 2196.22,-46.88 2203.1,-48.14"/>
</g>
<!-- 316 -->
<g id="node55" class="node">
<title>316</title>
<path fill="#c0c0c0" stroke="black" d="M2323.88,-36C2323.88,-36 2293.88,-36 2293.88,-36 2287.88,-36 2281.88,-30 2281.88,-24 2281.88,-24 2281.88,-12 2281.88,-12 2281.88,-6 2287.88,0 2293.88,0 2293.88,0 2323.88,0 2323.88,0 2329.88,0 2335.88,-6 2335.88,-12 2335.88,-12 2335.88,-24 2335.88,-24 2335.88,-30 2329.88,-36 2323.88,-36"/>
<text text-anchor="middle" x="2308.88" y="-12.57" font-family="Helvetica,sans-Serif" font-size="14.00">(...)</text>
</g>
<!-- 315&#45;&gt;316 -->
<g id="edge54" class="edge">
<title>315&#45;&gt;316</title>
<path fill="none" stroke="black" d="M2342.58,-71.67C2337.03,-62.99 2331.17,-53.83 2325.91,-45.62"/>
<polygon fill="black" stroke="black" points="2329.03,-43.99 2320.69,-37.46 2323.13,-47.77 2329.03,-43.99"/>
</g>
<!-- 329 -->
<g id="node56" class="node">
<title>329</title>
<path fill="#c0c0c0" stroke="black" d="M2395.88,-36C2395.88,-36 2365.88,-36 2365.88,-36 2359.88,-36 2353.88,-30 2353.88,-24 2353.88,-24 2353.88,-12 2353.88,-12 2353.88,-6 2359.88,0 2365.88,0 2365.88,0 2395.88,0 2395.88,0 2401.88,0 2407.88,-6 2407.88,-12 2407.88,-12 2407.88,-24 2407.88,-24 2407.88,-30 2401.88,-36 2395.88,-36"/>
<text text-anchor="middle" x="2380.88" y="-12.57" font-family="Helvetica,sans-Serif" font-size="14.00">(...)</text>
</g>
<!-- 315&#45;&gt;329 -->
<g id="edge55" class="edge">
<title>315&#45;&gt;329</title>
<path fill="none" stroke="black" d="M2371.24,-71.67C2372.73,-63.56 2374.29,-55.04 2375.71,-47.26"/>
<polygon fill="black" stroke="black" points="2379.1,-48.14 2377.46,-37.67 2372.22,-46.88 2379.1,-48.14"/>
</g>
<!-- 341 -->
<g id="node58" class="node">
<title>341</title>
<path fill="#f5cdb1" stroke="black" d="M2607.75,-143C2607.75,-143 2474,-143 2474,-143 2468,-143 2462,-137 2462,-131 2462,-131 2462,-84 2462,-84 2462,-78 2468,-72 2474,-72 2474,-72 2607.75,-72 2607.75,-72 2613.75,-72 2619.75,-78 2619.75,-84 2619.75,-84 2619.75,-131 2619.75,-131 2619.75,-137 2613.75,-143 2607.75,-143"/>
<text text-anchor="start" x="2500.75" y="-125.7" font-family="Helvetica,sans-Serif" font-size="14.00">P4_7_2 ≤ 1.5</text>
<text text-anchor="start" x="2470" y="-109.95" font-family="Helvetica,sans-Serif" font-size="14.00">squared_error = 74.278</text>
<text text-anchor="start" x="2496.25" y="-94.2" font-family="Helvetica,sans-Serif" font-size="14.00">samples = 494</text>
<text text-anchor="start" x="2496.25" y="-78.45" font-family="Helvetica,sans-Serif" font-size="14.00">value = 49.251</text>
</g>
<!-- 340&#45;&gt;341 -->
<g id="edge57" class="edge">
<title>340&#45;&gt;341</title>
<path fill="none" stroke="black" d="M2540.88,-178.54C2540.88,-170.92 2540.88,-162.75 2540.88,-154.77"/>
<polygon fill="black" stroke="black" points="2544.38,-154.82 2540.88,-144.82 2537.38,-154.82 2544.38,-154.82"/>
</g>
<!-- 368 -->
<g id="node61" class="node">
<title>368</title>
<path fill="#f2be99" stroke="black" d="M2783.75,-143C2783.75,-143 2650,-143 2650,-143 2644,-143 2638,-137 2638,-131 2638,-131 2638,-84 2638,-84 2638,-78 2644,-72 2650,-72 2650,-72 2783.75,-72 2783.75,-72 2789.75,-72 2795.75,-78 2795.75,-84 2795.75,-84 2795.75,-131 2795.75,-131 2795.75,-137 2789.75,-143 2783.75,-143"/>
<text text-anchor="start" x="2676.75" y="-125.7" font-family="Helvetica,sans-Serif" font-size="14.00">P4_7_3 ≤ 1.5</text>
<text text-anchor="start" x="2646" y="-109.95" font-family="Helvetica,sans-Serif" font-size="14.00">squared_error = 75.651</text>
<text text-anchor="start" x="2672.25" y="-94.2" font-family="Helvetica,sans-Serif" font-size="14.00">samples = 330</text>
<text text-anchor="start" x="2676" y="-78.45" font-family="Helvetica,sans-Serif" font-size="14.00">value = 55.94</text>
</g>
<!-- 340&#45;&gt;368 -->
<g id="edge60" class="edge">
<title>340&#45;&gt;368</title>
<path fill="none" stroke="black" d="M2599.48,-178.54C2615.28,-169.11 2632.51,-158.83 2648.78,-149.13"/>
<polygon fill="black" stroke="black" points="2650.13,-152.39 2656.93,-144.27 2646.54,-146.38 2650.13,-152.39"/>
</g>
<!-- 342 -->
<g id="node59" class="node">
<title>342</title>
<path fill="#c0c0c0" stroke="black" d="M2517.88,-36C2517.88,-36 2487.88,-36 2487.88,-36 2481.88,-36 2475.88,-30 2475.88,-24 2475.88,-24 2475.88,-12 2475.88,-12 2475.88,-6 2481.88,0 2487.88,0 2487.88,0 2517.88,0 2517.88,0 2523.88,0 2529.88,-6 2529.88,-12 2529.88,-12 2529.88,-24 2529.88,-24 2529.88,-30 2523.88,-36 2517.88,-36"/>
<text text-anchor="middle" x="2502.88" y="-12.57" font-family="Helvetica,sans-Serif" font-size="14.00">(...)</text>
</g>
<!-- 341&#45;&gt;342 -->
<g id="edge58" class="edge">
<title>341&#45;&gt;342</title>
<path fill="none" stroke="black" d="M2525.75,-71.67C2522.15,-63.37 2518.35,-54.63 2514.91,-46.71"/>
<polygon fill="black" stroke="black" points="2518.13,-45.35 2510.94,-37.57 2511.71,-48.14 2518.13,-45.35"/>
</g>
<!-- 357 -->
<g id="node60" class="node">
<title>357</title>
<path fill="#c0c0c0" stroke="black" d="M2589.88,-36C2589.88,-36 2559.88,-36 2559.88,-36 2553.88,-36 2547.88,-30 2547.88,-24 2547.88,-24 2547.88,-12 2547.88,-12 2547.88,-6 2553.88,0 2559.88,0 2559.88,0 2589.88,0 2589.88,0 2595.88,0 2601.88,-6 2601.88,-12 2601.88,-12 2601.88,-24 2601.88,-24 2601.88,-30 2595.88,-36 2589.88,-36"/>
<text text-anchor="middle" x="2574.88" y="-12.57" font-family="Helvetica,sans-Serif" font-size="14.00">(...)</text>
</g>
<!-- 341&#45;&gt;357 -->
<g id="edge59" class="edge">
<title>341&#45;&gt;357</title>
<path fill="none" stroke="black" d="M2554.41,-71.67C2557.63,-63.37 2561.03,-54.63 2564.11,-46.71"/>
<polygon fill="black" stroke="black" points="2567.29,-48.18 2567.65,-37.59 2560.77,-45.65 2567.29,-48.18"/>
</g>
<!-- 369 -->
<g id="node62" class="node">
<title>369</title>
<path fill="#c0c0c0" stroke="black" d="M2695.88,-36C2695.88,-36 2665.88,-36 2665.88,-36 2659.88,-36 2653.88,-30 2653.88,-24 2653.88,-24 2653.88,-12 2653.88,-12 2653.88,-6 2659.88,0 2665.88,0 2665.88,0 2695.88,0 2695.88,0 2701.88,0 2707.88,-6 2707.88,-12 2707.88,-12 2707.88,-24 2707.88,-24 2707.88,-30 2701.88,-36 2695.88,-36"/>
<text text-anchor="middle" x="2680.88" y="-12.57" font-family="Helvetica,sans-Serif" font-size="14.00">(...)</text>
</g>
<!-- 368&#45;&gt;369 -->
<g id="edge61" class="edge">
<title>368&#45;&gt;369</title>
<path fill="none" stroke="black" d="M2702.54,-71.67C2699.13,-63.37 2695.54,-54.63 2692.28,-46.71"/>
<polygon fill="black" stroke="black" points="2695.56,-45.5 2688.52,-37.58 2689.09,-48.16 2695.56,-45.5"/>
</g>
<!-- 382 -->
<g id="node63" class="node">
<title>382</title>
<path fill="#c0c0c0" stroke="black" d="M2767.88,-36C2767.88,-36 2737.88,-36 2737.88,-36 2731.88,-36 2725.88,-30 2725.88,-24 2725.88,-24 2725.88,-12 2725.88,-12 2725.88,-6 2731.88,0 2737.88,0 2737.88,0 2767.88,0 2767.88,0 2773.88,0 2779.88,-6 2779.88,-12 2779.88,-12 2779.88,-24 2779.88,-24 2779.88,-30 2773.88,-36 2767.88,-36"/>
<text text-anchor="middle" x="2752.88" y="-12.57" font-family="Helvetica,sans-Serif" font-size="14.00">(...)</text>
</g>
<!-- 368&#45;&gt;382 -->
<g id="edge62" class="edge">
<title>368&#45;&gt;382</title>
<path fill="none" stroke="black" d="M2731.21,-71.67C2734.62,-63.37 2738.21,-54.63 2741.47,-46.71"/>
<polygon fill="black" stroke="black" points="2744.66,-48.16 2745.23,-37.58 2738.19,-45.5 2744.66,-48.16"/>
</g>
</g>
</svg>
