<?xml version="1.0" encoding="UTF-8" standalone="no"?>
<!DOCTYPE svg PUBLIC "-//W3C//DTD SVG 1.1//EN"
 "http://www.w3.org/Graphics/SVG/1.1/DTD/svg11.dtd">
<!-- Generated by graphviz version 12.2.1 (20241206.2353)
 -->
<!-- Title: Tree Pages: 1 -->
<svg width="2798pt" height="579pt"
 viewBox="0.00 0.00 2797.75 579.00" xmlns="http://www.w3.org/2000/svg" xmlns:xlink="http://www.w3.org/1999/xlink">
<g id="graph0" class="graph" transform="scale(1 1) rotate(0) translate(4 575)">
<title>Tree</title>
<polygon fill="white" stroke="none" points="-4,4 -4,-575 2793.75,-575 2793.75,4 -4,4"/>
<!-- 0 -->
<g id="node1" class="node">
<title>0</title>
<path fill="#efb387" stroke="black" d="M1467.75,-571C1467.75,-571 1334,-571 1334,-571 1328,-571 1322,-565 1322,-559 1322,-559 1322,-512 1322,-512 1322,-506 1328,-500 1334,-500 1334,-500 1467.75,-500 1467.75,-500 1473.75,-500 1479.75,-506 1479.75,-512 1479.75,-512 1479.75,-559 1479.75,-559 1479.75,-565 1473.75,-571 1467.75,-571"/>
<text text-anchor="start" x="1368.25" y="-553.7" font-family="Helvetica,sans-Serif" font-size="14.00">P4_1 ≤ 0.5</text>
<text text-anchor="start" x="1330" y="-537.95" font-family="Helvetica,sans-Serif" font-size="14.00">squared_error = 168.75</text>
<text text-anchor="start" x="1352.5" y="-522.2" font-family="Helvetica,sans-Serif" font-size="14.00">samples = 1888</text>
<text text-anchor="start" x="1356.25" y="-506.45" font-family="Helvetica,sans-Serif" font-size="14.00">value = 60.226</text>
</g>
<!-- 1 -->
<g id="node2" class="node">
<title>1</title>
<path fill="#eb9c64" stroke="black" d="M1119.5,-464C1119.5,-464 978.25,-464 978.25,-464 972.25,-464 966.25,-458 966.25,-452 966.25,-452 966.25,-405 966.25,-405 966.25,-399 972.25,-393 978.25,-393 978.25,-393 1119.5,-393 1119.5,-393 1125.5,-393 1131.5,-399 1131.5,-405 1131.5,-405 1131.5,-452 1131.5,-452 1131.5,-458 1125.5,-464 1119.5,-464"/>
<text text-anchor="start" x="1008.75" y="-446.7" font-family="Helvetica,sans-Serif" font-size="14.00">P4_8_1 ≤ 2.5</text>
<text text-anchor="start" x="974.25" y="-430.95" font-family="Helvetica,sans-Serif" font-size="14.00">squared_error = 124.086</text>
<text text-anchor="start" x="1004.25" y="-415.2" font-family="Helvetica,sans-Serif" font-size="14.00">samples = 618</text>
<text text-anchor="start" x="1004.25" y="-399.45" font-family="Helvetica,sans-Serif" font-size="14.00">value = 69.605</text>
</g>
<!-- 0&#45;&gt;1 -->
<g id="edge1" class="edge">
<title>0&#45;&gt;1</title>
<path fill="none" stroke="black" d="M1321.88,-510.94C1268.86,-495.12 1198.76,-474.21 1142.87,-457.54"/>
<polygon fill="black" stroke="black" points="1143.93,-454.2 1133.35,-454.7 1141.93,-460.91 1143.93,-454.2"/>
<text text-anchor="middle" x="1143.78" y="-470.83" font-family="Helvetica,sans-Serif" font-size="14.00">True</text>
</g>
<!-- 58 -->
<g id="node33" class="node">
<title>58</title>
<path fill="#f2be99" stroke="black" d="M1827.5,-464C1827.5,-464 1686.25,-464 1686.25,-464 1680.25,-464 1674.25,-458 1674.25,-452 1674.25,-452 1674.25,-405 1674.25,-405 1674.25,-399 1680.25,-393 1686.25,-393 1686.25,-393 1827.5,-393 1827.5,-393 1833.5,-393 1839.5,-399 1839.5,-405 1839.5,-405 1839.5,-452 1839.5,-452 1839.5,-458 1833.5,-464 1827.5,-464"/>
<text text-anchor="start" x="1716.75" y="-446.7" font-family="Helvetica,sans-Serif" font-size="14.00">P4_6_1 ≤ 1.5</text>
<text text-anchor="start" x="1682.25" y="-430.95" font-family="Helvetica,sans-Serif" font-size="14.00">squared_error = 126.848</text>
<text text-anchor="start" x="1708.5" y="-415.2" font-family="Helvetica,sans-Serif" font-size="14.00">samples = 1270</text>
<text text-anchor="start" x="1712.25" y="-399.45" font-family="Helvetica,sans-Serif" font-size="14.00">value = 55.662</text>
</g>
<!-- 0&#45;&gt;58 -->
<g id="edge32" class="edge">
<title>0&#45;&gt;58</title>
<path fill="none" stroke="black" d="M1479.88,-511.2C1533.96,-495.25 1605.91,-474.03 1662.92,-457.21"/>
<polygon fill="black" stroke="black" points="1663.7,-460.63 1672.3,-454.44 1661.72,-453.92 1663.7,-460.63"/>
<text text-anchor="middle" x="1661.8" y="-470.55" font-family="Helvetica,sans-Serif" font-size="14.00">False</text>
</g>
<!-- 2 -->
<g id="node3" class="node">
<title>2</title>
<path fill="#eda877" stroke="black" d="M592.5,-357C592.5,-357 451.25,-357 451.25,-357 445.25,-357 439.25,-351 439.25,-345 439.25,-345 439.25,-298 439.25,-298 439.25,-292 445.25,-286 451.25,-286 451.25,-286 592.5,-286 592.5,-286 598.5,-286 604.5,-292 604.5,-298 604.5,-298 604.5,-345 604.5,-345 604.5,-351 598.5,-357 592.5,-357"/>
<text text-anchor="start" x="481.75" y="-339.7" font-family="Helvetica,sans-Serif" font-size="14.00">P4_8_3 ≤ 1.5</text>
<text text-anchor="start" x="447.25" y="-323.95" font-family="Helvetica,sans-Serif" font-size="14.00">squared_error = 108.908</text>
<text text-anchor="start" x="477.25" y="-308.2" font-family="Helvetica,sans-Serif" font-size="14.00">samples = 300</text>
<text text-anchor="start" x="477.25" y="-292.45" font-family="Helvetica,sans-Serif" font-size="14.00">value = 64.534</text>
</g>
<!-- 1&#45;&gt;2 -->
<g id="edge2" class="edge">
<title>1&#45;&gt;2</title>
<path fill="none" stroke="black" d="M965.95,-410.98C870.92,-392.04 715.5,-361.08 616,-341.25"/>
<polygon fill="black" stroke="black" points="616.72,-337.83 606.23,-339.31 615.36,-344.69 616.72,-337.83"/>
</g>
<!-- 31 -->
<g id="node18" class="node">
<title>31</title>
<path fill="#e89152" stroke="black" d="M1115.75,-357C1115.75,-357 982,-357 982,-357 976,-357 970,-351 970,-345 970,-345 970,-298 970,-298 970,-292 976,-286 982,-286 982,-286 1115.75,-286 1115.75,-286 1121.75,-286 1127.75,-292 1127.75,-298 1127.75,-298 1127.75,-345 1127.75,-345 1127.75,-351 1121.75,-357 1115.75,-357"/>
<text text-anchor="start" x="1008.75" y="-339.7" font-family="Helvetica,sans-Serif" font-size="14.00">P4_8_3 ≤ 1.5</text>
<text text-anchor="start" x="978" y="-323.95" font-family="Helvetica,sans-Serif" font-size="14.00">squared_error = 91.267</text>
<text text-anchor="start" x="1004.25" y="-308.2" font-family="Helvetica,sans-Serif" font-size="14.00">samples = 318</text>
<text text-anchor="start" x="1004.25" y="-292.45" font-family="Helvetica,sans-Serif" font-size="14.00">value = 74.389</text>
</g>
<!-- 1&#45;&gt;31 -->
<g id="edge17" class="edge">
<title>1&#45;&gt;31</title>
<path fill="none" stroke="black" d="M1048.88,-392.54C1048.88,-384.92 1048.88,-376.75 1048.88,-368.77"/>
<polygon fill="black" stroke="black" points="1052.38,-368.82 1048.88,-358.82 1045.38,-368.82 1052.38,-368.82"/>
</g>
<!-- 3 -->
<g id="node4" class="node">
<title>3</title>
<path fill="#eca16c" stroke="black" d="M321.75,-250C321.75,-250 188,-250 188,-250 182,-250 176,-244 176,-238 176,-238 176,-191 176,-191 176,-185 182,-179 188,-179 188,-179 321.75,-179 321.75,-179 327.75,-179 333.75,-185 333.75,-191 333.75,-191 333.75,-238 333.75,-238 333.75,-244 327.75,-250 321.75,-250"/>
<text text-anchor="start" x="214.75" y="-232.7" font-family="Helvetica,sans-Serif" font-size="14.00">P7_1_2 ≤ 2.5</text>
<text text-anchor="start" x="184" y="-216.95" font-family="Helvetica,sans-Serif" font-size="14.00">squared_error = 77.189</text>
<text text-anchor="start" x="210.25" y="-201.2" font-family="Helvetica,sans-Serif" font-size="14.00">samples = 207</text>
<text text-anchor="start" x="210.25" y="-185.45" font-family="Helvetica,sans-Serif" font-size="14.00">value = 67.441</text>
</g>
<!-- 2&#45;&gt;3 -->
<g id="edge3" class="edge">
<title>2&#45;&gt;3</title>
<path fill="none" stroke="black" d="M438.86,-287.85C409.01,-276.11 375.2,-262.82 344.79,-250.86"/>
<polygon fill="black" stroke="black" points="346.18,-247.65 335.6,-247.24 343.62,-254.16 346.18,-247.65"/>
</g>
<!-- 18 -->
<g id="node11" class="node">
<title>18</title>
<path fill="#f0b88f" stroke="black" d="M592.12,-250C592.12,-250 451.62,-250 451.62,-250 445.62,-250 439.62,-244 439.62,-238 439.62,-238 439.62,-191 439.62,-191 439.62,-185 445.62,-179 451.62,-179 451.62,-179 592.12,-179 592.12,-179 598.12,-179 604.12,-185 604.12,-191 604.12,-191 604.12,-238 604.12,-238 604.12,-244 598.12,-250 592.12,-250"/>
<text text-anchor="start" x="485.5" y="-232.7" font-family="Helvetica,sans-Serif" font-size="14.00">P12_3 ≤ 1.5</text>
<text text-anchor="start" x="447.62" y="-216.95" font-family="Helvetica,sans-Serif" font-size="14.00">squared_error = 118.842</text>
<text text-anchor="start" x="481" y="-201.2" font-family="Helvetica,sans-Serif" font-size="14.00">samples = 93</text>
<text text-anchor="start" x="477.25" y="-185.45" font-family="Helvetica,sans-Serif" font-size="14.00">value = 58.065</text>
</g>
<!-- 2&#45;&gt;18 -->
<g id="edge10" class="edge">
<title>2&#45;&gt;18</title>
<path fill="none" stroke="black" d="M521.88,-285.54C521.88,-277.92 521.88,-269.75 521.88,-261.77"/>
<polygon fill="black" stroke="black" points="525.38,-261.82 521.88,-251.82 518.38,-261.82 525.38,-261.82"/>
</g>
<!-- 4 -->
<g id="node5" class="node">
<title>4</title>
<path fill="#ea995f" stroke="black" d="M145.75,-143C145.75,-143 12,-143 12,-143 6,-143 0,-137 0,-131 0,-131 0,-84 0,-84 0,-78 6,-72 12,-72 12,-72 145.75,-72 145.75,-72 151.75,-72 157.75,-78 157.75,-84 157.75,-84 157.75,-131 157.75,-131 157.75,-137 151.75,-143 145.75,-143"/>
<text text-anchor="start" x="38.75" y="-125.7" font-family="Helvetica,sans-Serif" font-size="14.00">P4_8_2 ≤ 1.5</text>
<text text-anchor="start" x="8" y="-109.95" font-family="Helvetica,sans-Serif" font-size="14.00">squared_error = 69.056</text>
<text text-anchor="start" x="35" y="-94.2" font-family="Helvetica,sans-Serif" font-size="14.00">samples = 111</text>
<text text-anchor="start" x="34.25" y="-78.45" font-family="Helvetica,sans-Serif" font-size="14.00">value = 70.985</text>
</g>
<!-- 3&#45;&gt;4 -->
<g id="edge4" class="edge">
<title>3&#45;&gt;4</title>
<path fill="none" stroke="black" d="M196.27,-178.54C180.47,-169.11 163.24,-158.83 146.97,-149.13"/>
<polygon fill="black" stroke="black" points="149.21,-146.38 138.82,-144.27 145.62,-152.39 149.21,-146.38"/>
</g>
<!-- 11 -->
<g id="node8" class="node">
<title>11</title>
<path fill="#eeab7c" stroke="black" d="M321.75,-143C321.75,-143 188,-143 188,-143 182,-143 176,-137 176,-131 176,-131 176,-84 176,-84 176,-78 182,-72 188,-72 188,-72 321.75,-72 321.75,-72 327.75,-72 333.75,-78 333.75,-84 333.75,-84 333.75,-131 333.75,-131 333.75,-137 327.75,-143 321.75,-143"/>
<text text-anchor="start" x="200.12" y="-125.7" font-family="Helvetica,sans-Serif" font-size="14.00">UPM_DIS ≤ 573.5</text>
<text text-anchor="start" x="184" y="-109.95" font-family="Helvetica,sans-Serif" font-size="14.00">squared_error = 55.276</text>
<text text-anchor="start" x="214" y="-94.2" font-family="Helvetica,sans-Serif" font-size="14.00">samples = 96</text>
<text text-anchor="start" x="210.25" y="-78.45" font-family="Helvetica,sans-Serif" font-size="14.00">value = 63.343</text>
</g>
<!-- 3&#45;&gt;11 -->
<g id="edge7" class="edge">
<title>3&#45;&gt;11</title>
<path fill="none" stroke="black" d="M254.88,-178.54C254.88,-170.92 254.88,-162.75 254.88,-154.77"/>
<polygon fill="black" stroke="black" points="258.38,-154.82 254.88,-144.82 251.38,-154.82 258.38,-154.82"/>
</g>
<!-- 5 -->
<g id="node6" class="node">
<title>5</title>
<path fill="#c0c0c0" stroke="black" d="M57.88,-36C57.88,-36 27.88,-36 27.88,-36 21.88,-36 15.88,-30 15.88,-24 15.88,-24 15.88,-12 15.88,-12 15.88,-6 21.88,0 27.88,0 27.88,0 57.88,0 57.88,0 63.88,0 69.88,-6 69.88,-12 69.88,-12 69.88,-24 69.88,-24 69.88,-30 63.88,-36 57.88,-36"/>
<text text-anchor="middle" x="42.88" y="-12.57" font-family="Helvetica,sans-Serif" font-size="14.00">(...)</text>
</g>
<!-- 4&#45;&gt;5 -->
<g id="edge5" class="edge">
<title>4&#45;&gt;5</title>
<path fill="none" stroke="black" d="M64.54,-71.67C61.13,-63.37 57.54,-54.63 54.28,-46.71"/>
<polygon fill="black" stroke="black" points="57.56,-45.5 50.52,-37.58 51.09,-48.16 57.56,-45.5"/>
</g>
<!-- 8 -->
<g id="node7" class="node">
<title>8</title>
<path fill="#c0c0c0" stroke="black" d="M129.88,-36C129.88,-36 99.88,-36 99.88,-36 93.88,-36 87.88,-30 87.88,-24 87.88,-24 87.88,-12 87.88,-12 87.88,-6 93.88,0 99.88,0 99.88,0 129.88,0 129.88,0 135.88,0 141.88,-6 141.88,-12 141.88,-12 141.88,-24 141.88,-24 141.88,-30 135.88,-36 129.88,-36"/>
<text text-anchor="middle" x="114.88" y="-12.57" font-family="Helvetica,sans-Serif" font-size="14.00">(...)</text>
</g>
<!-- 4&#45;&gt;8 -->
<g id="edge6" class="edge">
<title>4&#45;&gt;8</title>
<path fill="none" stroke="black" d="M93.21,-71.67C96.62,-63.37 100.21,-54.63 103.47,-46.71"/>
<polygon fill="black" stroke="black" points="106.66,-48.16 107.23,-37.58 100.19,-45.5 106.66,-48.16"/>
</g>
<!-- 12 -->
<g id="node9" class="node">
<title>12</title>
<path fill="#c0c0c0" stroke="black" d="M235.88,-36C235.88,-36 205.88,-36 205.88,-36 199.88,-36 193.88,-30 193.88,-24 193.88,-24 193.88,-12 193.88,-12 193.88,-6 199.88,0 205.88,0 205.88,0 235.88,0 235.88,0 241.88,0 247.88,-6 247.88,-12 247.88,-12 247.88,-24 247.88,-24 247.88,-30 241.88,-36 235.88,-36"/>
<text text-anchor="middle" x="220.88" y="-12.57" font-family="Helvetica,sans-Serif" font-size="14.00">(...)</text>
</g>
<!-- 11&#45;&gt;12 -->
<g id="edge8" class="edge">
<title>11&#45;&gt;12</title>
<path fill="none" stroke="black" d="M241.34,-71.67C238.12,-63.37 234.72,-54.63 231.64,-46.71"/>
<polygon fill="black" stroke="black" points="234.98,-45.65 228.1,-37.59 228.46,-48.18 234.98,-45.65"/>
</g>
<!-- 15 -->
<g id="node10" class="node">
<title>15</title>
<path fill="#c0c0c0" stroke="black" d="M307.88,-36C307.88,-36 277.88,-36 277.88,-36 271.88,-36 265.88,-30 265.88,-24 265.88,-24 265.88,-12 265.88,-12 265.88,-6 271.88,0 277.88,0 277.88,0 307.88,0 307.88,0 313.88,0 319.88,-6 319.88,-12 319.88,-12 319.88,-24 319.88,-24 319.88,-30 313.88,-36 307.88,-36"/>
<text text-anchor="middle" x="292.88" y="-12.57" font-family="Helvetica,sans-Serif" font-size="14.00">(...)</text>
</g>
<!-- 11&#45;&gt;15 -->
<g id="edge9" class="edge">
<title>11&#45;&gt;15</title>
<path fill="none" stroke="black" d="M270,-71.67C273.6,-63.37 277.4,-54.63 280.84,-46.71"/>
<polygon fill="black" stroke="black" points="284.04,-48.14 284.81,-37.57 277.62,-45.35 284.04,-48.14"/>
</g>
<!-- 19 -->
<g id="node12" class="node">
<title>19</title>
<path fill="#eda775" stroke="black" d="M497.75,-143C497.75,-143 364,-143 364,-143 358,-143 352,-137 352,-131 352,-131 352,-84 352,-84 352,-78 358,-72 364,-72 364,-72 497.75,-72 497.75,-72 503.75,-72 509.75,-78 509.75,-84 509.75,-84 509.75,-131 509.75,-131 509.75,-137 503.75,-143 497.75,-143"/>
<text text-anchor="start" x="390.75" y="-125.7" font-family="Helvetica,sans-Serif" font-size="14.00">P4_6_1 ≤ 1.5</text>
<text text-anchor="start" x="360" y="-109.95" font-family="Helvetica,sans-Serif" font-size="14.00">squared_error = 65.424</text>
<text text-anchor="start" x="390" y="-94.2" font-family="Helvetica,sans-Serif" font-size="14.00">samples = 31</text>
<text text-anchor="start" x="386.25" y="-78.45" font-family="Helvetica,sans-Serif" font-size="14.00">value = 65.131</text>
</g>
<!-- 18&#45;&gt;19 -->
<g id="edge11" class="edge">
<title>18&#45;&gt;19</title>
<path fill="none" stroke="black" d="M491.57,-178.54C484.21,-170.04 476.24,-160.84 468.57,-152"/>
<polygon fill="black" stroke="black" points="471.23,-149.72 462.04,-144.45 465.94,-154.3 471.23,-149.72"/>
</g>
<!-- 24 -->
<g id="node15" class="node">
<title>24</title>
<path fill="#f2c19d" stroke="black" d="M681.5,-143C681.5,-143 540.25,-143 540.25,-143 534.25,-143 528.25,-137 528.25,-131 528.25,-131 528.25,-84 528.25,-84 528.25,-78 534.25,-72 540.25,-72 540.25,-72 681.5,-72 681.5,-72 687.5,-72 693.5,-78 693.5,-84 693.5,-84 693.5,-131 693.5,-131 693.5,-137 687.5,-143 681.5,-143"/>
<text text-anchor="start" x="563.25" y="-125.7" font-family="Helvetica,sans-Serif" font-size="14.00">P7_9_2_2 ≤ 0.5</text>
<text text-anchor="start" x="536.25" y="-109.95" font-family="Helvetica,sans-Serif" font-size="14.00">squared_error = 108.104</text>
<text text-anchor="start" x="570" y="-94.2" font-family="Helvetica,sans-Serif" font-size="14.00">samples = 62</text>
<text text-anchor="start" x="566.25" y="-78.45" font-family="Helvetica,sans-Serif" font-size="14.00">value = 54.531</text>
</g>
<!-- 18&#45;&gt;24 -->
<g id="edge14" class="edge">
<title>18&#45;&gt;24</title>
<path fill="none" stroke="black" d="M551.51,-178.54C558.72,-170.04 566.51,-160.84 574.01,-152"/>
<polygon fill="black" stroke="black" points="576.59,-154.36 580.39,-144.47 571.25,-149.83 576.59,-154.36"/>
</g>
<!-- 20 -->
<g id="node13" class="node">
<title>20</title>
<path fill="#c0c0c0" stroke="black" d="M429.88,-36C429.88,-36 399.88,-36 399.88,-36 393.88,-36 387.88,-30 387.88,-24 387.88,-24 387.88,-12 387.88,-12 387.88,-6 393.88,0 399.88,0 399.88,0 429.88,0 429.88,0 435.88,0 441.88,-6 441.88,-12 441.88,-12 441.88,-24 441.88,-24 441.88,-30 435.88,-36 429.88,-36"/>
<text text-anchor="middle" x="414.88" y="-12.57" font-family="Helvetica,sans-Serif" font-size="14.00">(...)</text>
</g>
<!-- 19&#45;&gt;20 -->
<g id="edge12" class="edge">
<title>19&#45;&gt;20</title>
<path fill="none" stroke="black" d="M424.51,-71.67C423.02,-63.56 421.46,-55.04 420.04,-47.26"/>
<polygon fill="black" stroke="black" points="423.53,-46.88 418.29,-37.67 416.65,-48.14 423.53,-46.88"/>
</g>
<!-- 23 -->
<g id="node14" class="node">
<title>23</title>
<path fill="#c0c0c0" stroke="black" d="M501.88,-36C501.88,-36 471.88,-36 471.88,-36 465.88,-36 459.88,-30 459.88,-24 459.88,-24 459.88,-12 459.88,-12 459.88,-6 465.88,0 471.88,0 471.88,0 501.88,0 501.88,0 507.88,0 513.88,-6 513.88,-12 513.88,-12 513.88,-24 513.88,-24 513.88,-30 507.88,-36 501.88,-36"/>
<text text-anchor="middle" x="486.88" y="-12.57" font-family="Helvetica,sans-Serif" font-size="14.00">(...)</text>
</g>
<!-- 19&#45;&gt;23 -->
<g id="edge13" class="edge">
<title>19&#45;&gt;23</title>
<path fill="none" stroke="black" d="M453.17,-71.67C458.72,-62.99 464.58,-53.83 469.84,-45.62"/>
<polygon fill="black" stroke="black" points="472.62,-47.77 475.06,-37.46 466.72,-43.99 472.62,-47.77"/>
</g>
<!-- 25 -->
<g id="node16" class="node">
<title>25</title>
<path fill="#c0c0c0" stroke="black" d="M598.88,-36C598.88,-36 568.88,-36 568.88,-36 562.88,-36 556.88,-30 556.88,-24 556.88,-24 556.88,-12 556.88,-12 556.88,-6 562.88,0 568.88,0 568.88,0 598.88,0 598.88,0 604.88,0 610.88,-6 610.88,-12 610.88,-12 610.88,-24 610.88,-24 610.88,-30 604.88,-36 598.88,-36"/>
<text text-anchor="middle" x="583.88" y="-12.57" font-family="Helvetica,sans-Serif" font-size="14.00">(...)</text>
</g>
<!-- 24&#45;&gt;25 -->
<g id="edge15" class="edge">
<title>24&#45;&gt;25</title>
<path fill="none" stroke="black" d="M600.13,-71.67C597.6,-63.47 594.93,-54.84 592.51,-46.98"/>
<polygon fill="black" stroke="black" points="595.92,-46.15 589.62,-37.63 589.23,-48.22 595.92,-46.15"/>
</g>
<!-- 28 -->
<g id="node17" class="node">
<title>28</title>
<path fill="#c0c0c0" stroke="black" d="M670.88,-36C670.88,-36 640.88,-36 640.88,-36 634.88,-36 628.88,-30 628.88,-24 628.88,-24 628.88,-12 628.88,-12 628.88,-6 634.88,0 640.88,0 640.88,0 670.88,0 670.88,0 676.88,0 682.88,-6 682.88,-12 682.88,-12 682.88,-24 682.88,-24 682.88,-30 676.88,-36 670.88,-36"/>
<text text-anchor="middle" x="655.88" y="-12.57" font-family="Helvetica,sans-Serif" font-size="14.00">(...)</text>
</g>
<!-- 24&#45;&gt;28 -->
<g id="edge16" class="edge">
<title>24&#45;&gt;28</title>
<path fill="none" stroke="black" d="M628.79,-71.67C633.15,-63.18 637.76,-54.23 641.9,-46.17"/>
<polygon fill="black" stroke="black" points="644.88,-48.02 646.35,-37.53 638.66,-44.82 644.88,-48.02"/>
</g>
<!-- 32 -->
<g id="node19" class="node">
<title>32</title>
<path fill="#e78a48" stroke="black" d="M1029.75,-250C1029.75,-250 896,-250 896,-250 890,-250 884,-244 884,-238 884,-238 884,-191 884,-191 884,-185 890,-179 896,-179 896,-179 1029.75,-179 1029.75,-179 1035.75,-179 1041.75,-185 1041.75,-191 1041.75,-191 1041.75,-238 1041.75,-238 1041.75,-244 1035.75,-250 1029.75,-250"/>
<text text-anchor="start" x="930.25" y="-232.7" font-family="Helvetica,sans-Serif" font-size="14.00">P3_8 ≤ 5.5</text>
<text text-anchor="start" x="892" y="-216.95" font-family="Helvetica,sans-Serif" font-size="14.00">squared_error = 65.986</text>
<text text-anchor="start" x="918.25" y="-201.2" font-family="Helvetica,sans-Serif" font-size="14.00">samples = 234</text>
<text text-anchor="start" x="918.62" y="-185.45" font-family="Helvetica,sans-Serif" font-size="14.00">value = 77.011</text>
</g>
<!-- 31&#45;&gt;32 -->
<g id="edge18" class="edge">
<title>31&#45;&gt;32</title>
<path fill="none" stroke="black" d="M1020.24,-285.54C1013.28,-277.04 1005.74,-267.84 998.5,-259"/>
<polygon fill="black" stroke="black" points="1001.39,-257 992.35,-251.48 995.97,-261.44 1001.39,-257"/>
</g>
<!-- 45 -->
<g id="node26" class="node">
<title>45</title>
<path fill="#eca26d" stroke="black" d="M1198,-250C1198,-250 1071.75,-250 1071.75,-250 1065.75,-250 1059.75,-244 1059.75,-238 1059.75,-238 1059.75,-191 1059.75,-191 1059.75,-185 1065.75,-179 1071.75,-179 1071.75,-179 1198,-179 1198,-179 1204,-179 1210,-185 1210,-191 1210,-191 1210,-238 1210,-238 1210,-244 1204,-250 1198,-250"/>
<text text-anchor="start" x="1098.5" y="-232.7" font-family="Helvetica,sans-Serif" font-size="14.00">P10_1 ≤ 0.5</text>
<text text-anchor="start" x="1067.75" y="-216.95" font-family="Helvetica,sans-Serif" font-size="14.00">squared_error = 89.15</text>
<text text-anchor="start" x="1094" y="-201.2" font-family="Helvetica,sans-Serif" font-size="14.00">samples = 84</text>
<text text-anchor="start" x="1090.25" y="-185.45" font-family="Helvetica,sans-Serif" font-size="14.00">value = 67.082</text>
</g>
<!-- 31&#45;&gt;45 -->
<g id="edge25" class="edge">
<title>31&#45;&gt;45</title>
<path fill="none" stroke="black" d="M1077.51,-285.54C1084.47,-277.04 1092.01,-267.84 1099.25,-259"/>
<polygon fill="black" stroke="black" points="1101.78,-261.44 1105.4,-251.48 1096.36,-257 1101.78,-261.44"/>
</g>
<!-- 33 -->
<g id="node20" class="node">
<title>33</title>
<path fill="#e68743" stroke="black" d="M857.75,-143C857.75,-143 724,-143 724,-143 718,-143 712,-137 712,-131 712,-131 712,-84 712,-84 712,-78 718,-72 724,-72 724,-72 857.75,-72 857.75,-72 863.75,-72 869.75,-78 869.75,-84 869.75,-84 869.75,-131 869.75,-131 869.75,-137 863.75,-143 857.75,-143"/>
<text text-anchor="start" x="754.5" y="-125.7" font-family="Helvetica,sans-Serif" font-size="14.00">P12_2 ≤ 1.5</text>
<text text-anchor="start" x="720" y="-109.95" font-family="Helvetica,sans-Serif" font-size="14.00">squared_error = 54.608</text>
<text text-anchor="start" x="746.25" y="-94.2" font-family="Helvetica,sans-Serif" font-size="14.00">samples = 200</text>
<text text-anchor="start" x="750" y="-78.45" font-family="Helvetica,sans-Serif" font-size="14.00">value = 78.23</text>
</g>
<!-- 32&#45;&gt;33 -->
<g id="edge19" class="edge">
<title>32&#45;&gt;33</title>
<path fill="none" stroke="black" d="M905.6,-178.54C890.31,-169.2 873.64,-159.03 857.87,-149.4"/>
<polygon fill="black" stroke="black" points="859.84,-146.5 849.48,-144.28 856.19,-152.48 859.84,-146.5"/>
</g>
<!-- 40 -->
<g id="node23" class="node">
<title>40</title>
<path fill="#eb9c63" stroke="black" d="M1026,-143C1026,-143 899.75,-143 899.75,-143 893.75,-143 887.75,-137 887.75,-131 887.75,-131 887.75,-84 887.75,-84 887.75,-78 893.75,-72 899.75,-72 899.75,-72 1026,-72 1026,-72 1032,-72 1038,-78 1038,-84 1038,-84 1038,-131 1038,-131 1038,-137 1032,-143 1026,-143"/>
<text text-anchor="start" x="901.75" y="-125.7" font-family="Helvetica,sans-Serif" font-size="14.00">FAC_HOG ≤ 2810.5</text>
<text text-anchor="start" x="895.75" y="-109.95" font-family="Helvetica,sans-Serif" font-size="14.00">squared_error = 72.77</text>
<text text-anchor="start" x="922" y="-94.2" font-family="Helvetica,sans-Serif" font-size="14.00">samples = 34</text>
<text text-anchor="start" x="918.25" y="-78.45" font-family="Helvetica,sans-Serif" font-size="14.00">value = 69.841</text>
</g>
<!-- 32&#45;&gt;40 -->
<g id="edge22" class="edge">
<title>32&#45;&gt;40</title>
<path fill="none" stroke="black" d="M962.88,-178.54C962.88,-170.92 962.88,-162.75 962.88,-154.77"/>
<polygon fill="black" stroke="black" points="966.38,-154.82 962.88,-144.82 959.38,-154.82 966.38,-154.82"/>
</g>
<!-- 34 -->
<g id="node21" class="node">
<title>34</title>
<path fill="#c0c0c0" stroke="black" d="M764.88,-36C764.88,-36 734.88,-36 734.88,-36 728.88,-36 722.88,-30 722.88,-24 722.88,-24 722.88,-12 722.88,-12 722.88,-6 728.88,0 734.88,0 734.88,0 764.88,0 764.88,0 770.88,0 776.88,-6 776.88,-12 776.88,-12 776.88,-24 776.88,-24 776.88,-30 770.88,-36 764.88,-36"/>
<text text-anchor="middle" x="749.88" y="-12.57" font-family="Helvetica,sans-Serif" font-size="14.00">(...)</text>
</g>
<!-- 33&#45;&gt;34 -->
<g id="edge20" class="edge">
<title>33&#45;&gt;34</title>
<path fill="none" stroke="black" d="M774.55,-71.67C770.62,-63.28 766.48,-54.43 762.73,-46.44"/>
<polygon fill="black" stroke="black" points="765.98,-45.12 758.57,-37.55 759.64,-48.09 765.98,-45.12"/>
</g>
<!-- 37 -->
<g id="node22" class="node">
<title>37</title>
<path fill="#c0c0c0" stroke="black" d="M836.88,-36C836.88,-36 806.88,-36 806.88,-36 800.88,-36 794.88,-30 794.88,-24 794.88,-24 794.88,-12 794.88,-12 794.88,-6 800.88,0 806.88,0 806.88,0 836.88,0 836.88,0 842.88,0 848.88,-6 848.88,-12 848.88,-12 848.88,-24 848.88,-24 848.88,-30 842.88,-36 836.88,-36"/>
<text text-anchor="middle" x="821.88" y="-12.57" font-family="Helvetica,sans-Serif" font-size="14.00">(...)</text>
</g>
<!-- 33&#45;&gt;37 -->
<g id="edge21" class="edge">
<title>33&#45;&gt;37</title>
<path fill="none" stroke="black" d="M803.22,-71.67C806.12,-63.47 809.18,-54.84 811.96,-46.98"/>
<polygon fill="black" stroke="black" points="815.24,-48.2 815.28,-37.61 808.64,-45.87 815.24,-48.2"/>
</g>
<!-- 41 -->
<g id="node24" class="node">
<title>41</title>
<path fill="#c0c0c0" stroke="black" d="M919.88,-36C919.88,-36 889.88,-36 889.88,-36 883.88,-36 877.88,-30 877.88,-24 877.88,-24 877.88,-12 877.88,-12 877.88,-6 883.88,0 889.88,0 889.88,0 919.88,0 919.88,0 925.88,0 931.88,-6 931.88,-12 931.88,-12 931.88,-24 931.88,-24 931.88,-30 925.88,-36 919.88,-36"/>
<text text-anchor="middle" x="904.88" y="-12.57" font-family="Helvetica,sans-Serif" font-size="14.00">(...)</text>
</g>
<!-- 40&#45;&gt;41 -->
<g id="edge23" class="edge">
<title>40&#45;&gt;41</title>
<path fill="none" stroke="black" d="M939.79,-71.67C934.04,-62.99 927.96,-53.83 922.52,-45.62"/>
<polygon fill="black" stroke="black" points="925.54,-43.85 917.1,-37.44 919.71,-47.71 925.54,-43.85"/>
</g>
<!-- 42 -->
<g id="node25" class="node">
<title>42</title>
<path fill="#c0c0c0" stroke="black" d="M991.88,-36C991.88,-36 961.88,-36 961.88,-36 955.88,-36 949.88,-30 949.88,-24 949.88,-24 949.88,-12 949.88,-12 949.88,-6 955.88,0 961.88,0 961.88,0 991.88,0 991.88,0 997.88,0 1003.88,-6 1003.88,-12 1003.88,-12 1003.88,-24 1003.88,-24 1003.88,-30 997.88,-36 991.88,-36"/>
<text text-anchor="middle" x="976.88" y="-12.57" font-family="Helvetica,sans-Serif" font-size="14.00">(...)</text>
</g>
<!-- 40&#45;&gt;42 -->
<g id="edge24" class="edge">
<title>40&#45;&gt;42</title>
<path fill="none" stroke="black" d="M968.45,-71.67C969.73,-63.66 971.08,-55.24 972.31,-47.53"/>
<polygon fill="black" stroke="black" points="975.76,-48.1 973.89,-37.68 968.85,-47 975.76,-48.1"/>
</g>
<!-- 46 -->
<g id="node27" class="node">
<title>46</title>
<path fill="#ea9a60" stroke="black" d="M1201.75,-143C1201.75,-143 1068,-143 1068,-143 1062,-143 1056,-137 1056,-131 1056,-131 1056,-84 1056,-84 1056,-78 1062,-72 1068,-72 1068,-72 1201.75,-72 1201.75,-72 1207.75,-72 1213.75,-78 1213.75,-84 1213.75,-84 1213.75,-131 1213.75,-131 1213.75,-137 1207.75,-143 1201.75,-143"/>
<text text-anchor="start" x="1094.75" y="-125.7" font-family="Helvetica,sans-Serif" font-size="14.00">P4_8_2 ≤ 2.5</text>
<text text-anchor="start" x="1064" y="-109.95" font-family="Helvetica,sans-Serif" font-size="14.00">squared_error = 45.065</text>
<text text-anchor="start" x="1094" y="-94.2" font-family="Helvetica,sans-Serif" font-size="14.00">samples = 55</text>
<text text-anchor="start" x="1094" y="-78.45" font-family="Helvetica,sans-Serif" font-size="14.00">value = 70.62</text>
</g>
<!-- 45&#45;&gt;46 -->
<g id="edge26" class="edge">
<title>45&#45;&gt;46</title>
<path fill="none" stroke="black" d="M1134.88,-178.54C1134.88,-170.92 1134.88,-162.75 1134.88,-154.77"/>
<polygon fill="black" stroke="black" points="1138.38,-154.82 1134.88,-144.82 1131.38,-154.82 1138.38,-154.82"/>
</g>
<!-- 53 -->
<g id="node30" class="node">
<title>53</title>
<path fill="#efb287" stroke="black" d="M1385.5,-143C1385.5,-143 1244.25,-143 1244.25,-143 1238.25,-143 1232.25,-137 1232.25,-131 1232.25,-131 1232.25,-84 1232.25,-84 1232.25,-78 1238.25,-72 1244.25,-72 1244.25,-72 1385.5,-72 1385.5,-72 1391.5,-72 1397.5,-78 1397.5,-84 1397.5,-84 1397.5,-131 1397.5,-131 1397.5,-137 1391.5,-143 1385.5,-143"/>
<text text-anchor="start" x="1274.75" y="-125.7" font-family="Helvetica,sans-Serif" font-size="14.00">P4_7_3 ≤ 1.5</text>
<text text-anchor="start" x="1240.25" y="-109.95" font-family="Helvetica,sans-Serif" font-size="14.00">squared_error = 103.993</text>
<text text-anchor="start" x="1274" y="-94.2" font-family="Helvetica,sans-Serif" font-size="14.00">samples = 29</text>
<text text-anchor="start" x="1270.25" y="-78.45" font-family="Helvetica,sans-Serif" font-size="14.00">value = 60.372</text>
</g>
<!-- 45&#45;&gt;53 -->
<g id="edge29" class="edge">
<title>45&#45;&gt;53</title>
<path fill="none" stroke="black" d="M1194.81,-178.54C1210.97,-169.11 1228.59,-158.83 1245.23,-149.13"/>
<polygon fill="black" stroke="black" points="1246.71,-152.31 1253.59,-144.25 1243.18,-146.27 1246.71,-152.31"/>
</g>
<!-- 47 -->
<g id="node28" class="node">
<title>47</title>
<path fill="#c0c0c0" stroke="black" d="M1095.88,-36C1095.88,-36 1065.88,-36 1065.88,-36 1059.88,-36 1053.88,-30 1053.88,-24 1053.88,-24 1053.88,-12 1053.88,-12 1053.88,-6 1059.88,0 1065.88,0 1065.88,0 1095.88,0 1095.88,0 1101.88,0 1107.88,-6 1107.88,-12 1107.88,-12 1107.88,-24 1107.88,-24 1107.88,-30 1101.88,-36 1095.88,-36"/>
<text text-anchor="middle" x="1080.88" y="-12.57" font-family="Helvetica,sans-Serif" font-size="14.00">(...)</text>
</g>
<!-- 46&#45;&gt;47 -->
<g id="edge27" class="edge">
<title>46&#45;&gt;47</title>
<path fill="none" stroke="black" d="M1113.38,-71.67C1108.08,-63.09 1102.49,-54.03 1097.47,-45.89"/>
<polygon fill="black" stroke="black" points="1100.5,-44.14 1092.27,-37.47 1094.55,-47.82 1100.5,-44.14"/>
</g>
<!-- 50 -->
<g id="node29" class="node">
<title>50</title>
<path fill="#c0c0c0" stroke="black" d="M1167.88,-36C1167.88,-36 1137.88,-36 1137.88,-36 1131.88,-36 1125.88,-30 1125.88,-24 1125.88,-24 1125.88,-12 1125.88,-12 1125.88,-6 1131.88,0 1137.88,0 1137.88,0 1167.88,0 1167.88,0 1173.88,0 1179.88,-6 1179.88,-12 1179.88,-12 1179.88,-24 1179.88,-24 1179.88,-30 1173.88,-36 1167.88,-36"/>
<text text-anchor="middle" x="1152.88" y="-12.57" font-family="Helvetica,sans-Serif" font-size="14.00">(...)</text>
</g>
<!-- 46&#45;&gt;50 -->
<g id="edge28" class="edge">
<title>46&#45;&gt;50</title>
<path fill="none" stroke="black" d="M1142.04,-71.67C1143.71,-63.56 1145.46,-55.04 1147.06,-47.26"/>
<polygon fill="black" stroke="black" points="1150.45,-48.17 1149.04,-37.67 1143.59,-46.75 1150.45,-48.17"/>
</g>
<!-- 54 -->
<g id="node31" class="node">
<title>54</title>
<path fill="#c0c0c0" stroke="black" d="M1275.88,-36C1275.88,-36 1245.88,-36 1245.88,-36 1239.88,-36 1233.88,-30 1233.88,-24 1233.88,-24 1233.88,-12 1233.88,-12 1233.88,-6 1239.88,0 1245.88,0 1245.88,0 1275.88,0 1275.88,0 1281.88,0 1287.88,-6 1287.88,-12 1287.88,-12 1287.88,-24 1287.88,-24 1287.88,-30 1281.88,-36 1275.88,-36"/>
<text text-anchor="middle" x="1260.88" y="-12.57" font-family="Helvetica,sans-Serif" font-size="14.00">(...)</text>
</g>
<!-- 53&#45;&gt;54 -->
<g id="edge30" class="edge">
<title>53&#45;&gt;54</title>
<path fill="none" stroke="black" d="M1293.38,-71.67C1288.08,-63.09 1282.49,-54.03 1277.47,-45.89"/>
<polygon fill="black" stroke="black" points="1280.5,-44.14 1272.27,-37.47 1274.55,-47.82 1280.5,-44.14"/>
</g>
<!-- 57 -->
<g id="node32" class="node">
<title>57</title>
<path fill="#c0c0c0" stroke="black" d="M1347.88,-36C1347.88,-36 1317.88,-36 1317.88,-36 1311.88,-36 1305.88,-30 1305.88,-24 1305.88,-24 1305.88,-12 1305.88,-12 1305.88,-6 1311.88,0 1317.88,0 1317.88,0 1347.88,0 1347.88,0 1353.88,0 1359.88,-6 1359.88,-12 1359.88,-12 1359.88,-24 1359.88,-24 1359.88,-30 1353.88,-36 1347.88,-36"/>
<text text-anchor="middle" x="1332.88" y="-12.57" font-family="Helvetica,sans-Serif" font-size="14.00">(...)</text>
</g>
<!-- 53&#45;&gt;57 -->
<g id="edge31" class="edge">
<title>53&#45;&gt;57</title>
<path fill="none" stroke="black" d="M1322.04,-71.67C1323.71,-63.56 1325.46,-55.04 1327.06,-47.26"/>
<polygon fill="black" stroke="black" points="1330.45,-48.17 1329.04,-37.67 1323.59,-46.75 1330.45,-48.17"/>
</g>
<!-- 59 -->
<g id="node34" class="node">
<title>59</title>
<path fill="#f0b78d" stroke="black" d="M1827.5,-357C1827.5,-357 1686.25,-357 1686.25,-357 1680.25,-357 1674.25,-351 1674.25,-345 1674.25,-345 1674.25,-298 1674.25,-298 1674.25,-292 1680.25,-286 1686.25,-286 1686.25,-286 1827.5,-286 1827.5,-286 1833.5,-286 1839.5,-292 1839.5,-298 1839.5,-298 1839.5,-345 1839.5,-345 1839.5,-351 1833.5,-357 1827.5,-357"/>
<text text-anchor="start" x="1716.75" y="-339.7" font-family="Helvetica,sans-Serif" font-size="14.00">P4_8_1 ≤ 2.5</text>
<text text-anchor="start" x="1682.25" y="-323.95" font-family="Helvetica,sans-Serif" font-size="14.00">squared_error = 101.617</text>
<text text-anchor="start" x="1712.25" y="-308.2" font-family="Helvetica,sans-Serif" font-size="14.00">samples = 888</text>
<text text-anchor="start" x="1712.25" y="-292.45" font-family="Helvetica,sans-Serif" font-size="14.00">value = 58.669</text>
</g>
<!-- 58&#45;&gt;59 -->
<g id="edge33" class="edge">
<title>58&#45;&gt;59</title>
<path fill="none" stroke="black" d="M1756.88,-392.54C1756.88,-384.92 1756.88,-376.75 1756.88,-368.77"/>
<polygon fill="black" stroke="black" points="1760.38,-368.82 1756.88,-358.82 1753.38,-368.82 1760.38,-368.82"/>
</g>
<!-- 90 -->
<g id="node49" class="node">
<title>90</title>
<path fill="#f5cfb3" stroke="black" d="M2343.12,-357C2343.12,-357 2202.62,-357 2202.62,-357 2196.62,-357 2190.62,-351 2190.62,-345 2190.62,-345 2190.62,-298 2190.62,-298 2190.62,-292 2196.62,-286 2202.62,-286 2202.62,-286 2343.12,-286 2343.12,-286 2349.12,-286 2355.12,-292 2355.12,-298 2355.12,-298 2355.12,-345 2355.12,-345 2355.12,-351 2349.12,-357 2343.12,-357"/>
<text text-anchor="start" x="2225.25" y="-339.7" font-family="Helvetica,sans-Serif" font-size="14.00">P7_9_2_2 ≤ 0.5</text>
<text text-anchor="start" x="2198.62" y="-323.95" font-family="Helvetica,sans-Serif" font-size="14.00">squared_error = 115.591</text>
<text text-anchor="start" x="2228.25" y="-308.2" font-family="Helvetica,sans-Serif" font-size="14.00">samples = 382</text>
<text text-anchor="start" x="2232" y="-292.45" font-family="Helvetica,sans-Serif" font-size="14.00">value = 48.67</text>
</g>
<!-- 58&#45;&gt;90 -->
<g id="edge48" class="edge">
<title>58&#45;&gt;90</title>
<path fill="none" stroke="black" d="M1839.78,-410.63C1932.4,-391.78 2082.03,-361.33 2178.92,-341.62"/>
<polygon fill="black" stroke="black" points="2179.59,-345.05 2188.69,-339.63 2178.2,-338.19 2179.59,-345.05"/>
</g>
<!-- 60 -->
<g id="node35" class="node">
<title>60</title>
<path fill="#f2bf9a" stroke="black" d="M1735.75,-250C1735.75,-250 1602,-250 1602,-250 1596,-250 1590,-244 1590,-238 1590,-238 1590,-191 1590,-191 1590,-185 1596,-179 1602,-179 1602,-179 1735.75,-179 1735.75,-179 1741.75,-179 1747.75,-185 1747.75,-191 1747.75,-191 1747.75,-238 1747.75,-238 1747.75,-244 1741.75,-250 1735.75,-250"/>
<text text-anchor="start" x="1625.38" y="-232.7" font-family="Helvetica,sans-Serif" font-size="14.00">P11_3_9 ≤ 0.5</text>
<text text-anchor="start" x="1598" y="-216.95" font-family="Helvetica,sans-Serif" font-size="14.00">squared_error = 84.999</text>
<text text-anchor="start" x="1624.25" y="-201.2" font-family="Helvetica,sans-Serif" font-size="14.00">samples = 535</text>
<text text-anchor="start" x="1624.25" y="-185.45" font-family="Helvetica,sans-Serif" font-size="14.00">value = 55.306</text>
</g>
<!-- 59&#45;&gt;60 -->
<g id="edge34" class="edge">
<title>59&#45;&gt;60</title>
<path fill="none" stroke="black" d="M1727.57,-285.54C1720.45,-277.04 1712.74,-267.84 1705.33,-259"/>
<polygon fill="black" stroke="black" points="1708.13,-256.89 1699.02,-251.47 1702.76,-261.38 1708.13,-256.89"/>
</g>
<!-- 75 -->
<g id="node42" class="node">
<title>75</title>
<path fill="#eeaa7a" stroke="black" d="M1911.75,-250C1911.75,-250 1778,-250 1778,-250 1772,-250 1766,-244 1766,-238 1766,-238 1766,-191 1766,-191 1766,-185 1772,-179 1778,-179 1778,-179 1911.75,-179 1911.75,-179 1917.75,-179 1923.75,-185 1923.75,-191 1923.75,-191 1923.75,-238 1923.75,-238 1923.75,-244 1917.75,-250 1911.75,-250"/>
<text text-anchor="start" x="1804.75" y="-232.7" font-family="Helvetica,sans-Serif" font-size="14.00">P4_6_4 ≤ 1.5</text>
<text text-anchor="start" x="1774" y="-216.95" font-family="Helvetica,sans-Serif" font-size="14.00">squared_error = 83.683</text>
<text text-anchor="start" x="1800.25" y="-201.2" font-family="Helvetica,sans-Serif" font-size="14.00">samples = 353</text>
<text text-anchor="start" x="1800.25" y="-185.45" font-family="Helvetica,sans-Serif" font-size="14.00">value = 63.766</text>
</g>
<!-- 59&#45;&gt;75 -->
<g id="edge41" class="edge">
<title>59&#45;&gt;75</title>
<path fill="none" stroke="black" d="M1786.18,-285.54C1793.3,-277.04 1801.01,-267.84 1808.42,-259"/>
<polygon fill="black" stroke="black" points="1810.99,-261.38 1814.73,-251.47 1805.62,-256.89 1810.99,-261.38"/>
</g>
<!-- 61 -->
<g id="node36" class="node">
<title>61</title>
<path fill="#f0b78e" stroke="black" d="M1561.75,-143C1561.75,-143 1428,-143 1428,-143 1422,-143 1416,-137 1416,-131 1416,-131 1416,-84 1416,-84 1416,-78 1422,-72 1428,-72 1428,-72 1561.75,-72 1561.75,-72 1567.75,-72 1573.75,-78 1573.75,-84 1573.75,-84 1573.75,-131 1573.75,-131 1573.75,-137 1567.75,-143 1561.75,-143"/>
<text text-anchor="start" x="1454.75" y="-125.7" font-family="Helvetica,sans-Serif" font-size="14.00">P4_8_3 ≤ 1.5</text>
<text text-anchor="start" x="1424" y="-109.95" font-family="Helvetica,sans-Serif" font-size="14.00">squared_error = 71.582</text>
<text text-anchor="start" x="1450.25" y="-94.2" font-family="Helvetica,sans-Serif" font-size="14.00">samples = 317</text>
<text text-anchor="start" x="1457.75" y="-78.45" font-family="Helvetica,sans-Serif" font-size="14.00">value = 58.4</text>
</g>
<!-- 60&#45;&gt;61 -->
<g id="edge35" class="edge">
<title>60&#45;&gt;61</title>
<path fill="none" stroke="black" d="M1610.94,-178.54C1595.46,-169.2 1578.6,-159.03 1562.65,-149.4"/>
<polygon fill="black" stroke="black" points="1564.52,-146.44 1554.15,-144.27 1560.91,-152.44 1564.52,-146.44"/>
</g>
<!-- 68 -->
<g id="node39" class="node">
<title>68</title>
<path fill="#f4c9ab" stroke="black" d="M1737.75,-143C1737.75,-143 1604,-143 1604,-143 1598,-143 1592,-137 1592,-131 1592,-131 1592,-84 1592,-84 1592,-78 1598,-72 1604,-72 1604,-72 1737.75,-72 1737.75,-72 1743.75,-72 1749.75,-78 1749.75,-84 1749.75,-84 1749.75,-131 1749.75,-131 1749.75,-137 1743.75,-143 1737.75,-143"/>
<text text-anchor="start" x="1630.75" y="-125.7" font-family="Helvetica,sans-Serif" font-size="14.00">P4_8_2 ≤ 1.5</text>
<text text-anchor="start" x="1600" y="-109.95" font-family="Helvetica,sans-Serif" font-size="14.00">squared_error = 70.362</text>
<text text-anchor="start" x="1626.25" y="-94.2" font-family="Helvetica,sans-Serif" font-size="14.00">samples = 218</text>
<text text-anchor="start" x="1626.25" y="-78.45" font-family="Helvetica,sans-Serif" font-size="14.00">value = 50.808</text>
</g>
<!-- 60&#45;&gt;68 -->
<g id="edge38" class="edge">
<title>60&#45;&gt;68</title>
<path fill="none" stroke="black" d="M1669.54,-178.54C1669.69,-170.92 1669.84,-162.75 1669.99,-154.77"/>
<polygon fill="black" stroke="black" points="1673.49,-154.89 1670.18,-144.82 1666.49,-154.76 1673.49,-154.89"/>
</g>
<!-- 62 -->
<g id="node37" class="node">
<title>62</title>
<path fill="#c0c0c0" stroke="black" d="M1453.88,-36C1453.88,-36 1423.88,-36 1423.88,-36 1417.88,-36 1411.88,-30 1411.88,-24 1411.88,-24 1411.88,-12 1411.88,-12 1411.88,-6 1417.88,0 1423.88,0 1423.88,0 1453.88,0 1453.88,0 1459.88,0 1465.88,-6 1465.88,-12 1465.88,-12 1465.88,-24 1465.88,-24 1465.88,-30 1459.88,-36 1453.88,-36"/>
<text text-anchor="middle" x="1438.88" y="-12.57" font-family="Helvetica,sans-Serif" font-size="14.00">(...)</text>
</g>
<!-- 61&#45;&gt;62 -->
<g id="edge36" class="edge">
<title>61&#45;&gt;62</title>
<path fill="none" stroke="black" d="M1472.58,-71.67C1467.03,-62.99 1461.17,-53.83 1455.91,-45.62"/>
<polygon fill="black" stroke="black" points="1459.03,-43.99 1450.69,-37.46 1453.13,-47.77 1459.03,-43.99"/>
</g>
<!-- 65 -->
<g id="node38" class="node">
<title>65</title>
<path fill="#c0c0c0" stroke="black" d="M1525.88,-36C1525.88,-36 1495.88,-36 1495.88,-36 1489.88,-36 1483.88,-30 1483.88,-24 1483.88,-24 1483.88,-12 1483.88,-12 1483.88,-6 1489.88,0 1495.88,0 1495.88,0 1525.88,0 1525.88,0 1531.88,0 1537.88,-6 1537.88,-12 1537.88,-12 1537.88,-24 1537.88,-24 1537.88,-30 1531.88,-36 1525.88,-36"/>
<text text-anchor="middle" x="1510.88" y="-12.57" font-family="Helvetica,sans-Serif" font-size="14.00">(...)</text>
</g>
<!-- 61&#45;&gt;65 -->
<g id="edge37" class="edge">
<title>61&#45;&gt;65</title>
<path fill="none" stroke="black" d="M1501.24,-71.67C1502.73,-63.56 1504.29,-55.04 1505.71,-47.26"/>
<polygon fill="black" stroke="black" points="1509.1,-48.14 1507.46,-37.67 1502.22,-46.88 1509.1,-48.14"/>
</g>
<!-- 69 -->
<g id="node40" class="node">
<title>69</title>
<path fill="#c0c0c0" stroke="black" d="M1627.88,-36C1627.88,-36 1597.88,-36 1597.88,-36 1591.88,-36 1585.88,-30 1585.88,-24 1585.88,-24 1585.88,-12 1585.88,-12 1585.88,-6 1591.88,0 1597.88,0 1597.88,0 1627.88,0 1627.88,0 1633.88,0 1639.88,-6 1639.88,-12 1639.88,-12 1639.88,-24 1639.88,-24 1639.88,-30 1633.88,-36 1627.88,-36"/>
<text text-anchor="middle" x="1612.88" y="-12.57" font-family="Helvetica,sans-Serif" font-size="14.00">(...)</text>
</g>
<!-- 68&#45;&gt;69 -->
<g id="edge39" class="edge">
<title>68&#45;&gt;69</title>
<path fill="none" stroke="black" d="M1647.79,-71.67C1642.04,-62.99 1635.96,-53.83 1630.52,-45.62"/>
<polygon fill="black" stroke="black" points="1633.54,-43.85 1625.1,-37.44 1627.71,-47.71 1633.54,-43.85"/>
</g>
<!-- 72 -->
<g id="node41" class="node">
<title>72</title>
<path fill="#c0c0c0" stroke="black" d="M1699.88,-36C1699.88,-36 1669.88,-36 1669.88,-36 1663.88,-36 1657.88,-30 1657.88,-24 1657.88,-24 1657.88,-12 1657.88,-12 1657.88,-6 1663.88,0 1669.88,0 1669.88,0 1699.88,0 1699.88,0 1705.88,0 1711.88,-6 1711.88,-12 1711.88,-12 1711.88,-24 1711.88,-24 1711.88,-30 1705.88,-36 1699.88,-36"/>
<text text-anchor="middle" x="1684.88" y="-12.57" font-family="Helvetica,sans-Serif" font-size="14.00">(...)</text>
</g>
<!-- 68&#45;&gt;72 -->
<g id="edge40" class="edge">
<title>68&#45;&gt;72</title>
<path fill="none" stroke="black" d="M1676.45,-71.67C1677.73,-63.66 1679.08,-55.24 1680.31,-47.53"/>
<polygon fill="black" stroke="black" points="1683.76,-48.1 1681.89,-37.68 1676.85,-47 1683.76,-48.1"/>
</g>
<!-- 76 -->
<g id="node43" class="node">
<title>76</title>
<path fill="#eba06a" stroke="black" d="M1906,-143C1906,-143 1779.75,-143 1779.75,-143 1773.75,-143 1767.75,-137 1767.75,-131 1767.75,-131 1767.75,-84 1767.75,-84 1767.75,-78 1773.75,-72 1779.75,-72 1779.75,-72 1906,-72 1906,-72 1912,-72 1918,-78 1918,-84 1918,-84 1918,-131 1918,-131 1918,-137 1912,-143 1906,-143"/>
<text text-anchor="start" x="1806.5" y="-125.7" font-family="Helvetica,sans-Serif" font-size="14.00">P12_4 ≤ 2.5</text>
<text text-anchor="start" x="1775.75" y="-109.95" font-family="Helvetica,sans-Serif" font-size="14.00">squared_error = 74.99</text>
<text text-anchor="start" x="1798.25" y="-94.2" font-family="Helvetica,sans-Serif" font-size="14.00">samples = 164</text>
<text text-anchor="start" x="1798.25" y="-78.45" font-family="Helvetica,sans-Serif" font-size="14.00">value = 67.847</text>
</g>
<!-- 75&#45;&gt;76 -->
<g id="edge42" class="edge">
<title>75&#45;&gt;76</title>
<path fill="none" stroke="black" d="M1844.21,-178.54C1844.06,-170.92 1843.91,-162.75 1843.76,-154.77"/>
<polygon fill="black" stroke="black" points="1847.26,-154.76 1843.57,-144.82 1840.26,-154.89 1847.26,-154.76"/>
</g>
<!-- 83 -->
<g id="node46" class="node">
<title>83</title>
<path fill="#efb387" stroke="black" d="M2081.75,-143C2081.75,-143 1948,-143 1948,-143 1942,-143 1936,-137 1936,-131 1936,-131 1936,-84 1936,-84 1936,-78 1942,-72 1948,-72 1948,-72 2081.75,-72 2081.75,-72 2087.75,-72 2093.75,-78 2093.75,-84 2093.75,-84 2093.75,-131 2093.75,-131 2093.75,-137 2087.75,-143 2081.75,-143"/>
<text text-anchor="start" x="1971.38" y="-125.7" font-family="Helvetica,sans-Serif" font-size="14.00">P11_3_9 ≤ 0.5</text>
<text text-anchor="start" x="1944" y="-109.95" font-family="Helvetica,sans-Serif" font-size="14.00">squared_error = 64.233</text>
<text text-anchor="start" x="1970.25" y="-94.2" font-family="Helvetica,sans-Serif" font-size="14.00">samples = 189</text>
<text text-anchor="start" x="1970.25" y="-78.45" font-family="Helvetica,sans-Serif" font-size="14.00">value = 60.225</text>
</g>
<!-- 75&#45;&gt;83 -->
<g id="edge45" class="edge">
<title>75&#45;&gt;83</title>
<path fill="none" stroke="black" d="M1901.48,-178.54C1916.6,-169.2 1933.07,-159.03 1948.66,-149.4"/>
<polygon fill="black" stroke="black" points="1950.27,-152.52 1956.94,-144.29 1946.59,-146.56 1950.27,-152.52"/>
</g>
<!-- 77 -->
<g id="node44" class="node">
<title>77</title>
<path fill="#c0c0c0" stroke="black" d="M1799.88,-36C1799.88,-36 1769.88,-36 1769.88,-36 1763.88,-36 1757.88,-30 1757.88,-24 1757.88,-24 1757.88,-12 1757.88,-12 1757.88,-6 1763.88,0 1769.88,0 1769.88,0 1799.88,0 1799.88,0 1805.88,0 1811.88,-6 1811.88,-12 1811.88,-12 1811.88,-24 1811.88,-24 1811.88,-30 1805.88,-36 1799.88,-36"/>
<text text-anchor="middle" x="1784.88" y="-12.57" font-family="Helvetica,sans-Serif" font-size="14.00">(...)</text>
</g>
<!-- 76&#45;&gt;77 -->
<g id="edge43" class="edge">
<title>76&#45;&gt;77</title>
<path fill="none" stroke="black" d="M1819.79,-71.67C1814.04,-62.99 1807.96,-53.83 1802.52,-45.62"/>
<polygon fill="black" stroke="black" points="1805.54,-43.85 1797.1,-37.44 1799.71,-47.71 1805.54,-43.85"/>
</g>
<!-- 80 -->
<g id="node45" class="node">
<title>80</title>
<path fill="#c0c0c0" stroke="black" d="M1871.88,-36C1871.88,-36 1841.88,-36 1841.88,-36 1835.88,-36 1829.88,-30 1829.88,-24 1829.88,-24 1829.88,-12 1829.88,-12 1829.88,-6 1835.88,0 1841.88,0 1841.88,0 1871.88,0 1871.88,0 1877.88,0 1883.88,-6 1883.88,-12 1883.88,-12 1883.88,-24 1883.88,-24 1883.88,-30 1877.88,-36 1871.88,-36"/>
<text text-anchor="middle" x="1856.88" y="-12.57" font-family="Helvetica,sans-Serif" font-size="14.00">(...)</text>
</g>
<!-- 76&#45;&gt;80 -->
<g id="edge44" class="edge">
<title>76&#45;&gt;80</title>
<path fill="none" stroke="black" d="M1848.45,-71.67C1849.73,-63.66 1851.08,-55.24 1852.31,-47.53"/>
<polygon fill="black" stroke="black" points="1855.76,-48.1 1853.89,-37.68 1848.85,-47 1855.76,-48.1"/>
</g>
<!-- 84 -->
<g id="node47" class="node">
<title>84</title>
<path fill="#c0c0c0" stroke="black" d="M1973.88,-36C1973.88,-36 1943.88,-36 1943.88,-36 1937.88,-36 1931.88,-30 1931.88,-24 1931.88,-24 1931.88,-12 1931.88,-12 1931.88,-6 1937.88,0 1943.88,0 1943.88,0 1973.88,0 1973.88,0 1979.88,0 1985.88,-6 1985.88,-12 1985.88,-12 1985.88,-24 1985.88,-24 1985.88,-30 1979.88,-36 1973.88,-36"/>
<text text-anchor="middle" x="1958.88" y="-12.57" font-family="Helvetica,sans-Serif" font-size="14.00">(...)</text>
</g>
<!-- 83&#45;&gt;84 -->
<g id="edge46" class="edge">
<title>83&#45;&gt;84</title>
<path fill="none" stroke="black" d="M1992.58,-71.67C1987.03,-62.99 1981.17,-53.83 1975.91,-45.62"/>
<polygon fill="black" stroke="black" points="1979.03,-43.99 1970.69,-37.46 1973.13,-47.77 1979.03,-43.99"/>
</g>
<!-- 87 -->
<g id="node48" class="node">
<title>87</title>
<path fill="#c0c0c0" stroke="black" d="M2045.88,-36C2045.88,-36 2015.88,-36 2015.88,-36 2009.88,-36 2003.88,-30 2003.88,-24 2003.88,-24 2003.88,-12 2003.88,-12 2003.88,-6 2009.88,0 2015.88,0 2015.88,0 2045.88,0 2045.88,0 2051.88,0 2057.88,-6 2057.88,-12 2057.88,-12 2057.88,-24 2057.88,-24 2057.88,-30 2051.88,-36 2045.88,-36"/>
<text text-anchor="middle" x="2030.88" y="-12.57" font-family="Helvetica,sans-Serif" font-size="14.00">(...)</text>
</g>
<!-- 83&#45;&gt;87 -->
<g id="edge47" class="edge">
<title>83&#45;&gt;87</title>
<path fill="none" stroke="black" d="M2021.24,-71.67C2022.73,-63.56 2024.29,-55.04 2025.71,-47.26"/>
<polygon fill="black" stroke="black" points="2029.1,-48.14 2027.46,-37.67 2022.22,-46.88 2029.1,-48.14"/>
</g>
<!-- 91 -->
<g id="node50" class="node">
<title>91</title>
<path fill="#f2bf9a" stroke="black" d="M2339.75,-250C2339.75,-250 2206,-250 2206,-250 2200,-250 2194,-244 2194,-238 2194,-238 2194,-191 2194,-191 2194,-185 2200,-179 2206,-179 2206,-179 2339.75,-179 2339.75,-179 2345.75,-179 2351.75,-185 2351.75,-191 2351.75,-191 2351.75,-238 2351.75,-238 2351.75,-244 2345.75,-250 2339.75,-250"/>
<text text-anchor="start" x="2232.75" y="-232.7" font-family="Helvetica,sans-Serif" font-size="14.00">P4_8_1 ≤ 2.5</text>
<text text-anchor="start" x="2202" y="-216.95" font-family="Helvetica,sans-Serif" font-size="14.00">squared_error = 67.258</text>
<text text-anchor="start" x="2228.25" y="-201.2" font-family="Helvetica,sans-Serif" font-size="14.00">samples = 132</text>
<text text-anchor="start" x="2228.25" y="-185.45" font-family="Helvetica,sans-Serif" font-size="14.00">value = 55.183</text>
</g>
<!-- 90&#45;&gt;91 -->
<g id="edge49" class="edge">
<title>90&#45;&gt;91</title>
<path fill="none" stroke="black" d="M2272.88,-285.54C2272.88,-277.92 2272.88,-269.75 2272.88,-261.77"/>
<polygon fill="black" stroke="black" points="2276.38,-261.82 2272.88,-251.82 2269.38,-261.82 2276.38,-261.82"/>
</g>
<!-- 104 -->
<g id="node57" class="node">
<title>104</title>
<path fill="#f7d7c0" stroke="black" d="M2605.5,-250C2605.5,-250 2464.25,-250 2464.25,-250 2458.25,-250 2452.25,-244 2452.25,-238 2452.25,-238 2452.25,-191 2452.25,-191 2452.25,-185 2458.25,-179 2464.25,-179 2464.25,-179 2605.5,-179 2605.5,-179 2611.5,-179 2617.5,-185 2617.5,-191 2617.5,-191 2617.5,-238 2617.5,-238 2617.5,-244 2611.5,-250 2605.5,-250"/>
<text text-anchor="start" x="2498.5" y="-232.7" font-family="Helvetica,sans-Serif" font-size="14.00">P12_4 ≤ 2.5</text>
<text text-anchor="start" x="2460.25" y="-216.95" font-family="Helvetica,sans-Serif" font-size="14.00">squared_error = 106.893</text>
<text text-anchor="start" x="2490.25" y="-201.2" font-family="Helvetica,sans-Serif" font-size="14.00">samples = 250</text>
<text text-anchor="start" x="2490.25" y="-185.45" font-family="Helvetica,sans-Serif" font-size="14.00">value = 45.232</text>
</g>
<!-- 90&#45;&gt;104 -->
<g id="edge56" class="edge">
<title>90&#45;&gt;104</title>
<path fill="none" stroke="black" d="M2355.41,-287.42C2382.68,-276.49 2413.21,-264.26 2441.24,-253.03"/>
<polygon fill="black" stroke="black" points="2442.47,-256.31 2450.45,-249.34 2439.86,-249.81 2442.47,-256.31"/>
</g>
<!-- 92 -->
<g id="node51" class="node">
<title>92</title>
<path fill="#f3c5a3" stroke="black" d="M2257.75,-143C2257.75,-143 2124,-143 2124,-143 2118,-143 2112,-137 2112,-131 2112,-131 2112,-84 2112,-84 2112,-78 2118,-72 2124,-72 2124,-72 2257.75,-72 2257.75,-72 2263.75,-72 2269.75,-78 2269.75,-84 2269.75,-84 2269.75,-131 2269.75,-131 2269.75,-137 2263.75,-143 2257.75,-143"/>
<text text-anchor="start" x="2147.38" y="-125.7" font-family="Helvetica,sans-Serif" font-size="14.00">P11_3_2 ≤ 0.5</text>
<text text-anchor="start" x="2120" y="-109.95" font-family="Helvetica,sans-Serif" font-size="14.00">squared_error = 53.732</text>
<text text-anchor="start" x="2150" y="-94.2" font-family="Helvetica,sans-Serif" font-size="14.00">samples = 88</text>
<text text-anchor="start" x="2146.25" y="-78.45" font-family="Helvetica,sans-Serif" font-size="14.00">value = 52.868</text>
</g>
<!-- 91&#45;&gt;92 -->
<g id="edge50" class="edge">
<title>91&#45;&gt;92</title>
<path fill="none" stroke="black" d="M2245.57,-178.54C2239,-170.12 2231.9,-161.03 2225.06,-152.27"/>
<polygon fill="black" stroke="black" points="2227.91,-150.23 2218.99,-144.5 2222.39,-154.54 2227.91,-150.23"/>
</g>
<!-- 99 -->
<g id="node54" class="node">
<title>99</title>
<path fill="#efb489" stroke="black" d="M2426,-143C2426,-143 2299.75,-143 2299.75,-143 2293.75,-143 2287.75,-137 2287.75,-131 2287.75,-131 2287.75,-84 2287.75,-84 2287.75,-78 2293.75,-72 2299.75,-72 2299.75,-72 2426,-72 2426,-72 2432,-72 2438,-78 2438,-84 2438,-84 2438,-131 2438,-131 2438,-137 2432,-143 2426,-143"/>
<text text-anchor="start" x="2322.75" y="-125.7" font-family="Helvetica,sans-Serif" font-size="14.00">P4_6_4 ≤ 1.5</text>
<text text-anchor="start" x="2295.75" y="-109.95" font-family="Helvetica,sans-Serif" font-size="14.00">squared_error = 62.16</text>
<text text-anchor="start" x="2322" y="-94.2" font-family="Helvetica,sans-Serif" font-size="14.00">samples = 44</text>
<text text-anchor="start" x="2318.25" y="-78.45" font-family="Helvetica,sans-Serif" font-size="14.00">value = 59.812</text>
</g>
<!-- 91&#45;&gt;99 -->
<g id="edge53" class="edge">
<title>91&#45;&gt;99</title>
<path fill="none" stroke="black" d="M2302.84,-178.54C2310.13,-170.04 2318.01,-160.84 2325.59,-152"/>
<polygon fill="black" stroke="black" points="2328.2,-154.33 2332.05,-144.46 2322.89,-149.77 2328.2,-154.33"/>
</g>
<!-- 93 -->
<g id="node52" class="node">
<title>93</title>
<path fill="#c0c0c0" stroke="black" d="M2147.88,-36C2147.88,-36 2117.88,-36 2117.88,-36 2111.88,-36 2105.88,-30 2105.88,-24 2105.88,-24 2105.88,-12 2105.88,-12 2105.88,-6 2111.88,0 2117.88,0 2117.88,0 2147.88,0 2147.88,0 2153.88,0 2159.88,-6 2159.88,-12 2159.88,-12 2159.88,-24 2159.88,-24 2159.88,-30 2153.88,-36 2147.88,-36"/>
<text text-anchor="middle" x="2132.88" y="-12.57" font-family="Helvetica,sans-Serif" font-size="14.00">(...)</text>
</g>
<!-- 92&#45;&gt;93 -->
<g id="edge51" class="edge">
<title>92&#45;&gt;93</title>
<path fill="none" stroke="black" d="M2167.79,-71.67C2162.04,-62.99 2155.96,-53.83 2150.52,-45.62"/>
<polygon fill="black" stroke="black" points="2153.54,-43.85 2145.1,-37.44 2147.71,-47.71 2153.54,-43.85"/>
</g>
<!-- 96 -->
<g id="node53" class="node">
<title>96</title>
<path fill="#c0c0c0" stroke="black" d="M2219.88,-36C2219.88,-36 2189.88,-36 2189.88,-36 2183.88,-36 2177.88,-30 2177.88,-24 2177.88,-24 2177.88,-12 2177.88,-12 2177.88,-6 2183.88,0 2189.88,0 2189.88,0 2219.88,0 2219.88,0 2225.88,0 2231.88,-6 2231.88,-12 2231.88,-12 2231.88,-24 2231.88,-24 2231.88,-30 2225.88,-36 2219.88,-36"/>
<text text-anchor="middle" x="2204.88" y="-12.57" font-family="Helvetica,sans-Serif" font-size="14.00">(...)</text>
</g>
<!-- 92&#45;&gt;96 -->
<g id="edge52" class="edge">
<title>92&#45;&gt;96</title>
<path fill="none" stroke="black" d="M2196.45,-71.67C2197.73,-63.66 2199.08,-55.24 2200.31,-47.53"/>
<polygon fill="black" stroke="black" points="2203.76,-48.1 2201.89,-37.68 2196.85,-47 2203.76,-48.1"/>
</g>
<!-- 100 -->
<g id="node55" class="node">
<title>100</title>
<path fill="#c0c0c0" stroke="black" d="M2319.88,-36C2319.88,-36 2289.88,-36 2289.88,-36 2283.88,-36 2277.88,-30 2277.88,-24 2277.88,-24 2277.88,-12 2277.88,-12 2277.88,-6 2283.88,0 2289.88,0 2289.88,0 2319.88,0 2319.88,0 2325.88,0 2331.88,-6 2331.88,-12 2331.88,-12 2331.88,-24 2331.88,-24 2331.88,-30 2325.88,-36 2319.88,-36"/>
<text text-anchor="middle" x="2304.88" y="-12.57" font-family="Helvetica,sans-Serif" font-size="14.00">(...)</text>
</g>
<!-- 99&#45;&gt;100 -->
<g id="edge54" class="edge">
<title>99&#45;&gt;100</title>
<path fill="none" stroke="black" d="M2339.79,-71.67C2334.04,-62.99 2327.96,-53.83 2322.52,-45.62"/>
<polygon fill="black" stroke="black" points="2325.54,-43.85 2317.1,-37.44 2319.71,-47.71 2325.54,-43.85"/>
</g>
<!-- 101 -->
<g id="node56" class="node">
<title>101</title>
<path fill="#c0c0c0" stroke="black" d="M2391.88,-36C2391.88,-36 2361.88,-36 2361.88,-36 2355.88,-36 2349.88,-30 2349.88,-24 2349.88,-24 2349.88,-12 2349.88,-12 2349.88,-6 2355.88,0 2361.88,0 2361.88,0 2391.88,0 2391.88,0 2397.88,0 2403.88,-6 2403.88,-12 2403.88,-12 2403.88,-24 2403.88,-24 2403.88,-30 2397.88,-36 2391.88,-36"/>
<text text-anchor="middle" x="2376.88" y="-12.57" font-family="Helvetica,sans-Serif" font-size="14.00">(...)</text>
</g>
<!-- 99&#45;&gt;101 -->
<g id="edge55" class="edge">
<title>99&#45;&gt;101</title>
<path fill="none" stroke="black" d="M2368.45,-71.67C2369.73,-63.66 2371.08,-55.24 2372.31,-47.53"/>
<polygon fill="black" stroke="black" points="2375.76,-48.1 2373.89,-37.68 2368.85,-47 2375.76,-48.1"/>
</g>
<!-- 105 -->
<g id="node58" class="node">
<title>105</title>
<path fill="#fbebdf" stroke="black" d="M2601.75,-143C2601.75,-143 2468,-143 2468,-143 2462,-143 2456,-137 2456,-131 2456,-131 2456,-84 2456,-84 2456,-78 2462,-72 2468,-72 2468,-72 2601.75,-72 2601.75,-72 2607.75,-72 2613.75,-78 2613.75,-84 2613.75,-84 2613.75,-131 2613.75,-131 2613.75,-137 2607.75,-143 2601.75,-143"/>
<text text-anchor="start" x="2494.75" y="-125.7" font-family="Helvetica,sans-Serif" font-size="14.00">P4_7_2 ≤ 1.5</text>
<text text-anchor="start" x="2464" y="-109.95" font-family="Helvetica,sans-Serif" font-size="14.00">squared_error = 58.229</text>
<text text-anchor="start" x="2494" y="-94.2" font-family="Helvetica,sans-Serif" font-size="14.00">samples = 56</text>
<text text-anchor="start" x="2490.25" y="-78.45" font-family="Helvetica,sans-Serif" font-size="14.00">value = 37.018</text>
</g>
<!-- 104&#45;&gt;105 -->
<g id="edge57" class="edge">
<title>104&#45;&gt;105</title>
<path fill="none" stroke="black" d="M2534.88,-178.54C2534.88,-170.92 2534.88,-162.75 2534.88,-154.77"/>
<polygon fill="black" stroke="black" points="2538.38,-154.82 2534.88,-144.82 2531.38,-154.82 2538.38,-154.82"/>
</g>
<!-- 112 -->
<g id="node61" class="node">
<title>112</title>
<path fill="#f6d1b7" stroke="black" d="M2777.75,-143C2777.75,-143 2644,-143 2644,-143 2638,-143 2632,-137 2632,-131 2632,-131 2632,-84 2632,-84 2632,-78 2638,-72 2644,-72 2644,-72 2777.75,-72 2777.75,-72 2783.75,-72 2789.75,-78 2789.75,-84 2789.75,-84 2789.75,-131 2789.75,-131 2789.75,-137 2783.75,-143 2777.75,-143"/>
<text text-anchor="start" x="2670.75" y="-125.7" font-family="Helvetica,sans-Serif" font-size="14.00">P4_7_2 ≤ 1.5</text>
<text text-anchor="start" x="2640" y="-109.95" font-family="Helvetica,sans-Serif" font-size="14.00">squared_error = 95.846</text>
<text text-anchor="start" x="2666.25" y="-94.2" font-family="Helvetica,sans-Serif" font-size="14.00">samples = 194</text>
<text text-anchor="start" x="2666.25" y="-78.45" font-family="Helvetica,sans-Serif" font-size="14.00">value = 47.603</text>
</g>
<!-- 104&#45;&gt;112 -->
<g id="edge60" class="edge">
<title>104&#45;&gt;112</title>
<path fill="none" stroke="black" d="M2593.48,-178.54C2609.28,-169.11 2626.51,-158.83 2642.78,-149.13"/>
<polygon fill="black" stroke="black" points="2644.13,-152.39 2650.93,-144.27 2640.54,-146.38 2644.13,-152.39"/>
</g>
<!-- 106 -->
<g id="node59" class="node">
<title>106</title>
<path fill="#c0c0c0" stroke="black" d="M2511.88,-36C2511.88,-36 2481.88,-36 2481.88,-36 2475.88,-36 2469.88,-30 2469.88,-24 2469.88,-24 2469.88,-12 2469.88,-12 2469.88,-6 2475.88,0 2481.88,0 2481.88,0 2511.88,0 2511.88,0 2517.88,0 2523.88,-6 2523.88,-12 2523.88,-12 2523.88,-24 2523.88,-24 2523.88,-30 2517.88,-36 2511.88,-36"/>
<text text-anchor="middle" x="2496.88" y="-12.57" font-family="Helvetica,sans-Serif" font-size="14.00">(...)</text>
</g>
<!-- 105&#45;&gt;106 -->
<g id="edge58" class="edge">
<title>105&#45;&gt;106</title>
<path fill="none" stroke="black" d="M2519.75,-71.67C2516.15,-63.37 2512.35,-54.63 2508.91,-46.71"/>
<polygon fill="black" stroke="black" points="2512.13,-45.35 2504.94,-37.57 2505.71,-48.14 2512.13,-45.35"/>
</g>
<!-- 109 -->
<g id="node60" class="node">
<title>109</title>
<path fill="#c0c0c0" stroke="black" d="M2583.88,-36C2583.88,-36 2553.88,-36 2553.88,-36 2547.88,-36 2541.88,-30 2541.88,-24 2541.88,-24 2541.88,-12 2541.88,-12 2541.88,-6 2547.88,0 2553.88,0 2553.88,0 2583.88,0 2583.88,0 2589.88,0 2595.88,-6 2595.88,-12 2595.88,-12 2595.88,-24 2595.88,-24 2595.88,-30 2589.88,-36 2583.88,-36"/>
<text text-anchor="middle" x="2568.88" y="-12.57" font-family="Helvetica,sans-Serif" font-size="14.00">(...)</text>
</g>
<!-- 105&#45;&gt;109 -->
<g id="edge59" class="edge">
<title>105&#45;&gt;109</title>
<path fill="none" stroke="black" d="M2548.41,-71.67C2551.63,-63.37 2555.03,-54.63 2558.11,-46.71"/>
<polygon fill="black" stroke="black" points="2561.29,-48.18 2561.65,-37.59 2554.77,-45.65 2561.29,-48.18"/>
</g>
<!-- 113 -->
<g id="node62" class="node">
<title>113</title>
<path fill="#c0c0c0" stroke="black" d="M2689.88,-36C2689.88,-36 2659.88,-36 2659.88,-36 2653.88,-36 2647.88,-30 2647.88,-24 2647.88,-24 2647.88,-12 2647.88,-12 2647.88,-6 2653.88,0 2659.88,0 2659.88,0 2689.88,0 2689.88,0 2695.88,0 2701.88,-6 2701.88,-12 2701.88,-12 2701.88,-24 2701.88,-24 2701.88,-30 2695.88,-36 2689.88,-36"/>
<text text-anchor="middle" x="2674.88" y="-12.57" font-family="Helvetica,sans-Serif" font-size="14.00">(...)</text>
</g>
<!-- 112&#45;&gt;113 -->
<g id="edge61" class="edge">
<title>112&#45;&gt;113</title>
<path fill="none" stroke="black" d="M2696.54,-71.67C2693.13,-63.37 2689.54,-54.63 2686.28,-46.71"/>
<polygon fill="black" stroke="black" points="2689.56,-45.5 2682.52,-37.58 2683.09,-48.16 2689.56,-45.5"/>
</g>
<!-- 116 -->
<g id="node63" class="node">
<title>116</title>
<path fill="#c0c0c0" stroke="black" d="M2761.88,-36C2761.88,-36 2731.88,-36 2731.88,-36 2725.88,-36 2719.88,-30 2719.88,-24 2719.88,-24 2719.88,-12 2719.88,-12 2719.88,-6 2725.88,0 2731.88,0 2731.88,0 2761.88,0 2761.88,0 2767.88,0 2773.88,-6 2773.88,-12 2773.88,-12 2773.88,-24 2773.88,-24 2773.88,-30 2767.88,-36 2761.88,-36"/>
<text text-anchor="middle" x="2746.88" y="-12.57" font-family="Helvetica,sans-Serif" font-size="14.00">(...)</text>
</g>
<!-- 112&#45;&gt;116 -->
<g id="edge62" class="edge">
<title>112&#45;&gt;116</title>
<path fill="none" stroke="black" d="M2725.21,-71.67C2728.62,-63.37 2732.21,-54.63 2735.47,-46.71"/>
<polygon fill="black" stroke="black" points="2738.66,-48.16 2739.23,-37.58 2732.19,-45.5 2738.66,-48.16"/>
</g>
</g>
</svg>
