<?xml version="1.0" encoding="UTF-8" standalone="no"?>
<!DOCTYPE svg PUBLIC "-//W3C//DTD SVG 1.1//EN"
 "http://www.w3.org/Graphics/SVG/1.1/DTD/svg11.dtd">
<!-- Generated by graphviz version 12.2.1 (20241206.2353)
 -->
<!-- Title: Tree Pages: 1 -->
<svg width="2794pt" height="579pt"
 viewBox="0.00 0.00 2794.38 579.00" xmlns="http://www.w3.org/2000/svg" xmlns:xlink="http://www.w3.org/1999/xlink">
<g id="graph0" class="graph" transform="scale(1 1) rotate(0) translate(4 575)">
<title>Tree</title>
<polygon fill="white" stroke="none" points="-4,4 -4,-575 2790.38,-575 2790.38,4 -4,4"/>
<!-- 0 -->
<g id="node1" class="node">
<title>0</title>
<path fill="#f2c29f" stroke="black" d="M1461.5,-571C1461.5,-571 1320.25,-571 1320.25,-571 1314.25,-571 1308.25,-565 1308.25,-559 1308.25,-559 1308.25,-512 1308.25,-512 1308.25,-506 1314.25,-500 1320.25,-500 1320.25,-500 1461.5,-500 1461.5,-500 1467.5,-500 1473.5,-506 1473.5,-512 1473.5,-512 1473.5,-559 1473.5,-559 1473.5,-565 1467.5,-571 1461.5,-571"/>
<text text-anchor="start" x="1350.75" y="-553.7" font-family="Helvetica,sans-Serif" font-size="14.00">P4_8_3 ≤ 1.5</text>
<text text-anchor="start" x="1316.25" y="-537.95" font-family="Helvetica,sans-Serif" font-size="14.00">squared_error = 157.466</text>
<text text-anchor="start" x="1342.5" y="-522.2" font-family="Helvetica,sans-Serif" font-size="14.00">samples = 4969</text>
<text text-anchor="start" x="1346.25" y="-506.45" font-family="Helvetica,sans-Serif" font-size="14.00">value = 56.828</text>
</g>
<!-- 1 -->
<g id="node2" class="node">
<title>1</title>
<path fill="#f0b58b" stroke="black" d="M1109.5,-464C1109.5,-464 968.25,-464 968.25,-464 962.25,-464 956.25,-458 956.25,-452 956.25,-452 956.25,-405 956.25,-405 956.25,-399 962.25,-393 968.25,-393 968.25,-393 1109.5,-393 1109.5,-393 1115.5,-393 1121.5,-399 1121.5,-405 1121.5,-405 1121.5,-452 1121.5,-452 1121.5,-458 1115.5,-464 1109.5,-464"/>
<text text-anchor="start" x="998.75" y="-446.7" font-family="Helvetica,sans-Serif" font-size="14.00">P4_8_2 ≤ 1.5</text>
<text text-anchor="start" x="964.25" y="-430.95" font-family="Helvetica,sans-Serif" font-size="14.00">squared_error = 134.975</text>
<text text-anchor="start" x="990.5" y="-415.2" font-family="Helvetica,sans-Serif" font-size="14.00">samples = 2410</text>
<text text-anchor="start" x="994.25" y="-399.45" font-family="Helvetica,sans-Serif" font-size="14.00">value = 62.566</text>
</g>
<!-- 0&#45;&gt;1 -->
<g id="edge1" class="edge">
<title>0&#45;&gt;1</title>
<path fill="none" stroke="black" d="M1307.9,-509.75C1255.31,-494.06 1187.16,-473.73 1132.62,-457.46"/>
<polygon fill="black" stroke="black" points="1133.93,-454.2 1123.35,-454.7 1131.93,-460.91 1133.93,-454.2"/>
<text text-anchor="middle" x="1133.79" y="-470.83" font-family="Helvetica,sans-Serif" font-size="14.00">True</text>
</g>
<!-- 322 -->
<g id="node33" class="node">
<title>322</title>
<path fill="#f5ceb2" stroke="black" d="M1813.12,-464C1813.12,-464 1672.62,-464 1672.62,-464 1666.62,-464 1660.62,-458 1660.62,-452 1660.62,-452 1660.62,-405 1660.62,-405 1660.62,-399 1666.62,-393 1672.62,-393 1672.62,-393 1813.12,-393 1813.12,-393 1819.12,-393 1825.12,-399 1825.12,-405 1825.12,-405 1825.12,-452 1825.12,-452 1825.12,-458 1819.12,-464 1813.12,-464"/>
<text text-anchor="start" x="1702.75" y="-446.7" font-family="Helvetica,sans-Serif" font-size="14.00">P4_6_1 ≤ 1.5</text>
<text text-anchor="start" x="1668.62" y="-430.95" font-family="Helvetica,sans-Serif" font-size="14.00">squared_error = 118.441</text>
<text text-anchor="start" x="1694.5" y="-415.2" font-family="Helvetica,sans-Serif" font-size="14.00">samples = 2559</text>
<text text-anchor="start" x="1698.25" y="-399.45" font-family="Helvetica,sans-Serif" font-size="14.00">value = 51.424</text>
</g>
<!-- 0&#45;&gt;322 -->
<g id="edge32" class="edge">
<title>0&#45;&gt;322</title>
<path fill="none" stroke="black" d="M1473.85,-509.75C1526.54,-494.03 1594.83,-473.66 1649.43,-457.38"/>
<polygon fill="black" stroke="black" points="1650.12,-460.82 1658.7,-454.61 1648.12,-454.11 1650.12,-460.82"/>
<text text-anchor="middle" x="1648.27" y="-470.74" font-family="Helvetica,sans-Serif" font-size="14.00">False</text>
</g>
<!-- 2 -->
<g id="node3" class="node">
<title>2</title>
<path fill="#f3c4a2" stroke="black" d="M583.5,-357C583.5,-357 442.25,-357 442.25,-357 436.25,-357 430.25,-351 430.25,-345 430.25,-345 430.25,-298 430.25,-298 430.25,-292 436.25,-286 442.25,-286 442.25,-286 583.5,-286 583.5,-286 589.5,-286 595.5,-292 595.5,-298 595.5,-298 595.5,-345 595.5,-345 595.5,-351 589.5,-357 583.5,-357"/>
<text text-anchor="start" x="480.25" y="-339.7" font-family="Helvetica,sans-Serif" font-size="14.00">P4_1 ≤ 0.5</text>
<text text-anchor="start" x="438.25" y="-323.95" font-family="Helvetica,sans-Serif" font-size="14.00">squared_error = 105.159</text>
<text text-anchor="start" x="468.25" y="-308.2" font-family="Helvetica,sans-Serif" font-size="14.00">samples = 951</text>
<text text-anchor="start" x="468.25" y="-292.45" font-family="Helvetica,sans-Serif" font-size="14.00">value = 56.123</text>
</g>
<!-- 1&#45;&gt;2 -->
<g id="edge2" class="edge">
<title>1&#45;&gt;2</title>
<path fill="none" stroke="black" d="M955.82,-410.92C861.04,-392 706.37,-361.13 607.15,-341.32"/>
<polygon fill="black" stroke="black" points="607.9,-337.9 597.41,-339.38 606.53,-344.77 607.9,-337.9"/>
</g>
<!-- 143 -->
<g id="node18" class="node">
<title>143</title>
<path fill="#eeac7d" stroke="black" d="M1109.5,-357C1109.5,-357 968.25,-357 968.25,-357 962.25,-357 956.25,-351 956.25,-345 956.25,-345 956.25,-298 956.25,-298 956.25,-292 962.25,-286 968.25,-286 968.25,-286 1109.5,-286 1109.5,-286 1115.5,-286 1121.5,-292 1121.5,-298 1121.5,-298 1121.5,-345 1121.5,-345 1121.5,-351 1115.5,-357 1109.5,-357"/>
<text text-anchor="start" x="1006.25" y="-339.7" font-family="Helvetica,sans-Serif" font-size="14.00">P4_1 ≤ 0.5</text>
<text text-anchor="start" x="964.25" y="-323.95" font-family="Helvetica,sans-Serif" font-size="14.00">squared_error = 109.715</text>
<text text-anchor="start" x="990.5" y="-308.2" font-family="Helvetica,sans-Serif" font-size="14.00">samples = 1459</text>
<text text-anchor="start" x="994.25" y="-292.45" font-family="Helvetica,sans-Serif" font-size="14.00">value = 66.766</text>
</g>
<!-- 1&#45;&gt;143 -->
<g id="edge17" class="edge">
<title>1&#45;&gt;143</title>
<path fill="none" stroke="black" d="M1038.88,-392.54C1038.88,-384.92 1038.88,-376.75 1038.88,-368.77"/>
<polygon fill="black" stroke="black" points="1042.38,-368.82 1038.88,-358.82 1035.38,-368.82 1042.38,-368.82"/>
</g>
<!-- 3 -->
<g id="node4" class="node">
<title>3</title>
<path fill="#f0b68d" stroke="black" d="M317.75,-250C317.75,-250 184,-250 184,-250 178,-250 172,-244 172,-238 172,-238 172,-191 172,-191 172,-185 178,-179 184,-179 184,-179 317.75,-179 317.75,-179 323.75,-179 329.75,-185 329.75,-191 329.75,-191 329.75,-238 329.75,-238 329.75,-244 323.75,-250 317.75,-250"/>
<text text-anchor="start" x="210.75" y="-232.7" font-family="Helvetica,sans-Serif" font-size="14.00">P4_6_4 ≤ 1.5</text>
<text text-anchor="start" x="180" y="-216.95" font-family="Helvetica,sans-Serif" font-size="14.00">squared_error = 90.913</text>
<text text-anchor="start" x="206.25" y="-201.2" font-family="Helvetica,sans-Serif" font-size="14.00">samples = 282</text>
<text text-anchor="start" x="206.25" y="-185.45" font-family="Helvetica,sans-Serif" font-size="14.00">value = 62.226</text>
</g>
<!-- 2&#45;&gt;3 -->
<g id="edge3" class="edge">
<title>2&#45;&gt;3</title>
<path fill="none" stroke="black" d="M429.98,-287.28C401.54,-275.88 369.58,-263.07 340.63,-251.47"/>
<polygon fill="black" stroke="black" points="342.09,-248.29 331.51,-247.82 339.49,-254.78 342.09,-248.29"/>
</g>
<!-- 50 -->
<g id="node11" class="node">
<title>50</title>
<path fill="#f4c9ab" stroke="black" d="M579.75,-250C579.75,-250 446,-250 446,-250 440,-250 434,-244 434,-238 434,-238 434,-191 434,-191 434,-185 440,-179 446,-179 446,-179 579.75,-179 579.75,-179 585.75,-179 591.75,-185 591.75,-191 591.75,-191 591.75,-238 591.75,-238 591.75,-244 585.75,-250 579.75,-250"/>
<text text-anchor="start" x="469.38" y="-232.7" font-family="Helvetica,sans-Serif" font-size="14.00">P11_3_9 ≤ 0.5</text>
<text text-anchor="start" x="442" y="-216.95" font-family="Helvetica,sans-Serif" font-size="14.00">squared_error = 88.849</text>
<text text-anchor="start" x="468.25" y="-201.2" font-family="Helvetica,sans-Serif" font-size="14.00">samples = 669</text>
<text text-anchor="start" x="468.25" y="-185.45" font-family="Helvetica,sans-Serif" font-size="14.00">value = 53.551</text>
</g>
<!-- 2&#45;&gt;50 -->
<g id="edge10" class="edge">
<title>2&#45;&gt;50</title>
<path fill="none" stroke="black" d="M512.88,-285.54C512.88,-277.92 512.88,-269.75 512.88,-261.77"/>
<polygon fill="black" stroke="black" points="516.38,-261.82 512.88,-251.82 509.38,-261.82 516.38,-261.82"/>
</g>
<!-- 4 -->
<g id="node5" class="node">
<title>4</title>
<path fill="#eeae80" stroke="black" d="M145.75,-143C145.75,-143 12,-143 12,-143 6,-143 0,-137 0,-131 0,-131 0,-84 0,-84 0,-78 6,-72 12,-72 12,-72 145.75,-72 145.75,-72 151.75,-72 157.75,-78 157.75,-84 157.75,-84 157.75,-131 157.75,-131 157.75,-137 151.75,-143 145.75,-143"/>
<text text-anchor="start" x="38.75" y="-125.7" font-family="Helvetica,sans-Serif" font-size="14.00">P4_8_1 ≤ 2.5</text>
<text text-anchor="start" x="8" y="-109.95" font-family="Helvetica,sans-Serif" font-size="14.00">squared_error = 67.035</text>
<text text-anchor="start" x="34.25" y="-94.2" font-family="Helvetica,sans-Serif" font-size="14.00">samples = 167</text>
<text text-anchor="start" x="34.25" y="-78.45" font-family="Helvetica,sans-Serif" font-size="14.00">value = 65.783</text>
</g>
<!-- 3&#45;&gt;4 -->
<g id="edge4" class="edge">
<title>3&#45;&gt;4</title>
<path fill="none" stroke="black" d="M193.6,-178.54C178.31,-169.2 161.64,-159.03 145.87,-149.4"/>
<polygon fill="black" stroke="black" points="147.84,-146.5 137.48,-144.28 144.19,-152.48 147.84,-146.5"/>
</g>
<!-- 31 -->
<g id="node8" class="node">
<title>31</title>
<path fill="#f2c29f" stroke="black" d="M314,-143C314,-143 187.75,-143 187.75,-143 181.75,-143 175.75,-137 175.75,-131 175.75,-131 175.75,-84 175.75,-84 175.75,-78 181.75,-72 187.75,-72 187.75,-72 314,-72 314,-72 320,-72 326,-78 326,-84 326,-84 326,-131 326,-131 326,-137 320,-143 314,-143"/>
<text text-anchor="start" x="210.75" y="-125.7" font-family="Helvetica,sans-Serif" font-size="14.00">P4_8_1 ≤ 1.5</text>
<text text-anchor="start" x="183.75" y="-109.95" font-family="Helvetica,sans-Serif" font-size="14.00">squared_error = 80.53</text>
<text text-anchor="start" x="206.62" y="-94.2" font-family="Helvetica,sans-Serif" font-size="14.00">samples = 115</text>
<text text-anchor="start" x="210" y="-78.45" font-family="Helvetica,sans-Serif" font-size="14.00">value = 57.06</text>
</g>
<!-- 3&#45;&gt;31 -->
<g id="edge7" class="edge">
<title>3&#45;&gt;31</title>
<path fill="none" stroke="black" d="M250.88,-178.54C250.88,-170.92 250.88,-162.75 250.88,-154.77"/>
<polygon fill="black" stroke="black" points="254.38,-154.82 250.88,-144.82 247.38,-154.82 254.38,-154.82"/>
</g>
<!-- 5 -->
<g id="node6" class="node">
<title>5</title>
<path fill="#c0c0c0" stroke="black" d="M57.88,-36C57.88,-36 27.88,-36 27.88,-36 21.88,-36 15.88,-30 15.88,-24 15.88,-24 15.88,-12 15.88,-12 15.88,-6 21.88,0 27.88,0 27.88,0 57.88,0 57.88,0 63.88,0 69.88,-6 69.88,-12 69.88,-12 69.88,-24 69.88,-24 69.88,-30 63.88,-36 57.88,-36"/>
<text text-anchor="middle" x="42.88" y="-12.57" font-family="Helvetica,sans-Serif" font-size="14.00">(...)</text>
</g>
<!-- 4&#45;&gt;5 -->
<g id="edge5" class="edge">
<title>4&#45;&gt;5</title>
<path fill="none" stroke="black" d="M64.54,-71.67C61.13,-63.37 57.54,-54.63 54.28,-46.71"/>
<polygon fill="black" stroke="black" points="57.56,-45.5 50.52,-37.58 51.09,-48.16 57.56,-45.5"/>
</g>
<!-- 24 -->
<g id="node7" class="node">
<title>24</title>
<path fill="#c0c0c0" stroke="black" d="M129.88,-36C129.88,-36 99.88,-36 99.88,-36 93.88,-36 87.88,-30 87.88,-24 87.88,-24 87.88,-12 87.88,-12 87.88,-6 93.88,0 99.88,0 99.88,0 129.88,0 129.88,0 135.88,0 141.88,-6 141.88,-12 141.88,-12 141.88,-24 141.88,-24 141.88,-30 135.88,-36 129.88,-36"/>
<text text-anchor="middle" x="114.88" y="-12.57" font-family="Helvetica,sans-Serif" font-size="14.00">(...)</text>
</g>
<!-- 4&#45;&gt;24 -->
<g id="edge6" class="edge">
<title>4&#45;&gt;24</title>
<path fill="none" stroke="black" d="M93.21,-71.67C96.62,-63.37 100.21,-54.63 103.47,-46.71"/>
<polygon fill="black" stroke="black" points="106.66,-48.16 107.23,-37.58 100.19,-45.5 106.66,-48.16"/>
</g>
<!-- 32 -->
<g id="node9" class="node">
<title>32</title>
<path fill="#c0c0c0" stroke="black" d="M233.88,-36C233.88,-36 203.88,-36 203.88,-36 197.88,-36 191.88,-30 191.88,-24 191.88,-24 191.88,-12 191.88,-12 191.88,-6 197.88,0 203.88,0 203.88,0 233.88,0 233.88,0 239.88,0 245.88,-6 245.88,-12 245.88,-12 245.88,-24 245.88,-24 245.88,-30 239.88,-36 233.88,-36"/>
<text text-anchor="middle" x="218.88" y="-12.57" font-family="Helvetica,sans-Serif" font-size="14.00">(...)</text>
</g>
<!-- 31&#45;&gt;32 -->
<g id="edge8" class="edge">
<title>31&#45;&gt;32</title>
<path fill="none" stroke="black" d="M238.14,-71.67C235.14,-63.47 231.98,-54.84 229.11,-46.98"/>
<polygon fill="black" stroke="black" points="232.4,-45.79 225.68,-37.6 225.83,-48.2 232.4,-45.79"/>
</g>
<!-- 43 -->
<g id="node10" class="node">
<title>43</title>
<path fill="#c0c0c0" stroke="black" d="M305.88,-36C305.88,-36 275.88,-36 275.88,-36 269.88,-36 263.88,-30 263.88,-24 263.88,-24 263.88,-12 263.88,-12 263.88,-6 269.88,0 275.88,0 275.88,0 305.88,0 305.88,0 311.88,0 317.88,-6 317.88,-12 317.88,-12 317.88,-24 317.88,-24 317.88,-30 311.88,-36 305.88,-36"/>
<text text-anchor="middle" x="290.88" y="-12.57" font-family="Helvetica,sans-Serif" font-size="14.00">(...)</text>
</g>
<!-- 31&#45;&gt;43 -->
<g id="edge9" class="edge">
<title>31&#45;&gt;43</title>
<path fill="none" stroke="black" d="M266.8,-71.67C270.63,-63.28 274.68,-54.43 278.33,-46.44"/>
<polygon fill="black" stroke="black" points="281.42,-48.11 282.39,-37.56 275.05,-45.2 281.42,-48.11"/>
</g>
<!-- 51 -->
<g id="node12" class="node">
<title>51</title>
<path fill="#f3c3a1" stroke="black" d="M489.75,-143C489.75,-143 356,-143 356,-143 350,-143 344,-137 344,-131 344,-131 344,-84 344,-84 344,-78 350,-72 356,-72 356,-72 489.75,-72 489.75,-72 495.75,-72 501.75,-78 501.75,-84 501.75,-84 501.75,-131 501.75,-131 501.75,-137 495.75,-143 489.75,-143"/>
<text text-anchor="start" x="382.75" y="-125.7" font-family="Helvetica,sans-Serif" font-size="14.00">P4_6_3 ≤ 1.5</text>
<text text-anchor="start" x="352" y="-109.95" font-family="Helvetica,sans-Serif" font-size="14.00">squared_error = 83.261</text>
<text text-anchor="start" x="378.25" y="-94.2" font-family="Helvetica,sans-Serif" font-size="14.00">samples = 404</text>
<text text-anchor="start" x="378.25" y="-78.45" font-family="Helvetica,sans-Serif" font-size="14.00">value = 56.306</text>
</g>
<!-- 50&#45;&gt;51 -->
<g id="edge11" class="edge">
<title>50&#45;&gt;51</title>
<path fill="none" stroke="black" d="M482.91,-178.54C475.62,-170.04 467.74,-160.84 460.16,-152"/>
<polygon fill="black" stroke="black" points="462.86,-149.77 453.7,-144.46 457.55,-154.33 462.86,-149.77"/>
</g>
<!-- 104 -->
<g id="node15" class="node">
<title>104</title>
<path fill="#f6d3ba" stroke="black" d="M665.75,-143C665.75,-143 532,-143 532,-143 526,-143 520,-137 520,-131 520,-131 520,-84 520,-84 520,-78 526,-72 532,-72 532,-72 665.75,-72 665.75,-72 671.75,-72 677.75,-78 677.75,-84 677.75,-84 677.75,-131 677.75,-131 677.75,-137 671.75,-143 665.75,-143"/>
<text text-anchor="start" x="558.75" y="-125.7" font-family="Helvetica,sans-Serif" font-size="14.00">P4_7_2 ≤ 1.5</text>
<text text-anchor="start" x="528" y="-109.95" font-family="Helvetica,sans-Serif" font-size="14.00">squared_error = 68.149</text>
<text text-anchor="start" x="554.25" y="-94.2" font-family="Helvetica,sans-Serif" font-size="14.00">samples = 265</text>
<text text-anchor="start" x="558" y="-78.45" font-family="Helvetica,sans-Serif" font-size="14.00">value = 49.35</text>
</g>
<!-- 50&#45;&gt;104 -->
<g id="edge14" class="edge">
<title>50&#45;&gt;104</title>
<path fill="none" stroke="black" d="M541.51,-178.54C548.47,-170.04 556.01,-160.84 563.25,-152"/>
<polygon fill="black" stroke="black" points="565.78,-154.44 569.4,-144.48 560.36,-150 565.78,-154.44"/>
</g>
<!-- 52 -->
<g id="node13" class="node">
<title>52</title>
<path fill="#c0c0c0" stroke="black" d="M407.88,-36C407.88,-36 377.88,-36 377.88,-36 371.88,-36 365.88,-30 365.88,-24 365.88,-24 365.88,-12 365.88,-12 365.88,-6 371.88,0 377.88,0 377.88,0 407.88,0 407.88,0 413.88,0 419.88,-6 419.88,-12 419.88,-12 419.88,-24 419.88,-24 419.88,-30 413.88,-36 407.88,-36"/>
<text text-anchor="middle" x="392.88" y="-12.57" font-family="Helvetica,sans-Serif" font-size="14.00">(...)</text>
</g>
<!-- 51&#45;&gt;52 -->
<g id="edge12" class="edge">
<title>51&#45;&gt;52</title>
<path fill="none" stroke="black" d="M410.93,-71.67C408.12,-63.47 405.16,-54.84 402.47,-46.98"/>
<polygon fill="black" stroke="black" points="405.81,-45.94 399.26,-37.61 399.19,-48.21 405.81,-45.94"/>
</g>
<!-- 67 -->
<g id="node14" class="node">
<title>67</title>
<path fill="#c0c0c0" stroke="black" d="M479.88,-36C479.88,-36 449.88,-36 449.88,-36 443.88,-36 437.88,-30 437.88,-24 437.88,-24 437.88,-12 437.88,-12 437.88,-6 443.88,0 449.88,0 449.88,0 479.88,0 479.88,0 485.88,0 491.88,-6 491.88,-12 491.88,-12 491.88,-24 491.88,-24 491.88,-30 485.88,-36 479.88,-36"/>
<text text-anchor="middle" x="464.88" y="-12.57" font-family="Helvetica,sans-Serif" font-size="14.00">(...)</text>
</g>
<!-- 51&#45;&gt;67 -->
<g id="edge13" class="edge">
<title>51&#45;&gt;67</title>
<path fill="none" stroke="black" d="M439.6,-71.67C443.62,-63.28 447.87,-54.43 451.7,-46.44"/>
<polygon fill="black" stroke="black" points="454.8,-48.08 455.97,-37.55 448.49,-45.05 454.8,-48.08"/>
</g>
<!-- 105 -->
<g id="node16" class="node">
<title>105</title>
<path fill="#c0c0c0" stroke="black" d="M600.88,-36C600.88,-36 570.88,-36 570.88,-36 564.88,-36 558.88,-30 558.88,-24 558.88,-24 558.88,-12 558.88,-12 558.88,-6 564.88,0 570.88,0 570.88,0 600.88,0 600.88,0 606.88,0 612.88,-6 612.88,-12 612.88,-12 612.88,-24 612.88,-24 612.88,-30 606.88,-36 600.88,-36"/>
<text text-anchor="middle" x="585.88" y="-12.57" font-family="Helvetica,sans-Serif" font-size="14.00">(...)</text>
</g>
<!-- 104&#45;&gt;105 -->
<g id="edge15" class="edge">
<title>104&#45;&gt;105</title>
<path fill="none" stroke="black" d="M593.7,-71.67C592.51,-63.66 591.26,-55.24 590.11,-47.53"/>
<polygon fill="black" stroke="black" points="593.58,-47.06 588.65,-37.68 586.66,-48.09 593.58,-47.06"/>
</g>
<!-- 132 -->
<g id="node17" class="node">
<title>132</title>
<path fill="#c0c0c0" stroke="black" d="M672.88,-36C672.88,-36 642.88,-36 642.88,-36 636.88,-36 630.88,-30 630.88,-24 630.88,-24 630.88,-12 630.88,-12 630.88,-6 636.88,0 642.88,0 642.88,0 672.88,0 672.88,0 678.88,0 684.88,-6 684.88,-12 684.88,-12 684.88,-24 684.88,-24 684.88,-30 678.88,-36 672.88,-36"/>
<text text-anchor="middle" x="657.88" y="-12.57" font-family="Helvetica,sans-Serif" font-size="14.00">(...)</text>
</g>
<!-- 104&#45;&gt;132 -->
<g id="edge16" class="edge">
<title>104&#45;&gt;132</title>
<path fill="none" stroke="black" d="M622.36,-71.67C628.21,-62.99 634.39,-53.83 639.92,-45.62"/>
<polygon fill="black" stroke="black" points="642.75,-47.69 645.44,-37.44 636.95,-43.77 642.75,-47.69"/>
</g>
<!-- 144 -->
<g id="node19" class="node">
<title>144</title>
<path fill="#eca26c" stroke="black" d="M1017.75,-250C1017.75,-250 884,-250 884,-250 878,-250 872,-244 872,-238 872,-238 872,-191 872,-191 872,-185 878,-179 884,-179 884,-179 1017.75,-179 1017.75,-179 1023.75,-179 1029.75,-185 1029.75,-191 1029.75,-191 1029.75,-238 1029.75,-238 1029.75,-244 1023.75,-250 1017.75,-250"/>
<text text-anchor="start" x="910.75" y="-232.7" font-family="Helvetica,sans-Serif" font-size="14.00">P4_6_1 ≤ 1.5</text>
<text text-anchor="start" x="880" y="-216.95" font-family="Helvetica,sans-Serif" font-size="14.00">squared_error = 88.598</text>
<text text-anchor="start" x="906.25" y="-201.2" font-family="Helvetica,sans-Serif" font-size="14.00">samples = 644</text>
<text text-anchor="start" x="906.25" y="-185.45" font-family="Helvetica,sans-Serif" font-size="14.00">value = 71.539</text>
</g>
<!-- 143&#45;&gt;144 -->
<g id="edge18" class="edge">
<title>143&#45;&gt;144</title>
<path fill="none" stroke="black" d="M1009.57,-285.54C1002.45,-277.04 994.74,-267.84 987.33,-259"/>
<polygon fill="black" stroke="black" points="990.13,-256.89 981.02,-251.47 984.76,-261.38 990.13,-256.89"/>
</g>
<!-- 225 -->
<g id="node26" class="node">
<title>225</title>
<path fill="#f0b58a" stroke="black" d="M1193.75,-250C1193.75,-250 1060,-250 1060,-250 1054,-250 1048,-244 1048,-238 1048,-238 1048,-191 1048,-191 1048,-185 1054,-179 1060,-179 1060,-179 1193.75,-179 1193.75,-179 1199.75,-179 1205.75,-185 1205.75,-191 1205.75,-191 1205.75,-238 1205.75,-238 1205.75,-244 1199.75,-250 1193.75,-250"/>
<text text-anchor="start" x="1086.75" y="-232.7" font-family="Helvetica,sans-Serif" font-size="14.00">P4_8_1 ≤ 2.5</text>
<text text-anchor="start" x="1056" y="-216.95" font-family="Helvetica,sans-Serif" font-size="14.00">squared_error = 94.164</text>
<text text-anchor="start" x="1082.25" y="-201.2" font-family="Helvetica,sans-Serif" font-size="14.00">samples = 815</text>
<text text-anchor="start" x="1082.25" y="-185.45" font-family="Helvetica,sans-Serif" font-size="14.00">value = 62.993</text>
</g>
<!-- 143&#45;&gt;225 -->
<g id="edge25" class="edge">
<title>143&#45;&gt;225</title>
<path fill="none" stroke="black" d="M1068.18,-285.54C1075.3,-277.04 1083.01,-267.84 1090.42,-259"/>
<polygon fill="black" stroke="black" points="1092.99,-261.38 1096.73,-251.47 1087.62,-256.89 1092.99,-261.38"/>
</g>
<!-- 145 -->
<g id="node20" class="node">
<title>145</title>
<path fill="#eb9e67" stroke="black" d="M841.75,-143C841.75,-143 708,-143 708,-143 702,-143 696,-137 696,-131 696,-131 696,-84 696,-84 696,-78 702,-72 708,-72 708,-72 841.75,-72 841.75,-72 847.75,-72 853.75,-78 853.75,-84 853.75,-84 853.75,-131 853.75,-131 853.75,-137 847.75,-143 841.75,-143"/>
<text text-anchor="start" x="734.75" y="-125.7" font-family="Helvetica,sans-Serif" font-size="14.00">P4_8_1 ≤ 2.5</text>
<text text-anchor="start" x="704" y="-109.95" font-family="Helvetica,sans-Serif" font-size="14.00">squared_error = 77.538</text>
<text text-anchor="start" x="730.25" y="-94.2" font-family="Helvetica,sans-Serif" font-size="14.00">samples = 547</text>
<text text-anchor="start" x="730.25" y="-78.45" font-family="Helvetica,sans-Serif" font-size="14.00">value = 72.998</text>
</g>
<!-- 144&#45;&gt;145 -->
<g id="edge19" class="edge">
<title>144&#45;&gt;145</title>
<path fill="none" stroke="black" d="M892.27,-178.54C876.47,-169.11 859.24,-158.83 842.97,-149.13"/>
<polygon fill="black" stroke="black" points="845.21,-146.38 834.82,-144.27 841.62,-152.39 845.21,-146.38"/>
</g>
<!-- 210 -->
<g id="node23" class="node">
<title>210</title>
<path fill="#efb489" stroke="black" d="M1017.75,-143C1017.75,-143 884,-143 884,-143 878,-143 872,-137 872,-131 872,-131 872,-84 872,-84 872,-78 878,-72 884,-72 884,-72 1017.75,-72 1017.75,-72 1023.75,-72 1029.75,-78 1029.75,-84 1029.75,-84 1029.75,-131 1029.75,-131 1029.75,-137 1023.75,-143 1017.75,-143"/>
<text text-anchor="start" x="910.75" y="-125.7" font-family="Helvetica,sans-Serif" font-size="14.00">P7_1_2 ≤ 2.5</text>
<text text-anchor="start" x="880" y="-109.95" font-family="Helvetica,sans-Serif" font-size="14.00">squared_error = 71.268</text>
<text text-anchor="start" x="910" y="-94.2" font-family="Helvetica,sans-Serif" font-size="14.00">samples = 97</text>
<text text-anchor="start" x="906.25" y="-78.45" font-family="Helvetica,sans-Serif" font-size="14.00">value = 63.312</text>
</g>
<!-- 144&#45;&gt;210 -->
<g id="edge22" class="edge">
<title>144&#45;&gt;210</title>
<path fill="none" stroke="black" d="M950.88,-178.54C950.88,-170.92 950.88,-162.75 950.88,-154.77"/>
<polygon fill="black" stroke="black" points="954.38,-154.82 950.88,-144.82 947.38,-154.82 954.38,-154.82"/>
</g>
<!-- 146 -->
<g id="node21" class="node">
<title>146</title>
<path fill="#c0c0c0" stroke="black" d="M756.88,-36C756.88,-36 726.88,-36 726.88,-36 720.88,-36 714.88,-30 714.88,-24 714.88,-24 714.88,-12 714.88,-12 714.88,-6 720.88,0 726.88,0 726.88,0 756.88,0 756.88,0 762.88,0 768.88,-6 768.88,-12 768.88,-12 768.88,-24 768.88,-24 768.88,-30 762.88,-36 756.88,-36"/>
<text text-anchor="middle" x="741.88" y="-12.57" font-family="Helvetica,sans-Serif" font-size="14.00">(...)</text>
</g>
<!-- 145&#45;&gt;146 -->
<g id="edge20" class="edge">
<title>145&#45;&gt;146</title>
<path fill="none" stroke="black" d="M761.74,-71.67C758.61,-63.37 755.31,-54.63 752.33,-46.71"/>
<polygon fill="black" stroke="black" points="755.69,-45.72 748.89,-37.6 749.14,-48.19 755.69,-45.72"/>
</g>
<!-- 179 -->
<g id="node22" class="node">
<title>179</title>
<path fill="#c0c0c0" stroke="black" d="M828.88,-36C828.88,-36 798.88,-36 798.88,-36 792.88,-36 786.88,-30 786.88,-24 786.88,-24 786.88,-12 786.88,-12 786.88,-6 792.88,0 798.88,0 798.88,0 828.88,0 828.88,0 834.88,0 840.88,-6 840.88,-12 840.88,-12 840.88,-24 840.88,-24 840.88,-30 834.88,-36 828.88,-36"/>
<text text-anchor="middle" x="813.88" y="-12.57" font-family="Helvetica,sans-Serif" font-size="14.00">(...)</text>
</g>
<!-- 145&#45;&gt;179 -->
<g id="edge21" class="edge">
<title>145&#45;&gt;179</title>
<path fill="none" stroke="black" d="M790.4,-71.67C794.14,-63.28 798.08,-54.43 801.65,-46.44"/>
<polygon fill="black" stroke="black" points="804.73,-48.12 805.6,-37.57 798.33,-45.27 804.73,-48.12"/>
</g>
<!-- 211 -->
<g id="node24" class="node">
<title>211</title>
<path fill="#c0c0c0" stroke="black" d="M906.88,-36C906.88,-36 876.88,-36 876.88,-36 870.88,-36 864.88,-30 864.88,-24 864.88,-24 864.88,-12 864.88,-12 864.88,-6 870.88,0 876.88,0 876.88,0 906.88,0 906.88,0 912.88,0 918.88,-6 918.88,-12 918.88,-12 918.88,-24 918.88,-24 918.88,-30 912.88,-36 906.88,-36"/>
<text text-anchor="middle" x="891.88" y="-12.57" font-family="Helvetica,sans-Serif" font-size="14.00">(...)</text>
</g>
<!-- 210&#45;&gt;211 -->
<g id="edge23" class="edge">
<title>210&#45;&gt;211</title>
<path fill="none" stroke="black" d="M927.39,-71.67C921.54,-62.99 915.36,-53.83 909.83,-45.62"/>
<polygon fill="black" stroke="black" points="912.8,-43.77 904.31,-37.44 907,-47.69 912.8,-43.77"/>
</g>
<!-- 216 -->
<g id="node25" class="node">
<title>216</title>
<path fill="#c0c0c0" stroke="black" d="M978.88,-36C978.88,-36 948.88,-36 948.88,-36 942.88,-36 936.88,-30 936.88,-24 936.88,-24 936.88,-12 936.88,-12 936.88,-6 942.88,0 948.88,0 948.88,0 978.88,0 978.88,0 984.88,0 990.88,-6 990.88,-12 990.88,-12 990.88,-24 990.88,-24 990.88,-30 984.88,-36 978.88,-36"/>
<text text-anchor="middle" x="963.88" y="-12.57" font-family="Helvetica,sans-Serif" font-size="14.00">(...)</text>
</g>
<!-- 210&#45;&gt;216 -->
<g id="edge24" class="edge">
<title>210&#45;&gt;216</title>
<path fill="none" stroke="black" d="M956.05,-71.67C957.24,-63.66 958.49,-55.24 959.64,-47.53"/>
<polygon fill="black" stroke="black" points="963.09,-48.09 961.1,-37.68 956.17,-47.06 963.09,-48.09"/>
</g>
<!-- 226 -->
<g id="node27" class="node">
<title>226</title>
<path fill="#f1bc96" stroke="black" d="M1193.75,-143C1193.75,-143 1060,-143 1060,-143 1054,-143 1048,-137 1048,-131 1048,-131 1048,-84 1048,-84 1048,-78 1054,-72 1060,-72 1060,-72 1193.75,-72 1193.75,-72 1199.75,-72 1205.75,-78 1205.75,-84 1205.75,-84 1205.75,-131 1205.75,-131 1205.75,-137 1199.75,-143 1193.75,-143"/>
<text text-anchor="start" x="1083.38" y="-125.7" font-family="Helvetica,sans-Serif" font-size="14.00">P11_3_9 ≤ 0.5</text>
<text text-anchor="start" x="1056" y="-109.95" font-family="Helvetica,sans-Serif" font-size="14.00">squared_error = 87.162</text>
<text text-anchor="start" x="1082.25" y="-94.2" font-family="Helvetica,sans-Serif" font-size="14.00">samples = 461</text>
<text text-anchor="start" x="1082.25" y="-78.45" font-family="Helvetica,sans-Serif" font-size="14.00">value = 59.446</text>
</g>
<!-- 225&#45;&gt;226 -->
<g id="edge26" class="edge">
<title>225&#45;&gt;226</title>
<path fill="none" stroke="black" d="M1126.88,-178.54C1126.88,-170.92 1126.88,-162.75 1126.88,-154.77"/>
<polygon fill="black" stroke="black" points="1130.38,-154.82 1126.88,-144.82 1123.38,-154.82 1130.38,-154.82"/>
</g>
<!-- 277 -->
<g id="node30" class="node">
<title>277</title>
<path fill="#eeaa7a" stroke="black" d="M1369.75,-143C1369.75,-143 1236,-143 1236,-143 1230,-143 1224,-137 1224,-131 1224,-131 1224,-84 1224,-84 1224,-78 1230,-72 1236,-72 1236,-72 1369.75,-72 1369.75,-72 1375.75,-72 1381.75,-78 1381.75,-84 1381.75,-84 1381.75,-131 1381.75,-131 1381.75,-137 1375.75,-143 1369.75,-143"/>
<text text-anchor="start" x="1262.75" y="-125.7" font-family="Helvetica,sans-Serif" font-size="14.00">P4_6_4 ≤ 1.5</text>
<text text-anchor="start" x="1232" y="-109.95" font-family="Helvetica,sans-Serif" font-size="14.00">squared_error = 65.559</text>
<text text-anchor="start" x="1258.25" y="-94.2" font-family="Helvetica,sans-Serif" font-size="14.00">samples = 354</text>
<text text-anchor="start" x="1258.25" y="-78.45" font-family="Helvetica,sans-Serif" font-size="14.00">value = 67.613</text>
</g>
<!-- 225&#45;&gt;277 -->
<g id="edge29" class="edge">
<title>225&#45;&gt;277</title>
<path fill="none" stroke="black" d="M1185.48,-178.54C1201.28,-169.11 1218.51,-158.83 1234.78,-149.13"/>
<polygon fill="black" stroke="black" points="1236.13,-152.39 1242.93,-144.27 1232.54,-146.38 1236.13,-152.39"/>
</g>
<!-- 227 -->
<g id="node28" class="node">
<title>227</title>
<path fill="#c0c0c0" stroke="black" d="M1085.88,-36C1085.88,-36 1055.88,-36 1055.88,-36 1049.88,-36 1043.88,-30 1043.88,-24 1043.88,-24 1043.88,-12 1043.88,-12 1043.88,-6 1049.88,0 1055.88,0 1055.88,0 1085.88,0 1085.88,0 1091.88,0 1097.88,-6 1097.88,-12 1097.88,-12 1097.88,-24 1097.88,-24 1097.88,-30 1091.88,-36 1085.88,-36"/>
<text text-anchor="middle" x="1070.88" y="-12.57" font-family="Helvetica,sans-Serif" font-size="14.00">(...)</text>
</g>
<!-- 226&#45;&gt;227 -->
<g id="edge27" class="edge">
<title>226&#45;&gt;227</title>
<path fill="none" stroke="black" d="M1104.58,-71.67C1099.03,-62.99 1093.17,-53.83 1087.91,-45.62"/>
<polygon fill="black" stroke="black" points="1091.03,-43.99 1082.69,-37.46 1085.13,-47.77 1091.03,-43.99"/>
</g>
<!-- 260 -->
<g id="node29" class="node">
<title>260</title>
<path fill="#c0c0c0" stroke="black" d="M1157.88,-36C1157.88,-36 1127.88,-36 1127.88,-36 1121.88,-36 1115.88,-30 1115.88,-24 1115.88,-24 1115.88,-12 1115.88,-12 1115.88,-6 1121.88,0 1127.88,0 1127.88,0 1157.88,0 1157.88,0 1163.88,0 1169.88,-6 1169.88,-12 1169.88,-12 1169.88,-24 1169.88,-24 1169.88,-30 1163.88,-36 1157.88,-36"/>
<text text-anchor="middle" x="1142.88" y="-12.57" font-family="Helvetica,sans-Serif" font-size="14.00">(...)</text>
</g>
<!-- 226&#45;&gt;260 -->
<g id="edge28" class="edge">
<title>226&#45;&gt;260</title>
<path fill="none" stroke="black" d="M1133.24,-71.67C1134.73,-63.56 1136.29,-55.04 1137.71,-47.26"/>
<polygon fill="black" stroke="black" points="1141.1,-48.14 1139.46,-37.67 1134.22,-46.88 1141.1,-48.14"/>
</g>
<!-- 278 -->
<g id="node31" class="node">
<title>278</title>
<path fill="#c0c0c0" stroke="black" d="M1261.88,-36C1261.88,-36 1231.88,-36 1231.88,-36 1225.88,-36 1219.88,-30 1219.88,-24 1219.88,-24 1219.88,-12 1219.88,-12 1219.88,-6 1225.88,0 1231.88,0 1231.88,0 1261.88,0 1261.88,0 1267.88,0 1273.88,-6 1273.88,-12 1273.88,-12 1273.88,-24 1273.88,-24 1273.88,-30 1267.88,-36 1261.88,-36"/>
<text text-anchor="middle" x="1246.88" y="-12.57" font-family="Helvetica,sans-Serif" font-size="14.00">(...)</text>
</g>
<!-- 277&#45;&gt;278 -->
<g id="edge30" class="edge">
<title>277&#45;&gt;278</title>
<path fill="none" stroke="black" d="M1280.58,-71.67C1275.03,-62.99 1269.17,-53.83 1263.91,-45.62"/>
<polygon fill="black" stroke="black" points="1267.03,-43.99 1258.69,-37.46 1261.13,-47.77 1267.03,-43.99"/>
</g>
<!-- 303 -->
<g id="node32" class="node">
<title>303</title>
<path fill="#c0c0c0" stroke="black" d="M1333.88,-36C1333.88,-36 1303.88,-36 1303.88,-36 1297.88,-36 1291.88,-30 1291.88,-24 1291.88,-24 1291.88,-12 1291.88,-12 1291.88,-6 1297.88,0 1303.88,0 1303.88,0 1333.88,0 1333.88,0 1339.88,0 1345.88,-6 1345.88,-12 1345.88,-12 1345.88,-24 1345.88,-24 1345.88,-30 1339.88,-36 1333.88,-36"/>
<text text-anchor="middle" x="1318.88" y="-12.57" font-family="Helvetica,sans-Serif" font-size="14.00">(...)</text>
</g>
<!-- 277&#45;&gt;303 -->
<g id="edge31" class="edge">
<title>277&#45;&gt;303</title>
<path fill="none" stroke="black" d="M1309.24,-71.67C1310.73,-63.56 1312.29,-55.04 1313.71,-47.26"/>
<polygon fill="black" stroke="black" points="1317.1,-48.14 1315.46,-37.67 1310.22,-46.88 1317.1,-48.14"/>
</g>
<!-- 323 -->
<g id="node34" class="node">
<title>323</title>
<path fill="#f4c7a8" stroke="black" d="M1813.5,-357C1813.5,-357 1672.25,-357 1672.25,-357 1666.25,-357 1660.25,-351 1660.25,-345 1660.25,-345 1660.25,-298 1660.25,-298 1660.25,-292 1666.25,-286 1672.25,-286 1672.25,-286 1813.5,-286 1813.5,-286 1819.5,-286 1825.5,-292 1825.5,-298 1825.5,-298 1825.5,-345 1825.5,-345 1825.5,-351 1819.5,-357 1813.5,-357"/>
<text text-anchor="start" x="1702.75" y="-339.7" font-family="Helvetica,sans-Serif" font-size="14.00">P4_8_1 ≤ 1.5</text>
<text text-anchor="start" x="1668.25" y="-323.95" font-family="Helvetica,sans-Serif" font-size="14.00">squared_error = 105.466</text>
<text text-anchor="start" x="1694.5" y="-308.2" font-family="Helvetica,sans-Serif" font-size="14.00">samples = 1615</text>
<text text-anchor="start" x="1698.25" y="-292.45" font-family="Helvetica,sans-Serif" font-size="14.00">value = 54.516</text>
</g>
<!-- 322&#45;&gt;323 -->
<g id="edge33" class="edge">
<title>322&#45;&gt;323</title>
<path fill="none" stroke="black" d="M1742.88,-392.54C1742.88,-384.92 1742.88,-376.75 1742.88,-368.77"/>
<polygon fill="black" stroke="black" points="1746.38,-368.82 1742.88,-358.82 1739.38,-368.82 1746.38,-368.82"/>
</g>
<!-- 526 -->
<g id="node49" class="node">
<title>526</title>
<path fill="#f7dac5" stroke="black" d="M2335.75,-357C2335.75,-357 2202,-357 2202,-357 2196,-357 2190,-351 2190,-345 2190,-345 2190,-298 2190,-298 2190,-292 2196,-286 2202,-286 2202,-286 2335.75,-286 2335.75,-286 2341.75,-286 2347.75,-292 2347.75,-298 2347.75,-298 2347.75,-345 2347.75,-345 2347.75,-351 2341.75,-357 2335.75,-357"/>
<text text-anchor="start" x="2228.75" y="-339.7" font-family="Helvetica,sans-Serif" font-size="14.00">P4_8_1 ≤ 2.5</text>
<text text-anchor="start" x="2198" y="-323.95" font-family="Helvetica,sans-Serif" font-size="14.00">squared_error = 96.324</text>
<text text-anchor="start" x="2224.25" y="-308.2" font-family="Helvetica,sans-Serif" font-size="14.00">samples = 944</text>
<text text-anchor="start" x="2224.25" y="-292.45" font-family="Helvetica,sans-Serif" font-size="14.00">value = 46.136</text>
</g>
<!-- 322&#45;&gt;526 -->
<g id="edge48" class="edge">
<title>322&#45;&gt;526</title>
<path fill="none" stroke="black" d="M1825.35,-411.04C1921.26,-391.89 2079.06,-360.39 2178.3,-340.58"/>
<polygon fill="black" stroke="black" points="2178.9,-344.03 2188.02,-338.64 2177.53,-337.16 2178.9,-344.03"/>
</g>
<!-- 324 -->
<g id="node35" class="node">
<title>324</title>
<path fill="#f6d2b8" stroke="black" d="M1721.75,-250C1721.75,-250 1588,-250 1588,-250 1582,-250 1576,-244 1576,-238 1576,-238 1576,-191 1576,-191 1576,-185 1582,-179 1588,-179 1588,-179 1721.75,-179 1721.75,-179 1727.75,-179 1733.75,-185 1733.75,-191 1733.75,-191 1733.75,-238 1733.75,-238 1733.75,-244 1727.75,-250 1721.75,-250"/>
<text text-anchor="start" x="1611.38" y="-232.7" font-family="Helvetica,sans-Serif" font-size="14.00">P11_3_9 ≤ 0.5</text>
<text text-anchor="start" x="1584" y="-216.95" font-family="Helvetica,sans-Serif" font-size="14.00">squared_error = 82.472</text>
<text text-anchor="start" x="1610.25" y="-201.2" font-family="Helvetica,sans-Serif" font-size="14.00">samples = 654</text>
<text text-anchor="start" x="1614" y="-185.45" font-family="Helvetica,sans-Serif" font-size="14.00">value = 49.66</text>
</g>
<!-- 323&#45;&gt;324 -->
<g id="edge34" class="edge">
<title>323&#45;&gt;324</title>
<path fill="none" stroke="black" d="M1713.57,-285.54C1706.45,-277.04 1698.74,-267.84 1691.33,-259"/>
<polygon fill="black" stroke="black" points="1694.13,-256.89 1685.02,-251.47 1688.76,-261.38 1694.13,-256.89"/>
</g>
<!-- 415 -->
<g id="node42" class="node">
<title>415</title>
<path fill="#f2c09c" stroke="black" d="M1897.75,-250C1897.75,-250 1764,-250 1764,-250 1758,-250 1752,-244 1752,-238 1752,-238 1752,-191 1752,-191 1752,-185 1758,-179 1764,-179 1764,-179 1897.75,-179 1897.75,-179 1903.75,-179 1909.75,-185 1909.75,-191 1909.75,-191 1909.75,-238 1909.75,-238 1909.75,-244 1903.75,-250 1897.75,-250"/>
<text text-anchor="start" x="1787.38" y="-232.7" font-family="Helvetica,sans-Serif" font-size="14.00">P11_3_9 ≤ 0.5</text>
<text text-anchor="start" x="1760" y="-216.95" font-family="Helvetica,sans-Serif" font-size="14.00">squared_error = 94.151</text>
<text text-anchor="start" x="1786.25" y="-201.2" font-family="Helvetica,sans-Serif" font-size="14.00">samples = 961</text>
<text text-anchor="start" x="1790" y="-185.45" font-family="Helvetica,sans-Serif" font-size="14.00">value = 57.82</text>
</g>
<!-- 323&#45;&gt;415 -->
<g id="edge41" class="edge">
<title>323&#45;&gt;415</title>
<path fill="none" stroke="black" d="M1772.18,-285.54C1779.3,-277.04 1787.01,-267.84 1794.42,-259"/>
<polygon fill="black" stroke="black" points="1796.99,-261.38 1800.73,-251.47 1791.62,-256.89 1796.99,-261.38"/>
</g>
<!-- 325 -->
<g id="node36" class="node">
<title>325</title>
<path fill="#f4cbae" stroke="black" d="M1545.75,-143C1545.75,-143 1412,-143 1412,-143 1406,-143 1400,-137 1400,-131 1400,-131 1400,-84 1400,-84 1400,-78 1406,-72 1412,-72 1412,-72 1545.75,-72 1545.75,-72 1551.75,-72 1557.75,-78 1557.75,-84 1557.75,-84 1557.75,-131 1557.75,-131 1557.75,-137 1551.75,-143 1545.75,-143"/>
<text text-anchor="start" x="1438.75" y="-125.7" font-family="Helvetica,sans-Serif" font-size="14.00">P4_7_3 ≤ 1.5</text>
<text text-anchor="start" x="1408" y="-109.95" font-family="Helvetica,sans-Serif" font-size="14.00">squared_error = 75.831</text>
<text text-anchor="start" x="1434.25" y="-94.2" font-family="Helvetica,sans-Serif" font-size="14.00">samples = 378</text>
<text text-anchor="start" x="1434.25" y="-78.45" font-family="Helvetica,sans-Serif" font-size="14.00">value = 52.729</text>
</g>
<!-- 324&#45;&gt;325 -->
<g id="edge35" class="edge">
<title>324&#45;&gt;325</title>
<path fill="none" stroke="black" d="M1596.27,-178.54C1580.47,-169.11 1563.24,-158.83 1546.97,-149.13"/>
<polygon fill="black" stroke="black" points="1549.21,-146.38 1538.82,-144.27 1545.62,-152.39 1549.21,-146.38"/>
</g>
<!-- 374 -->
<g id="node39" class="node">
<title>374</title>
<path fill="#f8dbc7" stroke="black" d="M1721.75,-143C1721.75,-143 1588,-143 1588,-143 1582,-143 1576,-137 1576,-131 1576,-131 1576,-84 1576,-84 1576,-78 1582,-72 1588,-72 1588,-72 1721.75,-72 1721.75,-72 1727.75,-72 1733.75,-78 1733.75,-84 1733.75,-84 1733.75,-131 1733.75,-131 1733.75,-137 1727.75,-143 1721.75,-143"/>
<text text-anchor="start" x="1614.75" y="-125.7" font-family="Helvetica,sans-Serif" font-size="14.00">P4_6_4 ≤ 1.5</text>
<text text-anchor="start" x="1584" y="-109.95" font-family="Helvetica,sans-Serif" font-size="14.00">squared_error = 60.996</text>
<text text-anchor="start" x="1610.25" y="-94.2" font-family="Helvetica,sans-Serif" font-size="14.00">samples = 276</text>
<text text-anchor="start" x="1610.25" y="-78.45" font-family="Helvetica,sans-Serif" font-size="14.00">value = 45.457</text>
</g>
<!-- 324&#45;&gt;374 -->
<g id="edge38" class="edge">
<title>324&#45;&gt;374</title>
<path fill="none" stroke="black" d="M1654.88,-178.54C1654.88,-170.92 1654.88,-162.75 1654.88,-154.77"/>
<polygon fill="black" stroke="black" points="1658.38,-154.82 1654.88,-144.82 1651.38,-154.82 1658.38,-154.82"/>
</g>
<!-- 326 -->
<g id="node37" class="node">
<title>326</title>
<path fill="#c0c0c0" stroke="black" d="M1437.88,-36C1437.88,-36 1407.88,-36 1407.88,-36 1401.88,-36 1395.88,-30 1395.88,-24 1395.88,-24 1395.88,-12 1395.88,-12 1395.88,-6 1401.88,0 1407.88,0 1407.88,0 1437.88,0 1437.88,0 1443.88,0 1449.88,-6 1449.88,-12 1449.88,-12 1449.88,-24 1449.88,-24 1449.88,-30 1443.88,-36 1437.88,-36"/>
<text text-anchor="middle" x="1422.88" y="-12.57" font-family="Helvetica,sans-Serif" font-size="14.00">(...)</text>
</g>
<!-- 325&#45;&gt;326 -->
<g id="edge36" class="edge">
<title>325&#45;&gt;326</title>
<path fill="none" stroke="black" d="M1456.58,-71.67C1451.03,-62.99 1445.17,-53.83 1439.91,-45.62"/>
<polygon fill="black" stroke="black" points="1443.03,-43.99 1434.69,-37.46 1437.13,-47.77 1443.03,-43.99"/>
</g>
<!-- 359 -->
<g id="node38" class="node">
<title>359</title>
<path fill="#c0c0c0" stroke="black" d="M1509.88,-36C1509.88,-36 1479.88,-36 1479.88,-36 1473.88,-36 1467.88,-30 1467.88,-24 1467.88,-24 1467.88,-12 1467.88,-12 1467.88,-6 1473.88,0 1479.88,0 1479.88,0 1509.88,0 1509.88,0 1515.88,0 1521.88,-6 1521.88,-12 1521.88,-12 1521.88,-24 1521.88,-24 1521.88,-30 1515.88,-36 1509.88,-36"/>
<text text-anchor="middle" x="1494.88" y="-12.57" font-family="Helvetica,sans-Serif" font-size="14.00">(...)</text>
</g>
<!-- 325&#45;&gt;359 -->
<g id="edge37" class="edge">
<title>325&#45;&gt;359</title>
<path fill="none" stroke="black" d="M1485.24,-71.67C1486.73,-63.56 1488.29,-55.04 1489.71,-47.26"/>
<polygon fill="black" stroke="black" points="1493.1,-48.14 1491.46,-37.67 1486.22,-46.88 1493.1,-48.14"/>
</g>
<!-- 375 -->
<g id="node40" class="node">
<title>375</title>
<path fill="#c0c0c0" stroke="black" d="M1613.88,-36C1613.88,-36 1583.88,-36 1583.88,-36 1577.88,-36 1571.88,-30 1571.88,-24 1571.88,-24 1571.88,-12 1571.88,-12 1571.88,-6 1577.88,0 1583.88,0 1583.88,0 1613.88,0 1613.88,0 1619.88,0 1625.88,-6 1625.88,-12 1625.88,-12 1625.88,-24 1625.88,-24 1625.88,-30 1619.88,-36 1613.88,-36"/>
<text text-anchor="middle" x="1598.88" y="-12.57" font-family="Helvetica,sans-Serif" font-size="14.00">(...)</text>
</g>
<!-- 374&#45;&gt;375 -->
<g id="edge39" class="edge">
<title>374&#45;&gt;375</title>
<path fill="none" stroke="black" d="M1632.58,-71.67C1627.03,-62.99 1621.17,-53.83 1615.91,-45.62"/>
<polygon fill="black" stroke="black" points="1619.03,-43.99 1610.69,-37.46 1613.13,-47.77 1619.03,-43.99"/>
</g>
<!-- 390 -->
<g id="node41" class="node">
<title>390</title>
<path fill="#c0c0c0" stroke="black" d="M1685.88,-36C1685.88,-36 1655.88,-36 1655.88,-36 1649.88,-36 1643.88,-30 1643.88,-24 1643.88,-24 1643.88,-12 1643.88,-12 1643.88,-6 1649.88,0 1655.88,0 1655.88,0 1685.88,0 1685.88,0 1691.88,0 1697.88,-6 1697.88,-12 1697.88,-12 1697.88,-24 1697.88,-24 1697.88,-30 1691.88,-36 1685.88,-36"/>
<text text-anchor="middle" x="1670.88" y="-12.57" font-family="Helvetica,sans-Serif" font-size="14.00">(...)</text>
</g>
<!-- 374&#45;&gt;390 -->
<g id="edge40" class="edge">
<title>374&#45;&gt;390</title>
<path fill="none" stroke="black" d="M1661.24,-71.67C1662.73,-63.56 1664.29,-55.04 1665.71,-47.26"/>
<polygon fill="black" stroke="black" points="1669.1,-48.14 1667.46,-37.67 1662.22,-46.88 1669.1,-48.14"/>
</g>
<!-- 416 -->
<g id="node43" class="node">
<title>416</title>
<path fill="#f0b890" stroke="black" d="M1897.75,-143C1897.75,-143 1764,-143 1764,-143 1758,-143 1752,-137 1752,-131 1752,-131 1752,-84 1752,-84 1752,-78 1758,-72 1764,-72 1764,-72 1897.75,-72 1897.75,-72 1903.75,-72 1909.75,-78 1909.75,-84 1909.75,-84 1909.75,-131 1909.75,-131 1909.75,-137 1903.75,-143 1897.75,-143"/>
<text text-anchor="start" x="1790.75" y="-125.7" font-family="Helvetica,sans-Serif" font-size="14.00">P7_1_2 ≤ 2.5</text>
<text text-anchor="start" x="1760" y="-109.95" font-family="Helvetica,sans-Serif" font-size="14.00">squared_error = 82.606</text>
<text text-anchor="start" x="1786.25" y="-94.2" font-family="Helvetica,sans-Serif" font-size="14.00">samples = 557</text>
<text text-anchor="start" x="1786.25" y="-78.45" font-family="Helvetica,sans-Serif" font-size="14.00">value = 61.266</text>
</g>
<!-- 415&#45;&gt;416 -->
<g id="edge42" class="edge">
<title>415&#45;&gt;416</title>
<path fill="none" stroke="black" d="M1830.88,-178.54C1830.88,-170.92 1830.88,-162.75 1830.88,-154.77"/>
<polygon fill="black" stroke="black" points="1834.38,-154.82 1830.88,-144.82 1827.38,-154.82 1834.38,-154.82"/>
</g>
<!-- 479 -->
<g id="node46" class="node">
<title>479</title>
<path fill="#f4cbad" stroke="black" d="M2072.38,-143C2072.38,-143 1939.38,-143 1939.38,-143 1933.38,-143 1927.38,-137 1927.38,-131 1927.38,-131 1927.38,-84 1927.38,-84 1927.38,-78 1933.38,-72 1939.38,-72 1939.38,-72 2072.38,-72 2072.38,-72 2078.38,-72 2084.38,-78 2084.38,-84 2084.38,-84 2084.38,-131 2084.38,-131 2084.38,-137 2078.38,-143 2072.38,-143"/>
<text text-anchor="start" x="1965.75" y="-125.7" font-family="Helvetica,sans-Serif" font-size="14.00">P4_6_4 ≤ 1.5</text>
<text text-anchor="start" x="1935.38" y="-109.95" font-family="Helvetica,sans-Serif" font-size="14.00">squared_error = 71.115</text>
<text text-anchor="start" x="1961.25" y="-94.2" font-family="Helvetica,sans-Serif" font-size="14.00">samples = 404</text>
<text text-anchor="start" x="1961.25" y="-78.45" font-family="Helvetica,sans-Serif" font-size="14.00">value = 53.069</text>
</g>
<!-- 415&#45;&gt;479 -->
<g id="edge45" class="edge">
<title>415&#45;&gt;479</title>
<path fill="none" stroke="black" d="M1889.15,-178.54C1904.71,-169.2 1921.67,-159.03 1937.71,-149.4"/>
<polygon fill="black" stroke="black" points="1939.49,-152.41 1946.26,-144.27 1935.89,-146.41 1939.49,-152.41"/>
</g>
<!-- 417 -->
<g id="node44" class="node">
<title>417</title>
<path fill="#c0c0c0" stroke="black" d="M1788.88,-36C1788.88,-36 1758.88,-36 1758.88,-36 1752.88,-36 1746.88,-30 1746.88,-24 1746.88,-24 1746.88,-12 1746.88,-12 1746.88,-6 1752.88,0 1758.88,0 1758.88,0 1788.88,0 1788.88,0 1794.88,0 1800.88,-6 1800.88,-12 1800.88,-12 1800.88,-24 1800.88,-24 1800.88,-30 1794.88,-36 1788.88,-36"/>
<text text-anchor="middle" x="1773.88" y="-12.57" font-family="Helvetica,sans-Serif" font-size="14.00">(...)</text>
</g>
<!-- 416&#45;&gt;417 -->
<g id="edge43" class="edge">
<title>416&#45;&gt;417</title>
<path fill="none" stroke="black" d="M1808.18,-71.67C1802.53,-62.99 1796.56,-53.83 1791.22,-45.62"/>
<polygon fill="black" stroke="black" points="1794.29,-43.92 1785.89,-37.45 1788.42,-47.74 1794.29,-43.92"/>
</g>
<!-- 442 -->
<g id="node45" class="node">
<title>442</title>
<path fill="#c0c0c0" stroke="black" d="M1860.88,-36C1860.88,-36 1830.88,-36 1830.88,-36 1824.88,-36 1818.88,-30 1818.88,-24 1818.88,-24 1818.88,-12 1818.88,-12 1818.88,-6 1824.88,0 1830.88,0 1830.88,0 1860.88,0 1860.88,0 1866.88,0 1872.88,-6 1872.88,-12 1872.88,-12 1872.88,-24 1872.88,-24 1872.88,-30 1866.88,-36 1860.88,-36"/>
<text text-anchor="middle" x="1845.88" y="-12.57" font-family="Helvetica,sans-Serif" font-size="14.00">(...)</text>
</g>
<!-- 416&#45;&gt;442 -->
<g id="edge44" class="edge">
<title>416&#45;&gt;442</title>
<path fill="none" stroke="black" d="M1836.85,-71.67C1838.24,-63.56 1839.7,-55.04 1841.03,-47.26"/>
<polygon fill="black" stroke="black" points="1844.43,-48.12 1842.67,-37.67 1837.53,-46.94 1844.43,-48.12"/>
</g>
<!-- 480 -->
<g id="node47" class="node">
<title>480</title>
<path fill="#c0c0c0" stroke="black" d="M1963.88,-36C1963.88,-36 1933.88,-36 1933.88,-36 1927.88,-36 1921.88,-30 1921.88,-24 1921.88,-24 1921.88,-12 1921.88,-12 1921.88,-6 1927.88,0 1933.88,0 1933.88,0 1963.88,0 1963.88,0 1969.88,0 1975.88,-6 1975.88,-12 1975.88,-12 1975.88,-24 1975.88,-24 1975.88,-30 1969.88,-36 1963.88,-36"/>
<text text-anchor="middle" x="1948.88" y="-12.57" font-family="Helvetica,sans-Serif" font-size="14.00">(...)</text>
</g>
<!-- 479&#45;&gt;480 -->
<g id="edge46" class="edge">
<title>479&#45;&gt;480</title>
<path fill="none" stroke="black" d="M1983.18,-71.67C1977.53,-62.99 1971.56,-53.83 1966.22,-45.62"/>
<polygon fill="black" stroke="black" points="1969.29,-43.92 1960.89,-37.45 1963.42,-47.74 1969.29,-43.92"/>
</g>
<!-- 499 -->
<g id="node48" class="node">
<title>499</title>
<path fill="#c0c0c0" stroke="black" d="M2035.88,-36C2035.88,-36 2005.88,-36 2005.88,-36 1999.88,-36 1993.88,-30 1993.88,-24 1993.88,-24 1993.88,-12 1993.88,-12 1993.88,-6 1999.88,0 2005.88,0 2005.88,0 2035.88,0 2035.88,0 2041.88,0 2047.88,-6 2047.88,-12 2047.88,-12 2047.88,-24 2047.88,-24 2047.88,-30 2041.88,-36 2035.88,-36"/>
<text text-anchor="middle" x="2020.88" y="-12.57" font-family="Helvetica,sans-Serif" font-size="14.00">(...)</text>
</g>
<!-- 479&#45;&gt;499 -->
<g id="edge47" class="edge">
<title>479&#45;&gt;499</title>
<path fill="none" stroke="black" d="M2011.85,-71.67C2013.24,-63.56 2014.7,-55.04 2016.03,-47.26"/>
<polygon fill="black" stroke="black" points="2019.43,-48.12 2017.67,-37.67 2012.53,-46.94 2019.43,-48.12"/>
</g>
<!-- 527 -->
<g id="node50" class="node">
<title>527</title>
<path fill="#f8dfcd" stroke="black" d="M2335.75,-250C2335.75,-250 2202,-250 2202,-250 2196,-250 2190,-244 2190,-238 2190,-238 2190,-191 2190,-191 2190,-185 2196,-179 2202,-179 2202,-179 2335.75,-179 2335.75,-179 2341.75,-179 2347.75,-185 2347.75,-191 2347.75,-191 2347.75,-238 2347.75,-238 2347.75,-244 2341.75,-250 2335.75,-250"/>
<text text-anchor="start" x="2228.75" y="-232.7" font-family="Helvetica,sans-Serif" font-size="14.00">P4_6_2 ≤ 1.5</text>
<text text-anchor="start" x="2198" y="-216.95" font-family="Helvetica,sans-Serif" font-size="14.00">squared_error = 86.489</text>
<text text-anchor="start" x="2224.25" y="-201.2" font-family="Helvetica,sans-Serif" font-size="14.00">samples = 658</text>
<text text-anchor="start" x="2224.25" y="-185.45" font-family="Helvetica,sans-Serif" font-size="14.00">value = 43.815</text>
</g>
<!-- 526&#45;&gt;527 -->
<g id="edge49" class="edge">
<title>526&#45;&gt;527</title>
<path fill="none" stroke="black" d="M2268.88,-285.54C2268.88,-277.92 2268.88,-269.75 2268.88,-261.77"/>
<polygon fill="black" stroke="black" points="2272.38,-261.82 2268.88,-251.82 2265.38,-261.82 2272.38,-261.82"/>
</g>
<!-- 610 -->
<g id="node57" class="node">
<title>610</title>
<path fill="#f5ceb2" stroke="black" d="M2599.75,-250C2599.75,-250 2466,-250 2466,-250 2460,-250 2454,-244 2454,-238 2454,-238 2454,-191 2454,-191 2454,-185 2460,-179 2466,-179 2466,-179 2599.75,-179 2599.75,-179 2605.75,-179 2611.75,-185 2611.75,-191 2611.75,-191 2611.75,-238 2611.75,-238 2611.75,-244 2605.75,-250 2599.75,-250"/>
<text text-anchor="start" x="2492.75" y="-232.7" font-family="Helvetica,sans-Serif" font-size="14.00">P4_8_2 ≤ 1.5</text>
<text text-anchor="start" x="2462" y="-216.95" font-family="Helvetica,sans-Serif" font-size="14.00">squared_error = 78.036</text>
<text text-anchor="start" x="2488.25" y="-201.2" font-family="Helvetica,sans-Serif" font-size="14.00">samples = 286</text>
<text text-anchor="start" x="2488.25" y="-185.45" font-family="Helvetica,sans-Serif" font-size="14.00">value = 51.476</text>
</g>
<!-- 526&#45;&gt;610 -->
<g id="edge56" class="edge">
<title>526&#45;&gt;610</title>
<path fill="none" stroke="black" d="M2348.08,-289C2378.1,-277.06 2412.49,-263.38 2443.39,-251.09"/>
<polygon fill="black" stroke="black" points="2444.32,-254.49 2452.32,-247.54 2441.73,-247.98 2444.32,-254.49"/>
</g>
<!-- 528 -->
<g id="node51" class="node">
<title>528</title>
<path fill="#f7d9c4" stroke="black" d="M2247.75,-143C2247.75,-143 2114,-143 2114,-143 2108,-143 2102,-137 2102,-131 2102,-131 2102,-84 2102,-84 2102,-78 2108,-72 2114,-72 2114,-72 2247.75,-72 2247.75,-72 2253.75,-72 2259.75,-78 2259.75,-84 2259.75,-84 2259.75,-131 2259.75,-131 2259.75,-137 2253.75,-143 2247.75,-143"/>
<text text-anchor="start" x="2140.75" y="-125.7" font-family="Helvetica,sans-Serif" font-size="14.00">P4_7_2 ≤ 1.5</text>
<text text-anchor="start" x="2110" y="-109.95" font-family="Helvetica,sans-Serif" font-size="14.00">squared_error = 84.744</text>
<text text-anchor="start" x="2136.25" y="-94.2" font-family="Helvetica,sans-Serif" font-size="14.00">samples = 380</text>
<text text-anchor="start" x="2136.25" y="-78.45" font-family="Helvetica,sans-Serif" font-size="14.00">value = 46.483</text>
</g>
<!-- 527&#45;&gt;528 -->
<g id="edge50" class="edge">
<title>527&#45;&gt;528</title>
<path fill="none" stroke="black" d="M2239.57,-178.54C2232.45,-170.04 2224.74,-160.84 2217.33,-152"/>
<polygon fill="black" stroke="black" points="2220.13,-149.89 2211.02,-144.47 2214.76,-154.38 2220.13,-149.89"/>
</g>
<!-- 575 -->
<g id="node54" class="node">
<title>575</title>
<path fill="#fae7da" stroke="black" d="M2423.75,-143C2423.75,-143 2290,-143 2290,-143 2284,-143 2278,-137 2278,-131 2278,-131 2278,-84 2278,-84 2278,-78 2284,-72 2290,-72 2290,-72 2423.75,-72 2423.75,-72 2429.75,-72 2435.75,-78 2435.75,-84 2435.75,-84 2435.75,-131 2435.75,-131 2435.75,-137 2429.75,-143 2423.75,-143"/>
<text text-anchor="start" x="2316.75" y="-125.7" font-family="Helvetica,sans-Serif" font-size="14.00">P5_4_8 ≤ 0.5</text>
<text text-anchor="start" x="2286" y="-109.95" font-family="Helvetica,sans-Serif" font-size="14.00">squared_error = 65.843</text>
<text text-anchor="start" x="2312.25" y="-94.2" font-family="Helvetica,sans-Serif" font-size="14.00">samples = 278</text>
<text text-anchor="start" x="2312.25" y="-78.45" font-family="Helvetica,sans-Serif" font-size="14.00">value = 40.168</text>
</g>
<!-- 527&#45;&gt;575 -->
<g id="edge53" class="edge">
<title>527&#45;&gt;575</title>
<path fill="none" stroke="black" d="M2298.18,-178.54C2305.3,-170.04 2313.01,-160.84 2320.42,-152"/>
<polygon fill="black" stroke="black" points="2322.99,-154.38 2326.73,-144.47 2317.62,-149.89 2322.99,-154.38"/>
</g>
<!-- 529 -->
<g id="node52" class="node">
<title>529</title>
<path fill="#c0c0c0" stroke="black" d="M2139.88,-36C2139.88,-36 2109.88,-36 2109.88,-36 2103.88,-36 2097.88,-30 2097.88,-24 2097.88,-24 2097.88,-12 2097.88,-12 2097.88,-6 2103.88,0 2109.88,0 2109.88,0 2139.88,0 2139.88,0 2145.88,0 2151.88,-6 2151.88,-12 2151.88,-12 2151.88,-24 2151.88,-24 2151.88,-30 2145.88,-36 2139.88,-36"/>
<text text-anchor="middle" x="2124.88" y="-12.57" font-family="Helvetica,sans-Serif" font-size="14.00">(...)</text>
</g>
<!-- 528&#45;&gt;529 -->
<g id="edge51" class="edge">
<title>528&#45;&gt;529</title>
<path fill="none" stroke="black" d="M2158.58,-71.67C2153.03,-62.99 2147.17,-53.83 2141.91,-45.62"/>
<polygon fill="black" stroke="black" points="2145.03,-43.99 2136.69,-37.46 2139.13,-47.77 2145.03,-43.99"/>
</g>
<!-- 562 -->
<g id="node53" class="node">
<title>562</title>
<path fill="#c0c0c0" stroke="black" d="M2211.88,-36C2211.88,-36 2181.88,-36 2181.88,-36 2175.88,-36 2169.88,-30 2169.88,-24 2169.88,-24 2169.88,-12 2169.88,-12 2169.88,-6 2175.88,0 2181.88,0 2181.88,0 2211.88,0 2211.88,0 2217.88,0 2223.88,-6 2223.88,-12 2223.88,-12 2223.88,-24 2223.88,-24 2223.88,-30 2217.88,-36 2211.88,-36"/>
<text text-anchor="middle" x="2196.88" y="-12.57" font-family="Helvetica,sans-Serif" font-size="14.00">(...)</text>
</g>
<!-- 528&#45;&gt;562 -->
<g id="edge52" class="edge">
<title>528&#45;&gt;562</title>
<path fill="none" stroke="black" d="M2187.24,-71.67C2188.73,-63.56 2190.29,-55.04 2191.71,-47.26"/>
<polygon fill="black" stroke="black" points="2195.1,-48.14 2193.46,-37.67 2188.22,-46.88 2195.1,-48.14"/>
</g>
<!-- 576 -->
<g id="node55" class="node">
<title>576</title>
<path fill="#c0c0c0" stroke="black" d="M2315.88,-36C2315.88,-36 2285.88,-36 2285.88,-36 2279.88,-36 2273.88,-30 2273.88,-24 2273.88,-24 2273.88,-12 2273.88,-12 2273.88,-6 2279.88,0 2285.88,0 2285.88,0 2315.88,0 2315.88,0 2321.88,0 2327.88,-6 2327.88,-12 2327.88,-12 2327.88,-24 2327.88,-24 2327.88,-30 2321.88,-36 2315.88,-36"/>
<text text-anchor="middle" x="2300.88" y="-12.57" font-family="Helvetica,sans-Serif" font-size="14.00">(...)</text>
</g>
<!-- 575&#45;&gt;576 -->
<g id="edge54" class="edge">
<title>575&#45;&gt;576</title>
<path fill="none" stroke="black" d="M2334.58,-71.67C2329.03,-62.99 2323.17,-53.83 2317.91,-45.62"/>
<polygon fill="black" stroke="black" points="2321.03,-43.99 2312.69,-37.46 2315.13,-47.77 2321.03,-43.99"/>
</g>
<!-- 577 -->
<g id="node56" class="node">
<title>577</title>
<path fill="#c0c0c0" stroke="black" d="M2387.88,-36C2387.88,-36 2357.88,-36 2357.88,-36 2351.88,-36 2345.88,-30 2345.88,-24 2345.88,-24 2345.88,-12 2345.88,-12 2345.88,-6 2351.88,0 2357.88,0 2357.88,0 2387.88,0 2387.88,0 2393.88,0 2399.88,-6 2399.88,-12 2399.88,-12 2399.88,-24 2399.88,-24 2399.88,-30 2393.88,-36 2387.88,-36"/>
<text text-anchor="middle" x="2372.88" y="-12.57" font-family="Helvetica,sans-Serif" font-size="14.00">(...)</text>
</g>
<!-- 575&#45;&gt;577 -->
<g id="edge55" class="edge">
<title>575&#45;&gt;577</title>
<path fill="none" stroke="black" d="M2363.24,-71.67C2364.73,-63.56 2366.29,-55.04 2367.71,-47.26"/>
<polygon fill="black" stroke="black" points="2371.1,-48.14 2369.46,-37.67 2364.22,-46.88 2371.1,-48.14"/>
</g>
<!-- 611 -->
<g id="node58" class="node">
<title>611</title>
<path fill="#f7d8c1" stroke="black" d="M2599.75,-143C2599.75,-143 2466,-143 2466,-143 2460,-143 2454,-137 2454,-131 2454,-131 2454,-84 2454,-84 2454,-78 2460,-72 2466,-72 2466,-72 2599.75,-72 2599.75,-72 2605.75,-72 2611.75,-78 2611.75,-84 2611.75,-84 2611.75,-131 2611.75,-131 2611.75,-137 2605.75,-143 2599.75,-143"/>
<text text-anchor="start" x="2492.75" y="-125.7" font-family="Helvetica,sans-Serif" font-size="14.00">P5_1_6 ≤ 0.5</text>
<text text-anchor="start" x="2462" y="-109.95" font-family="Helvetica,sans-Serif" font-size="14.00">squared_error = 50.604</text>
<text text-anchor="start" x="2488.25" y="-94.2" font-family="Helvetica,sans-Serif" font-size="14.00">samples = 134</text>
<text text-anchor="start" x="2488.25" y="-78.45" font-family="Helvetica,sans-Serif" font-size="14.00">value = 47.216</text>
</g>
<!-- 610&#45;&gt;611 -->
<g id="edge57" class="edge">
<title>610&#45;&gt;611</title>
<path fill="none" stroke="black" d="M2532.88,-178.54C2532.88,-170.92 2532.88,-162.75 2532.88,-154.77"/>
<polygon fill="black" stroke="black" points="2536.38,-154.82 2532.88,-144.82 2529.38,-154.82 2536.38,-154.82"/>
</g>
<!-- 630 -->
<g id="node61" class="node">
<title>630</title>
<path fill="#f3c6a5" stroke="black" d="M2774.38,-143C2774.38,-143 2641.38,-143 2641.38,-143 2635.38,-143 2629.38,-137 2629.38,-131 2629.38,-131 2629.38,-84 2629.38,-84 2629.38,-78 2635.38,-72 2641.38,-72 2641.38,-72 2774.38,-72 2774.38,-72 2780.38,-72 2786.38,-78 2786.38,-84 2786.38,-84 2786.38,-131 2786.38,-131 2786.38,-137 2780.38,-143 2774.38,-143"/>
<text text-anchor="start" x="2667.75" y="-125.7" font-family="Helvetica,sans-Serif" font-size="14.00">P4_6_2 ≤ 1.5</text>
<text text-anchor="start" x="2637.38" y="-109.95" font-family="Helvetica,sans-Serif" font-size="14.00">squared_error = 72.116</text>
<text text-anchor="start" x="2663.25" y="-94.2" font-family="Helvetica,sans-Serif" font-size="14.00">samples = 152</text>
<text text-anchor="start" x="2663.25" y="-78.45" font-family="Helvetica,sans-Serif" font-size="14.00">value = 55.232</text>
</g>
<!-- 610&#45;&gt;630 -->
<g id="edge60" class="edge">
<title>610&#45;&gt;630</title>
<path fill="none" stroke="black" d="M2591.15,-178.54C2606.71,-169.2 2623.67,-159.03 2639.71,-149.4"/>
<polygon fill="black" stroke="black" points="2641.49,-152.41 2648.26,-144.27 2637.89,-146.41 2641.49,-152.41"/>
</g>
<!-- 612 -->
<g id="node59" class="node">
<title>612</title>
<path fill="#c0c0c0" stroke="black" d="M2508.88,-36C2508.88,-36 2478.88,-36 2478.88,-36 2472.88,-36 2466.88,-30 2466.88,-24 2466.88,-24 2466.88,-12 2466.88,-12 2466.88,-6 2472.88,0 2478.88,0 2478.88,0 2508.88,0 2508.88,0 2514.88,0 2520.88,-6 2520.88,-12 2520.88,-12 2520.88,-24 2520.88,-24 2520.88,-30 2514.88,-36 2508.88,-36"/>
<text text-anchor="middle" x="2493.88" y="-12.57" font-family="Helvetica,sans-Serif" font-size="14.00">(...)</text>
</g>
<!-- 611&#45;&gt;612 -->
<g id="edge58" class="edge">
<title>611&#45;&gt;612</title>
<path fill="none" stroke="black" d="M2517.35,-71.67C2513.61,-63.28 2509.67,-54.43 2506.1,-46.44"/>
<polygon fill="black" stroke="black" points="2509.42,-45.27 2502.15,-37.57 2503.02,-48.12 2509.42,-45.27"/>
</g>
<!-- 617 -->
<g id="node60" class="node">
<title>617</title>
<path fill="#c0c0c0" stroke="black" d="M2580.88,-36C2580.88,-36 2550.88,-36 2550.88,-36 2544.88,-36 2538.88,-30 2538.88,-24 2538.88,-24 2538.88,-12 2538.88,-12 2538.88,-6 2544.88,0 2550.88,0 2550.88,0 2580.88,0 2580.88,0 2586.88,0 2592.88,-6 2592.88,-12 2592.88,-12 2592.88,-24 2592.88,-24 2592.88,-30 2586.88,-36 2580.88,-36"/>
<text text-anchor="middle" x="2565.88" y="-12.57" font-family="Helvetica,sans-Serif" font-size="14.00">(...)</text>
</g>
<!-- 611&#45;&gt;617 -->
<g id="edge59" class="edge">
<title>611&#45;&gt;617</title>
<path fill="none" stroke="black" d="M2546.01,-71.67C2549.14,-63.37 2552.44,-54.63 2555.42,-46.71"/>
<polygon fill="black" stroke="black" points="2558.61,-48.19 2558.86,-37.6 2552.06,-45.72 2558.61,-48.19"/>
</g>
<!-- 631 -->
<g id="node62" class="node">
<title>631</title>
<path fill="#c0c0c0" stroke="black" d="M2686.88,-36C2686.88,-36 2656.88,-36 2656.88,-36 2650.88,-36 2644.88,-30 2644.88,-24 2644.88,-24 2644.88,-12 2644.88,-12 2644.88,-6 2650.88,0 2656.88,0 2656.88,0 2686.88,0 2686.88,0 2692.88,0 2698.88,-6 2698.88,-12 2698.88,-12 2698.88,-24 2698.88,-24 2698.88,-30 2692.88,-36 2686.88,-36"/>
<text text-anchor="middle" x="2671.88" y="-12.57" font-family="Helvetica,sans-Serif" font-size="14.00">(...)</text>
</g>
<!-- 630&#45;&gt;631 -->
<g id="edge61" class="edge">
<title>630&#45;&gt;631</title>
<path fill="none" stroke="black" d="M2693.54,-71.67C2690.13,-63.37 2686.54,-54.63 2683.28,-46.71"/>
<polygon fill="black" stroke="black" points="2686.56,-45.5 2679.52,-37.58 2680.09,-48.16 2686.56,-45.5"/>
</g>
<!-- 644 -->
<g id="node63" class="node">
<title>644</title>
<path fill="#c0c0c0" stroke="black" d="M2758.88,-36C2758.88,-36 2728.88,-36 2728.88,-36 2722.88,-36 2716.88,-30 2716.88,-24 2716.88,-24 2716.88,-12 2716.88,-12 2716.88,-6 2722.88,0 2728.88,0 2728.88,0 2758.88,0 2758.88,0 2764.88,0 2770.88,-6 2770.88,-12 2770.88,-12 2770.88,-24 2770.88,-24 2770.88,-30 2764.88,-36 2758.88,-36"/>
<text text-anchor="middle" x="2743.88" y="-12.57" font-family="Helvetica,sans-Serif" font-size="14.00">(...)</text>
</g>
<!-- 630&#45;&gt;644 -->
<g id="edge62" class="edge">
<title>630&#45;&gt;644</title>
<path fill="none" stroke="black" d="M2722.21,-71.67C2725.62,-63.37 2729.21,-54.63 2732.47,-46.71"/>
<polygon fill="black" stroke="black" points="2735.66,-48.16 2736.23,-37.58 2729.19,-45.5 2735.66,-48.16"/>
</g>
</g>
</svg>
