<?xml version="1.0" encoding="UTF-8" standalone="no"?>
<!DOCTYPE svg PUBLIC "-//W3C//DTD SVG 1.1//EN"
 "http://www.w3.org/Graphics/SVG/1.1/DTD/svg11.dtd">
<!-- Generated by graphviz version 12.2.1 (20241206.2353)
 -->
<!-- Title: Tree Pages: 1 -->
<svg width="2798pt" height="579pt"
 viewBox="0.00 0.00 2797.75 579.00" xmlns="http://www.w3.org/2000/svg" xmlns:xlink="http://www.w3.org/1999/xlink">
<g id="graph0" class="graph" transform="scale(1 1) rotate(0) translate(4 575)">
<title>Tree</title>
<polygon fill="white" stroke="none" points="-4,4 -4,-575 2793.75,-575 2793.75,4 -4,4"/>
<!-- 0 -->
<g id="node1" class="node">
<title>0</title>
<path fill="#f1bb93" stroke="black" d="M1461.5,-571C1461.5,-571 1320.25,-571 1320.25,-571 1314.25,-571 1308.25,-565 1308.25,-559 1308.25,-559 1308.25,-512 1308.25,-512 1308.25,-506 1314.25,-500 1320.25,-500 1320.25,-500 1461.5,-500 1461.5,-500 1467.5,-500 1473.5,-506 1473.5,-512 1473.5,-512 1473.5,-559 1473.5,-559 1473.5,-565 1467.5,-571 1461.5,-571"/>
<text text-anchor="start" x="1350.75" y="-553.7" font-family="Helvetica,sans-Serif" font-size="14.00">P4_8_3 ≤ 1.5</text>
<text text-anchor="start" x="1316.25" y="-537.95" font-family="Helvetica,sans-Serif" font-size="14.00">squared_error = 164.472</text>
<text text-anchor="start" x="1342.5" y="-522.2" font-family="Helvetica,sans-Serif" font-size="14.00">samples = 5159</text>
<text text-anchor="start" x="1346.25" y="-506.45" font-family="Helvetica,sans-Serif" font-size="14.00">value = 56.943</text>
</g>
<!-- 1 -->
<g id="node2" class="node">
<title>1</title>
<path fill="#eeae80" stroke="black" d="M1109.5,-464C1109.5,-464 968.25,-464 968.25,-464 962.25,-464 956.25,-458 956.25,-452 956.25,-452 956.25,-405 956.25,-405 956.25,-399 962.25,-393 968.25,-393 968.25,-393 1109.5,-393 1109.5,-393 1115.5,-393 1121.5,-399 1121.5,-405 1121.5,-405 1121.5,-452 1121.5,-452 1121.5,-458 1115.5,-464 1109.5,-464"/>
<text text-anchor="start" x="998.75" y="-446.7" font-family="Helvetica,sans-Serif" font-size="14.00">P4_8_1 ≤ 1.5</text>
<text text-anchor="start" x="964.25" y="-430.95" font-family="Helvetica,sans-Serif" font-size="14.00">squared_error = 139.328</text>
<text text-anchor="start" x="990.5" y="-415.2" font-family="Helvetica,sans-Serif" font-size="14.00">samples = 2482</text>
<text text-anchor="start" x="994.25" y="-399.45" font-family="Helvetica,sans-Serif" font-size="14.00">value = 62.975</text>
</g>
<!-- 0&#45;&gt;1 -->
<g id="edge1" class="edge">
<title>0&#45;&gt;1</title>
<path fill="none" stroke="black" d="M1307.9,-509.75C1255.31,-494.06 1187.16,-473.73 1132.62,-457.46"/>
<polygon fill="black" stroke="black" points="1133.93,-454.2 1123.35,-454.7 1131.93,-460.91 1133.93,-454.2"/>
<text text-anchor="middle" x="1133.79" y="-470.83" font-family="Helvetica,sans-Serif" font-size="14.00">True</text>
</g>
<!-- 308 -->
<g id="node33" class="node">
<title>308</title>
<path fill="#f3c6a5" stroke="black" d="M1813.5,-464C1813.5,-464 1672.25,-464 1672.25,-464 1666.25,-464 1660.25,-458 1660.25,-452 1660.25,-452 1660.25,-405 1660.25,-405 1660.25,-399 1666.25,-393 1672.25,-393 1672.25,-393 1813.5,-393 1813.5,-393 1819.5,-393 1825.5,-399 1825.5,-405 1825.5,-405 1825.5,-452 1825.5,-452 1825.5,-458 1819.5,-464 1813.5,-464"/>
<text text-anchor="start" x="1702.75" y="-446.7" font-family="Helvetica,sans-Serif" font-size="14.00">P4_8_2 ≤ 1.5</text>
<text text-anchor="start" x="1668.25" y="-430.95" font-family="Helvetica,sans-Serif" font-size="14.00">squared_error = 122.763</text>
<text text-anchor="start" x="1694.5" y="-415.2" font-family="Helvetica,sans-Serif" font-size="14.00">samples = 2677</text>
<text text-anchor="start" x="1702" y="-399.45" font-family="Helvetica,sans-Serif" font-size="14.00">value = 51.35</text>
</g>
<!-- 0&#45;&gt;308 -->
<g id="edge32" class="edge">
<title>0&#45;&gt;308</title>
<path fill="none" stroke="black" d="M1473.85,-509.75C1526.44,-494.06 1594.59,-473.73 1649.13,-457.46"/>
<polygon fill="black" stroke="black" points="1649.82,-460.91 1658.4,-454.7 1647.82,-454.2 1649.82,-460.91"/>
<text text-anchor="middle" x="1647.96" y="-470.83" font-family="Helvetica,sans-Serif" font-size="14.00">False</text>
</g>
<!-- 2 -->
<g id="node3" class="node">
<title>2</title>
<path fill="#f1bc95" stroke="black" d="M581.75,-357C581.75,-357 448,-357 448,-357 442,-357 436,-351 436,-345 436,-345 436,-298 436,-298 436,-292 442,-286 448,-286 448,-286 581.75,-286 581.75,-286 587.75,-286 593.75,-292 593.75,-298 593.75,-298 593.75,-345 593.75,-345 593.75,-351 587.75,-357 581.75,-357"/>
<text text-anchor="start" x="474.75" y="-339.7" font-family="Helvetica,sans-Serif" font-size="14.00">P4_6_1 ≤ 1.5</text>
<text text-anchor="start" x="444" y="-323.95" font-family="Helvetica,sans-Serif" font-size="14.00">squared_error = 98.793</text>
<text text-anchor="start" x="466.5" y="-308.2" font-family="Helvetica,sans-Serif" font-size="14.00">samples = 1020</text>
<text text-anchor="start" x="470.25" y="-292.45" font-family="Helvetica,sans-Serif" font-size="14.00">value = 56.357</text>
</g>
<!-- 1&#45;&gt;2 -->
<g id="edge2" class="edge">
<title>1&#45;&gt;2</title>
<path fill="none" stroke="black" d="M955.85,-410.86C860.26,-391.71 703.79,-360.35 605.22,-340.6"/>
<polygon fill="black" stroke="black" points="606.06,-337.2 595.57,-338.67 604.69,-344.07 606.06,-337.2"/>
</g>
<!-- 145 -->
<g id="node18" class="node">
<title>145</title>
<path fill="#eca571" stroke="black" d="M1109.12,-357C1109.12,-357 968.62,-357 968.62,-357 962.62,-357 956.62,-351 956.62,-345 956.62,-345 956.62,-298 956.62,-298 956.62,-292 962.62,-286 968.62,-286 968.62,-286 1109.12,-286 1109.12,-286 1115.12,-286 1121.12,-292 1121.12,-298 1121.12,-298 1121.12,-345 1121.12,-345 1121.12,-351 1115.12,-357 1109.12,-357"/>
<text text-anchor="start" x="1006.25" y="-339.7" font-family="Helvetica,sans-Serif" font-size="14.00">P4_1 ≤ 0.5</text>
<text text-anchor="start" x="964.62" y="-323.95" font-family="Helvetica,sans-Serif" font-size="14.00">squared_error = 115.728</text>
<text text-anchor="start" x="990.5" y="-308.2" font-family="Helvetica,sans-Serif" font-size="14.00">samples = 1462</text>
<text text-anchor="start" x="994.25" y="-292.45" font-family="Helvetica,sans-Serif" font-size="14.00">value = 67.593</text>
</g>
<!-- 1&#45;&gt;145 -->
<g id="edge17" class="edge">
<title>1&#45;&gt;145</title>
<path fill="none" stroke="black" d="M1038.88,-392.54C1038.88,-384.92 1038.88,-376.75 1038.88,-368.77"/>
<polygon fill="black" stroke="black" points="1042.38,-368.82 1038.88,-358.82 1035.38,-368.82 1042.38,-368.82"/>
</g>
<!-- 3 -->
<g id="node4" class="node">
<title>3</title>
<path fill="#f0b78e" stroke="black" d="M321.75,-250C321.75,-250 188,-250 188,-250 182,-250 176,-244 176,-238 176,-238 176,-191 176,-191 176,-185 182,-179 188,-179 188,-179 321.75,-179 321.75,-179 327.75,-179 333.75,-185 333.75,-191 333.75,-191 333.75,-238 333.75,-238 333.75,-244 327.75,-250 321.75,-250"/>
<text text-anchor="start" x="214.75" y="-232.7" font-family="Helvetica,sans-Serif" font-size="14.00">P4_8_2 ≤ 1.5</text>
<text text-anchor="start" x="184" y="-216.95" font-family="Helvetica,sans-Serif" font-size="14.00">squared_error = 82.129</text>
<text text-anchor="start" x="210.25" y="-201.2" font-family="Helvetica,sans-Serif" font-size="14.00">samples = 777</text>
<text text-anchor="start" x="210.25" y="-185.45" font-family="Helvetica,sans-Serif" font-size="14.00">value = 58.501</text>
</g>
<!-- 2&#45;&gt;3 -->
<g id="edge3" class="edge">
<title>2&#45;&gt;3</title>
<path fill="none" stroke="black" d="M435.81,-288.57C406.94,-276.91 374.09,-263.65 344.38,-251.65"/>
<polygon fill="black" stroke="black" points="346,-248.53 335.42,-248.03 343.38,-255.02 346,-248.53"/>
</g>
<!-- 98 -->
<g id="node11" class="node">
<title>98</title>
<path fill="#f4caab" stroke="black" d="M581.75,-250C581.75,-250 448,-250 448,-250 442,-250 436,-244 436,-238 436,-238 436,-191 436,-191 436,-185 442,-179 448,-179 448,-179 581.75,-179 581.75,-179 587.75,-179 593.75,-185 593.75,-191 593.75,-191 593.75,-238 593.75,-238 593.75,-244 587.75,-250 581.75,-250"/>
<text text-anchor="start" x="471.38" y="-232.7" font-family="Helvetica,sans-Serif" font-size="14.00">P11_3_9 ≤ 0.5</text>
<text text-anchor="start" x="444" y="-216.95" font-family="Helvetica,sans-Serif" font-size="14.00">squared_error = 90.357</text>
<text text-anchor="start" x="470.25" y="-201.2" font-family="Helvetica,sans-Serif" font-size="14.00">samples = 243</text>
<text text-anchor="start" x="477.75" y="-185.45" font-family="Helvetica,sans-Serif" font-size="14.00">value = 49.5</text>
</g>
<!-- 2&#45;&gt;98 -->
<g id="edge10" class="edge">
<title>2&#45;&gt;98</title>
<path fill="none" stroke="black" d="M514.88,-285.54C514.88,-277.92 514.88,-269.75 514.88,-261.77"/>
<polygon fill="black" stroke="black" points="518.38,-261.82 514.88,-251.82 511.38,-261.82 518.38,-261.82"/>
</g>
<!-- 4 -->
<g id="node5" class="node">
<title>4</title>
<path fill="#f2be99" stroke="black" d="M145.75,-143C145.75,-143 12,-143 12,-143 6,-143 0,-137 0,-131 0,-131 0,-84 0,-84 0,-78 6,-72 12,-72 12,-72 145.75,-72 145.75,-72 151.75,-72 157.75,-78 157.75,-84 157.75,-84 157.75,-131 157.75,-131 157.75,-137 151.75,-143 145.75,-143"/>
<text text-anchor="start" x="46.25" y="-125.7" font-family="Helvetica,sans-Serif" font-size="14.00">P4_1 ≤ 0.5</text>
<text text-anchor="start" x="8" y="-109.95" font-family="Helvetica,sans-Serif" font-size="14.00">squared_error = 71.765</text>
<text text-anchor="start" x="34.25" y="-94.2" font-family="Helvetica,sans-Serif" font-size="14.00">samples = 409</text>
<text text-anchor="start" x="34.62" y="-78.45" font-family="Helvetica,sans-Serif" font-size="14.00">value = 55.117</text>
</g>
<!-- 3&#45;&gt;4 -->
<g id="edge4" class="edge">
<title>3&#45;&gt;4</title>
<path fill="none" stroke="black" d="M196.27,-178.54C180.47,-169.11 163.24,-158.83 146.97,-149.13"/>
<polygon fill="black" stroke="black" points="149.21,-146.38 138.82,-144.27 145.62,-152.39 149.21,-146.38"/>
</g>
<!-- 53 -->
<g id="node8" class="node">
<title>53</title>
<path fill="#efb082" stroke="black" d="M321.75,-143C321.75,-143 188,-143 188,-143 182,-143 176,-137 176,-131 176,-131 176,-84 176,-84 176,-78 182,-72 188,-72 188,-72 321.75,-72 321.75,-72 327.75,-72 333.75,-78 333.75,-84 333.75,-84 333.75,-131 333.75,-131 333.75,-137 327.75,-143 321.75,-143"/>
<text text-anchor="start" x="214.75" y="-125.7" font-family="Helvetica,sans-Serif" font-size="14.00">P4_6_3 ≤ 2.5</text>
<text text-anchor="start" x="184" y="-109.95" font-family="Helvetica,sans-Serif" font-size="14.00">squared_error = 66.769</text>
<text text-anchor="start" x="210.25" y="-94.2" font-family="Helvetica,sans-Serif" font-size="14.00">samples = 368</text>
<text text-anchor="start" x="210.25" y="-78.45" font-family="Helvetica,sans-Serif" font-size="14.00">value = 62.263</text>
</g>
<!-- 3&#45;&gt;53 -->
<g id="edge7" class="edge">
<title>3&#45;&gt;53</title>
<path fill="none" stroke="black" d="M254.88,-178.54C254.88,-170.92 254.88,-162.75 254.88,-154.77"/>
<polygon fill="black" stroke="black" points="258.38,-154.82 254.88,-144.82 251.38,-154.82 258.38,-154.82"/>
</g>
<!-- 5 -->
<g id="node6" class="node">
<title>5</title>
<path fill="#c0c0c0" stroke="black" d="M57.88,-36C57.88,-36 27.88,-36 27.88,-36 21.88,-36 15.88,-30 15.88,-24 15.88,-24 15.88,-12 15.88,-12 15.88,-6 21.88,0 27.88,0 27.88,0 57.88,0 57.88,0 63.88,0 69.88,-6 69.88,-12 69.88,-12 69.88,-24 69.88,-24 69.88,-30 63.88,-36 57.88,-36"/>
<text text-anchor="middle" x="42.88" y="-12.57" font-family="Helvetica,sans-Serif" font-size="14.00">(...)</text>
</g>
<!-- 4&#45;&gt;5 -->
<g id="edge5" class="edge">
<title>4&#45;&gt;5</title>
<path fill="none" stroke="black" d="M64.54,-71.67C61.13,-63.37 57.54,-54.63 54.28,-46.71"/>
<polygon fill="black" stroke="black" points="57.56,-45.5 50.52,-37.58 51.09,-48.16 57.56,-45.5"/>
</g>
<!-- 22 -->
<g id="node7" class="node">
<title>22</title>
<path fill="#c0c0c0" stroke="black" d="M129.88,-36C129.88,-36 99.88,-36 99.88,-36 93.88,-36 87.88,-30 87.88,-24 87.88,-24 87.88,-12 87.88,-12 87.88,-6 93.88,0 99.88,0 99.88,0 129.88,0 129.88,0 135.88,0 141.88,-6 141.88,-12 141.88,-12 141.88,-24 141.88,-24 141.88,-30 135.88,-36 129.88,-36"/>
<text text-anchor="middle" x="114.88" y="-12.57" font-family="Helvetica,sans-Serif" font-size="14.00">(...)</text>
</g>
<!-- 4&#45;&gt;22 -->
<g id="edge6" class="edge">
<title>4&#45;&gt;22</title>
<path fill="none" stroke="black" d="M93.21,-71.67C96.62,-63.37 100.21,-54.63 103.47,-46.71"/>
<polygon fill="black" stroke="black" points="106.66,-48.16 107.23,-37.58 100.19,-45.5 106.66,-48.16"/>
</g>
<!-- 54 -->
<g id="node9" class="node">
<title>54</title>
<path fill="#c0c0c0" stroke="black" d="M235.88,-36C235.88,-36 205.88,-36 205.88,-36 199.88,-36 193.88,-30 193.88,-24 193.88,-24 193.88,-12 193.88,-12 193.88,-6 199.88,0 205.88,0 205.88,0 235.88,0 235.88,0 241.88,0 247.88,-6 247.88,-12 247.88,-12 247.88,-24 247.88,-24 247.88,-30 241.88,-36 235.88,-36"/>
<text text-anchor="middle" x="220.88" y="-12.57" font-family="Helvetica,sans-Serif" font-size="14.00">(...)</text>
</g>
<!-- 53&#45;&gt;54 -->
<g id="edge8" class="edge">
<title>53&#45;&gt;54</title>
<path fill="none" stroke="black" d="M241.34,-71.67C238.12,-63.37 234.72,-54.63 231.64,-46.71"/>
<polygon fill="black" stroke="black" points="234.98,-45.65 228.1,-37.59 228.46,-48.18 234.98,-45.65"/>
</g>
<!-- 77 -->
<g id="node10" class="node">
<title>77</title>
<path fill="#c0c0c0" stroke="black" d="M307.88,-36C307.88,-36 277.88,-36 277.88,-36 271.88,-36 265.88,-30 265.88,-24 265.88,-24 265.88,-12 265.88,-12 265.88,-6 271.88,0 277.88,0 277.88,0 307.88,0 307.88,0 313.88,0 319.88,-6 319.88,-12 319.88,-12 319.88,-24 319.88,-24 319.88,-30 313.88,-36 307.88,-36"/>
<text text-anchor="middle" x="292.88" y="-12.57" font-family="Helvetica,sans-Serif" font-size="14.00">(...)</text>
</g>
<!-- 53&#45;&gt;77 -->
<g id="edge9" class="edge">
<title>53&#45;&gt;77</title>
<path fill="none" stroke="black" d="M270,-71.67C273.6,-63.37 277.4,-54.63 280.84,-46.71"/>
<polygon fill="black" stroke="black" points="284.04,-48.14 284.81,-37.57 277.62,-45.35 284.04,-48.14"/>
</g>
<!-- 99 -->
<g id="node12" class="node">
<title>99</title>
<path fill="#f2c29f" stroke="black" d="M490,-143C490,-143 363.75,-143 363.75,-143 357.75,-143 351.75,-137 351.75,-131 351.75,-131 351.75,-84 351.75,-84 351.75,-78 357.75,-72 363.75,-72 363.75,-72 490,-72 490,-72 496,-72 502,-78 502,-84 502,-84 502,-131 502,-131 502,-137 496,-143 490,-143"/>
<text text-anchor="start" x="394.25" y="-125.7" font-family="Helvetica,sans-Serif" font-size="14.00">P4_1 ≤ 0.5</text>
<text text-anchor="start" x="359.75" y="-109.95" font-family="Helvetica,sans-Serif" font-size="14.00">squared_error = 77.34</text>
<text text-anchor="start" x="382.62" y="-94.2" font-family="Helvetica,sans-Serif" font-size="14.00">samples = 115</text>
<text text-anchor="start" x="382.25" y="-78.45" font-family="Helvetica,sans-Serif" font-size="14.00">value = 53.416</text>
</g>
<!-- 98&#45;&gt;99 -->
<g id="edge11" class="edge">
<title>98&#45;&gt;99</title>
<path fill="none" stroke="black" d="M485.57,-178.54C478.45,-170.04 470.74,-160.84 463.33,-152"/>
<polygon fill="black" stroke="black" points="466.13,-149.89 457.02,-144.47 460.76,-154.38 466.13,-149.89"/>
</g>
<!-- 120 -->
<g id="node15" class="node">
<title>120</title>
<path fill="#f6d1b7" stroke="black" d="M665.75,-143C665.75,-143 532,-143 532,-143 526,-143 520,-137 520,-131 520,-131 520,-84 520,-84 520,-78 526,-72 532,-72 532,-72 665.75,-72 665.75,-72 671.75,-72 677.75,-78 677.75,-84 677.75,-84 677.75,-131 677.75,-131 677.75,-137 671.75,-143 665.75,-143"/>
<text text-anchor="start" x="558.75" y="-125.7" font-family="Helvetica,sans-Serif" font-size="14.00">P4_6_2 ≤ 1.5</text>
<text text-anchor="start" x="528" y="-109.95" font-family="Helvetica,sans-Serif" font-size="14.00">squared_error = 75.898</text>
<text text-anchor="start" x="554.25" y="-94.2" font-family="Helvetica,sans-Serif" font-size="14.00">samples = 128</text>
<text text-anchor="start" x="554.25" y="-78.45" font-family="Helvetica,sans-Serif" font-size="14.00">value = 45.982</text>
</g>
<!-- 98&#45;&gt;120 -->
<g id="edge14" class="edge">
<title>98&#45;&gt;120</title>
<path fill="none" stroke="black" d="M542.85,-178.54C549.58,-170.12 556.85,-161.03 563.86,-152.27"/>
<polygon fill="black" stroke="black" points="566.57,-154.49 570.08,-144.49 561.1,-150.11 566.57,-154.49"/>
</g>
<!-- 100 -->
<g id="node13" class="node">
<title>100</title>
<path fill="#c0c0c0" stroke="black" d="M410.88,-36C410.88,-36 380.88,-36 380.88,-36 374.88,-36 368.88,-30 368.88,-24 368.88,-24 368.88,-12 368.88,-12 368.88,-6 374.88,0 380.88,0 380.88,0 410.88,0 410.88,0 416.88,0 422.88,-6 422.88,-12 422.88,-12 422.88,-24 422.88,-24 422.88,-30 416.88,-36 410.88,-36"/>
<text text-anchor="middle" x="395.88" y="-12.57" font-family="Helvetica,sans-Serif" font-size="14.00">(...)</text>
</g>
<!-- 99&#45;&gt;100 -->
<g id="edge12" class="edge">
<title>99&#45;&gt;100</title>
<path fill="none" stroke="black" d="M414.53,-71.67C411.63,-63.47 408.57,-54.84 405.79,-46.98"/>
<polygon fill="black" stroke="black" points="409.11,-45.87 402.47,-37.61 402.51,-48.2 409.11,-45.87"/>
</g>
<!-- 105 -->
<g id="node14" class="node">
<title>105</title>
<path fill="#c0c0c0" stroke="black" d="M482.88,-36C482.88,-36 452.88,-36 452.88,-36 446.88,-36 440.88,-30 440.88,-24 440.88,-24 440.88,-12 440.88,-12 440.88,-6 446.88,0 452.88,0 452.88,0 482.88,0 482.88,0 488.88,0 494.88,-6 494.88,-12 494.88,-12 494.88,-24 494.88,-24 494.88,-30 488.88,-36 482.88,-36"/>
<text text-anchor="middle" x="467.88" y="-12.57" font-family="Helvetica,sans-Serif" font-size="14.00">(...)</text>
</g>
<!-- 99&#45;&gt;105 -->
<g id="edge13" class="edge">
<title>99&#45;&gt;105</title>
<path fill="none" stroke="black" d="M443.2,-71.67C447.13,-63.28 451.27,-54.43 455.02,-46.44"/>
<polygon fill="black" stroke="black" points="458.11,-48.09 459.18,-37.55 451.77,-45.12 458.11,-48.09"/>
</g>
<!-- 121 -->
<g id="node16" class="node">
<title>121</title>
<path fill="#c0c0c0" stroke="black" d="M601.88,-36C601.88,-36 571.88,-36 571.88,-36 565.88,-36 559.88,-30 559.88,-24 559.88,-24 559.88,-12 559.88,-12 559.88,-6 565.88,0 571.88,0 571.88,0 601.88,0 601.88,0 607.88,0 613.88,-6 613.88,-12 613.88,-12 613.88,-24 613.88,-24 613.88,-30 607.88,-36 601.88,-36"/>
<text text-anchor="middle" x="586.88" y="-12.57" font-family="Helvetica,sans-Serif" font-size="14.00">(...)</text>
</g>
<!-- 120&#45;&gt;121 -->
<g id="edge15" class="edge">
<title>120&#45;&gt;121</title>
<path fill="none" stroke="black" d="M594.1,-71.67C593,-63.66 591.84,-55.24 590.79,-47.53"/>
<polygon fill="black" stroke="black" points="594.26,-47.11 589.44,-37.68 587.33,-48.07 594.26,-47.11"/>
</g>
<!-- 138 -->
<g id="node17" class="node">
<title>138</title>
<path fill="#c0c0c0" stroke="black" d="M673.88,-36C673.88,-36 643.88,-36 643.88,-36 637.88,-36 631.88,-30 631.88,-24 631.88,-24 631.88,-12 631.88,-12 631.88,-6 637.88,0 643.88,0 643.88,0 673.88,0 673.88,0 679.88,0 685.88,-6 685.88,-12 685.88,-12 685.88,-24 685.88,-24 685.88,-30 679.88,-36 673.88,-36"/>
<text text-anchor="middle" x="658.88" y="-12.57" font-family="Helvetica,sans-Serif" font-size="14.00">(...)</text>
</g>
<!-- 120&#45;&gt;138 -->
<g id="edge16" class="edge">
<title>120&#45;&gt;138</title>
<path fill="none" stroke="black" d="M622.76,-71.67C628.71,-62.99 634.99,-53.83 640.62,-45.62"/>
<polygon fill="black" stroke="black" points="643.47,-47.66 646.24,-37.43 637.69,-43.7 643.47,-47.66"/>
</g>
<!-- 146 -->
<g id="node19" class="node">
<title>146</title>
<path fill="#ea995f" stroke="black" d="M1014,-250C1014,-250 887.75,-250 887.75,-250 881.75,-250 875.75,-244 875.75,-238 875.75,-238 875.75,-191 875.75,-191 875.75,-185 881.75,-179 887.75,-179 887.75,-179 1014,-179 1014,-179 1020,-179 1026,-185 1026,-191 1026,-191 1026,-238 1026,-238 1026,-244 1020,-250 1014,-250"/>
<text text-anchor="start" x="910.75" y="-232.7" font-family="Helvetica,sans-Serif" font-size="14.00">P4_6_4 ≤ 1.5</text>
<text text-anchor="start" x="883.75" y="-216.95" font-family="Helvetica,sans-Serif" font-size="14.00">squared_error = 82.68</text>
<text text-anchor="start" x="906.25" y="-201.2" font-family="Helvetica,sans-Serif" font-size="14.00">samples = 604</text>
<text text-anchor="start" x="906.25" y="-185.45" font-family="Helvetica,sans-Serif" font-size="14.00">value = 73.189</text>
</g>
<!-- 145&#45;&gt;146 -->
<g id="edge18" class="edge">
<title>145&#45;&gt;146</title>
<path fill="none" stroke="black" d="M1009.57,-285.54C1002.45,-277.04 994.74,-267.84 987.33,-259"/>
<polygon fill="black" stroke="black" points="990.13,-256.89 981.02,-251.47 984.76,-261.38 990.13,-256.89"/>
</g>
<!-- 221 -->
<g id="node26" class="node">
<title>221</title>
<path fill="#eead7e" stroke="black" d="M1197.5,-250C1197.5,-250 1056.25,-250 1056.25,-250 1050.25,-250 1044.25,-244 1044.25,-238 1044.25,-238 1044.25,-191 1044.25,-191 1044.25,-185 1050.25,-179 1056.25,-179 1056.25,-179 1197.5,-179 1197.5,-179 1203.5,-179 1209.5,-185 1209.5,-191 1209.5,-191 1209.5,-238 1209.5,-238 1209.5,-244 1203.5,-250 1197.5,-250"/>
<text text-anchor="start" x="1086.75" y="-232.7" font-family="Helvetica,sans-Serif" font-size="14.00">P4_8_2 ≤ 1.5</text>
<text text-anchor="start" x="1052.25" y="-216.95" font-family="Helvetica,sans-Serif" font-size="14.00">squared_error = 101.422</text>
<text text-anchor="start" x="1082.25" y="-201.2" font-family="Helvetica,sans-Serif" font-size="14.00">samples = 858</text>
<text text-anchor="start" x="1082.25" y="-185.45" font-family="Helvetica,sans-Serif" font-size="14.00">value = 63.653</text>
</g>
<!-- 145&#45;&gt;221 -->
<g id="edge25" class="edge">
<title>145&#45;&gt;221</title>
<path fill="none" stroke="black" d="M1068.18,-285.54C1075.3,-277.04 1083.01,-267.84 1090.42,-259"/>
<polygon fill="black" stroke="black" points="1092.99,-261.38 1096.73,-251.47 1087.62,-256.89 1092.99,-261.38"/>
</g>
<!-- 147 -->
<g id="node20" class="node">
<title>147</title>
<path fill="#e99457" stroke="black" d="M841.75,-143C841.75,-143 708,-143 708,-143 702,-143 696,-137 696,-131 696,-131 696,-84 696,-84 696,-78 702,-72 708,-72 708,-72 841.75,-72 841.75,-72 847.75,-72 853.75,-78 853.75,-84 853.75,-84 853.75,-131 853.75,-131 853.75,-137 847.75,-143 841.75,-143"/>
<text text-anchor="start" x="738.5" y="-125.7" font-family="Helvetica,sans-Serif" font-size="14.00">P12_2 ≤ 1.5</text>
<text text-anchor="start" x="704" y="-109.95" font-family="Helvetica,sans-Serif" font-size="14.00">squared_error = 70.803</text>
<text text-anchor="start" x="730.25" y="-94.2" font-family="Helvetica,sans-Serif" font-size="14.00">samples = 399</text>
<text text-anchor="start" x="730.25" y="-78.45" font-family="Helvetica,sans-Serif" font-size="14.00">value = 75.745</text>
</g>
<!-- 146&#45;&gt;147 -->
<g id="edge19" class="edge">
<title>146&#45;&gt;147</title>
<path fill="none" stroke="black" d="M892.27,-178.54C876.47,-169.11 859.24,-158.83 842.97,-149.13"/>
<polygon fill="black" stroke="black" points="845.21,-146.38 834.82,-144.27 841.62,-152.39 845.21,-146.38"/>
</g>
<!-- 190 -->
<g id="node23" class="node">
<title>190</title>
<path fill="#eca36f" stroke="black" d="M1017.75,-143C1017.75,-143 884,-143 884,-143 878,-143 872,-137 872,-131 872,-131 872,-84 872,-84 872,-78 878,-72 884,-72 884,-72 1017.75,-72 1017.75,-72 1023.75,-72 1029.75,-78 1029.75,-84 1029.75,-84 1029.75,-131 1029.75,-131 1029.75,-137 1023.75,-143 1017.75,-143"/>
<text text-anchor="start" x="910.75" y="-125.7" font-family="Helvetica,sans-Serif" font-size="14.00">P4_7_3 ≤ 1.5</text>
<text text-anchor="start" x="880" y="-109.95" font-family="Helvetica,sans-Serif" font-size="14.00">squared_error = 68.345</text>
<text text-anchor="start" x="906.25" y="-94.2" font-family="Helvetica,sans-Serif" font-size="14.00">samples = 205</text>
<text text-anchor="start" x="906.25" y="-78.45" font-family="Helvetica,sans-Serif" font-size="14.00">value = 68.215</text>
</g>
<!-- 146&#45;&gt;190 -->
<g id="edge22" class="edge">
<title>146&#45;&gt;190</title>
<path fill="none" stroke="black" d="M950.88,-178.54C950.88,-170.92 950.88,-162.75 950.88,-154.77"/>
<polygon fill="black" stroke="black" points="954.38,-154.82 950.88,-144.82 947.38,-154.82 954.38,-154.82"/>
</g>
<!-- 148 -->
<g id="node21" class="node">
<title>148</title>
<path fill="#c0c0c0" stroke="black" d="M755.88,-36C755.88,-36 725.88,-36 725.88,-36 719.88,-36 713.88,-30 713.88,-24 713.88,-24 713.88,-12 713.88,-12 713.88,-6 719.88,0 725.88,0 725.88,0 755.88,0 755.88,0 761.88,0 767.88,-6 767.88,-12 767.88,-12 767.88,-24 767.88,-24 767.88,-30 761.88,-36 755.88,-36"/>
<text text-anchor="middle" x="740.88" y="-12.57" font-family="Helvetica,sans-Serif" font-size="14.00">(...)</text>
</g>
<!-- 147&#45;&gt;148 -->
<g id="edge20" class="edge">
<title>147&#45;&gt;148</title>
<path fill="none" stroke="black" d="M761.34,-71.67C758.12,-63.37 754.72,-54.63 751.64,-46.71"/>
<polygon fill="black" stroke="black" points="754.98,-45.65 748.1,-37.59 748.46,-48.18 754.98,-45.65"/>
</g>
<!-- 163 -->
<g id="node22" class="node">
<title>163</title>
<path fill="#c0c0c0" stroke="black" d="M827.88,-36C827.88,-36 797.88,-36 797.88,-36 791.88,-36 785.88,-30 785.88,-24 785.88,-24 785.88,-12 785.88,-12 785.88,-6 791.88,0 797.88,0 797.88,0 827.88,0 827.88,0 833.88,0 839.88,-6 839.88,-12 839.88,-12 839.88,-24 839.88,-24 839.88,-30 833.88,-36 827.88,-36"/>
<text text-anchor="middle" x="812.88" y="-12.57" font-family="Helvetica,sans-Serif" font-size="14.00">(...)</text>
</g>
<!-- 147&#45;&gt;163 -->
<g id="edge21" class="edge">
<title>147&#45;&gt;163</title>
<path fill="none" stroke="black" d="M790,-71.67C793.6,-63.37 797.4,-54.63 800.84,-46.71"/>
<polygon fill="black" stroke="black" points="804.04,-48.14 804.81,-37.57 797.62,-45.35 804.04,-48.14"/>
</g>
<!-- 191 -->
<g id="node24" class="node">
<title>191</title>
<path fill="#c0c0c0" stroke="black" d="M904.88,-36C904.88,-36 874.88,-36 874.88,-36 868.88,-36 862.88,-30 862.88,-24 862.88,-24 862.88,-12 862.88,-12 862.88,-6 868.88,0 874.88,0 874.88,0 904.88,0 904.88,0 910.88,0 916.88,-6 916.88,-12 916.88,-12 916.88,-24 916.88,-24 916.88,-30 910.88,-36 904.88,-36"/>
<text text-anchor="middle" x="889.88" y="-12.57" font-family="Helvetica,sans-Serif" font-size="14.00">(...)</text>
</g>
<!-- 190&#45;&gt;191 -->
<g id="edge23" class="edge">
<title>190&#45;&gt;191</title>
<path fill="none" stroke="black" d="M926.59,-71.67C920.54,-62.99 914.16,-53.83 908.44,-45.62"/>
<polygon fill="black" stroke="black" points="911.31,-43.63 902.72,-37.42 905.57,-47.63 911.31,-43.63"/>
</g>
<!-- 212 -->
<g id="node25" class="node">
<title>212</title>
<path fill="#c0c0c0" stroke="black" d="M976.88,-36C976.88,-36 946.88,-36 946.88,-36 940.88,-36 934.88,-30 934.88,-24 934.88,-24 934.88,-12 934.88,-12 934.88,-6 940.88,0 946.88,0 946.88,0 976.88,0 976.88,0 982.88,0 988.88,-6 988.88,-12 988.88,-12 988.88,-24 988.88,-24 988.88,-30 982.88,-36 976.88,-36"/>
<text text-anchor="middle" x="961.88" y="-12.57" font-family="Helvetica,sans-Serif" font-size="14.00">(...)</text>
</g>
<!-- 190&#45;&gt;212 -->
<g id="edge24" class="edge">
<title>190&#45;&gt;212</title>
<path fill="none" stroke="black" d="M955.25,-71.67C956.26,-63.66 957.32,-55.24 958.29,-47.53"/>
<polygon fill="black" stroke="black" points="961.75,-48.04 959.53,-37.68 954.81,-47.17 961.75,-48.04"/>
</g>
<!-- 222 -->
<g id="node27" class="node">
<title>222</title>
<path fill="#f1ba93" stroke="black" d="M1193.75,-143C1193.75,-143 1060,-143 1060,-143 1054,-143 1048,-137 1048,-131 1048,-131 1048,-84 1048,-84 1048,-78 1054,-72 1060,-72 1060,-72 1193.75,-72 1193.75,-72 1199.75,-72 1205.75,-78 1205.75,-84 1205.75,-84 1205.75,-131 1205.75,-131 1205.75,-137 1199.75,-143 1193.75,-143"/>
<text text-anchor="start" x="1086.75" y="-125.7" font-family="Helvetica,sans-Serif" font-size="14.00">P4_7_3 ≤ 1.5</text>
<text text-anchor="start" x="1056" y="-109.95" font-family="Helvetica,sans-Serif" font-size="14.00">squared_error = 86.733</text>
<text text-anchor="start" x="1082.25" y="-94.2" font-family="Helvetica,sans-Serif" font-size="14.00">samples = 286</text>
<text text-anchor="start" x="1082.25" y="-78.45" font-family="Helvetica,sans-Serif" font-size="14.00">value = 57.221</text>
</g>
<!-- 221&#45;&gt;222 -->
<g id="edge26" class="edge">
<title>221&#45;&gt;222</title>
<path fill="none" stroke="black" d="M1126.88,-178.54C1126.88,-170.92 1126.88,-162.75 1126.88,-154.77"/>
<polygon fill="black" stroke="black" points="1130.38,-154.82 1126.88,-144.82 1123.38,-154.82 1130.38,-154.82"/>
</g>
<!-- 261 -->
<g id="node30" class="node">
<title>261</title>
<path fill="#eda673" stroke="black" d="M1369.75,-143C1369.75,-143 1236,-143 1236,-143 1230,-143 1224,-137 1224,-131 1224,-131 1224,-84 1224,-84 1224,-78 1230,-72 1236,-72 1236,-72 1369.75,-72 1369.75,-72 1375.75,-72 1381.75,-78 1381.75,-84 1381.75,-84 1381.75,-131 1381.75,-131 1381.75,-137 1375.75,-143 1369.75,-143"/>
<text text-anchor="start" x="1259.38" y="-125.7" font-family="Helvetica,sans-Serif" font-size="14.00">P11_3_9 ≤ 0.5</text>
<text text-anchor="start" x="1232" y="-109.95" font-family="Helvetica,sans-Serif" font-size="14.00">squared_error = 77.734</text>
<text text-anchor="start" x="1258.25" y="-94.2" font-family="Helvetica,sans-Serif" font-size="14.00">samples = 572</text>
<text text-anchor="start" x="1258.25" y="-78.45" font-family="Helvetica,sans-Serif" font-size="14.00">value = 66.869</text>
</g>
<!-- 221&#45;&gt;261 -->
<g id="edge29" class="edge">
<title>221&#45;&gt;261</title>
<path fill="none" stroke="black" d="M1185.48,-178.54C1201.28,-169.11 1218.51,-158.83 1234.78,-149.13"/>
<polygon fill="black" stroke="black" points="1236.13,-152.39 1242.93,-144.27 1232.54,-146.38 1236.13,-152.39"/>
</g>
<!-- 223 -->
<g id="node28" class="node">
<title>223</title>
<path fill="#c0c0c0" stroke="black" d="M1085.88,-36C1085.88,-36 1055.88,-36 1055.88,-36 1049.88,-36 1043.88,-30 1043.88,-24 1043.88,-24 1043.88,-12 1043.88,-12 1043.88,-6 1049.88,0 1055.88,0 1055.88,0 1085.88,0 1085.88,0 1091.88,0 1097.88,-6 1097.88,-12 1097.88,-12 1097.88,-24 1097.88,-24 1097.88,-30 1091.88,-36 1085.88,-36"/>
<text text-anchor="middle" x="1070.88" y="-12.57" font-family="Helvetica,sans-Serif" font-size="14.00">(...)</text>
</g>
<!-- 222&#45;&gt;223 -->
<g id="edge27" class="edge">
<title>222&#45;&gt;223</title>
<path fill="none" stroke="black" d="M1104.58,-71.67C1099.03,-62.99 1093.17,-53.83 1087.91,-45.62"/>
<polygon fill="black" stroke="black" points="1091.03,-43.99 1082.69,-37.46 1085.13,-47.77 1091.03,-43.99"/>
</g>
<!-- 246 -->
<g id="node29" class="node">
<title>246</title>
<path fill="#c0c0c0" stroke="black" d="M1157.88,-36C1157.88,-36 1127.88,-36 1127.88,-36 1121.88,-36 1115.88,-30 1115.88,-24 1115.88,-24 1115.88,-12 1115.88,-12 1115.88,-6 1121.88,0 1127.88,0 1127.88,0 1157.88,0 1157.88,0 1163.88,0 1169.88,-6 1169.88,-12 1169.88,-12 1169.88,-24 1169.88,-24 1169.88,-30 1163.88,-36 1157.88,-36"/>
<text text-anchor="middle" x="1142.88" y="-12.57" font-family="Helvetica,sans-Serif" font-size="14.00">(...)</text>
</g>
<!-- 222&#45;&gt;246 -->
<g id="edge28" class="edge">
<title>222&#45;&gt;246</title>
<path fill="none" stroke="black" d="M1133.24,-71.67C1134.73,-63.56 1136.29,-55.04 1137.71,-47.26"/>
<polygon fill="black" stroke="black" points="1141.1,-48.14 1139.46,-37.67 1134.22,-46.88 1141.1,-48.14"/>
</g>
<!-- 262 -->
<g id="node31" class="node">
<title>262</title>
<path fill="#c0c0c0" stroke="black" d="M1261.88,-36C1261.88,-36 1231.88,-36 1231.88,-36 1225.88,-36 1219.88,-30 1219.88,-24 1219.88,-24 1219.88,-12 1219.88,-12 1219.88,-6 1225.88,0 1231.88,0 1231.88,0 1261.88,0 1261.88,0 1267.88,0 1273.88,-6 1273.88,-12 1273.88,-12 1273.88,-24 1273.88,-24 1273.88,-30 1267.88,-36 1261.88,-36"/>
<text text-anchor="middle" x="1246.88" y="-12.57" font-family="Helvetica,sans-Serif" font-size="14.00">(...)</text>
</g>
<!-- 261&#45;&gt;262 -->
<g id="edge30" class="edge">
<title>261&#45;&gt;262</title>
<path fill="none" stroke="black" d="M1280.58,-71.67C1275.03,-62.99 1269.17,-53.83 1263.91,-45.62"/>
<polygon fill="black" stroke="black" points="1267.03,-43.99 1258.69,-37.46 1261.13,-47.77 1267.03,-43.99"/>
</g>
<!-- 287 -->
<g id="node32" class="node">
<title>287</title>
<path fill="#c0c0c0" stroke="black" d="M1333.88,-36C1333.88,-36 1303.88,-36 1303.88,-36 1297.88,-36 1291.88,-30 1291.88,-24 1291.88,-24 1291.88,-12 1291.88,-12 1291.88,-6 1297.88,0 1303.88,0 1303.88,0 1333.88,0 1333.88,0 1339.88,0 1345.88,-6 1345.88,-12 1345.88,-12 1345.88,-24 1345.88,-24 1345.88,-30 1339.88,-36 1333.88,-36"/>
<text text-anchor="middle" x="1318.88" y="-12.57" font-family="Helvetica,sans-Serif" font-size="14.00">(...)</text>
</g>
<!-- 261&#45;&gt;287 -->
<g id="edge31" class="edge">
<title>261&#45;&gt;287</title>
<path fill="none" stroke="black" d="M1309.24,-71.67C1310.73,-63.56 1312.29,-55.04 1313.71,-47.26"/>
<polygon fill="black" stroke="black" points="1317.1,-48.14 1315.46,-37.67 1310.22,-46.88 1317.1,-48.14"/>
</g>
<!-- 309 -->
<g id="node34" class="node">
<title>309</title>
<path fill="#f5d0b4" stroke="black" d="M1809.75,-357C1809.75,-357 1676,-357 1676,-357 1670,-357 1664,-351 1664,-345 1664,-345 1664,-298 1664,-298 1664,-292 1670,-286 1676,-286 1676,-286 1809.75,-286 1809.75,-286 1815.75,-286 1821.75,-292 1821.75,-298 1821.75,-298 1821.75,-345 1821.75,-345 1821.75,-351 1815.75,-357 1809.75,-357"/>
<text text-anchor="start" x="1702.75" y="-339.7" font-family="Helvetica,sans-Serif" font-size="14.00">P4_6_4 ≤ 1.5</text>
<text text-anchor="start" x="1672" y="-323.95" font-family="Helvetica,sans-Serif" font-size="14.00">squared_error = 98.524</text>
<text text-anchor="start" x="1694.5" y="-308.2" font-family="Helvetica,sans-Serif" font-size="14.00">samples = 1295</text>
<text text-anchor="start" x="1698.25" y="-292.45" font-family="Helvetica,sans-Serif" font-size="14.00">value = 46.673</text>
</g>
<!-- 308&#45;&gt;309 -->
<g id="edge33" class="edge">
<title>308&#45;&gt;309</title>
<path fill="none" stroke="black" d="M1742.88,-392.54C1742.88,-384.92 1742.88,-376.75 1742.88,-368.77"/>
<polygon fill="black" stroke="black" points="1746.38,-368.82 1742.88,-358.82 1739.38,-368.82 1746.38,-368.82"/>
</g>
<!-- 458 -->
<g id="node49" class="node">
<title>458</title>
<path fill="#f1bd97" stroke="black" d="M2341.5,-357C2341.5,-357 2200.25,-357 2200.25,-357 2194.25,-357 2188.25,-351 2188.25,-345 2188.25,-345 2188.25,-298 2188.25,-298 2188.25,-292 2194.25,-286 2200.25,-286 2200.25,-286 2341.5,-286 2341.5,-286 2347.5,-286 2353.5,-292 2353.5,-298 2353.5,-298 2353.5,-345 2353.5,-345 2353.5,-351 2347.5,-357 2341.5,-357"/>
<text text-anchor="start" x="2230.75" y="-339.7" font-family="Helvetica,sans-Serif" font-size="14.00">P4_6_2 ≤ 1.5</text>
<text text-anchor="start" x="2196.25" y="-323.95" font-family="Helvetica,sans-Serif" font-size="14.00">squared_error = 105.771</text>
<text text-anchor="start" x="2222.5" y="-308.2" font-family="Helvetica,sans-Serif" font-size="14.00">samples = 1382</text>
<text text-anchor="start" x="2226.25" y="-292.45" font-family="Helvetica,sans-Serif" font-size="14.00">value = 55.732</text>
</g>
<!-- 308&#45;&gt;458 -->
<g id="edge48" class="edge">
<title>308&#45;&gt;458</title>
<path fill="none" stroke="black" d="M1825.96,-410.98C1921.17,-392.04 2076.89,-361.08 2176.57,-341.25"/>
<polygon fill="black" stroke="black" points="2177.23,-344.69 2186.36,-339.31 2175.87,-337.82 2177.23,-344.69"/>
</g>
<!-- 310 -->
<g id="node35" class="node">
<title>310</title>
<path fill="#f3c3a1" stroke="black" d="M1721.75,-250C1721.75,-250 1588,-250 1588,-250 1582,-250 1576,-244 1576,-238 1576,-238 1576,-191 1576,-191 1576,-185 1582,-179 1588,-179 1588,-179 1721.75,-179 1721.75,-179 1727.75,-179 1733.75,-185 1733.75,-191 1733.75,-191 1733.75,-238 1733.75,-238 1733.75,-244 1727.75,-250 1721.75,-250"/>
<text text-anchor="start" x="1614.75" y="-232.7" font-family="Helvetica,sans-Serif" font-size="14.00">P4_8_1 ≤ 1.5</text>
<text text-anchor="start" x="1584" y="-216.95" font-family="Helvetica,sans-Serif" font-size="14.00">squared_error = 89.627</text>
<text text-anchor="start" x="1610.25" y="-201.2" font-family="Helvetica,sans-Serif" font-size="14.00">samples = 384</text>
<text text-anchor="start" x="1610.25" y="-185.45" font-family="Helvetica,sans-Serif" font-size="14.00">value = 52.637</text>
</g>
<!-- 309&#45;&gt;310 -->
<g id="edge34" class="edge">
<title>309&#45;&gt;310</title>
<path fill="none" stroke="black" d="M1713.57,-285.54C1706.45,-277.04 1698.74,-267.84 1691.33,-259"/>
<polygon fill="black" stroke="black" points="1694.13,-256.89 1685.02,-251.47 1688.76,-261.38 1694.13,-256.89"/>
</g>
<!-- 365 -->
<g id="node42" class="node">
<title>365</title>
<path fill="#f6d5bd" stroke="black" d="M1897.75,-250C1897.75,-250 1764,-250 1764,-250 1758,-250 1752,-244 1752,-238 1752,-238 1752,-191 1752,-191 1752,-185 1758,-179 1764,-179 1764,-179 1897.75,-179 1897.75,-179 1903.75,-179 1909.75,-185 1909.75,-191 1909.75,-191 1909.75,-238 1909.75,-238 1909.75,-244 1903.75,-250 1897.75,-250"/>
<text text-anchor="start" x="1790.75" y="-232.7" font-family="Helvetica,sans-Serif" font-size="14.00">P4_6_2 ≤ 1.5</text>
<text text-anchor="start" x="1760" y="-216.95" font-family="Helvetica,sans-Serif" font-size="14.00">squared_error = 80.958</text>
<text text-anchor="start" x="1786.62" y="-201.2" font-family="Helvetica,sans-Serif" font-size="14.00">samples = 911</text>
<text text-anchor="start" x="1786.25" y="-185.45" font-family="Helvetica,sans-Serif" font-size="14.00">value = 44.159</text>
</g>
<!-- 309&#45;&gt;365 -->
<g id="edge41" class="edge">
<title>309&#45;&gt;365</title>
<path fill="none" stroke="black" d="M1772.18,-285.54C1779.3,-277.04 1787.01,-267.84 1794.42,-259"/>
<polygon fill="black" stroke="black" points="1796.99,-261.38 1800.73,-251.47 1791.62,-256.89 1796.99,-261.38"/>
</g>
<!-- 311 -->
<g id="node36" class="node">
<title>311</title>
<path fill="#f4cbae" stroke="black" d="M1545.75,-143C1545.75,-143 1412,-143 1412,-143 1406,-143 1400,-137 1400,-131 1400,-131 1400,-84 1400,-84 1400,-78 1406,-72 1412,-72 1412,-72 1545.75,-72 1545.75,-72 1551.75,-72 1557.75,-78 1557.75,-84 1557.75,-84 1557.75,-131 1557.75,-131 1557.75,-137 1551.75,-143 1545.75,-143"/>
<text text-anchor="start" x="1438.75" y="-125.7" font-family="Helvetica,sans-Serif" font-size="14.00">P4_6_1 ≤ 1.5</text>
<text text-anchor="start" x="1408" y="-109.95" font-family="Helvetica,sans-Serif" font-size="14.00">squared_error = 71.743</text>
<text text-anchor="start" x="1434.25" y="-94.2" font-family="Helvetica,sans-Serif" font-size="14.00">samples = 188</text>
<text text-anchor="start" x="1438" y="-78.45" font-family="Helvetica,sans-Serif" font-size="14.00">value = 48.81</text>
</g>
<!-- 310&#45;&gt;311 -->
<g id="edge35" class="edge">
<title>310&#45;&gt;311</title>
<path fill="none" stroke="black" d="M1596.27,-178.54C1580.47,-169.11 1563.24,-158.83 1546.97,-149.13"/>
<polygon fill="black" stroke="black" points="1549.21,-146.38 1538.82,-144.27 1545.62,-152.39 1549.21,-146.38"/>
</g>
<!-- 336 -->
<g id="node39" class="node">
<title>336</title>
<path fill="#f1bc95" stroke="black" d="M1721.75,-143C1721.75,-143 1588,-143 1588,-143 1582,-143 1576,-137 1576,-131 1576,-131 1576,-84 1576,-84 1576,-78 1582,-72 1588,-72 1588,-72 1721.75,-72 1721.75,-72 1727.75,-72 1733.75,-78 1733.75,-84 1733.75,-84 1733.75,-131 1733.75,-131 1733.75,-137 1727.75,-143 1721.75,-143"/>
<text text-anchor="start" x="1614.75" y="-125.7" font-family="Helvetica,sans-Serif" font-size="14.00">P4_6_3 ≤ 1.5</text>
<text text-anchor="start" x="1584" y="-109.95" font-family="Helvetica,sans-Serif" font-size="14.00">squared_error = 79.248</text>
<text text-anchor="start" x="1610.25" y="-94.2" font-family="Helvetica,sans-Serif" font-size="14.00">samples = 196</text>
<text text-anchor="start" x="1610.25" y="-78.45" font-family="Helvetica,sans-Serif" font-size="14.00">value = 56.309</text>
</g>
<!-- 310&#45;&gt;336 -->
<g id="edge38" class="edge">
<title>310&#45;&gt;336</title>
<path fill="none" stroke="black" d="M1654.88,-178.54C1654.88,-170.92 1654.88,-162.75 1654.88,-154.77"/>
<polygon fill="black" stroke="black" points="1658.38,-154.82 1654.88,-144.82 1651.38,-154.82 1658.38,-154.82"/>
</g>
<!-- 312 -->
<g id="node37" class="node">
<title>312</title>
<path fill="#c0c0c0" stroke="black" d="M1437.88,-36C1437.88,-36 1407.88,-36 1407.88,-36 1401.88,-36 1395.88,-30 1395.88,-24 1395.88,-24 1395.88,-12 1395.88,-12 1395.88,-6 1401.88,0 1407.88,0 1407.88,0 1437.88,0 1437.88,0 1443.88,0 1449.88,-6 1449.88,-12 1449.88,-12 1449.88,-24 1449.88,-24 1449.88,-30 1443.88,-36 1437.88,-36"/>
<text text-anchor="middle" x="1422.88" y="-12.57" font-family="Helvetica,sans-Serif" font-size="14.00">(...)</text>
</g>
<!-- 311&#45;&gt;312 -->
<g id="edge36" class="edge">
<title>311&#45;&gt;312</title>
<path fill="none" stroke="black" d="M1456.58,-71.67C1451.03,-62.99 1445.17,-53.83 1439.91,-45.62"/>
<polygon fill="black" stroke="black" points="1443.03,-43.99 1434.69,-37.46 1437.13,-47.77 1443.03,-43.99"/>
</g>
<!-- 327 -->
<g id="node38" class="node">
<title>327</title>
<path fill="#c0c0c0" stroke="black" d="M1509.88,-36C1509.88,-36 1479.88,-36 1479.88,-36 1473.88,-36 1467.88,-30 1467.88,-24 1467.88,-24 1467.88,-12 1467.88,-12 1467.88,-6 1473.88,0 1479.88,0 1479.88,0 1509.88,0 1509.88,0 1515.88,0 1521.88,-6 1521.88,-12 1521.88,-12 1521.88,-24 1521.88,-24 1521.88,-30 1515.88,-36 1509.88,-36"/>
<text text-anchor="middle" x="1494.88" y="-12.57" font-family="Helvetica,sans-Serif" font-size="14.00">(...)</text>
</g>
<!-- 311&#45;&gt;327 -->
<g id="edge37" class="edge">
<title>311&#45;&gt;327</title>
<path fill="none" stroke="black" d="M1485.24,-71.67C1486.73,-63.56 1488.29,-55.04 1489.71,-47.26"/>
<polygon fill="black" stroke="black" points="1493.1,-48.14 1491.46,-37.67 1486.22,-46.88 1493.1,-48.14"/>
</g>
<!-- 337 -->
<g id="node40" class="node">
<title>337</title>
<path fill="#c0c0c0" stroke="black" d="M1613.88,-36C1613.88,-36 1583.88,-36 1583.88,-36 1577.88,-36 1571.88,-30 1571.88,-24 1571.88,-24 1571.88,-12 1571.88,-12 1571.88,-6 1577.88,0 1583.88,0 1583.88,0 1613.88,0 1613.88,0 1619.88,0 1625.88,-6 1625.88,-12 1625.88,-12 1625.88,-24 1625.88,-24 1625.88,-30 1619.88,-36 1613.88,-36"/>
<text text-anchor="middle" x="1598.88" y="-12.57" font-family="Helvetica,sans-Serif" font-size="14.00">(...)</text>
</g>
<!-- 336&#45;&gt;337 -->
<g id="edge39" class="edge">
<title>336&#45;&gt;337</title>
<path fill="none" stroke="black" d="M1632.58,-71.67C1627.03,-62.99 1621.17,-53.83 1615.91,-45.62"/>
<polygon fill="black" stroke="black" points="1619.03,-43.99 1610.69,-37.46 1613.13,-47.77 1619.03,-43.99"/>
</g>
<!-- 346 -->
<g id="node41" class="node">
<title>346</title>
<path fill="#c0c0c0" stroke="black" d="M1685.88,-36C1685.88,-36 1655.88,-36 1655.88,-36 1649.88,-36 1643.88,-30 1643.88,-24 1643.88,-24 1643.88,-12 1643.88,-12 1643.88,-6 1649.88,0 1655.88,0 1655.88,0 1685.88,0 1685.88,0 1691.88,0 1697.88,-6 1697.88,-12 1697.88,-12 1697.88,-24 1697.88,-24 1697.88,-30 1691.88,-36 1685.88,-36"/>
<text text-anchor="middle" x="1670.88" y="-12.57" font-family="Helvetica,sans-Serif" font-size="14.00">(...)</text>
</g>
<!-- 336&#45;&gt;346 -->
<g id="edge40" class="edge">
<title>336&#45;&gt;346</title>
<path fill="none" stroke="black" d="M1661.24,-71.67C1662.73,-63.56 1664.29,-55.04 1665.71,-47.26"/>
<polygon fill="black" stroke="black" points="1669.1,-48.14 1667.46,-37.67 1662.22,-46.88 1669.1,-48.14"/>
</g>
<!-- 366 -->
<g id="node43" class="node">
<title>366</title>
<path fill="#f5d0b6" stroke="black" d="M1897.75,-143C1897.75,-143 1764,-143 1764,-143 1758,-143 1752,-137 1752,-131 1752,-131 1752,-84 1752,-84 1752,-78 1758,-72 1764,-72 1764,-72 1897.75,-72 1897.75,-72 1903.75,-72 1909.75,-78 1909.75,-84 1909.75,-84 1909.75,-131 1909.75,-131 1909.75,-137 1903.75,-143 1897.75,-143"/>
<text text-anchor="start" x="1787.38" y="-125.7" font-family="Helvetica,sans-Serif" font-size="14.00">P11_3_9 ≤ 0.5</text>
<text text-anchor="start" x="1760" y="-109.95" font-family="Helvetica,sans-Serif" font-size="14.00">squared_error = 74.438</text>
<text text-anchor="start" x="1786.25" y="-94.2" font-family="Helvetica,sans-Serif" font-size="14.00">samples = 641</text>
<text text-anchor="start" x="1790" y="-78.45" font-family="Helvetica,sans-Serif" font-size="14.00">value = 46.23</text>
</g>
<!-- 365&#45;&gt;366 -->
<g id="edge42" class="edge">
<title>365&#45;&gt;366</title>
<path fill="none" stroke="black" d="M1830.88,-178.54C1830.88,-170.92 1830.88,-162.75 1830.88,-154.77"/>
<polygon fill="black" stroke="black" points="1834.38,-154.82 1830.88,-144.82 1827.38,-154.82 1834.38,-154.82"/>
</g>
<!-- 421 -->
<g id="node46" class="node">
<title>421</title>
<path fill="#f8dfcc" stroke="black" d="M2073.75,-143C2073.75,-143 1940,-143 1940,-143 1934,-143 1928,-137 1928,-131 1928,-131 1928,-84 1928,-84 1928,-78 1934,-72 1940,-72 1940,-72 2073.75,-72 2073.75,-72 2079.75,-72 2085.75,-78 2085.75,-84 2085.75,-84 2085.75,-131 2085.75,-131 2085.75,-137 2079.75,-143 2073.75,-143"/>
<text text-anchor="start" x="1966.75" y="-125.7" font-family="Helvetica,sans-Serif" font-size="14.00">P4_7_2 ≤ 1.5</text>
<text text-anchor="start" x="1936" y="-109.95" font-family="Helvetica,sans-Serif" font-size="14.00">squared_error = 62.075</text>
<text text-anchor="start" x="1962.25" y="-94.2" font-family="Helvetica,sans-Serif" font-size="14.00">samples = 270</text>
<text text-anchor="start" x="1962.25" y="-78.45" font-family="Helvetica,sans-Serif" font-size="14.00">value = 39.242</text>
</g>
<!-- 365&#45;&gt;421 -->
<g id="edge45" class="edge">
<title>365&#45;&gt;421</title>
<path fill="none" stroke="black" d="M1889.48,-178.54C1905.28,-169.11 1922.51,-158.83 1938.78,-149.13"/>
<polygon fill="black" stroke="black" points="1940.13,-152.39 1946.93,-144.27 1936.54,-146.38 1940.13,-152.39"/>
</g>
<!-- 367 -->
<g id="node44" class="node">
<title>367</title>
<path fill="#c0c0c0" stroke="black" d="M1789.88,-36C1789.88,-36 1759.88,-36 1759.88,-36 1753.88,-36 1747.88,-30 1747.88,-24 1747.88,-24 1747.88,-12 1747.88,-12 1747.88,-6 1753.88,0 1759.88,0 1759.88,0 1789.88,0 1789.88,0 1795.88,0 1801.88,-6 1801.88,-12 1801.88,-12 1801.88,-24 1801.88,-24 1801.88,-30 1795.88,-36 1789.88,-36"/>
<text text-anchor="middle" x="1774.88" y="-12.57" font-family="Helvetica,sans-Serif" font-size="14.00">(...)</text>
</g>
<!-- 366&#45;&gt;367 -->
<g id="edge43" class="edge">
<title>366&#45;&gt;367</title>
<path fill="none" stroke="black" d="M1808.58,-71.67C1803.03,-62.99 1797.17,-53.83 1791.91,-45.62"/>
<polygon fill="black" stroke="black" points="1795.03,-43.99 1786.69,-37.46 1789.13,-47.77 1795.03,-43.99"/>
</g>
<!-- 392 -->
<g id="node45" class="node">
<title>392</title>
<path fill="#c0c0c0" stroke="black" d="M1861.88,-36C1861.88,-36 1831.88,-36 1831.88,-36 1825.88,-36 1819.88,-30 1819.88,-24 1819.88,-24 1819.88,-12 1819.88,-12 1819.88,-6 1825.88,0 1831.88,0 1831.88,0 1861.88,0 1861.88,0 1867.88,0 1873.88,-6 1873.88,-12 1873.88,-12 1873.88,-24 1873.88,-24 1873.88,-30 1867.88,-36 1861.88,-36"/>
<text text-anchor="middle" x="1846.88" y="-12.57" font-family="Helvetica,sans-Serif" font-size="14.00">(...)</text>
</g>
<!-- 366&#45;&gt;392 -->
<g id="edge44" class="edge">
<title>366&#45;&gt;392</title>
<path fill="none" stroke="black" d="M1837.24,-71.67C1838.73,-63.56 1840.29,-55.04 1841.71,-47.26"/>
<polygon fill="black" stroke="black" points="1845.1,-48.14 1843.46,-37.67 1838.22,-46.88 1845.1,-48.14"/>
</g>
<!-- 422 -->
<g id="node47" class="node">
<title>422</title>
<path fill="#c0c0c0" stroke="black" d="M1965.88,-36C1965.88,-36 1935.88,-36 1935.88,-36 1929.88,-36 1923.88,-30 1923.88,-24 1923.88,-24 1923.88,-12 1923.88,-12 1923.88,-6 1929.88,0 1935.88,0 1935.88,0 1965.88,0 1965.88,0 1971.88,0 1977.88,-6 1977.88,-12 1977.88,-12 1977.88,-24 1977.88,-24 1977.88,-30 1971.88,-36 1965.88,-36"/>
<text text-anchor="middle" x="1950.88" y="-12.57" font-family="Helvetica,sans-Serif" font-size="14.00">(...)</text>
</g>
<!-- 421&#45;&gt;422 -->
<g id="edge46" class="edge">
<title>421&#45;&gt;422</title>
<path fill="none" stroke="black" d="M1984.58,-71.67C1979.03,-62.99 1973.17,-53.83 1967.91,-45.62"/>
<polygon fill="black" stroke="black" points="1971.03,-43.99 1962.69,-37.46 1965.13,-47.77 1971.03,-43.99"/>
</g>
<!-- 447 -->
<g id="node48" class="node">
<title>447</title>
<path fill="#c0c0c0" stroke="black" d="M2037.88,-36C2037.88,-36 2007.88,-36 2007.88,-36 2001.88,-36 1995.88,-30 1995.88,-24 1995.88,-24 1995.88,-12 1995.88,-12 1995.88,-6 2001.88,0 2007.88,0 2007.88,0 2037.88,0 2037.88,0 2043.88,0 2049.88,-6 2049.88,-12 2049.88,-12 2049.88,-24 2049.88,-24 2049.88,-30 2043.88,-36 2037.88,-36"/>
<text text-anchor="middle" x="2022.88" y="-12.57" font-family="Helvetica,sans-Serif" font-size="14.00">(...)</text>
</g>
<!-- 421&#45;&gt;447 -->
<g id="edge47" class="edge">
<title>421&#45;&gt;447</title>
<path fill="none" stroke="black" d="M2013.24,-71.67C2014.73,-63.56 2016.29,-55.04 2017.71,-47.26"/>
<polygon fill="black" stroke="black" points="2021.1,-48.14 2019.46,-37.67 2014.22,-46.88 2021.1,-48.14"/>
</g>
<!-- 459 -->
<g id="node50" class="node">
<title>459</title>
<path fill="#f0b890" stroke="black" d="M2337.38,-250C2337.38,-250 2204.38,-250 2204.38,-250 2198.38,-250 2192.38,-244 2192.38,-238 2192.38,-238 2192.38,-191 2192.38,-191 2192.38,-185 2198.38,-179 2204.38,-179 2204.38,-179 2337.38,-179 2337.38,-179 2343.38,-179 2349.38,-185 2349.38,-191 2349.38,-191 2349.38,-238 2349.38,-238 2349.38,-244 2343.38,-250 2337.38,-250"/>
<text text-anchor="start" x="2227.38" y="-232.7" font-family="Helvetica,sans-Serif" font-size="14.00">P11_3_9 ≤ 0.5</text>
<text text-anchor="start" x="2200.38" y="-216.95" font-family="Helvetica,sans-Serif" font-size="14.00">squared_error = 89.511</text>
<text text-anchor="start" x="2222.5" y="-201.2" font-family="Helvetica,sans-Serif" font-size="14.00">samples = 1027</text>
<text text-anchor="start" x="2226.25" y="-185.45" font-family="Helvetica,sans-Serif" font-size="14.00">value = 57.981</text>
</g>
<!-- 458&#45;&gt;459 -->
<g id="edge49" class="edge">
<title>458&#45;&gt;459</title>
<path fill="none" stroke="black" d="M2270.88,-285.54C2270.88,-277.92 2270.88,-269.75 2270.88,-261.77"/>
<polygon fill="black" stroke="black" points="2274.38,-261.82 2270.88,-251.82 2267.38,-261.82 2274.38,-261.82"/>
</g>
<!-- 560 -->
<g id="node57" class="node">
<title>560</title>
<path fill="#f4caac" stroke="black" d="M2601.75,-250C2601.75,-250 2468,-250 2468,-250 2462,-250 2456,-244 2456,-238 2456,-238 2456,-191 2456,-191 2456,-185 2462,-179 2468,-179 2468,-179 2601.75,-179 2601.75,-179 2607.75,-179 2613.75,-185 2613.75,-191 2613.75,-191 2613.75,-238 2613.75,-238 2613.75,-244 2607.75,-250 2601.75,-250"/>
<text text-anchor="start" x="2494.75" y="-232.7" font-family="Helvetica,sans-Serif" font-size="14.00">P4_7_2 ≤ 1.5</text>
<text text-anchor="start" x="2464" y="-216.95" font-family="Helvetica,sans-Serif" font-size="14.00">squared_error = 95.891</text>
<text text-anchor="start" x="2490.25" y="-201.2" font-family="Helvetica,sans-Serif" font-size="14.00">samples = 355</text>
<text text-anchor="start" x="2490.25" y="-185.45" font-family="Helvetica,sans-Serif" font-size="14.00">value = 49.229</text>
</g>
<!-- 458&#45;&gt;560 -->
<g id="edge56" class="edge">
<title>458&#45;&gt;560</title>
<path fill="none" stroke="black" d="M2353.68,-287.57C2382.76,-276 2415.56,-262.95 2445.19,-251.17"/>
<polygon fill="black" stroke="black" points="2446.11,-254.57 2454.11,-247.62 2443.53,-248.06 2446.11,-254.57"/>
</g>
<!-- 460 -->
<g id="node51" class="node">
<title>460</title>
<path fill="#efb185" stroke="black" d="M2249.75,-143C2249.75,-143 2116,-143 2116,-143 2110,-143 2104,-137 2104,-131 2104,-131 2104,-84 2104,-84 2104,-78 2110,-72 2116,-72 2116,-72 2249.75,-72 2249.75,-72 2255.75,-72 2261.75,-78 2261.75,-84 2261.75,-84 2261.75,-131 2261.75,-131 2261.75,-137 2255.75,-143 2249.75,-143"/>
<text text-anchor="start" x="2142.75" y="-125.7" font-family="Helvetica,sans-Serif" font-size="14.00">P4_8_1 ≤ 2.5</text>
<text text-anchor="start" x="2112" y="-109.95" font-family="Helvetica,sans-Serif" font-size="14.00">squared_error = 70.167</text>
<text text-anchor="start" x="2138.25" y="-94.2" font-family="Helvetica,sans-Serif" font-size="14.00">samples = 552</text>
<text text-anchor="start" x="2138.25" y="-78.45" font-family="Helvetica,sans-Serif" font-size="14.00">value = 61.565</text>
</g>
<!-- 459&#45;&gt;460 -->
<g id="edge50" class="edge">
<title>459&#45;&gt;460</title>
<path fill="none" stroke="black" d="M2241.57,-178.54C2234.45,-170.04 2226.74,-160.84 2219.33,-152"/>
<polygon fill="black" stroke="black" points="2222.13,-149.89 2213.02,-144.47 2216.76,-154.38 2222.13,-149.89"/>
</g>
<!-- 511 -->
<g id="node54" class="node">
<title>511</title>
<path fill="#f2c19d" stroke="black" d="M2425.75,-143C2425.75,-143 2292,-143 2292,-143 2286,-143 2280,-137 2280,-131 2280,-131 2280,-84 2280,-84 2280,-78 2286,-72 2292,-72 2292,-72 2425.75,-72 2425.75,-72 2431.75,-72 2437.75,-78 2437.75,-84 2437.75,-84 2437.75,-131 2437.75,-131 2437.75,-137 2431.75,-143 2425.75,-143"/>
<text text-anchor="start" x="2318.75" y="-125.7" font-family="Helvetica,sans-Serif" font-size="14.00">P4_8_1 ≤ 2.5</text>
<text text-anchor="start" x="2288" y="-109.95" font-family="Helvetica,sans-Serif" font-size="14.00">squared_error = 79.699</text>
<text text-anchor="start" x="2314.25" y="-94.2" font-family="Helvetica,sans-Serif" font-size="14.00">samples = 475</text>
<text text-anchor="start" x="2314.25" y="-78.45" font-family="Helvetica,sans-Serif" font-size="14.00">value = 53.815</text>
</g>
<!-- 459&#45;&gt;511 -->
<g id="edge53" class="edge">
<title>459&#45;&gt;511</title>
<path fill="none" stroke="black" d="M2300.18,-178.54C2307.3,-170.04 2315.01,-160.84 2322.42,-152"/>
<polygon fill="black" stroke="black" points="2324.99,-154.38 2328.73,-144.47 2319.62,-149.89 2324.99,-154.38"/>
</g>
<!-- 461 -->
<g id="node52" class="node">
<title>461</title>
<path fill="#c0c0c0" stroke="black" d="M2141.88,-36C2141.88,-36 2111.88,-36 2111.88,-36 2105.88,-36 2099.88,-30 2099.88,-24 2099.88,-24 2099.88,-12 2099.88,-12 2099.88,-6 2105.88,0 2111.88,0 2111.88,0 2141.88,0 2141.88,0 2147.88,0 2153.88,-6 2153.88,-12 2153.88,-12 2153.88,-24 2153.88,-24 2153.88,-30 2147.88,-36 2141.88,-36"/>
<text text-anchor="middle" x="2126.88" y="-12.57" font-family="Helvetica,sans-Serif" font-size="14.00">(...)</text>
</g>
<!-- 460&#45;&gt;461 -->
<g id="edge51" class="edge">
<title>460&#45;&gt;461</title>
<path fill="none" stroke="black" d="M2160.58,-71.67C2155.03,-62.99 2149.17,-53.83 2143.91,-45.62"/>
<polygon fill="black" stroke="black" points="2147.03,-43.99 2138.69,-37.46 2141.13,-47.77 2147.03,-43.99"/>
</g>
<!-- 488 -->
<g id="node53" class="node">
<title>488</title>
<path fill="#c0c0c0" stroke="black" d="M2213.88,-36C2213.88,-36 2183.88,-36 2183.88,-36 2177.88,-36 2171.88,-30 2171.88,-24 2171.88,-24 2171.88,-12 2171.88,-12 2171.88,-6 2177.88,0 2183.88,0 2183.88,0 2213.88,0 2213.88,0 2219.88,0 2225.88,-6 2225.88,-12 2225.88,-12 2225.88,-24 2225.88,-24 2225.88,-30 2219.88,-36 2213.88,-36"/>
<text text-anchor="middle" x="2198.88" y="-12.57" font-family="Helvetica,sans-Serif" font-size="14.00">(...)</text>
</g>
<!-- 460&#45;&gt;488 -->
<g id="edge52" class="edge">
<title>460&#45;&gt;488</title>
<path fill="none" stroke="black" d="M2189.24,-71.67C2190.73,-63.56 2192.29,-55.04 2193.71,-47.26"/>
<polygon fill="black" stroke="black" points="2197.1,-48.14 2195.46,-37.67 2190.22,-46.88 2197.1,-48.14"/>
</g>
<!-- 512 -->
<g id="node55" class="node">
<title>512</title>
<path fill="#c0c0c0" stroke="black" d="M2317.88,-36C2317.88,-36 2287.88,-36 2287.88,-36 2281.88,-36 2275.88,-30 2275.88,-24 2275.88,-24 2275.88,-12 2275.88,-12 2275.88,-6 2281.88,0 2287.88,0 2287.88,0 2317.88,0 2317.88,0 2323.88,0 2329.88,-6 2329.88,-12 2329.88,-12 2329.88,-24 2329.88,-24 2329.88,-30 2323.88,-36 2317.88,-36"/>
<text text-anchor="middle" x="2302.88" y="-12.57" font-family="Helvetica,sans-Serif" font-size="14.00">(...)</text>
</g>
<!-- 511&#45;&gt;512 -->
<g id="edge54" class="edge">
<title>511&#45;&gt;512</title>
<path fill="none" stroke="black" d="M2336.58,-71.67C2331.03,-62.99 2325.17,-53.83 2319.91,-45.62"/>
<polygon fill="black" stroke="black" points="2323.03,-43.99 2314.69,-37.46 2317.13,-47.77 2323.03,-43.99"/>
</g>
<!-- 535 -->
<g id="node56" class="node">
<title>535</title>
<path fill="#c0c0c0" stroke="black" d="M2389.88,-36C2389.88,-36 2359.88,-36 2359.88,-36 2353.88,-36 2347.88,-30 2347.88,-24 2347.88,-24 2347.88,-12 2347.88,-12 2347.88,-6 2353.88,0 2359.88,0 2359.88,0 2389.88,0 2389.88,0 2395.88,0 2401.88,-6 2401.88,-12 2401.88,-12 2401.88,-24 2401.88,-24 2401.88,-30 2395.88,-36 2389.88,-36"/>
<text text-anchor="middle" x="2374.88" y="-12.57" font-family="Helvetica,sans-Serif" font-size="14.00">(...)</text>
</g>
<!-- 511&#45;&gt;535 -->
<g id="edge55" class="edge">
<title>511&#45;&gt;535</title>
<path fill="none" stroke="black" d="M2365.24,-71.67C2366.73,-63.56 2368.29,-55.04 2369.71,-47.26"/>
<polygon fill="black" stroke="black" points="2373.1,-48.14 2371.46,-37.67 2366.22,-46.88 2373.1,-48.14"/>
</g>
<!-- 561 -->
<g id="node58" class="node">
<title>561</title>
<path fill="#f3c5a4" stroke="black" d="M2601.75,-143C2601.75,-143 2468,-143 2468,-143 2462,-143 2456,-137 2456,-131 2456,-131 2456,-84 2456,-84 2456,-78 2462,-72 2468,-72 2468,-72 2601.75,-72 2601.75,-72 2607.75,-72 2613.75,-78 2613.75,-84 2613.75,-84 2613.75,-131 2613.75,-131 2613.75,-137 2607.75,-143 2601.75,-143"/>
<text text-anchor="start" x="2502.25" y="-125.7" font-family="Helvetica,sans-Serif" font-size="14.00">P4_1 ≤ 0.5</text>
<text text-anchor="start" x="2464" y="-109.95" font-family="Helvetica,sans-Serif" font-size="14.00">squared_error = 82.581</text>
<text text-anchor="start" x="2490.25" y="-94.2" font-family="Helvetica,sans-Serif" font-size="14.00">samples = 257</text>
<text text-anchor="start" x="2490.25" y="-78.45" font-family="Helvetica,sans-Serif" font-size="14.00">value = 51.751</text>
</g>
<!-- 560&#45;&gt;561 -->
<g id="edge57" class="edge">
<title>560&#45;&gt;561</title>
<path fill="none" stroke="black" d="M2534.88,-178.54C2534.88,-170.92 2534.88,-162.75 2534.88,-154.77"/>
<polygon fill="black" stroke="black" points="2538.38,-154.82 2534.88,-144.82 2531.38,-154.82 2538.38,-154.82"/>
</g>
<!-- 588 -->
<g id="node61" class="node">
<title>588</title>
<path fill="#f7d8c2" stroke="black" d="M2777.75,-143C2777.75,-143 2644,-143 2644,-143 2638,-143 2632,-137 2632,-131 2632,-131 2632,-84 2632,-84 2632,-78 2638,-72 2644,-72 2644,-72 2777.75,-72 2777.75,-72 2783.75,-72 2789.75,-78 2789.75,-84 2789.75,-84 2789.75,-131 2789.75,-131 2789.75,-137 2783.75,-143 2777.75,-143"/>
<text text-anchor="start" x="2670.75" y="-125.7" font-family="Helvetica,sans-Serif" font-size="14.00">P7_1_2 ≤ 2.5</text>
<text text-anchor="start" x="2640" y="-109.95" font-family="Helvetica,sans-Serif" font-size="14.00">squared_error = 70.359</text>
<text text-anchor="start" x="2670" y="-94.2" font-family="Helvetica,sans-Serif" font-size="14.00">samples = 98</text>
<text text-anchor="start" x="2666.25" y="-78.45" font-family="Helvetica,sans-Serif" font-size="14.00">value = 42.614</text>
</g>
<!-- 560&#45;&gt;588 -->
<g id="edge60" class="edge">
<title>560&#45;&gt;588</title>
<path fill="none" stroke="black" d="M2593.48,-178.54C2609.28,-169.11 2626.51,-158.83 2642.78,-149.13"/>
<polygon fill="black" stroke="black" points="2644.13,-152.39 2650.93,-144.27 2640.54,-146.38 2644.13,-152.39"/>
</g>
<!-- 562 -->
<g id="node59" class="node">
<title>562</title>
<path fill="#c0c0c0" stroke="black" d="M2511.88,-36C2511.88,-36 2481.88,-36 2481.88,-36 2475.88,-36 2469.88,-30 2469.88,-24 2469.88,-24 2469.88,-12 2469.88,-12 2469.88,-6 2475.88,0 2481.88,0 2481.88,0 2511.88,0 2511.88,0 2517.88,0 2523.88,-6 2523.88,-12 2523.88,-12 2523.88,-24 2523.88,-24 2523.88,-30 2517.88,-36 2511.88,-36"/>
<text text-anchor="middle" x="2496.88" y="-12.57" font-family="Helvetica,sans-Serif" font-size="14.00">(...)</text>
</g>
<!-- 561&#45;&gt;562 -->
<g id="edge58" class="edge">
<title>561&#45;&gt;562</title>
<path fill="none" stroke="black" d="M2519.75,-71.67C2516.15,-63.37 2512.35,-54.63 2508.91,-46.71"/>
<polygon fill="black" stroke="black" points="2512.13,-45.35 2504.94,-37.57 2505.71,-48.14 2512.13,-45.35"/>
</g>
<!-- 567 -->
<g id="node60" class="node">
<title>567</title>
<path fill="#c0c0c0" stroke="black" d="M2583.88,-36C2583.88,-36 2553.88,-36 2553.88,-36 2547.88,-36 2541.88,-30 2541.88,-24 2541.88,-24 2541.88,-12 2541.88,-12 2541.88,-6 2547.88,0 2553.88,0 2553.88,0 2583.88,0 2583.88,0 2589.88,0 2595.88,-6 2595.88,-12 2595.88,-12 2595.88,-24 2595.88,-24 2595.88,-30 2589.88,-36 2583.88,-36"/>
<text text-anchor="middle" x="2568.88" y="-12.57" font-family="Helvetica,sans-Serif" font-size="14.00">(...)</text>
</g>
<!-- 561&#45;&gt;567 -->
<g id="edge59" class="edge">
<title>561&#45;&gt;567</title>
<path fill="none" stroke="black" d="M2548.41,-71.67C2551.63,-63.37 2555.03,-54.63 2558.11,-46.71"/>
<polygon fill="black" stroke="black" points="2561.29,-48.18 2561.65,-37.59 2554.77,-45.65 2561.29,-48.18"/>
</g>
<!-- 589 -->
<g id="node62" class="node">
<title>589</title>
<path fill="#c0c0c0" stroke="black" d="M2689.88,-36C2689.88,-36 2659.88,-36 2659.88,-36 2653.88,-36 2647.88,-30 2647.88,-24 2647.88,-24 2647.88,-12 2647.88,-12 2647.88,-6 2653.88,0 2659.88,0 2659.88,0 2689.88,0 2689.88,0 2695.88,0 2701.88,-6 2701.88,-12 2701.88,-12 2701.88,-24 2701.88,-24 2701.88,-30 2695.88,-36 2689.88,-36"/>
<text text-anchor="middle" x="2674.88" y="-12.57" font-family="Helvetica,sans-Serif" font-size="14.00">(...)</text>
</g>
<!-- 588&#45;&gt;589 -->
<g id="edge61" class="edge">
<title>588&#45;&gt;589</title>
<path fill="none" stroke="black" d="M2696.54,-71.67C2693.13,-63.37 2689.54,-54.63 2686.28,-46.71"/>
<polygon fill="black" stroke="black" points="2689.56,-45.5 2682.52,-37.58 2683.09,-48.16 2689.56,-45.5"/>
</g>
<!-- 590 -->
<g id="node63" class="node">
<title>590</title>
<path fill="#c0c0c0" stroke="black" d="M2761.88,-36C2761.88,-36 2731.88,-36 2731.88,-36 2725.88,-36 2719.88,-30 2719.88,-24 2719.88,-24 2719.88,-12 2719.88,-12 2719.88,-6 2725.88,0 2731.88,0 2731.88,0 2761.88,0 2761.88,0 2767.88,0 2773.88,-6 2773.88,-12 2773.88,-12 2773.88,-24 2773.88,-24 2773.88,-30 2767.88,-36 2761.88,-36"/>
<text text-anchor="middle" x="2746.88" y="-12.57" font-family="Helvetica,sans-Serif" font-size="14.00">(...)</text>
</g>
<!-- 588&#45;&gt;590 -->
<g id="edge62" class="edge">
<title>588&#45;&gt;590</title>
<path fill="none" stroke="black" d="M2725.21,-71.67C2728.62,-63.37 2732.21,-54.63 2735.47,-46.71"/>
<polygon fill="black" stroke="black" points="2738.66,-48.16 2739.23,-37.58 2732.19,-45.5 2738.66,-48.16"/>
</g>
</g>
</svg>
