<?xml version="1.0" encoding="UTF-8" standalone="no"?>
<!DOCTYPE svg PUBLIC "-//W3C//DTD SVG 1.1//EN"
 "http://www.w3.org/Graphics/SVG/1.1/DTD/svg11.dtd">
<!-- Generated by graphviz version 12.2.1 (20241206.2353)
 -->
<!-- Title: Tree Pages: 1 -->
<svg width="2795pt" height="579pt"
 viewBox="0.00 0.00 2794.75 579.00" xmlns="http://www.w3.org/2000/svg" xmlns:xlink="http://www.w3.org/1999/xlink">
<g id="graph0" class="graph" transform="scale(1 1) rotate(0) translate(4 575)">
<title>Tree</title>
<polygon fill="white" stroke="none" points="-4,4 -4,-575 2790.75,-575 2790.75,4 -4,4"/>
<!-- 0 -->
<g id="node1" class="node">
<title>0</title>
<path fill="#f2c09c" stroke="black" d="M1460.5,-571C1460.5,-571 1319.25,-571 1319.25,-571 1313.25,-571 1307.25,-565 1307.25,-559 1307.25,-559 1307.25,-512 1307.25,-512 1307.25,-506 1313.25,-500 1319.25,-500 1319.25,-500 1460.5,-500 1460.5,-500 1466.5,-500 1472.5,-506 1472.5,-512 1472.5,-512 1472.5,-559 1472.5,-559 1472.5,-565 1466.5,-571 1460.5,-571"/>
<text text-anchor="start" x="1349.75" y="-553.7" font-family="Helvetica,sans-Serif" font-size="14.00">P4_8_3 ≤ 1.5</text>
<text text-anchor="start" x="1315.25" y="-537.95" font-family="Helvetica,sans-Serif" font-size="14.00">squared_error = 159.457</text>
<text text-anchor="start" x="1337.75" y="-522.2" font-family="Helvetica,sans-Serif" font-size="14.00">samples = 27056</text>
<text text-anchor="start" x="1345.25" y="-506.45" font-family="Helvetica,sans-Serif" font-size="14.00">value = 56.617</text>
</g>
<!-- 1 -->
<g id="node2" class="node">
<title>1</title>
<path fill="#f0b58b" stroke="black" d="M1108.5,-464C1108.5,-464 967.25,-464 967.25,-464 961.25,-464 955.25,-458 955.25,-452 955.25,-452 955.25,-405 955.25,-405 955.25,-399 961.25,-393 967.25,-393 967.25,-393 1108.5,-393 1108.5,-393 1114.5,-393 1120.5,-399 1120.5,-405 1120.5,-405 1120.5,-452 1120.5,-452 1120.5,-458 1114.5,-464 1108.5,-464"/>
<text text-anchor="start" x="997.75" y="-446.7" font-family="Helvetica,sans-Serif" font-size="14.00">P4_8_2 ≤ 1.5</text>
<text text-anchor="start" x="963.25" y="-430.95" font-family="Helvetica,sans-Serif" font-size="14.00">squared_error = 138.452</text>
<text text-anchor="start" x="985.75" y="-415.2" font-family="Helvetica,sans-Serif" font-size="14.00">samples = 13064</text>
<text text-anchor="start" x="993.25" y="-399.45" font-family="Helvetica,sans-Serif" font-size="14.00">value = 62.369</text>
</g>
<!-- 0&#45;&gt;1 -->
<g id="edge1" class="edge">
<title>0&#45;&gt;1</title>
<path fill="none" stroke="black" d="M1306.9,-509.75C1254.31,-494.06 1186.16,-473.73 1131.62,-457.46"/>
<polygon fill="black" stroke="black" points="1132.93,-454.2 1122.35,-454.7 1130.93,-460.91 1132.93,-454.2"/>
<text text-anchor="middle" x="1132.79" y="-470.83" font-family="Helvetica,sans-Serif" font-size="14.00">True</text>
</g>
<!-- 1488 -->
<g id="node33" class="node">
<title>1488</title>
<path fill="#f4caac" stroke="black" d="M1812.12,-464C1812.12,-464 1671.62,-464 1671.62,-464 1665.62,-464 1659.62,-458 1659.62,-452 1659.62,-452 1659.62,-405 1659.62,-405 1659.62,-399 1665.62,-393 1671.62,-393 1671.62,-393 1812.12,-393 1812.12,-393 1818.12,-393 1824.12,-399 1824.12,-405 1824.12,-405 1824.12,-452 1824.12,-452 1824.12,-458 1818.12,-464 1812.12,-464"/>
<text text-anchor="start" x="1701.75" y="-446.7" font-family="Helvetica,sans-Serif" font-size="14.00">P4_8_2 ≤ 1.5</text>
<text text-anchor="start" x="1667.62" y="-430.95" font-family="Helvetica,sans-Serif" font-size="14.00">squared_error = 119.333</text>
<text text-anchor="start" x="1689.75" y="-415.2" font-family="Helvetica,sans-Serif" font-size="14.00">samples = 13992</text>
<text text-anchor="start" x="1697.25" y="-399.45" font-family="Helvetica,sans-Serif" font-size="14.00">value = 51.247</text>
</g>
<!-- 0&#45;&gt;1488 -->
<g id="edge32" class="edge">
<title>0&#45;&gt;1488</title>
<path fill="none" stroke="black" d="M1472.85,-509.75C1525.54,-494.03 1593.83,-473.66 1648.43,-457.38"/>
<polygon fill="black" stroke="black" points="1649.12,-460.82 1657.7,-454.61 1647.12,-454.11 1649.12,-460.82"/>
<text text-anchor="middle" x="1647.27" y="-470.74" font-family="Helvetica,sans-Serif" font-size="14.00">False</text>
</g>
<!-- 2 -->
<g id="node3" class="node">
<title>2</title>
<path fill="#f2c19e" stroke="black" d="M589.5,-357C589.5,-357 448.25,-357 448.25,-357 442.25,-357 436.25,-351 436.25,-345 436.25,-345 436.25,-298 436.25,-298 436.25,-292 442.25,-286 448.25,-286 448.25,-286 589.5,-286 589.5,-286 595.5,-286 601.5,-292 601.5,-298 601.5,-298 601.5,-345 601.5,-345 601.5,-351 595.5,-357 589.5,-357"/>
<text text-anchor="start" x="486.25" y="-339.7" font-family="Helvetica,sans-Serif" font-size="14.00">P4_1 ≤ 0.5</text>
<text text-anchor="start" x="444.25" y="-323.95" font-family="Helvetica,sans-Serif" font-size="14.00">squared_error = 108.365</text>
<text text-anchor="start" x="470.5" y="-308.2" font-family="Helvetica,sans-Serif" font-size="14.00">samples = 5273</text>
<text text-anchor="start" x="474.25" y="-292.45" font-family="Helvetica,sans-Serif" font-size="14.00">value = 55.863</text>
</g>
<!-- 1&#45;&gt;2 -->
<g id="edge2" class="edge">
<title>1&#45;&gt;2</title>
<path fill="none" stroke="black" d="M954.78,-410.69C861.44,-391.8 710.29,-361.22 612.75,-341.49"/>
<polygon fill="black" stroke="black" points="613.7,-338.11 603.21,-339.56 612.31,-344.97 613.7,-338.11"/>
</g>
<!-- 683 -->
<g id="node18" class="node">
<title>683</title>
<path fill="#eead7e" stroke="black" d="M1108.12,-357C1108.12,-357 967.62,-357 967.62,-357 961.62,-357 955.62,-351 955.62,-345 955.62,-345 955.62,-298 955.62,-298 955.62,-292 961.62,-286 967.62,-286 967.62,-286 1108.12,-286 1108.12,-286 1114.12,-286 1120.12,-292 1120.12,-298 1120.12,-298 1120.12,-345 1120.12,-345 1120.12,-351 1114.12,-357 1108.12,-357"/>
<text text-anchor="start" x="1005.25" y="-339.7" font-family="Helvetica,sans-Serif" font-size="14.00">P4_1 ≤ 0.5</text>
<text text-anchor="start" x="963.62" y="-323.95" font-family="Helvetica,sans-Serif" font-size="14.00">squared_error = 110.775</text>
<text text-anchor="start" x="989.5" y="-308.2" font-family="Helvetica,sans-Serif" font-size="14.00">samples = 7791</text>
<text text-anchor="start" x="993.25" y="-292.45" font-family="Helvetica,sans-Serif" font-size="14.00">value = 66.773</text>
</g>
<!-- 1&#45;&gt;683 -->
<g id="edge17" class="edge">
<title>1&#45;&gt;683</title>
<path fill="none" stroke="black" d="M1037.88,-392.54C1037.88,-384.92 1037.88,-376.75 1037.88,-368.77"/>
<polygon fill="black" stroke="black" points="1041.38,-368.82 1037.88,-358.82 1034.38,-368.82 1041.38,-368.82"/>
</g>
<!-- 3 -->
<g id="node4" class="node">
<title>3</title>
<path fill="#f0b48a" stroke="black" d="M321.75,-250C321.75,-250 188,-250 188,-250 182,-250 176,-244 176,-238 176,-238 176,-191 176,-191 176,-185 182,-179 188,-179 188,-179 321.75,-179 321.75,-179 327.75,-179 333.75,-185 333.75,-191 333.75,-191 333.75,-238 333.75,-238 333.75,-244 327.75,-250 321.75,-250"/>
<text text-anchor="start" x="214.75" y="-232.7" font-family="Helvetica,sans-Serif" font-size="14.00">P4_8_1 ≤ 1.5</text>
<text text-anchor="start" x="184" y="-216.95" font-family="Helvetica,sans-Serif" font-size="14.00">squared_error = 95.294</text>
<text text-anchor="start" x="206.5" y="-201.2" font-family="Helvetica,sans-Serif" font-size="14.00">samples = 1453</text>
<text text-anchor="start" x="210.25" y="-185.45" font-family="Helvetica,sans-Serif" font-size="14.00">value = 62.797</text>
</g>
<!-- 2&#45;&gt;3 -->
<g id="edge3" class="edge">
<title>2&#45;&gt;3</title>
<path fill="none" stroke="black" d="M436.07,-287.57C406.99,-276 374.19,-262.95 344.56,-251.17"/>
<polygon fill="black" stroke="black" points="346.22,-248.06 335.64,-247.62 343.64,-254.57 346.22,-248.06"/>
</g>
<!-- 232 -->
<g id="node11" class="node">
<title>232</title>
<path fill="#f3c6a6" stroke="black" d="M585.75,-250C585.75,-250 452,-250 452,-250 446,-250 440,-244 440,-238 440,-238 440,-191 440,-191 440,-185 446,-179 452,-179 452,-179 585.75,-179 585.75,-179 591.75,-179 597.75,-185 597.75,-191 597.75,-191 597.75,-238 597.75,-238 597.75,-244 591.75,-250 585.75,-250"/>
<text text-anchor="start" x="478.75" y="-232.7" font-family="Helvetica,sans-Serif" font-size="14.00">P4_6_1 ≤ 1.5</text>
<text text-anchor="start" x="448" y="-216.95" font-family="Helvetica,sans-Serif" font-size="14.00">squared_error = 88.089</text>
<text text-anchor="start" x="470.5" y="-201.2" font-family="Helvetica,sans-Serif" font-size="14.00">samples = 3820</text>
<text text-anchor="start" x="474.25" y="-185.45" font-family="Helvetica,sans-Serif" font-size="14.00">value = 53.225</text>
</g>
<!-- 2&#45;&gt;232 -->
<g id="edge10" class="edge">
<title>2&#45;&gt;232</title>
<path fill="none" stroke="black" d="M518.88,-285.54C518.88,-277.92 518.88,-269.75 518.88,-261.77"/>
<polygon fill="black" stroke="black" points="522.38,-261.82 518.88,-251.82 515.38,-261.82 522.38,-261.82"/>
</g>
<!-- 4 -->
<g id="node5" class="node">
<title>4</title>
<path fill="#f1bb95" stroke="black" d="M145.75,-143C145.75,-143 12,-143 12,-143 6,-143 0,-137 0,-131 0,-131 0,-84 0,-84 0,-78 6,-72 12,-72 12,-72 145.75,-72 145.75,-72 151.75,-72 157.75,-78 157.75,-84 157.75,-84 157.75,-131 157.75,-131 157.75,-137 151.75,-143 145.75,-143"/>
<text text-anchor="start" x="38.75" y="-125.7" font-family="Helvetica,sans-Serif" font-size="14.00">P4_6_1 ≤ 1.5</text>
<text text-anchor="start" x="8" y="-109.95" font-family="Helvetica,sans-Serif" font-size="14.00">squared_error = 79.056</text>
<text text-anchor="start" x="34.25" y="-94.2" font-family="Helvetica,sans-Serif" font-size="14.00">samples = 752</text>
<text text-anchor="start" x="34.25" y="-78.45" font-family="Helvetica,sans-Serif" font-size="14.00">value = 59.059</text>
</g>
<!-- 3&#45;&gt;4 -->
<g id="edge4" class="edge">
<title>3&#45;&gt;4</title>
<path fill="none" stroke="black" d="M196.27,-178.54C180.47,-169.11 163.24,-158.83 146.97,-149.13"/>
<polygon fill="black" stroke="black" points="149.21,-146.38 138.82,-144.27 145.62,-152.39 149.21,-146.38"/>
</g>
<!-- 119 -->
<g id="node8" class="node">
<title>119</title>
<path fill="#eead7e" stroke="black" d="M321.75,-143C321.75,-143 188,-143 188,-143 182,-143 176,-137 176,-131 176,-131 176,-84 176,-84 176,-78 182,-72 188,-72 188,-72 321.75,-72 321.75,-72 327.75,-72 333.75,-78 333.75,-84 333.75,-84 333.75,-131 333.75,-131 333.75,-137 327.75,-143 321.75,-143"/>
<text text-anchor="start" x="214.75" y="-125.7" font-family="Helvetica,sans-Serif" font-size="14.00">P4_6_4 ≤ 1.5</text>
<text text-anchor="start" x="184" y="-109.95" font-family="Helvetica,sans-Serif" font-size="14.00">squared_error = 81.647</text>
<text text-anchor="start" x="210.25" y="-94.2" font-family="Helvetica,sans-Serif" font-size="14.00">samples = 701</text>
<text text-anchor="start" x="210.25" y="-78.45" font-family="Helvetica,sans-Serif" font-size="14.00">value = 66.807</text>
</g>
<!-- 3&#45;&gt;119 -->
<g id="edge7" class="edge">
<title>3&#45;&gt;119</title>
<path fill="none" stroke="black" d="M254.88,-178.54C254.88,-170.92 254.88,-162.75 254.88,-154.77"/>
<polygon fill="black" stroke="black" points="258.38,-154.82 254.88,-144.82 251.38,-154.82 258.38,-154.82"/>
</g>
<!-- 5 -->
<g id="node6" class="node">
<title>5</title>
<path fill="#c0c0c0" stroke="black" d="M57.88,-36C57.88,-36 27.88,-36 27.88,-36 21.88,-36 15.88,-30 15.88,-24 15.88,-24 15.88,-12 15.88,-12 15.88,-6 21.88,0 27.88,0 27.88,0 57.88,0 57.88,0 63.88,0 69.88,-6 69.88,-12 69.88,-12 69.88,-24 69.88,-24 69.88,-30 63.88,-36 57.88,-36"/>
<text text-anchor="middle" x="42.88" y="-12.57" font-family="Helvetica,sans-Serif" font-size="14.00">(...)</text>
</g>
<!-- 4&#45;&gt;5 -->
<g id="edge5" class="edge">
<title>4&#45;&gt;5</title>
<path fill="none" stroke="black" d="M64.54,-71.67C61.13,-63.37 57.54,-54.63 54.28,-46.71"/>
<polygon fill="black" stroke="black" points="57.56,-45.5 50.52,-37.58 51.09,-48.16 57.56,-45.5"/>
</g>
<!-- 88 -->
<g id="node7" class="node">
<title>88</title>
<path fill="#c0c0c0" stroke="black" d="M129.88,-36C129.88,-36 99.88,-36 99.88,-36 93.88,-36 87.88,-30 87.88,-24 87.88,-24 87.88,-12 87.88,-12 87.88,-6 93.88,0 99.88,0 99.88,0 129.88,0 129.88,0 135.88,0 141.88,-6 141.88,-12 141.88,-12 141.88,-24 141.88,-24 141.88,-30 135.88,-36 129.88,-36"/>
<text text-anchor="middle" x="114.88" y="-12.57" font-family="Helvetica,sans-Serif" font-size="14.00">(...)</text>
</g>
<!-- 4&#45;&gt;88 -->
<g id="edge6" class="edge">
<title>4&#45;&gt;88</title>
<path fill="none" stroke="black" d="M93.21,-71.67C96.62,-63.37 100.21,-54.63 103.47,-46.71"/>
<polygon fill="black" stroke="black" points="106.66,-48.16 107.23,-37.58 100.19,-45.5 106.66,-48.16"/>
</g>
<!-- 120 -->
<g id="node9" class="node">
<title>120</title>
<path fill="#c0c0c0" stroke="black" d="M235.88,-36C235.88,-36 205.88,-36 205.88,-36 199.88,-36 193.88,-30 193.88,-24 193.88,-24 193.88,-12 193.88,-12 193.88,-6 199.88,0 205.88,0 205.88,0 235.88,0 235.88,0 241.88,0 247.88,-6 247.88,-12 247.88,-12 247.88,-24 247.88,-24 247.88,-30 241.88,-36 235.88,-36"/>
<text text-anchor="middle" x="220.88" y="-12.57" font-family="Helvetica,sans-Serif" font-size="14.00">(...)</text>
</g>
<!-- 119&#45;&gt;120 -->
<g id="edge8" class="edge">
<title>119&#45;&gt;120</title>
<path fill="none" stroke="black" d="M241.34,-71.67C238.12,-63.37 234.72,-54.63 231.64,-46.71"/>
<polygon fill="black" stroke="black" points="234.98,-45.65 228.1,-37.59 228.46,-48.18 234.98,-45.65"/>
</g>
<!-- 185 -->
<g id="node10" class="node">
<title>185</title>
<path fill="#c0c0c0" stroke="black" d="M307.88,-36C307.88,-36 277.88,-36 277.88,-36 271.88,-36 265.88,-30 265.88,-24 265.88,-24 265.88,-12 265.88,-12 265.88,-6 271.88,0 277.88,0 277.88,0 307.88,0 307.88,0 313.88,0 319.88,-6 319.88,-12 319.88,-12 319.88,-24 319.88,-24 319.88,-30 313.88,-36 307.88,-36"/>
<text text-anchor="middle" x="292.88" y="-12.57" font-family="Helvetica,sans-Serif" font-size="14.00">(...)</text>
</g>
<!-- 119&#45;&gt;185 -->
<g id="edge9" class="edge">
<title>119&#45;&gt;185</title>
<path fill="none" stroke="black" d="M270,-71.67C273.6,-63.37 277.4,-54.63 280.84,-46.71"/>
<polygon fill="black" stroke="black" points="284.04,-48.14 284.81,-37.57 277.62,-45.35 284.04,-48.14"/>
</g>
<!-- 233 -->
<g id="node12" class="node">
<title>233</title>
<path fill="#f3c3a0" stroke="black" d="M497.75,-143C497.75,-143 364,-143 364,-143 358,-143 352,-137 352,-131 352,-131 352,-84 352,-84 352,-78 358,-72 364,-72 364,-72 497.75,-72 497.75,-72 503.75,-72 509.75,-78 509.75,-84 509.75,-84 509.75,-131 509.75,-131 509.75,-137 503.75,-143 497.75,-143"/>
<text text-anchor="start" x="390.75" y="-125.7" font-family="Helvetica,sans-Serif" font-size="14.00">P4_8_1 ≤ 1.5</text>
<text text-anchor="start" x="360" y="-109.95" font-family="Helvetica,sans-Serif" font-size="14.00">squared_error = 76.066</text>
<text text-anchor="start" x="382.5" y="-94.2" font-family="Helvetica,sans-Serif" font-size="14.00">samples = 2755</text>
<text text-anchor="start" x="386.25" y="-78.45" font-family="Helvetica,sans-Serif" font-size="14.00">value = 55.327</text>
</g>
<!-- 232&#45;&gt;233 -->
<g id="edge11" class="edge">
<title>232&#45;&gt;233</title>
<path fill="none" stroke="black" d="M489.57,-178.54C482.45,-170.04 474.74,-160.84 467.33,-152"/>
<polygon fill="black" stroke="black" points="470.13,-149.89 461.02,-144.47 464.76,-154.38 470.13,-149.89"/>
</g>
<!-- 516 -->
<g id="node15" class="node">
<title>516</title>
<path fill="#f5d1b6" stroke="black" d="M673.75,-143C673.75,-143 540,-143 540,-143 534,-143 528,-137 528,-131 528,-131 528,-84 528,-84 528,-78 534,-72 540,-72 540,-72 673.75,-72 673.75,-72 679.75,-72 685.75,-78 685.75,-84 685.75,-84 685.75,-131 685.75,-131 685.75,-137 679.75,-143 673.75,-143"/>
<text text-anchor="start" x="566.75" y="-125.7" font-family="Helvetica,sans-Serif" font-size="14.00">P4_7_3 ≤ 1.5</text>
<text text-anchor="start" x="536" y="-109.95" font-family="Helvetica,sans-Serif" font-size="14.00">squared_error = 78.191</text>
<text text-anchor="start" x="558.5" y="-94.2" font-family="Helvetica,sans-Serif" font-size="14.00">samples = 1065</text>
<text text-anchor="start" x="562.25" y="-78.45" font-family="Helvetica,sans-Serif" font-size="14.00">value = 47.787</text>
</g>
<!-- 232&#45;&gt;516 -->
<g id="edge14" class="edge">
<title>232&#45;&gt;516</title>
<path fill="none" stroke="black" d="M548.18,-178.54C555.3,-170.04 563.01,-160.84 570.42,-152"/>
<polygon fill="black" stroke="black" points="572.99,-154.38 576.73,-144.47 567.62,-149.89 572.99,-154.38"/>
</g>
<!-- 234 -->
<g id="node13" class="node">
<title>234</title>
<path fill="#c0c0c0" stroke="black" d="M412.88,-36C412.88,-36 382.88,-36 382.88,-36 376.88,-36 370.88,-30 370.88,-24 370.88,-24 370.88,-12 370.88,-12 370.88,-6 376.88,0 382.88,0 382.88,0 412.88,0 412.88,0 418.88,0 424.88,-6 424.88,-12 424.88,-12 424.88,-24 424.88,-24 424.88,-30 418.88,-36 412.88,-36"/>
<text text-anchor="middle" x="397.88" y="-12.57" font-family="Helvetica,sans-Serif" font-size="14.00">(...)</text>
</g>
<!-- 233&#45;&gt;234 -->
<g id="edge12" class="edge">
<title>233&#45;&gt;234</title>
<path fill="none" stroke="black" d="M417.74,-71.67C414.61,-63.37 411.31,-54.63 408.33,-46.71"/>
<polygon fill="black" stroke="black" points="411.69,-45.72 404.89,-37.6 405.14,-48.19 411.69,-45.72"/>
</g>
<!-- 395 -->
<g id="node14" class="node">
<title>395</title>
<path fill="#c0c0c0" stroke="black" d="M484.88,-36C484.88,-36 454.88,-36 454.88,-36 448.88,-36 442.88,-30 442.88,-24 442.88,-24 442.88,-12 442.88,-12 442.88,-6 448.88,0 454.88,0 454.88,0 484.88,0 484.88,0 490.88,0 496.88,-6 496.88,-12 496.88,-12 496.88,-24 496.88,-24 496.88,-30 490.88,-36 484.88,-36"/>
<text text-anchor="middle" x="469.88" y="-12.57" font-family="Helvetica,sans-Serif" font-size="14.00">(...)</text>
</g>
<!-- 233&#45;&gt;395 -->
<g id="edge13" class="edge">
<title>233&#45;&gt;395</title>
<path fill="none" stroke="black" d="M446.4,-71.67C450.14,-63.28 454.08,-54.43 457.65,-46.44"/>
<polygon fill="black" stroke="black" points="460.73,-48.12 461.6,-37.57 454.33,-45.27 460.73,-48.12"/>
</g>
<!-- 517 -->
<g id="node16" class="node">
<title>517</title>
<path fill="#c0c0c0" stroke="black" d="M607.88,-36C607.88,-36 577.88,-36 577.88,-36 571.88,-36 565.88,-30 565.88,-24 565.88,-24 565.88,-12 565.88,-12 565.88,-6 571.88,0 577.88,0 577.88,0 607.88,0 607.88,0 613.88,0 619.88,-6 619.88,-12 619.88,-12 619.88,-24 619.88,-24 619.88,-30 613.88,-36 607.88,-36"/>
<text text-anchor="middle" x="592.88" y="-12.57" font-family="Helvetica,sans-Serif" font-size="14.00">(...)</text>
</g>
<!-- 516&#45;&gt;517 -->
<g id="edge15" class="edge">
<title>516&#45;&gt;517</title>
<path fill="none" stroke="black" d="M601.3,-71.67C600.02,-63.66 598.67,-55.24 597.44,-47.53"/>
<polygon fill="black" stroke="black" points="600.9,-47 595.86,-37.68 593.99,-48.1 600.9,-47"/>
</g>
<!-- 624 -->
<g id="node17" class="node">
<title>624</title>
<path fill="#c0c0c0" stroke="black" d="M679.88,-36C679.88,-36 649.88,-36 649.88,-36 643.88,-36 637.88,-30 637.88,-24 637.88,-24 637.88,-12 637.88,-12 637.88,-6 643.88,0 649.88,0 649.88,0 679.88,0 679.88,0 685.88,0 691.88,-6 691.88,-12 691.88,-12 691.88,-24 691.88,-24 691.88,-30 685.88,-36 679.88,-36"/>
<text text-anchor="middle" x="664.88" y="-12.57" font-family="Helvetica,sans-Serif" font-size="14.00">(...)</text>
</g>
<!-- 516&#45;&gt;624 -->
<g id="edge16" class="edge">
<title>516&#45;&gt;624</title>
<path fill="none" stroke="black" d="M629.96,-71.67C635.71,-62.99 641.79,-53.83 647.23,-45.62"/>
<polygon fill="black" stroke="black" points="650.04,-47.71 652.65,-37.44 644.21,-43.85 650.04,-47.71"/>
</g>
<!-- 684 -->
<g id="node19" class="node">
<title>684</title>
<path fill="#eca36e" stroke="black" d="M1016.75,-250C1016.75,-250 883,-250 883,-250 877,-250 871,-244 871,-238 871,-238 871,-191 871,-191 871,-185 877,-179 883,-179 883,-179 1016.75,-179 1016.75,-179 1022.75,-179 1028.75,-185 1028.75,-191 1028.75,-191 1028.75,-238 1028.75,-238 1028.75,-244 1022.75,-250 1016.75,-250"/>
<text text-anchor="start" x="909.75" y="-232.7" font-family="Helvetica,sans-Serif" font-size="14.00">P4_8_1 ≤ 2.5</text>
<text text-anchor="start" x="879" y="-216.95" font-family="Helvetica,sans-Serif" font-size="14.00">squared_error = 90.032</text>
<text text-anchor="start" x="901.5" y="-201.2" font-family="Helvetica,sans-Serif" font-size="14.00">samples = 3156</text>
<text text-anchor="start" x="905.25" y="-185.45" font-family="Helvetica,sans-Serif" font-size="14.00">value = 72.185</text>
</g>
<!-- 683&#45;&gt;684 -->
<g id="edge18" class="edge">
<title>683&#45;&gt;684</title>
<path fill="none" stroke="black" d="M1008.57,-285.54C1001.45,-277.04 993.74,-267.84 986.33,-259"/>
<polygon fill="black" stroke="black" points="989.13,-256.89 980.02,-251.47 983.76,-261.38 989.13,-256.89"/>
</g>
<!-- 1021 -->
<g id="node26" class="node">
<title>1021</title>
<path fill="#efb489" stroke="black" d="M1192.75,-250C1192.75,-250 1059,-250 1059,-250 1053,-250 1047,-244 1047,-238 1047,-238 1047,-191 1047,-191 1047,-185 1053,-179 1059,-179 1059,-179 1192.75,-179 1192.75,-179 1198.75,-179 1204.75,-185 1204.75,-191 1204.75,-191 1204.75,-238 1204.75,-238 1204.75,-244 1198.75,-250 1192.75,-250"/>
<text text-anchor="start" x="1085.75" y="-232.7" font-family="Helvetica,sans-Serif" font-size="14.00">P4_8_1 ≤ 2.5</text>
<text text-anchor="start" x="1055" y="-216.95" font-family="Helvetica,sans-Serif" font-size="14.00">squared_error = 91.372</text>
<text text-anchor="start" x="1077.5" y="-201.2" font-family="Helvetica,sans-Serif" font-size="14.00">samples = 4635</text>
<text text-anchor="start" x="1081.25" y="-185.45" font-family="Helvetica,sans-Serif" font-size="14.00">value = 63.087</text>
</g>
<!-- 683&#45;&gt;1021 -->
<g id="edge25" class="edge">
<title>683&#45;&gt;1021</title>
<path fill="none" stroke="black" d="M1067.18,-285.54C1074.3,-277.04 1082.01,-267.84 1089.42,-259"/>
<polygon fill="black" stroke="black" points="1091.99,-261.38 1095.73,-251.47 1086.62,-256.89 1091.99,-261.38"/>
</g>
<!-- 685 -->
<g id="node20" class="node">
<title>685</title>
<path fill="#eeaa7a" stroke="black" d="M842,-143C842,-143 715.75,-143 715.75,-143 709.75,-143 703.75,-137 703.75,-131 703.75,-131 703.75,-84 703.75,-84 703.75,-78 709.75,-72 715.75,-72 715.75,-72 842,-72 842,-72 848,-72 854,-78 854,-84 854,-84 854,-131 854,-131 854,-137 848,-143 842,-143"/>
<text text-anchor="start" x="738.75" y="-125.7" font-family="Helvetica,sans-Serif" font-size="14.00">P7_1_2 ≤ 2.5</text>
<text text-anchor="start" x="711.75" y="-109.95" font-family="Helvetica,sans-Serif" font-size="14.00">squared_error = 77.87</text>
<text text-anchor="start" x="730.5" y="-94.2" font-family="Helvetica,sans-Serif" font-size="14.00">samples = 1474</text>
<text text-anchor="start" x="738" y="-78.45" font-family="Helvetica,sans-Serif" font-size="14.00">value = 68.15</text>
</g>
<!-- 684&#45;&gt;685 -->
<g id="edge19" class="edge">
<title>684&#45;&gt;685</title>
<path fill="none" stroke="black" d="M892.93,-178.54C877.73,-169.2 861.16,-159.03 845.48,-149.4"/>
<polygon fill="black" stroke="black" points="847.5,-146.53 837.15,-144.28 843.84,-152.5 847.5,-146.53"/>
</g>
<!-- 860 -->
<g id="node23" class="node">
<title>860</title>
<path fill="#eb9c63" stroke="black" d="M1017.38,-143C1017.38,-143 884.38,-143 884.38,-143 878.38,-143 872.38,-137 872.38,-131 872.38,-131 872.38,-84 872.38,-84 872.38,-78 878.38,-72 884.38,-72 884.38,-72 1017.38,-72 1017.38,-72 1023.38,-72 1029.38,-78 1029.38,-84 1029.38,-84 1029.38,-131 1029.38,-131 1029.38,-137 1023.38,-143 1017.38,-143"/>
<text text-anchor="start" x="910.75" y="-125.7" font-family="Helvetica,sans-Serif" font-size="14.00">P4_6_4 ≤ 1.5</text>
<text text-anchor="start" x="880.38" y="-109.95" font-family="Helvetica,sans-Serif" font-size="14.00">squared_error = 73.911</text>
<text text-anchor="start" x="902.5" y="-94.2" font-family="Helvetica,sans-Serif" font-size="14.00">samples = 1682</text>
<text text-anchor="start" x="906.25" y="-78.45" font-family="Helvetica,sans-Serif" font-size="14.00">value = 75.721</text>
</g>
<!-- 684&#45;&gt;860 -->
<g id="edge22" class="edge">
<title>684&#45;&gt;860</title>
<path fill="none" stroke="black" d="M950.21,-178.54C950.28,-170.92 950.36,-162.75 950.43,-154.77"/>
<polygon fill="black" stroke="black" points="953.93,-154.86 950.53,-144.82 946.93,-154.79 953.93,-154.86"/>
</g>
<!-- 686 -->
<g id="node21" class="node">
<title>686</title>
<path fill="#c0c0c0" stroke="black" d="M759.88,-36C759.88,-36 729.88,-36 729.88,-36 723.88,-36 717.88,-30 717.88,-24 717.88,-24 717.88,-12 717.88,-12 717.88,-6 723.88,0 729.88,0 729.88,0 759.88,0 759.88,0 765.88,0 771.88,-6 771.88,-12 771.88,-12 771.88,-24 771.88,-24 771.88,-30 765.88,-36 759.88,-36"/>
<text text-anchor="middle" x="744.88" y="-12.57" font-family="Helvetica,sans-Serif" font-size="14.00">(...)</text>
</g>
<!-- 685&#45;&gt;686 -->
<g id="edge20" class="edge">
<title>685&#45;&gt;686</title>
<path fill="none" stroke="black" d="M765.34,-71.67C762.12,-63.37 758.72,-54.63 755.64,-46.71"/>
<polygon fill="black" stroke="black" points="758.98,-45.65 752.1,-37.59 752.46,-48.18 758.98,-45.65"/>
</g>
<!-- 767 -->
<g id="node22" class="node">
<title>767</title>
<path fill="#c0c0c0" stroke="black" d="M831.88,-36C831.88,-36 801.88,-36 801.88,-36 795.88,-36 789.88,-30 789.88,-24 789.88,-24 789.88,-12 789.88,-12 789.88,-6 795.88,0 801.88,0 801.88,0 831.88,0 831.88,0 837.88,0 843.88,-6 843.88,-12 843.88,-12 843.88,-24 843.88,-24 843.88,-30 837.88,-36 831.88,-36"/>
<text text-anchor="middle" x="816.88" y="-12.57" font-family="Helvetica,sans-Serif" font-size="14.00">(...)</text>
</g>
<!-- 685&#45;&gt;767 -->
<g id="edge21" class="edge">
<title>685&#45;&gt;767</title>
<path fill="none" stroke="black" d="M794,-71.67C797.6,-63.37 801.4,-54.63 804.84,-46.71"/>
<polygon fill="black" stroke="black" points="808.04,-48.14 808.81,-37.57 801.62,-45.35 808.04,-48.14"/>
</g>
<!-- 861 -->
<g id="node24" class="node">
<title>861</title>
<path fill="#c0c0c0" stroke="black" d="M907.88,-36C907.88,-36 877.88,-36 877.88,-36 871.88,-36 865.88,-30 865.88,-24 865.88,-24 865.88,-12 865.88,-12 865.88,-6 871.88,0 877.88,0 877.88,0 907.88,0 907.88,0 913.88,0 919.88,-6 919.88,-12 919.88,-12 919.88,-24 919.88,-24 919.88,-30 913.88,-36 907.88,-36"/>
<text text-anchor="middle" x="892.88" y="-12.57" font-family="Helvetica,sans-Serif" font-size="14.00">(...)</text>
</g>
<!-- 860&#45;&gt;861 -->
<g id="edge23" class="edge">
<title>860&#45;&gt;861</title>
<path fill="none" stroke="black" d="M927.79,-71.67C922.04,-62.99 915.96,-53.83 910.52,-45.62"/>
<polygon fill="black" stroke="black" points="913.54,-43.85 905.1,-37.44 907.71,-47.71 913.54,-43.85"/>
</g>
<!-- 948 -->
<g id="node25" class="node">
<title>948</title>
<path fill="#c0c0c0" stroke="black" d="M979.88,-36C979.88,-36 949.88,-36 949.88,-36 943.88,-36 937.88,-30 937.88,-24 937.88,-24 937.88,-12 937.88,-12 937.88,-6 943.88,0 949.88,0 949.88,0 979.88,0 979.88,0 985.88,0 991.88,-6 991.88,-12 991.88,-12 991.88,-24 991.88,-24 991.88,-30 985.88,-36 979.88,-36"/>
<text text-anchor="middle" x="964.88" y="-12.57" font-family="Helvetica,sans-Serif" font-size="14.00">(...)</text>
</g>
<!-- 860&#45;&gt;948 -->
<g id="edge24" class="edge">
<title>860&#45;&gt;948</title>
<path fill="none" stroke="black" d="M956.45,-71.67C957.73,-63.66 959.08,-55.24 960.31,-47.53"/>
<polygon fill="black" stroke="black" points="963.76,-48.1 961.89,-37.68 956.85,-47 963.76,-48.1"/>
</g>
<!-- 1022 -->
<g id="node27" class="node">
<title>1022</title>
<path fill="#f1bb93" stroke="black" d="M1192.75,-143C1192.75,-143 1059,-143 1059,-143 1053,-143 1047,-137 1047,-131 1047,-131 1047,-84 1047,-84 1047,-78 1053,-72 1059,-72 1059,-72 1192.75,-72 1192.75,-72 1198.75,-72 1204.75,-78 1204.75,-84 1204.75,-84 1204.75,-131 1204.75,-131 1204.75,-137 1198.75,-143 1192.75,-143"/>
<text text-anchor="start" x="1085.75" y="-125.7" font-family="Helvetica,sans-Serif" font-size="14.00">P4_6_1 ≤ 1.5</text>
<text text-anchor="start" x="1055" y="-109.95" font-family="Helvetica,sans-Serif" font-size="14.00">squared_error = 79.516</text>
<text text-anchor="start" x="1077.5" y="-94.2" font-family="Helvetica,sans-Serif" font-size="14.00">samples = 2603</text>
<text text-anchor="start" x="1081.25" y="-78.45" font-family="Helvetica,sans-Serif" font-size="14.00">value = 59.567</text>
</g>
<!-- 1021&#45;&gt;1022 -->
<g id="edge26" class="edge">
<title>1021&#45;&gt;1022</title>
<path fill="none" stroke="black" d="M1125.88,-178.54C1125.88,-170.92 1125.88,-162.75 1125.88,-154.77"/>
<polygon fill="black" stroke="black" points="1129.38,-154.82 1125.88,-144.82 1122.38,-154.82 1129.38,-154.82"/>
</g>
<!-- 1261 -->
<g id="node30" class="node">
<title>1261</title>
<path fill="#eeab7c" stroke="black" d="M1368.75,-143C1368.75,-143 1235,-143 1235,-143 1229,-143 1223,-137 1223,-131 1223,-131 1223,-84 1223,-84 1223,-78 1229,-72 1235,-72 1235,-72 1368.75,-72 1368.75,-72 1374.75,-72 1380.75,-78 1380.75,-84 1380.75,-84 1380.75,-131 1380.75,-131 1380.75,-137 1374.75,-143 1368.75,-143"/>
<text text-anchor="start" x="1261.75" y="-125.7" font-family="Helvetica,sans-Serif" font-size="14.00">P4_6_4 ≤ 1.5</text>
<text text-anchor="start" x="1231" y="-109.95" font-family="Helvetica,sans-Serif" font-size="14.00">squared_error = 70.345</text>
<text text-anchor="start" x="1253.5" y="-94.2" font-family="Helvetica,sans-Serif" font-size="14.00">samples = 2032</text>
<text text-anchor="start" x="1257.25" y="-78.45" font-family="Helvetica,sans-Serif" font-size="14.00">value = 67.597</text>
</g>
<!-- 1021&#45;&gt;1261 -->
<g id="edge29" class="edge">
<title>1021&#45;&gt;1261</title>
<path fill="none" stroke="black" d="M1184.48,-178.54C1200.28,-169.11 1217.51,-158.83 1233.78,-149.13"/>
<polygon fill="black" stroke="black" points="1235.13,-152.39 1241.93,-144.27 1231.54,-146.38 1235.13,-152.39"/>
</g>
<!-- 1023 -->
<g id="node28" class="node">
<title>1023</title>
<path fill="#c0c0c0" stroke="black" d="M1084.88,-36C1084.88,-36 1054.88,-36 1054.88,-36 1048.88,-36 1042.88,-30 1042.88,-24 1042.88,-24 1042.88,-12 1042.88,-12 1042.88,-6 1048.88,0 1054.88,0 1054.88,0 1084.88,0 1084.88,0 1090.88,0 1096.88,-6 1096.88,-12 1096.88,-12 1096.88,-24 1096.88,-24 1096.88,-30 1090.88,-36 1084.88,-36"/>
<text text-anchor="middle" x="1069.88" y="-12.57" font-family="Helvetica,sans-Serif" font-size="14.00">(...)</text>
</g>
<!-- 1022&#45;&gt;1023 -->
<g id="edge27" class="edge">
<title>1022&#45;&gt;1023</title>
<path fill="none" stroke="black" d="M1103.58,-71.67C1098.03,-62.99 1092.17,-53.83 1086.91,-45.62"/>
<polygon fill="black" stroke="black" points="1090.03,-43.99 1081.69,-37.46 1084.13,-47.77 1090.03,-43.99"/>
</g>
<!-- 1174 -->
<g id="node29" class="node">
<title>1174</title>
<path fill="#c0c0c0" stroke="black" d="M1156.88,-36C1156.88,-36 1126.88,-36 1126.88,-36 1120.88,-36 1114.88,-30 1114.88,-24 1114.88,-24 1114.88,-12 1114.88,-12 1114.88,-6 1120.88,0 1126.88,0 1126.88,0 1156.88,0 1156.88,0 1162.88,0 1168.88,-6 1168.88,-12 1168.88,-12 1168.88,-24 1168.88,-24 1168.88,-30 1162.88,-36 1156.88,-36"/>
<text text-anchor="middle" x="1141.88" y="-12.57" font-family="Helvetica,sans-Serif" font-size="14.00">(...)</text>
</g>
<!-- 1022&#45;&gt;1174 -->
<g id="edge28" class="edge">
<title>1022&#45;&gt;1174</title>
<path fill="none" stroke="black" d="M1132.24,-71.67C1133.73,-63.56 1135.29,-55.04 1136.71,-47.26"/>
<polygon fill="black" stroke="black" points="1140.1,-48.14 1138.46,-37.67 1133.22,-46.88 1140.1,-48.14"/>
</g>
<!-- 1262 -->
<g id="node31" class="node">
<title>1262</title>
<path fill="#c0c0c0" stroke="black" d="M1260.88,-36C1260.88,-36 1230.88,-36 1230.88,-36 1224.88,-36 1218.88,-30 1218.88,-24 1218.88,-24 1218.88,-12 1218.88,-12 1218.88,-6 1224.88,0 1230.88,0 1230.88,0 1260.88,0 1260.88,0 1266.88,0 1272.88,-6 1272.88,-12 1272.88,-12 1272.88,-24 1272.88,-24 1272.88,-30 1266.88,-36 1260.88,-36"/>
<text text-anchor="middle" x="1245.88" y="-12.57" font-family="Helvetica,sans-Serif" font-size="14.00">(...)</text>
</g>
<!-- 1261&#45;&gt;1262 -->
<g id="edge30" class="edge">
<title>1261&#45;&gt;1262</title>
<path fill="none" stroke="black" d="M1279.58,-71.67C1274.03,-62.99 1268.17,-53.83 1262.91,-45.62"/>
<polygon fill="black" stroke="black" points="1266.03,-43.99 1257.69,-37.46 1260.13,-47.77 1266.03,-43.99"/>
</g>
<!-- 1383 -->
<g id="node32" class="node">
<title>1383</title>
<path fill="#c0c0c0" stroke="black" d="M1332.88,-36C1332.88,-36 1302.88,-36 1302.88,-36 1296.88,-36 1290.88,-30 1290.88,-24 1290.88,-24 1290.88,-12 1290.88,-12 1290.88,-6 1296.88,0 1302.88,0 1302.88,0 1332.88,0 1332.88,0 1338.88,0 1344.88,-6 1344.88,-12 1344.88,-12 1344.88,-24 1344.88,-24 1344.88,-30 1338.88,-36 1332.88,-36"/>
<text text-anchor="middle" x="1317.88" y="-12.57" font-family="Helvetica,sans-Serif" font-size="14.00">(...)</text>
</g>
<!-- 1261&#45;&gt;1383 -->
<g id="edge31" class="edge">
<title>1261&#45;&gt;1383</title>
<path fill="none" stroke="black" d="M1308.24,-71.67C1309.73,-63.56 1311.29,-55.04 1312.71,-47.26"/>
<polygon fill="black" stroke="black" points="1316.1,-48.14 1314.46,-37.67 1309.22,-46.88 1316.1,-48.14"/>
</g>
<!-- 1489 -->
<g id="node34" class="node">
<title>1489</title>
<path fill="#f6d2b9" stroke="black" d="M1808.75,-357C1808.75,-357 1675,-357 1675,-357 1669,-357 1663,-351 1663,-345 1663,-345 1663,-298 1663,-298 1663,-292 1669,-286 1675,-286 1675,-286 1808.75,-286 1808.75,-286 1814.75,-286 1820.75,-292 1820.75,-298 1820.75,-298 1820.75,-345 1820.75,-345 1820.75,-351 1814.75,-357 1808.75,-357"/>
<text text-anchor="start" x="1701.75" y="-339.7" font-family="Helvetica,sans-Serif" font-size="14.00">P4_6_4 ≤ 1.5</text>
<text text-anchor="start" x="1671" y="-323.95" font-family="Helvetica,sans-Serif" font-size="14.00">squared_error = 94.484</text>
<text text-anchor="start" x="1693.5" y="-308.2" font-family="Helvetica,sans-Serif" font-size="14.00">samples = 6874</text>
<text text-anchor="start" x="1697.25" y="-292.45" font-family="Helvetica,sans-Serif" font-size="14.00">value = 47.044</text>
</g>
<!-- 1488&#45;&gt;1489 -->
<g id="edge33" class="edge">
<title>1488&#45;&gt;1489</title>
<path fill="none" stroke="black" d="M1741.88,-392.54C1741.88,-384.92 1741.88,-376.75 1741.88,-368.77"/>
<polygon fill="black" stroke="black" points="1745.38,-368.82 1741.88,-358.82 1738.38,-368.82 1745.38,-368.82"/>
</g>
<!-- 2282 -->
<g id="node49" class="node">
<title>2282</title>
<path fill="#f3c3a0" stroke="black" d="M2338.5,-357C2338.5,-357 2197.25,-357 2197.25,-357 2191.25,-357 2185.25,-351 2185.25,-345 2185.25,-345 2185.25,-298 2185.25,-298 2185.25,-292 2191.25,-286 2197.25,-286 2197.25,-286 2338.5,-286 2338.5,-286 2344.5,-286 2350.5,-292 2350.5,-298 2350.5,-298 2350.5,-345 2350.5,-345 2350.5,-351 2344.5,-357 2338.5,-357"/>
<text text-anchor="start" x="2227.75" y="-339.7" font-family="Helvetica,sans-Serif" font-size="14.00">P4_6_2 ≤ 1.5</text>
<text text-anchor="start" x="2193.25" y="-323.95" font-family="Helvetica,sans-Serif" font-size="14.00">squared_error = 109.808</text>
<text text-anchor="start" x="2219.88" y="-308.2" font-family="Helvetica,sans-Serif" font-size="14.00">samples = 7118</text>
<text text-anchor="start" x="2223.25" y="-292.45" font-family="Helvetica,sans-Serif" font-size="14.00">value = 55.305</text>
</g>
<!-- 1488&#45;&gt;2282 -->
<g id="edge48" class="edge">
<title>1488&#45;&gt;2282</title>
<path fill="none" stroke="black" d="M1824.35,-411.04C1919.15,-392.11 2074.41,-361.12 2173.82,-341.27"/>
<polygon fill="black" stroke="black" points="2174.46,-344.72 2183.58,-339.33 2173.09,-337.85 2174.46,-344.72"/>
</g>
<!-- 1490 -->
<g id="node35" class="node">
<title>1490</title>
<path fill="#f4c8a9" stroke="black" d="M1713.25,-250C1713.25,-250 1594.5,-250 1594.5,-250 1588.5,-250 1582.5,-244 1582.5,-238 1582.5,-238 1582.5,-191 1582.5,-191 1582.5,-185 1588.5,-179 1594.5,-179 1594.5,-179 1713.25,-179 1713.25,-179 1719.25,-179 1725.25,-185 1725.25,-191 1725.25,-191 1725.25,-238 1725.25,-238 1725.25,-244 1719.25,-250 1713.25,-250"/>
<text text-anchor="start" x="1610.38" y="-232.7" font-family="Helvetica,sans-Serif" font-size="14.00">P11_3_9 ≤ 0.5</text>
<text text-anchor="start" x="1590.5" y="-216.95" font-family="Helvetica,sans-Serif" font-size="14.00">squared_error = 83.4</text>
<text text-anchor="start" x="1605.5" y="-201.2" font-family="Helvetica,sans-Serif" font-size="14.00">samples = 2129</text>
<text text-anchor="start" x="1609.25" y="-185.45" font-family="Helvetica,sans-Serif" font-size="14.00">value = 52.403</text>
</g>
<!-- 1489&#45;&gt;1490 -->
<g id="edge34" class="edge">
<title>1489&#45;&gt;1490</title>
<path fill="none" stroke="black" d="M1712.57,-285.54C1705.45,-277.04 1697.74,-267.84 1690.33,-259"/>
<polygon fill="black" stroke="black" points="1693.13,-256.89 1684.02,-251.47 1687.76,-261.38 1693.13,-256.89"/>
</g>
<!-- 1769 -->
<g id="node42" class="node">
<title>1769</title>
<path fill="#f7d7c0" stroke="black" d="M1896.75,-250C1896.75,-250 1763,-250 1763,-250 1757,-250 1751,-244 1751,-238 1751,-238 1751,-191 1751,-191 1751,-185 1757,-179 1763,-179 1763,-179 1896.75,-179 1896.75,-179 1902.75,-179 1908.75,-185 1908.75,-191 1908.75,-191 1908.75,-238 1908.75,-238 1908.75,-244 1902.75,-250 1896.75,-250"/>
<text text-anchor="start" x="1789.75" y="-232.7" font-family="Helvetica,sans-Serif" font-size="14.00">P4_6_1 ≤ 1.5</text>
<text text-anchor="start" x="1759" y="-216.95" font-family="Helvetica,sans-Serif" font-size="14.00">squared_error = 80.795</text>
<text text-anchor="start" x="1781.5" y="-201.2" font-family="Helvetica,sans-Serif" font-size="14.00">samples = 4745</text>
<text text-anchor="start" x="1789" y="-185.45" font-family="Helvetica,sans-Serif" font-size="14.00">value = 44.64</text>
</g>
<!-- 1489&#45;&gt;1769 -->
<g id="edge41" class="edge">
<title>1489&#45;&gt;1769</title>
<path fill="none" stroke="black" d="M1771.18,-285.54C1778.3,-277.04 1786.01,-267.84 1793.42,-259"/>
<polygon fill="black" stroke="black" points="1795.99,-261.38 1799.73,-251.47 1790.62,-256.89 1795.99,-261.38"/>
</g>
<!-- 1491 -->
<g id="node36" class="node">
<title>1491</title>
<path fill="#f2c2a0" stroke="black" d="M1544.75,-143C1544.75,-143 1411,-143 1411,-143 1405,-143 1399,-137 1399,-131 1399,-131 1399,-84 1399,-84 1399,-78 1405,-72 1411,-72 1411,-72 1544.75,-72 1544.75,-72 1550.75,-72 1556.75,-78 1556.75,-84 1556.75,-84 1556.75,-131 1556.75,-131 1556.75,-137 1550.75,-143 1544.75,-143"/>
<text text-anchor="start" x="1437.75" y="-125.7" font-family="Helvetica,sans-Serif" font-size="14.00">P4_8_1 ≤ 1.5</text>
<text text-anchor="start" x="1407" y="-109.95" font-family="Helvetica,sans-Serif" font-size="14.00">squared_error = 77.275</text>
<text text-anchor="start" x="1429.5" y="-94.2" font-family="Helvetica,sans-Serif" font-size="14.00">samples = 1093</text>
<text text-anchor="start" x="1437" y="-78.45" font-family="Helvetica,sans-Serif" font-size="14.00">value = 55.41</text>
</g>
<!-- 1490&#45;&gt;1491 -->
<g id="edge35" class="edge">
<title>1490&#45;&gt;1491</title>
<path fill="none" stroke="black" d="M1595.27,-178.54C1579.47,-169.11 1562.24,-158.83 1545.97,-149.13"/>
<polygon fill="black" stroke="black" points="1548.21,-146.38 1537.82,-144.27 1544.62,-152.39 1548.21,-146.38"/>
</g>
<!-- 1632 -->
<g id="node39" class="node">
<title>1632</title>
<path fill="#f5ceb2" stroke="black" d="M1720.75,-143C1720.75,-143 1587,-143 1587,-143 1581,-143 1575,-137 1575,-131 1575,-131 1575,-84 1575,-84 1575,-78 1581,-72 1587,-72 1587,-72 1720.75,-72 1720.75,-72 1726.75,-72 1732.75,-78 1732.75,-84 1732.75,-84 1732.75,-131 1732.75,-131 1732.75,-137 1726.75,-143 1720.75,-143"/>
<text text-anchor="start" x="1613.75" y="-125.7" font-family="Helvetica,sans-Serif" font-size="14.00">P4_6_1 ≤ 1.5</text>
<text text-anchor="start" x="1583" y="-109.95" font-family="Helvetica,sans-Serif" font-size="14.00">squared_error = 70.247</text>
<text text-anchor="start" x="1605.5" y="-94.2" font-family="Helvetica,sans-Serif" font-size="14.00">samples = 1036</text>
<text text-anchor="start" x="1609.25" y="-78.45" font-family="Helvetica,sans-Serif" font-size="14.00">value = 49.229</text>
</g>
<!-- 1490&#45;&gt;1632 -->
<g id="edge38" class="edge">
<title>1490&#45;&gt;1632</title>
<path fill="none" stroke="black" d="M1653.88,-178.54C1653.88,-170.92 1653.88,-162.75 1653.88,-154.77"/>
<polygon fill="black" stroke="black" points="1657.38,-154.82 1653.88,-144.82 1650.38,-154.82 1657.38,-154.82"/>
</g>
<!-- 1492 -->
<g id="node37" class="node">
<title>1492</title>
<path fill="#c0c0c0" stroke="black" d="M1436.88,-36C1436.88,-36 1406.88,-36 1406.88,-36 1400.88,-36 1394.88,-30 1394.88,-24 1394.88,-24 1394.88,-12 1394.88,-12 1394.88,-6 1400.88,0 1406.88,0 1406.88,0 1436.88,0 1436.88,0 1442.88,0 1448.88,-6 1448.88,-12 1448.88,-12 1448.88,-24 1448.88,-24 1448.88,-30 1442.88,-36 1436.88,-36"/>
<text text-anchor="middle" x="1421.88" y="-12.57" font-family="Helvetica,sans-Serif" font-size="14.00">(...)</text>
</g>
<!-- 1491&#45;&gt;1492 -->
<g id="edge36" class="edge">
<title>1491&#45;&gt;1492</title>
<path fill="none" stroke="black" d="M1455.58,-71.67C1450.03,-62.99 1444.17,-53.83 1438.91,-45.62"/>
<polygon fill="black" stroke="black" points="1442.03,-43.99 1433.69,-37.46 1436.13,-47.77 1442.03,-43.99"/>
</g>
<!-- 1559 -->
<g id="node38" class="node">
<title>1559</title>
<path fill="#c0c0c0" stroke="black" d="M1508.88,-36C1508.88,-36 1478.88,-36 1478.88,-36 1472.88,-36 1466.88,-30 1466.88,-24 1466.88,-24 1466.88,-12 1466.88,-12 1466.88,-6 1472.88,0 1478.88,0 1478.88,0 1508.88,0 1508.88,0 1514.88,0 1520.88,-6 1520.88,-12 1520.88,-12 1520.88,-24 1520.88,-24 1520.88,-30 1514.88,-36 1508.88,-36"/>
<text text-anchor="middle" x="1493.88" y="-12.57" font-family="Helvetica,sans-Serif" font-size="14.00">(...)</text>
</g>
<!-- 1491&#45;&gt;1559 -->
<g id="edge37" class="edge">
<title>1491&#45;&gt;1559</title>
<path fill="none" stroke="black" d="M1484.24,-71.67C1485.73,-63.56 1487.29,-55.04 1488.71,-47.26"/>
<polygon fill="black" stroke="black" points="1492.1,-48.14 1490.46,-37.67 1485.22,-46.88 1492.1,-48.14"/>
</g>
<!-- 1633 -->
<g id="node40" class="node">
<title>1633</title>
<path fill="#c0c0c0" stroke="black" d="M1612.88,-36C1612.88,-36 1582.88,-36 1582.88,-36 1576.88,-36 1570.88,-30 1570.88,-24 1570.88,-24 1570.88,-12 1570.88,-12 1570.88,-6 1576.88,0 1582.88,0 1582.88,0 1612.88,0 1612.88,0 1618.88,0 1624.88,-6 1624.88,-12 1624.88,-12 1624.88,-24 1624.88,-24 1624.88,-30 1618.88,-36 1612.88,-36"/>
<text text-anchor="middle" x="1597.88" y="-12.57" font-family="Helvetica,sans-Serif" font-size="14.00">(...)</text>
</g>
<!-- 1632&#45;&gt;1633 -->
<g id="edge39" class="edge">
<title>1632&#45;&gt;1633</title>
<path fill="none" stroke="black" d="M1631.58,-71.67C1626.03,-62.99 1620.17,-53.83 1614.91,-45.62"/>
<polygon fill="black" stroke="black" points="1618.03,-43.99 1609.69,-37.46 1612.13,-47.77 1618.03,-43.99"/>
</g>
<!-- 1720 -->
<g id="node41" class="node">
<title>1720</title>
<path fill="#c0c0c0" stroke="black" d="M1684.88,-36C1684.88,-36 1654.88,-36 1654.88,-36 1648.88,-36 1642.88,-30 1642.88,-24 1642.88,-24 1642.88,-12 1642.88,-12 1642.88,-6 1648.88,0 1654.88,0 1654.88,0 1684.88,0 1684.88,0 1690.88,0 1696.88,-6 1696.88,-12 1696.88,-12 1696.88,-24 1696.88,-24 1696.88,-30 1690.88,-36 1684.88,-36"/>
<text text-anchor="middle" x="1669.88" y="-12.57" font-family="Helvetica,sans-Serif" font-size="14.00">(...)</text>
</g>
<!-- 1632&#45;&gt;1720 -->
<g id="edge40" class="edge">
<title>1632&#45;&gt;1720</title>
<path fill="none" stroke="black" d="M1660.24,-71.67C1661.73,-63.56 1663.29,-55.04 1664.71,-47.26"/>
<polygon fill="black" stroke="black" points="1668.1,-48.14 1666.46,-37.67 1661.22,-46.88 1668.1,-48.14"/>
</g>
<!-- 1770 -->
<g id="node43" class="node">
<title>1770</title>
<path fill="#f6d2b8" stroke="black" d="M1896.75,-143C1896.75,-143 1763,-143 1763,-143 1757,-143 1751,-137 1751,-131 1751,-131 1751,-84 1751,-84 1751,-78 1757,-72 1763,-72 1763,-72 1896.75,-72 1896.75,-72 1902.75,-72 1908.75,-78 1908.75,-84 1908.75,-84 1908.75,-131 1908.75,-131 1908.75,-137 1902.75,-143 1896.75,-143"/>
<text text-anchor="start" x="1789.75" y="-125.7" font-family="Helvetica,sans-Serif" font-size="14.00">P4_7_3 ≤ 1.5</text>
<text text-anchor="start" x="1759" y="-109.95" font-family="Helvetica,sans-Serif" font-size="14.00">squared_error = 73.463</text>
<text text-anchor="start" x="1781.5" y="-94.2" font-family="Helvetica,sans-Serif" font-size="14.00">samples = 2703</text>
<text text-anchor="start" x="1785.25" y="-78.45" font-family="Helvetica,sans-Serif" font-size="14.00">value = 47.338</text>
</g>
<!-- 1769&#45;&gt;1770 -->
<g id="edge42" class="edge">
<title>1769&#45;&gt;1770</title>
<path fill="none" stroke="black" d="M1829.88,-178.54C1829.88,-170.92 1829.88,-162.75 1829.88,-154.77"/>
<polygon fill="black" stroke="black" points="1833.38,-154.82 1829.88,-144.82 1826.38,-154.82 1833.38,-154.82"/>
</g>
<!-- 2045 -->
<g id="node46" class="node">
<title>2045</title>
<path fill="#f8ddca" stroke="black" d="M2071.38,-143C2071.38,-143 1938.38,-143 1938.38,-143 1932.38,-143 1926.38,-137 1926.38,-131 1926.38,-131 1926.38,-84 1926.38,-84 1926.38,-78 1932.38,-72 1938.38,-72 1938.38,-72 2071.38,-72 2071.38,-72 2077.38,-72 2083.38,-78 2083.38,-84 2083.38,-84 2083.38,-131 2083.38,-131 2083.38,-137 2077.38,-143 2071.38,-143"/>
<text text-anchor="start" x="1964.75" y="-125.7" font-family="Helvetica,sans-Serif" font-size="14.00">P4_7_3 ≤ 1.5</text>
<text text-anchor="start" x="1934.38" y="-109.95" font-family="Helvetica,sans-Serif" font-size="14.00">squared_error = 68.118</text>
<text text-anchor="start" x="1956.5" y="-94.2" font-family="Helvetica,sans-Serif" font-size="14.00">samples = 2042</text>
<text text-anchor="start" x="1960.25" y="-78.45" font-family="Helvetica,sans-Serif" font-size="14.00">value = 41.069</text>
</g>
<!-- 1769&#45;&gt;2045 -->
<g id="edge45" class="edge">
<title>1769&#45;&gt;2045</title>
<path fill="none" stroke="black" d="M1888.15,-178.54C1903.71,-169.2 1920.67,-159.03 1936.71,-149.4"/>
<polygon fill="black" stroke="black" points="1938.49,-152.41 1945.26,-144.27 1934.89,-146.41 1938.49,-152.41"/>
</g>
<!-- 1771 -->
<g id="node44" class="node">
<title>1771</title>
<path fill="#c0c0c0" stroke="black" d="M1787.88,-36C1787.88,-36 1757.88,-36 1757.88,-36 1751.88,-36 1745.88,-30 1745.88,-24 1745.88,-24 1745.88,-12 1745.88,-12 1745.88,-6 1751.88,0 1757.88,0 1757.88,0 1787.88,0 1787.88,0 1793.88,0 1799.88,-6 1799.88,-12 1799.88,-12 1799.88,-24 1799.88,-24 1799.88,-30 1793.88,-36 1787.88,-36"/>
<text text-anchor="middle" x="1772.88" y="-12.57" font-family="Helvetica,sans-Serif" font-size="14.00">(...)</text>
</g>
<!-- 1770&#45;&gt;1771 -->
<g id="edge43" class="edge">
<title>1770&#45;&gt;1771</title>
<path fill="none" stroke="black" d="M1807.18,-71.67C1801.53,-62.99 1795.56,-53.83 1790.22,-45.62"/>
<polygon fill="black" stroke="black" points="1793.29,-43.92 1784.89,-37.45 1787.42,-47.74 1793.29,-43.92"/>
</g>
<!-- 1928 -->
<g id="node45" class="node">
<title>1928</title>
<path fill="#c0c0c0" stroke="black" d="M1859.88,-36C1859.88,-36 1829.88,-36 1829.88,-36 1823.88,-36 1817.88,-30 1817.88,-24 1817.88,-24 1817.88,-12 1817.88,-12 1817.88,-6 1823.88,0 1829.88,0 1829.88,0 1859.88,0 1859.88,0 1865.88,0 1871.88,-6 1871.88,-12 1871.88,-12 1871.88,-24 1871.88,-24 1871.88,-30 1865.88,-36 1859.88,-36"/>
<text text-anchor="middle" x="1844.88" y="-12.57" font-family="Helvetica,sans-Serif" font-size="14.00">(...)</text>
</g>
<!-- 1770&#45;&gt;1928 -->
<g id="edge44" class="edge">
<title>1770&#45;&gt;1928</title>
<path fill="none" stroke="black" d="M1835.85,-71.67C1837.24,-63.56 1838.7,-55.04 1840.03,-47.26"/>
<polygon fill="black" stroke="black" points="1843.43,-48.12 1841.67,-37.67 1836.53,-46.94 1843.43,-48.12"/>
</g>
<!-- 2046 -->
<g id="node47" class="node">
<title>2046</title>
<path fill="#c0c0c0" stroke="black" d="M1962.88,-36C1962.88,-36 1932.88,-36 1932.88,-36 1926.88,-36 1920.88,-30 1920.88,-24 1920.88,-24 1920.88,-12 1920.88,-12 1920.88,-6 1926.88,0 1932.88,0 1932.88,0 1962.88,0 1962.88,0 1968.88,0 1974.88,-6 1974.88,-12 1974.88,-12 1974.88,-24 1974.88,-24 1974.88,-30 1968.88,-36 1962.88,-36"/>
<text text-anchor="middle" x="1947.88" y="-12.57" font-family="Helvetica,sans-Serif" font-size="14.00">(...)</text>
</g>
<!-- 2045&#45;&gt;2046 -->
<g id="edge46" class="edge">
<title>2045&#45;&gt;2046</title>
<path fill="none" stroke="black" d="M1982.18,-71.67C1976.53,-62.99 1970.56,-53.83 1965.22,-45.62"/>
<polygon fill="black" stroke="black" points="1968.29,-43.92 1959.89,-37.45 1962.42,-47.74 1968.29,-43.92"/>
</g>
<!-- 2183 -->
<g id="node48" class="node">
<title>2183</title>
<path fill="#c0c0c0" stroke="black" d="M2034.88,-36C2034.88,-36 2004.88,-36 2004.88,-36 1998.88,-36 1992.88,-30 1992.88,-24 1992.88,-24 1992.88,-12 1992.88,-12 1992.88,-6 1998.88,0 2004.88,0 2004.88,0 2034.88,0 2034.88,0 2040.88,0 2046.88,-6 2046.88,-12 2046.88,-12 2046.88,-24 2046.88,-24 2046.88,-30 2040.88,-36 2034.88,-36"/>
<text text-anchor="middle" x="2019.88" y="-12.57" font-family="Helvetica,sans-Serif" font-size="14.00">(...)</text>
</g>
<!-- 2045&#45;&gt;2183 -->
<g id="edge47" class="edge">
<title>2045&#45;&gt;2183</title>
<path fill="none" stroke="black" d="M2010.85,-71.67C2012.24,-63.56 2013.7,-55.04 2015.03,-47.26"/>
<polygon fill="black" stroke="black" points="2018.43,-48.12 2016.67,-37.67 2011.53,-46.94 2018.43,-48.12"/>
</g>
<!-- 2283 -->
<g id="node50" class="node">
<title>2283</title>
<path fill="#f2be99" stroke="black" d="M2334.75,-250C2334.75,-250 2201,-250 2201,-250 2195,-250 2189,-244 2189,-238 2189,-238 2189,-191 2189,-191 2189,-185 2195,-179 2201,-179 2201,-179 2334.75,-179 2334.75,-179 2340.75,-179 2346.75,-185 2346.75,-191 2346.75,-191 2346.75,-238 2346.75,-238 2346.75,-244 2340.75,-250 2334.75,-250"/>
<text text-anchor="start" x="2224.38" y="-232.7" font-family="Helvetica,sans-Serif" font-size="14.00">P11_3_9 ≤ 0.5</text>
<text text-anchor="start" x="2197" y="-216.95" font-family="Helvetica,sans-Serif" font-size="14.00">squared_error = 92.895</text>
<text text-anchor="start" x="2219.5" y="-201.2" font-family="Helvetica,sans-Serif" font-size="14.00">samples = 5025</text>
<text text-anchor="start" x="2223.25" y="-185.45" font-family="Helvetica,sans-Serif" font-size="14.00">value = 57.821</text>
</g>
<!-- 2282&#45;&gt;2283 -->
<g id="edge49" class="edge">
<title>2282&#45;&gt;2283</title>
<path fill="none" stroke="black" d="M2267.88,-285.54C2267.88,-277.92 2267.88,-269.75 2267.88,-261.77"/>
<polygon fill="black" stroke="black" points="2271.38,-261.82 2267.88,-251.82 2264.38,-261.82 2271.38,-261.82"/>
</g>
<!-- 2790 -->
<g id="node57" class="node">
<title>2790</title>
<path fill="#f5ceb2" stroke="black" d="M2598.75,-250C2598.75,-250 2465,-250 2465,-250 2459,-250 2453,-244 2453,-238 2453,-238 2453,-191 2453,-191 2453,-185 2459,-179 2465,-179 2465,-179 2598.75,-179 2598.75,-179 2604.75,-179 2610.75,-185 2610.75,-191 2610.75,-191 2610.75,-238 2610.75,-238 2610.75,-244 2604.75,-250 2598.75,-250"/>
<text text-anchor="start" x="2491.75" y="-232.7" font-family="Helvetica,sans-Serif" font-size="14.00">P4_8_1 ≤ 2.5</text>
<text text-anchor="start" x="2461" y="-216.95" font-family="Helvetica,sans-Serif" font-size="14.00">squared_error = 98.726</text>
<text text-anchor="start" x="2483.5" y="-201.2" font-family="Helvetica,sans-Serif" font-size="14.00">samples = 2093</text>
<text text-anchor="start" x="2487.25" y="-185.45" font-family="Helvetica,sans-Serif" font-size="14.00">value = 49.264</text>
</g>
<!-- 2282&#45;&gt;2790 -->
<g id="edge56" class="edge">
<title>2282&#45;&gt;2790</title>
<path fill="none" stroke="black" d="M2350.68,-287.57C2379.76,-276 2412.56,-262.95 2442.19,-251.17"/>
<polygon fill="black" stroke="black" points="2443.11,-254.57 2451.11,-247.62 2440.53,-248.06 2443.11,-254.57"/>
</g>
<!-- 2284 -->
<g id="node51" class="node">
<title>2284</title>
<path fill="#f0b88f" stroke="black" d="M2246.75,-143C2246.75,-143 2113,-143 2113,-143 2107,-143 2101,-137 2101,-131 2101,-131 2101,-84 2101,-84 2101,-78 2107,-72 2113,-72 2113,-72 2246.75,-72 2246.75,-72 2252.75,-72 2258.75,-78 2258.75,-84 2258.75,-84 2258.75,-131 2258.75,-131 2258.75,-137 2252.75,-143 2246.75,-143"/>
<text text-anchor="start" x="2139.75" y="-125.7" font-family="Helvetica,sans-Serif" font-size="14.00">P4_8_1 ≤ 2.5</text>
<text text-anchor="start" x="2109" y="-109.95" font-family="Helvetica,sans-Serif" font-size="14.00">squared_error = 80.095</text>
<text text-anchor="start" x="2131.5" y="-94.2" font-family="Helvetica,sans-Serif" font-size="14.00">samples = 2799</text>
<text text-anchor="start" x="2135.25" y="-78.45" font-family="Helvetica,sans-Serif" font-size="14.00">value = 61.103</text>
</g>
<!-- 2283&#45;&gt;2284 -->
<g id="edge50" class="edge">
<title>2283&#45;&gt;2284</title>
<path fill="none" stroke="black" d="M2238.57,-178.54C2231.45,-170.04 2223.74,-160.84 2216.33,-152"/>
<polygon fill="black" stroke="black" points="2219.13,-149.89 2210.02,-144.47 2213.76,-154.38 2219.13,-149.89"/>
</g>
<!-- 2561 -->
<g id="node54" class="node">
<title>2561</title>
<path fill="#f3c6a5" stroke="black" d="M2422.75,-143C2422.75,-143 2289,-143 2289,-143 2283,-143 2277,-137 2277,-131 2277,-131 2277,-84 2277,-84 2277,-78 2283,-72 2289,-72 2289,-72 2422.75,-72 2422.75,-72 2428.75,-72 2434.75,-78 2434.75,-84 2434.75,-84 2434.75,-131 2434.75,-131 2434.75,-137 2428.75,-143 2422.75,-143"/>
<text text-anchor="start" x="2315.75" y="-125.7" font-family="Helvetica,sans-Serif" font-size="14.00">P4_8_1 ≤ 2.5</text>
<text text-anchor="start" x="2285" y="-109.95" font-family="Helvetica,sans-Serif" font-size="14.00">squared_error = 78.401</text>
<text text-anchor="start" x="2307.5" y="-94.2" font-family="Helvetica,sans-Serif" font-size="14.00">samples = 2226</text>
<text text-anchor="start" x="2311.25" y="-78.45" font-family="Helvetica,sans-Serif" font-size="14.00">value = 53.693</text>
</g>
<!-- 2283&#45;&gt;2561 -->
<g id="edge53" class="edge">
<title>2283&#45;&gt;2561</title>
<path fill="none" stroke="black" d="M2297.18,-178.54C2304.3,-170.04 2312.01,-160.84 2319.42,-152"/>
<polygon fill="black" stroke="black" points="2321.99,-154.38 2325.73,-144.47 2316.62,-149.89 2321.99,-154.38"/>
</g>
<!-- 2285 -->
<g id="node52" class="node">
<title>2285</title>
<path fill="#c0c0c0" stroke="black" d="M2138.88,-36C2138.88,-36 2108.88,-36 2108.88,-36 2102.88,-36 2096.88,-30 2096.88,-24 2096.88,-24 2096.88,-12 2096.88,-12 2096.88,-6 2102.88,0 2108.88,0 2108.88,0 2138.88,0 2138.88,0 2144.88,0 2150.88,-6 2150.88,-12 2150.88,-12 2150.88,-24 2150.88,-24 2150.88,-30 2144.88,-36 2138.88,-36"/>
<text text-anchor="middle" x="2123.88" y="-12.57" font-family="Helvetica,sans-Serif" font-size="14.00">(...)</text>
</g>
<!-- 2284&#45;&gt;2285 -->
<g id="edge51" class="edge">
<title>2284&#45;&gt;2285</title>
<path fill="none" stroke="black" d="M2157.58,-71.67C2152.03,-62.99 2146.17,-53.83 2140.91,-45.62"/>
<polygon fill="black" stroke="black" points="2144.03,-43.99 2135.69,-37.46 2138.13,-47.77 2144.03,-43.99"/>
</g>
<!-- 2426 -->
<g id="node53" class="node">
<title>2426</title>
<path fill="#c0c0c0" stroke="black" d="M2210.88,-36C2210.88,-36 2180.88,-36 2180.88,-36 2174.88,-36 2168.88,-30 2168.88,-24 2168.88,-24 2168.88,-12 2168.88,-12 2168.88,-6 2174.88,0 2180.88,0 2180.88,0 2210.88,0 2210.88,0 2216.88,0 2222.88,-6 2222.88,-12 2222.88,-12 2222.88,-24 2222.88,-24 2222.88,-30 2216.88,-36 2210.88,-36"/>
<text text-anchor="middle" x="2195.88" y="-12.57" font-family="Helvetica,sans-Serif" font-size="14.00">(...)</text>
</g>
<!-- 2284&#45;&gt;2426 -->
<g id="edge52" class="edge">
<title>2284&#45;&gt;2426</title>
<path fill="none" stroke="black" d="M2186.24,-71.67C2187.73,-63.56 2189.29,-55.04 2190.71,-47.26"/>
<polygon fill="black" stroke="black" points="2194.1,-48.14 2192.46,-37.67 2187.22,-46.88 2194.1,-48.14"/>
</g>
<!-- 2562 -->
<g id="node55" class="node">
<title>2562</title>
<path fill="#c0c0c0" stroke="black" d="M2314.88,-36C2314.88,-36 2284.88,-36 2284.88,-36 2278.88,-36 2272.88,-30 2272.88,-24 2272.88,-24 2272.88,-12 2272.88,-12 2272.88,-6 2278.88,0 2284.88,0 2284.88,0 2314.88,0 2314.88,0 2320.88,0 2326.88,-6 2326.88,-12 2326.88,-12 2326.88,-24 2326.88,-24 2326.88,-30 2320.88,-36 2314.88,-36"/>
<text text-anchor="middle" x="2299.88" y="-12.57" font-family="Helvetica,sans-Serif" font-size="14.00">(...)</text>
</g>
<!-- 2561&#45;&gt;2562 -->
<g id="edge54" class="edge">
<title>2561&#45;&gt;2562</title>
<path fill="none" stroke="black" d="M2333.58,-71.67C2328.03,-62.99 2322.17,-53.83 2316.91,-45.62"/>
<polygon fill="black" stroke="black" points="2320.03,-43.99 2311.69,-37.46 2314.13,-47.77 2320.03,-43.99"/>
</g>
<!-- 2689 -->
<g id="node56" class="node">
<title>2689</title>
<path fill="#c0c0c0" stroke="black" d="M2386.88,-36C2386.88,-36 2356.88,-36 2356.88,-36 2350.88,-36 2344.88,-30 2344.88,-24 2344.88,-24 2344.88,-12 2344.88,-12 2344.88,-6 2350.88,0 2356.88,0 2356.88,0 2386.88,0 2386.88,0 2392.88,0 2398.88,-6 2398.88,-12 2398.88,-12 2398.88,-24 2398.88,-24 2398.88,-30 2392.88,-36 2386.88,-36"/>
<text text-anchor="middle" x="2371.88" y="-12.57" font-family="Helvetica,sans-Serif" font-size="14.00">(...)</text>
</g>
<!-- 2561&#45;&gt;2689 -->
<g id="edge55" class="edge">
<title>2561&#45;&gt;2689</title>
<path fill="none" stroke="black" d="M2362.24,-71.67C2363.73,-63.56 2365.29,-55.04 2366.71,-47.26"/>
<polygon fill="black" stroke="black" points="2370.1,-48.14 2368.46,-37.67 2363.22,-46.88 2370.1,-48.14"/>
</g>
<!-- 2791 -->
<g id="node58" class="node">
<title>2791</title>
<path fill="#f6d4bb" stroke="black" d="M2598.75,-143C2598.75,-143 2465,-143 2465,-143 2459,-143 2453,-137 2453,-131 2453,-131 2453,-84 2453,-84 2453,-78 2459,-72 2465,-72 2465,-72 2598.75,-72 2598.75,-72 2604.75,-72 2610.75,-78 2610.75,-84 2610.75,-84 2610.75,-131 2610.75,-131 2610.75,-137 2604.75,-143 2598.75,-143"/>
<text text-anchor="start" x="2491.75" y="-125.7" font-family="Helvetica,sans-Serif" font-size="14.00">P4_7_2 ≤ 1.5</text>
<text text-anchor="start" x="2461" y="-109.95" font-family="Helvetica,sans-Serif" font-size="14.00">squared_error = 81.286</text>
<text text-anchor="start" x="2483.5" y="-94.2" font-family="Helvetica,sans-Serif" font-size="14.00">samples = 1297</text>
<text text-anchor="start" x="2487.25" y="-78.45" font-family="Helvetica,sans-Serif" font-size="14.00">value = 46.152</text>
</g>
<!-- 2790&#45;&gt;2791 -->
<g id="edge57" class="edge">
<title>2790&#45;&gt;2791</title>
<path fill="none" stroke="black" d="M2531.88,-178.54C2531.88,-170.92 2531.88,-162.75 2531.88,-154.77"/>
<polygon fill="black" stroke="black" points="2535.38,-154.82 2531.88,-144.82 2528.38,-154.82 2535.38,-154.82"/>
</g>
<!-- 2956 -->
<g id="node61" class="node">
<title>2956</title>
<path fill="#f3c4a3" stroke="black" d="M2774.75,-143C2774.75,-143 2641,-143 2641,-143 2635,-143 2629,-137 2629,-131 2629,-131 2629,-84 2629,-84 2629,-78 2635,-72 2641,-72 2641,-72 2774.75,-72 2774.75,-72 2780.75,-72 2786.75,-78 2786.75,-84 2786.75,-84 2786.75,-131 2786.75,-131 2786.75,-137 2780.75,-143 2774.75,-143"/>
<text text-anchor="start" x="2667.75" y="-125.7" font-family="Helvetica,sans-Serif" font-size="14.00">P4_7_3 ≤ 1.5</text>
<text text-anchor="start" x="2637" y="-109.95" font-family="Helvetica,sans-Serif" font-size="14.00">squared_error = 85.643</text>
<text text-anchor="start" x="2663.25" y="-94.2" font-family="Helvetica,sans-Serif" font-size="14.00">samples = 796</text>
<text text-anchor="start" x="2663.25" y="-78.45" font-family="Helvetica,sans-Serif" font-size="14.00">value = 54.335</text>
</g>
<!-- 2790&#45;&gt;2956 -->
<g id="edge60" class="edge">
<title>2790&#45;&gt;2956</title>
<path fill="none" stroke="black" d="M2590.48,-178.54C2606.28,-169.11 2623.51,-158.83 2639.78,-149.13"/>
<polygon fill="black" stroke="black" points="2641.13,-152.39 2647.93,-144.27 2637.54,-146.38 2641.13,-152.39"/>
</g>
<!-- 2792 -->
<g id="node59" class="node">
<title>2792</title>
<path fill="#c0c0c0" stroke="black" d="M2508.88,-36C2508.88,-36 2478.88,-36 2478.88,-36 2472.88,-36 2466.88,-30 2466.88,-24 2466.88,-24 2466.88,-12 2466.88,-12 2466.88,-6 2472.88,0 2478.88,0 2478.88,0 2508.88,0 2508.88,0 2514.88,0 2520.88,-6 2520.88,-12 2520.88,-12 2520.88,-24 2520.88,-24 2520.88,-30 2514.88,-36 2508.88,-36"/>
<text text-anchor="middle" x="2493.88" y="-12.57" font-family="Helvetica,sans-Serif" font-size="14.00">(...)</text>
</g>
<!-- 2791&#45;&gt;2792 -->
<g id="edge58" class="edge">
<title>2791&#45;&gt;2792</title>
<path fill="none" stroke="black" d="M2516.75,-71.67C2513.15,-63.37 2509.35,-54.63 2505.91,-46.71"/>
<polygon fill="black" stroke="black" points="2509.13,-45.35 2501.94,-37.57 2502.71,-48.14 2509.13,-45.35"/>
</g>
<!-- 2895 -->
<g id="node60" class="node">
<title>2895</title>
<path fill="#c0c0c0" stroke="black" d="M2580.88,-36C2580.88,-36 2550.88,-36 2550.88,-36 2544.88,-36 2538.88,-30 2538.88,-24 2538.88,-24 2538.88,-12 2538.88,-12 2538.88,-6 2544.88,0 2550.88,0 2550.88,0 2580.88,0 2580.88,0 2586.88,0 2592.88,-6 2592.88,-12 2592.88,-12 2592.88,-24 2592.88,-24 2592.88,-30 2586.88,-36 2580.88,-36"/>
<text text-anchor="middle" x="2565.88" y="-12.57" font-family="Helvetica,sans-Serif" font-size="14.00">(...)</text>
</g>
<!-- 2791&#45;&gt;2895 -->
<g id="edge59" class="edge">
<title>2791&#45;&gt;2895</title>
<path fill="none" stroke="black" d="M2545.41,-71.67C2548.63,-63.37 2552.03,-54.63 2555.11,-46.71"/>
<polygon fill="black" stroke="black" points="2558.29,-48.18 2558.65,-37.59 2551.77,-45.65 2558.29,-48.18"/>
</g>
<!-- 2957 -->
<g id="node62" class="node">
<title>2957</title>
<path fill="#c0c0c0" stroke="black" d="M2686.88,-36C2686.88,-36 2656.88,-36 2656.88,-36 2650.88,-36 2644.88,-30 2644.88,-24 2644.88,-24 2644.88,-12 2644.88,-12 2644.88,-6 2650.88,0 2656.88,0 2656.88,0 2686.88,0 2686.88,0 2692.88,0 2698.88,-6 2698.88,-12 2698.88,-12 2698.88,-24 2698.88,-24 2698.88,-30 2692.88,-36 2686.88,-36"/>
<text text-anchor="middle" x="2671.88" y="-12.57" font-family="Helvetica,sans-Serif" font-size="14.00">(...)</text>
</g>
<!-- 2956&#45;&gt;2957 -->
<g id="edge61" class="edge">
<title>2956&#45;&gt;2957</title>
<path fill="none" stroke="black" d="M2693.54,-71.67C2690.13,-63.37 2686.54,-54.63 2683.28,-46.71"/>
<polygon fill="black" stroke="black" points="2686.56,-45.5 2679.52,-37.58 2680.09,-48.16 2686.56,-45.5"/>
</g>
<!-- 3036 -->
<g id="node63" class="node">
<title>3036</title>
<path fill="#c0c0c0" stroke="black" d="M2758.88,-36C2758.88,-36 2728.88,-36 2728.88,-36 2722.88,-36 2716.88,-30 2716.88,-24 2716.88,-24 2716.88,-12 2716.88,-12 2716.88,-6 2722.88,0 2728.88,0 2728.88,0 2758.88,0 2758.88,0 2764.88,0 2770.88,-6 2770.88,-12 2770.88,-12 2770.88,-24 2770.88,-24 2770.88,-30 2764.88,-36 2758.88,-36"/>
<text text-anchor="middle" x="2743.88" y="-12.57" font-family="Helvetica,sans-Serif" font-size="14.00">(...)</text>
</g>
<!-- 2956&#45;&gt;3036 -->
<g id="edge62" class="edge">
<title>2956&#45;&gt;3036</title>
<path fill="none" stroke="black" d="M2722.21,-71.67C2725.62,-63.37 2729.21,-54.63 2732.47,-46.71"/>
<polygon fill="black" stroke="black" points="2735.66,-48.16 2736.23,-37.58 2729.19,-45.5 2735.66,-48.16"/>
</g>
</g>
</svg>
