<?xml version="1.0" encoding="UTF-8" standalone="no"?>
<!DOCTYPE svg PUBLIC "-//W3C//DTD SVG 1.1//EN"
 "http://www.w3.org/Graphics/SVG/1.1/DTD/svg11.dtd">
<!-- Generated by graphviz version 12.2.1 (20241206.2353)
 -->
<!-- Title: Tree Pages: 1 -->
<svg width="2678pt" height="579pt"
 viewBox="0.00 0.00 2678.25 579.00" xmlns="http://www.w3.org/2000/svg" xmlns:xlink="http://www.w3.org/1999/xlink">
<g id="graph0" class="graph" transform="scale(1 1) rotate(0) translate(4 575)">
<title>Tree</title>
<polygon fill="white" stroke="none" points="-4,4 -4,-575 2674.25,-575 2674.25,4 -4,4"/>
<!-- 0 -->
<g id="node1" class="node">
<title>0</title>
<path fill="#f1bb95" stroke="black" d="M1398.25,-571C1398.25,-571 1272,-571 1272,-571 1266,-571 1260,-565 1260,-559 1260,-559 1260,-512 1260,-512 1260,-506 1266,-500 1272,-500 1272,-500 1398.25,-500 1398.25,-500 1404.25,-500 1410.25,-506 1410.25,-512 1410.25,-512 1410.25,-559 1410.25,-559 1410.25,-565 1404.25,-571 1398.25,-571"/>
<text text-anchor="start" x="1295" y="-553.7" font-family="Helvetica,sans-Serif" font-size="14.00">P4_8_3 ≤ 1.5</text>
<text text-anchor="start" x="1268" y="-537.95" font-family="Helvetica,sans-Serif" font-size="14.00">squared_error = 6.489</text>
<text text-anchor="start" x="1286.75" y="-522.2" font-family="Helvetica,sans-Serif" font-size="14.00">samples = 5057</text>
<text text-anchor="start" x="1290.88" y="-506.45" font-family="Helvetica,sans-Serif" font-size="14.00">value = 11.832</text>
</g>
<!-- 1 -->
<g id="node2" class="node">
<title>1</title>
<path fill="#eeaf81" stroke="black" d="M1058.5,-464C1058.5,-464 939.75,-464 939.75,-464 933.75,-464 927.75,-458 927.75,-452 927.75,-452 927.75,-405 927.75,-405 927.75,-399 933.75,-393 939.75,-393 939.75,-393 1058.5,-393 1058.5,-393 1064.5,-393 1070.5,-399 1070.5,-405 1070.5,-405 1070.5,-452 1070.5,-452 1070.5,-458 1064.5,-464 1058.5,-464"/>
<text text-anchor="start" x="959" y="-446.7" font-family="Helvetica,sans-Serif" font-size="14.00">P4_8_2 ≤ 1.5</text>
<text text-anchor="start" x="935.75" y="-430.95" font-family="Helvetica,sans-Serif" font-size="14.00">squared_error = 5.99</text>
<text text-anchor="start" x="950.75" y="-415.2" font-family="Helvetica,sans-Serif" font-size="14.00">samples = 2475</text>
<text text-anchor="start" x="954.5" y="-399.45" font-family="Helvetica,sans-Serif" font-size="14.00">value = 12.944</text>
</g>
<!-- 0&#45;&gt;1 -->
<g id="edge1" class="edge">
<title>0&#45;&gt;1</title>
<path fill="none" stroke="black" d="M1259.72,-510.94C1206.75,-494.38 1135.93,-472.25 1081.49,-455.24"/>
<polygon fill="black" stroke="black" points="1082.86,-452 1072.27,-452.36 1080.77,-458.68 1082.86,-452"/>
<text text-anchor="middle" x="1082.43" y="-468.63" font-family="Helvetica,sans-Serif" font-size="14.00">True</text>
</g>
<!-- 200 -->
<g id="node33" class="node">
<title>200</title>
<path fill="#f4c8a8" stroke="black" d="M1734.25,-464C1734.25,-464 1608,-464 1608,-464 1602,-464 1596,-458 1596,-452 1596,-452 1596,-405 1596,-405 1596,-399 1602,-393 1608,-393 1608,-393 1734.25,-393 1734.25,-393 1740.25,-393 1746.25,-399 1746.25,-405 1746.25,-405 1746.25,-452 1746.25,-452 1746.25,-458 1740.25,-464 1734.25,-464"/>
<text text-anchor="start" x="1631" y="-446.7" font-family="Helvetica,sans-Serif" font-size="14.00">P4_8_2 ≤ 1.5</text>
<text text-anchor="start" x="1604" y="-430.95" font-family="Helvetica,sans-Serif" font-size="14.00">squared_error = 4.646</text>
<text text-anchor="start" x="1622.75" y="-415.2" font-family="Helvetica,sans-Serif" font-size="14.00">samples = 2582</text>
<text text-anchor="start" x="1626.5" y="-399.45" font-family="Helvetica,sans-Serif" font-size="14.00">value = 10.767</text>
</g>
<!-- 0&#45;&gt;200 -->
<g id="edge32" class="edge">
<title>0&#45;&gt;200</title>
<path fill="none" stroke="black" d="M1410.53,-510.94C1462.21,-494.79 1530.89,-473.32 1584.77,-456.49"/>
<polygon fill="black" stroke="black" points="1585.74,-459.85 1594.24,-453.53 1583.65,-453.17 1585.74,-459.85"/>
<text text-anchor="middle" x="1584.08" y="-469.8" font-family="Helvetica,sans-Serif" font-size="14.00">False</text>
</g>
<!-- 2 -->
<g id="node3" class="node">
<title>2</title>
<path fill="#f2be99" stroke="black" d="M558.25,-357C558.25,-357 432,-357 432,-357 426,-357 420,-351 420,-345 420,-345 420,-298 420,-298 420,-292 426,-286 432,-286 432,-286 558.25,-286 558.25,-286 564.25,-286 570.25,-292 570.25,-298 570.25,-298 570.25,-345 570.25,-345 570.25,-351 564.25,-357 558.25,-357"/>
<text text-anchor="start" x="455" y="-339.7" font-family="Helvetica,sans-Serif" font-size="14.00">P4_6_4 ≤ 1.5</text>
<text text-anchor="start" x="428" y="-323.95" font-family="Helvetica,sans-Serif" font-size="14.00">squared_error = 4.707</text>
<text text-anchor="start" x="446.75" y="-308.2" font-family="Helvetica,sans-Serif" font-size="14.00">samples = 1003</text>
<text text-anchor="start" x="450.88" y="-292.45" font-family="Helvetica,sans-Serif" font-size="14.00">value = 11.588</text>
</g>
<!-- 1&#45;&gt;2 -->
<g id="edge2" class="edge">
<title>1&#45;&gt;2</title>
<path fill="none" stroke="black" d="M927.45,-412.57C836.38,-393.6 679.34,-360.88 581.69,-340.53"/>
<polygon fill="black" stroke="black" points="582.65,-337.16 572.15,-338.55 581.23,-344.01 582.65,-337.16"/>
</g>
<!-- 95 -->
<g id="node18" class="node">
<title>95</title>
<path fill="#eca470" stroke="black" d="M1062.25,-357C1062.25,-357 936,-357 936,-357 930,-357 924,-351 924,-345 924,-345 924,-298 924,-298 924,-292 930,-286 936,-286 936,-286 1062.25,-286 1062.25,-286 1068.25,-286 1074.25,-292 1074.25,-298 1074.25,-298 1074.25,-345 1074.25,-345 1074.25,-351 1068.25,-357 1062.25,-357"/>
<text text-anchor="start" x="966.5" y="-339.7" font-family="Helvetica,sans-Serif" font-size="14.00">P4_1 ≤ 0.5</text>
<text text-anchor="start" x="932" y="-323.95" font-family="Helvetica,sans-Serif" font-size="14.00">squared_error = 4.758</text>
<text text-anchor="start" x="950.75" y="-308.2" font-family="Helvetica,sans-Serif" font-size="14.00">samples = 1472</text>
<text text-anchor="start" x="954.5" y="-292.45" font-family="Helvetica,sans-Serif" font-size="14.00">value = 13.868</text>
</g>
<!-- 1&#45;&gt;95 -->
<g id="edge17" class="edge">
<title>1&#45;&gt;95</title>
<path fill="none" stroke="black" d="M999.12,-392.54C999.12,-384.92 999.12,-376.75 999.12,-368.77"/>
<polygon fill="black" stroke="black" points="1002.63,-368.82 999.13,-358.82 995.63,-368.82 1002.63,-368.82"/>
</g>
<!-- 3 -->
<g id="node4" class="node">
<title>3</title>
<path fill="#efb287" stroke="black" d="M306.25,-250C306.25,-250 180,-250 180,-250 174,-250 168,-244 168,-238 168,-238 168,-191 168,-191 168,-185 174,-179 180,-179 180,-179 306.25,-179 306.25,-179 312.25,-179 318.25,-185 318.25,-191 318.25,-191 318.25,-238 318.25,-238 318.25,-244 312.25,-250 306.25,-250"/>
<text text-anchor="start" x="203" y="-232.7" font-family="Helvetica,sans-Serif" font-size="14.00">P4_8_1 ≤ 1.5</text>
<text text-anchor="start" x="176" y="-216.95" font-family="Helvetica,sans-Serif" font-size="14.00">squared_error = 3.987</text>
<text text-anchor="start" x="198.5" y="-201.2" font-family="Helvetica,sans-Serif" font-size="14.00">samples = 436</text>
<text text-anchor="start" x="198.5" y="-185.45" font-family="Helvetica,sans-Serif" font-size="14.00">value = 12.612</text>
</g>
<!-- 2&#45;&gt;3 -->
<g id="edge3" class="edge">
<title>2&#45;&gt;3</title>
<path fill="none" stroke="black" d="M419.52,-289C390.99,-277.11 358.33,-263.5 328.93,-251.25"/>
<polygon fill="black" stroke="black" points="330.65,-248.18 320.08,-247.56 327.96,-254.64 330.65,-248.18"/>
</g>
<!-- 48 -->
<g id="node11" class="node">
<title>48</title>
<path fill="#f4c7a8" stroke="black" d="M558.25,-250C558.25,-250 432,-250 432,-250 426,-250 420,-244 420,-238 420,-238 420,-191 420,-191 420,-185 426,-179 432,-179 432,-179 558.25,-179 558.25,-179 564.25,-179 570.25,-185 570.25,-191 570.25,-191 570.25,-238 570.25,-238 570.25,-244 564.25,-250 558.25,-250"/>
<text text-anchor="start" x="455" y="-232.7" font-family="Helvetica,sans-Serif" font-size="14.00">P4_6_1 ≤ 1.5</text>
<text text-anchor="start" x="428" y="-216.95" font-family="Helvetica,sans-Serif" font-size="14.00">squared_error = 3.836</text>
<text text-anchor="start" x="450.5" y="-201.2" font-family="Helvetica,sans-Serif" font-size="14.00">samples = 567</text>
<text text-anchor="start" x="450.5" y="-185.45" font-family="Helvetica,sans-Serif" font-size="14.00">value = 10.801</text>
</g>
<!-- 2&#45;&gt;48 -->
<g id="edge10" class="edge">
<title>2&#45;&gt;48</title>
<path fill="none" stroke="black" d="M495.12,-285.54C495.12,-277.92 495.12,-269.75 495.12,-261.77"/>
<polygon fill="black" stroke="black" points="498.63,-261.82 495.13,-251.82 491.63,-261.82 498.63,-261.82"/>
</g>
<!-- 4 -->
<g id="node5" class="node">
<title>4</title>
<path fill="#f1bc95" stroke="black" d="M138.25,-143C138.25,-143 12,-143 12,-143 6,-143 0,-137 0,-131 0,-131 0,-84 0,-84 0,-78 6,-72 12,-72 12,-72 138.25,-72 138.25,-72 144.25,-72 150.25,-78 150.25,-84 150.25,-84 150.25,-131 150.25,-131 150.25,-137 144.25,-143 138.25,-143"/>
<text text-anchor="start" x="42.5" y="-125.7" font-family="Helvetica,sans-Serif" font-size="14.00">P4_1 ≤ 0.5</text>
<text text-anchor="start" x="8" y="-109.95" font-family="Helvetica,sans-Serif" font-size="14.00">squared_error = 3.104</text>
<text text-anchor="start" x="30.5" y="-94.2" font-family="Helvetica,sans-Serif" font-size="14.00">samples = 246</text>
<text text-anchor="start" x="30.88" y="-78.45" font-family="Helvetica,sans-Serif" font-size="14.00">value = 11.816</text>
</g>
<!-- 3&#45;&gt;4 -->
<g id="edge4" class="edge">
<title>3&#45;&gt;4</title>
<path fill="none" stroke="black" d="M187.18,-178.54C172.24,-169.2 155.97,-159.03 140.56,-149.4"/>
<polygon fill="black" stroke="black" points="142.73,-146.62 132.39,-144.29 139.02,-152.56 142.73,-146.62"/>
</g>
<!-- 25 -->
<g id="node8" class="node">
<title>25</title>
<path fill="#eda774" stroke="black" d="M306.25,-143C306.25,-143 180,-143 180,-143 174,-143 168,-137 168,-131 168,-131 168,-84 168,-84 168,-78 174,-72 180,-72 180,-72 306.25,-72 306.25,-72 312.25,-72 318.25,-78 318.25,-84 318.25,-84 318.25,-131 318.25,-131 318.25,-137 312.25,-143 306.25,-143"/>
<text text-anchor="start" x="195.5" y="-125.7" font-family="Helvetica,sans-Serif" font-size="14.00">P7_9_2_2 ≤ 0.5</text>
<text text-anchor="start" x="176" y="-109.95" font-family="Helvetica,sans-Serif" font-size="14.00">squared_error = 3.247</text>
<text text-anchor="start" x="198.5" y="-94.2" font-family="Helvetica,sans-Serif" font-size="14.00">samples = 190</text>
<text text-anchor="start" x="198.5" y="-78.45" font-family="Helvetica,sans-Serif" font-size="14.00">value = 13.642</text>
</g>
<!-- 3&#45;&gt;25 -->
<g id="edge7" class="edge">
<title>3&#45;&gt;25</title>
<path fill="none" stroke="black" d="M243.12,-178.54C243.12,-170.92 243.12,-162.75 243.12,-154.77"/>
<polygon fill="black" stroke="black" points="246.63,-154.82 243.13,-144.82 239.63,-154.82 246.63,-154.82"/>
</g>
<!-- 5 -->
<g id="node6" class="node">
<title>5</title>
<path fill="#c0c0c0" stroke="black" d="M54.12,-36C54.12,-36 24.12,-36 24.12,-36 18.12,-36 12.12,-30 12.12,-24 12.12,-24 12.12,-12 12.12,-12 12.12,-6 18.12,0 24.12,0 24.12,0 54.12,0 54.12,0 60.12,0 66.12,-6 66.12,-12 66.12,-12 66.12,-24 66.12,-24 66.12,-30 60.12,-36 54.12,-36"/>
<text text-anchor="middle" x="39.12" y="-12.57" font-family="Helvetica,sans-Serif" font-size="14.00">(...)</text>
</g>
<!-- 4&#45;&gt;5 -->
<g id="edge5" class="edge">
<title>4&#45;&gt;5</title>
<path fill="none" stroke="black" d="M60.79,-71.67C57.38,-63.37 53.79,-54.63 50.53,-46.71"/>
<polygon fill="black" stroke="black" points="53.81,-45.5 46.77,-37.58 47.34,-48.16 53.81,-45.5"/>
</g>
<!-- 12 -->
<g id="node7" class="node">
<title>12</title>
<path fill="#c0c0c0" stroke="black" d="M126.12,-36C126.12,-36 96.12,-36 96.12,-36 90.12,-36 84.12,-30 84.12,-24 84.12,-24 84.12,-12 84.12,-12 84.12,-6 90.12,0 96.12,0 96.12,0 126.12,0 126.12,0 132.12,0 138.12,-6 138.12,-12 138.12,-12 138.12,-24 138.12,-24 138.12,-30 132.12,-36 126.12,-36"/>
<text text-anchor="middle" x="111.12" y="-12.57" font-family="Helvetica,sans-Serif" font-size="14.00">(...)</text>
</g>
<!-- 4&#45;&gt;12 -->
<g id="edge6" class="edge">
<title>4&#45;&gt;12</title>
<path fill="none" stroke="black" d="M89.46,-71.67C92.87,-63.37 96.46,-54.63 99.72,-46.71"/>
<polygon fill="black" stroke="black" points="102.91,-48.16 103.48,-37.58 96.44,-45.5 102.91,-48.16"/>
</g>
<!-- 26 -->
<g id="node9" class="node">
<title>26</title>
<path fill="#c0c0c0" stroke="black" d="M228.12,-36C228.12,-36 198.12,-36 198.12,-36 192.12,-36 186.12,-30 186.12,-24 186.12,-24 186.12,-12 186.12,-12 186.12,-6 192.12,0 198.12,0 198.12,0 228.12,0 228.12,0 234.12,0 240.12,-6 240.12,-12 240.12,-12 240.12,-24 240.12,-24 240.12,-30 234.12,-36 228.12,-36"/>
<text text-anchor="middle" x="213.12" y="-12.57" font-family="Helvetica,sans-Serif" font-size="14.00">(...)</text>
</g>
<!-- 25&#45;&gt;26 -->
<g id="edge8" class="edge">
<title>25&#45;&gt;26</title>
<path fill="none" stroke="black" d="M231.18,-71.67C228.37,-63.47 225.41,-54.84 222.72,-46.98"/>
<polygon fill="black" stroke="black" points="226.06,-45.94 219.51,-37.61 219.44,-48.21 226.06,-45.94"/>
</g>
<!-- 35 -->
<g id="node10" class="node">
<title>35</title>
<path fill="#c0c0c0" stroke="black" d="M300.12,-36C300.12,-36 270.12,-36 270.12,-36 264.12,-36 258.12,-30 258.12,-24 258.12,-24 258.12,-12 258.12,-12 258.12,-6 264.12,0 270.12,0 270.12,0 300.12,0 300.12,0 306.12,0 312.12,-6 312.12,-12 312.12,-12 312.12,-24 312.12,-24 312.12,-30 306.12,-36 300.12,-36"/>
<text text-anchor="middle" x="285.12" y="-12.57" font-family="Helvetica,sans-Serif" font-size="14.00">(...)</text>
</g>
<!-- 25&#45;&gt;35 -->
<g id="edge9" class="edge">
<title>25&#45;&gt;35</title>
<path fill="none" stroke="black" d="M259.85,-71.67C263.87,-63.28 268.12,-54.43 271.95,-46.44"/>
<polygon fill="black" stroke="black" points="275.05,-48.08 276.22,-37.55 268.74,-45.05 275.05,-48.08"/>
</g>
<!-- 49 -->
<g id="node12" class="node">
<title>49</title>
<path fill="#f2c19e" stroke="black" d="M474.25,-143C474.25,-143 348,-143 348,-143 342,-143 336,-137 336,-131 336,-131 336,-84 336,-84 336,-78 342,-72 348,-72 348,-72 474.25,-72 474.25,-72 480.25,-72 486.25,-78 486.25,-84 486.25,-84 486.25,-131 486.25,-131 486.25,-137 480.25,-143 474.25,-143"/>
<text text-anchor="start" x="371" y="-125.7" font-family="Helvetica,sans-Serif" font-size="14.00">P7_1_2 ≤ 2.5</text>
<text text-anchor="start" x="344" y="-109.95" font-family="Helvetica,sans-Serif" font-size="14.00">squared_error = 3.369</text>
<text text-anchor="start" x="366.5" y="-94.2" font-family="Helvetica,sans-Serif" font-size="14.00">samples = 380</text>
<text text-anchor="start" x="366.88" y="-78.45" font-family="Helvetica,sans-Serif" font-size="14.00">value = 11.355</text>
</g>
<!-- 48&#45;&gt;49 -->
<g id="edge11" class="edge">
<title>48&#45;&gt;49</title>
<path fill="none" stroke="black" d="M467.15,-178.54C460.42,-170.12 453.15,-161.03 446.14,-152.27"/>
<polygon fill="black" stroke="black" points="448.9,-150.11 439.92,-144.49 443.43,-154.49 448.9,-150.11"/>
</g>
<!-- 70 -->
<g id="node15" class="node">
<title>70</title>
<path fill="#f6d4bc" stroke="black" d="M642.25,-143C642.25,-143 516,-143 516,-143 510,-143 504,-137 504,-131 504,-131 504,-84 504,-84 504,-78 510,-72 516,-72 516,-72 642.25,-72 642.25,-72 648.25,-72 654.25,-78 654.25,-84 654.25,-84 654.25,-131 654.25,-131 654.25,-137 648.25,-143 642.25,-143"/>
<text text-anchor="start" x="539" y="-125.7" font-family="Helvetica,sans-Serif" font-size="14.00">P4_7_3 ≤ 1.5</text>
<text text-anchor="start" x="512" y="-109.95" font-family="Helvetica,sans-Serif" font-size="14.00">squared_error = 2.895</text>
<text text-anchor="start" x="534.5" y="-94.2" font-family="Helvetica,sans-Serif" font-size="14.00">samples = 187</text>
<text text-anchor="start" x="538.25" y="-78.45" font-family="Helvetica,sans-Serif" font-size="14.00">value = 9.676</text>
</g>
<!-- 48&#45;&gt;70 -->
<g id="edge14" class="edge">
<title>48&#45;&gt;70</title>
<path fill="none" stroke="black" d="M523.1,-178.54C529.83,-170.12 537.1,-161.03 544.11,-152.27"/>
<polygon fill="black" stroke="black" points="546.82,-154.49 550.33,-144.49 541.35,-150.11 546.82,-154.49"/>
</g>
<!-- 50 -->
<g id="node13" class="node">
<title>50</title>
<path fill="#c0c0c0" stroke="black" d="M398.12,-36C398.12,-36 368.12,-36 368.12,-36 362.12,-36 356.12,-30 356.12,-24 356.12,-24 356.12,-12 356.12,-12 356.12,-6 362.12,0 368.12,0 368.12,0 398.12,0 398.12,0 404.12,0 410.12,-6 410.12,-12 410.12,-12 410.12,-24 410.12,-24 410.12,-30 404.12,-36 398.12,-36"/>
<text text-anchor="middle" x="383.12" y="-12.57" font-family="Helvetica,sans-Serif" font-size="14.00">(...)</text>
</g>
<!-- 49&#45;&gt;50 -->
<g id="edge12" class="edge">
<title>49&#45;&gt;50</title>
<path fill="none" stroke="black" d="M399.98,-71.67C397.36,-63.47 394.59,-54.84 392.08,-46.98"/>
<polygon fill="black" stroke="black" points="395.47,-46.08 389.08,-37.62 388.8,-48.22 395.47,-46.08"/>
</g>
<!-- 57 -->
<g id="node14" class="node">
<title>57</title>
<path fill="#c0c0c0" stroke="black" d="M470.12,-36C470.12,-36 440.12,-36 440.12,-36 434.12,-36 428.12,-30 428.12,-24 428.12,-24 428.12,-12 428.12,-12 428.12,-6 434.12,0 440.12,0 440.12,0 470.12,0 470.12,0 476.12,0 482.12,-6 482.12,-12 482.12,-12 482.12,-24 482.12,-24 482.12,-30 476.12,-36 470.12,-36"/>
<text text-anchor="middle" x="455.12" y="-12.57" font-family="Helvetica,sans-Serif" font-size="14.00">(...)</text>
</g>
<!-- 49&#45;&gt;57 -->
<g id="edge13" class="edge">
<title>49&#45;&gt;57</title>
<path fill="none" stroke="black" d="M428.64,-71.67C432.86,-63.28 437.31,-54.43 441.33,-46.44"/>
<polygon fill="black" stroke="black" points="444.44,-48.04 445.8,-37.53 438.19,-44.9 444.44,-48.04"/>
</g>
<!-- 71 -->
<g id="node16" class="node">
<title>71</title>
<path fill="#c0c0c0" stroke="black" d="M557.12,-36C557.12,-36 527.12,-36 527.12,-36 521.12,-36 515.12,-30 515.12,-24 515.12,-24 515.12,-12 515.12,-12 515.12,-6 521.12,0 527.12,0 527.12,0 557.12,0 557.12,0 563.12,0 569.12,-6 569.12,-12 569.12,-12 569.12,-24 569.12,-24 569.12,-30 563.12,-36 557.12,-36"/>
<text text-anchor="middle" x="542.12" y="-12.57" font-family="Helvetica,sans-Serif" font-size="14.00">(...)</text>
</g>
<!-- 70&#45;&gt;71 -->
<g id="edge15" class="edge">
<title>70&#45;&gt;71</title>
<path fill="none" stroke="black" d="M564.4,-71.67C560.89,-63.37 557.19,-54.63 553.84,-46.71"/>
<polygon fill="black" stroke="black" points="557.1,-45.42 549.98,-37.58 550.65,-48.15 557.1,-45.42"/>
</g>
<!-- 84 -->
<g id="node17" class="node">
<title>84</title>
<path fill="#c0c0c0" stroke="black" d="M629.12,-36C629.12,-36 599.12,-36 599.12,-36 593.12,-36 587.12,-30 587.12,-24 587.12,-24 587.12,-12 587.12,-12 587.12,-6 593.12,0 599.12,0 599.12,0 629.12,0 629.12,0 635.12,0 641.12,-6 641.12,-12 641.12,-12 641.12,-24 641.12,-24 641.12,-30 635.12,-36 629.12,-36"/>
<text text-anchor="middle" x="614.12" y="-12.57" font-family="Helvetica,sans-Serif" font-size="14.00">(...)</text>
</g>
<!-- 70&#45;&gt;84 -->
<g id="edge16" class="edge">
<title>70&#45;&gt;84</title>
<path fill="none" stroke="black" d="M593.06,-71.67C596.38,-63.37 599.87,-54.63 603.04,-46.71"/>
<polygon fill="black" stroke="black" points="606.23,-48.17 606.69,-37.59 599.73,-45.57 606.23,-48.17"/>
</g>
<!-- 96 -->
<g id="node19" class="node">
<title>96</title>
<path fill="#e9975b" stroke="black" d="M978.25,-250C978.25,-250 852,-250 852,-250 846,-250 840,-244 840,-238 840,-238 840,-191 840,-191 840,-185 846,-179 852,-179 852,-179 978.25,-179 978.25,-179 984.25,-179 990.25,-185 990.25,-191 990.25,-191 990.25,-238 990.25,-238 990.25,-244 984.25,-250 978.25,-250"/>
<text text-anchor="start" x="875" y="-232.7" font-family="Helvetica,sans-Serif" font-size="14.00">P4_8_1 ≤ 1.5</text>
<text text-anchor="start" x="848" y="-216.95" font-family="Helvetica,sans-Serif" font-size="14.00">squared_error = 4.067</text>
<text text-anchor="start" x="870.5" y="-201.2" font-family="Helvetica,sans-Serif" font-size="14.00">samples = 552</text>
<text text-anchor="start" x="874.25" y="-185.45" font-family="Helvetica,sans-Serif" font-size="14.00">value = 15.03</text>
</g>
<!-- 95&#45;&gt;96 -->
<g id="edge18" class="edge">
<title>95&#45;&gt;96</title>
<path fill="none" stroke="black" d="M971.15,-285.54C964.42,-277.12 957.15,-268.03 950.14,-259.27"/>
<polygon fill="black" stroke="black" points="952.9,-257.11 943.92,-251.49 947.43,-261.49 952.9,-257.11"/>
</g>
<!-- 143 -->
<g id="node26" class="node">
<title>143</title>
<path fill="#eeac7d" stroke="black" d="M1146.25,-250C1146.25,-250 1020,-250 1020,-250 1014,-250 1008,-244 1008,-238 1008,-238 1008,-191 1008,-191 1008,-185 1014,-179 1020,-179 1020,-179 1146.25,-179 1146.25,-179 1152.25,-179 1158.25,-185 1158.25,-191 1158.25,-191 1158.25,-238 1158.25,-238 1158.25,-244 1152.25,-250 1146.25,-250"/>
<text text-anchor="start" x="1043" y="-232.7" font-family="Helvetica,sans-Serif" font-size="14.00">P4_8_1 ≤ 2.5</text>
<text text-anchor="start" x="1016" y="-216.95" font-family="Helvetica,sans-Serif" font-size="14.00">squared_error = 3.878</text>
<text text-anchor="start" x="1038.5" y="-201.2" font-family="Helvetica,sans-Serif" font-size="14.00">samples = 920</text>
<text text-anchor="start" x="1038.5" y="-185.45" font-family="Helvetica,sans-Serif" font-size="14.00">value = 13.171</text>
</g>
<!-- 95&#45;&gt;143 -->
<g id="edge25" class="edge">
<title>95&#45;&gt;143</title>
<path fill="none" stroke="black" d="M1027.1,-285.54C1033.83,-277.12 1041.1,-268.03 1048.11,-259.27"/>
<polygon fill="black" stroke="black" points="1050.82,-261.49 1054.33,-251.49 1045.35,-257.11 1050.82,-261.49"/>
</g>
<!-- 97 -->
<g id="node20" class="node">
<title>97</title>
<path fill="#eca470" stroke="black" d="M810.25,-143C810.25,-143 684,-143 684,-143 678,-143 672,-137 672,-131 672,-131 672,-84 672,-84 672,-78 678,-72 684,-72 684,-72 810.25,-72 810.25,-72 816.25,-72 822.25,-78 822.25,-84 822.25,-84 822.25,-131 822.25,-131 822.25,-137 816.25,-143 810.25,-143"/>
<text text-anchor="start" x="707" y="-125.7" font-family="Helvetica,sans-Serif" font-size="14.00">P4_6_1 ≤ 1.5</text>
<text text-anchor="start" x="680" y="-109.95" font-family="Helvetica,sans-Serif" font-size="14.00">squared_error = 3.086</text>
<text text-anchor="start" x="702.5" y="-94.2" font-family="Helvetica,sans-Serif" font-size="14.00">samples = 161</text>
<text text-anchor="start" x="702.5" y="-78.45" font-family="Helvetica,sans-Serif" font-size="14.00">value = 13.872</text>
</g>
<!-- 96&#45;&gt;97 -->
<g id="edge19" class="edge">
<title>96&#45;&gt;97</title>
<path fill="none" stroke="black" d="M859.18,-178.54C844.24,-169.2 827.97,-159.03 812.56,-149.4"/>
<polygon fill="black" stroke="black" points="814.73,-146.62 804.39,-144.29 811.02,-152.56 814.73,-146.62"/>
</g>
<!-- 118 -->
<g id="node23" class="node">
<title>118</title>
<path fill="#e89152" stroke="black" d="M978.25,-143C978.25,-143 852,-143 852,-143 846,-143 840,-137 840,-131 840,-131 840,-84 840,-84 840,-78 846,-72 852,-72 852,-72 978.25,-72 978.25,-72 984.25,-72 990.25,-78 990.25,-84 990.25,-84 990.25,-131 990.25,-131 990.25,-137 984.25,-143 978.25,-143"/>
<text text-anchor="start" x="875" y="-125.7" font-family="Helvetica,sans-Serif" font-size="14.00">P4_6_4 ≤ 1.5</text>
<text text-anchor="start" x="848" y="-109.95" font-family="Helvetica,sans-Serif" font-size="14.00">squared_error = 3.691</text>
<text text-anchor="start" x="870.5" y="-94.2" font-family="Helvetica,sans-Serif" font-size="14.00">samples = 391</text>
<text text-anchor="start" x="870.5" y="-78.45" font-family="Helvetica,sans-Serif" font-size="14.00">value = 15.506</text>
</g>
<!-- 96&#45;&gt;118 -->
<g id="edge22" class="edge">
<title>96&#45;&gt;118</title>
<path fill="none" stroke="black" d="M915.12,-178.54C915.12,-170.92 915.12,-162.75 915.12,-154.77"/>
<polygon fill="black" stroke="black" points="918.63,-154.82 915.13,-144.82 911.63,-154.82 918.63,-154.82"/>
</g>
<!-- 98 -->
<g id="node21" class="node">
<title>98</title>
<path fill="#c0c0c0" stroke="black" d="M708.12,-36C708.12,-36 678.12,-36 678.12,-36 672.12,-36 666.12,-30 666.12,-24 666.12,-24 666.12,-12 666.12,-12 666.12,-6 672.12,0 678.12,0 678.12,0 708.12,0 708.12,0 714.12,0 720.12,-6 720.12,-12 720.12,-12 720.12,-24 720.12,-24 720.12,-30 714.12,-36 708.12,-36"/>
<text text-anchor="middle" x="693.12" y="-12.57" font-family="Helvetica,sans-Serif" font-size="14.00">(...)</text>
</g>
<!-- 97&#45;&gt;98 -->
<g id="edge20" class="edge">
<title>97&#45;&gt;98</title>
<path fill="none" stroke="black" d="M725.63,-71.67C720.33,-63.09 714.74,-54.03 709.72,-45.89"/>
<polygon fill="black" stroke="black" points="712.75,-44.14 704.52,-37.47 706.8,-47.82 712.75,-44.14"/>
</g>
<!-- 111 -->
<g id="node22" class="node">
<title>111</title>
<path fill="#c0c0c0" stroke="black" d="M780.12,-36C780.12,-36 750.12,-36 750.12,-36 744.12,-36 738.12,-30 738.12,-24 738.12,-24 738.12,-12 738.12,-12 738.12,-6 744.12,0 750.12,0 750.12,0 780.12,0 780.12,0 786.12,0 792.12,-6 792.12,-12 792.12,-12 792.12,-24 792.12,-24 792.12,-30 786.12,-36 780.12,-36"/>
<text text-anchor="middle" x="765.12" y="-12.57" font-family="Helvetica,sans-Serif" font-size="14.00">(...)</text>
</g>
<!-- 97&#45;&gt;111 -->
<g id="edge21" class="edge">
<title>97&#45;&gt;111</title>
<path fill="none" stroke="black" d="M754.29,-71.67C755.96,-63.56 757.71,-55.04 759.31,-47.26"/>
<polygon fill="black" stroke="black" points="762.7,-48.17 761.29,-37.67 755.84,-46.75 762.7,-48.17"/>
</g>
<!-- 119 -->
<g id="node24" class="node">
<title>119</title>
<path fill="#c0c0c0" stroke="black" d="M882.12,-36C882.12,-36 852.12,-36 852.12,-36 846.12,-36 840.12,-30 840.12,-24 840.12,-24 840.12,-12 840.12,-12 840.12,-6 846.12,0 852.12,0 852.12,0 882.12,0 882.12,0 888.12,0 894.12,-6 894.12,-12 894.12,-12 894.12,-24 894.12,-24 894.12,-30 888.12,-36 882.12,-36"/>
<text text-anchor="middle" x="867.12" y="-12.57" font-family="Helvetica,sans-Serif" font-size="14.00">(...)</text>
</g>
<!-- 118&#45;&gt;119 -->
<g id="edge23" class="edge">
<title>118&#45;&gt;119</title>
<path fill="none" stroke="black" d="M896.02,-71.67C891.36,-63.18 886.45,-54.23 882.03,-46.17"/>
<polygon fill="black" stroke="black" points="885.16,-44.59 877.28,-37.51 879.02,-47.96 885.16,-44.59"/>
</g>
<!-- 132 -->
<g id="node25" class="node">
<title>132</title>
<path fill="#c0c0c0" stroke="black" d="M954.12,-36C954.12,-36 924.12,-36 924.12,-36 918.12,-36 912.12,-30 912.12,-24 912.12,-24 912.12,-12 912.12,-12 912.12,-6 918.12,0 924.12,0 924.12,0 954.12,0 954.12,0 960.12,0 966.12,-6 966.12,-12 966.12,-12 966.12,-24 966.12,-24 966.12,-30 960.12,-36 954.12,-36"/>
<text text-anchor="middle" x="939.12" y="-12.57" font-family="Helvetica,sans-Serif" font-size="14.00">(...)</text>
</g>
<!-- 118&#45;&gt;132 -->
<g id="edge24" class="edge">
<title>118&#45;&gt;132</title>
<path fill="none" stroke="black" d="M924.68,-71.67C926.9,-63.56 929.24,-55.04 931.37,-47.26"/>
<polygon fill="black" stroke="black" points="934.74,-48.21 934.01,-37.64 927.99,-46.36 934.74,-48.21"/>
</g>
<!-- 144 -->
<g id="node27" class="node">
<title>144</title>
<path fill="#f0b489" stroke="black" d="M1146.25,-143C1146.25,-143 1020,-143 1020,-143 1014,-143 1008,-137 1008,-131 1008,-131 1008,-84 1008,-84 1008,-78 1014,-72 1020,-72 1020,-72 1146.25,-72 1146.25,-72 1152.25,-72 1158.25,-78 1158.25,-84 1158.25,-84 1158.25,-131 1158.25,-131 1158.25,-137 1152.25,-143 1146.25,-143"/>
<text text-anchor="start" x="1043" y="-125.7" font-family="Helvetica,sans-Serif" font-size="14.00">P4_7_3 ≤ 1.5</text>
<text text-anchor="start" x="1016" y="-109.95" font-family="Helvetica,sans-Serif" font-size="14.00">squared_error = 3.156</text>
<text text-anchor="start" x="1038.5" y="-94.2" font-family="Helvetica,sans-Serif" font-size="14.00">samples = 530</text>
<text text-anchor="start" x="1038.5" y="-78.45" font-family="Helvetica,sans-Serif" font-size="14.00">value = 12.462</text>
</g>
<!-- 143&#45;&gt;144 -->
<g id="edge26" class="edge">
<title>143&#45;&gt;144</title>
<path fill="none" stroke="black" d="M1083.12,-178.54C1083.12,-170.92 1083.12,-162.75 1083.12,-154.77"/>
<polygon fill="black" stroke="black" points="1086.63,-154.82 1083.13,-144.82 1079.63,-154.82 1086.63,-154.82"/>
</g>
<!-- 173 -->
<g id="node30" class="node">
<title>173</title>
<path fill="#eca16b" stroke="black" d="M1314.25,-143C1314.25,-143 1188,-143 1188,-143 1182,-143 1176,-137 1176,-131 1176,-131 1176,-84 1176,-84 1176,-78 1182,-72 1188,-72 1188,-72 1314.25,-72 1314.25,-72 1320.25,-72 1326.25,-78 1326.25,-84 1326.25,-84 1326.25,-131 1326.25,-131 1326.25,-137 1320.25,-143 1314.25,-143"/>
<text text-anchor="start" x="1211" y="-125.7" font-family="Helvetica,sans-Serif" font-size="14.00">P4_6_4 ≤ 1.5</text>
<text text-anchor="start" x="1184" y="-109.95" font-family="Helvetica,sans-Serif" font-size="14.00">squared_error = 3.246</text>
<text text-anchor="start" x="1206.5" y="-94.2" font-family="Helvetica,sans-Serif" font-size="14.00">samples = 390</text>
<text text-anchor="start" x="1206.5" y="-78.45" font-family="Helvetica,sans-Serif" font-size="14.00">value = 14.135</text>
</g>
<!-- 143&#45;&gt;173 -->
<g id="edge29" class="edge">
<title>143&#45;&gt;173</title>
<path fill="none" stroke="black" d="M1139.07,-178.54C1154.01,-169.2 1170.28,-159.03 1185.69,-149.4"/>
<polygon fill="black" stroke="black" points="1187.23,-152.56 1193.86,-144.29 1183.52,-146.62 1187.23,-152.56"/>
</g>
<!-- 145 -->
<g id="node28" class="node">
<title>145</title>
<path fill="#c0c0c0" stroke="black" d="M1050.12,-36C1050.12,-36 1020.12,-36 1020.12,-36 1014.12,-36 1008.12,-30 1008.12,-24 1008.12,-24 1008.12,-12 1008.12,-12 1008.12,-6 1014.12,0 1020.12,0 1020.12,0 1050.12,0 1050.12,0 1056.12,0 1062.12,-6 1062.12,-12 1062.12,-12 1062.12,-24 1062.12,-24 1062.12,-30 1056.12,-36 1050.12,-36"/>
<text text-anchor="middle" x="1035.12" y="-12.57" font-family="Helvetica,sans-Serif" font-size="14.00">(...)</text>
</g>
<!-- 144&#45;&gt;145 -->
<g id="edge27" class="edge">
<title>144&#45;&gt;145</title>
<path fill="none" stroke="black" d="M1064.02,-71.67C1059.36,-63.18 1054.45,-54.23 1050.03,-46.17"/>
<polygon fill="black" stroke="black" points="1053.16,-44.59 1045.28,-37.51 1047.02,-47.96 1053.16,-44.59"/>
</g>
<!-- 158 -->
<g id="node29" class="node">
<title>158</title>
<path fill="#c0c0c0" stroke="black" d="M1122.12,-36C1122.12,-36 1092.12,-36 1092.12,-36 1086.12,-36 1080.12,-30 1080.12,-24 1080.12,-24 1080.12,-12 1080.12,-12 1080.12,-6 1086.12,0 1092.12,0 1092.12,0 1122.12,0 1122.12,0 1128.12,0 1134.12,-6 1134.12,-12 1134.12,-12 1134.12,-24 1134.12,-24 1134.12,-30 1128.12,-36 1122.12,-36"/>
<text text-anchor="middle" x="1107.12" y="-12.57" font-family="Helvetica,sans-Serif" font-size="14.00">(...)</text>
</g>
<!-- 144&#45;&gt;158 -->
<g id="edge28" class="edge">
<title>144&#45;&gt;158</title>
<path fill="none" stroke="black" d="M1092.68,-71.67C1094.9,-63.56 1097.24,-55.04 1099.37,-47.26"/>
<polygon fill="black" stroke="black" points="1102.74,-48.21 1102.01,-37.64 1095.99,-46.36 1102.74,-48.21"/>
</g>
<!-- 174 -->
<g id="node31" class="node">
<title>174</title>
<path fill="#c0c0c0" stroke="black" d="M1206.12,-36C1206.12,-36 1176.12,-36 1176.12,-36 1170.12,-36 1164.12,-30 1164.12,-24 1164.12,-24 1164.12,-12 1164.12,-12 1164.12,-6 1170.12,0 1176.12,0 1176.12,0 1206.12,0 1206.12,0 1212.12,0 1218.12,-6 1218.12,-12 1218.12,-12 1218.12,-24 1218.12,-24 1218.12,-30 1212.12,-36 1206.12,-36"/>
<text text-anchor="middle" x="1191.12" y="-12.57" font-family="Helvetica,sans-Serif" font-size="14.00">(...)</text>
</g>
<!-- 173&#45;&gt;174 -->
<g id="edge30" class="edge">
<title>173&#45;&gt;174</title>
<path fill="none" stroke="black" d="M1227.24,-71.67C1221.29,-62.99 1215.01,-53.83 1209.38,-45.62"/>
<polygon fill="black" stroke="black" points="1212.31,-43.7 1203.76,-37.43 1206.53,-47.66 1212.31,-43.7"/>
</g>
<!-- 187 -->
<g id="node32" class="node">
<title>187</title>
<path fill="#c0c0c0" stroke="black" d="M1278.12,-36C1278.12,-36 1248.12,-36 1248.12,-36 1242.12,-36 1236.12,-30 1236.12,-24 1236.12,-24 1236.12,-12 1236.12,-12 1236.12,-6 1242.12,0 1248.12,0 1248.12,0 1278.12,0 1278.12,0 1284.12,0 1290.12,-6 1290.12,-12 1290.12,-12 1290.12,-24 1290.12,-24 1290.12,-30 1284.12,-36 1278.12,-36"/>
<text text-anchor="middle" x="1263.12" y="-12.57" font-family="Helvetica,sans-Serif" font-size="14.00">(...)</text>
</g>
<!-- 173&#45;&gt;187 -->
<g id="edge31" class="edge">
<title>173&#45;&gt;187</title>
<path fill="none" stroke="black" d="M1255.9,-71.67C1257,-63.66 1258.16,-55.24 1259.21,-47.53"/>
<polygon fill="black" stroke="black" points="1262.67,-48.07 1260.56,-37.68 1255.74,-47.11 1262.67,-48.07"/>
</g>
<!-- 201 -->
<g id="node34" class="node">
<title>201</title>
<path fill="#f5d1b7" stroke="black" d="M1734.25,-357C1734.25,-357 1608,-357 1608,-357 1602,-357 1596,-351 1596,-345 1596,-345 1596,-298 1596,-298 1596,-292 1602,-286 1608,-286 1608,-286 1734.25,-286 1734.25,-286 1740.25,-286 1746.25,-292 1746.25,-298 1746.25,-298 1746.25,-345 1746.25,-345 1746.25,-351 1740.25,-357 1734.25,-357"/>
<text text-anchor="start" x="1631" y="-339.7" font-family="Helvetica,sans-Serif" font-size="14.00">P4_6_4 ≤ 1.5</text>
<text text-anchor="start" x="1604" y="-323.95" font-family="Helvetica,sans-Serif" font-size="14.00">squared_error = 3.774</text>
<text text-anchor="start" x="1622.75" y="-308.2" font-family="Helvetica,sans-Serif" font-size="14.00">samples = 1265</text>
<text text-anchor="start" x="1630.25" y="-292.45" font-family="Helvetica,sans-Serif" font-size="14.00">value = 9.971</text>
</g>
<!-- 200&#45;&gt;201 -->
<g id="edge33" class="edge">
<title>200&#45;&gt;201</title>
<path fill="none" stroke="black" d="M1671.12,-392.54C1671.12,-384.92 1671.12,-376.75 1671.12,-368.77"/>
<polygon fill="black" stroke="black" points="1674.63,-368.82 1671.13,-358.82 1667.63,-368.82 1674.63,-368.82"/>
</g>
<!-- 302 -->
<g id="node49" class="node">
<title>302</title>
<path fill="#f2bf9a" stroke="black" d="M2238.25,-357C2238.25,-357 2112,-357 2112,-357 2106,-357 2100,-351 2100,-345 2100,-345 2100,-298 2100,-298 2100,-292 2106,-286 2112,-286 2112,-286 2238.25,-286 2238.25,-286 2244.25,-286 2250.25,-292 2250.25,-298 2250.25,-298 2250.25,-345 2250.25,-345 2250.25,-351 2244.25,-357 2238.25,-357"/>
<text text-anchor="start" x="2135" y="-339.7" font-family="Helvetica,sans-Serif" font-size="14.00">P4_6_1 ≤ 1.5</text>
<text text-anchor="start" x="2108" y="-323.95" font-family="Helvetica,sans-Serif" font-size="14.00">squared_error = 4.291</text>
<text text-anchor="start" x="2126.75" y="-308.2" font-family="Helvetica,sans-Serif" font-size="14.00">samples = 1317</text>
<text text-anchor="start" x="2130.88" y="-292.45" font-family="Helvetica,sans-Serif" font-size="14.00">value = 11.531</text>
</g>
<!-- 200&#45;&gt;302 -->
<g id="edge48" class="edge">
<title>200&#45;&gt;302</title>
<path fill="none" stroke="black" d="M1746.58,-411.78C1838.11,-392.71 1992.08,-360.63 2088.4,-340.57"/>
<polygon fill="black" stroke="black" points="2089.01,-344.02 2098.09,-338.55 2087.58,-337.16 2089.01,-344.02"/>
</g>
<!-- 202 -->
<g id="node35" class="node">
<title>202</title>
<path fill="#f3c5a3" stroke="black" d="M1650.25,-250C1650.25,-250 1524,-250 1524,-250 1518,-250 1512,-244 1512,-238 1512,-238 1512,-191 1512,-191 1512,-185 1518,-179 1524,-179 1524,-179 1650.25,-179 1650.25,-179 1656.25,-179 1662.25,-185 1662.25,-191 1662.25,-191 1662.25,-238 1662.25,-238 1662.25,-244 1656.25,-250 1650.25,-250"/>
<text text-anchor="start" x="1547" y="-232.7" font-family="Helvetica,sans-Serif" font-size="14.00">P7_1_2 ≤ 2.5</text>
<text text-anchor="start" x="1520" y="-216.95" font-family="Helvetica,sans-Serif" font-size="14.00">squared_error = 2.925</text>
<text text-anchor="start" x="1542.5" y="-201.2" font-family="Helvetica,sans-Serif" font-size="14.00">samples = 367</text>
<text text-anchor="start" x="1542.88" y="-185.45" font-family="Helvetica,sans-Serif" font-size="14.00">value = 11.044</text>
</g>
<!-- 201&#45;&gt;202 -->
<g id="edge34" class="edge">
<title>201&#45;&gt;202</title>
<path fill="none" stroke="black" d="M1643.15,-285.54C1636.42,-277.12 1629.15,-268.03 1622.14,-259.27"/>
<polygon fill="black" stroke="black" points="1624.9,-257.11 1615.92,-251.49 1619.43,-261.49 1624.9,-257.11"/>
</g>
<!-- 239 -->
<g id="node42" class="node">
<title>239</title>
<path fill="#f7d6bf" stroke="black" d="M1818.25,-250C1818.25,-250 1692,-250 1692,-250 1686,-250 1680,-244 1680,-238 1680,-238 1680,-191 1680,-191 1680,-185 1686,-179 1692,-179 1692,-179 1818.25,-179 1818.25,-179 1824.25,-179 1830.25,-185 1830.25,-191 1830.25,-191 1830.25,-238 1830.25,-238 1830.25,-244 1824.25,-250 1818.25,-250"/>
<text text-anchor="start" x="1715" y="-232.7" font-family="Helvetica,sans-Serif" font-size="14.00">P4_7_3 ≤ 1.5</text>
<text text-anchor="start" x="1688" y="-216.95" font-family="Helvetica,sans-Serif" font-size="14.00">squared_error = 3.458</text>
<text text-anchor="start" x="1710.5" y="-201.2" font-family="Helvetica,sans-Serif" font-size="14.00">samples = 898</text>
<text text-anchor="start" x="1714.25" y="-185.45" font-family="Helvetica,sans-Serif" font-size="14.00">value = 9.532</text>
</g>
<!-- 201&#45;&gt;239 -->
<g id="edge41" class="edge">
<title>201&#45;&gt;239</title>
<path fill="none" stroke="black" d="M1699.1,-285.54C1705.83,-277.12 1713.1,-268.03 1720.11,-259.27"/>
<polygon fill="black" stroke="black" points="1722.82,-261.49 1726.33,-251.49 1717.35,-257.11 1722.82,-261.49"/>
</g>
<!-- 203 -->
<g id="node36" class="node">
<title>203</title>
<path fill="#efb084" stroke="black" d="M1482.25,-143C1482.25,-143 1356,-143 1356,-143 1350,-143 1344,-137 1344,-131 1344,-131 1344,-84 1344,-84 1344,-78 1350,-72 1356,-72 1356,-72 1482.25,-72 1482.25,-72 1488.25,-72 1494.25,-78 1494.25,-84 1494.25,-84 1494.25,-131 1494.25,-131 1494.25,-137 1488.25,-143 1482.25,-143"/>
<text text-anchor="start" x="1391" y="-125.7" font-family="Helvetica,sans-Serif" font-size="14.00">NIV ≤ 4.5</text>
<text text-anchor="start" x="1352" y="-109.95" font-family="Helvetica,sans-Serif" font-size="14.00">squared_error = 2.217</text>
<text text-anchor="start" x="1378.25" y="-94.2" font-family="Helvetica,sans-Serif" font-size="14.00">samples = 50</text>
<text text-anchor="start" x="1374.5" y="-78.45" font-family="Helvetica,sans-Serif" font-size="14.00">value = 12.787</text>
</g>
<!-- 202&#45;&gt;203 -->
<g id="edge35" class="edge">
<title>202&#45;&gt;203</title>
<path fill="none" stroke="black" d="M1531.18,-178.54C1516.24,-169.2 1499.97,-159.03 1484.56,-149.4"/>
<polygon fill="black" stroke="black" points="1486.73,-146.62 1476.39,-144.29 1483.02,-152.56 1486.73,-146.62"/>
</g>
<!-- 212 -->
<g id="node39" class="node">
<title>212</title>
<path fill="#f4c8a8" stroke="black" d="M1650.25,-143C1650.25,-143 1524,-143 1524,-143 1518,-143 1512,-137 1512,-131 1512,-131 1512,-84 1512,-84 1512,-78 1518,-72 1524,-72 1524,-72 1650.25,-72 1650.25,-72 1656.25,-72 1662.25,-78 1662.25,-84 1662.25,-84 1662.25,-131 1662.25,-131 1662.25,-137 1656.25,-143 1650.25,-143"/>
<text text-anchor="start" x="1547" y="-125.7" font-family="Helvetica,sans-Serif" font-size="14.00">P5_1_6 ≤ 0.5</text>
<text text-anchor="start" x="1520" y="-109.95" font-family="Helvetica,sans-Serif" font-size="14.00">squared_error = 2.481</text>
<text text-anchor="start" x="1542.5" y="-94.2" font-family="Helvetica,sans-Serif" font-size="14.00">samples = 317</text>
<text text-anchor="start" x="1542.5" y="-78.45" font-family="Helvetica,sans-Serif" font-size="14.00">value = 10.769</text>
</g>
<!-- 202&#45;&gt;212 -->
<g id="edge38" class="edge">
<title>202&#45;&gt;212</title>
<path fill="none" stroke="black" d="M1587.12,-178.54C1587.12,-170.92 1587.12,-162.75 1587.12,-154.77"/>
<polygon fill="black" stroke="black" points="1590.63,-154.82 1587.13,-144.82 1583.63,-154.82 1590.63,-154.82"/>
</g>
<!-- 204 -->
<g id="node37" class="node">
<title>204</title>
<path fill="#c0c0c0" stroke="black" d="M1374.12,-36C1374.12,-36 1344.12,-36 1344.12,-36 1338.12,-36 1332.12,-30 1332.12,-24 1332.12,-24 1332.12,-12 1332.12,-12 1332.12,-6 1338.12,0 1344.12,0 1344.12,0 1374.12,0 1374.12,0 1380.12,0 1386.12,-6 1386.12,-12 1386.12,-12 1386.12,-24 1386.12,-24 1386.12,-30 1380.12,-36 1374.12,-36"/>
<text text-anchor="middle" x="1359.12" y="-12.57" font-family="Helvetica,sans-Serif" font-size="14.00">(...)</text>
</g>
<!-- 203&#45;&gt;204 -->
<g id="edge36" class="edge">
<title>203&#45;&gt;204</title>
<path fill="none" stroke="black" d="M1395.24,-71.67C1389.29,-62.99 1383.01,-53.83 1377.38,-45.62"/>
<polygon fill="black" stroke="black" points="1380.31,-43.7 1371.76,-37.43 1374.53,-47.66 1380.31,-43.7"/>
</g>
<!-- 205 -->
<g id="node38" class="node">
<title>205</title>
<path fill="#c0c0c0" stroke="black" d="M1446.12,-36C1446.12,-36 1416.12,-36 1416.12,-36 1410.12,-36 1404.12,-30 1404.12,-24 1404.12,-24 1404.12,-12 1404.12,-12 1404.12,-6 1410.12,0 1416.12,0 1416.12,0 1446.12,0 1446.12,0 1452.12,0 1458.12,-6 1458.12,-12 1458.12,-12 1458.12,-24 1458.12,-24 1458.12,-30 1452.12,-36 1446.12,-36"/>
<text text-anchor="middle" x="1431.12" y="-12.57" font-family="Helvetica,sans-Serif" font-size="14.00">(...)</text>
</g>
<!-- 203&#45;&gt;205 -->
<g id="edge37" class="edge">
<title>203&#45;&gt;205</title>
<path fill="none" stroke="black" d="M1423.9,-71.67C1425,-63.66 1426.16,-55.24 1427.21,-47.53"/>
<polygon fill="black" stroke="black" points="1430.67,-48.07 1428.56,-37.68 1423.74,-47.11 1430.67,-48.07"/>
</g>
<!-- 213 -->
<g id="node40" class="node">
<title>213</title>
<path fill="#c0c0c0" stroke="black" d="M1542.12,-36C1542.12,-36 1512.12,-36 1512.12,-36 1506.12,-36 1500.12,-30 1500.12,-24 1500.12,-24 1500.12,-12 1500.12,-12 1500.12,-6 1506.12,0 1512.12,0 1512.12,0 1542.12,0 1542.12,0 1548.12,0 1554.12,-6 1554.12,-12 1554.12,-12 1554.12,-24 1554.12,-24 1554.12,-30 1548.12,-36 1542.12,-36"/>
<text text-anchor="middle" x="1527.12" y="-12.57" font-family="Helvetica,sans-Serif" font-size="14.00">(...)</text>
</g>
<!-- 212&#45;&gt;213 -->
<g id="edge39" class="edge">
<title>212&#45;&gt;213</title>
<path fill="none" stroke="black" d="M1563.24,-71.67C1557.29,-62.99 1551.01,-53.83 1545.38,-45.62"/>
<polygon fill="black" stroke="black" points="1548.31,-43.7 1539.76,-37.43 1542.53,-47.66 1548.31,-43.7"/>
</g>
<!-- 224 -->
<g id="node41" class="node">
<title>224</title>
<path fill="#c0c0c0" stroke="black" d="M1614.12,-36C1614.12,-36 1584.12,-36 1584.12,-36 1578.12,-36 1572.12,-30 1572.12,-24 1572.12,-24 1572.12,-12 1572.12,-12 1572.12,-6 1578.12,0 1584.12,0 1584.12,0 1614.12,0 1614.12,0 1620.12,0 1626.12,-6 1626.12,-12 1626.12,-12 1626.12,-24 1626.12,-24 1626.12,-30 1620.12,-36 1614.12,-36"/>
<text text-anchor="middle" x="1599.12" y="-12.57" font-family="Helvetica,sans-Serif" font-size="14.00">(...)</text>
</g>
<!-- 212&#45;&gt;224 -->
<g id="edge40" class="edge">
<title>212&#45;&gt;224</title>
<path fill="none" stroke="black" d="M1591.9,-71.67C1593,-63.66 1594.16,-55.24 1595.21,-47.53"/>
<polygon fill="black" stroke="black" points="1598.67,-48.07 1596.56,-37.68 1591.74,-47.11 1598.67,-48.07"/>
</g>
<!-- 240 -->
<g id="node43" class="node">
<title>240</title>
<path fill="#f5d0b5" stroke="black" d="M1818.25,-143C1818.25,-143 1692,-143 1692,-143 1686,-143 1680,-137 1680,-131 1680,-131 1680,-84 1680,-84 1680,-78 1686,-72 1692,-72 1692,-72 1818.25,-72 1818.25,-72 1824.25,-72 1830.25,-78 1830.25,-84 1830.25,-84 1830.25,-131 1830.25,-131 1830.25,-137 1824.25,-143 1818.25,-143"/>
<text text-anchor="start" x="1715" y="-125.7" font-family="Helvetica,sans-Serif" font-size="14.00">P4_6_1 ≤ 1.5</text>
<text text-anchor="start" x="1688" y="-109.95" font-family="Helvetica,sans-Serif" font-size="14.00">squared_error = 3.008</text>
<text text-anchor="start" x="1710.5" y="-94.2" font-family="Helvetica,sans-Serif" font-size="14.00">samples = 585</text>
<text text-anchor="start" x="1710.5" y="-78.45" font-family="Helvetica,sans-Serif" font-size="14.00">value = 10.052</text>
</g>
<!-- 239&#45;&gt;240 -->
<g id="edge42" class="edge">
<title>239&#45;&gt;240</title>
<path fill="none" stroke="black" d="M1755.12,-178.54C1755.12,-170.92 1755.12,-162.75 1755.12,-154.77"/>
<polygon fill="black" stroke="black" points="1758.63,-154.82 1755.13,-144.82 1751.63,-154.82 1758.63,-154.82"/>
</g>
<!-- 271 -->
<g id="node46" class="node">
<title>271</title>
<path fill="#f9e1d0" stroke="black" d="M1986.25,-143C1986.25,-143 1860,-143 1860,-143 1854,-143 1848,-137 1848,-131 1848,-131 1848,-84 1848,-84 1848,-78 1854,-72 1860,-72 1860,-72 1986.25,-72 1986.25,-72 1992.25,-72 1998.25,-78 1998.25,-84 1998.25,-84 1998.25,-131 1998.25,-131 1998.25,-137 1992.25,-143 1986.25,-143"/>
<text text-anchor="start" x="1883" y="-125.7" font-family="Helvetica,sans-Serif" font-size="14.00">P4_6_1 ≤ 1.5</text>
<text text-anchor="start" x="1856" y="-109.95" font-family="Helvetica,sans-Serif" font-size="14.00">squared_error = 2.849</text>
<text text-anchor="start" x="1878.5" y="-94.2" font-family="Helvetica,sans-Serif" font-size="14.00">samples = 313</text>
<text text-anchor="start" x="1886" y="-78.45" font-family="Helvetica,sans-Serif" font-size="14.00">value = 8.56</text>
</g>
<!-- 239&#45;&gt;271 -->
<g id="edge45" class="edge">
<title>239&#45;&gt;271</title>
<path fill="none" stroke="black" d="M1811.07,-178.54C1826.01,-169.2 1842.28,-159.03 1857.69,-149.4"/>
<polygon fill="black" stroke="black" points="1859.23,-152.56 1865.86,-144.29 1855.52,-146.62 1859.23,-152.56"/>
</g>
<!-- 241 -->
<g id="node44" class="node">
<title>241</title>
<path fill="#c0c0c0" stroke="black" d="M1710.12,-36C1710.12,-36 1680.12,-36 1680.12,-36 1674.12,-36 1668.12,-30 1668.12,-24 1668.12,-24 1668.12,-12 1668.12,-12 1668.12,-6 1674.12,0 1680.12,0 1680.12,0 1710.12,0 1710.12,0 1716.12,0 1722.12,-6 1722.12,-12 1722.12,-12 1722.12,-24 1722.12,-24 1722.12,-30 1716.12,-36 1710.12,-36"/>
<text text-anchor="middle" x="1695.12" y="-12.57" font-family="Helvetica,sans-Serif" font-size="14.00">(...)</text>
</g>
<!-- 240&#45;&gt;241 -->
<g id="edge43" class="edge">
<title>240&#45;&gt;241</title>
<path fill="none" stroke="black" d="M1731.24,-71.67C1725.29,-62.99 1719.01,-53.83 1713.38,-45.62"/>
<polygon fill="black" stroke="black" points="1716.31,-43.7 1707.76,-37.43 1710.53,-47.66 1716.31,-43.7"/>
</g>
<!-- 256 -->
<g id="node45" class="node">
<title>256</title>
<path fill="#c0c0c0" stroke="black" d="M1782.12,-36C1782.12,-36 1752.12,-36 1752.12,-36 1746.12,-36 1740.12,-30 1740.12,-24 1740.12,-24 1740.12,-12 1740.12,-12 1740.12,-6 1746.12,0 1752.12,0 1752.12,0 1782.12,0 1782.12,0 1788.12,0 1794.12,-6 1794.12,-12 1794.12,-12 1794.12,-24 1794.12,-24 1794.12,-30 1788.12,-36 1782.12,-36"/>
<text text-anchor="middle" x="1767.12" y="-12.57" font-family="Helvetica,sans-Serif" font-size="14.00">(...)</text>
</g>
<!-- 240&#45;&gt;256 -->
<g id="edge44" class="edge">
<title>240&#45;&gt;256</title>
<path fill="none" stroke="black" d="M1759.9,-71.67C1761,-63.66 1762.16,-55.24 1763.21,-47.53"/>
<polygon fill="black" stroke="black" points="1766.67,-48.07 1764.56,-37.68 1759.74,-47.11 1766.67,-48.07"/>
</g>
<!-- 272 -->
<g id="node47" class="node">
<title>272</title>
<path fill="#c0c0c0" stroke="black" d="M1878.12,-36C1878.12,-36 1848.12,-36 1848.12,-36 1842.12,-36 1836.12,-30 1836.12,-24 1836.12,-24 1836.12,-12 1836.12,-12 1836.12,-6 1842.12,0 1848.12,0 1848.12,0 1878.12,0 1878.12,0 1884.12,0 1890.12,-6 1890.12,-12 1890.12,-12 1890.12,-24 1890.12,-24 1890.12,-30 1884.12,-36 1878.12,-36"/>
<text text-anchor="middle" x="1863.12" y="-12.57" font-family="Helvetica,sans-Serif" font-size="14.00">(...)</text>
</g>
<!-- 271&#45;&gt;272 -->
<g id="edge46" class="edge">
<title>271&#45;&gt;272</title>
<path fill="none" stroke="black" d="M1899.24,-71.67C1893.29,-62.99 1887.01,-53.83 1881.38,-45.62"/>
<polygon fill="black" stroke="black" points="1884.31,-43.7 1875.76,-37.43 1878.53,-47.66 1884.31,-43.7"/>
</g>
<!-- 287 -->
<g id="node48" class="node">
<title>287</title>
<path fill="#c0c0c0" stroke="black" d="M1950.12,-36C1950.12,-36 1920.12,-36 1920.12,-36 1914.12,-36 1908.12,-30 1908.12,-24 1908.12,-24 1908.12,-12 1908.12,-12 1908.12,-6 1914.12,0 1920.12,0 1920.12,0 1950.12,0 1950.12,0 1956.12,0 1962.12,-6 1962.12,-12 1962.12,-12 1962.12,-24 1962.12,-24 1962.12,-30 1956.12,-36 1950.12,-36"/>
<text text-anchor="middle" x="1935.12" y="-12.57" font-family="Helvetica,sans-Serif" font-size="14.00">(...)</text>
</g>
<!-- 271&#45;&gt;287 -->
<g id="edge47" class="edge">
<title>271&#45;&gt;287</title>
<path fill="none" stroke="black" d="M1927.9,-71.67C1929,-63.66 1930.16,-55.24 1931.21,-47.53"/>
<polygon fill="black" stroke="black" points="1934.67,-48.07 1932.56,-37.68 1927.74,-47.11 1934.67,-48.07"/>
</g>
<!-- 303 -->
<g id="node50" class="node">
<title>303</title>
<path fill="#f0b890" stroke="black" d="M2238.25,-250C2238.25,-250 2112,-250 2112,-250 2106,-250 2100,-244 2100,-238 2100,-238 2100,-191 2100,-191 2100,-185 2106,-179 2112,-179 2112,-179 2238.25,-179 2238.25,-179 2244.25,-179 2250.25,-185 2250.25,-191 2250.25,-191 2250.25,-238 2250.25,-238 2250.25,-244 2244.25,-250 2238.25,-250"/>
<text text-anchor="start" x="2135" y="-232.7" font-family="Helvetica,sans-Serif" font-size="14.00">P4_8_1 ≤ 2.5</text>
<text text-anchor="start" x="2108" y="-216.95" font-family="Helvetica,sans-Serif" font-size="14.00">squared_error = 3.586</text>
<text text-anchor="start" x="2130.5" y="-201.2" font-family="Helvetica,sans-Serif" font-size="14.00">samples = 856</text>
<text text-anchor="start" x="2130.5" y="-185.45" font-family="Helvetica,sans-Serif" font-size="14.00">value = 12.098</text>
</g>
<!-- 302&#45;&gt;303 -->
<g id="edge49" class="edge">
<title>302&#45;&gt;303</title>
<path fill="none" stroke="black" d="M2175.12,-285.54C2175.12,-277.92 2175.12,-269.75 2175.12,-261.77"/>
<polygon fill="black" stroke="black" points="2178.63,-261.82 2175.13,-251.82 2171.63,-261.82 2178.63,-261.82"/>
</g>
<!-- 362 -->
<g id="node57" class="node">
<title>362</title>
<path fill="#f4cbad" stroke="black" d="M2490.25,-250C2490.25,-250 2364,-250 2364,-250 2358,-250 2352,-244 2352,-238 2352,-238 2352,-191 2352,-191 2352,-185 2358,-179 2364,-179 2364,-179 2490.25,-179 2490.25,-179 2496.25,-179 2502.25,-185 2502.25,-191 2502.25,-191 2502.25,-238 2502.25,-238 2502.25,-244 2496.25,-250 2490.25,-250"/>
<text text-anchor="start" x="2387" y="-232.7" font-family="Helvetica,sans-Serif" font-size="14.00">P4_6_2 ≤ 1.5</text>
<text text-anchor="start" x="2360" y="-216.95" font-family="Helvetica,sans-Serif" font-size="14.00">squared_error = 3.897</text>
<text text-anchor="start" x="2382.5" y="-201.2" font-family="Helvetica,sans-Serif" font-size="14.00">samples = 461</text>
<text text-anchor="start" x="2382.5" y="-185.45" font-family="Helvetica,sans-Serif" font-size="14.00">value = 10.479</text>
</g>
<!-- 302&#45;&gt;362 -->
<g id="edge56" class="edge">
<title>302&#45;&gt;362</title>
<path fill="none" stroke="black" d="M2250.73,-289C2279.26,-277.11 2311.92,-263.5 2341.32,-251.25"/>
<polygon fill="black" stroke="black" points="2342.29,-254.64 2350.17,-247.56 2339.6,-248.18 2342.29,-254.64"/>
</g>
<!-- 304 -->
<g id="node51" class="node">
<title>304</title>
<path fill="#f2c09b" stroke="black" d="M2154.25,-143C2154.25,-143 2028,-143 2028,-143 2022,-143 2016,-137 2016,-131 2016,-131 2016,-84 2016,-84 2016,-78 2022,-72 2028,-72 2028,-72 2154.25,-72 2154.25,-72 2160.25,-72 2166.25,-78 2166.25,-84 2166.25,-84 2166.25,-131 2166.25,-131 2166.25,-137 2160.25,-143 2154.25,-143"/>
<text text-anchor="start" x="2047.62" y="-125.7" font-family="Helvetica,sans-Serif" font-size="14.00">P11_3_9 ≤ 0.5</text>
<text text-anchor="start" x="2024" y="-109.95" font-family="Helvetica,sans-Serif" font-size="14.00">squared_error = 2.912</text>
<text text-anchor="start" x="2046.5" y="-94.2" font-family="Helvetica,sans-Serif" font-size="14.00">samples = 521</text>
<text text-anchor="start" x="2046.88" y="-78.45" font-family="Helvetica,sans-Serif" font-size="14.00">value = 11.477</text>
</g>
<!-- 303&#45;&gt;304 -->
<g id="edge50" class="edge">
<title>303&#45;&gt;304</title>
<path fill="none" stroke="black" d="M2147.15,-178.54C2140.42,-170.12 2133.15,-161.03 2126.14,-152.27"/>
<polygon fill="black" stroke="black" points="2128.9,-150.11 2119.92,-144.49 2123.43,-154.49 2128.9,-150.11"/>
</g>
<!-- 333 -->
<g id="node54" class="node">
<title>333</title>
<path fill="#eead7f" stroke="black" d="M2322.25,-143C2322.25,-143 2196,-143 2196,-143 2190,-143 2184,-137 2184,-131 2184,-131 2184,-84 2184,-84 2184,-78 2190,-72 2196,-72 2196,-72 2322.25,-72 2322.25,-72 2328.25,-72 2334.25,-78 2334.25,-84 2334.25,-84 2334.25,-131 2334.25,-131 2334.25,-137 2328.25,-143 2322.25,-143"/>
<text text-anchor="start" x="2219" y="-125.7" font-family="Helvetica,sans-Serif" font-size="14.00">P4_6_4 ≤ 1.5</text>
<text text-anchor="start" x="2192" y="-109.95" font-family="Helvetica,sans-Serif" font-size="14.00">squared_error = 3.104</text>
<text text-anchor="start" x="2214.5" y="-94.2" font-family="Helvetica,sans-Serif" font-size="14.00">samples = 335</text>
<text text-anchor="start" x="2214.5" y="-78.45" font-family="Helvetica,sans-Serif" font-size="14.00">value = 13.063</text>
</g>
<!-- 303&#45;&gt;333 -->
<g id="edge53" class="edge">
<title>303&#45;&gt;333</title>
<path fill="none" stroke="black" d="M2203.1,-178.54C2209.83,-170.12 2217.1,-161.03 2224.11,-152.27"/>
<polygon fill="black" stroke="black" points="2226.82,-154.49 2230.33,-144.49 2221.35,-150.11 2226.82,-154.49"/>
</g>
<!-- 305 -->
<g id="node52" class="node">
<title>305</title>
<path fill="#c0c0c0" stroke="black" d="M2046.12,-36C2046.12,-36 2016.12,-36 2016.12,-36 2010.12,-36 2004.12,-30 2004.12,-24 2004.12,-24 2004.12,-12 2004.12,-12 2004.12,-6 2010.12,0 2016.12,0 2016.12,0 2046.12,0 2046.12,0 2052.12,0 2058.12,-6 2058.12,-12 2058.12,-12 2058.12,-24 2058.12,-24 2058.12,-30 2052.12,-36 2046.12,-36"/>
<text text-anchor="middle" x="2031.12" y="-12.57" font-family="Helvetica,sans-Serif" font-size="14.00">(...)</text>
</g>
<!-- 304&#45;&gt;305 -->
<g id="edge51" class="edge">
<title>304&#45;&gt;305</title>
<path fill="none" stroke="black" d="M2067.24,-71.67C2061.29,-62.99 2055.01,-53.83 2049.38,-45.62"/>
<polygon fill="black" stroke="black" points="2052.31,-43.7 2043.76,-37.43 2046.53,-47.66 2052.31,-43.7"/>
</g>
<!-- 320 -->
<g id="node53" class="node">
<title>320</title>
<path fill="#c0c0c0" stroke="black" d="M2118.12,-36C2118.12,-36 2088.12,-36 2088.12,-36 2082.12,-36 2076.12,-30 2076.12,-24 2076.12,-24 2076.12,-12 2076.12,-12 2076.12,-6 2082.12,0 2088.12,0 2088.12,0 2118.12,0 2118.12,0 2124.12,0 2130.12,-6 2130.12,-12 2130.12,-12 2130.12,-24 2130.12,-24 2130.12,-30 2124.12,-36 2118.12,-36"/>
<text text-anchor="middle" x="2103.12" y="-12.57" font-family="Helvetica,sans-Serif" font-size="14.00">(...)</text>
</g>
<!-- 304&#45;&gt;320 -->
<g id="edge52" class="edge">
<title>304&#45;&gt;320</title>
<path fill="none" stroke="black" d="M2095.9,-71.67C2097,-63.66 2098.16,-55.24 2099.21,-47.53"/>
<polygon fill="black" stroke="black" points="2102.67,-48.07 2100.56,-37.68 2095.74,-47.11 2102.67,-48.07"/>
</g>
<!-- 334 -->
<g id="node55" class="node">
<title>334</title>
<path fill="#c0c0c0" stroke="black" d="M2214.12,-36C2214.12,-36 2184.12,-36 2184.12,-36 2178.12,-36 2172.12,-30 2172.12,-24 2172.12,-24 2172.12,-12 2172.12,-12 2172.12,-6 2178.12,0 2184.12,0 2184.12,0 2214.12,0 2214.12,0 2220.12,0 2226.12,-6 2226.12,-12 2226.12,-12 2226.12,-24 2226.12,-24 2226.12,-30 2220.12,-36 2214.12,-36"/>
<text text-anchor="middle" x="2199.12" y="-12.57" font-family="Helvetica,sans-Serif" font-size="14.00">(...)</text>
</g>
<!-- 333&#45;&gt;334 -->
<g id="edge54" class="edge">
<title>333&#45;&gt;334</title>
<path fill="none" stroke="black" d="M2235.24,-71.67C2229.29,-62.99 2223.01,-53.83 2217.38,-45.62"/>
<polygon fill="black" stroke="black" points="2220.31,-43.7 2211.76,-37.43 2214.53,-47.66 2220.31,-43.7"/>
</g>
<!-- 347 -->
<g id="node56" class="node">
<title>347</title>
<path fill="#c0c0c0" stroke="black" d="M2286.12,-36C2286.12,-36 2256.12,-36 2256.12,-36 2250.12,-36 2244.12,-30 2244.12,-24 2244.12,-24 2244.12,-12 2244.12,-12 2244.12,-6 2250.12,0 2256.12,0 2256.12,0 2286.12,0 2286.12,0 2292.12,0 2298.12,-6 2298.12,-12 2298.12,-12 2298.12,-24 2298.12,-24 2298.12,-30 2292.12,-36 2286.12,-36"/>
<text text-anchor="middle" x="2271.12" y="-12.57" font-family="Helvetica,sans-Serif" font-size="14.00">(...)</text>
</g>
<!-- 333&#45;&gt;347 -->
<g id="edge55" class="edge">
<title>333&#45;&gt;347</title>
<path fill="none" stroke="black" d="M2263.9,-71.67C2265,-63.66 2266.16,-55.24 2267.21,-47.53"/>
<polygon fill="black" stroke="black" points="2270.67,-48.07 2268.56,-37.68 2263.74,-47.11 2270.67,-48.07"/>
</g>
<!-- 363 -->
<g id="node58" class="node">
<title>363</title>
<path fill="#f3c3a1" stroke="black" d="M2490.25,-143C2490.25,-143 2364,-143 2364,-143 2358,-143 2352,-137 2352,-131 2352,-131 2352,-84 2352,-84 2352,-78 2358,-72 2364,-72 2364,-72 2490.25,-72 2490.25,-72 2496.25,-72 2502.25,-78 2502.25,-84 2502.25,-84 2502.25,-131 2502.25,-131 2502.25,-137 2496.25,-143 2490.25,-143"/>
<text text-anchor="start" x="2387" y="-125.7" font-family="Helvetica,sans-Serif" font-size="14.00">P4_2_5 ≤ 0.5</text>
<text text-anchor="start" x="2360" y="-109.95" font-family="Helvetica,sans-Serif" font-size="14.00">squared_error = 3.168</text>
<text text-anchor="start" x="2382.5" y="-94.2" font-family="Helvetica,sans-Serif" font-size="14.00">samples = 260</text>
<text text-anchor="start" x="2382.88" y="-78.45" font-family="Helvetica,sans-Serif" font-size="14.00">value = 11.182</text>
</g>
<!-- 362&#45;&gt;363 -->
<g id="edge57" class="edge">
<title>362&#45;&gt;363</title>
<path fill="none" stroke="black" d="M2427.12,-178.54C2427.12,-170.92 2427.12,-162.75 2427.12,-154.77"/>
<polygon fill="black" stroke="black" points="2430.63,-154.82 2427.13,-144.82 2423.63,-154.82 2430.63,-154.82"/>
</g>
<!-- 384 -->
<g id="node61" class="node">
<title>384</title>
<path fill="#f6d6be" stroke="black" d="M2658.25,-143C2658.25,-143 2532,-143 2532,-143 2526,-143 2520,-137 2520,-131 2520,-131 2520,-84 2520,-84 2520,-78 2526,-72 2532,-72 2532,-72 2658.25,-72 2658.25,-72 2664.25,-72 2670.25,-78 2670.25,-84 2670.25,-84 2670.25,-131 2670.25,-131 2670.25,-137 2664.25,-143 2658.25,-143"/>
<text text-anchor="start" x="2555" y="-125.7" font-family="Helvetica,sans-Serif" font-size="14.00">P4_7_3 ≤ 1.5</text>
<text text-anchor="start" x="2528" y="-109.95" font-family="Helvetica,sans-Serif" font-size="14.00">squared_error = 3.372</text>
<text text-anchor="start" x="2550.5" y="-94.2" font-family="Helvetica,sans-Serif" font-size="14.00">samples = 201</text>
<text text-anchor="start" x="2554.25" y="-78.45" font-family="Helvetica,sans-Serif" font-size="14.00">value = 9.569</text>
</g>
<!-- 362&#45;&gt;384 -->
<g id="edge60" class="edge">
<title>362&#45;&gt;384</title>
<path fill="none" stroke="black" d="M2483.07,-178.54C2498.01,-169.2 2514.28,-159.03 2529.69,-149.4"/>
<polygon fill="black" stroke="black" points="2531.23,-152.56 2537.86,-144.29 2527.52,-146.62 2531.23,-152.56"/>
</g>
<!-- 364 -->
<g id="node59" class="node">
<title>364</title>
<path fill="#c0c0c0" stroke="black" d="M2400.12,-36C2400.12,-36 2370.12,-36 2370.12,-36 2364.12,-36 2358.12,-30 2358.12,-24 2358.12,-24 2358.12,-12 2358.12,-12 2358.12,-6 2364.12,0 2370.12,0 2370.12,0 2400.12,0 2400.12,0 2406.12,0 2412.12,-6 2412.12,-12 2412.12,-12 2412.12,-24 2412.12,-24 2412.12,-30 2406.12,-36 2400.12,-36"/>
<text text-anchor="middle" x="2385.12" y="-12.57" font-family="Helvetica,sans-Serif" font-size="14.00">(...)</text>
</g>
<!-- 363&#45;&gt;364 -->
<g id="edge58" class="edge">
<title>363&#45;&gt;364</title>
<path fill="none" stroke="black" d="M2410.4,-71.67C2406.38,-63.28 2402.13,-54.43 2398.3,-46.44"/>
<polygon fill="black" stroke="black" points="2401.51,-45.05 2394.03,-37.55 2395.2,-48.08 2401.51,-45.05"/>
</g>
<!-- 369 -->
<g id="node60" class="node">
<title>369</title>
<path fill="#c0c0c0" stroke="black" d="M2472.12,-36C2472.12,-36 2442.12,-36 2442.12,-36 2436.12,-36 2430.12,-30 2430.12,-24 2430.12,-24 2430.12,-12 2430.12,-12 2430.12,-6 2436.12,0 2442.12,0 2442.12,0 2472.12,0 2472.12,0 2478.12,0 2484.12,-6 2484.12,-12 2484.12,-12 2484.12,-24 2484.12,-24 2484.12,-30 2478.12,-36 2472.12,-36"/>
<text text-anchor="middle" x="2457.12" y="-12.57" font-family="Helvetica,sans-Serif" font-size="14.00">(...)</text>
</g>
<!-- 363&#45;&gt;369 -->
<g id="edge59" class="edge">
<title>363&#45;&gt;369</title>
<path fill="none" stroke="black" d="M2439.07,-71.67C2441.88,-63.47 2444.84,-54.84 2447.53,-46.98"/>
<polygon fill="black" stroke="black" points="2450.81,-48.21 2450.74,-37.61 2444.19,-45.94 2450.81,-48.21"/>
</g>
<!-- 385 -->
<g id="node62" class="node">
<title>385</title>
<path fill="#c0c0c0" stroke="black" d="M2574.12,-36C2574.12,-36 2544.12,-36 2544.12,-36 2538.12,-36 2532.12,-30 2532.12,-24 2532.12,-24 2532.12,-12 2532.12,-12 2532.12,-6 2538.12,0 2544.12,0 2544.12,0 2574.12,0 2574.12,0 2580.12,0 2586.12,-6 2586.12,-12 2586.12,-12 2586.12,-24 2586.12,-24 2586.12,-30 2580.12,-36 2574.12,-36"/>
<text text-anchor="middle" x="2559.12" y="-12.57" font-family="Helvetica,sans-Serif" font-size="14.00">(...)</text>
</g>
<!-- 384&#45;&gt;385 -->
<g id="edge61" class="edge">
<title>384&#45;&gt;385</title>
<path fill="none" stroke="black" d="M2580.79,-71.67C2577.38,-63.37 2573.79,-54.63 2570.53,-46.71"/>
<polygon fill="black" stroke="black" points="2573.81,-45.5 2566.77,-37.58 2567.34,-48.16 2573.81,-45.5"/>
</g>
<!-- 398 -->
<g id="node63" class="node">
<title>398</title>
<path fill="#c0c0c0" stroke="black" d="M2646.12,-36C2646.12,-36 2616.12,-36 2616.12,-36 2610.12,-36 2604.12,-30 2604.12,-24 2604.12,-24 2604.12,-12 2604.12,-12 2604.12,-6 2610.12,0 2616.12,0 2616.12,0 2646.12,0 2646.12,0 2652.12,0 2658.12,-6 2658.12,-12 2658.12,-12 2658.12,-24 2658.12,-24 2658.12,-30 2652.12,-36 2646.12,-36"/>
<text text-anchor="middle" x="2631.12" y="-12.57" font-family="Helvetica,sans-Serif" font-size="14.00">(...)</text>
</g>
<!-- 384&#45;&gt;398 -->
<g id="edge62" class="edge">
<title>384&#45;&gt;398</title>
<path fill="none" stroke="black" d="M2609.46,-71.67C2612.87,-63.37 2616.46,-54.63 2619.72,-46.71"/>
<polygon fill="black" stroke="black" points="2622.91,-48.16 2623.48,-37.58 2616.44,-45.5 2622.91,-48.16"/>
</g>
</g>
</svg>
