<?xml version="1.0" encoding="UTF-8" standalone="no"?>
<!DOCTYPE svg PUBLIC "-//W3C//DTD SVG 1.1//EN"
 "http://www.w3.org/Graphics/SVG/1.1/DTD/svg11.dtd">
<!-- Generated by graphviz version 12.2.1 (20241206.2353)
 -->
<!-- Title: Tree Pages: 1 -->
<svg width="2646pt" height="579pt"
 viewBox="0.00 0.00 2646.25 579.00" xmlns="http://www.w3.org/2000/svg" xmlns:xlink="http://www.w3.org/1999/xlink">
<g id="graph0" class="graph" transform="scale(1 1) rotate(0) translate(4 575)">
<title>Tree</title>
<polygon fill="white" stroke="none" points="-4,4 -4,-575 2642.25,-575 2642.25,4 -4,4"/>
<!-- 0 -->
<g id="node1" class="node">
<title>0</title>
<path fill="#f2bf9a" stroke="black" d="M1456.5,-571C1456.5,-571 1337.75,-571 1337.75,-571 1331.75,-571 1325.75,-565 1325.75,-559 1325.75,-559 1325.75,-512 1325.75,-512 1325.75,-506 1331.75,-500 1337.75,-500 1337.75,-500 1456.5,-500 1456.5,-500 1462.5,-500 1468.5,-506 1468.5,-512 1468.5,-512 1468.5,-559 1468.5,-559 1468.5,-565 1462.5,-571 1456.5,-571"/>
<text text-anchor="start" x="1357" y="-553.7" font-family="Helvetica,sans-Serif" font-size="14.00">P4_8_2 ≤ 1.5</text>
<text text-anchor="start" x="1333.75" y="-537.95" font-family="Helvetica,sans-Serif" font-size="14.00">squared_error = 6.78</text>
<text text-anchor="start" x="1348.75" y="-522.2" font-family="Helvetica,sans-Serif" font-size="14.00">samples = 5047</text>
<text text-anchor="start" x="1352.88" y="-506.45" font-family="Helvetica,sans-Serif" font-size="14.00">value = 11.693</text>
</g>
<!-- 1 -->
<g id="node2" class="node">
<title>1</title>
<path fill="#f5cdb0" stroke="black" d="M1034.75,-464C1034.75,-464 923.5,-464 923.5,-464 917.5,-464 911.5,-458 911.5,-452 911.5,-452 911.5,-405 911.5,-405 911.5,-399 917.5,-393 923.5,-393 923.5,-393 1034.75,-393 1034.75,-393 1040.75,-393 1046.75,-399 1046.75,-405 1046.75,-405 1046.75,-452 1046.75,-452 1046.75,-458 1040.75,-464 1034.75,-464"/>
<text text-anchor="start" x="939" y="-446.7" font-family="Helvetica,sans-Serif" font-size="14.00">P4_6_4 ≤ 1.5</text>
<text text-anchor="start" x="919.5" y="-430.95" font-family="Helvetica,sans-Serif" font-size="14.00">squared_error = 4.7</text>
<text text-anchor="start" x="930.75" y="-415.2" font-family="Helvetica,sans-Serif" font-size="14.00">samples = 2275</text>
<text text-anchor="start" x="934.5" y="-399.45" font-family="Helvetica,sans-Serif" font-size="14.00">value = 10.382</text>
</g>
<!-- 0&#45;&gt;1 -->
<g id="edge1" class="edge">
<title>0&#45;&gt;1</title>
<path fill="none" stroke="black" d="M1325.27,-516.45C1250.85,-497.76 1134.89,-468.63 1057.99,-449.31"/>
<polygon fill="black" stroke="black" points="1058.95,-445.94 1048.4,-446.9 1057.25,-452.73 1058.95,-445.94"/>
<text text-anchor="middle" x="1059.77" y="-462.56" font-family="Helvetica,sans-Serif" font-size="14.00">True</text>
</g>
<!-- 188 -->
<g id="node33" class="node">
<title>188</title>
<path fill="#efb387" stroke="black" d="M1710.25,-464C1710.25,-464 1584,-464 1584,-464 1578,-464 1572,-458 1572,-452 1572,-452 1572,-405 1572,-405 1572,-399 1578,-393 1584,-393 1584,-393 1710.25,-393 1710.25,-393 1716.25,-393 1722.25,-399 1722.25,-405 1722.25,-405 1722.25,-452 1722.25,-452 1722.25,-458 1716.25,-464 1710.25,-464"/>
<text text-anchor="start" x="1607" y="-446.7" font-family="Helvetica,sans-Serif" font-size="14.00">P4_8_3 ≤ 1.5</text>
<text text-anchor="start" x="1580" y="-430.95" font-family="Helvetica,sans-Serif" font-size="14.00">squared_error = 5.916</text>
<text text-anchor="start" x="1598.75" y="-415.2" font-family="Helvetica,sans-Serif" font-size="14.00">samples = 2772</text>
<text text-anchor="start" x="1606.25" y="-399.45" font-family="Helvetica,sans-Serif" font-size="14.00">value = 12.77</text>
</g>
<!-- 0&#45;&gt;188 -->
<g id="edge32" class="edge">
<title>0&#45;&gt;188</title>
<path fill="none" stroke="black" d="M1468.76,-504.41C1497.55,-492.32 1530.98,-478.28 1561.06,-465.65"/>
<polygon fill="black" stroke="black" points="1562.29,-468.93 1570.16,-461.83 1559.58,-462.47 1562.29,-468.93"/>
<text text-anchor="middle" x="1562.1" y="-478.96" font-family="Helvetica,sans-Serif" font-size="14.00">False</text>
</g>
<!-- 2 -->
<g id="node3" class="node">
<title>2</title>
<path fill="#f2c19d" stroke="black" d="M544.5,-357C544.5,-357 425.75,-357 425.75,-357 419.75,-357 413.75,-351 413.75,-345 413.75,-345 413.75,-298 413.75,-298 413.75,-292 419.75,-286 425.75,-286 425.75,-286 544.5,-286 544.5,-286 550.5,-286 556.5,-292 556.5,-298 556.5,-298 556.5,-345 556.5,-345 556.5,-351 550.5,-357 544.5,-357"/>
<text text-anchor="start" x="445" y="-339.7" font-family="Helvetica,sans-Serif" font-size="14.00">P4_8_3 ≤ 1.5</text>
<text text-anchor="start" x="421.75" y="-323.95" font-family="Helvetica,sans-Serif" font-size="14.00">squared_error = 4.12</text>
<text text-anchor="start" x="440.5" y="-308.2" font-family="Helvetica,sans-Serif" font-size="14.00">samples = 892</text>
<text text-anchor="start" x="440.88" y="-292.45" font-family="Helvetica,sans-Serif" font-size="14.00">value = 11.478</text>
</g>
<!-- 1&#45;&gt;2 -->
<g id="edge2" class="edge">
<title>1&#45;&gt;2</title>
<path fill="none" stroke="black" d="M911.21,-413.07C821.67,-394.03 664.21,-360.57 567.83,-340.08"/>
<polygon fill="black" stroke="black" points="568.67,-336.68 558.16,-338.02 567.21,-343.53 568.67,-336.68"/>
</g>
<!-- 89 -->
<g id="node18" class="node">
<title>89</title>
<path fill="#f6d4bc" stroke="black" d="M1034.75,-357C1034.75,-357 923.5,-357 923.5,-357 917.5,-357 911.5,-351 911.5,-345 911.5,-345 911.5,-298 911.5,-298 911.5,-292 917.5,-286 923.5,-286 923.5,-286 1034.75,-286 1034.75,-286 1040.75,-286 1046.75,-292 1046.75,-298 1046.75,-298 1046.75,-345 1046.75,-345 1046.75,-351 1040.75,-357 1034.75,-357"/>
<text text-anchor="start" x="939" y="-339.7" font-family="Helvetica,sans-Serif" font-size="14.00">P4_7_2 ≤ 1.5</text>
<text text-anchor="start" x="919.5" y="-323.95" font-family="Helvetica,sans-Serif" font-size="14.00">squared_error = 3.8</text>
<text text-anchor="start" x="930.75" y="-308.2" font-family="Helvetica,sans-Serif" font-size="14.00">samples = 1383</text>
<text text-anchor="start" x="938.25" y="-292.45" font-family="Helvetica,sans-Serif" font-size="14.00">value = 9.675</text>
</g>
<!-- 1&#45;&gt;89 -->
<g id="edge17" class="edge">
<title>1&#45;&gt;89</title>
<path fill="none" stroke="black" d="M979.12,-392.54C979.12,-384.92 979.12,-376.75 979.12,-368.77"/>
<polygon fill="black" stroke="black" points="982.63,-368.82 979.13,-358.82 975.63,-368.82 982.63,-368.82"/>
</g>
<!-- 3 -->
<g id="node4" class="node">
<title>3</title>
<path fill="#f1b991" stroke="black" d="M303.25,-250C303.25,-250 177,-250 177,-250 171,-250 165,-244 165,-238 165,-238 165,-191 165,-191 165,-185 171,-179 177,-179 177,-179 303.25,-179 303.25,-179 309.25,-179 315.25,-185 315.25,-191 315.25,-191 315.25,-238 315.25,-238 315.25,-244 309.25,-250 303.25,-250"/>
<text text-anchor="start" x="200" y="-232.7" font-family="Helvetica,sans-Serif" font-size="14.00">P4_8_1 ≤ 1.5</text>
<text text-anchor="start" x="173" y="-216.95" font-family="Helvetica,sans-Serif" font-size="14.00">squared_error = 3.922</text>
<text text-anchor="start" x="195.5" y="-201.2" font-family="Helvetica,sans-Serif" font-size="14.00">samples = 455</text>
<text text-anchor="start" x="195.5" y="-185.45" font-family="Helvetica,sans-Serif" font-size="14.00">value = 12.229</text>
</g>
<!-- 2&#45;&gt;3 -->
<g id="edge3" class="edge">
<title>2&#45;&gt;3</title>
<path fill="none" stroke="black" d="M413.27,-289.71C385.86,-277.96 354.34,-264.45 325.77,-252.2"/>
<polygon fill="black" stroke="black" points="327.35,-249.07 316.78,-248.35 324.59,-255.51 327.35,-249.07"/>
</g>
<!-- 52 -->
<g id="node11" class="node">
<title>52</title>
<path fill="#f4c9ab" stroke="black" d="M548.25,-250C548.25,-250 422,-250 422,-250 416,-250 410,-244 410,-238 410,-238 410,-191 410,-191 410,-185 416,-179 422,-179 422,-179 548.25,-179 548.25,-179 554.25,-179 560.25,-185 560.25,-191 560.25,-191 560.25,-238 560.25,-238 560.25,-244 554.25,-250 548.25,-250"/>
<text text-anchor="start" x="445" y="-232.7" font-family="Helvetica,sans-Serif" font-size="14.00">P4_6_3 ≤ 2.5</text>
<text text-anchor="start" x="418" y="-216.95" font-family="Helvetica,sans-Serif" font-size="14.00">squared_error = 3.125</text>
<text text-anchor="start" x="440.5" y="-201.2" font-family="Helvetica,sans-Serif" font-size="14.00">samples = 437</text>
<text text-anchor="start" x="440.5" y="-185.45" font-family="Helvetica,sans-Serif" font-size="14.00">value = 10.695</text>
</g>
<!-- 2&#45;&gt;52 -->
<g id="edge10" class="edge">
<title>2&#45;&gt;52</title>
<path fill="none" stroke="black" d="M485.12,-285.54C485.12,-277.92 485.12,-269.75 485.12,-261.77"/>
<polygon fill="black" stroke="black" points="488.63,-261.82 485.13,-251.82 481.63,-261.82 488.63,-261.82"/>
</g>
<!-- 4 -->
<g id="node5" class="node">
<title>4</title>
<path fill="#f2c09b" stroke="black" d="M138.25,-143C138.25,-143 12,-143 12,-143 6,-143 0,-137 0,-131 0,-131 0,-84 0,-84 0,-78 6,-72 12,-72 12,-72 138.25,-72 138.25,-72 144.25,-72 150.25,-78 150.25,-84 150.25,-84 150.25,-131 150.25,-131 150.25,-137 144.25,-143 138.25,-143"/>
<text text-anchor="start" x="31.62" y="-125.7" font-family="Helvetica,sans-Serif" font-size="14.00">P11_3_9 ≤ 0.5</text>
<text text-anchor="start" x="8" y="-109.95" font-family="Helvetica,sans-Serif" font-size="14.00">squared_error = 2.826</text>
<text text-anchor="start" x="30.5" y="-94.2" font-family="Helvetica,sans-Serif" font-size="14.00">samples = 289</text>
<text text-anchor="start" x="30.88" y="-78.45" font-family="Helvetica,sans-Serif" font-size="14.00">value = 11.603</text>
</g>
<!-- 3&#45;&gt;4 -->
<g id="edge4" class="edge">
<title>3&#45;&gt;4</title>
<path fill="none" stroke="black" d="M185.18,-178.54C170.51,-169.2 154.52,-159.03 139.4,-149.4"/>
<polygon fill="black" stroke="black" points="141.7,-146.72 131.39,-144.3 137.94,-152.62 141.7,-146.72"/>
</g>
<!-- 31 -->
<g id="node8" class="node">
<title>31</title>
<path fill="#eead7e" stroke="black" d="M299.5,-143C299.5,-143 180.75,-143 180.75,-143 174.75,-143 168.75,-137 168.75,-131 168.75,-131 168.75,-84 168.75,-84 168.75,-78 174.75,-72 180.75,-72 180.75,-72 299.5,-72 299.5,-72 305.5,-72 311.5,-78 311.5,-84 311.5,-84 311.5,-131 311.5,-131 311.5,-137 305.5,-143 299.5,-143"/>
<text text-anchor="start" x="192.5" y="-125.7" font-family="Helvetica,sans-Serif" font-size="14.00">P7_9_2_2 ≤ 0.5</text>
<text text-anchor="start" x="176.75" y="-109.95" font-family="Helvetica,sans-Serif" font-size="14.00">squared_error = 3.96</text>
<text text-anchor="start" x="195.5" y="-94.2" font-family="Helvetica,sans-Serif" font-size="14.00">samples = 166</text>
<text text-anchor="start" x="195.5" y="-78.45" font-family="Helvetica,sans-Serif" font-size="14.00">value = 13.319</text>
</g>
<!-- 3&#45;&gt;31 -->
<g id="edge7" class="edge">
<title>3&#45;&gt;31</title>
<path fill="none" stroke="black" d="M240.12,-178.54C240.12,-170.92 240.12,-162.75 240.12,-154.77"/>
<polygon fill="black" stroke="black" points="243.63,-154.82 240.13,-144.82 236.63,-154.82 243.63,-154.82"/>
</g>
<!-- 5 -->
<g id="node6" class="node">
<title>5</title>
<path fill="#c0c0c0" stroke="black" d="M54.12,-36C54.12,-36 24.12,-36 24.12,-36 18.12,-36 12.12,-30 12.12,-24 12.12,-24 12.12,-12 12.12,-12 12.12,-6 18.12,0 24.12,0 24.12,0 54.12,0 54.12,0 60.12,0 66.12,-6 66.12,-12 66.12,-12 66.12,-24 66.12,-24 66.12,-30 60.12,-36 54.12,-36"/>
<text text-anchor="middle" x="39.12" y="-12.57" font-family="Helvetica,sans-Serif" font-size="14.00">(...)</text>
</g>
<!-- 4&#45;&gt;5 -->
<g id="edge5" class="edge">
<title>4&#45;&gt;5</title>
<path fill="none" stroke="black" d="M60.79,-71.67C57.38,-63.37 53.79,-54.63 50.53,-46.71"/>
<polygon fill="black" stroke="black" points="53.81,-45.5 46.77,-37.58 47.34,-48.16 53.81,-45.5"/>
</g>
<!-- 18 -->
<g id="node7" class="node">
<title>18</title>
<path fill="#c0c0c0" stroke="black" d="M126.12,-36C126.12,-36 96.12,-36 96.12,-36 90.12,-36 84.12,-30 84.12,-24 84.12,-24 84.12,-12 84.12,-12 84.12,-6 90.12,0 96.12,0 96.12,0 126.12,0 126.12,0 132.12,0 138.12,-6 138.12,-12 138.12,-12 138.12,-24 138.12,-24 138.12,-30 132.12,-36 126.12,-36"/>
<text text-anchor="middle" x="111.12" y="-12.57" font-family="Helvetica,sans-Serif" font-size="14.00">(...)</text>
</g>
<!-- 4&#45;&gt;18 -->
<g id="edge6" class="edge">
<title>4&#45;&gt;18</title>
<path fill="none" stroke="black" d="M89.46,-71.67C92.87,-63.37 96.46,-54.63 99.72,-46.71"/>
<polygon fill="black" stroke="black" points="102.91,-48.16 103.48,-37.58 96.44,-45.5 102.91,-48.16"/>
</g>
<!-- 32 -->
<g id="node9" class="node">
<title>32</title>
<path fill="#c0c0c0" stroke="black" d="M227.12,-36C227.12,-36 197.12,-36 197.12,-36 191.12,-36 185.12,-30 185.12,-24 185.12,-24 185.12,-12 185.12,-12 185.12,-6 191.12,0 197.12,0 197.12,0 227.12,0 227.12,0 233.12,0 239.12,-6 239.12,-12 239.12,-12 239.12,-24 239.12,-24 239.12,-30 233.12,-36 227.12,-36"/>
<text text-anchor="middle" x="212.12" y="-12.57" font-family="Helvetica,sans-Serif" font-size="14.00">(...)</text>
</g>
<!-- 31&#45;&gt;32 -->
<g id="edge8" class="edge">
<title>31&#45;&gt;32</title>
<path fill="none" stroke="black" d="M228.98,-71.67C226.36,-63.47 223.59,-54.84 221.08,-46.98"/>
<polygon fill="black" stroke="black" points="224.47,-46.08 218.08,-37.62 217.8,-48.22 224.47,-46.08"/>
</g>
<!-- 39 -->
<g id="node10" class="node">
<title>39</title>
<path fill="#c0c0c0" stroke="black" d="M299.12,-36C299.12,-36 269.12,-36 269.12,-36 263.12,-36 257.12,-30 257.12,-24 257.12,-24 257.12,-12 257.12,-12 257.12,-6 263.12,0 269.12,0 269.12,0 299.12,0 299.12,0 305.12,0 311.12,-6 311.12,-12 311.12,-12 311.12,-24 311.12,-24 311.12,-30 305.12,-36 299.12,-36"/>
<text text-anchor="middle" x="284.12" y="-12.57" font-family="Helvetica,sans-Serif" font-size="14.00">(...)</text>
</g>
<!-- 31&#45;&gt;39 -->
<g id="edge9" class="edge">
<title>31&#45;&gt;39</title>
<path fill="none" stroke="black" d="M257.64,-71.67C261.86,-63.28 266.31,-54.43 270.33,-46.44"/>
<polygon fill="black" stroke="black" points="273.44,-48.04 274.8,-37.53 267.19,-44.9 273.44,-48.04"/>
</g>
<!-- 53 -->
<g id="node12" class="node">
<title>53</title>
<path fill="#f5ceb2" stroke="black" d="M460.5,-143C460.5,-143 341.75,-143 341.75,-143 335.75,-143 329.75,-137 329.75,-131 329.75,-131 329.75,-84 329.75,-84 329.75,-78 335.75,-72 341.75,-72 341.75,-72 460.5,-72 460.5,-72 466.5,-72 472.5,-78 472.5,-84 472.5,-84 472.5,-131 472.5,-131 472.5,-137 466.5,-143 460.5,-143"/>
<text text-anchor="start" x="361" y="-125.7" font-family="Helvetica,sans-Serif" font-size="14.00">P4_6_1 ≤ 1.5</text>
<text text-anchor="start" x="337.75" y="-109.95" font-family="Helvetica,sans-Serif" font-size="14.00">squared_error = 2.69</text>
<text text-anchor="start" x="356.5" y="-94.2" font-family="Helvetica,sans-Serif" font-size="14.00">samples = 299</text>
<text text-anchor="start" x="356.5" y="-78.45" font-family="Helvetica,sans-Serif" font-size="14.00">value = 10.259</text>
</g>
<!-- 52&#45;&gt;53 -->
<g id="edge11" class="edge">
<title>52&#45;&gt;53</title>
<path fill="none" stroke="black" d="M457.15,-178.54C450.42,-170.12 443.15,-161.03 436.14,-152.27"/>
<polygon fill="black" stroke="black" points="438.9,-150.11 429.92,-144.49 433.43,-154.49 438.9,-150.11"/>
</g>
<!-- 74 -->
<g id="node15" class="node">
<title>74</title>
<path fill="#f2bf9b" stroke="black" d="M621.5,-143C621.5,-143 502.75,-143 502.75,-143 496.75,-143 490.75,-137 490.75,-131 490.75,-131 490.75,-84 490.75,-84 490.75,-78 496.75,-72 502.75,-72 502.75,-72 621.5,-72 621.5,-72 627.5,-72 633.5,-78 633.5,-84 633.5,-84 633.5,-131 633.5,-131 633.5,-137 627.5,-143 621.5,-143"/>
<text text-anchor="start" x="529.5" y="-125.7" font-family="Helvetica,sans-Serif" font-size="14.00">P4_1 ≤ 0.5</text>
<text text-anchor="start" x="498.75" y="-109.95" font-family="Helvetica,sans-Serif" font-size="14.00">squared_error = 2.76</text>
<text text-anchor="start" x="517.5" y="-94.2" font-family="Helvetica,sans-Serif" font-size="14.00">samples = 138</text>
<text text-anchor="start" x="521.62" y="-78.45" font-family="Helvetica,sans-Serif" font-size="14.00">value = 11.64</text>
</g>
<!-- 52&#45;&gt;74 -->
<g id="edge14" class="edge">
<title>52&#45;&gt;74</title>
<path fill="none" stroke="black" d="M510.76,-178.54C516.87,-170.21 523.46,-161.22 529.82,-152.55"/>
<polygon fill="black" stroke="black" points="532.61,-154.67 535.7,-144.53 526.97,-150.53 532.61,-154.67"/>
</g>
<!-- 54 -->
<g id="node13" class="node">
<title>54</title>
<path fill="#c0c0c0" stroke="black" d="M394.12,-36C394.12,-36 364.12,-36 364.12,-36 358.12,-36 352.12,-30 352.12,-24 352.12,-24 352.12,-12 352.12,-12 352.12,-6 358.12,0 364.12,0 364.12,0 394.12,0 394.12,0 400.12,0 406.12,-6 406.12,-12 406.12,-12 406.12,-24 406.12,-24 406.12,-30 400.12,-36 394.12,-36"/>
<text text-anchor="middle" x="379.12" y="-12.57" font-family="Helvetica,sans-Serif" font-size="14.00">(...)</text>
</g>
<!-- 53&#45;&gt;54 -->
<g id="edge12" class="edge">
<title>53&#45;&gt;54</title>
<path fill="none" stroke="black" d="M392.37,-71.67C390.33,-63.56 388.19,-55.04 386.23,-47.26"/>
<polygon fill="black" stroke="black" points="389.65,-46.5 383.81,-37.65 382.86,-48.2 389.65,-46.5"/>
</g>
<!-- 63 -->
<g id="node14" class="node">
<title>63</title>
<path fill="#c0c0c0" stroke="black" d="M466.12,-36C466.12,-36 436.12,-36 436.12,-36 430.12,-36 424.12,-30 424.12,-24 424.12,-24 424.12,-12 424.12,-12 424.12,-6 430.12,0 436.12,0 436.12,0 466.12,0 466.12,0 472.12,0 478.12,-6 478.12,-12 478.12,-12 478.12,-24 478.12,-24 478.12,-30 472.12,-36 466.12,-36"/>
<text text-anchor="middle" x="451.12" y="-12.57" font-family="Helvetica,sans-Serif" font-size="14.00">(...)</text>
</g>
<!-- 53&#45;&gt;63 -->
<g id="edge13" class="edge">
<title>53&#45;&gt;63</title>
<path fill="none" stroke="black" d="M421.03,-71.67C425.88,-63.18 430.99,-54.23 435.6,-46.17"/>
<polygon fill="black" stroke="black" points="438.63,-47.92 440.56,-37.5 432.56,-44.44 438.63,-47.92"/>
</g>
<!-- 75 -->
<g id="node16" class="node">
<title>75</title>
<path fill="#c0c0c0" stroke="black" d="M569.12,-36C569.12,-36 539.12,-36 539.12,-36 533.12,-36 527.12,-30 527.12,-24 527.12,-24 527.12,-12 527.12,-12 527.12,-6 533.12,0 539.12,0 539.12,0 569.12,0 569.12,0 575.12,0 581.12,-6 581.12,-12 581.12,-12 581.12,-24 581.12,-24 581.12,-30 575.12,-36 569.12,-36"/>
<text text-anchor="middle" x="554.12" y="-12.57" font-family="Helvetica,sans-Serif" font-size="14.00">(...)</text>
</g>
<!-- 74&#45;&gt;75 -->
<g id="edge15" class="edge">
<title>74&#45;&gt;75</title>
<path fill="none" stroke="black" d="M558.94,-71.67C558.21,-63.66 557.44,-55.24 556.73,-47.53"/>
<polygon fill="black" stroke="black" points="560.23,-47.33 555.83,-37.69 553.26,-47.97 560.23,-47.33"/>
</g>
<!-- 76 -->
<g id="node17" class="node">
<title>76</title>
<path fill="#c0c0c0" stroke="black" d="M641.12,-36C641.12,-36 611.12,-36 611.12,-36 605.12,-36 599.12,-30 599.12,-24 599.12,-24 599.12,-12 599.12,-12 599.12,-6 605.12,0 611.12,0 611.12,0 641.12,0 641.12,0 647.12,0 653.12,-6 653.12,-12 653.12,-12 653.12,-24 653.12,-24 653.12,-30 647.12,-36 641.12,-36"/>
<text text-anchor="middle" x="626.12" y="-12.57" font-family="Helvetica,sans-Serif" font-size="14.00">(...)</text>
</g>
<!-- 74&#45;&gt;76 -->
<g id="edge16" class="edge">
<title>74&#45;&gt;76</title>
<path fill="none" stroke="black" d="M587.6,-71.67C594.02,-62.9 600.8,-53.63 606.85,-45.35"/>
<polygon fill="black" stroke="black" points="609.58,-47.54 612.66,-37.4 603.93,-43.41 609.58,-47.54"/>
</g>
<!-- 90 -->
<g id="node19" class="node">
<title>90</title>
<path fill="#f5d0b4" stroke="black" d="M958.25,-250C958.25,-250 832,-250 832,-250 826,-250 820,-244 820,-238 820,-238 820,-191 820,-191 820,-185 826,-179 832,-179 832,-179 958.25,-179 958.25,-179 964.25,-179 970.25,-185 970.25,-191 970.25,-191 970.25,-238 970.25,-238 970.25,-244 964.25,-250 958.25,-250"/>
<text text-anchor="start" x="855" y="-232.7" font-family="Helvetica,sans-Serif" font-size="14.00">P4_6_1 ≤ 1.5</text>
<text text-anchor="start" x="828" y="-216.95" font-family="Helvetica,sans-Serif" font-size="14.00">squared_error = 3.473</text>
<text text-anchor="start" x="850.5" y="-201.2" font-family="Helvetica,sans-Serif" font-size="14.00">samples = 979</text>
<text text-anchor="start" x="850.88" y="-185.45" font-family="Helvetica,sans-Serif" font-size="14.00">value = 10.119</text>
</g>
<!-- 89&#45;&gt;90 -->
<g id="edge18" class="edge">
<title>89&#45;&gt;90</title>
<path fill="none" stroke="black" d="M951.15,-285.54C944.42,-277.12 937.15,-268.03 930.14,-259.27"/>
<polygon fill="black" stroke="black" points="932.9,-257.11 923.92,-251.49 927.43,-261.49 932.9,-257.11"/>
</g>
<!-- 145 -->
<g id="node26" class="node">
<title>145</title>
<path fill="#f9e0ce" stroke="black" d="M1126.25,-250C1126.25,-250 1000,-250 1000,-250 994,-250 988,-244 988,-238 988,-238 988,-191 988,-191 988,-185 994,-179 1000,-179 1000,-179 1126.25,-179 1126.25,-179 1132.25,-179 1138.25,-185 1138.25,-191 1138.25,-191 1138.25,-238 1138.25,-238 1138.25,-244 1132.25,-250 1126.25,-250"/>
<text text-anchor="start" x="1023" y="-232.7" font-family="Helvetica,sans-Serif" font-size="14.00">P4_8_3 ≤ 1.5</text>
<text text-anchor="start" x="996" y="-216.95" font-family="Helvetica,sans-Serif" font-size="14.00">squared_error = 2.954</text>
<text text-anchor="start" x="1018.5" y="-201.2" font-family="Helvetica,sans-Serif" font-size="14.00">samples = 404</text>
<text text-anchor="start" x="1022.25" y="-185.45" font-family="Helvetica,sans-Serif" font-size="14.00">value = 8.598</text>
</g>
<!-- 89&#45;&gt;145 -->
<g id="edge25" class="edge">
<title>89&#45;&gt;145</title>
<path fill="none" stroke="black" d="M1007.1,-285.54C1013.83,-277.12 1021.1,-268.03 1028.11,-259.27"/>
<polygon fill="black" stroke="black" points="1030.82,-261.49 1034.33,-251.49 1025.35,-257.11 1030.82,-261.49"/>
</g>
<!-- 91 -->
<g id="node20" class="node">
<title>91</title>
<path fill="#f4caac" stroke="black" d="M790.25,-143C790.25,-143 664,-143 664,-143 658,-143 652,-137 652,-131 652,-131 652,-84 652,-84 652,-78 658,-72 664,-72 664,-72 790.25,-72 790.25,-72 796.25,-72 802.25,-78 802.25,-84 802.25,-84 802.25,-131 802.25,-131 802.25,-137 796.25,-143 790.25,-143"/>
<text text-anchor="start" x="687" y="-125.7" font-family="Helvetica,sans-Serif" font-size="14.00">P4_8_1 ≤ 2.5</text>
<text text-anchor="start" x="660" y="-109.95" font-family="Helvetica,sans-Serif" font-size="14.00">squared_error = 3.049</text>
<text text-anchor="start" x="682.5" y="-94.2" font-family="Helvetica,sans-Serif" font-size="14.00">samples = 623</text>
<text text-anchor="start" x="682.5" y="-78.45" font-family="Helvetica,sans-Serif" font-size="14.00">value = 10.637</text>
</g>
<!-- 90&#45;&gt;91 -->
<g id="edge19" class="edge">
<title>90&#45;&gt;91</title>
<path fill="none" stroke="black" d="M839.18,-178.54C824.24,-169.2 807.97,-159.03 792.56,-149.4"/>
<polygon fill="black" stroke="black" points="794.73,-146.62 784.39,-144.29 791.02,-152.56 794.73,-146.62"/>
</g>
<!-- 120 -->
<g id="node23" class="node">
<title>120</title>
<path fill="#f7d9c4" stroke="black" d="M958.25,-143C958.25,-143 832,-143 832,-143 826,-143 820,-137 820,-131 820,-131 820,-84 820,-84 820,-78 826,-72 832,-72 832,-72 958.25,-72 958.25,-72 964.25,-72 970.25,-78 970.25,-84 970.25,-84 970.25,-131 970.25,-131 970.25,-137 964.25,-143 958.25,-143"/>
<text text-anchor="start" x="855" y="-125.7" font-family="Helvetica,sans-Serif" font-size="14.00">P4_8_3 ≤ 1.5</text>
<text text-anchor="start" x="828" y="-109.95" font-family="Helvetica,sans-Serif" font-size="14.00">squared_error = 2.923</text>
<text text-anchor="start" x="850.5" y="-94.2" font-family="Helvetica,sans-Serif" font-size="14.00">samples = 356</text>
<text text-anchor="start" x="854.25" y="-78.45" font-family="Helvetica,sans-Serif" font-size="14.00">value = 9.213</text>
</g>
<!-- 90&#45;&gt;120 -->
<g id="edge22" class="edge">
<title>90&#45;&gt;120</title>
<path fill="none" stroke="black" d="M895.12,-178.54C895.12,-170.92 895.12,-162.75 895.12,-154.77"/>
<polygon fill="black" stroke="black" points="898.63,-154.82 895.13,-144.82 891.63,-154.82 898.63,-154.82"/>
</g>
<!-- 92 -->
<g id="node21" class="node">
<title>92</title>
<path fill="#c0c0c0" stroke="black" d="M720.12,-36C720.12,-36 690.12,-36 690.12,-36 684.12,-36 678.12,-30 678.12,-24 678.12,-24 678.12,-12 678.12,-12 678.12,-6 684.12,0 690.12,0 690.12,0 720.12,0 720.12,0 726.12,0 732.12,-6 732.12,-12 732.12,-12 732.12,-24 732.12,-24 732.12,-30 726.12,-36 720.12,-36"/>
<text text-anchor="middle" x="705.12" y="-12.57" font-family="Helvetica,sans-Serif" font-size="14.00">(...)</text>
</g>
<!-- 91&#45;&gt;92 -->
<g id="edge20" class="edge">
<title>91&#45;&gt;92</title>
<path fill="none" stroke="black" d="M718.37,-71.67C716.33,-63.56 714.19,-55.04 712.23,-47.26"/>
<polygon fill="black" stroke="black" points="715.65,-46.5 709.81,-37.65 708.86,-48.2 715.65,-46.5"/>
</g>
<!-- 107 -->
<g id="node22" class="node">
<title>107</title>
<path fill="#c0c0c0" stroke="black" d="M792.12,-36C792.12,-36 762.12,-36 762.12,-36 756.12,-36 750.12,-30 750.12,-24 750.12,-24 750.12,-12 750.12,-12 750.12,-6 756.12,0 762.12,0 762.12,0 792.12,0 792.12,0 798.12,0 804.12,-6 804.12,-12 804.12,-12 804.12,-24 804.12,-24 804.12,-30 798.12,-36 792.12,-36"/>
<text text-anchor="middle" x="777.12" y="-12.57" font-family="Helvetica,sans-Serif" font-size="14.00">(...)</text>
</g>
<!-- 91&#45;&gt;107 -->
<g id="edge21" class="edge">
<title>91&#45;&gt;107</title>
<path fill="none" stroke="black" d="M747.03,-71.67C751.88,-63.18 756.99,-54.23 761.6,-46.17"/>
<polygon fill="black" stroke="black" points="764.63,-47.92 766.56,-37.5 758.56,-44.44 764.63,-47.92"/>
</g>
<!-- 121 -->
<g id="node24" class="node">
<title>121</title>
<path fill="#c0c0c0" stroke="black" d="M867.12,-36C867.12,-36 837.12,-36 837.12,-36 831.12,-36 825.12,-30 825.12,-24 825.12,-24 825.12,-12 825.12,-12 825.12,-6 831.12,0 837.12,0 837.12,0 867.12,0 867.12,0 873.12,0 879.12,-6 879.12,-12 879.12,-12 879.12,-24 879.12,-24 879.12,-30 873.12,-36 867.12,-36"/>
<text text-anchor="middle" x="852.12" y="-12.57" font-family="Helvetica,sans-Serif" font-size="14.00">(...)</text>
</g>
<!-- 120&#45;&gt;121 -->
<g id="edge23" class="edge">
<title>120&#45;&gt;121</title>
<path fill="none" stroke="black" d="M878.01,-71.67C873.88,-63.28 869.54,-54.43 865.61,-46.44"/>
<polygon fill="black" stroke="black" points="868.79,-44.97 861.24,-37.54 862.51,-48.06 868.79,-44.97"/>
</g>
<!-- 132 -->
<g id="node25" class="node">
<title>132</title>
<path fill="#c0c0c0" stroke="black" d="M939.12,-36C939.12,-36 909.12,-36 909.12,-36 903.12,-36 897.12,-30 897.12,-24 897.12,-24 897.12,-12 897.12,-12 897.12,-6 903.12,0 909.12,0 909.12,0 939.12,0 939.12,0 945.12,0 951.12,-6 951.12,-12 951.12,-12 951.12,-24 951.12,-24 951.12,-30 945.12,-36 939.12,-36"/>
<text text-anchor="middle" x="924.12" y="-12.57" font-family="Helvetica,sans-Serif" font-size="14.00">(...)</text>
</g>
<!-- 120&#45;&gt;132 -->
<g id="edge24" class="edge">
<title>120&#45;&gt;132</title>
<path fill="none" stroke="black" d="M906.67,-71.67C909.39,-63.47 912.25,-54.84 914.85,-46.98"/>
<polygon fill="black" stroke="black" points="918.13,-48.21 917.95,-37.62 911.49,-46.01 918.13,-48.21"/>
</g>
<!-- 146 -->
<g id="node27" class="node">
<title>146</title>
<path fill="#f7d8c1" stroke="black" d="M1126.25,-143C1126.25,-143 1000,-143 1000,-143 994,-143 988,-137 988,-131 988,-131 988,-84 988,-84 988,-78 994,-72 1000,-72 1000,-72 1126.25,-72 1126.25,-72 1132.25,-72 1138.25,-78 1138.25,-84 1138.25,-84 1138.25,-131 1138.25,-131 1138.25,-137 1132.25,-143 1126.25,-143"/>
<text text-anchor="start" x="1023" y="-125.7" font-family="Helvetica,sans-Serif" font-size="14.00">P4_8_1 ≤ 2.5</text>
<text text-anchor="start" x="996" y="-109.95" font-family="Helvetica,sans-Serif" font-size="14.00">squared_error = 3.242</text>
<text text-anchor="start" x="1018.5" y="-94.2" font-family="Helvetica,sans-Serif" font-size="14.00">samples = 142</text>
<text text-anchor="start" x="1026" y="-78.45" font-family="Helvetica,sans-Serif" font-size="14.00">value = 9.38</text>
</g>
<!-- 145&#45;&gt;146 -->
<g id="edge26" class="edge">
<title>145&#45;&gt;146</title>
<path fill="none" stroke="black" d="M1063.12,-178.54C1063.12,-170.92 1063.12,-162.75 1063.12,-154.77"/>
<polygon fill="black" stroke="black" points="1066.63,-154.82 1063.13,-144.82 1059.63,-154.82 1066.63,-154.82"/>
</g>
<!-- 165 -->
<g id="node30" class="node">
<title>165</title>
<path fill="#fae5d5" stroke="black" d="M1294.25,-143C1294.25,-143 1168,-143 1168,-143 1162,-143 1156,-137 1156,-131 1156,-131 1156,-84 1156,-84 1156,-78 1162,-72 1168,-72 1168,-72 1294.25,-72 1294.25,-72 1300.25,-72 1306.25,-78 1306.25,-84 1306.25,-84 1306.25,-131 1306.25,-131 1306.25,-137 1300.25,-143 1294.25,-143"/>
<text text-anchor="start" x="1194.75" y="-125.7" font-family="Helvetica,sans-Serif" font-size="14.00">P12_4 ≤ 2.5</text>
<text text-anchor="start" x="1164" y="-109.95" font-family="Helvetica,sans-Serif" font-size="14.00">squared_error = 2.287</text>
<text text-anchor="start" x="1186.5" y="-94.2" font-family="Helvetica,sans-Serif" font-size="14.00">samples = 262</text>
<text text-anchor="start" x="1190.25" y="-78.45" font-family="Helvetica,sans-Serif" font-size="14.00">value = 8.174</text>
</g>
<!-- 145&#45;&gt;165 -->
<g id="edge29" class="edge">
<title>145&#45;&gt;165</title>
<path fill="none" stroke="black" d="M1119.07,-178.54C1134.01,-169.2 1150.28,-159.03 1165.69,-149.4"/>
<polygon fill="black" stroke="black" points="1167.23,-152.56 1173.86,-144.29 1163.52,-146.62 1167.23,-152.56"/>
</g>
<!-- 147 -->
<g id="node28" class="node">
<title>147</title>
<path fill="#c0c0c0" stroke="black" d="M1013.12,-36C1013.12,-36 983.12,-36 983.12,-36 977.12,-36 971.12,-30 971.12,-24 971.12,-24 971.12,-12 971.12,-12 971.12,-6 977.12,0 983.12,0 983.12,0 1013.12,0 1013.12,0 1019.12,0 1025.12,-6 1025.12,-12 1025.12,-12 1025.12,-24 1025.12,-24 1025.12,-30 1019.12,-36 1013.12,-36"/>
<text text-anchor="middle" x="998.12" y="-12.57" font-family="Helvetica,sans-Serif" font-size="14.00">(...)</text>
</g>
<!-- 146&#45;&gt;147 -->
<g id="edge27" class="edge">
<title>146&#45;&gt;147</title>
<path fill="none" stroke="black" d="M1037.25,-71.67C1030.73,-62.9 1023.85,-53.63 1017.7,-45.35"/>
<polygon fill="black" stroke="black" points="1020.56,-43.34 1011.79,-37.4 1014.95,-47.51 1020.56,-43.34"/>
</g>
<!-- 160 -->
<g id="node29" class="node">
<title>160</title>
<path fill="#c0c0c0" stroke="black" d="M1085.12,-36C1085.12,-36 1055.12,-36 1055.12,-36 1049.12,-36 1043.12,-30 1043.12,-24 1043.12,-24 1043.12,-12 1043.12,-12 1043.12,-6 1049.12,0 1055.12,0 1055.12,0 1085.12,0 1085.12,0 1091.12,0 1097.12,-6 1097.12,-12 1097.12,-12 1097.12,-24 1097.12,-24 1097.12,-30 1091.12,-36 1085.12,-36"/>
<text text-anchor="middle" x="1070.12" y="-12.57" font-family="Helvetica,sans-Serif" font-size="14.00">(...)</text>
</g>
<!-- 146&#45;&gt;160 -->
<g id="edge28" class="edge">
<title>146&#45;&gt;160</title>
<path fill="none" stroke="black" d="M1065.91,-71.67C1066.55,-63.66 1067.23,-55.24 1067.84,-47.53"/>
<polygon fill="black" stroke="black" points="1071.32,-47.94 1068.63,-37.69 1064.34,-47.38 1071.32,-47.94"/>
</g>
<!-- 166 -->
<g id="node31" class="node">
<title>166</title>
<path fill="#c0c0c0" stroke="black" d="M1186.12,-36C1186.12,-36 1156.12,-36 1156.12,-36 1150.12,-36 1144.12,-30 1144.12,-24 1144.12,-24 1144.12,-12 1144.12,-12 1144.12,-6 1150.12,0 1156.12,0 1156.12,0 1186.12,0 1186.12,0 1192.12,0 1198.12,-6 1198.12,-12 1198.12,-12 1198.12,-24 1198.12,-24 1198.12,-30 1192.12,-36 1186.12,-36"/>
<text text-anchor="middle" x="1171.12" y="-12.57" font-family="Helvetica,sans-Serif" font-size="14.00">(...)</text>
</g>
<!-- 165&#45;&gt;166 -->
<g id="edge30" class="edge">
<title>165&#45;&gt;166</title>
<path fill="none" stroke="black" d="M1207.24,-71.67C1201.29,-62.99 1195.01,-53.83 1189.38,-45.62"/>
<polygon fill="black" stroke="black" points="1192.31,-43.7 1183.76,-37.43 1186.53,-47.66 1192.31,-43.7"/>
</g>
<!-- 173 -->
<g id="node32" class="node">
<title>173</title>
<path fill="#c0c0c0" stroke="black" d="M1258.12,-36C1258.12,-36 1228.12,-36 1228.12,-36 1222.12,-36 1216.12,-30 1216.12,-24 1216.12,-24 1216.12,-12 1216.12,-12 1216.12,-6 1222.12,0 1228.12,0 1228.12,0 1258.12,0 1258.12,0 1264.12,0 1270.12,-6 1270.12,-12 1270.12,-12 1270.12,-24 1270.12,-24 1270.12,-30 1264.12,-36 1258.12,-36"/>
<text text-anchor="middle" x="1243.12" y="-12.57" font-family="Helvetica,sans-Serif" font-size="14.00">(...)</text>
</g>
<!-- 165&#45;&gt;173 -->
<g id="edge31" class="edge">
<title>165&#45;&gt;173</title>
<path fill="none" stroke="black" d="M1235.9,-71.67C1237,-63.66 1238.16,-55.24 1239.21,-47.53"/>
<polygon fill="black" stroke="black" points="1242.67,-48.07 1240.56,-37.68 1235.74,-47.11 1242.67,-48.07"/>
</g>
<!-- 189 -->
<g id="node34" class="node">
<title>189</title>
<path fill="#eda876" stroke="black" d="M1710.25,-357C1710.25,-357 1584,-357 1584,-357 1578,-357 1572,-351 1572,-345 1572,-345 1572,-298 1572,-298 1572,-292 1578,-286 1584,-286 1584,-286 1710.25,-286 1710.25,-286 1716.25,-286 1722.25,-292 1722.25,-298 1722.25,-298 1722.25,-345 1722.25,-345 1722.25,-351 1716.25,-357 1710.25,-357"/>
<text text-anchor="start" x="1614.5" y="-339.7" font-family="Helvetica,sans-Serif" font-size="14.00">P4_1 ≤ 0.5</text>
<text text-anchor="start" x="1580" y="-323.95" font-family="Helvetica,sans-Serif" font-size="14.00">squared_error = 4.635</text>
<text text-anchor="start" x="1598.75" y="-308.2" font-family="Helvetica,sans-Serif" font-size="14.00">samples = 1508</text>
<text text-anchor="start" x="1602.88" y="-292.45" font-family="Helvetica,sans-Serif" font-size="14.00">value = 13.811</text>
</g>
<!-- 188&#45;&gt;189 -->
<g id="edge33" class="edge">
<title>188&#45;&gt;189</title>
<path fill="none" stroke="black" d="M1647.12,-392.54C1647.12,-384.92 1647.12,-376.75 1647.12,-368.77"/>
<polygon fill="black" stroke="black" points="1650.63,-368.82 1647.13,-358.82 1643.63,-368.82 1650.63,-368.82"/>
</g>
<!-- 294 -->
<g id="node49" class="node">
<title>294</title>
<path fill="#f2c09d" stroke="black" d="M2205.88,-357C2205.88,-357 2080.38,-357 2080.38,-357 2074.38,-357 2068.38,-351 2068.38,-345 2068.38,-345 2068.38,-298 2068.38,-298 2068.38,-292 2074.38,-286 2080.38,-286 2080.38,-286 2205.88,-286 2205.88,-286 2211.88,-286 2217.88,-292 2217.88,-298 2217.88,-298 2217.88,-345 2217.88,-345 2217.88,-351 2211.88,-357 2205.88,-357"/>
<text text-anchor="start" x="2103" y="-339.7" font-family="Helvetica,sans-Serif" font-size="14.00">P4_6_4 ≤ 1.5</text>
<text text-anchor="start" x="2076.38" y="-323.95" font-family="Helvetica,sans-Serif" font-size="14.00">squared_error = 4.611</text>
<text text-anchor="start" x="2094.75" y="-308.2" font-family="Helvetica,sans-Serif" font-size="14.00">samples = 1264</text>
<text text-anchor="start" x="2098.88" y="-292.45" font-family="Helvetica,sans-Serif" font-size="14.00">value = 11.528</text>
</g>
<!-- 188&#45;&gt;294 -->
<g id="edge48" class="edge">
<title>188&#45;&gt;294</title>
<path fill="none" stroke="black" d="M1722.73,-411.5C1812.63,-392.46 1962.37,-360.77 2056.76,-340.78"/>
<polygon fill="black" stroke="black" points="2057.45,-344.22 2066.51,-338.72 2056,-337.37 2057.45,-344.22"/>
</g>
<!-- 190 -->
<g id="node35" class="node">
<title>190</title>
<path fill="#ea995f" stroke="black" d="M1626.25,-250C1626.25,-250 1500,-250 1500,-250 1494,-250 1488,-244 1488,-238 1488,-238 1488,-191 1488,-191 1488,-185 1494,-179 1500,-179 1500,-179 1626.25,-179 1626.25,-179 1632.25,-179 1638.25,-185 1638.25,-191 1638.25,-191 1638.25,-238 1638.25,-238 1638.25,-244 1632.25,-250 1626.25,-250"/>
<text text-anchor="start" x="1523" y="-232.7" font-family="Helvetica,sans-Serif" font-size="14.00">P4_8_1 ≤ 2.5</text>
<text text-anchor="start" x="1496" y="-216.95" font-family="Helvetica,sans-Serif" font-size="14.00">squared_error = 3.631</text>
<text text-anchor="start" x="1518.5" y="-201.2" font-family="Helvetica,sans-Serif" font-size="14.00">samples = 497</text>
<text text-anchor="start" x="1518.5" y="-185.45" font-family="Helvetica,sans-Serif" font-size="14.00">value = 15.133</text>
</g>
<!-- 189&#45;&gt;190 -->
<g id="edge34" class="edge">
<title>189&#45;&gt;190</title>
<path fill="none" stroke="black" d="M1619.15,-285.54C1612.42,-277.12 1605.15,-268.03 1598.14,-259.27"/>
<polygon fill="black" stroke="black" points="1600.9,-257.11 1591.92,-251.49 1595.43,-261.49 1600.9,-257.11"/>
</g>
<!-- 241 -->
<g id="node42" class="node">
<title>241</title>
<path fill="#eeaf81" stroke="black" d="M1794.25,-250C1794.25,-250 1668,-250 1668,-250 1662,-250 1656,-244 1656,-238 1656,-238 1656,-191 1656,-191 1656,-185 1662,-179 1668,-179 1668,-179 1794.25,-179 1794.25,-179 1800.25,-179 1806.25,-185 1806.25,-191 1806.25,-191 1806.25,-238 1806.25,-238 1806.25,-244 1800.25,-250 1794.25,-250"/>
<text text-anchor="start" x="1691" y="-232.7" font-family="Helvetica,sans-Serif" font-size="14.00">P4_8_1 ≤ 2.5</text>
<text text-anchor="start" x="1664" y="-216.95" font-family="Helvetica,sans-Serif" font-size="14.00">squared_error = 3.846</text>
<text text-anchor="start" x="1683.12" y="-201.2" font-family="Helvetica,sans-Serif" font-size="14.00">samples = 1011</text>
<text text-anchor="start" x="1690.25" y="-185.45" font-family="Helvetica,sans-Serif" font-size="14.00">value = 13.16</text>
</g>
<!-- 189&#45;&gt;241 -->
<g id="edge41" class="edge">
<title>189&#45;&gt;241</title>
<path fill="none" stroke="black" d="M1675.1,-285.54C1681.83,-277.12 1689.1,-268.03 1696.11,-259.27"/>
<polygon fill="black" stroke="black" points="1698.82,-261.49 1702.33,-251.49 1693.35,-257.11 1698.82,-261.49"/>
</g>
<!-- 191 -->
<g id="node36" class="node">
<title>191</title>
<path fill="#eca36e" stroke="black" d="M1462.25,-143C1462.25,-143 1336,-143 1336,-143 1330,-143 1324,-137 1324,-131 1324,-131 1324,-84 1324,-84 1324,-78 1330,-72 1336,-72 1336,-72 1462.25,-72 1462.25,-72 1468.25,-72 1474.25,-78 1474.25,-84 1474.25,-84 1474.25,-131 1474.25,-131 1474.25,-137 1468.25,-143 1462.25,-143"/>
<text text-anchor="start" x="1359" y="-125.7" font-family="Helvetica,sans-Serif" font-size="14.00">P4_6_1 ≤ 1.5</text>
<text text-anchor="start" x="1332" y="-109.95" font-family="Helvetica,sans-Serif" font-size="14.00">squared_error = 3.322</text>
<text text-anchor="start" x="1354.5" y="-94.2" font-family="Helvetica,sans-Serif" font-size="14.00">samples = 248</text>
<text text-anchor="start" x="1354.5" y="-78.45" font-family="Helvetica,sans-Serif" font-size="14.00">value = 14.274</text>
</g>
<!-- 190&#45;&gt;191 -->
<g id="edge35" class="edge">
<title>190&#45;&gt;191</title>
<path fill="none" stroke="black" d="M1508.52,-178.54C1494.07,-169.29 1478.34,-159.22 1463.43,-149.67"/>
<polygon fill="black" stroke="black" points="1465.36,-146.75 1455.05,-144.31 1461.58,-152.65 1465.36,-146.75"/>
</g>
<!-- 214 -->
<g id="node39" class="node">
<title>214</title>
<path fill="#e89051" stroke="black" d="M1623.5,-143C1623.5,-143 1504.75,-143 1504.75,-143 1498.75,-143 1492.75,-137 1492.75,-131 1492.75,-131 1492.75,-84 1492.75,-84 1492.75,-78 1498.75,-72 1504.75,-72 1504.75,-72 1623.5,-72 1623.5,-72 1629.5,-72 1635.5,-78 1635.5,-84 1635.5,-84 1635.5,-131 1635.5,-131 1635.5,-137 1629.5,-143 1623.5,-143"/>
<text text-anchor="start" x="1524" y="-125.7" font-family="Helvetica,sans-Serif" font-size="14.00">P4_7_3 ≤ 1.5</text>
<text text-anchor="start" x="1500.75" y="-109.95" font-family="Helvetica,sans-Serif" font-size="14.00">squared_error = 2.47</text>
<text text-anchor="start" x="1519.5" y="-94.2" font-family="Helvetica,sans-Serif" font-size="14.00">samples = 249</text>
<text text-anchor="start" x="1519.5" y="-78.45" font-family="Helvetica,sans-Serif" font-size="14.00">value = 15.989</text>
</g>
<!-- 190&#45;&gt;214 -->
<g id="edge38" class="edge">
<title>190&#45;&gt;214</title>
<path fill="none" stroke="black" d="M1563.46,-178.54C1563.53,-170.92 1563.61,-162.75 1563.68,-154.77"/>
<polygon fill="black" stroke="black" points="1567.18,-154.86 1563.78,-144.82 1560.18,-154.79 1567.18,-154.86"/>
</g>
<!-- 192 -->
<g id="node37" class="node">
<title>192</title>
<path fill="#c0c0c0" stroke="black" d="M1352.12,-36C1352.12,-36 1322.12,-36 1322.12,-36 1316.12,-36 1310.12,-30 1310.12,-24 1310.12,-24 1310.12,-12 1310.12,-12 1310.12,-6 1316.12,0 1322.12,0 1322.12,0 1352.12,0 1352.12,0 1358.12,0 1364.12,-6 1364.12,-12 1364.12,-12 1364.12,-24 1364.12,-24 1364.12,-30 1358.12,-36 1352.12,-36"/>
<text text-anchor="middle" x="1337.12" y="-12.57" font-family="Helvetica,sans-Serif" font-size="14.00">(...)</text>
</g>
<!-- 191&#45;&gt;192 -->
<g id="edge36" class="edge">
<title>191&#45;&gt;192</title>
<path fill="none" stroke="black" d="M1374.44,-71.67C1368.23,-62.9 1361.66,-53.63 1355.8,-45.35"/>
<polygon fill="black" stroke="black" points="1358.81,-43.55 1350.18,-37.42 1353.1,-47.6 1358.81,-43.55"/>
</g>
<!-- 207 -->
<g id="node38" class="node">
<title>207</title>
<path fill="#c0c0c0" stroke="black" d="M1424.12,-36C1424.12,-36 1394.12,-36 1394.12,-36 1388.12,-36 1382.12,-30 1382.12,-24 1382.12,-24 1382.12,-12 1382.12,-12 1382.12,-6 1388.12,0 1394.12,0 1394.12,0 1424.12,0 1424.12,0 1430.12,0 1436.12,-6 1436.12,-12 1436.12,-12 1436.12,-24 1436.12,-24 1436.12,-30 1430.12,-36 1424.12,-36"/>
<text text-anchor="middle" x="1409.12" y="-12.57" font-family="Helvetica,sans-Serif" font-size="14.00">(...)</text>
</g>
<!-- 191&#45;&gt;207 -->
<g id="edge37" class="edge">
<title>191&#45;&gt;207</title>
<path fill="none" stroke="black" d="M1403.11,-71.67C1404.02,-63.66 1404.98,-55.24 1405.86,-47.53"/>
<polygon fill="black" stroke="black" points="1409.33,-48.02 1406.99,-37.69 1402.38,-47.22 1409.33,-48.02"/>
</g>
<!-- 215 -->
<g id="node40" class="node">
<title>215</title>
<path fill="#c0c0c0" stroke="black" d="M1517.12,-36C1517.12,-36 1487.12,-36 1487.12,-36 1481.12,-36 1475.12,-30 1475.12,-24 1475.12,-24 1475.12,-12 1475.12,-12 1475.12,-6 1481.12,0 1487.12,0 1487.12,0 1517.12,0 1517.12,0 1523.12,0 1529.12,-6 1529.12,-12 1529.12,-12 1529.12,-24 1529.12,-24 1529.12,-30 1523.12,-36 1517.12,-36"/>
<text text-anchor="middle" x="1502.12" y="-12.57" font-family="Helvetica,sans-Serif" font-size="14.00">(...)</text>
</g>
<!-- 214&#45;&gt;215 -->
<g id="edge39" class="edge">
<title>214&#45;&gt;215</title>
<path fill="none" stroke="black" d="M1539.44,-71.67C1533.23,-62.9 1526.66,-53.63 1520.8,-45.35"/>
<polygon fill="black" stroke="black" points="1523.81,-43.55 1515.18,-37.42 1518.1,-47.6 1523.81,-43.55"/>
</g>
<!-- 230 -->
<g id="node41" class="node">
<title>230</title>
<path fill="#c0c0c0" stroke="black" d="M1589.12,-36C1589.12,-36 1559.12,-36 1559.12,-36 1553.12,-36 1547.12,-30 1547.12,-24 1547.12,-24 1547.12,-12 1547.12,-12 1547.12,-6 1553.12,0 1559.12,0 1559.12,0 1589.12,0 1589.12,0 1595.12,0 1601.12,-6 1601.12,-12 1601.12,-12 1601.12,-24 1601.12,-24 1601.12,-30 1595.12,-36 1589.12,-36"/>
<text text-anchor="middle" x="1574.12" y="-12.57" font-family="Helvetica,sans-Serif" font-size="14.00">(...)</text>
</g>
<!-- 214&#45;&gt;230 -->
<g id="edge40" class="edge">
<title>214&#45;&gt;230</title>
<path fill="none" stroke="black" d="M1568.11,-71.67C1569.02,-63.66 1569.98,-55.24 1570.86,-47.53"/>
<polygon fill="black" stroke="black" points="1574.33,-48.02 1571.99,-37.69 1567.38,-47.22 1574.33,-48.02"/>
</g>
<!-- 242 -->
<g id="node43" class="node">
<title>242</title>
<path fill="#f0b68c" stroke="black" d="M1792.25,-143C1792.25,-143 1666,-143 1666,-143 1660,-143 1654,-137 1654,-131 1654,-131 1654,-84 1654,-84 1654,-78 1660,-72 1666,-72 1666,-72 1792.25,-72 1792.25,-72 1798.25,-72 1804.25,-78 1804.25,-84 1804.25,-84 1804.25,-131 1804.25,-131 1804.25,-137 1798.25,-143 1792.25,-143"/>
<text text-anchor="start" x="1681.5" y="-125.7" font-family="Helvetica,sans-Serif" font-size="14.00">P7_9_2_2 ≤ 0.5</text>
<text text-anchor="start" x="1662" y="-109.95" font-family="Helvetica,sans-Serif" font-size="14.00">squared_error = 3.357</text>
<text text-anchor="start" x="1684.5" y="-94.2" font-family="Helvetica,sans-Serif" font-size="14.00">samples = 576</text>
<text text-anchor="start" x="1684.5" y="-78.45" font-family="Helvetica,sans-Serif" font-size="14.00">value = 12.514</text>
</g>
<!-- 241&#45;&gt;242 -->
<g id="edge42" class="edge">
<title>241&#45;&gt;242</title>
<path fill="none" stroke="black" d="M1730.46,-178.54C1730.31,-170.92 1730.16,-162.75 1730.01,-154.77"/>
<polygon fill="black" stroke="black" points="1733.51,-154.76 1729.82,-144.82 1726.51,-154.89 1733.51,-154.76"/>
</g>
<!-- 267 -->
<g id="node46" class="node">
<title>267</title>
<path fill="#eda572" stroke="black" d="M1953.5,-143C1953.5,-143 1834.75,-143 1834.75,-143 1828.75,-143 1822.75,-137 1822.75,-131 1822.75,-131 1822.75,-84 1822.75,-84 1822.75,-78 1828.75,-72 1834.75,-72 1834.75,-72 1953.5,-72 1953.5,-72 1959.5,-72 1965.5,-78 1965.5,-84 1965.5,-84 1965.5,-131 1965.5,-131 1965.5,-137 1959.5,-143 1953.5,-143"/>
<text text-anchor="start" x="1854" y="-125.7" font-family="Helvetica,sans-Serif" font-size="14.00">P4_7_3 ≤ 1.5</text>
<text text-anchor="start" x="1830.75" y="-109.95" font-family="Helvetica,sans-Serif" font-size="14.00">squared_error = 3.21</text>
<text text-anchor="start" x="1849.5" y="-94.2" font-family="Helvetica,sans-Serif" font-size="14.00">samples = 435</text>
<text text-anchor="start" x="1849.5" y="-78.45" font-family="Helvetica,sans-Serif" font-size="14.00">value = 14.015</text>
</g>
<!-- 241&#45;&gt;267 -->
<g id="edge45" class="edge">
<title>241&#45;&gt;267</title>
<path fill="none" stroke="black" d="M1785.4,-178.54C1799.76,-169.29 1815.39,-159.22 1830.21,-149.67"/>
<polygon fill="black" stroke="black" points="1832.02,-152.67 1838.54,-144.31 1828.23,-146.78 1832.02,-152.67"/>
</g>
<!-- 243 -->
<g id="node44" class="node">
<title>243</title>
<path fill="#c0c0c0" stroke="black" d="M1682.12,-36C1682.12,-36 1652.12,-36 1652.12,-36 1646.12,-36 1640.12,-30 1640.12,-24 1640.12,-24 1640.12,-12 1640.12,-12 1640.12,-6 1646.12,0 1652.12,0 1652.12,0 1682.12,0 1682.12,0 1688.12,0 1694.12,-6 1694.12,-12 1694.12,-12 1694.12,-24 1694.12,-24 1694.12,-30 1688.12,-36 1682.12,-36"/>
<text text-anchor="middle" x="1667.12" y="-12.57" font-family="Helvetica,sans-Serif" font-size="14.00">(...)</text>
</g>
<!-- 242&#45;&gt;243 -->
<g id="edge43" class="edge">
<title>242&#45;&gt;243</title>
<path fill="none" stroke="black" d="M1704.44,-71.67C1698.23,-62.9 1691.66,-53.63 1685.8,-45.35"/>
<polygon fill="black" stroke="black" points="1688.81,-43.55 1680.18,-37.42 1683.1,-47.6 1688.81,-43.55"/>
</g>
<!-- 252 -->
<g id="node45" class="node">
<title>252</title>
<path fill="#c0c0c0" stroke="black" d="M1754.12,-36C1754.12,-36 1724.12,-36 1724.12,-36 1718.12,-36 1712.12,-30 1712.12,-24 1712.12,-24 1712.12,-12 1712.12,-12 1712.12,-6 1718.12,0 1724.12,0 1724.12,0 1754.12,0 1754.12,0 1760.12,0 1766.12,-6 1766.12,-12 1766.12,-12 1766.12,-24 1766.12,-24 1766.12,-30 1760.12,-36 1754.12,-36"/>
<text text-anchor="middle" x="1739.12" y="-12.57" font-family="Helvetica,sans-Serif" font-size="14.00">(...)</text>
</g>
<!-- 242&#45;&gt;252 -->
<g id="edge44" class="edge">
<title>242&#45;&gt;252</title>
<path fill="none" stroke="black" d="M1733.11,-71.67C1734.02,-63.66 1734.98,-55.24 1735.86,-47.53"/>
<polygon fill="black" stroke="black" points="1739.33,-48.02 1736.99,-37.69 1732.38,-47.22 1739.33,-48.02"/>
</g>
<!-- 268 -->
<g id="node47" class="node">
<title>268</title>
<path fill="#c0c0c0" stroke="black" d="M1847.12,-36C1847.12,-36 1817.12,-36 1817.12,-36 1811.12,-36 1805.12,-30 1805.12,-24 1805.12,-24 1805.12,-12 1805.12,-12 1805.12,-6 1811.12,0 1817.12,0 1817.12,0 1847.12,0 1847.12,0 1853.12,0 1859.12,-6 1859.12,-12 1859.12,-12 1859.12,-24 1859.12,-24 1859.12,-30 1853.12,-36 1847.12,-36"/>
<text text-anchor="middle" x="1832.12" y="-12.57" font-family="Helvetica,sans-Serif" font-size="14.00">(...)</text>
</g>
<!-- 267&#45;&gt;268 -->
<g id="edge46" class="edge">
<title>267&#45;&gt;268</title>
<path fill="none" stroke="black" d="M1869.44,-71.67C1863.23,-62.9 1856.66,-53.63 1850.8,-45.35"/>
<polygon fill="black" stroke="black" points="1853.81,-43.55 1845.18,-37.42 1848.1,-47.6 1853.81,-43.55"/>
</g>
<!-- 283 -->
<g id="node48" class="node">
<title>283</title>
<path fill="#c0c0c0" stroke="black" d="M1919.12,-36C1919.12,-36 1889.12,-36 1889.12,-36 1883.12,-36 1877.12,-30 1877.12,-24 1877.12,-24 1877.12,-12 1877.12,-12 1877.12,-6 1883.12,0 1889.12,0 1889.12,0 1919.12,0 1919.12,0 1925.12,0 1931.12,-6 1931.12,-12 1931.12,-12 1931.12,-24 1931.12,-24 1931.12,-30 1925.12,-36 1919.12,-36"/>
<text text-anchor="middle" x="1904.12" y="-12.57" font-family="Helvetica,sans-Serif" font-size="14.00">(...)</text>
</g>
<!-- 267&#45;&gt;283 -->
<g id="edge47" class="edge">
<title>267&#45;&gt;283</title>
<path fill="none" stroke="black" d="M1898.11,-71.67C1899.02,-63.66 1899.98,-55.24 1900.86,-47.53"/>
<polygon fill="black" stroke="black" points="1904.33,-48.02 1901.99,-37.69 1897.38,-47.22 1904.33,-48.02"/>
</g>
<!-- 295 -->
<g id="node50" class="node">
<title>295</title>
<path fill="#efb489" stroke="black" d="M2206.25,-250C2206.25,-250 2080,-250 2080,-250 2074,-250 2068,-244 2068,-238 2068,-238 2068,-191 2068,-191 2068,-185 2074,-179 2080,-179 2080,-179 2206.25,-179 2206.25,-179 2212.25,-179 2218.25,-185 2218.25,-191 2218.25,-191 2218.25,-238 2218.25,-238 2218.25,-244 2212.25,-250 2206.25,-250"/>
<text text-anchor="start" x="2099.62" y="-232.7" font-family="Helvetica,sans-Serif" font-size="14.00">P11_3_9 ≤ 0.5</text>
<text text-anchor="start" x="2076" y="-216.95" font-family="Helvetica,sans-Serif" font-size="14.00">squared_error = 4.089</text>
<text text-anchor="start" x="2098.5" y="-201.2" font-family="Helvetica,sans-Serif" font-size="14.00">samples = 440</text>
<text text-anchor="start" x="2098.5" y="-185.45" font-family="Helvetica,sans-Serif" font-size="14.00">value = 12.695</text>
</g>
<!-- 294&#45;&gt;295 -->
<g id="edge49" class="edge">
<title>294&#45;&gt;295</title>
<path fill="none" stroke="black" d="M2143.12,-285.54C2143.12,-277.92 2143.12,-269.75 2143.12,-261.77"/>
<polygon fill="black" stroke="black" points="2146.63,-261.82 2143.13,-251.82 2139.63,-261.82 2146.63,-261.82"/>
</g>
<!-- 340 -->
<g id="node57" class="node">
<title>340</title>
<path fill="#f3c7a7" stroke="black" d="M2458.25,-250C2458.25,-250 2332,-250 2332,-250 2326,-250 2320,-244 2320,-238 2320,-238 2320,-191 2320,-191 2320,-185 2326,-179 2332,-179 2332,-179 2458.25,-179 2458.25,-179 2464.25,-179 2470.25,-185 2470.25,-191 2470.25,-191 2470.25,-238 2470.25,-238 2470.25,-244 2464.25,-250 2458.25,-250"/>
<text text-anchor="start" x="2355" y="-232.7" font-family="Helvetica,sans-Serif" font-size="14.00">P4_8_1 ≤ 2.5</text>
<text text-anchor="start" x="2328" y="-216.95" font-family="Helvetica,sans-Serif" font-size="14.00">squared_error = 3.774</text>
<text text-anchor="start" x="2350.5" y="-201.2" font-family="Helvetica,sans-Serif" font-size="14.00">samples = 824</text>
<text text-anchor="start" x="2350.5" y="-185.45" font-family="Helvetica,sans-Serif" font-size="14.00">value = 10.905</text>
</g>
<!-- 294&#45;&gt;340 -->
<g id="edge56" class="edge">
<title>294&#45;&gt;340</title>
<path fill="none" stroke="black" d="M2218.05,-289.28C2246.73,-277.33 2279.66,-263.61 2309.29,-251.27"/>
<polygon fill="black" stroke="black" points="2310.34,-254.62 2318.22,-247.54 2307.64,-248.16 2310.34,-254.62"/>
</g>
<!-- 296 -->
<g id="node51" class="node">
<title>296</title>
<path fill="#eeaa7a" stroke="black" d="M2122.25,-143C2122.25,-143 1996,-143 1996,-143 1990,-143 1984,-137 1984,-131 1984,-131 1984,-84 1984,-84 1984,-78 1990,-72 1996,-72 1996,-72 2122.25,-72 2122.25,-72 2128.25,-72 2134.25,-78 2134.25,-84 2134.25,-84 2134.25,-131 2134.25,-131 2134.25,-137 2128.25,-143 2122.25,-143"/>
<text text-anchor="start" x="2019" y="-125.7" font-family="Helvetica,sans-Serif" font-size="14.00">P4_8_1 ≤ 2.5</text>
<text text-anchor="start" x="1992" y="-109.95" font-family="Helvetica,sans-Serif" font-size="14.00">squared_error = 3.133</text>
<text text-anchor="start" x="2014.5" y="-94.2" font-family="Helvetica,sans-Serif" font-size="14.00">samples = 223</text>
<text text-anchor="start" x="2014.5" y="-78.45" font-family="Helvetica,sans-Serif" font-size="14.00">value = 13.559</text>
</g>
<!-- 295&#45;&gt;296 -->
<g id="edge50" class="edge">
<title>295&#45;&gt;296</title>
<path fill="none" stroke="black" d="M2115.15,-178.54C2108.42,-170.12 2101.15,-161.03 2094.14,-152.27"/>
<polygon fill="black" stroke="black" points="2096.9,-150.11 2087.92,-144.49 2091.43,-154.49 2096.9,-150.11"/>
</g>
<!-- 315 -->
<g id="node54" class="node">
<title>315</title>
<path fill="#f1bd98" stroke="black" d="M2290.25,-143C2290.25,-143 2164,-143 2164,-143 2158,-143 2152,-137 2152,-131 2152,-131 2152,-84 2152,-84 2152,-78 2158,-72 2164,-72 2164,-72 2290.25,-72 2290.25,-72 2296.25,-72 2302.25,-78 2302.25,-84 2302.25,-84 2302.25,-131 2302.25,-131 2302.25,-137 2296.25,-143 2290.25,-143"/>
<text text-anchor="start" x="2187" y="-125.7" font-family="Helvetica,sans-Serif" font-size="14.00">P4_8_1 ≤ 2.5</text>
<text text-anchor="start" x="2160" y="-109.95" font-family="Helvetica,sans-Serif" font-size="14.00">squared_error = 3.517</text>
<text text-anchor="start" x="2182.5" y="-94.2" font-family="Helvetica,sans-Serif" font-size="14.00">samples = 217</text>
<text text-anchor="start" x="2182.88" y="-78.45" font-family="Helvetica,sans-Serif" font-size="14.00">value = 11.808</text>
</g>
<!-- 295&#45;&gt;315 -->
<g id="edge53" class="edge">
<title>295&#45;&gt;315</title>
<path fill="none" stroke="black" d="M2171.1,-178.54C2177.83,-170.12 2185.1,-161.03 2192.11,-152.27"/>
<polygon fill="black" stroke="black" points="2194.82,-154.49 2198.33,-144.49 2189.35,-150.11 2194.82,-154.49"/>
</g>
<!-- 297 -->
<g id="node52" class="node">
<title>297</title>
<path fill="#c0c0c0" stroke="black" d="M2014.12,-36C2014.12,-36 1984.12,-36 1984.12,-36 1978.12,-36 1972.12,-30 1972.12,-24 1972.12,-24 1972.12,-12 1972.12,-12 1972.12,-6 1978.12,0 1984.12,0 1984.12,0 2014.12,0 2014.12,0 2020.12,0 2026.12,-6 2026.12,-12 2026.12,-12 2026.12,-24 2026.12,-24 2026.12,-30 2020.12,-36 2014.12,-36"/>
<text text-anchor="middle" x="1999.12" y="-12.57" font-family="Helvetica,sans-Serif" font-size="14.00">(...)</text>
</g>
<!-- 296&#45;&gt;297 -->
<g id="edge51" class="edge">
<title>296&#45;&gt;297</title>
<path fill="none" stroke="black" d="M2035.24,-71.67C2029.29,-62.99 2023.01,-53.83 2017.38,-45.62"/>
<polygon fill="black" stroke="black" points="2020.31,-43.7 2011.76,-37.43 2014.53,-47.66 2020.31,-43.7"/>
</g>
<!-- 306 -->
<g id="node53" class="node">
<title>306</title>
<path fill="#c0c0c0" stroke="black" d="M2086.12,-36C2086.12,-36 2056.12,-36 2056.12,-36 2050.12,-36 2044.12,-30 2044.12,-24 2044.12,-24 2044.12,-12 2044.12,-12 2044.12,-6 2050.12,0 2056.12,0 2056.12,0 2086.12,0 2086.12,0 2092.12,0 2098.12,-6 2098.12,-12 2098.12,-12 2098.12,-24 2098.12,-24 2098.12,-30 2092.12,-36 2086.12,-36"/>
<text text-anchor="middle" x="2071.12" y="-12.57" font-family="Helvetica,sans-Serif" font-size="14.00">(...)</text>
</g>
<!-- 296&#45;&gt;306 -->
<g id="edge52" class="edge">
<title>296&#45;&gt;306</title>
<path fill="none" stroke="black" d="M2063.9,-71.67C2065,-63.66 2066.16,-55.24 2067.21,-47.53"/>
<polygon fill="black" stroke="black" points="2070.67,-48.07 2068.56,-37.68 2063.74,-47.11 2070.67,-48.07"/>
</g>
<!-- 316 -->
<g id="node55" class="node">
<title>316</title>
<path fill="#c0c0c0" stroke="black" d="M2182.12,-36C2182.12,-36 2152.12,-36 2152.12,-36 2146.12,-36 2140.12,-30 2140.12,-24 2140.12,-24 2140.12,-12 2140.12,-12 2140.12,-6 2146.12,0 2152.12,0 2152.12,0 2182.12,0 2182.12,0 2188.12,0 2194.12,-6 2194.12,-12 2194.12,-12 2194.12,-24 2194.12,-24 2194.12,-30 2188.12,-36 2182.12,-36"/>
<text text-anchor="middle" x="2167.12" y="-12.57" font-family="Helvetica,sans-Serif" font-size="14.00">(...)</text>
</g>
<!-- 315&#45;&gt;316 -->
<g id="edge54" class="edge">
<title>315&#45;&gt;316</title>
<path fill="none" stroke="black" d="M2203.24,-71.67C2197.29,-62.99 2191.01,-53.83 2185.38,-45.62"/>
<polygon fill="black" stroke="black" points="2188.31,-43.7 2179.76,-37.43 2182.53,-47.66 2188.31,-43.7"/>
</g>
<!-- 329 -->
<g id="node56" class="node">
<title>329</title>
<path fill="#c0c0c0" stroke="black" d="M2254.12,-36C2254.12,-36 2224.12,-36 2224.12,-36 2218.12,-36 2212.12,-30 2212.12,-24 2212.12,-24 2212.12,-12 2212.12,-12 2212.12,-6 2218.12,0 2224.12,0 2224.12,0 2254.12,0 2254.12,0 2260.12,0 2266.12,-6 2266.12,-12 2266.12,-12 2266.12,-24 2266.12,-24 2266.12,-30 2260.12,-36 2254.12,-36"/>
<text text-anchor="middle" x="2239.12" y="-12.57" font-family="Helvetica,sans-Serif" font-size="14.00">(...)</text>
</g>
<!-- 315&#45;&gt;329 -->
<g id="edge55" class="edge">
<title>315&#45;&gt;329</title>
<path fill="none" stroke="black" d="M2231.9,-71.67C2233,-63.66 2234.16,-55.24 2235.21,-47.53"/>
<polygon fill="black" stroke="black" points="2238.67,-48.07 2236.56,-37.68 2231.74,-47.11 2238.67,-48.07"/>
</g>
<!-- 341 -->
<g id="node58" class="node">
<title>341</title>
<path fill="#f5cdb1" stroke="black" d="M2458.25,-143C2458.25,-143 2332,-143 2332,-143 2326,-143 2320,-137 2320,-131 2320,-131 2320,-84 2320,-84 2320,-78 2326,-72 2332,-72 2332,-72 2458.25,-72 2458.25,-72 2464.25,-72 2470.25,-78 2470.25,-84 2470.25,-84 2470.25,-131 2470.25,-131 2470.25,-137 2464.25,-143 2458.25,-143"/>
<text text-anchor="start" x="2355" y="-125.7" font-family="Helvetica,sans-Serif" font-size="14.00">P4_7_2 ≤ 1.5</text>
<text text-anchor="start" x="2328" y="-109.95" font-family="Helvetica,sans-Serif" font-size="14.00">squared_error = 3.276</text>
<text text-anchor="start" x="2350.5" y="-94.2" font-family="Helvetica,sans-Serif" font-size="14.00">samples = 494</text>
<text text-anchor="start" x="2350.5" y="-78.45" font-family="Helvetica,sans-Serif" font-size="14.00">value = 10.343</text>
</g>
<!-- 340&#45;&gt;341 -->
<g id="edge57" class="edge">
<title>340&#45;&gt;341</title>
<path fill="none" stroke="black" d="M2395.12,-178.54C2395.12,-170.92 2395.12,-162.75 2395.12,-154.77"/>
<polygon fill="black" stroke="black" points="2398.63,-154.82 2395.13,-144.82 2391.63,-154.82 2398.63,-154.82"/>
</g>
<!-- 368 -->
<g id="node61" class="node">
<title>368</title>
<path fill="#f2be99" stroke="black" d="M2626.25,-143C2626.25,-143 2500,-143 2500,-143 2494,-143 2488,-137 2488,-131 2488,-131 2488,-84 2488,-84 2488,-78 2494,-72 2500,-72 2500,-72 2626.25,-72 2626.25,-72 2632.25,-72 2638.25,-78 2638.25,-84 2638.25,-84 2638.25,-131 2638.25,-131 2638.25,-137 2632.25,-143 2626.25,-143"/>
<text text-anchor="start" x="2523" y="-125.7" font-family="Helvetica,sans-Serif" font-size="14.00">P4_7_3 ≤ 1.5</text>
<text text-anchor="start" x="2496" y="-109.95" font-family="Helvetica,sans-Serif" font-size="14.00">squared_error = 3.336</text>
<text text-anchor="start" x="2518.5" y="-94.2" font-family="Helvetica,sans-Serif" font-size="14.00">samples = 330</text>
<text text-anchor="start" x="2518.88" y="-78.45" font-family="Helvetica,sans-Serif" font-size="14.00">value = 11.747</text>
</g>
<!-- 340&#45;&gt;368 -->
<g id="edge60" class="edge">
<title>340&#45;&gt;368</title>
<path fill="none" stroke="black" d="M2451.07,-178.54C2466.01,-169.2 2482.28,-159.03 2497.69,-149.4"/>
<polygon fill="black" stroke="black" points="2499.23,-152.56 2505.86,-144.29 2495.52,-146.62 2499.23,-152.56"/>
</g>
<!-- 342 -->
<g id="node59" class="node">
<title>342</title>
<path fill="#c0c0c0" stroke="black" d="M2368.12,-36C2368.12,-36 2338.12,-36 2338.12,-36 2332.12,-36 2326.12,-30 2326.12,-24 2326.12,-24 2326.12,-12 2326.12,-12 2326.12,-6 2332.12,0 2338.12,0 2338.12,0 2368.12,0 2368.12,0 2374.12,0 2380.12,-6 2380.12,-12 2380.12,-12 2380.12,-24 2380.12,-24 2380.12,-30 2374.12,-36 2368.12,-36"/>
<text text-anchor="middle" x="2353.12" y="-12.57" font-family="Helvetica,sans-Serif" font-size="14.00">(...)</text>
</g>
<!-- 341&#45;&gt;342 -->
<g id="edge58" class="edge">
<title>341&#45;&gt;342</title>
<path fill="none" stroke="black" d="M2378.4,-71.67C2374.38,-63.28 2370.13,-54.43 2366.3,-46.44"/>
<polygon fill="black" stroke="black" points="2369.51,-45.05 2362.03,-37.55 2363.2,-48.08 2369.51,-45.05"/>
</g>
<!-- 357 -->
<g id="node60" class="node">
<title>357</title>
<path fill="#c0c0c0" stroke="black" d="M2440.12,-36C2440.12,-36 2410.12,-36 2410.12,-36 2404.12,-36 2398.12,-30 2398.12,-24 2398.12,-24 2398.12,-12 2398.12,-12 2398.12,-6 2404.12,0 2410.12,0 2410.12,0 2440.12,0 2440.12,0 2446.12,0 2452.12,-6 2452.12,-12 2452.12,-12 2452.12,-24 2452.12,-24 2452.12,-30 2446.12,-36 2440.12,-36"/>
<text text-anchor="middle" x="2425.12" y="-12.57" font-family="Helvetica,sans-Serif" font-size="14.00">(...)</text>
</g>
<!-- 341&#45;&gt;357 -->
<g id="edge59" class="edge">
<title>341&#45;&gt;357</title>
<path fill="none" stroke="black" d="M2407.07,-71.67C2409.88,-63.47 2412.84,-54.84 2415.53,-46.98"/>
<polygon fill="black" stroke="black" points="2418.81,-48.21 2418.74,-37.61 2412.19,-45.94 2418.81,-48.21"/>
</g>
<!-- 369 -->
<g id="node62" class="node">
<title>369</title>
<path fill="#c0c0c0" stroke="black" d="M2542.12,-36C2542.12,-36 2512.12,-36 2512.12,-36 2506.12,-36 2500.12,-30 2500.12,-24 2500.12,-24 2500.12,-12 2500.12,-12 2500.12,-6 2506.12,0 2512.12,0 2512.12,0 2542.12,0 2542.12,0 2548.12,0 2554.12,-6 2554.12,-12 2554.12,-12 2554.12,-24 2554.12,-24 2554.12,-30 2548.12,-36 2542.12,-36"/>
<text text-anchor="middle" x="2527.12" y="-12.57" font-family="Helvetica,sans-Serif" font-size="14.00">(...)</text>
</g>
<!-- 368&#45;&gt;369 -->
<g id="edge61" class="edge">
<title>368&#45;&gt;369</title>
<path fill="none" stroke="black" d="M2548.79,-71.67C2545.38,-63.37 2541.79,-54.63 2538.53,-46.71"/>
<polygon fill="black" stroke="black" points="2541.81,-45.5 2534.77,-37.58 2535.34,-48.16 2541.81,-45.5"/>
</g>
<!-- 382 -->
<g id="node63" class="node">
<title>382</title>
<path fill="#c0c0c0" stroke="black" d="M2614.12,-36C2614.12,-36 2584.12,-36 2584.12,-36 2578.12,-36 2572.12,-30 2572.12,-24 2572.12,-24 2572.12,-12 2572.12,-12 2572.12,-6 2578.12,0 2584.12,0 2584.12,0 2614.12,0 2614.12,0 2620.12,0 2626.12,-6 2626.12,-12 2626.12,-12 2626.12,-24 2626.12,-24 2626.12,-30 2620.12,-36 2614.12,-36"/>
<text text-anchor="middle" x="2599.12" y="-12.57" font-family="Helvetica,sans-Serif" font-size="14.00">(...)</text>
</g>
<!-- 368&#45;&gt;382 -->
<g id="edge62" class="edge">
<title>368&#45;&gt;382</title>
<path fill="none" stroke="black" d="M2577.46,-71.67C2580.87,-63.37 2584.46,-54.63 2587.72,-46.71"/>
<polygon fill="black" stroke="black" points="2590.91,-48.16 2591.48,-37.58 2584.44,-45.5 2590.91,-48.16"/>
</g>
</g>
</svg>
