<?xml version="1.0" encoding="UTF-8" standalone="no"?>
<!DOCTYPE svg PUBLIC "-//W3C//DTD SVG 1.1//EN"
 "http://www.w3.org/Graphics/SVG/1.1/DTD/svg11.dtd">
<!-- Generated by graphviz version 12.2.1 (20241206.2353)
 -->
<!-- Title: Tree Pages: 1 -->
<svg width="2666pt" height="579pt"
 viewBox="0.00 0.00 2665.50 579.00" xmlns="http://www.w3.org/2000/svg" xmlns:xlink="http://www.w3.org/1999/xlink">
<g id="graph0" class="graph" transform="scale(1 1) rotate(0) translate(4 575)">
<title>Tree</title>
<polygon fill="white" stroke="none" points="-4,4 -4,-575 2661.5,-575 2661.5,4 -4,4"/>
<!-- 0 -->
<g id="node1" class="node">
<title>0</title>
<path fill="#f2c29f" stroke="black" d="M1480.25,-571C1480.25,-571 1354,-571 1354,-571 1348,-571 1342,-565 1342,-559 1342,-559 1342,-512 1342,-512 1342,-506 1348,-500 1354,-500 1354,-500 1480.25,-500 1480.25,-500 1486.25,-500 1492.25,-506 1492.25,-512 1492.25,-512 1492.25,-559 1492.25,-559 1492.25,-565 1486.25,-571 1480.25,-571"/>
<text text-anchor="start" x="1377" y="-553.7" font-family="Helvetica,sans-Serif" font-size="14.00">P4_8_3 ≤ 1.5</text>
<text text-anchor="start" x="1350" y="-537.95" font-family="Helvetica,sans-Serif" font-size="14.00">squared_error = 6.944</text>
<text text-anchor="start" x="1368.75" y="-522.2" font-family="Helvetica,sans-Serif" font-size="14.00">samples = 4969</text>
<text text-anchor="start" x="1372.88" y="-506.45" font-family="Helvetica,sans-Serif" font-size="14.00">value = 11.934</text>
</g>
<!-- 1 -->
<g id="node2" class="node">
<title>1</title>
<path fill="#f0b58b" stroke="black" d="M1062.25,-464C1062.25,-464 936,-464 936,-464 930,-464 924,-458 924,-452 924,-452 924,-405 924,-405 924,-399 930,-393 936,-393 936,-393 1062.25,-393 1062.25,-393 1068.25,-393 1074.25,-399 1074.25,-405 1074.25,-405 1074.25,-452 1074.25,-452 1074.25,-458 1068.25,-464 1062.25,-464"/>
<text text-anchor="start" x="959" y="-446.7" font-family="Helvetica,sans-Serif" font-size="14.00">P4_8_2 ≤ 1.5</text>
<text text-anchor="start" x="932" y="-430.95" font-family="Helvetica,sans-Serif" font-size="14.00">squared_error = 5.952</text>
<text text-anchor="start" x="950.75" y="-415.2" font-family="Helvetica,sans-Serif" font-size="14.00">samples = 2410</text>
<text text-anchor="start" x="954.5" y="-399.45" font-family="Helvetica,sans-Serif" font-size="14.00">value = 13.139</text>
</g>
<!-- 0&#45;&gt;1 -->
<g id="edge1" class="edge">
<title>0&#45;&gt;1</title>
<path fill="none" stroke="black" d="M1341.91,-515.61C1269.77,-497.49 1160.95,-470.15 1085.34,-451.16"/>
<polygon fill="black" stroke="black" points="1086.46,-447.83 1075.91,-448.79 1084.75,-454.62 1086.46,-447.83"/>
<text text-anchor="middle" x="1087.28" y="-464.45" font-family="Helvetica,sans-Serif" font-size="14.00">True</text>
</g>
<!-- 322 -->
<g id="node33" class="node">
<title>322</title>
<path fill="#f5ceb2" stroke="black" d="M1730.25,-464C1730.25,-464 1604,-464 1604,-464 1598,-464 1592,-458 1592,-452 1592,-452 1592,-405 1592,-405 1592,-399 1598,-393 1604,-393 1604,-393 1730.25,-393 1730.25,-393 1736.25,-393 1742.25,-399 1742.25,-405 1742.25,-405 1742.25,-452 1742.25,-452 1742.25,-458 1736.25,-464 1730.25,-464"/>
<text text-anchor="start" x="1627" y="-446.7" font-family="Helvetica,sans-Serif" font-size="14.00">P4_6_1 ≤ 1.5</text>
<text text-anchor="start" x="1600" y="-430.95" font-family="Helvetica,sans-Serif" font-size="14.00">squared_error = 5.223</text>
<text text-anchor="start" x="1618.75" y="-415.2" font-family="Helvetica,sans-Serif" font-size="14.00">samples = 2559</text>
<text text-anchor="start" x="1622.5" y="-399.45" font-family="Helvetica,sans-Serif" font-size="14.00">value = 10.799</text>
</g>
<!-- 0&#45;&gt;322 -->
<g id="edge32" class="edge">
<title>0&#45;&gt;322</title>
<path fill="none" stroke="black" d="M1492.47,-502.85C1520.39,-491.13 1552.24,-477.75 1581.04,-465.65"/>
<polygon fill="black" stroke="black" points="1582.24,-468.95 1590.11,-461.85 1579.53,-462.49 1582.24,-468.95"/>
<text text-anchor="middle" x="1582.05" y="-478.98" font-family="Helvetica,sans-Serif" font-size="14.00">False</text>
</g>
<!-- 2 -->
<g id="node3" class="node">
<title>2</title>
<path fill="#f3c4a2" stroke="black" d="M558.25,-357C558.25,-357 432,-357 432,-357 426,-357 420,-351 420,-345 420,-345 420,-298 420,-298 420,-292 426,-286 432,-286 432,-286 558.25,-286 558.25,-286 564.25,-286 570.25,-292 570.25,-298 570.25,-298 570.25,-345 570.25,-345 570.25,-351 564.25,-357 558.25,-357"/>
<text text-anchor="start" x="462.5" y="-339.7" font-family="Helvetica,sans-Serif" font-size="14.00">P4_1 ≤ 0.5</text>
<text text-anchor="start" x="428" y="-323.95" font-family="Helvetica,sans-Serif" font-size="14.00">squared_error = 4.638</text>
<text text-anchor="start" x="450.5" y="-308.2" font-family="Helvetica,sans-Serif" font-size="14.00">samples = 951</text>
<text text-anchor="start" x="450.88" y="-292.45" font-family="Helvetica,sans-Serif" font-size="14.00">value = 11.786</text>
</g>
<!-- 1&#45;&gt;2 -->
<g id="edge2" class="edge">
<title>1&#45;&gt;2</title>
<path fill="none" stroke="black" d="M923.67,-411.78C832.14,-392.71 678.17,-360.63 581.85,-340.57"/>
<polygon fill="black" stroke="black" points="582.67,-337.16 572.16,-338.55 581.24,-344.02 582.67,-337.16"/>
</g>
<!-- 143 -->
<g id="node18" class="node">
<title>143</title>
<path fill="#eeac7d" stroke="black" d="M1062.25,-357C1062.25,-357 936,-357 936,-357 930,-357 924,-351 924,-345 924,-345 924,-298 924,-298 924,-292 930,-286 936,-286 936,-286 1062.25,-286 1062.25,-286 1068.25,-286 1074.25,-292 1074.25,-298 1074.25,-298 1074.25,-345 1074.25,-345 1074.25,-351 1068.25,-357 1062.25,-357"/>
<text text-anchor="start" x="966.5" y="-339.7" font-family="Helvetica,sans-Serif" font-size="14.00">P4_1 ≤ 0.5</text>
<text text-anchor="start" x="932" y="-323.95" font-family="Helvetica,sans-Serif" font-size="14.00">squared_error = 4.838</text>
<text text-anchor="start" x="950.75" y="-308.2" font-family="Helvetica,sans-Serif" font-size="14.00">samples = 1459</text>
<text text-anchor="start" x="954.5" y="-292.45" font-family="Helvetica,sans-Serif" font-size="14.00">value = 14.021</text>
</g>
<!-- 1&#45;&gt;143 -->
<g id="edge17" class="edge">
<title>1&#45;&gt;143</title>
<path fill="none" stroke="black" d="M999.12,-392.54C999.12,-384.92 999.12,-376.75 999.12,-368.77"/>
<polygon fill="black" stroke="black" points="1002.63,-368.82 999.13,-358.82 995.63,-368.82 1002.63,-368.82"/>
</g>
<!-- 3 -->
<g id="node4" class="node">
<title>3</title>
<path fill="#f0b68d" stroke="black" d="M306.25,-250C306.25,-250 180,-250 180,-250 174,-250 168,-244 168,-238 168,-238 168,-191 168,-191 168,-185 174,-179 180,-179 180,-179 306.25,-179 306.25,-179 312.25,-179 318.25,-185 318.25,-191 318.25,-191 318.25,-238 318.25,-238 318.25,-244 312.25,-250 306.25,-250"/>
<text text-anchor="start" x="203" y="-232.7" font-family="Helvetica,sans-Serif" font-size="14.00">P4_6_4 ≤ 1.5</text>
<text text-anchor="start" x="176" y="-216.95" font-family="Helvetica,sans-Serif" font-size="14.00">squared_error = 4.009</text>
<text text-anchor="start" x="198.5" y="-201.2" font-family="Helvetica,sans-Serif" font-size="14.00">samples = 282</text>
<text text-anchor="start" x="198.5" y="-185.45" font-family="Helvetica,sans-Serif" font-size="14.00">value = 13.067</text>
</g>
<!-- 2&#45;&gt;3 -->
<g id="edge3" class="edge">
<title>2&#45;&gt;3</title>
<path fill="none" stroke="black" d="M419.52,-289C390.99,-277.11 358.33,-263.5 328.93,-251.25"/>
<polygon fill="black" stroke="black" points="330.65,-248.18 320.08,-247.56 327.96,-254.64 330.65,-248.18"/>
</g>
<!-- 50 -->
<g id="node11" class="node">
<title>50</title>
<path fill="#f4c9ab" stroke="black" d="M558.25,-250C558.25,-250 432,-250 432,-250 426,-250 420,-244 420,-238 420,-238 420,-191 420,-191 420,-185 426,-179 432,-179 432,-179 558.25,-179 558.25,-179 564.25,-179 570.25,-185 570.25,-191 570.25,-191 570.25,-238 570.25,-238 570.25,-244 564.25,-250 558.25,-250"/>
<text text-anchor="start" x="451.62" y="-232.7" font-family="Helvetica,sans-Serif" font-size="14.00">P11_3_9 ≤ 0.5</text>
<text text-anchor="start" x="428" y="-216.95" font-family="Helvetica,sans-Serif" font-size="14.00">squared_error = 3.918</text>
<text text-anchor="start" x="450.5" y="-201.2" font-family="Helvetica,sans-Serif" font-size="14.00">samples = 669</text>
<text text-anchor="start" x="450.88" y="-185.45" font-family="Helvetica,sans-Serif" font-size="14.00">value = 11.246</text>
</g>
<!-- 2&#45;&gt;50 -->
<g id="edge10" class="edge">
<title>2&#45;&gt;50</title>
<path fill="none" stroke="black" d="M495.12,-285.54C495.12,-277.92 495.12,-269.75 495.12,-261.77"/>
<polygon fill="black" stroke="black" points="498.63,-261.82 495.13,-251.82 491.63,-261.82 498.63,-261.82"/>
</g>
<!-- 4 -->
<g id="node5" class="node">
<title>4</title>
<path fill="#eeae80" stroke="black" d="M138.25,-143C138.25,-143 12,-143 12,-143 6,-143 0,-137 0,-131 0,-131 0,-84 0,-84 0,-78 6,-72 12,-72 12,-72 138.25,-72 138.25,-72 144.25,-72 150.25,-78 150.25,-84 150.25,-84 150.25,-131 150.25,-131 150.25,-137 144.25,-143 138.25,-143"/>
<text text-anchor="start" x="35" y="-125.7" font-family="Helvetica,sans-Serif" font-size="14.00">P4_8_1 ≤ 2.5</text>
<text text-anchor="start" x="8" y="-109.95" font-family="Helvetica,sans-Serif" font-size="14.00">squared_error = 2.956</text>
<text text-anchor="start" x="30.5" y="-94.2" font-family="Helvetica,sans-Serif" font-size="14.00">samples = 167</text>
<text text-anchor="start" x="30.5" y="-78.45" font-family="Helvetica,sans-Serif" font-size="14.00">value = 13.814</text>
</g>
<!-- 3&#45;&gt;4 -->
<g id="edge4" class="edge">
<title>3&#45;&gt;4</title>
<path fill="none" stroke="black" d="M187.18,-178.54C172.24,-169.2 155.97,-159.03 140.56,-149.4"/>
<polygon fill="black" stroke="black" points="142.73,-146.62 132.39,-144.29 139.02,-152.56 142.73,-146.62"/>
</g>
<!-- 31 -->
<g id="node8" class="node">
<title>31</title>
<path fill="#f2c29f" stroke="black" d="M306.25,-143C306.25,-143 180,-143 180,-143 174,-143 168,-137 168,-131 168,-131 168,-84 168,-84 168,-78 174,-72 180,-72 180,-72 306.25,-72 306.25,-72 312.25,-72 318.25,-78 318.25,-84 318.25,-84 318.25,-131 318.25,-131 318.25,-137 312.25,-143 306.25,-143"/>
<text text-anchor="start" x="203" y="-125.7" font-family="Helvetica,sans-Serif" font-size="14.00">P4_8_1 ≤ 1.5</text>
<text text-anchor="start" x="176" y="-109.95" font-family="Helvetica,sans-Serif" font-size="14.00">squared_error = 3.551</text>
<text text-anchor="start" x="198.88" y="-94.2" font-family="Helvetica,sans-Serif" font-size="14.00">samples = 115</text>
<text text-anchor="start" x="198.88" y="-78.45" font-family="Helvetica,sans-Serif" font-size="14.00">value = 11.983</text>
</g>
<!-- 3&#45;&gt;31 -->
<g id="edge7" class="edge">
<title>3&#45;&gt;31</title>
<path fill="none" stroke="black" d="M243.12,-178.54C243.12,-170.92 243.12,-162.75 243.12,-154.77"/>
<polygon fill="black" stroke="black" points="246.63,-154.82 243.13,-144.82 239.63,-154.82 246.63,-154.82"/>
</g>
<!-- 5 -->
<g id="node6" class="node">
<title>5</title>
<path fill="#c0c0c0" stroke="black" d="M54.12,-36C54.12,-36 24.12,-36 24.12,-36 18.12,-36 12.12,-30 12.12,-24 12.12,-24 12.12,-12 12.12,-12 12.12,-6 18.12,0 24.12,0 24.12,0 54.12,0 54.12,0 60.12,0 66.12,-6 66.12,-12 66.12,-12 66.12,-24 66.12,-24 66.12,-30 60.12,-36 54.12,-36"/>
<text text-anchor="middle" x="39.12" y="-12.57" font-family="Helvetica,sans-Serif" font-size="14.00">(...)</text>
</g>
<!-- 4&#45;&gt;5 -->
<g id="edge5" class="edge">
<title>4&#45;&gt;5</title>
<path fill="none" stroke="black" d="M60.79,-71.67C57.38,-63.37 53.79,-54.63 50.53,-46.71"/>
<polygon fill="black" stroke="black" points="53.81,-45.5 46.77,-37.58 47.34,-48.16 53.81,-45.5"/>
</g>
<!-- 24 -->
<g id="node7" class="node">
<title>24</title>
<path fill="#c0c0c0" stroke="black" d="M126.12,-36C126.12,-36 96.12,-36 96.12,-36 90.12,-36 84.12,-30 84.12,-24 84.12,-24 84.12,-12 84.12,-12 84.12,-6 90.12,0 96.12,0 96.12,0 126.12,0 126.12,0 132.12,0 138.12,-6 138.12,-12 138.12,-12 138.12,-24 138.12,-24 138.12,-30 132.12,-36 126.12,-36"/>
<text text-anchor="middle" x="111.12" y="-12.57" font-family="Helvetica,sans-Serif" font-size="14.00">(...)</text>
</g>
<!-- 4&#45;&gt;24 -->
<g id="edge6" class="edge">
<title>4&#45;&gt;24</title>
<path fill="none" stroke="black" d="M89.46,-71.67C92.87,-63.37 96.46,-54.63 99.72,-46.71"/>
<polygon fill="black" stroke="black" points="102.91,-48.16 103.48,-37.58 96.44,-45.5 102.91,-48.16"/>
</g>
<!-- 32 -->
<g id="node9" class="node">
<title>32</title>
<path fill="#c0c0c0" stroke="black" d="M228.12,-36C228.12,-36 198.12,-36 198.12,-36 192.12,-36 186.12,-30 186.12,-24 186.12,-24 186.12,-12 186.12,-12 186.12,-6 192.12,0 198.12,0 198.12,0 228.12,0 228.12,0 234.12,0 240.12,-6 240.12,-12 240.12,-12 240.12,-24 240.12,-24 240.12,-30 234.12,-36 228.12,-36"/>
<text text-anchor="middle" x="213.12" y="-12.57" font-family="Helvetica,sans-Serif" font-size="14.00">(...)</text>
</g>
<!-- 31&#45;&gt;32 -->
<g id="edge8" class="edge">
<title>31&#45;&gt;32</title>
<path fill="none" stroke="black" d="M231.18,-71.67C228.37,-63.47 225.41,-54.84 222.72,-46.98"/>
<polygon fill="black" stroke="black" points="226.06,-45.94 219.51,-37.61 219.44,-48.21 226.06,-45.94"/>
</g>
<!-- 43 -->
<g id="node10" class="node">
<title>43</title>
<path fill="#c0c0c0" stroke="black" d="M300.12,-36C300.12,-36 270.12,-36 270.12,-36 264.12,-36 258.12,-30 258.12,-24 258.12,-24 258.12,-12 258.12,-12 258.12,-6 264.12,0 270.12,0 270.12,0 300.12,0 300.12,0 306.12,0 312.12,-6 312.12,-12 312.12,-12 312.12,-24 312.12,-24 312.12,-30 306.12,-36 300.12,-36"/>
<text text-anchor="middle" x="285.12" y="-12.57" font-family="Helvetica,sans-Serif" font-size="14.00">(...)</text>
</g>
<!-- 31&#45;&gt;43 -->
<g id="edge9" class="edge">
<title>31&#45;&gt;43</title>
<path fill="none" stroke="black" d="M259.85,-71.67C263.87,-63.28 268.12,-54.43 271.95,-46.44"/>
<polygon fill="black" stroke="black" points="275.05,-48.08 276.22,-37.55 268.74,-45.05 275.05,-48.08"/>
</g>
<!-- 51 -->
<g id="node12" class="node">
<title>51</title>
<path fill="#f3c3a1" stroke="black" d="M474.25,-143C474.25,-143 348,-143 348,-143 342,-143 336,-137 336,-131 336,-131 336,-84 336,-84 336,-78 342,-72 348,-72 348,-72 474.25,-72 474.25,-72 480.25,-72 486.25,-78 486.25,-84 486.25,-84 486.25,-131 486.25,-131 486.25,-137 480.25,-143 474.25,-143"/>
<text text-anchor="start" x="371" y="-125.7" font-family="Helvetica,sans-Serif" font-size="14.00">P4_6_3 ≤ 1.5</text>
<text text-anchor="start" x="344" y="-109.95" font-family="Helvetica,sans-Serif" font-size="14.00">squared_error = 3.672</text>
<text text-anchor="start" x="366.5" y="-94.2" font-family="Helvetica,sans-Serif" font-size="14.00">samples = 404</text>
<text text-anchor="start" x="366.88" y="-78.45" font-family="Helvetica,sans-Serif" font-size="14.00">value = 11.824</text>
</g>
<!-- 50&#45;&gt;51 -->
<g id="edge11" class="edge">
<title>50&#45;&gt;51</title>
<path fill="none" stroke="black" d="M467.15,-178.54C460.42,-170.12 453.15,-161.03 446.14,-152.27"/>
<polygon fill="black" stroke="black" points="448.9,-150.11 439.92,-144.49 443.43,-154.49 448.9,-150.11"/>
</g>
<!-- 104 -->
<g id="node15" class="node">
<title>104</title>
<path fill="#f6d3ba" stroke="black" d="M642.25,-143C642.25,-143 516,-143 516,-143 510,-143 504,-137 504,-131 504,-131 504,-84 504,-84 504,-78 510,-72 516,-72 516,-72 642.25,-72 642.25,-72 648.25,-72 654.25,-78 654.25,-84 654.25,-84 654.25,-131 654.25,-131 654.25,-137 648.25,-143 642.25,-143"/>
<text text-anchor="start" x="539" y="-125.7" font-family="Helvetica,sans-Serif" font-size="14.00">P4_7_2 ≤ 1.5</text>
<text text-anchor="start" x="512" y="-109.95" font-family="Helvetica,sans-Serif" font-size="14.00">squared_error = 3.005</text>
<text text-anchor="start" x="534.5" y="-94.2" font-family="Helvetica,sans-Serif" font-size="14.00">samples = 265</text>
<text text-anchor="start" x="534.5" y="-78.45" font-family="Helvetica,sans-Serif" font-size="14.00">value = 10.364</text>
</g>
<!-- 50&#45;&gt;104 -->
<g id="edge14" class="edge">
<title>50&#45;&gt;104</title>
<path fill="none" stroke="black" d="M523.1,-178.54C529.83,-170.12 537.1,-161.03 544.11,-152.27"/>
<polygon fill="black" stroke="black" points="546.82,-154.49 550.33,-144.49 541.35,-150.11 546.82,-154.49"/>
</g>
<!-- 52 -->
<g id="node13" class="node">
<title>52</title>
<path fill="#c0c0c0" stroke="black" d="M398.12,-36C398.12,-36 368.12,-36 368.12,-36 362.12,-36 356.12,-30 356.12,-24 356.12,-24 356.12,-12 356.12,-12 356.12,-6 362.12,0 368.12,0 368.12,0 398.12,0 398.12,0 404.12,0 410.12,-6 410.12,-12 410.12,-12 410.12,-24 410.12,-24 410.12,-30 404.12,-36 398.12,-36"/>
<text text-anchor="middle" x="383.12" y="-12.57" font-family="Helvetica,sans-Serif" font-size="14.00">(...)</text>
</g>
<!-- 51&#45;&gt;52 -->
<g id="edge12" class="edge">
<title>51&#45;&gt;52</title>
<path fill="none" stroke="black" d="M399.98,-71.67C397.36,-63.47 394.59,-54.84 392.08,-46.98"/>
<polygon fill="black" stroke="black" points="395.47,-46.08 389.08,-37.62 388.8,-48.22 395.47,-46.08"/>
</g>
<!-- 67 -->
<g id="node14" class="node">
<title>67</title>
<path fill="#c0c0c0" stroke="black" d="M470.12,-36C470.12,-36 440.12,-36 440.12,-36 434.12,-36 428.12,-30 428.12,-24 428.12,-24 428.12,-12 428.12,-12 428.12,-6 434.12,0 440.12,0 440.12,0 470.12,0 470.12,0 476.12,0 482.12,-6 482.12,-12 482.12,-12 482.12,-24 482.12,-24 482.12,-30 476.12,-36 470.12,-36"/>
<text text-anchor="middle" x="455.12" y="-12.57" font-family="Helvetica,sans-Serif" font-size="14.00">(...)</text>
</g>
<!-- 51&#45;&gt;67 -->
<g id="edge13" class="edge">
<title>51&#45;&gt;67</title>
<path fill="none" stroke="black" d="M428.64,-71.67C432.86,-63.28 437.31,-54.43 441.33,-46.44"/>
<polygon fill="black" stroke="black" points="444.44,-48.04 445.8,-37.53 438.19,-44.9 444.44,-48.04"/>
</g>
<!-- 105 -->
<g id="node16" class="node">
<title>105</title>
<path fill="#c0c0c0" stroke="black" d="M557.12,-36C557.12,-36 527.12,-36 527.12,-36 521.12,-36 515.12,-30 515.12,-24 515.12,-24 515.12,-12 515.12,-12 515.12,-6 521.12,0 527.12,0 527.12,0 557.12,0 557.12,0 563.12,0 569.12,-6 569.12,-12 569.12,-12 569.12,-24 569.12,-24 569.12,-30 563.12,-36 557.12,-36"/>
<text text-anchor="middle" x="542.12" y="-12.57" font-family="Helvetica,sans-Serif" font-size="14.00">(...)</text>
</g>
<!-- 104&#45;&gt;105 -->
<g id="edge15" class="edge">
<title>104&#45;&gt;105</title>
<path fill="none" stroke="black" d="M564.4,-71.67C560.89,-63.37 557.19,-54.63 553.84,-46.71"/>
<polygon fill="black" stroke="black" points="557.1,-45.42 549.98,-37.58 550.65,-48.15 557.1,-45.42"/>
</g>
<!-- 132 -->
<g id="node17" class="node">
<title>132</title>
<path fill="#c0c0c0" stroke="black" d="M629.12,-36C629.12,-36 599.12,-36 599.12,-36 593.12,-36 587.12,-30 587.12,-24 587.12,-24 587.12,-12 587.12,-12 587.12,-6 593.12,0 599.12,0 599.12,0 629.12,0 629.12,0 635.12,0 641.12,-6 641.12,-12 641.12,-12 641.12,-24 641.12,-24 641.12,-30 635.12,-36 629.12,-36"/>
<text text-anchor="middle" x="614.12" y="-12.57" font-family="Helvetica,sans-Serif" font-size="14.00">(...)</text>
</g>
<!-- 104&#45;&gt;132 -->
<g id="edge16" class="edge">
<title>104&#45;&gt;132</title>
<path fill="none" stroke="black" d="M593.06,-71.67C596.38,-63.37 599.87,-54.63 603.04,-46.71"/>
<polygon fill="black" stroke="black" points="606.23,-48.17 606.69,-37.59 599.73,-45.57 606.23,-48.17"/>
</g>
<!-- 144 -->
<g id="node19" class="node">
<title>144</title>
<path fill="#eca26c" stroke="black" d="M978.25,-250C978.25,-250 852,-250 852,-250 846,-250 840,-244 840,-238 840,-238 840,-191 840,-191 840,-185 846,-179 852,-179 852,-179 978.25,-179 978.25,-179 984.25,-179 990.25,-185 990.25,-191 990.25,-191 990.25,-238 990.25,-238 990.25,-244 984.25,-250 978.25,-250"/>
<text text-anchor="start" x="875" y="-232.7" font-family="Helvetica,sans-Serif" font-size="14.00">P4_6_1 ≤ 1.5</text>
<text text-anchor="start" x="848" y="-216.95" font-family="Helvetica,sans-Serif" font-size="14.00">squared_error = 3.907</text>
<text text-anchor="start" x="870.5" y="-201.2" font-family="Helvetica,sans-Serif" font-size="14.00">samples = 644</text>
<text text-anchor="start" x="870.5" y="-185.45" font-family="Helvetica,sans-Serif" font-size="14.00">value = 15.023</text>
</g>
<!-- 143&#45;&gt;144 -->
<g id="edge18" class="edge">
<title>143&#45;&gt;144</title>
<path fill="none" stroke="black" d="M971.15,-285.54C964.42,-277.12 957.15,-268.03 950.14,-259.27"/>
<polygon fill="black" stroke="black" points="952.9,-257.11 943.92,-251.49 947.43,-261.49 952.9,-257.11"/>
</g>
<!-- 225 -->
<g id="node26" class="node">
<title>225</title>
<path fill="#f0b58a" stroke="black" d="M1146.25,-250C1146.25,-250 1020,-250 1020,-250 1014,-250 1008,-244 1008,-238 1008,-238 1008,-191 1008,-191 1008,-185 1014,-179 1020,-179 1020,-179 1146.25,-179 1146.25,-179 1152.25,-179 1158.25,-185 1158.25,-191 1158.25,-191 1158.25,-238 1158.25,-238 1158.25,-244 1152.25,-250 1146.25,-250"/>
<text text-anchor="start" x="1043" y="-232.7" font-family="Helvetica,sans-Serif" font-size="14.00">P4_8_1 ≤ 2.5</text>
<text text-anchor="start" x="1016" y="-216.95" font-family="Helvetica,sans-Serif" font-size="14.00">squared_error = 4.153</text>
<text text-anchor="start" x="1038.5" y="-201.2" font-family="Helvetica,sans-Serif" font-size="14.00">samples = 815</text>
<text text-anchor="start" x="1038.5" y="-185.45" font-family="Helvetica,sans-Serif" font-size="14.00">value = 13.229</text>
</g>
<!-- 143&#45;&gt;225 -->
<g id="edge25" class="edge">
<title>143&#45;&gt;225</title>
<path fill="none" stroke="black" d="M1027.1,-285.54C1033.83,-277.12 1041.1,-268.03 1048.11,-259.27"/>
<polygon fill="black" stroke="black" points="1050.82,-261.49 1054.33,-251.49 1045.35,-257.11 1050.82,-261.49"/>
</g>
<!-- 145 -->
<g id="node20" class="node">
<title>145</title>
<path fill="#eb9e67" stroke="black" d="M810.25,-143C810.25,-143 684,-143 684,-143 678,-143 672,-137 672,-131 672,-131 672,-84 672,-84 672,-78 678,-72 684,-72 684,-72 810.25,-72 810.25,-72 816.25,-72 822.25,-78 822.25,-84 822.25,-84 822.25,-131 822.25,-131 822.25,-137 816.25,-143 810.25,-143"/>
<text text-anchor="start" x="707" y="-125.7" font-family="Helvetica,sans-Serif" font-size="14.00">P4_8_1 ≤ 2.5</text>
<text text-anchor="start" x="680" y="-109.95" font-family="Helvetica,sans-Serif" font-size="14.00">squared_error = 3.419</text>
<text text-anchor="start" x="702.5" y="-94.2" font-family="Helvetica,sans-Serif" font-size="14.00">samples = 547</text>
<text text-anchor="start" x="706.25" y="-78.45" font-family="Helvetica,sans-Serif" font-size="14.00">value = 15.33</text>
</g>
<!-- 144&#45;&gt;145 -->
<g id="edge19" class="edge">
<title>144&#45;&gt;145</title>
<path fill="none" stroke="black" d="M859.18,-178.54C844.24,-169.2 827.97,-159.03 812.56,-149.4"/>
<polygon fill="black" stroke="black" points="814.73,-146.62 804.39,-144.29 811.02,-152.56 814.73,-146.62"/>
</g>
<!-- 210 -->
<g id="node23" class="node">
<title>210</title>
<path fill="#efb489" stroke="black" d="M978.25,-143C978.25,-143 852,-143 852,-143 846,-143 840,-137 840,-131 840,-131 840,-84 840,-84 840,-78 846,-72 852,-72 852,-72 978.25,-72 978.25,-72 984.25,-72 990.25,-78 990.25,-84 990.25,-84 990.25,-131 990.25,-131 990.25,-137 984.25,-143 978.25,-143"/>
<text text-anchor="start" x="875" y="-125.7" font-family="Helvetica,sans-Serif" font-size="14.00">P7_1_2 ≤ 2.5</text>
<text text-anchor="start" x="848" y="-109.95" font-family="Helvetica,sans-Serif" font-size="14.00">squared_error = 3.143</text>
<text text-anchor="start" x="874.25" y="-94.2" font-family="Helvetica,sans-Serif" font-size="14.00">samples = 97</text>
<text text-anchor="start" x="870.5" y="-78.45" font-family="Helvetica,sans-Serif" font-size="14.00">value = 13.296</text>
</g>
<!-- 144&#45;&gt;210 -->
<g id="edge22" class="edge">
<title>144&#45;&gt;210</title>
<path fill="none" stroke="black" d="M915.12,-178.54C915.12,-170.92 915.12,-162.75 915.12,-154.77"/>
<polygon fill="black" stroke="black" points="918.63,-154.82 915.13,-144.82 911.63,-154.82 918.63,-154.82"/>
</g>
<!-- 146 -->
<g id="node21" class="node">
<title>146</title>
<path fill="#c0c0c0" stroke="black" d="M708.12,-36C708.12,-36 678.12,-36 678.12,-36 672.12,-36 666.12,-30 666.12,-24 666.12,-24 666.12,-12 666.12,-12 666.12,-6 672.12,0 678.12,0 678.12,0 708.12,0 708.12,0 714.12,0 720.12,-6 720.12,-12 720.12,-12 720.12,-24 720.12,-24 720.12,-30 714.12,-36 708.12,-36"/>
<text text-anchor="middle" x="693.12" y="-12.57" font-family="Helvetica,sans-Serif" font-size="14.00">(...)</text>
</g>
<!-- 145&#45;&gt;146 -->
<g id="edge20" class="edge">
<title>145&#45;&gt;146</title>
<path fill="none" stroke="black" d="M725.63,-71.67C720.33,-63.09 714.74,-54.03 709.72,-45.89"/>
<polygon fill="black" stroke="black" points="712.75,-44.14 704.52,-37.47 706.8,-47.82 712.75,-44.14"/>
</g>
<!-- 179 -->
<g id="node22" class="node">
<title>179</title>
<path fill="#c0c0c0" stroke="black" d="M780.12,-36C780.12,-36 750.12,-36 750.12,-36 744.12,-36 738.12,-30 738.12,-24 738.12,-24 738.12,-12 738.12,-12 738.12,-6 744.12,0 750.12,0 750.12,0 780.12,0 780.12,0 786.12,0 792.12,-6 792.12,-12 792.12,-12 792.12,-24 792.12,-24 792.12,-30 786.12,-36 780.12,-36"/>
<text text-anchor="middle" x="765.12" y="-12.57" font-family="Helvetica,sans-Serif" font-size="14.00">(...)</text>
</g>
<!-- 145&#45;&gt;179 -->
<g id="edge21" class="edge">
<title>145&#45;&gt;179</title>
<path fill="none" stroke="black" d="M754.29,-71.67C755.96,-63.56 757.71,-55.04 759.31,-47.26"/>
<polygon fill="black" stroke="black" points="762.7,-48.17 761.29,-37.67 755.84,-46.75 762.7,-48.17"/>
</g>
<!-- 211 -->
<g id="node24" class="node">
<title>211</title>
<path fill="#c0c0c0" stroke="black" d="M882.12,-36C882.12,-36 852.12,-36 852.12,-36 846.12,-36 840.12,-30 840.12,-24 840.12,-24 840.12,-12 840.12,-12 840.12,-6 846.12,0 852.12,0 852.12,0 882.12,0 882.12,0 888.12,0 894.12,-6 894.12,-12 894.12,-12 894.12,-24 894.12,-24 894.12,-30 888.12,-36 882.12,-36"/>
<text text-anchor="middle" x="867.12" y="-12.57" font-family="Helvetica,sans-Serif" font-size="14.00">(...)</text>
</g>
<!-- 210&#45;&gt;211 -->
<g id="edge23" class="edge">
<title>210&#45;&gt;211</title>
<path fill="none" stroke="black" d="M896.02,-71.67C891.36,-63.18 886.45,-54.23 882.03,-46.17"/>
<polygon fill="black" stroke="black" points="885.16,-44.59 877.28,-37.51 879.02,-47.96 885.16,-44.59"/>
</g>
<!-- 216 -->
<g id="node25" class="node">
<title>216</title>
<path fill="#c0c0c0" stroke="black" d="M954.12,-36C954.12,-36 924.12,-36 924.12,-36 918.12,-36 912.12,-30 912.12,-24 912.12,-24 912.12,-12 912.12,-12 912.12,-6 918.12,0 924.12,0 924.12,0 954.12,0 954.12,0 960.12,0 966.12,-6 966.12,-12 966.12,-12 966.12,-24 966.12,-24 966.12,-30 960.12,-36 954.12,-36"/>
<text text-anchor="middle" x="939.12" y="-12.57" font-family="Helvetica,sans-Serif" font-size="14.00">(...)</text>
</g>
<!-- 210&#45;&gt;216 -->
<g id="edge24" class="edge">
<title>210&#45;&gt;216</title>
<path fill="none" stroke="black" d="M924.68,-71.67C926.9,-63.56 929.24,-55.04 931.37,-47.26"/>
<polygon fill="black" stroke="black" points="934.74,-48.21 934.01,-37.64 927.99,-46.36 934.74,-48.21"/>
</g>
<!-- 226 -->
<g id="node27" class="node">
<title>226</title>
<path fill="#f1bc96" stroke="black" d="M1146.25,-143C1146.25,-143 1020,-143 1020,-143 1014,-143 1008,-137 1008,-131 1008,-131 1008,-84 1008,-84 1008,-78 1014,-72 1020,-72 1020,-72 1146.25,-72 1146.25,-72 1152.25,-72 1158.25,-78 1158.25,-84 1158.25,-84 1158.25,-131 1158.25,-131 1158.25,-137 1152.25,-143 1146.25,-143"/>
<text text-anchor="start" x="1039.62" y="-125.7" font-family="Helvetica,sans-Serif" font-size="14.00">P11_3_9 ≤ 0.5</text>
<text text-anchor="start" x="1016" y="-109.95" font-family="Helvetica,sans-Serif" font-size="14.00">squared_error = 3.844</text>
<text text-anchor="start" x="1038.5" y="-94.2" font-family="Helvetica,sans-Serif" font-size="14.00">samples = 461</text>
<text text-anchor="start" x="1038.5" y="-78.45" font-family="Helvetica,sans-Serif" font-size="14.00">value = 12.484</text>
</g>
<!-- 225&#45;&gt;226 -->
<g id="edge26" class="edge">
<title>225&#45;&gt;226</title>
<path fill="none" stroke="black" d="M1083.12,-178.54C1083.12,-170.92 1083.12,-162.75 1083.12,-154.77"/>
<polygon fill="black" stroke="black" points="1086.63,-154.82 1083.13,-144.82 1079.63,-154.82 1086.63,-154.82"/>
</g>
<!-- 277 -->
<g id="node30" class="node">
<title>277</title>
<path fill="#eeaa7a" stroke="black" d="M1314.25,-143C1314.25,-143 1188,-143 1188,-143 1182,-143 1176,-137 1176,-131 1176,-131 1176,-84 1176,-84 1176,-78 1182,-72 1188,-72 1188,-72 1314.25,-72 1314.25,-72 1320.25,-72 1326.25,-78 1326.25,-84 1326.25,-84 1326.25,-131 1326.25,-131 1326.25,-137 1320.25,-143 1314.25,-143"/>
<text text-anchor="start" x="1211" y="-125.7" font-family="Helvetica,sans-Serif" font-size="14.00">P4_6_4 ≤ 1.5</text>
<text text-anchor="start" x="1184" y="-109.95" font-family="Helvetica,sans-Serif" font-size="14.00">squared_error = 2.891</text>
<text text-anchor="start" x="1206.5" y="-94.2" font-family="Helvetica,sans-Serif" font-size="14.00">samples = 354</text>
<text text-anchor="start" x="1206.5" y="-78.45" font-family="Helvetica,sans-Serif" font-size="14.00">value = 14.199</text>
</g>
<!-- 225&#45;&gt;277 -->
<g id="edge29" class="edge">
<title>225&#45;&gt;277</title>
<path fill="none" stroke="black" d="M1139.07,-178.54C1154.01,-169.2 1170.28,-159.03 1185.69,-149.4"/>
<polygon fill="black" stroke="black" points="1187.23,-152.56 1193.86,-144.29 1183.52,-146.62 1187.23,-152.56"/>
</g>
<!-- 227 -->
<g id="node28" class="node">
<title>227</title>
<path fill="#c0c0c0" stroke="black" d="M1050.12,-36C1050.12,-36 1020.12,-36 1020.12,-36 1014.12,-36 1008.12,-30 1008.12,-24 1008.12,-24 1008.12,-12 1008.12,-12 1008.12,-6 1014.12,0 1020.12,0 1020.12,0 1050.12,0 1050.12,0 1056.12,0 1062.12,-6 1062.12,-12 1062.12,-12 1062.12,-24 1062.12,-24 1062.12,-30 1056.12,-36 1050.12,-36"/>
<text text-anchor="middle" x="1035.12" y="-12.57" font-family="Helvetica,sans-Serif" font-size="14.00">(...)</text>
</g>
<!-- 226&#45;&gt;227 -->
<g id="edge27" class="edge">
<title>226&#45;&gt;227</title>
<path fill="none" stroke="black" d="M1064.02,-71.67C1059.36,-63.18 1054.45,-54.23 1050.03,-46.17"/>
<polygon fill="black" stroke="black" points="1053.16,-44.59 1045.28,-37.51 1047.02,-47.96 1053.16,-44.59"/>
</g>
<!-- 260 -->
<g id="node29" class="node">
<title>260</title>
<path fill="#c0c0c0" stroke="black" d="M1122.12,-36C1122.12,-36 1092.12,-36 1092.12,-36 1086.12,-36 1080.12,-30 1080.12,-24 1080.12,-24 1080.12,-12 1080.12,-12 1080.12,-6 1086.12,0 1092.12,0 1092.12,0 1122.12,0 1122.12,0 1128.12,0 1134.12,-6 1134.12,-12 1134.12,-12 1134.12,-24 1134.12,-24 1134.12,-30 1128.12,-36 1122.12,-36"/>
<text text-anchor="middle" x="1107.12" y="-12.57" font-family="Helvetica,sans-Serif" font-size="14.00">(...)</text>
</g>
<!-- 226&#45;&gt;260 -->
<g id="edge28" class="edge">
<title>226&#45;&gt;260</title>
<path fill="none" stroke="black" d="M1092.68,-71.67C1094.9,-63.56 1097.24,-55.04 1099.37,-47.26"/>
<polygon fill="black" stroke="black" points="1102.74,-48.21 1102.01,-37.64 1095.99,-46.36 1102.74,-48.21"/>
</g>
<!-- 278 -->
<g id="node31" class="node">
<title>278</title>
<path fill="#c0c0c0" stroke="black" d="M1206.12,-36C1206.12,-36 1176.12,-36 1176.12,-36 1170.12,-36 1164.12,-30 1164.12,-24 1164.12,-24 1164.12,-12 1164.12,-12 1164.12,-6 1170.12,0 1176.12,0 1176.12,0 1206.12,0 1206.12,0 1212.12,0 1218.12,-6 1218.12,-12 1218.12,-12 1218.12,-24 1218.12,-24 1218.12,-30 1212.12,-36 1206.12,-36"/>
<text text-anchor="middle" x="1191.12" y="-12.57" font-family="Helvetica,sans-Serif" font-size="14.00">(...)</text>
</g>
<!-- 277&#45;&gt;278 -->
<g id="edge30" class="edge">
<title>277&#45;&gt;278</title>
<path fill="none" stroke="black" d="M1227.24,-71.67C1221.29,-62.99 1215.01,-53.83 1209.38,-45.62"/>
<polygon fill="black" stroke="black" points="1212.31,-43.7 1203.76,-37.43 1206.53,-47.66 1212.31,-43.7"/>
</g>
<!-- 303 -->
<g id="node32" class="node">
<title>303</title>
<path fill="#c0c0c0" stroke="black" d="M1278.12,-36C1278.12,-36 1248.12,-36 1248.12,-36 1242.12,-36 1236.12,-30 1236.12,-24 1236.12,-24 1236.12,-12 1236.12,-12 1236.12,-6 1242.12,0 1248.12,0 1248.12,0 1278.12,0 1278.12,0 1284.12,0 1290.12,-6 1290.12,-12 1290.12,-12 1290.12,-24 1290.12,-24 1290.12,-30 1284.12,-36 1278.12,-36"/>
<text text-anchor="middle" x="1263.12" y="-12.57" font-family="Helvetica,sans-Serif" font-size="14.00">(...)</text>
</g>
<!-- 277&#45;&gt;303 -->
<g id="edge31" class="edge">
<title>277&#45;&gt;303</title>
<path fill="none" stroke="black" d="M1255.9,-71.67C1257,-63.66 1258.16,-55.24 1259.21,-47.53"/>
<polygon fill="black" stroke="black" points="1262.67,-48.07 1260.56,-37.68 1255.74,-47.11 1262.67,-48.07"/>
</g>
<!-- 323 -->
<g id="node34" class="node">
<title>323</title>
<path fill="#f4c7a8" stroke="black" d="M1730.25,-357C1730.25,-357 1604,-357 1604,-357 1598,-357 1592,-351 1592,-345 1592,-345 1592,-298 1592,-298 1592,-292 1598,-286 1604,-286 1604,-286 1730.25,-286 1730.25,-286 1736.25,-286 1742.25,-292 1742.25,-298 1742.25,-298 1742.25,-345 1742.25,-345 1742.25,-351 1736.25,-357 1730.25,-357"/>
<text text-anchor="start" x="1627" y="-339.7" font-family="Helvetica,sans-Serif" font-size="14.00">P4_8_1 ≤ 1.5</text>
<text text-anchor="start" x="1600" y="-323.95" font-family="Helvetica,sans-Serif" font-size="14.00">squared_error = 4.651</text>
<text text-anchor="start" x="1618.75" y="-308.2" font-family="Helvetica,sans-Serif" font-size="14.00">samples = 1615</text>
<text text-anchor="start" x="1622.88" y="-292.45" font-family="Helvetica,sans-Serif" font-size="14.00">value = 11.448</text>
</g>
<!-- 322&#45;&gt;323 -->
<g id="edge33" class="edge">
<title>322&#45;&gt;323</title>
<path fill="none" stroke="black" d="M1667.12,-392.54C1667.12,-384.92 1667.12,-376.75 1667.12,-368.77"/>
<polygon fill="black" stroke="black" points="1670.63,-368.82 1667.13,-358.82 1663.63,-368.82 1670.63,-368.82"/>
</g>
<!-- 526 -->
<g id="node49" class="node">
<title>526</title>
<path fill="#f7dac5" stroke="black" d="M2232.25,-357C2232.25,-357 2106,-357 2106,-357 2100,-357 2094,-351 2094,-345 2094,-345 2094,-298 2094,-298 2094,-292 2100,-286 2106,-286 2106,-286 2232.25,-286 2232.25,-286 2238.25,-286 2244.25,-292 2244.25,-298 2244.25,-298 2244.25,-345 2244.25,-345 2244.25,-351 2238.25,-357 2232.25,-357"/>
<text text-anchor="start" x="2129" y="-339.7" font-family="Helvetica,sans-Serif" font-size="14.00">P4_8_1 ≤ 2.5</text>
<text text-anchor="start" x="2102" y="-323.95" font-family="Helvetica,sans-Serif" font-size="14.00">squared_error = 4.248</text>
<text text-anchor="start" x="2124.5" y="-308.2" font-family="Helvetica,sans-Serif" font-size="14.00">samples = 944</text>
<text text-anchor="start" x="2128.25" y="-292.45" font-family="Helvetica,sans-Serif" font-size="14.00">value = 9.689</text>
</g>
<!-- 322&#45;&gt;526 -->
<g id="edge48" class="edge">
<title>322&#45;&gt;526</title>
<path fill="none" stroke="black" d="M1742.55,-411.72C1833.65,-392.67 1986.56,-360.69 2082.43,-340.63"/>
<polygon fill="black" stroke="black" points="2082.99,-344.09 2092.06,-338.62 2081.56,-337.24 2082.99,-344.09"/>
</g>
<!-- 324 -->
<g id="node35" class="node">
<title>324</title>
<path fill="#f6d2b8" stroke="black" d="M1646.25,-250C1646.25,-250 1520,-250 1520,-250 1514,-250 1508,-244 1508,-238 1508,-238 1508,-191 1508,-191 1508,-185 1514,-179 1520,-179 1520,-179 1646.25,-179 1646.25,-179 1652.25,-179 1658.25,-185 1658.25,-191 1658.25,-191 1658.25,-238 1658.25,-238 1658.25,-244 1652.25,-250 1646.25,-250"/>
<text text-anchor="start" x="1539.62" y="-232.7" font-family="Helvetica,sans-Serif" font-size="14.00">P11_3_9 ≤ 0.5</text>
<text text-anchor="start" x="1516" y="-216.95" font-family="Helvetica,sans-Serif" font-size="14.00">squared_error = 3.637</text>
<text text-anchor="start" x="1538.5" y="-201.2" font-family="Helvetica,sans-Serif" font-size="14.00">samples = 654</text>
<text text-anchor="start" x="1538.5" y="-185.45" font-family="Helvetica,sans-Serif" font-size="14.00">value = 10.429</text>
</g>
<!-- 323&#45;&gt;324 -->
<g id="edge34" class="edge">
<title>323&#45;&gt;324</title>
<path fill="none" stroke="black" d="M1639.15,-285.54C1632.42,-277.12 1625.15,-268.03 1618.14,-259.27"/>
<polygon fill="black" stroke="black" points="1620.9,-257.11 1611.92,-251.49 1615.43,-261.49 1620.9,-257.11"/>
</g>
<!-- 415 -->
<g id="node42" class="node">
<title>415</title>
<path fill="#f2c09c" stroke="black" d="M1814.25,-250C1814.25,-250 1688,-250 1688,-250 1682,-250 1676,-244 1676,-238 1676,-238 1676,-191 1676,-191 1676,-185 1682,-179 1688,-179 1688,-179 1814.25,-179 1814.25,-179 1820.25,-179 1826.25,-185 1826.25,-191 1826.25,-191 1826.25,-238 1826.25,-238 1826.25,-244 1820.25,-250 1814.25,-250"/>
<text text-anchor="start" x="1707.62" y="-232.7" font-family="Helvetica,sans-Serif" font-size="14.00">P11_3_9 ≤ 0.5</text>
<text text-anchor="start" x="1684" y="-216.95" font-family="Helvetica,sans-Serif" font-size="14.00">squared_error = 4.152</text>
<text text-anchor="start" x="1706.5" y="-201.2" font-family="Helvetica,sans-Serif" font-size="14.00">samples = 961</text>
<text text-anchor="start" x="1706.5" y="-185.45" font-family="Helvetica,sans-Serif" font-size="14.00">value = 12.142</text>
</g>
<!-- 323&#45;&gt;415 -->
<g id="edge41" class="edge">
<title>323&#45;&gt;415</title>
<path fill="none" stroke="black" d="M1695.1,-285.54C1701.83,-277.12 1709.1,-268.03 1716.11,-259.27"/>
<polygon fill="black" stroke="black" points="1718.82,-261.49 1722.33,-251.49 1713.35,-257.11 1718.82,-261.49"/>
</g>
<!-- 325 -->
<g id="node36" class="node">
<title>325</title>
<path fill="#f4cbae" stroke="black" d="M1482.25,-143C1482.25,-143 1356,-143 1356,-143 1350,-143 1344,-137 1344,-131 1344,-131 1344,-84 1344,-84 1344,-78 1350,-72 1356,-72 1356,-72 1482.25,-72 1482.25,-72 1488.25,-72 1494.25,-78 1494.25,-84 1494.25,-84 1494.25,-131 1494.25,-131 1494.25,-137 1488.25,-143 1482.25,-143"/>
<text text-anchor="start" x="1379" y="-125.7" font-family="Helvetica,sans-Serif" font-size="14.00">P4_7_3 ≤ 1.5</text>
<text text-anchor="start" x="1352" y="-109.95" font-family="Helvetica,sans-Serif" font-size="14.00">squared_error = 3.344</text>
<text text-anchor="start" x="1374.5" y="-94.2" font-family="Helvetica,sans-Serif" font-size="14.00">samples = 378</text>
<text text-anchor="start" x="1374.88" y="-78.45" font-family="Helvetica,sans-Serif" font-size="14.00">value = 11.073</text>
</g>
<!-- 324&#45;&gt;325 -->
<g id="edge35" class="edge">
<title>324&#45;&gt;325</title>
<path fill="none" stroke="black" d="M1528.52,-178.54C1514.07,-169.29 1498.34,-159.22 1483.43,-149.67"/>
<polygon fill="black" stroke="black" points="1485.36,-146.75 1475.05,-144.31 1481.58,-152.65 1485.36,-146.75"/>
</g>
<!-- 374 -->
<g id="node39" class="node">
<title>374</title>
<path fill="#f8dbc7" stroke="black" d="M1643.5,-143C1643.5,-143 1524.75,-143 1524.75,-143 1518.75,-143 1512.75,-137 1512.75,-131 1512.75,-131 1512.75,-84 1512.75,-84 1512.75,-78 1518.75,-72 1524.75,-72 1524.75,-72 1643.5,-72 1643.5,-72 1649.5,-72 1655.5,-78 1655.5,-84 1655.5,-84 1655.5,-131 1655.5,-131 1655.5,-137 1649.5,-143 1643.5,-143"/>
<text text-anchor="start" x="1544" y="-125.7" font-family="Helvetica,sans-Serif" font-size="14.00">P4_6_4 ≤ 1.5</text>
<text text-anchor="start" x="1520.75" y="-109.95" font-family="Helvetica,sans-Serif" font-size="14.00">squared_error = 2.69</text>
<text text-anchor="start" x="1539.5" y="-94.2" font-family="Helvetica,sans-Serif" font-size="14.00">samples = 276</text>
<text text-anchor="start" x="1543.25" y="-78.45" font-family="Helvetica,sans-Serif" font-size="14.00">value = 9.546</text>
</g>
<!-- 324&#45;&gt;374 -->
<g id="edge38" class="edge">
<title>324&#45;&gt;374</title>
<path fill="none" stroke="black" d="M1583.46,-178.54C1583.53,-170.92 1583.61,-162.75 1583.68,-154.77"/>
<polygon fill="black" stroke="black" points="1587.18,-154.86 1583.78,-144.82 1580.18,-154.79 1587.18,-154.86"/>
</g>
<!-- 326 -->
<g id="node37" class="node">
<title>326</title>
<path fill="#c0c0c0" stroke="black" d="M1372.12,-36C1372.12,-36 1342.12,-36 1342.12,-36 1336.12,-36 1330.12,-30 1330.12,-24 1330.12,-24 1330.12,-12 1330.12,-12 1330.12,-6 1336.12,0 1342.12,0 1342.12,0 1372.12,0 1372.12,0 1378.12,0 1384.12,-6 1384.12,-12 1384.12,-12 1384.12,-24 1384.12,-24 1384.12,-30 1378.12,-36 1372.12,-36"/>
<text text-anchor="middle" x="1357.12" y="-12.57" font-family="Helvetica,sans-Serif" font-size="14.00">(...)</text>
</g>
<!-- 325&#45;&gt;326 -->
<g id="edge36" class="edge">
<title>325&#45;&gt;326</title>
<path fill="none" stroke="black" d="M1394.44,-71.67C1388.23,-62.9 1381.66,-53.63 1375.8,-45.35"/>
<polygon fill="black" stroke="black" points="1378.81,-43.55 1370.18,-37.42 1373.1,-47.6 1378.81,-43.55"/>
</g>
<!-- 359 -->
<g id="node38" class="node">
<title>359</title>
<path fill="#c0c0c0" stroke="black" d="M1444.12,-36C1444.12,-36 1414.12,-36 1414.12,-36 1408.12,-36 1402.12,-30 1402.12,-24 1402.12,-24 1402.12,-12 1402.12,-12 1402.12,-6 1408.12,0 1414.12,0 1414.12,0 1444.12,0 1444.12,0 1450.12,0 1456.12,-6 1456.12,-12 1456.12,-12 1456.12,-24 1456.12,-24 1456.12,-30 1450.12,-36 1444.12,-36"/>
<text text-anchor="middle" x="1429.12" y="-12.57" font-family="Helvetica,sans-Serif" font-size="14.00">(...)</text>
</g>
<!-- 325&#45;&gt;359 -->
<g id="edge37" class="edge">
<title>325&#45;&gt;359</title>
<path fill="none" stroke="black" d="M1423.11,-71.67C1424.02,-63.66 1424.98,-55.24 1425.86,-47.53"/>
<polygon fill="black" stroke="black" points="1429.33,-48.02 1426.99,-37.69 1422.38,-47.22 1429.33,-48.02"/>
</g>
<!-- 375 -->
<g id="node40" class="node">
<title>375</title>
<path fill="#c0c0c0" stroke="black" d="M1537.12,-36C1537.12,-36 1507.12,-36 1507.12,-36 1501.12,-36 1495.12,-30 1495.12,-24 1495.12,-24 1495.12,-12 1495.12,-12 1495.12,-6 1501.12,0 1507.12,0 1507.12,0 1537.12,0 1537.12,0 1543.12,0 1549.12,-6 1549.12,-12 1549.12,-12 1549.12,-24 1549.12,-24 1549.12,-30 1543.12,-36 1537.12,-36"/>
<text text-anchor="middle" x="1522.12" y="-12.57" font-family="Helvetica,sans-Serif" font-size="14.00">(...)</text>
</g>
<!-- 374&#45;&gt;375 -->
<g id="edge39" class="edge">
<title>374&#45;&gt;375</title>
<path fill="none" stroke="black" d="M1559.44,-71.67C1553.23,-62.9 1546.66,-53.63 1540.8,-45.35"/>
<polygon fill="black" stroke="black" points="1543.81,-43.55 1535.18,-37.42 1538.1,-47.6 1543.81,-43.55"/>
</g>
<!-- 390 -->
<g id="node41" class="node">
<title>390</title>
<path fill="#c0c0c0" stroke="black" d="M1609.12,-36C1609.12,-36 1579.12,-36 1579.12,-36 1573.12,-36 1567.12,-30 1567.12,-24 1567.12,-24 1567.12,-12 1567.12,-12 1567.12,-6 1573.12,0 1579.12,0 1579.12,0 1609.12,0 1609.12,0 1615.12,0 1621.12,-6 1621.12,-12 1621.12,-12 1621.12,-24 1621.12,-24 1621.12,-30 1615.12,-36 1609.12,-36"/>
<text text-anchor="middle" x="1594.12" y="-12.57" font-family="Helvetica,sans-Serif" font-size="14.00">(...)</text>
</g>
<!-- 374&#45;&gt;390 -->
<g id="edge40" class="edge">
<title>374&#45;&gt;390</title>
<path fill="none" stroke="black" d="M1588.11,-71.67C1589.02,-63.66 1589.98,-55.24 1590.86,-47.53"/>
<polygon fill="black" stroke="black" points="1594.33,-48.02 1591.99,-37.69 1587.38,-47.22 1594.33,-48.02"/>
</g>
<!-- 416 -->
<g id="node43" class="node">
<title>416</title>
<path fill="#f0b890" stroke="black" d="M1812.25,-143C1812.25,-143 1686,-143 1686,-143 1680,-143 1674,-137 1674,-131 1674,-131 1674,-84 1674,-84 1674,-78 1680,-72 1686,-72 1686,-72 1812.25,-72 1812.25,-72 1818.25,-72 1824.25,-78 1824.25,-84 1824.25,-84 1824.25,-131 1824.25,-131 1824.25,-137 1818.25,-143 1812.25,-143"/>
<text text-anchor="start" x="1709" y="-125.7" font-family="Helvetica,sans-Serif" font-size="14.00">P7_1_2 ≤ 2.5</text>
<text text-anchor="start" x="1682" y="-109.95" font-family="Helvetica,sans-Serif" font-size="14.00">squared_error = 3.643</text>
<text text-anchor="start" x="1704.5" y="-94.2" font-family="Helvetica,sans-Serif" font-size="14.00">samples = 557</text>
<text text-anchor="start" x="1704.5" y="-78.45" font-family="Helvetica,sans-Serif" font-size="14.00">value = 12.866</text>
</g>
<!-- 415&#45;&gt;416 -->
<g id="edge42" class="edge">
<title>415&#45;&gt;416</title>
<path fill="none" stroke="black" d="M1750.46,-178.54C1750.31,-170.92 1750.16,-162.75 1750.01,-154.77"/>
<polygon fill="black" stroke="black" points="1753.51,-154.76 1749.82,-144.82 1746.51,-154.89 1753.51,-154.76"/>
</g>
<!-- 479 -->
<g id="node46" class="node">
<title>479</title>
<path fill="#f4cbad" stroke="black" d="M1980.25,-143C1980.25,-143 1854,-143 1854,-143 1848,-143 1842,-137 1842,-131 1842,-131 1842,-84 1842,-84 1842,-78 1848,-72 1854,-72 1854,-72 1980.25,-72 1980.25,-72 1986.25,-72 1992.25,-78 1992.25,-84 1992.25,-84 1992.25,-131 1992.25,-131 1992.25,-137 1986.25,-143 1980.25,-143"/>
<text text-anchor="start" x="1877" y="-125.7" font-family="Helvetica,sans-Serif" font-size="14.00">P4_6_4 ≤ 1.5</text>
<text text-anchor="start" x="1850" y="-109.95" font-family="Helvetica,sans-Serif" font-size="14.00">squared_error = 3.136</text>
<text text-anchor="start" x="1872.5" y="-94.2" font-family="Helvetica,sans-Serif" font-size="14.00">samples = 404</text>
<text text-anchor="start" x="1872.88" y="-78.45" font-family="Helvetica,sans-Serif" font-size="14.00">value = 11.144</text>
</g>
<!-- 415&#45;&gt;479 -->
<g id="edge45" class="edge">
<title>415&#45;&gt;479</title>
<path fill="none" stroke="black" d="M1806.4,-178.54C1821.16,-169.2 1837.25,-159.03 1852.46,-149.4"/>
<polygon fill="black" stroke="black" points="1853.95,-152.6 1860.53,-144.3 1850.21,-146.69 1853.95,-152.6"/>
</g>
<!-- 417 -->
<g id="node44" class="node">
<title>417</title>
<path fill="#c0c0c0" stroke="black" d="M1704.12,-36C1704.12,-36 1674.12,-36 1674.12,-36 1668.12,-36 1662.12,-30 1662.12,-24 1662.12,-24 1662.12,-12 1662.12,-12 1662.12,-6 1668.12,0 1674.12,0 1674.12,0 1704.12,0 1704.12,0 1710.12,0 1716.12,-6 1716.12,-12 1716.12,-12 1716.12,-24 1716.12,-24 1716.12,-30 1710.12,-36 1704.12,-36"/>
<text text-anchor="middle" x="1689.12" y="-12.57" font-family="Helvetica,sans-Serif" font-size="14.00">(...)</text>
</g>
<!-- 416&#45;&gt;417 -->
<g id="edge43" class="edge">
<title>416&#45;&gt;417</title>
<path fill="none" stroke="black" d="M1725.24,-71.67C1719.29,-62.99 1713.01,-53.83 1707.38,-45.62"/>
<polygon fill="black" stroke="black" points="1710.31,-43.7 1701.76,-37.43 1704.53,-47.66 1710.31,-43.7"/>
</g>
<!-- 442 -->
<g id="node45" class="node">
<title>442</title>
<path fill="#c0c0c0" stroke="black" d="M1776.12,-36C1776.12,-36 1746.12,-36 1746.12,-36 1740.12,-36 1734.12,-30 1734.12,-24 1734.12,-24 1734.12,-12 1734.12,-12 1734.12,-6 1740.12,0 1746.12,0 1746.12,0 1776.12,0 1776.12,0 1782.12,0 1788.12,-6 1788.12,-12 1788.12,-12 1788.12,-24 1788.12,-24 1788.12,-30 1782.12,-36 1776.12,-36"/>
<text text-anchor="middle" x="1761.12" y="-12.57" font-family="Helvetica,sans-Serif" font-size="14.00">(...)</text>
</g>
<!-- 416&#45;&gt;442 -->
<g id="edge44" class="edge">
<title>416&#45;&gt;442</title>
<path fill="none" stroke="black" d="M1753.9,-71.67C1755,-63.66 1756.16,-55.24 1757.21,-47.53"/>
<polygon fill="black" stroke="black" points="1760.67,-48.07 1758.56,-37.68 1753.74,-47.11 1760.67,-48.07"/>
</g>
<!-- 480 -->
<g id="node47" class="node">
<title>480</title>
<path fill="#c0c0c0" stroke="black" d="M1872.12,-36C1872.12,-36 1842.12,-36 1842.12,-36 1836.12,-36 1830.12,-30 1830.12,-24 1830.12,-24 1830.12,-12 1830.12,-12 1830.12,-6 1836.12,0 1842.12,0 1842.12,0 1872.12,0 1872.12,0 1878.12,0 1884.12,-6 1884.12,-12 1884.12,-12 1884.12,-24 1884.12,-24 1884.12,-30 1878.12,-36 1872.12,-36"/>
<text text-anchor="middle" x="1857.12" y="-12.57" font-family="Helvetica,sans-Serif" font-size="14.00">(...)</text>
</g>
<!-- 479&#45;&gt;480 -->
<g id="edge46" class="edge">
<title>479&#45;&gt;480</title>
<path fill="none" stroke="black" d="M1893.24,-71.67C1887.29,-62.99 1881.01,-53.83 1875.38,-45.62"/>
<polygon fill="black" stroke="black" points="1878.31,-43.7 1869.76,-37.43 1872.53,-47.66 1878.31,-43.7"/>
</g>
<!-- 499 -->
<g id="node48" class="node">
<title>499</title>
<path fill="#c0c0c0" stroke="black" d="M1944.12,-36C1944.12,-36 1914.12,-36 1914.12,-36 1908.12,-36 1902.12,-30 1902.12,-24 1902.12,-24 1902.12,-12 1902.12,-12 1902.12,-6 1908.12,0 1914.12,0 1914.12,0 1944.12,0 1944.12,0 1950.12,0 1956.12,-6 1956.12,-12 1956.12,-12 1956.12,-24 1956.12,-24 1956.12,-30 1950.12,-36 1944.12,-36"/>
<text text-anchor="middle" x="1929.12" y="-12.57" font-family="Helvetica,sans-Serif" font-size="14.00">(...)</text>
</g>
<!-- 479&#45;&gt;499 -->
<g id="edge47" class="edge">
<title>479&#45;&gt;499</title>
<path fill="none" stroke="black" d="M1921.9,-71.67C1923,-63.66 1924.16,-55.24 1925.21,-47.53"/>
<polygon fill="black" stroke="black" points="1928.67,-48.07 1926.56,-37.68 1921.74,-47.11 1928.67,-48.07"/>
</g>
<!-- 527 -->
<g id="node50" class="node">
<title>527</title>
<path fill="#f8dfcd" stroke="black" d="M2232.25,-250C2232.25,-250 2106,-250 2106,-250 2100,-250 2094,-244 2094,-238 2094,-238 2094,-191 2094,-191 2094,-185 2100,-179 2106,-179 2106,-179 2232.25,-179 2232.25,-179 2238.25,-179 2244.25,-185 2244.25,-191 2244.25,-191 2244.25,-238 2244.25,-238 2244.25,-244 2238.25,-250 2232.25,-250"/>
<text text-anchor="start" x="2129" y="-232.7" font-family="Helvetica,sans-Serif" font-size="14.00">P4_6_2 ≤ 1.5</text>
<text text-anchor="start" x="2102" y="-216.95" font-family="Helvetica,sans-Serif" font-size="14.00">squared_error = 3.814</text>
<text text-anchor="start" x="2124.5" y="-201.2" font-family="Helvetica,sans-Serif" font-size="14.00">samples = 658</text>
<text text-anchor="start" x="2128.25" y="-185.45" font-family="Helvetica,sans-Serif" font-size="14.00">value = 9.201</text>
</g>
<!-- 526&#45;&gt;527 -->
<g id="edge49" class="edge">
<title>526&#45;&gt;527</title>
<path fill="none" stroke="black" d="M2169.12,-285.54C2169.12,-277.92 2169.12,-269.75 2169.12,-261.77"/>
<polygon fill="black" stroke="black" points="2172.63,-261.82 2169.13,-251.82 2165.63,-261.82 2172.63,-261.82"/>
</g>
<!-- 610 -->
<g id="node57" class="node">
<title>610</title>
<path fill="#f5ceb2" stroke="black" d="M2484.25,-250C2484.25,-250 2358,-250 2358,-250 2352,-250 2346,-244 2346,-238 2346,-238 2346,-191 2346,-191 2346,-185 2352,-179 2358,-179 2358,-179 2484.25,-179 2484.25,-179 2490.25,-179 2496.25,-185 2496.25,-191 2496.25,-191 2496.25,-238 2496.25,-238 2496.25,-244 2490.25,-250 2484.25,-250"/>
<text text-anchor="start" x="2381" y="-232.7" font-family="Helvetica,sans-Serif" font-size="14.00">P4_8_2 ≤ 1.5</text>
<text text-anchor="start" x="2354" y="-216.95" font-family="Helvetica,sans-Serif" font-size="14.00">squared_error = 3.441</text>
<text text-anchor="start" x="2376.5" y="-201.2" font-family="Helvetica,sans-Serif" font-size="14.00">samples = 286</text>
<text text-anchor="start" x="2380.25" y="-185.45" font-family="Helvetica,sans-Serif" font-size="14.00">value = 10.81</text>
</g>
<!-- 526&#45;&gt;610 -->
<g id="edge56" class="edge">
<title>526&#45;&gt;610</title>
<path fill="none" stroke="black" d="M2244.73,-289C2273.26,-277.11 2305.92,-263.5 2335.32,-251.25"/>
<polygon fill="black" stroke="black" points="2336.29,-254.64 2344.17,-247.56 2333.6,-248.18 2336.29,-254.64"/>
</g>
<!-- 528 -->
<g id="node51" class="node">
<title>528</title>
<path fill="#f7d9c4" stroke="black" d="M2148.25,-143C2148.25,-143 2022,-143 2022,-143 2016,-143 2010,-137 2010,-131 2010,-131 2010,-84 2010,-84 2010,-78 2016,-72 2022,-72 2022,-72 2148.25,-72 2148.25,-72 2154.25,-72 2160.25,-78 2160.25,-84 2160.25,-84 2160.25,-131 2160.25,-131 2160.25,-137 2154.25,-143 2148.25,-143"/>
<text text-anchor="start" x="2045" y="-125.7" font-family="Helvetica,sans-Serif" font-size="14.00">P4_7_2 ≤ 1.5</text>
<text text-anchor="start" x="2018" y="-109.95" font-family="Helvetica,sans-Serif" font-size="14.00">squared_error = 3.737</text>
<text text-anchor="start" x="2040.5" y="-94.2" font-family="Helvetica,sans-Serif" font-size="14.00">samples = 380</text>
<text text-anchor="start" x="2044.25" y="-78.45" font-family="Helvetica,sans-Serif" font-size="14.00">value = 9.761</text>
</g>
<!-- 527&#45;&gt;528 -->
<g id="edge50" class="edge">
<title>527&#45;&gt;528</title>
<path fill="none" stroke="black" d="M2141.15,-178.54C2134.42,-170.12 2127.15,-161.03 2120.14,-152.27"/>
<polygon fill="black" stroke="black" points="2122.9,-150.11 2113.92,-144.49 2117.43,-154.49 2122.9,-150.11"/>
</g>
<!-- 575 -->
<g id="node54" class="node">
<title>575</title>
<path fill="#fae7da" stroke="black" d="M2316.25,-143C2316.25,-143 2190,-143 2190,-143 2184,-143 2178,-137 2178,-131 2178,-131 2178,-84 2178,-84 2178,-78 2184,-72 2190,-72 2190,-72 2316.25,-72 2316.25,-72 2322.25,-72 2328.25,-78 2328.25,-84 2328.25,-84 2328.25,-131 2328.25,-131 2328.25,-137 2322.25,-143 2316.25,-143"/>
<text text-anchor="start" x="2213" y="-125.7" font-family="Helvetica,sans-Serif" font-size="14.00">P5_4_8 ≤ 0.5</text>
<text text-anchor="start" x="2186" y="-109.95" font-family="Helvetica,sans-Serif" font-size="14.00">squared_error = 2.904</text>
<text text-anchor="start" x="2208.5" y="-94.2" font-family="Helvetica,sans-Serif" font-size="14.00">samples = 278</text>
<text text-anchor="start" x="2212.25" y="-78.45" font-family="Helvetica,sans-Serif" font-size="14.00">value = 8.435</text>
</g>
<!-- 527&#45;&gt;575 -->
<g id="edge53" class="edge">
<title>527&#45;&gt;575</title>
<path fill="none" stroke="black" d="M2197.1,-178.54C2203.83,-170.12 2211.1,-161.03 2218.11,-152.27"/>
<polygon fill="black" stroke="black" points="2220.82,-154.49 2224.33,-144.49 2215.35,-150.11 2220.82,-154.49"/>
</g>
<!-- 529 -->
<g id="node52" class="node">
<title>529</title>
<path fill="#c0c0c0" stroke="black" d="M2040.12,-36C2040.12,-36 2010.12,-36 2010.12,-36 2004.12,-36 1998.12,-30 1998.12,-24 1998.12,-24 1998.12,-12 1998.12,-12 1998.12,-6 2004.12,0 2010.12,0 2010.12,0 2040.12,0 2040.12,0 2046.12,0 2052.12,-6 2052.12,-12 2052.12,-12 2052.12,-24 2052.12,-24 2052.12,-30 2046.12,-36 2040.12,-36"/>
<text text-anchor="middle" x="2025.12" y="-12.57" font-family="Helvetica,sans-Serif" font-size="14.00">(...)</text>
</g>
<!-- 528&#45;&gt;529 -->
<g id="edge51" class="edge">
<title>528&#45;&gt;529</title>
<path fill="none" stroke="black" d="M2061.24,-71.67C2055.29,-62.99 2049.01,-53.83 2043.38,-45.62"/>
<polygon fill="black" stroke="black" points="2046.31,-43.7 2037.76,-37.43 2040.53,-47.66 2046.31,-43.7"/>
</g>
<!-- 562 -->
<g id="node53" class="node">
<title>562</title>
<path fill="#c0c0c0" stroke="black" d="M2112.12,-36C2112.12,-36 2082.12,-36 2082.12,-36 2076.12,-36 2070.12,-30 2070.12,-24 2070.12,-24 2070.12,-12 2070.12,-12 2070.12,-6 2076.12,0 2082.12,0 2082.12,0 2112.12,0 2112.12,0 2118.12,0 2124.12,-6 2124.12,-12 2124.12,-12 2124.12,-24 2124.12,-24 2124.12,-30 2118.12,-36 2112.12,-36"/>
<text text-anchor="middle" x="2097.12" y="-12.57" font-family="Helvetica,sans-Serif" font-size="14.00">(...)</text>
</g>
<!-- 528&#45;&gt;562 -->
<g id="edge52" class="edge">
<title>528&#45;&gt;562</title>
<path fill="none" stroke="black" d="M2089.9,-71.67C2091,-63.66 2092.16,-55.24 2093.21,-47.53"/>
<polygon fill="black" stroke="black" points="2096.67,-48.07 2094.56,-37.68 2089.74,-47.11 2096.67,-48.07"/>
</g>
<!-- 576 -->
<g id="node55" class="node">
<title>576</title>
<path fill="#c0c0c0" stroke="black" d="M2208.12,-36C2208.12,-36 2178.12,-36 2178.12,-36 2172.12,-36 2166.12,-30 2166.12,-24 2166.12,-24 2166.12,-12 2166.12,-12 2166.12,-6 2172.12,0 2178.12,0 2178.12,0 2208.12,0 2208.12,0 2214.12,0 2220.12,-6 2220.12,-12 2220.12,-12 2220.12,-24 2220.12,-24 2220.12,-30 2214.12,-36 2208.12,-36"/>
<text text-anchor="middle" x="2193.12" y="-12.57" font-family="Helvetica,sans-Serif" font-size="14.00">(...)</text>
</g>
<!-- 575&#45;&gt;576 -->
<g id="edge54" class="edge">
<title>575&#45;&gt;576</title>
<path fill="none" stroke="black" d="M2229.24,-71.67C2223.29,-62.99 2217.01,-53.83 2211.38,-45.62"/>
<polygon fill="black" stroke="black" points="2214.31,-43.7 2205.76,-37.43 2208.53,-47.66 2214.31,-43.7"/>
</g>
<!-- 577 -->
<g id="node56" class="node">
<title>577</title>
<path fill="#c0c0c0" stroke="black" d="M2280.12,-36C2280.12,-36 2250.12,-36 2250.12,-36 2244.12,-36 2238.12,-30 2238.12,-24 2238.12,-24 2238.12,-12 2238.12,-12 2238.12,-6 2244.12,0 2250.12,0 2250.12,0 2280.12,0 2280.12,0 2286.12,0 2292.12,-6 2292.12,-12 2292.12,-12 2292.12,-24 2292.12,-24 2292.12,-30 2286.12,-36 2280.12,-36"/>
<text text-anchor="middle" x="2265.12" y="-12.57" font-family="Helvetica,sans-Serif" font-size="14.00">(...)</text>
</g>
<!-- 575&#45;&gt;577 -->
<g id="edge55" class="edge">
<title>575&#45;&gt;577</title>
<path fill="none" stroke="black" d="M2257.9,-71.67C2259,-63.66 2260.16,-55.24 2261.21,-47.53"/>
<polygon fill="black" stroke="black" points="2264.67,-48.07 2262.56,-37.68 2257.74,-47.11 2264.67,-48.07"/>
</g>
<!-- 611 -->
<g id="node58" class="node">
<title>611</title>
<path fill="#f7d8c1" stroke="black" d="M2484.25,-143C2484.25,-143 2358,-143 2358,-143 2352,-143 2346,-137 2346,-131 2346,-131 2346,-84 2346,-84 2346,-78 2352,-72 2358,-72 2358,-72 2484.25,-72 2484.25,-72 2490.25,-72 2496.25,-78 2496.25,-84 2496.25,-84 2496.25,-131 2496.25,-131 2496.25,-137 2490.25,-143 2484.25,-143"/>
<text text-anchor="start" x="2381" y="-125.7" font-family="Helvetica,sans-Serif" font-size="14.00">P5_1_6 ≤ 0.5</text>
<text text-anchor="start" x="2354" y="-109.95" font-family="Helvetica,sans-Serif" font-size="14.00">squared_error = 2.232</text>
<text text-anchor="start" x="2376.5" y="-94.2" font-family="Helvetica,sans-Serif" font-size="14.00">samples = 134</text>
<text text-anchor="start" x="2380.25" y="-78.45" font-family="Helvetica,sans-Serif" font-size="14.00">value = 9.915</text>
</g>
<!-- 610&#45;&gt;611 -->
<g id="edge57" class="edge">
<title>610&#45;&gt;611</title>
<path fill="none" stroke="black" d="M2421.12,-178.54C2421.12,-170.92 2421.12,-162.75 2421.12,-154.77"/>
<polygon fill="black" stroke="black" points="2424.63,-154.82 2421.13,-144.82 2417.63,-154.82 2424.63,-154.82"/>
</g>
<!-- 630 -->
<g id="node61" class="node">
<title>630</title>
<path fill="#f3c6a5" stroke="black" d="M2645.5,-143C2645.5,-143 2526.75,-143 2526.75,-143 2520.75,-143 2514.75,-137 2514.75,-131 2514.75,-131 2514.75,-84 2514.75,-84 2514.75,-78 2520.75,-72 2526.75,-72 2526.75,-72 2645.5,-72 2645.5,-72 2651.5,-72 2657.5,-78 2657.5,-84 2657.5,-84 2657.5,-131 2657.5,-131 2657.5,-137 2651.5,-143 2645.5,-143"/>
<text text-anchor="start" x="2546" y="-125.7" font-family="Helvetica,sans-Serif" font-size="14.00">P4_6_2 ≤ 1.5</text>
<text text-anchor="start" x="2522.75" y="-109.95" font-family="Helvetica,sans-Serif" font-size="14.00">squared_error = 3.18</text>
<text text-anchor="start" x="2541.5" y="-94.2" font-family="Helvetica,sans-Serif" font-size="14.00">samples = 152</text>
<text text-anchor="start" x="2541.88" y="-78.45" font-family="Helvetica,sans-Serif" font-size="14.00">value = 11.599</text>
</g>
<!-- 610&#45;&gt;630 -->
<g id="edge60" class="edge">
<title>610&#45;&gt;630</title>
<path fill="none" stroke="black" d="M2476.07,-178.54C2490.74,-169.2 2506.73,-159.03 2521.85,-149.4"/>
<polygon fill="black" stroke="black" points="2523.31,-152.62 2529.86,-144.3 2519.55,-146.72 2523.31,-152.62"/>
</g>
<!-- 612 -->
<g id="node59" class="node">
<title>612</title>
<path fill="#c0c0c0" stroke="black" d="M2392.12,-36C2392.12,-36 2362.12,-36 2362.12,-36 2356.12,-36 2350.12,-30 2350.12,-24 2350.12,-24 2350.12,-12 2350.12,-12 2350.12,-6 2356.12,0 2362.12,0 2362.12,0 2392.12,0 2392.12,0 2398.12,0 2404.12,-6 2404.12,-12 2404.12,-12 2404.12,-24 2404.12,-24 2404.12,-30 2398.12,-36 2392.12,-36"/>
<text text-anchor="middle" x="2377.12" y="-12.57" font-family="Helvetica,sans-Serif" font-size="14.00">(...)</text>
</g>
<!-- 611&#45;&gt;612 -->
<g id="edge58" class="edge">
<title>611&#45;&gt;612</title>
<path fill="none" stroke="black" d="M2403.61,-71.67C2399.39,-63.28 2394.94,-54.43 2390.92,-46.44"/>
<polygon fill="black" stroke="black" points="2394.06,-44.9 2386.45,-37.53 2387.81,-48.04 2394.06,-44.9"/>
</g>
<!-- 617 -->
<g id="node60" class="node">
<title>617</title>
<path fill="#c0c0c0" stroke="black" d="M2464.12,-36C2464.12,-36 2434.12,-36 2434.12,-36 2428.12,-36 2422.12,-30 2422.12,-24 2422.12,-24 2422.12,-12 2422.12,-12 2422.12,-6 2428.12,0 2434.12,0 2434.12,0 2464.12,0 2464.12,0 2470.12,0 2476.12,-6 2476.12,-12 2476.12,-12 2476.12,-24 2476.12,-24 2476.12,-30 2470.12,-36 2464.12,-36"/>
<text text-anchor="middle" x="2449.12" y="-12.57" font-family="Helvetica,sans-Serif" font-size="14.00">(...)</text>
</g>
<!-- 611&#45;&gt;617 -->
<g id="edge59" class="edge">
<title>611&#45;&gt;617</title>
<path fill="none" stroke="black" d="M2432.27,-71.67C2434.89,-63.47 2437.66,-54.84 2440.17,-46.98"/>
<polygon fill="black" stroke="black" points="2443.45,-48.22 2443.17,-37.62 2436.78,-46.08 2443.45,-48.22"/>
</g>
<!-- 631 -->
<g id="node62" class="node">
<title>631</title>
<path fill="#c0c0c0" stroke="black" d="M2565.12,-36C2565.12,-36 2535.12,-36 2535.12,-36 2529.12,-36 2523.12,-30 2523.12,-24 2523.12,-24 2523.12,-12 2523.12,-12 2523.12,-6 2529.12,0 2535.12,0 2535.12,0 2565.12,0 2565.12,0 2571.12,0 2577.12,-6 2577.12,-12 2577.12,-12 2577.12,-24 2577.12,-24 2577.12,-30 2571.12,-36 2565.12,-36"/>
<text text-anchor="middle" x="2550.12" y="-12.57" font-family="Helvetica,sans-Serif" font-size="14.00">(...)</text>
</g>
<!-- 630&#45;&gt;631 -->
<g id="edge61" class="edge">
<title>630&#45;&gt;631</title>
<path fill="none" stroke="black" d="M2571.79,-71.67C2568.38,-63.37 2564.79,-54.63 2561.53,-46.71"/>
<polygon fill="black" stroke="black" points="2564.81,-45.5 2557.77,-37.58 2558.34,-48.16 2564.81,-45.5"/>
</g>
<!-- 644 -->
<g id="node63" class="node">
<title>644</title>
<path fill="#c0c0c0" stroke="black" d="M2637.12,-36C2637.12,-36 2607.12,-36 2607.12,-36 2601.12,-36 2595.12,-30 2595.12,-24 2595.12,-24 2595.12,-12 2595.12,-12 2595.12,-6 2601.12,0 2607.12,0 2607.12,0 2637.12,0 2637.12,0 2643.12,0 2649.12,-6 2649.12,-12 2649.12,-12 2649.12,-24 2649.12,-24 2649.12,-30 2643.12,-36 2637.12,-36"/>
<text text-anchor="middle" x="2622.12" y="-12.57" font-family="Helvetica,sans-Serif" font-size="14.00">(...)</text>
</g>
<!-- 630&#45;&gt;644 -->
<g id="edge62" class="edge">
<title>630&#45;&gt;644</title>
<path fill="none" stroke="black" d="M2600.46,-71.67C2603.87,-63.37 2607.46,-54.63 2610.72,-46.71"/>
<polygon fill="black" stroke="black" points="2613.91,-48.16 2614.48,-37.58 2607.44,-45.5 2613.91,-48.16"/>
</g>
</g>
</svg>
