<?xml version="1.0" encoding="UTF-8" standalone="no"?>
<!DOCTYPE svg PUBLIC "-//W3C//DTD SVG 1.1//EN"
 "http://www.w3.org/Graphics/SVG/1.1/DTD/svg11.dtd">
<!-- Generated by graphviz version 12.2.1 (20241206.2353)
 -->
<!-- Title: Tree Pages: 1 -->
<svg width="2672pt" height="579pt"
 viewBox="0.00 0.00 2672.25 579.00" xmlns="http://www.w3.org/2000/svg" xmlns:xlink="http://www.w3.org/1999/xlink">
<g id="graph0" class="graph" transform="scale(1 1) rotate(0) translate(4 575)">
<title>Tree</title>
<polygon fill="white" stroke="none" points="-4,4 -4,-575 2668.25,-575 2668.25,4 -4,4"/>
<!-- 0 -->
<g id="node1" class="node">
<title>0</title>
<path fill="#f2c09c" stroke="black" d="M1482.25,-571C1482.25,-571 1356,-571 1356,-571 1350,-571 1344,-565 1344,-559 1344,-559 1344,-512 1344,-512 1344,-506 1350,-500 1356,-500 1356,-500 1482.25,-500 1482.25,-500 1488.25,-500 1494.25,-506 1494.25,-512 1494.25,-512 1494.25,-559 1494.25,-559 1494.25,-565 1488.25,-571 1482.25,-571"/>
<text text-anchor="start" x="1379" y="-553.7" font-family="Helvetica,sans-Serif" font-size="14.00">P4_8_3 ≤ 1.5</text>
<text text-anchor="start" x="1352" y="-537.95" font-family="Helvetica,sans-Serif" font-size="14.00">squared_error = 7.032</text>
<text text-anchor="start" x="1367" y="-522.2" font-family="Helvetica,sans-Serif" font-size="14.00">samples = 27056</text>
<text text-anchor="start" x="1378.62" y="-506.45" font-family="Helvetica,sans-Serif" font-size="14.00">value = 11.89</text>
</g>
<!-- 1 -->
<g id="node2" class="node">
<title>1</title>
<path fill="#f0b58b" stroke="black" d="M1062.25,-464C1062.25,-464 936,-464 936,-464 930,-464 924,-458 924,-452 924,-452 924,-405 924,-405 924,-399 930,-393 936,-393 936,-393 1062.25,-393 1062.25,-393 1068.25,-393 1074.25,-399 1074.25,-405 1074.25,-405 1074.25,-452 1074.25,-452 1074.25,-458 1068.25,-464 1062.25,-464"/>
<text text-anchor="start" x="959" y="-446.7" font-family="Helvetica,sans-Serif" font-size="14.00">P4_8_2 ≤ 1.5</text>
<text text-anchor="start" x="932" y="-430.95" font-family="Helvetica,sans-Serif" font-size="14.00">squared_error = 6.106</text>
<text text-anchor="start" x="947" y="-415.2" font-family="Helvetica,sans-Serif" font-size="14.00">samples = 13064</text>
<text text-anchor="start" x="954.5" y="-399.45" font-family="Helvetica,sans-Serif" font-size="14.00">value = 13.098</text>
</g>
<!-- 0&#45;&gt;1 -->
<g id="edge1" class="edge">
<title>0&#45;&gt;1</title>
<path fill="none" stroke="black" d="M1343.55,-515.61C1270.96,-497.46 1161.39,-470.07 1085.4,-451.07"/>
<polygon fill="black" stroke="black" points="1086.46,-447.73 1075.91,-448.7 1084.76,-454.52 1086.46,-447.73"/>
<text text-anchor="middle" x="1087.31" y="-464.34" font-family="Helvetica,sans-Serif" font-size="14.00">True</text>
</g>
<!-- 1488 -->
<g id="node33" class="node">
<title>1488</title>
<path fill="#f4caac" stroke="black" d="M1733.25,-464C1733.25,-464 1607,-464 1607,-464 1601,-464 1595,-458 1595,-452 1595,-452 1595,-405 1595,-405 1595,-399 1601,-393 1607,-393 1607,-393 1733.25,-393 1733.25,-393 1739.25,-393 1745.25,-399 1745.25,-405 1745.25,-405 1745.25,-452 1745.25,-452 1745.25,-458 1739.25,-464 1733.25,-464"/>
<text text-anchor="start" x="1630" y="-446.7" font-family="Helvetica,sans-Serif" font-size="14.00">P4_8_2 ≤ 1.5</text>
<text text-anchor="start" x="1603" y="-430.95" font-family="Helvetica,sans-Serif" font-size="14.00">squared_error = 5.263</text>
<text text-anchor="start" x="1618" y="-415.2" font-family="Helvetica,sans-Serif" font-size="14.00">samples = 13992</text>
<text text-anchor="start" x="1625.5" y="-399.45" font-family="Helvetica,sans-Serif" font-size="14.00">value = 10.762</text>
</g>
<!-- 0&#45;&gt;1488 -->
<g id="edge32" class="edge">
<title>0&#45;&gt;1488</title>
<path fill="none" stroke="black" d="M1494.43,-503C1522.73,-491.16 1555.1,-477.62 1584.28,-465.41"/>
<polygon fill="black" stroke="black" points="1585.6,-468.65 1593.47,-461.57 1582.9,-462.2 1585.6,-468.65"/>
<text text-anchor="middle" x="1585.38" y="-478.69" font-family="Helvetica,sans-Serif" font-size="14.00">False</text>
</g>
<!-- 2 -->
<g id="node3" class="node">
<title>2</title>
<path fill="#f2c19e" stroke="black" d="M558.25,-357C558.25,-357 432,-357 432,-357 426,-357 420,-351 420,-345 420,-345 420,-298 420,-298 420,-292 426,-286 432,-286 432,-286 558.25,-286 558.25,-286 564.25,-286 570.25,-292 570.25,-298 570.25,-298 570.25,-345 570.25,-345 570.25,-351 564.25,-357 558.25,-357"/>
<text text-anchor="start" x="462.5" y="-339.7" font-family="Helvetica,sans-Serif" font-size="14.00">P4_1 ≤ 0.5</text>
<text text-anchor="start" x="428" y="-323.95" font-family="Helvetica,sans-Serif" font-size="14.00">squared_error = 4.779</text>
<text text-anchor="start" x="446.75" y="-308.2" font-family="Helvetica,sans-Serif" font-size="14.00">samples = 5273</text>
<text text-anchor="start" x="450.88" y="-292.45" font-family="Helvetica,sans-Serif" font-size="14.00">value = 11.731</text>
</g>
<!-- 1&#45;&gt;2 -->
<g id="edge2" class="edge">
<title>1&#45;&gt;2</title>
<path fill="none" stroke="black" d="M923.67,-411.78C832.14,-392.71 678.17,-360.63 581.85,-340.57"/>
<polygon fill="black" stroke="black" points="582.67,-337.16 572.16,-338.55 581.24,-344.02 582.67,-337.16"/>
</g>
<!-- 683 -->
<g id="node18" class="node">
<title>683</title>
<path fill="#eead7e" stroke="black" d="M1062.25,-357C1062.25,-357 936,-357 936,-357 930,-357 924,-351 924,-345 924,-345 924,-298 924,-298 924,-292 930,-286 936,-286 936,-286 1062.25,-286 1062.25,-286 1068.25,-286 1074.25,-292 1074.25,-298 1074.25,-298 1074.25,-345 1074.25,-345 1074.25,-351 1068.25,-357 1062.25,-357"/>
<text text-anchor="start" x="966.5" y="-339.7" font-family="Helvetica,sans-Serif" font-size="14.00">P4_1 ≤ 0.5</text>
<text text-anchor="start" x="932" y="-323.95" font-family="Helvetica,sans-Serif" font-size="14.00">squared_error = 4.885</text>
<text text-anchor="start" x="950.75" y="-308.2" font-family="Helvetica,sans-Serif" font-size="14.00">samples = 7791</text>
<text text-anchor="start" x="954.5" y="-292.45" font-family="Helvetica,sans-Serif" font-size="14.00">value = 14.022</text>
</g>
<!-- 1&#45;&gt;683 -->
<g id="edge17" class="edge">
<title>1&#45;&gt;683</title>
<path fill="none" stroke="black" d="M999.12,-392.54C999.12,-384.92 999.12,-376.75 999.12,-368.77"/>
<polygon fill="black" stroke="black" points="1002.63,-368.82 999.13,-358.82 995.63,-368.82 1002.63,-368.82"/>
</g>
<!-- 3 -->
<g id="node4" class="node">
<title>3</title>
<path fill="#f0b48a" stroke="black" d="M306.25,-250C306.25,-250 180,-250 180,-250 174,-250 168,-244 168,-238 168,-238 168,-191 168,-191 168,-185 174,-179 180,-179 180,-179 306.25,-179 306.25,-179 312.25,-179 318.25,-185 318.25,-191 318.25,-191 318.25,-238 318.25,-238 318.25,-244 312.25,-250 306.25,-250"/>
<text text-anchor="start" x="203" y="-232.7" font-family="Helvetica,sans-Serif" font-size="14.00">P4_8_1 ≤ 1.5</text>
<text text-anchor="start" x="176" y="-216.95" font-family="Helvetica,sans-Serif" font-size="14.00">squared_error = 4.202</text>
<text text-anchor="start" x="194.75" y="-201.2" font-family="Helvetica,sans-Serif" font-size="14.00">samples = 1453</text>
<text text-anchor="start" x="198.5" y="-185.45" font-family="Helvetica,sans-Serif" font-size="14.00">value = 13.187</text>
</g>
<!-- 2&#45;&gt;3 -->
<g id="edge3" class="edge">
<title>2&#45;&gt;3</title>
<path fill="none" stroke="black" d="M419.52,-289C390.99,-277.11 358.33,-263.5 328.93,-251.25"/>
<polygon fill="black" stroke="black" points="330.65,-248.18 320.08,-247.56 327.96,-254.64 330.65,-248.18"/>
</g>
<!-- 232 -->
<g id="node11" class="node">
<title>232</title>
<path fill="#f3c6a6" stroke="black" d="M558.25,-250C558.25,-250 432,-250 432,-250 426,-250 420,-244 420,-238 420,-238 420,-191 420,-191 420,-185 426,-179 432,-179 432,-179 558.25,-179 558.25,-179 564.25,-179 570.25,-185 570.25,-191 570.25,-191 570.25,-238 570.25,-238 570.25,-244 564.25,-250 558.25,-250"/>
<text text-anchor="start" x="455" y="-232.7" font-family="Helvetica,sans-Serif" font-size="14.00">P4_6_1 ≤ 1.5</text>
<text text-anchor="start" x="428" y="-216.95" font-family="Helvetica,sans-Serif" font-size="14.00">squared_error = 3.885</text>
<text text-anchor="start" x="446.75" y="-201.2" font-family="Helvetica,sans-Serif" font-size="14.00">samples = 3820</text>
<text text-anchor="start" x="450.88" y="-185.45" font-family="Helvetica,sans-Serif" font-size="14.00">value = 11.177</text>
</g>
<!-- 2&#45;&gt;232 -->
<g id="edge10" class="edge">
<title>2&#45;&gt;232</title>
<path fill="none" stroke="black" d="M495.12,-285.54C495.12,-277.92 495.12,-269.75 495.12,-261.77"/>
<polygon fill="black" stroke="black" points="498.63,-261.82 495.13,-251.82 491.63,-261.82 498.63,-261.82"/>
</g>
<!-- 4 -->
<g id="node5" class="node">
<title>4</title>
<path fill="#f1bb95" stroke="black" d="M138.25,-143C138.25,-143 12,-143 12,-143 6,-143 0,-137 0,-131 0,-131 0,-84 0,-84 0,-78 6,-72 12,-72 12,-72 138.25,-72 138.25,-72 144.25,-72 150.25,-78 150.25,-84 150.25,-84 150.25,-131 150.25,-131 150.25,-137 144.25,-143 138.25,-143"/>
<text text-anchor="start" x="35" y="-125.7" font-family="Helvetica,sans-Serif" font-size="14.00">P4_6_1 ≤ 1.5</text>
<text text-anchor="start" x="8" y="-109.95" font-family="Helvetica,sans-Serif" font-size="14.00">squared_error = 3.486</text>
<text text-anchor="start" x="30.5" y="-94.2" font-family="Helvetica,sans-Serif" font-size="14.00">samples = 752</text>
<text text-anchor="start" x="30.5" y="-78.45" font-family="Helvetica,sans-Serif" font-size="14.00">value = 12.402</text>
</g>
<!-- 3&#45;&gt;4 -->
<g id="edge4" class="edge">
<title>3&#45;&gt;4</title>
<path fill="none" stroke="black" d="M187.18,-178.54C172.24,-169.2 155.97,-159.03 140.56,-149.4"/>
<polygon fill="black" stroke="black" points="142.73,-146.62 132.39,-144.29 139.02,-152.56 142.73,-146.62"/>
</g>
<!-- 119 -->
<g id="node8" class="node">
<title>119</title>
<path fill="#eead7e" stroke="black" d="M306.25,-143C306.25,-143 180,-143 180,-143 174,-143 168,-137 168,-131 168,-131 168,-84 168,-84 168,-78 174,-72 180,-72 180,-72 306.25,-72 306.25,-72 312.25,-72 318.25,-78 318.25,-84 318.25,-84 318.25,-131 318.25,-131 318.25,-137 312.25,-143 306.25,-143"/>
<text text-anchor="start" x="203" y="-125.7" font-family="Helvetica,sans-Serif" font-size="14.00">P4_6_4 ≤ 1.5</text>
<text text-anchor="start" x="176" y="-109.95" font-family="Helvetica,sans-Serif" font-size="14.00">squared_error = 3.601</text>
<text text-anchor="start" x="198.5" y="-94.2" font-family="Helvetica,sans-Serif" font-size="14.00">samples = 701</text>
<text text-anchor="start" x="198.5" y="-78.45" font-family="Helvetica,sans-Serif" font-size="14.00">value = 14.029</text>
</g>
<!-- 3&#45;&gt;119 -->
<g id="edge7" class="edge">
<title>3&#45;&gt;119</title>
<path fill="none" stroke="black" d="M243.12,-178.54C243.12,-170.92 243.12,-162.75 243.12,-154.77"/>
<polygon fill="black" stroke="black" points="246.63,-154.82 243.13,-144.82 239.63,-154.82 246.63,-154.82"/>
</g>
<!-- 5 -->
<g id="node6" class="node">
<title>5</title>
<path fill="#c0c0c0" stroke="black" d="M54.12,-36C54.12,-36 24.12,-36 24.12,-36 18.12,-36 12.12,-30 12.12,-24 12.12,-24 12.12,-12 12.12,-12 12.12,-6 18.12,0 24.12,0 24.12,0 54.12,0 54.12,0 60.12,0 66.12,-6 66.12,-12 66.12,-12 66.12,-24 66.12,-24 66.12,-30 60.12,-36 54.12,-36"/>
<text text-anchor="middle" x="39.12" y="-12.57" font-family="Helvetica,sans-Serif" font-size="14.00">(...)</text>
</g>
<!-- 4&#45;&gt;5 -->
<g id="edge5" class="edge">
<title>4&#45;&gt;5</title>
<path fill="none" stroke="black" d="M60.79,-71.67C57.38,-63.37 53.79,-54.63 50.53,-46.71"/>
<polygon fill="black" stroke="black" points="53.81,-45.5 46.77,-37.58 47.34,-48.16 53.81,-45.5"/>
</g>
<!-- 88 -->
<g id="node7" class="node">
<title>88</title>
<path fill="#c0c0c0" stroke="black" d="M126.12,-36C126.12,-36 96.12,-36 96.12,-36 90.12,-36 84.12,-30 84.12,-24 84.12,-24 84.12,-12 84.12,-12 84.12,-6 90.12,0 96.12,0 96.12,0 126.12,0 126.12,0 132.12,0 138.12,-6 138.12,-12 138.12,-12 138.12,-24 138.12,-24 138.12,-30 132.12,-36 126.12,-36"/>
<text text-anchor="middle" x="111.12" y="-12.57" font-family="Helvetica,sans-Serif" font-size="14.00">(...)</text>
</g>
<!-- 4&#45;&gt;88 -->
<g id="edge6" class="edge">
<title>4&#45;&gt;88</title>
<path fill="none" stroke="black" d="M89.46,-71.67C92.87,-63.37 96.46,-54.63 99.72,-46.71"/>
<polygon fill="black" stroke="black" points="102.91,-48.16 103.48,-37.58 96.44,-45.5 102.91,-48.16"/>
</g>
<!-- 120 -->
<g id="node9" class="node">
<title>120</title>
<path fill="#c0c0c0" stroke="black" d="M228.12,-36C228.12,-36 198.12,-36 198.12,-36 192.12,-36 186.12,-30 186.12,-24 186.12,-24 186.12,-12 186.12,-12 186.12,-6 192.12,0 198.12,0 198.12,0 228.12,0 228.12,0 234.12,0 240.12,-6 240.12,-12 240.12,-12 240.12,-24 240.12,-24 240.12,-30 234.12,-36 228.12,-36"/>
<text text-anchor="middle" x="213.12" y="-12.57" font-family="Helvetica,sans-Serif" font-size="14.00">(...)</text>
</g>
<!-- 119&#45;&gt;120 -->
<g id="edge8" class="edge">
<title>119&#45;&gt;120</title>
<path fill="none" stroke="black" d="M231.18,-71.67C228.37,-63.47 225.41,-54.84 222.72,-46.98"/>
<polygon fill="black" stroke="black" points="226.06,-45.94 219.51,-37.61 219.44,-48.21 226.06,-45.94"/>
</g>
<!-- 185 -->
<g id="node10" class="node">
<title>185</title>
<path fill="#c0c0c0" stroke="black" d="M300.12,-36C300.12,-36 270.12,-36 270.12,-36 264.12,-36 258.12,-30 258.12,-24 258.12,-24 258.12,-12 258.12,-12 258.12,-6 264.12,0 270.12,0 270.12,0 300.12,0 300.12,0 306.12,0 312.12,-6 312.12,-12 312.12,-12 312.12,-24 312.12,-24 312.12,-30 306.12,-36 300.12,-36"/>
<text text-anchor="middle" x="285.12" y="-12.57" font-family="Helvetica,sans-Serif" font-size="14.00">(...)</text>
</g>
<!-- 119&#45;&gt;185 -->
<g id="edge9" class="edge">
<title>119&#45;&gt;185</title>
<path fill="none" stroke="black" d="M259.85,-71.67C263.87,-63.28 268.12,-54.43 271.95,-46.44"/>
<polygon fill="black" stroke="black" points="275.05,-48.08 276.22,-37.55 268.74,-45.05 275.05,-48.08"/>
</g>
<!-- 233 -->
<g id="node12" class="node">
<title>233</title>
<path fill="#f3c3a0" stroke="black" d="M474.25,-143C474.25,-143 348,-143 348,-143 342,-143 336,-137 336,-131 336,-131 336,-84 336,-84 336,-78 342,-72 348,-72 348,-72 474.25,-72 474.25,-72 480.25,-72 486.25,-78 486.25,-84 486.25,-84 486.25,-131 486.25,-131 486.25,-137 480.25,-143 474.25,-143"/>
<text text-anchor="start" x="371" y="-125.7" font-family="Helvetica,sans-Serif" font-size="14.00">P4_8_1 ≤ 1.5</text>
<text text-anchor="start" x="344" y="-109.95" font-family="Helvetica,sans-Serif" font-size="14.00">squared_error = 3.355</text>
<text text-anchor="start" x="362.75" y="-94.2" font-family="Helvetica,sans-Serif" font-size="14.00">samples = 2755</text>
<text text-anchor="start" x="366.88" y="-78.45" font-family="Helvetica,sans-Serif" font-size="14.00">value = 11.619</text>
</g>
<!-- 232&#45;&gt;233 -->
<g id="edge11" class="edge">
<title>232&#45;&gt;233</title>
<path fill="none" stroke="black" d="M467.15,-178.54C460.42,-170.12 453.15,-161.03 446.14,-152.27"/>
<polygon fill="black" stroke="black" points="448.9,-150.11 439.92,-144.49 443.43,-154.49 448.9,-150.11"/>
</g>
<!-- 516 -->
<g id="node15" class="node">
<title>516</title>
<path fill="#f5d1b6" stroke="black" d="M642.25,-143C642.25,-143 516,-143 516,-143 510,-143 504,-137 504,-131 504,-131 504,-84 504,-84 504,-78 510,-72 516,-72 516,-72 642.25,-72 642.25,-72 648.25,-72 654.25,-78 654.25,-84 654.25,-84 654.25,-131 654.25,-131 654.25,-137 648.25,-143 642.25,-143"/>
<text text-anchor="start" x="539" y="-125.7" font-family="Helvetica,sans-Serif" font-size="14.00">P4_7_3 ≤ 1.5</text>
<text text-anchor="start" x="512" y="-109.95" font-family="Helvetica,sans-Serif" font-size="14.00">squared_error = 3.448</text>
<text text-anchor="start" x="530.75" y="-94.2" font-family="Helvetica,sans-Serif" font-size="14.00">samples = 1065</text>
<text text-anchor="start" x="534.5" y="-78.45" font-family="Helvetica,sans-Serif" font-size="14.00">value = 10.035</text>
</g>
<!-- 232&#45;&gt;516 -->
<g id="edge14" class="edge">
<title>232&#45;&gt;516</title>
<path fill="none" stroke="black" d="M523.1,-178.54C529.83,-170.12 537.1,-161.03 544.11,-152.27"/>
<polygon fill="black" stroke="black" points="546.82,-154.49 550.33,-144.49 541.35,-150.11 546.82,-154.49"/>
</g>
<!-- 234 -->
<g id="node13" class="node">
<title>234</title>
<path fill="#c0c0c0" stroke="black" d="M398.12,-36C398.12,-36 368.12,-36 368.12,-36 362.12,-36 356.12,-30 356.12,-24 356.12,-24 356.12,-12 356.12,-12 356.12,-6 362.12,0 368.12,0 368.12,0 398.12,0 398.12,0 404.12,0 410.12,-6 410.12,-12 410.12,-12 410.12,-24 410.12,-24 410.12,-30 404.12,-36 398.12,-36"/>
<text text-anchor="middle" x="383.12" y="-12.57" font-family="Helvetica,sans-Serif" font-size="14.00">(...)</text>
</g>
<!-- 233&#45;&gt;234 -->
<g id="edge12" class="edge">
<title>233&#45;&gt;234</title>
<path fill="none" stroke="black" d="M399.98,-71.67C397.36,-63.47 394.59,-54.84 392.08,-46.98"/>
<polygon fill="black" stroke="black" points="395.47,-46.08 389.08,-37.62 388.8,-48.22 395.47,-46.08"/>
</g>
<!-- 395 -->
<g id="node14" class="node">
<title>395</title>
<path fill="#c0c0c0" stroke="black" d="M470.12,-36C470.12,-36 440.12,-36 440.12,-36 434.12,-36 428.12,-30 428.12,-24 428.12,-24 428.12,-12 428.12,-12 428.12,-6 434.12,0 440.12,0 440.12,0 470.12,0 470.12,0 476.12,0 482.12,-6 482.12,-12 482.12,-12 482.12,-24 482.12,-24 482.12,-30 476.12,-36 470.12,-36"/>
<text text-anchor="middle" x="455.12" y="-12.57" font-family="Helvetica,sans-Serif" font-size="14.00">(...)</text>
</g>
<!-- 233&#45;&gt;395 -->
<g id="edge13" class="edge">
<title>233&#45;&gt;395</title>
<path fill="none" stroke="black" d="M428.64,-71.67C432.86,-63.28 437.31,-54.43 441.33,-46.44"/>
<polygon fill="black" stroke="black" points="444.44,-48.04 445.8,-37.53 438.19,-44.9 444.44,-48.04"/>
</g>
<!-- 517 -->
<g id="node16" class="node">
<title>517</title>
<path fill="#c0c0c0" stroke="black" d="M557.12,-36C557.12,-36 527.12,-36 527.12,-36 521.12,-36 515.12,-30 515.12,-24 515.12,-24 515.12,-12 515.12,-12 515.12,-6 521.12,0 527.12,0 527.12,0 557.12,0 557.12,0 563.12,0 569.12,-6 569.12,-12 569.12,-12 569.12,-24 569.12,-24 569.12,-30 563.12,-36 557.12,-36"/>
<text text-anchor="middle" x="542.12" y="-12.57" font-family="Helvetica,sans-Serif" font-size="14.00">(...)</text>
</g>
<!-- 516&#45;&gt;517 -->
<g id="edge15" class="edge">
<title>516&#45;&gt;517</title>
<path fill="none" stroke="black" d="M564.4,-71.67C560.89,-63.37 557.19,-54.63 553.84,-46.71"/>
<polygon fill="black" stroke="black" points="557.1,-45.42 549.98,-37.58 550.65,-48.15 557.1,-45.42"/>
</g>
<!-- 624 -->
<g id="node17" class="node">
<title>624</title>
<path fill="#c0c0c0" stroke="black" d="M629.12,-36C629.12,-36 599.12,-36 599.12,-36 593.12,-36 587.12,-30 587.12,-24 587.12,-24 587.12,-12 587.12,-12 587.12,-6 593.12,0 599.12,0 599.12,0 629.12,0 629.12,0 635.12,0 641.12,-6 641.12,-12 641.12,-12 641.12,-24 641.12,-24 641.12,-30 635.12,-36 629.12,-36"/>
<text text-anchor="middle" x="614.12" y="-12.57" font-family="Helvetica,sans-Serif" font-size="14.00">(...)</text>
</g>
<!-- 516&#45;&gt;624 -->
<g id="edge16" class="edge">
<title>516&#45;&gt;624</title>
<path fill="none" stroke="black" d="M593.06,-71.67C596.38,-63.37 599.87,-54.63 603.04,-46.71"/>
<polygon fill="black" stroke="black" points="606.23,-48.17 606.69,-37.59 599.73,-45.57 606.23,-48.17"/>
</g>
<!-- 684 -->
<g id="node19" class="node">
<title>684</title>
<path fill="#eca36e" stroke="black" d="M974.5,-250C974.5,-250 855.75,-250 855.75,-250 849.75,-250 843.75,-244 843.75,-238 843.75,-238 843.75,-191 843.75,-191 843.75,-185 849.75,-179 855.75,-179 855.75,-179 974.5,-179 974.5,-179 980.5,-179 986.5,-185 986.5,-191 986.5,-191 986.5,-238 986.5,-238 986.5,-244 980.5,-250 974.5,-250"/>
<text text-anchor="start" x="875" y="-232.7" font-family="Helvetica,sans-Serif" font-size="14.00">P4_8_1 ≤ 2.5</text>
<text text-anchor="start" x="851.75" y="-216.95" font-family="Helvetica,sans-Serif" font-size="14.00">squared_error = 3.97</text>
<text text-anchor="start" x="866.75" y="-201.2" font-family="Helvetica,sans-Serif" font-size="14.00">samples = 3156</text>
<text text-anchor="start" x="870.5" y="-185.45" font-family="Helvetica,sans-Serif" font-size="14.00">value = 15.159</text>
</g>
<!-- 683&#45;&gt;684 -->
<g id="edge18" class="edge">
<title>683&#45;&gt;684</title>
<path fill="none" stroke="black" d="M971.15,-285.54C964.42,-277.12 957.15,-268.03 950.14,-259.27"/>
<polygon fill="black" stroke="black" points="952.9,-257.11 943.92,-251.49 947.43,-261.49 952.9,-257.11"/>
</g>
<!-- 1021 -->
<g id="node26" class="node">
<title>1021</title>
<path fill="#efb489" stroke="black" d="M1146.25,-250C1146.25,-250 1020,-250 1020,-250 1014,-250 1008,-244 1008,-238 1008,-238 1008,-191 1008,-191 1008,-185 1014,-179 1020,-179 1020,-179 1146.25,-179 1146.25,-179 1152.25,-179 1158.25,-185 1158.25,-191 1158.25,-191 1158.25,-238 1158.25,-238 1158.25,-244 1152.25,-250 1146.25,-250"/>
<text text-anchor="start" x="1043" y="-232.7" font-family="Helvetica,sans-Serif" font-size="14.00">P4_8_1 ≤ 2.5</text>
<text text-anchor="start" x="1016" y="-216.95" font-family="Helvetica,sans-Serif" font-size="14.00">squared_error = 4.029</text>
<text text-anchor="start" x="1034.75" y="-201.2" font-family="Helvetica,sans-Serif" font-size="14.00">samples = 4635</text>
<text text-anchor="start" x="1038.5" y="-185.45" font-family="Helvetica,sans-Serif" font-size="14.00">value = 13.248</text>
</g>
<!-- 683&#45;&gt;1021 -->
<g id="edge25" class="edge">
<title>683&#45;&gt;1021</title>
<path fill="none" stroke="black" d="M1027.1,-285.54C1033.83,-277.12 1041.1,-268.03 1048.11,-259.27"/>
<polygon fill="black" stroke="black" points="1050.82,-261.49 1054.33,-251.49 1045.35,-257.11 1050.82,-261.49"/>
</g>
<!-- 685 -->
<g id="node20" class="node">
<title>685</title>
<path fill="#eeaa7a" stroke="black" d="M810.25,-143C810.25,-143 684,-143 684,-143 678,-143 672,-137 672,-131 672,-131 672,-84 672,-84 672,-78 678,-72 684,-72 684,-72 810.25,-72 810.25,-72 816.25,-72 822.25,-78 822.25,-84 822.25,-84 822.25,-131 822.25,-131 822.25,-137 816.25,-143 810.25,-143"/>
<text text-anchor="start" x="707" y="-125.7" font-family="Helvetica,sans-Serif" font-size="14.00">P7_1_2 ≤ 2.5</text>
<text text-anchor="start" x="680" y="-109.95" font-family="Helvetica,sans-Serif" font-size="14.00">squared_error = 3.434</text>
<text text-anchor="start" x="698.75" y="-94.2" font-family="Helvetica,sans-Serif" font-size="14.00">samples = 1474</text>
<text text-anchor="start" x="702.88" y="-78.45" font-family="Helvetica,sans-Serif" font-size="14.00">value = 14.311</text>
</g>
<!-- 684&#45;&gt;685 -->
<g id="edge19" class="edge">
<title>684&#45;&gt;685</title>
<path fill="none" stroke="black" d="M859.18,-178.54C844.24,-169.2 827.97,-159.03 812.56,-149.4"/>
<polygon fill="black" stroke="black" points="814.73,-146.62 804.39,-144.29 811.02,-152.56 814.73,-146.62"/>
</g>
<!-- 860 -->
<g id="node23" class="node">
<title>860</title>
<path fill="#eb9c63" stroke="black" d="M978.25,-143C978.25,-143 852,-143 852,-143 846,-143 840,-137 840,-131 840,-131 840,-84 840,-84 840,-78 846,-72 852,-72 852,-72 978.25,-72 978.25,-72 984.25,-72 990.25,-78 990.25,-84 990.25,-84 990.25,-131 990.25,-131 990.25,-137 984.25,-143 978.25,-143"/>
<text text-anchor="start" x="875" y="-125.7" font-family="Helvetica,sans-Serif" font-size="14.00">P4_6_4 ≤ 1.5</text>
<text text-anchor="start" x="848" y="-109.95" font-family="Helvetica,sans-Serif" font-size="14.00">squared_error = 3.259</text>
<text text-anchor="start" x="866.75" y="-94.2" font-family="Helvetica,sans-Serif" font-size="14.00">samples = 1682</text>
<text text-anchor="start" x="870.5" y="-78.45" font-family="Helvetica,sans-Serif" font-size="14.00">value = 15.902</text>
</g>
<!-- 684&#45;&gt;860 -->
<g id="edge22" class="edge">
<title>684&#45;&gt;860</title>
<path fill="none" stroke="black" d="M915.12,-178.54C915.12,-170.92 915.12,-162.75 915.12,-154.77"/>
<polygon fill="black" stroke="black" points="918.63,-154.82 915.13,-144.82 911.63,-154.82 918.63,-154.82"/>
</g>
<!-- 686 -->
<g id="node21" class="node">
<title>686</title>
<path fill="#c0c0c0" stroke="black" d="M708.12,-36C708.12,-36 678.12,-36 678.12,-36 672.12,-36 666.12,-30 666.12,-24 666.12,-24 666.12,-12 666.12,-12 666.12,-6 672.12,0 678.12,0 678.12,0 708.12,0 708.12,0 714.12,0 720.12,-6 720.12,-12 720.12,-12 720.12,-24 720.12,-24 720.12,-30 714.12,-36 708.12,-36"/>
<text text-anchor="middle" x="693.12" y="-12.57" font-family="Helvetica,sans-Serif" font-size="14.00">(...)</text>
</g>
<!-- 685&#45;&gt;686 -->
<g id="edge20" class="edge">
<title>685&#45;&gt;686</title>
<path fill="none" stroke="black" d="M725.63,-71.67C720.33,-63.09 714.74,-54.03 709.72,-45.89"/>
<polygon fill="black" stroke="black" points="712.75,-44.14 704.52,-37.47 706.8,-47.82 712.75,-44.14"/>
</g>
<!-- 767 -->
<g id="node22" class="node">
<title>767</title>
<path fill="#c0c0c0" stroke="black" d="M780.12,-36C780.12,-36 750.12,-36 750.12,-36 744.12,-36 738.12,-30 738.12,-24 738.12,-24 738.12,-12 738.12,-12 738.12,-6 744.12,0 750.12,0 750.12,0 780.12,0 780.12,0 786.12,0 792.12,-6 792.12,-12 792.12,-12 792.12,-24 792.12,-24 792.12,-30 786.12,-36 780.12,-36"/>
<text text-anchor="middle" x="765.12" y="-12.57" font-family="Helvetica,sans-Serif" font-size="14.00">(...)</text>
</g>
<!-- 685&#45;&gt;767 -->
<g id="edge21" class="edge">
<title>685&#45;&gt;767</title>
<path fill="none" stroke="black" d="M754.29,-71.67C755.96,-63.56 757.71,-55.04 759.31,-47.26"/>
<polygon fill="black" stroke="black" points="762.7,-48.17 761.29,-37.67 755.84,-46.75 762.7,-48.17"/>
</g>
<!-- 861 -->
<g id="node24" class="node">
<title>861</title>
<path fill="#c0c0c0" stroke="black" d="M882.12,-36C882.12,-36 852.12,-36 852.12,-36 846.12,-36 840.12,-30 840.12,-24 840.12,-24 840.12,-12 840.12,-12 840.12,-6 846.12,0 852.12,0 852.12,0 882.12,0 882.12,0 888.12,0 894.12,-6 894.12,-12 894.12,-12 894.12,-24 894.12,-24 894.12,-30 888.12,-36 882.12,-36"/>
<text text-anchor="middle" x="867.12" y="-12.57" font-family="Helvetica,sans-Serif" font-size="14.00">(...)</text>
</g>
<!-- 860&#45;&gt;861 -->
<g id="edge23" class="edge">
<title>860&#45;&gt;861</title>
<path fill="none" stroke="black" d="M896.02,-71.67C891.36,-63.18 886.45,-54.23 882.03,-46.17"/>
<polygon fill="black" stroke="black" points="885.16,-44.59 877.28,-37.51 879.02,-47.96 885.16,-44.59"/>
</g>
<!-- 948 -->
<g id="node25" class="node">
<title>948</title>
<path fill="#c0c0c0" stroke="black" d="M954.12,-36C954.12,-36 924.12,-36 924.12,-36 918.12,-36 912.12,-30 912.12,-24 912.12,-24 912.12,-12 912.12,-12 912.12,-6 918.12,0 924.12,0 924.12,0 954.12,0 954.12,0 960.12,0 966.12,-6 966.12,-12 966.12,-12 966.12,-24 966.12,-24 966.12,-30 960.12,-36 954.12,-36"/>
<text text-anchor="middle" x="939.12" y="-12.57" font-family="Helvetica,sans-Serif" font-size="14.00">(...)</text>
</g>
<!-- 860&#45;&gt;948 -->
<g id="edge24" class="edge">
<title>860&#45;&gt;948</title>
<path fill="none" stroke="black" d="M924.68,-71.67C926.9,-63.56 929.24,-55.04 931.37,-47.26"/>
<polygon fill="black" stroke="black" points="934.74,-48.21 934.01,-37.64 927.99,-46.36 934.74,-48.21"/>
</g>
<!-- 1022 -->
<g id="node27" class="node">
<title>1022</title>
<path fill="#f1bb93" stroke="black" d="M1146.25,-143C1146.25,-143 1020,-143 1020,-143 1014,-143 1008,-137 1008,-131 1008,-131 1008,-84 1008,-84 1008,-78 1014,-72 1020,-72 1020,-72 1146.25,-72 1146.25,-72 1152.25,-72 1158.25,-78 1158.25,-84 1158.25,-84 1158.25,-131 1158.25,-131 1158.25,-137 1152.25,-143 1146.25,-143"/>
<text text-anchor="start" x="1043" y="-125.7" font-family="Helvetica,sans-Serif" font-size="14.00">P4_6_1 ≤ 1.5</text>
<text text-anchor="start" x="1016" y="-109.95" font-family="Helvetica,sans-Serif" font-size="14.00">squared_error = 3.507</text>
<text text-anchor="start" x="1034.75" y="-94.2" font-family="Helvetica,sans-Serif" font-size="14.00">samples = 2603</text>
<text text-anchor="start" x="1038.5" y="-78.45" font-family="Helvetica,sans-Serif" font-size="14.00">value = 12.509</text>
</g>
<!-- 1021&#45;&gt;1022 -->
<g id="edge26" class="edge">
<title>1021&#45;&gt;1022</title>
<path fill="none" stroke="black" d="M1083.12,-178.54C1083.12,-170.92 1083.12,-162.75 1083.12,-154.77"/>
<polygon fill="black" stroke="black" points="1086.63,-154.82 1083.13,-144.82 1079.63,-154.82 1086.63,-154.82"/>
</g>
<!-- 1261 -->
<g id="node30" class="node">
<title>1261</title>
<path fill="#eeab7c" stroke="black" d="M1314.25,-143C1314.25,-143 1188,-143 1188,-143 1182,-143 1176,-137 1176,-131 1176,-131 1176,-84 1176,-84 1176,-78 1182,-72 1188,-72 1188,-72 1314.25,-72 1314.25,-72 1320.25,-72 1326.25,-78 1326.25,-84 1326.25,-84 1326.25,-131 1326.25,-131 1326.25,-137 1320.25,-143 1314.25,-143"/>
<text text-anchor="start" x="1211" y="-125.7" font-family="Helvetica,sans-Serif" font-size="14.00">P4_6_4 ≤ 1.5</text>
<text text-anchor="start" x="1184" y="-109.95" font-family="Helvetica,sans-Serif" font-size="14.00">squared_error = 3.102</text>
<text text-anchor="start" x="1202.75" y="-94.2" font-family="Helvetica,sans-Serif" font-size="14.00">samples = 2032</text>
<text text-anchor="start" x="1206.5" y="-78.45" font-family="Helvetica,sans-Serif" font-size="14.00">value = 14.195</text>
</g>
<!-- 1021&#45;&gt;1261 -->
<g id="edge29" class="edge">
<title>1021&#45;&gt;1261</title>
<path fill="none" stroke="black" d="M1139.07,-178.54C1154.01,-169.2 1170.28,-159.03 1185.69,-149.4"/>
<polygon fill="black" stroke="black" points="1187.23,-152.56 1193.86,-144.29 1183.52,-146.62 1187.23,-152.56"/>
</g>
<!-- 1023 -->
<g id="node28" class="node">
<title>1023</title>
<path fill="#c0c0c0" stroke="black" d="M1050.12,-36C1050.12,-36 1020.12,-36 1020.12,-36 1014.12,-36 1008.12,-30 1008.12,-24 1008.12,-24 1008.12,-12 1008.12,-12 1008.12,-6 1014.12,0 1020.12,0 1020.12,0 1050.12,0 1050.12,0 1056.12,0 1062.12,-6 1062.12,-12 1062.12,-12 1062.12,-24 1062.12,-24 1062.12,-30 1056.12,-36 1050.12,-36"/>
<text text-anchor="middle" x="1035.12" y="-12.57" font-family="Helvetica,sans-Serif" font-size="14.00">(...)</text>
</g>
<!-- 1022&#45;&gt;1023 -->
<g id="edge27" class="edge">
<title>1022&#45;&gt;1023</title>
<path fill="none" stroke="black" d="M1064.02,-71.67C1059.36,-63.18 1054.45,-54.23 1050.03,-46.17"/>
<polygon fill="black" stroke="black" points="1053.16,-44.59 1045.28,-37.51 1047.02,-47.96 1053.16,-44.59"/>
</g>
<!-- 1174 -->
<g id="node29" class="node">
<title>1174</title>
<path fill="#c0c0c0" stroke="black" d="M1122.12,-36C1122.12,-36 1092.12,-36 1092.12,-36 1086.12,-36 1080.12,-30 1080.12,-24 1080.12,-24 1080.12,-12 1080.12,-12 1080.12,-6 1086.12,0 1092.12,0 1092.12,0 1122.12,0 1122.12,0 1128.12,0 1134.12,-6 1134.12,-12 1134.12,-12 1134.12,-24 1134.12,-24 1134.12,-30 1128.12,-36 1122.12,-36"/>
<text text-anchor="middle" x="1107.12" y="-12.57" font-family="Helvetica,sans-Serif" font-size="14.00">(...)</text>
</g>
<!-- 1022&#45;&gt;1174 -->
<g id="edge28" class="edge">
<title>1022&#45;&gt;1174</title>
<path fill="none" stroke="black" d="M1092.68,-71.67C1094.9,-63.56 1097.24,-55.04 1099.37,-47.26"/>
<polygon fill="black" stroke="black" points="1102.74,-48.21 1102.01,-37.64 1095.99,-46.36 1102.74,-48.21"/>
</g>
<!-- 1262 -->
<g id="node31" class="node">
<title>1262</title>
<path fill="#c0c0c0" stroke="black" d="M1206.12,-36C1206.12,-36 1176.12,-36 1176.12,-36 1170.12,-36 1164.12,-30 1164.12,-24 1164.12,-24 1164.12,-12 1164.12,-12 1164.12,-6 1170.12,0 1176.12,0 1176.12,0 1206.12,0 1206.12,0 1212.12,0 1218.12,-6 1218.12,-12 1218.12,-12 1218.12,-24 1218.12,-24 1218.12,-30 1212.12,-36 1206.12,-36"/>
<text text-anchor="middle" x="1191.12" y="-12.57" font-family="Helvetica,sans-Serif" font-size="14.00">(...)</text>
</g>
<!-- 1261&#45;&gt;1262 -->
<g id="edge30" class="edge">
<title>1261&#45;&gt;1262</title>
<path fill="none" stroke="black" d="M1227.24,-71.67C1221.29,-62.99 1215.01,-53.83 1209.38,-45.62"/>
<polygon fill="black" stroke="black" points="1212.31,-43.7 1203.76,-37.43 1206.53,-47.66 1212.31,-43.7"/>
</g>
<!-- 1383 -->
<g id="node32" class="node">
<title>1383</title>
<path fill="#c0c0c0" stroke="black" d="M1278.12,-36C1278.12,-36 1248.12,-36 1248.12,-36 1242.12,-36 1236.12,-30 1236.12,-24 1236.12,-24 1236.12,-12 1236.12,-12 1236.12,-6 1242.12,0 1248.12,0 1248.12,0 1278.12,0 1278.12,0 1284.12,0 1290.12,-6 1290.12,-12 1290.12,-12 1290.12,-24 1290.12,-24 1290.12,-30 1284.12,-36 1278.12,-36"/>
<text text-anchor="middle" x="1263.12" y="-12.57" font-family="Helvetica,sans-Serif" font-size="14.00">(...)</text>
</g>
<!-- 1261&#45;&gt;1383 -->
<g id="edge31" class="edge">
<title>1261&#45;&gt;1383</title>
<path fill="none" stroke="black" d="M1255.9,-71.67C1257,-63.66 1258.16,-55.24 1259.21,-47.53"/>
<polygon fill="black" stroke="black" points="1262.67,-48.07 1260.56,-37.68 1255.74,-47.11 1262.67,-48.07"/>
</g>
<!-- 1489 -->
<g id="node34" class="node">
<title>1489</title>
<path fill="#f6d2b9" stroke="black" d="M1733.25,-357C1733.25,-357 1607,-357 1607,-357 1601,-357 1595,-351 1595,-345 1595,-345 1595,-298 1595,-298 1595,-292 1601,-286 1607,-286 1607,-286 1733.25,-286 1733.25,-286 1739.25,-286 1745.25,-292 1745.25,-298 1745.25,-298 1745.25,-345 1745.25,-345 1745.25,-351 1739.25,-357 1733.25,-357"/>
<text text-anchor="start" x="1630" y="-339.7" font-family="Helvetica,sans-Serif" font-size="14.00">P4_6_4 ≤ 1.5</text>
<text text-anchor="start" x="1603" y="-323.95" font-family="Helvetica,sans-Serif" font-size="14.00">squared_error = 4.167</text>
<text text-anchor="start" x="1621.75" y="-308.2" font-family="Helvetica,sans-Serif" font-size="14.00">samples = 6874</text>
<text text-anchor="start" x="1629.25" y="-292.45" font-family="Helvetica,sans-Serif" font-size="14.00">value = 9.879</text>
</g>
<!-- 1488&#45;&gt;1489 -->
<g id="edge33" class="edge">
<title>1488&#45;&gt;1489</title>
<path fill="none" stroke="black" d="M1670.12,-392.54C1670.12,-384.92 1670.12,-376.75 1670.12,-368.77"/>
<polygon fill="black" stroke="black" points="1673.63,-368.82 1670.13,-358.82 1666.63,-368.82 1673.63,-368.82"/>
</g>
<!-- 2282 -->
<g id="node49" class="node">
<title>2282</title>
<path fill="#f3c3a0" stroke="black" d="M2232.25,-357C2232.25,-357 2106,-357 2106,-357 2100,-357 2094,-351 2094,-345 2094,-345 2094,-298 2094,-298 2094,-292 2100,-286 2106,-286 2106,-286 2232.25,-286 2232.25,-286 2238.25,-286 2244.25,-292 2244.25,-298 2244.25,-298 2244.25,-345 2244.25,-345 2244.25,-351 2238.25,-357 2232.25,-357"/>
<text text-anchor="start" x="2129" y="-339.7" font-family="Helvetica,sans-Serif" font-size="14.00">P4_6_2 ≤ 1.5</text>
<text text-anchor="start" x="2102" y="-323.95" font-family="Helvetica,sans-Serif" font-size="14.00">squared_error = 4.843</text>
<text text-anchor="start" x="2121.12" y="-308.2" font-family="Helvetica,sans-Serif" font-size="14.00">samples = 7118</text>
<text text-anchor="start" x="2124.88" y="-292.45" font-family="Helvetica,sans-Serif" font-size="14.00">value = 11.614</text>
</g>
<!-- 1488&#45;&gt;2282 -->
<g id="edge48" class="edge">
<title>1488&#45;&gt;2282</title>
<path fill="none" stroke="black" d="M1745.64,-411.61C1836.19,-392.56 1987.62,-360.69 2082.74,-340.68"/>
<polygon fill="black" stroke="black" points="2083.22,-344.15 2092.28,-338.67 2081.78,-337.3 2083.22,-344.15"/>
</g>
<!-- 1490 -->
<g id="node35" class="node">
<title>1490</title>
<path fill="#f4c8a9" stroke="black" d="M1649.25,-250C1649.25,-250 1523,-250 1523,-250 1517,-250 1511,-244 1511,-238 1511,-238 1511,-191 1511,-191 1511,-185 1517,-179 1523,-179 1523,-179 1649.25,-179 1649.25,-179 1655.25,-179 1661.25,-185 1661.25,-191 1661.25,-191 1661.25,-238 1661.25,-238 1661.25,-244 1655.25,-250 1649.25,-250"/>
<text text-anchor="start" x="1542.62" y="-232.7" font-family="Helvetica,sans-Serif" font-size="14.00">P11_3_9 ≤ 0.5</text>
<text text-anchor="start" x="1519" y="-216.95" font-family="Helvetica,sans-Serif" font-size="14.00">squared_error = 3.678</text>
<text text-anchor="start" x="1537.75" y="-201.2" font-family="Helvetica,sans-Serif" font-size="14.00">samples = 2129</text>
<text text-anchor="start" x="1541.88" y="-185.45" font-family="Helvetica,sans-Serif" font-size="14.00">value = 11.005</text>
</g>
<!-- 1489&#45;&gt;1490 -->
<g id="edge34" class="edge">
<title>1489&#45;&gt;1490</title>
<path fill="none" stroke="black" d="M1642.15,-285.54C1635.42,-277.12 1628.15,-268.03 1621.14,-259.27"/>
<polygon fill="black" stroke="black" points="1623.9,-257.11 1614.92,-251.49 1618.43,-261.49 1623.9,-257.11"/>
</g>
<!-- 1769 -->
<g id="node42" class="node">
<title>1769</title>
<path fill="#f7d7c0" stroke="black" d="M1817.25,-250C1817.25,-250 1691,-250 1691,-250 1685,-250 1679,-244 1679,-238 1679,-238 1679,-191 1679,-191 1679,-185 1685,-179 1691,-179 1691,-179 1817.25,-179 1817.25,-179 1823.25,-179 1829.25,-185 1829.25,-191 1829.25,-191 1829.25,-238 1829.25,-238 1829.25,-244 1823.25,-250 1817.25,-250"/>
<text text-anchor="start" x="1714" y="-232.7" font-family="Helvetica,sans-Serif" font-size="14.00">P4_6_1 ≤ 1.5</text>
<text text-anchor="start" x="1687" y="-216.95" font-family="Helvetica,sans-Serif" font-size="14.00">squared_error = 3.563</text>
<text text-anchor="start" x="1705.75" y="-201.2" font-family="Helvetica,sans-Serif" font-size="14.00">samples = 4745</text>
<text text-anchor="start" x="1713.25" y="-185.45" font-family="Helvetica,sans-Serif" font-size="14.00">value = 9.374</text>
</g>
<!-- 1489&#45;&gt;1769 -->
<g id="edge41" class="edge">
<title>1489&#45;&gt;1769</title>
<path fill="none" stroke="black" d="M1698.1,-285.54C1704.83,-277.12 1712.1,-268.03 1719.11,-259.27"/>
<polygon fill="black" stroke="black" points="1721.82,-261.49 1725.33,-251.49 1716.35,-257.11 1721.82,-261.49"/>
</g>
<!-- 1491 -->
<g id="node36" class="node">
<title>1491</title>
<path fill="#f2c2a0" stroke="black" d="M1482.25,-143C1482.25,-143 1356,-143 1356,-143 1350,-143 1344,-137 1344,-131 1344,-131 1344,-84 1344,-84 1344,-78 1350,-72 1356,-72 1356,-72 1482.25,-72 1482.25,-72 1488.25,-72 1494.25,-78 1494.25,-84 1494.25,-84 1494.25,-131 1494.25,-131 1494.25,-137 1488.25,-143 1482.25,-143"/>
<text text-anchor="start" x="1379" y="-125.7" font-family="Helvetica,sans-Serif" font-size="14.00">P4_8_1 ≤ 1.5</text>
<text text-anchor="start" x="1352" y="-109.95" font-family="Helvetica,sans-Serif" font-size="14.00">squared_error = 3.408</text>
<text text-anchor="start" x="1370.75" y="-94.2" font-family="Helvetica,sans-Serif" font-size="14.00">samples = 1093</text>
<text text-anchor="start" x="1374.88" y="-78.45" font-family="Helvetica,sans-Serif" font-size="14.00">value = 11.636</text>
</g>
<!-- 1490&#45;&gt;1491 -->
<g id="edge35" class="edge">
<title>1490&#45;&gt;1491</title>
<path fill="none" stroke="black" d="M1530.52,-178.54C1515.67,-169.2 1499.49,-159.03 1484.18,-149.4"/>
<polygon fill="black" stroke="black" points="1486.39,-146.66 1476.06,-144.3 1482.66,-152.58 1486.39,-146.66"/>
</g>
<!-- 1632 -->
<g id="node39" class="node">
<title>1632</title>
<path fill="#f5ceb2" stroke="black" d="M1650.25,-143C1650.25,-143 1524,-143 1524,-143 1518,-143 1512,-137 1512,-131 1512,-131 1512,-84 1512,-84 1512,-78 1518,-72 1524,-72 1524,-72 1650.25,-72 1650.25,-72 1656.25,-72 1662.25,-78 1662.25,-84 1662.25,-84 1662.25,-131 1662.25,-131 1662.25,-137 1656.25,-143 1650.25,-143"/>
<text text-anchor="start" x="1547" y="-125.7" font-family="Helvetica,sans-Serif" font-size="14.00">P4_6_1 ≤ 1.5</text>
<text text-anchor="start" x="1520" y="-109.95" font-family="Helvetica,sans-Serif" font-size="14.00">squared_error = 3.098</text>
<text text-anchor="start" x="1538.75" y="-94.2" font-family="Helvetica,sans-Serif" font-size="14.00">samples = 1036</text>
<text text-anchor="start" x="1542.5" y="-78.45" font-family="Helvetica,sans-Serif" font-size="14.00">value = 10.338</text>
</g>
<!-- 1490&#45;&gt;1632 -->
<g id="edge38" class="edge">
<title>1490&#45;&gt;1632</title>
<path fill="none" stroke="black" d="M1586.46,-178.54C1586.53,-170.92 1586.61,-162.75 1586.68,-154.77"/>
<polygon fill="black" stroke="black" points="1590.18,-154.86 1586.78,-144.82 1583.18,-154.79 1590.18,-154.86"/>
</g>
<!-- 1492 -->
<g id="node37" class="node">
<title>1492</title>
<path fill="#c0c0c0" stroke="black" d="M1374.12,-36C1374.12,-36 1344.12,-36 1344.12,-36 1338.12,-36 1332.12,-30 1332.12,-24 1332.12,-24 1332.12,-12 1332.12,-12 1332.12,-6 1338.12,0 1344.12,0 1344.12,0 1374.12,0 1374.12,0 1380.12,0 1386.12,-6 1386.12,-12 1386.12,-12 1386.12,-24 1386.12,-24 1386.12,-30 1380.12,-36 1374.12,-36"/>
<text text-anchor="middle" x="1359.12" y="-12.57" font-family="Helvetica,sans-Serif" font-size="14.00">(...)</text>
</g>
<!-- 1491&#45;&gt;1492 -->
<g id="edge36" class="edge">
<title>1491&#45;&gt;1492</title>
<path fill="none" stroke="black" d="M1395.24,-71.67C1389.29,-62.99 1383.01,-53.83 1377.38,-45.62"/>
<polygon fill="black" stroke="black" points="1380.31,-43.7 1371.76,-37.43 1374.53,-47.66 1380.31,-43.7"/>
</g>
<!-- 1559 -->
<g id="node38" class="node">
<title>1559</title>
<path fill="#c0c0c0" stroke="black" d="M1446.12,-36C1446.12,-36 1416.12,-36 1416.12,-36 1410.12,-36 1404.12,-30 1404.12,-24 1404.12,-24 1404.12,-12 1404.12,-12 1404.12,-6 1410.12,0 1416.12,0 1416.12,0 1446.12,0 1446.12,0 1452.12,0 1458.12,-6 1458.12,-12 1458.12,-12 1458.12,-24 1458.12,-24 1458.12,-30 1452.12,-36 1446.12,-36"/>
<text text-anchor="middle" x="1431.12" y="-12.57" font-family="Helvetica,sans-Serif" font-size="14.00">(...)</text>
</g>
<!-- 1491&#45;&gt;1559 -->
<g id="edge37" class="edge">
<title>1491&#45;&gt;1559</title>
<path fill="none" stroke="black" d="M1423.9,-71.67C1425,-63.66 1426.16,-55.24 1427.21,-47.53"/>
<polygon fill="black" stroke="black" points="1430.67,-48.07 1428.56,-37.68 1423.74,-47.11 1430.67,-48.07"/>
</g>
<!-- 1633 -->
<g id="node40" class="node">
<title>1633</title>
<path fill="#c0c0c0" stroke="black" d="M1540.12,-36C1540.12,-36 1510.12,-36 1510.12,-36 1504.12,-36 1498.12,-30 1498.12,-24 1498.12,-24 1498.12,-12 1498.12,-12 1498.12,-6 1504.12,0 1510.12,0 1510.12,0 1540.12,0 1540.12,0 1546.12,0 1552.12,-6 1552.12,-12 1552.12,-12 1552.12,-24 1552.12,-24 1552.12,-30 1546.12,-36 1540.12,-36"/>
<text text-anchor="middle" x="1525.12" y="-12.57" font-family="Helvetica,sans-Serif" font-size="14.00">(...)</text>
</g>
<!-- 1632&#45;&gt;1633 -->
<g id="edge39" class="edge">
<title>1632&#45;&gt;1633</title>
<path fill="none" stroke="black" d="M1562.44,-71.67C1556.23,-62.9 1549.66,-53.63 1543.8,-45.35"/>
<polygon fill="black" stroke="black" points="1546.81,-43.55 1538.18,-37.42 1541.1,-47.6 1546.81,-43.55"/>
</g>
<!-- 1720 -->
<g id="node41" class="node">
<title>1720</title>
<path fill="#c0c0c0" stroke="black" d="M1612.12,-36C1612.12,-36 1582.12,-36 1582.12,-36 1576.12,-36 1570.12,-30 1570.12,-24 1570.12,-24 1570.12,-12 1570.12,-12 1570.12,-6 1576.12,0 1582.12,0 1582.12,0 1612.12,0 1612.12,0 1618.12,0 1624.12,-6 1624.12,-12 1624.12,-12 1624.12,-24 1624.12,-24 1624.12,-30 1618.12,-36 1612.12,-36"/>
<text text-anchor="middle" x="1597.12" y="-12.57" font-family="Helvetica,sans-Serif" font-size="14.00">(...)</text>
</g>
<!-- 1632&#45;&gt;1720 -->
<g id="edge40" class="edge">
<title>1632&#45;&gt;1720</title>
<path fill="none" stroke="black" d="M1591.11,-71.67C1592.02,-63.66 1592.98,-55.24 1593.86,-47.53"/>
<polygon fill="black" stroke="black" points="1597.33,-48.02 1594.99,-37.69 1590.38,-47.22 1597.33,-48.02"/>
</g>
<!-- 1770 -->
<g id="node43" class="node">
<title>1770</title>
<path fill="#f6d2b8" stroke="black" d="M1811.5,-143C1811.5,-143 1692.75,-143 1692.75,-143 1686.75,-143 1680.75,-137 1680.75,-131 1680.75,-131 1680.75,-84 1680.75,-84 1680.75,-78 1686.75,-72 1692.75,-72 1692.75,-72 1811.5,-72 1811.5,-72 1817.5,-72 1823.5,-78 1823.5,-84 1823.5,-84 1823.5,-131 1823.5,-131 1823.5,-137 1817.5,-143 1811.5,-143"/>
<text text-anchor="start" x="1712" y="-125.7" font-family="Helvetica,sans-Serif" font-size="14.00">P4_7_3 ≤ 1.5</text>
<text text-anchor="start" x="1688.75" y="-109.95" font-family="Helvetica,sans-Serif" font-size="14.00">squared_error = 3.24</text>
<text text-anchor="start" x="1703.75" y="-94.2" font-family="Helvetica,sans-Serif" font-size="14.00">samples = 2703</text>
<text text-anchor="start" x="1711.25" y="-78.45" font-family="Helvetica,sans-Serif" font-size="14.00">value = 9.941</text>
</g>
<!-- 1769&#45;&gt;1770 -->
<g id="edge42" class="edge">
<title>1769&#45;&gt;1770</title>
<path fill="none" stroke="black" d="M1753.46,-178.54C1753.31,-170.92 1753.16,-162.75 1753.01,-154.77"/>
<polygon fill="black" stroke="black" points="1756.51,-154.76 1752.82,-144.82 1749.51,-154.89 1756.51,-154.76"/>
</g>
<!-- 2045 -->
<g id="node46" class="node">
<title>2045</title>
<path fill="#f8ddca" stroke="black" d="M1980.25,-143C1980.25,-143 1854,-143 1854,-143 1848,-143 1842,-137 1842,-131 1842,-131 1842,-84 1842,-84 1842,-78 1848,-72 1854,-72 1854,-72 1980.25,-72 1980.25,-72 1986.25,-72 1992.25,-78 1992.25,-84 1992.25,-84 1992.25,-131 1992.25,-131 1992.25,-137 1986.25,-143 1980.25,-143"/>
<text text-anchor="start" x="1877" y="-125.7" font-family="Helvetica,sans-Serif" font-size="14.00">P4_7_3 ≤ 1.5</text>
<text text-anchor="start" x="1850" y="-109.95" font-family="Helvetica,sans-Serif" font-size="14.00">squared_error = 3.004</text>
<text text-anchor="start" x="1868.75" y="-94.2" font-family="Helvetica,sans-Serif" font-size="14.00">samples = 2042</text>
<text text-anchor="start" x="1876.25" y="-78.45" font-family="Helvetica,sans-Serif" font-size="14.00">value = 8.625</text>
</g>
<!-- 1769&#45;&gt;2045 -->
<g id="edge45" class="edge">
<title>1769&#45;&gt;2045</title>
<path fill="none" stroke="black" d="M1808.4,-178.54C1822.76,-169.29 1838.39,-159.22 1853.21,-149.67"/>
<polygon fill="black" stroke="black" points="1855.02,-152.67 1861.54,-144.31 1851.23,-146.78 1855.02,-152.67"/>
</g>
<!-- 1771 -->
<g id="node44" class="node">
<title>1771</title>
<path fill="#c0c0c0" stroke="black" d="M1705.12,-36C1705.12,-36 1675.12,-36 1675.12,-36 1669.12,-36 1663.12,-30 1663.12,-24 1663.12,-24 1663.12,-12 1663.12,-12 1663.12,-6 1669.12,0 1675.12,0 1675.12,0 1705.12,0 1705.12,0 1711.12,0 1717.12,-6 1717.12,-12 1717.12,-12 1717.12,-24 1717.12,-24 1717.12,-30 1711.12,-36 1705.12,-36"/>
<text text-anchor="middle" x="1690.12" y="-12.57" font-family="Helvetica,sans-Serif" font-size="14.00">(...)</text>
</g>
<!-- 1770&#45;&gt;1771 -->
<g id="edge43" class="edge">
<title>1770&#45;&gt;1771</title>
<path fill="none" stroke="black" d="M1727.44,-71.67C1721.23,-62.9 1714.66,-53.63 1708.8,-45.35"/>
<polygon fill="black" stroke="black" points="1711.81,-43.55 1703.18,-37.42 1706.1,-47.6 1711.81,-43.55"/>
</g>
<!-- 1928 -->
<g id="node45" class="node">
<title>1928</title>
<path fill="#c0c0c0" stroke="black" d="M1777.12,-36C1777.12,-36 1747.12,-36 1747.12,-36 1741.12,-36 1735.12,-30 1735.12,-24 1735.12,-24 1735.12,-12 1735.12,-12 1735.12,-6 1741.12,0 1747.12,0 1747.12,0 1777.12,0 1777.12,0 1783.12,0 1789.12,-6 1789.12,-12 1789.12,-12 1789.12,-24 1789.12,-24 1789.12,-30 1783.12,-36 1777.12,-36"/>
<text text-anchor="middle" x="1762.12" y="-12.57" font-family="Helvetica,sans-Serif" font-size="14.00">(...)</text>
</g>
<!-- 1770&#45;&gt;1928 -->
<g id="edge44" class="edge">
<title>1770&#45;&gt;1928</title>
<path fill="none" stroke="black" d="M1756.11,-71.67C1757.02,-63.66 1757.98,-55.24 1758.86,-47.53"/>
<polygon fill="black" stroke="black" points="1762.33,-48.02 1759.99,-37.69 1755.38,-47.22 1762.33,-48.02"/>
</g>
<!-- 2046 -->
<g id="node47" class="node">
<title>2046</title>
<path fill="#c0c0c0" stroke="black" d="M1872.12,-36C1872.12,-36 1842.12,-36 1842.12,-36 1836.12,-36 1830.12,-30 1830.12,-24 1830.12,-24 1830.12,-12 1830.12,-12 1830.12,-6 1836.12,0 1842.12,0 1842.12,0 1872.12,0 1872.12,0 1878.12,0 1884.12,-6 1884.12,-12 1884.12,-12 1884.12,-24 1884.12,-24 1884.12,-30 1878.12,-36 1872.12,-36"/>
<text text-anchor="middle" x="1857.12" y="-12.57" font-family="Helvetica,sans-Serif" font-size="14.00">(...)</text>
</g>
<!-- 2045&#45;&gt;2046 -->
<g id="edge46" class="edge">
<title>2045&#45;&gt;2046</title>
<path fill="none" stroke="black" d="M1893.24,-71.67C1887.29,-62.99 1881.01,-53.83 1875.38,-45.62"/>
<polygon fill="black" stroke="black" points="1878.31,-43.7 1869.76,-37.43 1872.53,-47.66 1878.31,-43.7"/>
</g>
<!-- 2183 -->
<g id="node48" class="node">
<title>2183</title>
<path fill="#c0c0c0" stroke="black" d="M1944.12,-36C1944.12,-36 1914.12,-36 1914.12,-36 1908.12,-36 1902.12,-30 1902.12,-24 1902.12,-24 1902.12,-12 1902.12,-12 1902.12,-6 1908.12,0 1914.12,0 1914.12,0 1944.12,0 1944.12,0 1950.12,0 1956.12,-6 1956.12,-12 1956.12,-12 1956.12,-24 1956.12,-24 1956.12,-30 1950.12,-36 1944.12,-36"/>
<text text-anchor="middle" x="1929.12" y="-12.57" font-family="Helvetica,sans-Serif" font-size="14.00">(...)</text>
</g>
<!-- 2045&#45;&gt;2183 -->
<g id="edge47" class="edge">
<title>2045&#45;&gt;2183</title>
<path fill="none" stroke="black" d="M1921.9,-71.67C1923,-63.66 1924.16,-55.24 1925.21,-47.53"/>
<polygon fill="black" stroke="black" points="1928.67,-48.07 1926.56,-37.68 1921.74,-47.11 1928.67,-48.07"/>
</g>
<!-- 2283 -->
<g id="node50" class="node">
<title>2283</title>
<path fill="#f2be99" stroke="black" d="M2232.25,-250C2232.25,-250 2106,-250 2106,-250 2100,-250 2094,-244 2094,-238 2094,-238 2094,-191 2094,-191 2094,-185 2100,-179 2106,-179 2106,-179 2232.25,-179 2232.25,-179 2238.25,-179 2244.25,-185 2244.25,-191 2244.25,-191 2244.25,-238 2244.25,-238 2244.25,-244 2238.25,-250 2232.25,-250"/>
<text text-anchor="start" x="2125.62" y="-232.7" font-family="Helvetica,sans-Serif" font-size="14.00">P11_3_9 ≤ 0.5</text>
<text text-anchor="start" x="2102" y="-216.95" font-family="Helvetica,sans-Serif" font-size="14.00">squared_error = 4.097</text>
<text text-anchor="start" x="2120.75" y="-201.2" font-family="Helvetica,sans-Serif" font-size="14.00">samples = 5025</text>
<text text-anchor="start" x="2124.5" y="-185.45" font-family="Helvetica,sans-Serif" font-size="14.00">value = 12.142</text>
</g>
<!-- 2282&#45;&gt;2283 -->
<g id="edge49" class="edge">
<title>2282&#45;&gt;2283</title>
<path fill="none" stroke="black" d="M2169.12,-285.54C2169.12,-277.92 2169.12,-269.75 2169.12,-261.77"/>
<polygon fill="black" stroke="black" points="2172.63,-261.82 2169.13,-251.82 2165.63,-261.82 2172.63,-261.82"/>
</g>
<!-- 2790 -->
<g id="node57" class="node">
<title>2790</title>
<path fill="#f5ceb2" stroke="black" d="M2484.25,-250C2484.25,-250 2358,-250 2358,-250 2352,-250 2346,-244 2346,-238 2346,-238 2346,-191 2346,-191 2346,-185 2352,-179 2358,-179 2358,-179 2484.25,-179 2484.25,-179 2490.25,-179 2496.25,-185 2496.25,-191 2496.25,-191 2496.25,-238 2496.25,-238 2496.25,-244 2490.25,-250 2484.25,-250"/>
<text text-anchor="start" x="2381" y="-232.7" font-family="Helvetica,sans-Serif" font-size="14.00">P4_8_1 ≤ 2.5</text>
<text text-anchor="start" x="2354" y="-216.95" font-family="Helvetica,sans-Serif" font-size="14.00">squared_error = 4.354</text>
<text text-anchor="start" x="2372.75" y="-201.2" font-family="Helvetica,sans-Serif" font-size="14.00">samples = 2093</text>
<text text-anchor="start" x="2376.5" y="-185.45" font-family="Helvetica,sans-Serif" font-size="14.00">value = 10.345</text>
</g>
<!-- 2282&#45;&gt;2790 -->
<g id="edge56" class="edge">
<title>2282&#45;&gt;2790</title>
<path fill="none" stroke="black" d="M2244.73,-289C2273.26,-277.11 2305.92,-263.5 2335.32,-251.25"/>
<polygon fill="black" stroke="black" points="2336.29,-254.64 2344.17,-247.56 2333.6,-248.18 2336.29,-254.64"/>
</g>
<!-- 2284 -->
<g id="node51" class="node">
<title>2284</title>
<path fill="#f0b88f" stroke="black" d="M2148.25,-143C2148.25,-143 2022,-143 2022,-143 2016,-143 2010,-137 2010,-131 2010,-131 2010,-84 2010,-84 2010,-78 2016,-72 2022,-72 2022,-72 2148.25,-72 2148.25,-72 2154.25,-72 2160.25,-78 2160.25,-84 2160.25,-84 2160.25,-131 2160.25,-131 2160.25,-137 2154.25,-143 2148.25,-143"/>
<text text-anchor="start" x="2045" y="-125.7" font-family="Helvetica,sans-Serif" font-size="14.00">P4_8_1 ≤ 2.5</text>
<text text-anchor="start" x="2018" y="-109.95" font-family="Helvetica,sans-Serif" font-size="14.00">squared_error = 3.532</text>
<text text-anchor="start" x="2036.75" y="-94.2" font-family="Helvetica,sans-Serif" font-size="14.00">samples = 2799</text>
<text text-anchor="start" x="2040.5" y="-78.45" font-family="Helvetica,sans-Serif" font-size="14.00">value = 12.832</text>
</g>
<!-- 2283&#45;&gt;2284 -->
<g id="edge50" class="edge">
<title>2283&#45;&gt;2284</title>
<path fill="none" stroke="black" d="M2141.15,-178.54C2134.42,-170.12 2127.15,-161.03 2120.14,-152.27"/>
<polygon fill="black" stroke="black" points="2122.9,-150.11 2113.92,-144.49 2117.43,-154.49 2122.9,-150.11"/>
</g>
<!-- 2561 -->
<g id="node54" class="node">
<title>2561</title>
<path fill="#f3c6a5" stroke="black" d="M2316.25,-143C2316.25,-143 2190,-143 2190,-143 2184,-143 2178,-137 2178,-131 2178,-131 2178,-84 2178,-84 2178,-78 2184,-72 2190,-72 2190,-72 2316.25,-72 2316.25,-72 2322.25,-72 2328.25,-78 2328.25,-84 2328.25,-84 2328.25,-131 2328.25,-131 2328.25,-137 2322.25,-143 2316.25,-143"/>
<text text-anchor="start" x="2213" y="-125.7" font-family="Helvetica,sans-Serif" font-size="14.00">P4_8_1 ≤ 2.5</text>
<text text-anchor="start" x="2186" y="-109.95" font-family="Helvetica,sans-Serif" font-size="14.00">squared_error = 3.457</text>
<text text-anchor="start" x="2204.75" y="-94.2" font-family="Helvetica,sans-Serif" font-size="14.00">samples = 2226</text>
<text text-anchor="start" x="2208.88" y="-78.45" font-family="Helvetica,sans-Serif" font-size="14.00">value = 11.276</text>
</g>
<!-- 2283&#45;&gt;2561 -->
<g id="edge53" class="edge">
<title>2283&#45;&gt;2561</title>
<path fill="none" stroke="black" d="M2197.1,-178.54C2203.83,-170.12 2211.1,-161.03 2218.11,-152.27"/>
<polygon fill="black" stroke="black" points="2220.82,-154.49 2224.33,-144.49 2215.35,-150.11 2220.82,-154.49"/>
</g>
<!-- 2285 -->
<g id="node52" class="node">
<title>2285</title>
<path fill="#c0c0c0" stroke="black" d="M2040.12,-36C2040.12,-36 2010.12,-36 2010.12,-36 2004.12,-36 1998.12,-30 1998.12,-24 1998.12,-24 1998.12,-12 1998.12,-12 1998.12,-6 2004.12,0 2010.12,0 2010.12,0 2040.12,0 2040.12,0 2046.12,0 2052.12,-6 2052.12,-12 2052.12,-12 2052.12,-24 2052.12,-24 2052.12,-30 2046.12,-36 2040.12,-36"/>
<text text-anchor="middle" x="2025.12" y="-12.57" font-family="Helvetica,sans-Serif" font-size="14.00">(...)</text>
</g>
<!-- 2284&#45;&gt;2285 -->
<g id="edge51" class="edge">
<title>2284&#45;&gt;2285</title>
<path fill="none" stroke="black" d="M2061.24,-71.67C2055.29,-62.99 2049.01,-53.83 2043.38,-45.62"/>
<polygon fill="black" stroke="black" points="2046.31,-43.7 2037.76,-37.43 2040.53,-47.66 2046.31,-43.7"/>
</g>
<!-- 2426 -->
<g id="node53" class="node">
<title>2426</title>
<path fill="#c0c0c0" stroke="black" d="M2112.12,-36C2112.12,-36 2082.12,-36 2082.12,-36 2076.12,-36 2070.12,-30 2070.12,-24 2070.12,-24 2070.12,-12 2070.12,-12 2070.12,-6 2076.12,0 2082.12,0 2082.12,0 2112.12,0 2112.12,0 2118.12,0 2124.12,-6 2124.12,-12 2124.12,-12 2124.12,-24 2124.12,-24 2124.12,-30 2118.12,-36 2112.12,-36"/>
<text text-anchor="middle" x="2097.12" y="-12.57" font-family="Helvetica,sans-Serif" font-size="14.00">(...)</text>
</g>
<!-- 2284&#45;&gt;2426 -->
<g id="edge52" class="edge">
<title>2284&#45;&gt;2426</title>
<path fill="none" stroke="black" d="M2089.9,-71.67C2091,-63.66 2092.16,-55.24 2093.21,-47.53"/>
<polygon fill="black" stroke="black" points="2096.67,-48.07 2094.56,-37.68 2089.74,-47.11 2096.67,-48.07"/>
</g>
<!-- 2562 -->
<g id="node55" class="node">
<title>2562</title>
<path fill="#c0c0c0" stroke="black" d="M2208.12,-36C2208.12,-36 2178.12,-36 2178.12,-36 2172.12,-36 2166.12,-30 2166.12,-24 2166.12,-24 2166.12,-12 2166.12,-12 2166.12,-6 2172.12,0 2178.12,0 2178.12,0 2208.12,0 2208.12,0 2214.12,0 2220.12,-6 2220.12,-12 2220.12,-12 2220.12,-24 2220.12,-24 2220.12,-30 2214.12,-36 2208.12,-36"/>
<text text-anchor="middle" x="2193.12" y="-12.57" font-family="Helvetica,sans-Serif" font-size="14.00">(...)</text>
</g>
<!-- 2561&#45;&gt;2562 -->
<g id="edge54" class="edge">
<title>2561&#45;&gt;2562</title>
<path fill="none" stroke="black" d="M2229.24,-71.67C2223.29,-62.99 2217.01,-53.83 2211.38,-45.62"/>
<polygon fill="black" stroke="black" points="2214.31,-43.7 2205.76,-37.43 2208.53,-47.66 2214.31,-43.7"/>
</g>
<!-- 2689 -->
<g id="node56" class="node">
<title>2689</title>
<path fill="#c0c0c0" stroke="black" d="M2280.12,-36C2280.12,-36 2250.12,-36 2250.12,-36 2244.12,-36 2238.12,-30 2238.12,-24 2238.12,-24 2238.12,-12 2238.12,-12 2238.12,-6 2244.12,0 2250.12,0 2250.12,0 2280.12,0 2280.12,0 2286.12,0 2292.12,-6 2292.12,-12 2292.12,-12 2292.12,-24 2292.12,-24 2292.12,-30 2286.12,-36 2280.12,-36"/>
<text text-anchor="middle" x="2265.12" y="-12.57" font-family="Helvetica,sans-Serif" font-size="14.00">(...)</text>
</g>
<!-- 2561&#45;&gt;2689 -->
<g id="edge55" class="edge">
<title>2561&#45;&gt;2689</title>
<path fill="none" stroke="black" d="M2257.9,-71.67C2259,-63.66 2260.16,-55.24 2261.21,-47.53"/>
<polygon fill="black" stroke="black" points="2264.67,-48.07 2262.56,-37.68 2257.74,-47.11 2264.67,-48.07"/>
</g>
<!-- 2791 -->
<g id="node58" class="node">
<title>2791</title>
<path fill="#f6d4bb" stroke="black" d="M2484.25,-143C2484.25,-143 2358,-143 2358,-143 2352,-143 2346,-137 2346,-131 2346,-131 2346,-84 2346,-84 2346,-78 2352,-72 2358,-72 2358,-72 2484.25,-72 2484.25,-72 2490.25,-72 2496.25,-78 2496.25,-84 2496.25,-84 2496.25,-131 2496.25,-131 2496.25,-137 2490.25,-143 2484.25,-143"/>
<text text-anchor="start" x="2381" y="-125.7" font-family="Helvetica,sans-Serif" font-size="14.00">P4_7_2 ≤ 1.5</text>
<text text-anchor="start" x="2354" y="-109.95" font-family="Helvetica,sans-Serif" font-size="14.00">squared_error = 3.585</text>
<text text-anchor="start" x="2372.75" y="-94.2" font-family="Helvetica,sans-Serif" font-size="14.00">samples = 1297</text>
<text text-anchor="start" x="2380.25" y="-78.45" font-family="Helvetica,sans-Serif" font-size="14.00">value = 9.692</text>
</g>
<!-- 2790&#45;&gt;2791 -->
<g id="edge57" class="edge">
<title>2790&#45;&gt;2791</title>
<path fill="none" stroke="black" d="M2421.12,-178.54C2421.12,-170.92 2421.12,-162.75 2421.12,-154.77"/>
<polygon fill="black" stroke="black" points="2424.63,-154.82 2421.13,-144.82 2417.63,-154.82 2424.63,-154.82"/>
</g>
<!-- 2956 -->
<g id="node61" class="node">
<title>2956</title>
<path fill="#f3c4a3" stroke="black" d="M2652.25,-143C2652.25,-143 2526,-143 2526,-143 2520,-143 2514,-137 2514,-131 2514,-131 2514,-84 2514,-84 2514,-78 2520,-72 2526,-72 2526,-72 2652.25,-72 2652.25,-72 2658.25,-72 2664.25,-78 2664.25,-84 2664.25,-84 2664.25,-131 2664.25,-131 2664.25,-137 2658.25,-143 2652.25,-143"/>
<text text-anchor="start" x="2549" y="-125.7" font-family="Helvetica,sans-Serif" font-size="14.00">P4_7_3 ≤ 1.5</text>
<text text-anchor="start" x="2522" y="-109.95" font-family="Helvetica,sans-Serif" font-size="14.00">squared_error = 3.777</text>
<text text-anchor="start" x="2544.5" y="-94.2" font-family="Helvetica,sans-Serif" font-size="14.00">samples = 796</text>
<text text-anchor="start" x="2548.62" y="-78.45" font-family="Helvetica,sans-Serif" font-size="14.00">value = 11.41</text>
</g>
<!-- 2790&#45;&gt;2956 -->
<g id="edge60" class="edge">
<title>2790&#45;&gt;2956</title>
<path fill="none" stroke="black" d="M2477.07,-178.54C2492.01,-169.2 2508.28,-159.03 2523.69,-149.4"/>
<polygon fill="black" stroke="black" points="2525.23,-152.56 2531.86,-144.29 2521.52,-146.62 2525.23,-152.56"/>
</g>
<!-- 2792 -->
<g id="node59" class="node">
<title>2792</title>
<path fill="#c0c0c0" stroke="black" d="M2394.12,-36C2394.12,-36 2364.12,-36 2364.12,-36 2358.12,-36 2352.12,-30 2352.12,-24 2352.12,-24 2352.12,-12 2352.12,-12 2352.12,-6 2358.12,0 2364.12,0 2364.12,0 2394.12,0 2394.12,0 2400.12,0 2406.12,-6 2406.12,-12 2406.12,-12 2406.12,-24 2406.12,-24 2406.12,-30 2400.12,-36 2394.12,-36"/>
<text text-anchor="middle" x="2379.12" y="-12.57" font-family="Helvetica,sans-Serif" font-size="14.00">(...)</text>
</g>
<!-- 2791&#45;&gt;2792 -->
<g id="edge58" class="edge">
<title>2791&#45;&gt;2792</title>
<path fill="none" stroke="black" d="M2404.4,-71.67C2400.38,-63.28 2396.13,-54.43 2392.3,-46.44"/>
<polygon fill="black" stroke="black" points="2395.51,-45.05 2388.03,-37.55 2389.2,-48.08 2395.51,-45.05"/>
</g>
<!-- 2895 -->
<g id="node60" class="node">
<title>2895</title>
<path fill="#c0c0c0" stroke="black" d="M2466.12,-36C2466.12,-36 2436.12,-36 2436.12,-36 2430.12,-36 2424.12,-30 2424.12,-24 2424.12,-24 2424.12,-12 2424.12,-12 2424.12,-6 2430.12,0 2436.12,0 2436.12,0 2466.12,0 2466.12,0 2472.12,0 2478.12,-6 2478.12,-12 2478.12,-12 2478.12,-24 2478.12,-24 2478.12,-30 2472.12,-36 2466.12,-36"/>
<text text-anchor="middle" x="2451.12" y="-12.57" font-family="Helvetica,sans-Serif" font-size="14.00">(...)</text>
</g>
<!-- 2791&#45;&gt;2895 -->
<g id="edge59" class="edge">
<title>2791&#45;&gt;2895</title>
<path fill="none" stroke="black" d="M2433.07,-71.67C2435.88,-63.47 2438.84,-54.84 2441.53,-46.98"/>
<polygon fill="black" stroke="black" points="2444.81,-48.21 2444.74,-37.61 2438.19,-45.94 2444.81,-48.21"/>
</g>
<!-- 2957 -->
<g id="node62" class="node">
<title>2957</title>
<path fill="#c0c0c0" stroke="black" d="M2568.12,-36C2568.12,-36 2538.12,-36 2538.12,-36 2532.12,-36 2526.12,-30 2526.12,-24 2526.12,-24 2526.12,-12 2526.12,-12 2526.12,-6 2532.12,0 2538.12,0 2538.12,0 2568.12,0 2568.12,0 2574.12,0 2580.12,-6 2580.12,-12 2580.12,-12 2580.12,-24 2580.12,-24 2580.12,-30 2574.12,-36 2568.12,-36"/>
<text text-anchor="middle" x="2553.12" y="-12.57" font-family="Helvetica,sans-Serif" font-size="14.00">(...)</text>
</g>
<!-- 2956&#45;&gt;2957 -->
<g id="edge61" class="edge">
<title>2956&#45;&gt;2957</title>
<path fill="none" stroke="black" d="M2574.79,-71.67C2571.38,-63.37 2567.79,-54.63 2564.53,-46.71"/>
<polygon fill="black" stroke="black" points="2567.81,-45.5 2560.77,-37.58 2561.34,-48.16 2567.81,-45.5"/>
</g>
<!-- 3036 -->
<g id="node63" class="node">
<title>3036</title>
<path fill="#c0c0c0" stroke="black" d="M2640.12,-36C2640.12,-36 2610.12,-36 2610.12,-36 2604.12,-36 2598.12,-30 2598.12,-24 2598.12,-24 2598.12,-12 2598.12,-12 2598.12,-6 2604.12,0 2610.12,0 2610.12,0 2640.12,0 2640.12,0 2646.12,0 2652.12,-6 2652.12,-12 2652.12,-12 2652.12,-24 2652.12,-24 2652.12,-30 2646.12,-36 2640.12,-36"/>
<text text-anchor="middle" x="2625.12" y="-12.57" font-family="Helvetica,sans-Serif" font-size="14.00">(...)</text>
</g>
<!-- 2956&#45;&gt;3036 -->
<g id="edge62" class="edge">
<title>2956&#45;&gt;3036</title>
<path fill="none" stroke="black" d="M2603.46,-71.67C2606.87,-63.37 2610.46,-54.63 2613.72,-46.71"/>
<polygon fill="black" stroke="black" points="2616.91,-48.16 2617.48,-37.58 2610.44,-45.5 2616.91,-48.16"/>
</g>
</g>
</svg>
