<?xml version="1.0" encoding="UTF-8" standalone="no"?>
<!DOCTYPE svg PUBLIC "-//W3C//DTD SVG 1.1//EN"
 "http://www.w3.org/Graphics/SVG/1.1/DTD/svg11.dtd">
<!-- Generated by graphviz version 12.2.1 (20241206.2353)
 -->
<!-- Title: Tree Pages: 1 -->
<svg width="2672pt" height="579pt"
 viewBox="0.00 0.00 2672.25 579.00" xmlns="http://www.w3.org/2000/svg" xmlns:xlink="http://www.w3.org/1999/xlink">
<g id="graph0" class="graph" transform="scale(1 1) rotate(0) translate(4 575)">
<title>Tree</title>
<polygon fill="white" stroke="none" points="-4,4 -4,-575 2668.25,-575 2668.25,4 -4,4"/>
<!-- 0 -->
<g id="node1" class="node">
<title>0</title>
<path fill="#efb387" stroke="black" d="M1482.25,-571C1482.25,-571 1356,-571 1356,-571 1350,-571 1344,-565 1344,-559 1344,-559 1344,-512 1344,-512 1344,-506 1350,-500 1356,-500 1356,-500 1482.25,-500 1482.25,-500 1488.25,-500 1494.25,-506 1494.25,-512 1494.25,-512 1494.25,-559 1494.25,-559 1494.25,-565 1488.25,-571 1482.25,-571"/>
<text text-anchor="start" x="1386.5" y="-553.7" font-family="Helvetica,sans-Serif" font-size="14.00">P4_1 ≤ 0.5</text>
<text text-anchor="start" x="1352" y="-537.95" font-family="Helvetica,sans-Serif" font-size="14.00">squared_error = 7.442</text>
<text text-anchor="start" x="1370.75" y="-522.2" font-family="Helvetica,sans-Serif" font-size="14.00">samples = 1888</text>
<text text-anchor="start" x="1374.5" y="-506.45" font-family="Helvetica,sans-Serif" font-size="14.00">value = 12.647</text>
</g>
<!-- 1 -->
<g id="node2" class="node">
<title>1</title>
<path fill="#eb9c64" stroke="black" d="M1062.25,-464C1062.25,-464 936,-464 936,-464 930,-464 924,-458 924,-452 924,-452 924,-405 924,-405 924,-399 930,-393 936,-393 936,-393 1062.25,-393 1062.25,-393 1068.25,-393 1074.25,-399 1074.25,-405 1074.25,-405 1074.25,-452 1074.25,-452 1074.25,-458 1068.25,-464 1062.25,-464"/>
<text text-anchor="start" x="959" y="-446.7" font-family="Helvetica,sans-Serif" font-size="14.00">P4_8_1 ≤ 2.5</text>
<text text-anchor="start" x="932" y="-430.95" font-family="Helvetica,sans-Serif" font-size="14.00">squared_error = 5.472</text>
<text text-anchor="start" x="954.5" y="-415.2" font-family="Helvetica,sans-Serif" font-size="14.00">samples = 618</text>
<text text-anchor="start" x="954.5" y="-399.45" font-family="Helvetica,sans-Serif" font-size="14.00">value = 14.617</text>
</g>
<!-- 0&#45;&gt;1 -->
<g id="edge1" class="edge">
<title>0&#45;&gt;1</title>
<path fill="none" stroke="black" d="M1343.55,-515.61C1270.96,-497.46 1161.39,-470.07 1085.4,-451.07"/>
<polygon fill="black" stroke="black" points="1086.46,-447.73 1075.91,-448.7 1084.76,-454.52 1086.46,-447.73"/>
<text text-anchor="middle" x="1087.31" y="-464.34" font-family="Helvetica,sans-Serif" font-size="14.00">True</text>
</g>
<!-- 58 -->
<g id="node33" class="node">
<title>58</title>
<path fill="#f2be99" stroke="black" d="M1734.25,-464C1734.25,-464 1608,-464 1608,-464 1602,-464 1596,-458 1596,-452 1596,-452 1596,-405 1596,-405 1596,-399 1602,-393 1608,-393 1608,-393 1734.25,-393 1734.25,-393 1740.25,-393 1746.25,-399 1746.25,-405 1746.25,-405 1746.25,-452 1746.25,-452 1746.25,-458 1740.25,-464 1734.25,-464"/>
<text text-anchor="start" x="1631" y="-446.7" font-family="Helvetica,sans-Serif" font-size="14.00">P4_6_1 ≤ 1.5</text>
<text text-anchor="start" x="1604" y="-430.95" font-family="Helvetica,sans-Serif" font-size="14.00">squared_error = 5.594</text>
<text text-anchor="start" x="1622.75" y="-415.2" font-family="Helvetica,sans-Serif" font-size="14.00">samples = 1270</text>
<text text-anchor="start" x="1626.88" y="-399.45" font-family="Helvetica,sans-Serif" font-size="14.00">value = 11.689</text>
</g>
<!-- 0&#45;&gt;58 -->
<g id="edge32" class="edge">
<title>0&#45;&gt;58</title>
<path fill="none" stroke="black" d="M1494.73,-503C1523.26,-491.11 1555.92,-477.5 1585.32,-465.25"/>
<polygon fill="black" stroke="black" points="1586.29,-468.64 1594.17,-461.56 1583.6,-462.18 1586.29,-468.64"/>
<text text-anchor="middle" x="1586.05" y="-478.67" font-family="Helvetica,sans-Serif" font-size="14.00">False</text>
</g>
<!-- 2 -->
<g id="node3" class="node">
<title>2</title>
<path fill="#eda877" stroke="black" d="M558.25,-357C558.25,-357 432,-357 432,-357 426,-357 420,-351 420,-345 420,-345 420,-298 420,-298 420,-292 426,-286 432,-286 432,-286 558.25,-286 558.25,-286 564.25,-286 570.25,-292 570.25,-298 570.25,-298 570.25,-345 570.25,-345 570.25,-351 564.25,-357 558.25,-357"/>
<text text-anchor="start" x="455" y="-339.7" font-family="Helvetica,sans-Serif" font-size="14.00">P4_8_3 ≤ 1.5</text>
<text text-anchor="start" x="428" y="-323.95" font-family="Helvetica,sans-Serif" font-size="14.00">squared_error = 4.803</text>
<text text-anchor="start" x="450.5" y="-308.2" font-family="Helvetica,sans-Serif" font-size="14.00">samples = 300</text>
<text text-anchor="start" x="450.5" y="-292.45" font-family="Helvetica,sans-Serif" font-size="14.00">value = 13.552</text>
</g>
<!-- 1&#45;&gt;2 -->
<g id="edge2" class="edge">
<title>1&#45;&gt;2</title>
<path fill="none" stroke="black" d="M923.67,-411.78C832.14,-392.71 678.17,-360.63 581.85,-340.57"/>
<polygon fill="black" stroke="black" points="582.67,-337.16 572.16,-338.55 581.24,-344.02 582.67,-337.16"/>
</g>
<!-- 31 -->
<g id="node18" class="node">
<title>31</title>
<path fill="#e89152" stroke="black" d="M1062.25,-357C1062.25,-357 936,-357 936,-357 930,-357 924,-351 924,-345 924,-345 924,-298 924,-298 924,-292 930,-286 936,-286 936,-286 1062.25,-286 1062.25,-286 1068.25,-286 1074.25,-292 1074.25,-298 1074.25,-298 1074.25,-345 1074.25,-345 1074.25,-351 1068.25,-357 1062.25,-357"/>
<text text-anchor="start" x="959" y="-339.7" font-family="Helvetica,sans-Serif" font-size="14.00">P4_8_3 ≤ 1.5</text>
<text text-anchor="start" x="932" y="-323.95" font-family="Helvetica,sans-Serif" font-size="14.00">squared_error = 4.025</text>
<text text-anchor="start" x="954.5" y="-308.2" font-family="Helvetica,sans-Serif" font-size="14.00">samples = 318</text>
<text text-anchor="start" x="954.5" y="-292.45" font-family="Helvetica,sans-Serif" font-size="14.00">value = 15.622</text>
</g>
<!-- 1&#45;&gt;31 -->
<g id="edge17" class="edge">
<title>1&#45;&gt;31</title>
<path fill="none" stroke="black" d="M999.12,-392.54C999.12,-384.92 999.12,-376.75 999.12,-368.77"/>
<polygon fill="black" stroke="black" points="1002.63,-368.82 999.13,-358.82 995.63,-368.82 1002.63,-368.82"/>
</g>
<!-- 3 -->
<g id="node4" class="node">
<title>3</title>
<path fill="#eca16c" stroke="black" d="M306.25,-250C306.25,-250 180,-250 180,-250 174,-250 168,-244 168,-238 168,-238 168,-191 168,-191 168,-185 174,-179 180,-179 180,-179 306.25,-179 306.25,-179 312.25,-179 318.25,-185 318.25,-191 318.25,-191 318.25,-238 318.25,-238 318.25,-244 312.25,-250 306.25,-250"/>
<text text-anchor="start" x="203" y="-232.7" font-family="Helvetica,sans-Serif" font-size="14.00">P7_1_2 ≤ 2.5</text>
<text text-anchor="start" x="176" y="-216.95" font-family="Helvetica,sans-Serif" font-size="14.00">squared_error = 3.404</text>
<text text-anchor="start" x="198.5" y="-201.2" font-family="Helvetica,sans-Serif" font-size="14.00">samples = 207</text>
<text text-anchor="start" x="198.5" y="-185.45" font-family="Helvetica,sans-Serif" font-size="14.00">value = 14.163</text>
</g>
<!-- 2&#45;&gt;3 -->
<g id="edge3" class="edge">
<title>2&#45;&gt;3</title>
<path fill="none" stroke="black" d="M419.52,-289C390.99,-277.11 358.33,-263.5 328.93,-251.25"/>
<polygon fill="black" stroke="black" points="330.65,-248.18 320.08,-247.56 327.96,-254.64 330.65,-248.18"/>
</g>
<!-- 18 -->
<g id="node11" class="node">
<title>18</title>
<path fill="#f0b88f" stroke="black" d="M558.25,-250C558.25,-250 432,-250 432,-250 426,-250 420,-244 420,-238 420,-238 420,-191 420,-191 420,-185 426,-179 432,-179 432,-179 558.25,-179 558.25,-179 564.25,-179 570.25,-185 570.25,-191 570.25,-191 570.25,-238 570.25,-238 570.25,-244 564.25,-250 558.25,-250"/>
<text text-anchor="start" x="458.75" y="-232.7" font-family="Helvetica,sans-Serif" font-size="14.00">P12_3 ≤ 1.5</text>
<text text-anchor="start" x="428" y="-216.95" font-family="Helvetica,sans-Serif" font-size="14.00">squared_error = 5.241</text>
<text text-anchor="start" x="454.25" y="-201.2" font-family="Helvetica,sans-Serif" font-size="14.00">samples = 93</text>
<text text-anchor="start" x="450.5" y="-185.45" font-family="Helvetica,sans-Serif" font-size="14.00">value = 12.194</text>
</g>
<!-- 2&#45;&gt;18 -->
<g id="edge10" class="edge">
<title>2&#45;&gt;18</title>
<path fill="none" stroke="black" d="M495.12,-285.54C495.12,-277.92 495.12,-269.75 495.12,-261.77"/>
<polygon fill="black" stroke="black" points="498.63,-261.82 495.13,-251.82 491.63,-261.82 498.63,-261.82"/>
</g>
<!-- 4 -->
<g id="node5" class="node">
<title>4</title>
<path fill="#ea995f" stroke="black" d="M138.25,-143C138.25,-143 12,-143 12,-143 6,-143 0,-137 0,-131 0,-131 0,-84 0,-84 0,-78 6,-72 12,-72 12,-72 138.25,-72 138.25,-72 144.25,-72 150.25,-78 150.25,-84 150.25,-84 150.25,-131 150.25,-131 150.25,-137 144.25,-143 138.25,-143"/>
<text text-anchor="start" x="35" y="-125.7" font-family="Helvetica,sans-Serif" font-size="14.00">P4_8_2 ≤ 1.5</text>
<text text-anchor="start" x="8" y="-109.95" font-family="Helvetica,sans-Serif" font-size="14.00">squared_error = 3.045</text>
<text text-anchor="start" x="31.25" y="-94.2" font-family="Helvetica,sans-Serif" font-size="14.00">samples = 111</text>
<text text-anchor="start" x="30.5" y="-78.45" font-family="Helvetica,sans-Serif" font-size="14.00">value = 14.907</text>
</g>
<!-- 3&#45;&gt;4 -->
<g id="edge4" class="edge">
<title>3&#45;&gt;4</title>
<path fill="none" stroke="black" d="M187.18,-178.54C172.24,-169.2 155.97,-159.03 140.56,-149.4"/>
<polygon fill="black" stroke="black" points="142.73,-146.62 132.39,-144.29 139.02,-152.56 142.73,-146.62"/>
</g>
<!-- 11 -->
<g id="node8" class="node">
<title>11</title>
<path fill="#eeab7c" stroke="black" d="M306.25,-143C306.25,-143 180,-143 180,-143 174,-143 168,-137 168,-131 168,-131 168,-84 168,-84 168,-78 174,-72 180,-72 180,-72 306.25,-72 306.25,-72 312.25,-72 318.25,-78 318.25,-84 318.25,-84 318.25,-131 318.25,-131 318.25,-137 312.25,-143 306.25,-143"/>
<text text-anchor="start" x="188.38" y="-125.7" font-family="Helvetica,sans-Serif" font-size="14.00">UPM_DIS ≤ 573.5</text>
<text text-anchor="start" x="176" y="-109.95" font-family="Helvetica,sans-Serif" font-size="14.00">squared_error = 2.438</text>
<text text-anchor="start" x="202.25" y="-94.2" font-family="Helvetica,sans-Serif" font-size="14.00">samples = 96</text>
<text text-anchor="start" x="198.5" y="-78.45" font-family="Helvetica,sans-Serif" font-size="14.00">value = 13.302</text>
</g>
<!-- 3&#45;&gt;11 -->
<g id="edge7" class="edge">
<title>3&#45;&gt;11</title>
<path fill="none" stroke="black" d="M243.12,-178.54C243.12,-170.92 243.12,-162.75 243.12,-154.77"/>
<polygon fill="black" stroke="black" points="246.63,-154.82 243.13,-144.82 239.63,-154.82 246.63,-154.82"/>
</g>
<!-- 5 -->
<g id="node6" class="node">
<title>5</title>
<path fill="#c0c0c0" stroke="black" d="M54.12,-36C54.12,-36 24.12,-36 24.12,-36 18.12,-36 12.12,-30 12.12,-24 12.12,-24 12.12,-12 12.12,-12 12.12,-6 18.12,0 24.12,0 24.12,0 54.12,0 54.12,0 60.12,0 66.12,-6 66.12,-12 66.12,-12 66.12,-24 66.12,-24 66.12,-30 60.12,-36 54.12,-36"/>
<text text-anchor="middle" x="39.12" y="-12.57" font-family="Helvetica,sans-Serif" font-size="14.00">(...)</text>
</g>
<!-- 4&#45;&gt;5 -->
<g id="edge5" class="edge">
<title>4&#45;&gt;5</title>
<path fill="none" stroke="black" d="M60.79,-71.67C57.38,-63.37 53.79,-54.63 50.53,-46.71"/>
<polygon fill="black" stroke="black" points="53.81,-45.5 46.77,-37.58 47.34,-48.16 53.81,-45.5"/>
</g>
<!-- 8 -->
<g id="node7" class="node">
<title>8</title>
<path fill="#c0c0c0" stroke="black" d="M126.12,-36C126.12,-36 96.12,-36 96.12,-36 90.12,-36 84.12,-30 84.12,-24 84.12,-24 84.12,-12 84.12,-12 84.12,-6 90.12,0 96.12,0 96.12,0 126.12,0 126.12,0 132.12,0 138.12,-6 138.12,-12 138.12,-12 138.12,-24 138.12,-24 138.12,-30 132.12,-36 126.12,-36"/>
<text text-anchor="middle" x="111.12" y="-12.57" font-family="Helvetica,sans-Serif" font-size="14.00">(...)</text>
</g>
<!-- 4&#45;&gt;8 -->
<g id="edge6" class="edge">
<title>4&#45;&gt;8</title>
<path fill="none" stroke="black" d="M89.46,-71.67C92.87,-63.37 96.46,-54.63 99.72,-46.71"/>
<polygon fill="black" stroke="black" points="102.91,-48.16 103.48,-37.58 96.44,-45.5 102.91,-48.16"/>
</g>
<!-- 12 -->
<g id="node9" class="node">
<title>12</title>
<path fill="#c0c0c0" stroke="black" d="M228.12,-36C228.12,-36 198.12,-36 198.12,-36 192.12,-36 186.12,-30 186.12,-24 186.12,-24 186.12,-12 186.12,-12 186.12,-6 192.12,0 198.12,0 198.12,0 228.12,0 228.12,0 234.12,0 240.12,-6 240.12,-12 240.12,-12 240.12,-24 240.12,-24 240.12,-30 234.12,-36 228.12,-36"/>
<text text-anchor="middle" x="213.12" y="-12.57" font-family="Helvetica,sans-Serif" font-size="14.00">(...)</text>
</g>
<!-- 11&#45;&gt;12 -->
<g id="edge8" class="edge">
<title>11&#45;&gt;12</title>
<path fill="none" stroke="black" d="M231.18,-71.67C228.37,-63.47 225.41,-54.84 222.72,-46.98"/>
<polygon fill="black" stroke="black" points="226.06,-45.94 219.51,-37.61 219.44,-48.21 226.06,-45.94"/>
</g>
<!-- 15 -->
<g id="node10" class="node">
<title>15</title>
<path fill="#c0c0c0" stroke="black" d="M300.12,-36C300.12,-36 270.12,-36 270.12,-36 264.12,-36 258.12,-30 258.12,-24 258.12,-24 258.12,-12 258.12,-12 258.12,-6 264.12,0 270.12,0 270.12,0 300.12,0 300.12,0 306.12,0 312.12,-6 312.12,-12 312.12,-12 312.12,-24 312.12,-24 312.12,-30 306.12,-36 300.12,-36"/>
<text text-anchor="middle" x="285.12" y="-12.57" font-family="Helvetica,sans-Serif" font-size="14.00">(...)</text>
</g>
<!-- 11&#45;&gt;15 -->
<g id="edge9" class="edge">
<title>11&#45;&gt;15</title>
<path fill="none" stroke="black" d="M259.85,-71.67C263.87,-63.28 268.12,-54.43 271.95,-46.44"/>
<polygon fill="black" stroke="black" points="275.05,-48.08 276.22,-37.55 268.74,-45.05 275.05,-48.08"/>
</g>
<!-- 19 -->
<g id="node12" class="node">
<title>19</title>
<path fill="#eda775" stroke="black" d="M474.25,-143C474.25,-143 348,-143 348,-143 342,-143 336,-137 336,-131 336,-131 336,-84 336,-84 336,-78 342,-72 348,-72 348,-72 474.25,-72 474.25,-72 480.25,-72 486.25,-78 486.25,-84 486.25,-84 486.25,-131 486.25,-131 486.25,-137 480.25,-143 474.25,-143"/>
<text text-anchor="start" x="371" y="-125.7" font-family="Helvetica,sans-Serif" font-size="14.00">P4_6_1 ≤ 1.5</text>
<text text-anchor="start" x="344" y="-109.95" font-family="Helvetica,sans-Serif" font-size="14.00">squared_error = 2.885</text>
<text text-anchor="start" x="370.25" y="-94.2" font-family="Helvetica,sans-Serif" font-size="14.00">samples = 31</text>
<text text-anchor="start" x="366.5" y="-78.45" font-family="Helvetica,sans-Serif" font-size="14.00">value = 13.677</text>
</g>
<!-- 18&#45;&gt;19 -->
<g id="edge11" class="edge">
<title>18&#45;&gt;19</title>
<path fill="none" stroke="black" d="M467.15,-178.54C460.42,-170.12 453.15,-161.03 446.14,-152.27"/>
<polygon fill="black" stroke="black" points="448.9,-150.11 439.92,-144.49 443.43,-154.49 448.9,-150.11"/>
</g>
<!-- 24 -->
<g id="node15" class="node">
<title>24</title>
<path fill="#f2c19d" stroke="black" d="M642.25,-143C642.25,-143 516,-143 516,-143 510,-143 504,-137 504,-131 504,-131 504,-84 504,-84 504,-78 510,-72 516,-72 516,-72 642.25,-72 642.25,-72 648.25,-72 654.25,-78 654.25,-84 654.25,-84 654.25,-131 654.25,-131 654.25,-137 648.25,-143 642.25,-143"/>
<text text-anchor="start" x="531.5" y="-125.7" font-family="Helvetica,sans-Serif" font-size="14.00">P7_9_2_2 ≤ 0.5</text>
<text text-anchor="start" x="512" y="-109.95" font-family="Helvetica,sans-Serif" font-size="14.00">squared_error = 4.767</text>
<text text-anchor="start" x="538.25" y="-94.2" font-family="Helvetica,sans-Serif" font-size="14.00">samples = 62</text>
<text text-anchor="start" x="534.88" y="-78.45" font-family="Helvetica,sans-Serif" font-size="14.00">value = 11.452</text>
</g>
<!-- 18&#45;&gt;24 -->
<g id="edge14" class="edge">
<title>18&#45;&gt;24</title>
<path fill="none" stroke="black" d="M523.1,-178.54C529.83,-170.12 537.1,-161.03 544.11,-152.27"/>
<polygon fill="black" stroke="black" points="546.82,-154.49 550.33,-144.49 541.35,-150.11 546.82,-154.49"/>
</g>
<!-- 20 -->
<g id="node13" class="node">
<title>20</title>
<path fill="#c0c0c0" stroke="black" d="M398.12,-36C398.12,-36 368.12,-36 368.12,-36 362.12,-36 356.12,-30 356.12,-24 356.12,-24 356.12,-12 356.12,-12 356.12,-6 362.12,0 368.12,0 368.12,0 398.12,0 398.12,0 404.12,0 410.12,-6 410.12,-12 410.12,-12 410.12,-24 410.12,-24 410.12,-30 404.12,-36 398.12,-36"/>
<text text-anchor="middle" x="383.12" y="-12.57" font-family="Helvetica,sans-Serif" font-size="14.00">(...)</text>
</g>
<!-- 19&#45;&gt;20 -->
<g id="edge12" class="edge">
<title>19&#45;&gt;20</title>
<path fill="none" stroke="black" d="M399.98,-71.67C397.36,-63.47 394.59,-54.84 392.08,-46.98"/>
<polygon fill="black" stroke="black" points="395.47,-46.08 389.08,-37.62 388.8,-48.22 395.47,-46.08"/>
</g>
<!-- 23 -->
<g id="node14" class="node">
<title>23</title>
<path fill="#c0c0c0" stroke="black" d="M470.12,-36C470.12,-36 440.12,-36 440.12,-36 434.12,-36 428.12,-30 428.12,-24 428.12,-24 428.12,-12 428.12,-12 428.12,-6 434.12,0 440.12,0 440.12,0 470.12,0 470.12,0 476.12,0 482.12,-6 482.12,-12 482.12,-12 482.12,-24 482.12,-24 482.12,-30 476.12,-36 470.12,-36"/>
<text text-anchor="middle" x="455.12" y="-12.57" font-family="Helvetica,sans-Serif" font-size="14.00">(...)</text>
</g>
<!-- 19&#45;&gt;23 -->
<g id="edge13" class="edge">
<title>19&#45;&gt;23</title>
<path fill="none" stroke="black" d="M428.64,-71.67C432.86,-63.28 437.31,-54.43 441.33,-46.44"/>
<polygon fill="black" stroke="black" points="444.44,-48.04 445.8,-37.53 438.19,-44.9 444.44,-48.04"/>
</g>
<!-- 25 -->
<g id="node16" class="node">
<title>25</title>
<path fill="#c0c0c0" stroke="black" d="M557.12,-36C557.12,-36 527.12,-36 527.12,-36 521.12,-36 515.12,-30 515.12,-24 515.12,-24 515.12,-12 515.12,-12 515.12,-6 521.12,0 527.12,0 527.12,0 557.12,0 557.12,0 563.12,0 569.12,-6 569.12,-12 569.12,-12 569.12,-24 569.12,-24 569.12,-30 563.12,-36 557.12,-36"/>
<text text-anchor="middle" x="542.12" y="-12.57" font-family="Helvetica,sans-Serif" font-size="14.00">(...)</text>
</g>
<!-- 24&#45;&gt;25 -->
<g id="edge15" class="edge">
<title>24&#45;&gt;25</title>
<path fill="none" stroke="black" d="M564.4,-71.67C560.89,-63.37 557.19,-54.63 553.84,-46.71"/>
<polygon fill="black" stroke="black" points="557.1,-45.42 549.98,-37.58 550.65,-48.15 557.1,-45.42"/>
</g>
<!-- 28 -->
<g id="node17" class="node">
<title>28</title>
<path fill="#c0c0c0" stroke="black" d="M629.12,-36C629.12,-36 599.12,-36 599.12,-36 593.12,-36 587.12,-30 587.12,-24 587.12,-24 587.12,-12 587.12,-12 587.12,-6 593.12,0 599.12,0 599.12,0 629.12,0 629.12,0 635.12,0 641.12,-6 641.12,-12 641.12,-12 641.12,-24 641.12,-24 641.12,-30 635.12,-36 629.12,-36"/>
<text text-anchor="middle" x="614.12" y="-12.57" font-family="Helvetica,sans-Serif" font-size="14.00">(...)</text>
</g>
<!-- 24&#45;&gt;28 -->
<g id="edge16" class="edge">
<title>24&#45;&gt;28</title>
<path fill="none" stroke="black" d="M593.06,-71.67C596.38,-63.37 599.87,-54.63 603.04,-46.71"/>
<polygon fill="black" stroke="black" points="606.23,-48.17 606.69,-37.59 599.73,-45.57 606.23,-48.17"/>
</g>
<!-- 32 -->
<g id="node19" class="node">
<title>32</title>
<path fill="#e78a48" stroke="black" d="M974.5,-250C974.5,-250 855.75,-250 855.75,-250 849.75,-250 843.75,-244 843.75,-238 843.75,-238 843.75,-191 843.75,-191 843.75,-185 849.75,-179 855.75,-179 855.75,-179 974.5,-179 974.5,-179 980.5,-179 986.5,-185 986.5,-191 986.5,-191 986.5,-238 986.5,-238 986.5,-244 980.5,-250 974.5,-250"/>
<text text-anchor="start" x="882.5" y="-232.7" font-family="Helvetica,sans-Serif" font-size="14.00">P3_8 ≤ 5.5</text>
<text text-anchor="start" x="851.75" y="-216.95" font-family="Helvetica,sans-Serif" font-size="14.00">squared_error = 2.91</text>
<text text-anchor="start" x="870.5" y="-201.2" font-family="Helvetica,sans-Serif" font-size="14.00">samples = 234</text>
<text text-anchor="start" x="870.5" y="-185.45" font-family="Helvetica,sans-Serif" font-size="14.00">value = 16.172</text>
</g>
<!-- 31&#45;&gt;32 -->
<g id="edge18" class="edge">
<title>31&#45;&gt;32</title>
<path fill="none" stroke="black" d="M971.15,-285.54C964.42,-277.12 957.15,-268.03 950.14,-259.27"/>
<polygon fill="black" stroke="black" points="952.9,-257.11 943.92,-251.49 947.43,-261.49 952.9,-257.11"/>
</g>
<!-- 45 -->
<g id="node26" class="node">
<title>45</title>
<path fill="#eca26d" stroke="black" d="M1146.25,-250C1146.25,-250 1020,-250 1020,-250 1014,-250 1008,-244 1008,-238 1008,-238 1008,-191 1008,-191 1008,-185 1014,-179 1020,-179 1020,-179 1146.25,-179 1146.25,-179 1152.25,-179 1158.25,-185 1158.25,-191 1158.25,-191 1158.25,-238 1158.25,-238 1158.25,-244 1152.25,-250 1146.25,-250"/>
<text text-anchor="start" x="1046.75" y="-232.7" font-family="Helvetica,sans-Serif" font-size="14.00">P10_1 ≤ 0.5</text>
<text text-anchor="start" x="1016" y="-216.95" font-family="Helvetica,sans-Serif" font-size="14.00">squared_error = 3.932</text>
<text text-anchor="start" x="1042.25" y="-201.2" font-family="Helvetica,sans-Serif" font-size="14.00">samples = 84</text>
<text text-anchor="start" x="1038.5" y="-185.45" font-family="Helvetica,sans-Serif" font-size="14.00">value = 14.087</text>
</g>
<!-- 31&#45;&gt;45 -->
<g id="edge25" class="edge">
<title>31&#45;&gt;45</title>
<path fill="none" stroke="black" d="M1027.1,-285.54C1033.83,-277.12 1041.1,-268.03 1048.11,-259.27"/>
<polygon fill="black" stroke="black" points="1050.82,-261.49 1054.33,-251.49 1045.35,-257.11 1050.82,-261.49"/>
</g>
<!-- 33 -->
<g id="node20" class="node">
<title>33</title>
<path fill="#e68743" stroke="black" d="M810.25,-143C810.25,-143 684,-143 684,-143 678,-143 672,-137 672,-131 672,-131 672,-84 672,-84 672,-78 678,-72 684,-72 684,-72 810.25,-72 810.25,-72 816.25,-72 822.25,-78 822.25,-84 822.25,-84 822.25,-131 822.25,-131 822.25,-137 816.25,-143 810.25,-143"/>
<text text-anchor="start" x="710.75" y="-125.7" font-family="Helvetica,sans-Serif" font-size="14.00">P12_2 ≤ 1.5</text>
<text text-anchor="start" x="680" y="-109.95" font-family="Helvetica,sans-Serif" font-size="14.00">squared_error = 2.408</text>
<text text-anchor="start" x="702.5" y="-94.2" font-family="Helvetica,sans-Serif" font-size="14.00">samples = 200</text>
<text text-anchor="start" x="702.5" y="-78.45" font-family="Helvetica,sans-Serif" font-size="14.00">value = 16.428</text>
</g>
<!-- 32&#45;&gt;33 -->
<g id="edge19" class="edge">
<title>32&#45;&gt;33</title>
<path fill="none" stroke="black" d="M859.18,-178.54C844.24,-169.2 827.97,-159.03 812.56,-149.4"/>
<polygon fill="black" stroke="black" points="814.73,-146.62 804.39,-144.29 811.02,-152.56 814.73,-146.62"/>
</g>
<!-- 40 -->
<g id="node23" class="node">
<title>40</title>
<path fill="#eb9c63" stroke="black" d="M978.25,-143C978.25,-143 852,-143 852,-143 846,-143 840,-137 840,-131 840,-131 840,-84 840,-84 840,-78 846,-72 852,-72 852,-72 978.25,-72 978.25,-72 984.25,-72 990.25,-78 990.25,-84 990.25,-84 990.25,-131 990.25,-131 990.25,-137 984.25,-143 978.25,-143"/>
<text text-anchor="start" x="854" y="-125.7" font-family="Helvetica,sans-Serif" font-size="14.00">FAC_HOG ≤ 2810.5</text>
<text text-anchor="start" x="848" y="-109.95" font-family="Helvetica,sans-Serif" font-size="14.00">squared_error = 3.209</text>
<text text-anchor="start" x="874.25" y="-94.2" font-family="Helvetica,sans-Serif" font-size="14.00">samples = 34</text>
<text text-anchor="start" x="870.5" y="-78.45" font-family="Helvetica,sans-Serif" font-size="14.00">value = 14.667</text>
</g>
<!-- 32&#45;&gt;40 -->
<g id="edge22" class="edge">
<title>32&#45;&gt;40</title>
<path fill="none" stroke="black" d="M915.12,-178.54C915.12,-170.92 915.12,-162.75 915.12,-154.77"/>
<polygon fill="black" stroke="black" points="918.63,-154.82 915.13,-144.82 911.63,-154.82 918.63,-154.82"/>
</g>
<!-- 34 -->
<g id="node21" class="node">
<title>34</title>
<path fill="#c0c0c0" stroke="black" d="M708.12,-36C708.12,-36 678.12,-36 678.12,-36 672.12,-36 666.12,-30 666.12,-24 666.12,-24 666.12,-12 666.12,-12 666.12,-6 672.12,0 678.12,0 678.12,0 708.12,0 708.12,0 714.12,0 720.12,-6 720.12,-12 720.12,-12 720.12,-24 720.12,-24 720.12,-30 714.12,-36 708.12,-36"/>
<text text-anchor="middle" x="693.12" y="-12.57" font-family="Helvetica,sans-Serif" font-size="14.00">(...)</text>
</g>
<!-- 33&#45;&gt;34 -->
<g id="edge20" class="edge">
<title>33&#45;&gt;34</title>
<path fill="none" stroke="black" d="M725.63,-71.67C720.33,-63.09 714.74,-54.03 709.72,-45.89"/>
<polygon fill="black" stroke="black" points="712.75,-44.14 704.52,-37.47 706.8,-47.82 712.75,-44.14"/>
</g>
<!-- 37 -->
<g id="node22" class="node">
<title>37</title>
<path fill="#c0c0c0" stroke="black" d="M780.12,-36C780.12,-36 750.12,-36 750.12,-36 744.12,-36 738.12,-30 738.12,-24 738.12,-24 738.12,-12 738.12,-12 738.12,-6 744.12,0 750.12,0 750.12,0 780.12,0 780.12,0 786.12,0 792.12,-6 792.12,-12 792.12,-12 792.12,-24 792.12,-24 792.12,-30 786.12,-36 780.12,-36"/>
<text text-anchor="middle" x="765.12" y="-12.57" font-family="Helvetica,sans-Serif" font-size="14.00">(...)</text>
</g>
<!-- 33&#45;&gt;37 -->
<g id="edge21" class="edge">
<title>33&#45;&gt;37</title>
<path fill="none" stroke="black" d="M754.29,-71.67C755.96,-63.56 757.71,-55.04 759.31,-47.26"/>
<polygon fill="black" stroke="black" points="762.7,-48.17 761.29,-37.67 755.84,-46.75 762.7,-48.17"/>
</g>
<!-- 41 -->
<g id="node24" class="node">
<title>41</title>
<path fill="#c0c0c0" stroke="black" d="M882.12,-36C882.12,-36 852.12,-36 852.12,-36 846.12,-36 840.12,-30 840.12,-24 840.12,-24 840.12,-12 840.12,-12 840.12,-6 846.12,0 852.12,0 852.12,0 882.12,0 882.12,0 888.12,0 894.12,-6 894.12,-12 894.12,-12 894.12,-24 894.12,-24 894.12,-30 888.12,-36 882.12,-36"/>
<text text-anchor="middle" x="867.12" y="-12.57" font-family="Helvetica,sans-Serif" font-size="14.00">(...)</text>
</g>
<!-- 40&#45;&gt;41 -->
<g id="edge23" class="edge">
<title>40&#45;&gt;41</title>
<path fill="none" stroke="black" d="M896.02,-71.67C891.36,-63.18 886.45,-54.23 882.03,-46.17"/>
<polygon fill="black" stroke="black" points="885.16,-44.59 877.28,-37.51 879.02,-47.96 885.16,-44.59"/>
</g>
<!-- 42 -->
<g id="node25" class="node">
<title>42</title>
<path fill="#c0c0c0" stroke="black" d="M954.12,-36C954.12,-36 924.12,-36 924.12,-36 918.12,-36 912.12,-30 912.12,-24 912.12,-24 912.12,-12 912.12,-12 912.12,-6 918.12,0 924.12,0 924.12,0 954.12,0 954.12,0 960.12,0 966.12,-6 966.12,-12 966.12,-12 966.12,-24 966.12,-24 966.12,-30 960.12,-36 954.12,-36"/>
<text text-anchor="middle" x="939.12" y="-12.57" font-family="Helvetica,sans-Serif" font-size="14.00">(...)</text>
</g>
<!-- 40&#45;&gt;42 -->
<g id="edge24" class="edge">
<title>40&#45;&gt;42</title>
<path fill="none" stroke="black" d="M924.68,-71.67C926.9,-63.56 929.24,-55.04 931.37,-47.26"/>
<polygon fill="black" stroke="black" points="934.74,-48.21 934.01,-37.64 927.99,-46.36 934.74,-48.21"/>
</g>
<!-- 46 -->
<g id="node27" class="node">
<title>46</title>
<path fill="#ea9a60" stroke="black" d="M1146.25,-143C1146.25,-143 1020,-143 1020,-143 1014,-143 1008,-137 1008,-131 1008,-131 1008,-84 1008,-84 1008,-78 1014,-72 1020,-72 1020,-72 1146.25,-72 1146.25,-72 1152.25,-72 1158.25,-78 1158.25,-84 1158.25,-84 1158.25,-131 1158.25,-131 1158.25,-137 1152.25,-143 1146.25,-143"/>
<text text-anchor="start" x="1043" y="-125.7" font-family="Helvetica,sans-Serif" font-size="14.00">P4_8_2 ≤ 2.5</text>
<text text-anchor="start" x="1016" y="-109.95" font-family="Helvetica,sans-Serif" font-size="14.00">squared_error = 1.987</text>
<text text-anchor="start" x="1042.25" y="-94.2" font-family="Helvetica,sans-Serif" font-size="14.00">samples = 55</text>
<text text-anchor="start" x="1042.25" y="-78.45" font-family="Helvetica,sans-Serif" font-size="14.00">value = 14.83</text>
</g>
<!-- 45&#45;&gt;46 -->
<g id="edge26" class="edge">
<title>45&#45;&gt;46</title>
<path fill="none" stroke="black" d="M1083.12,-178.54C1083.12,-170.92 1083.12,-162.75 1083.12,-154.77"/>
<polygon fill="black" stroke="black" points="1086.63,-154.82 1083.13,-144.82 1079.63,-154.82 1086.63,-154.82"/>
</g>
<!-- 53 -->
<g id="node30" class="node">
<title>53</title>
<path fill="#efb287" stroke="black" d="M1314.25,-143C1314.25,-143 1188,-143 1188,-143 1182,-143 1176,-137 1176,-131 1176,-131 1176,-84 1176,-84 1176,-78 1182,-72 1188,-72 1188,-72 1314.25,-72 1314.25,-72 1320.25,-72 1326.25,-78 1326.25,-84 1326.25,-84 1326.25,-131 1326.25,-131 1326.25,-137 1320.25,-143 1314.25,-143"/>
<text text-anchor="start" x="1211" y="-125.7" font-family="Helvetica,sans-Serif" font-size="14.00">P4_7_3 ≤ 1.5</text>
<text text-anchor="start" x="1184" y="-109.95" font-family="Helvetica,sans-Serif" font-size="14.00">squared_error = 4.586</text>
<text text-anchor="start" x="1210.25" y="-94.2" font-family="Helvetica,sans-Serif" font-size="14.00">samples = 29</text>
<text text-anchor="start" x="1206.5" y="-78.45" font-family="Helvetica,sans-Serif" font-size="14.00">value = 12.678</text>
</g>
<!-- 45&#45;&gt;53 -->
<g id="edge29" class="edge">
<title>45&#45;&gt;53</title>
<path fill="none" stroke="black" d="M1139.07,-178.54C1154.01,-169.2 1170.28,-159.03 1185.69,-149.4"/>
<polygon fill="black" stroke="black" points="1187.23,-152.56 1193.86,-144.29 1183.52,-146.62 1187.23,-152.56"/>
</g>
<!-- 47 -->
<g id="node28" class="node">
<title>47</title>
<path fill="#c0c0c0" stroke="black" d="M1050.12,-36C1050.12,-36 1020.12,-36 1020.12,-36 1014.12,-36 1008.12,-30 1008.12,-24 1008.12,-24 1008.12,-12 1008.12,-12 1008.12,-6 1014.12,0 1020.12,0 1020.12,0 1050.12,0 1050.12,0 1056.12,0 1062.12,-6 1062.12,-12 1062.12,-12 1062.12,-24 1062.12,-24 1062.12,-30 1056.12,-36 1050.12,-36"/>
<text text-anchor="middle" x="1035.12" y="-12.57" font-family="Helvetica,sans-Serif" font-size="14.00">(...)</text>
</g>
<!-- 46&#45;&gt;47 -->
<g id="edge27" class="edge">
<title>46&#45;&gt;47</title>
<path fill="none" stroke="black" d="M1064.02,-71.67C1059.36,-63.18 1054.45,-54.23 1050.03,-46.17"/>
<polygon fill="black" stroke="black" points="1053.16,-44.59 1045.28,-37.51 1047.02,-47.96 1053.16,-44.59"/>
</g>
<!-- 50 -->
<g id="node29" class="node">
<title>50</title>
<path fill="#c0c0c0" stroke="black" d="M1122.12,-36C1122.12,-36 1092.12,-36 1092.12,-36 1086.12,-36 1080.12,-30 1080.12,-24 1080.12,-24 1080.12,-12 1080.12,-12 1080.12,-6 1086.12,0 1092.12,0 1092.12,0 1122.12,0 1122.12,0 1128.12,0 1134.12,-6 1134.12,-12 1134.12,-12 1134.12,-24 1134.12,-24 1134.12,-30 1128.12,-36 1122.12,-36"/>
<text text-anchor="middle" x="1107.12" y="-12.57" font-family="Helvetica,sans-Serif" font-size="14.00">(...)</text>
</g>
<!-- 46&#45;&gt;50 -->
<g id="edge28" class="edge">
<title>46&#45;&gt;50</title>
<path fill="none" stroke="black" d="M1092.68,-71.67C1094.9,-63.56 1097.24,-55.04 1099.37,-47.26"/>
<polygon fill="black" stroke="black" points="1102.74,-48.21 1102.01,-37.64 1095.99,-46.36 1102.74,-48.21"/>
</g>
<!-- 54 -->
<g id="node31" class="node">
<title>54</title>
<path fill="#c0c0c0" stroke="black" d="M1206.12,-36C1206.12,-36 1176.12,-36 1176.12,-36 1170.12,-36 1164.12,-30 1164.12,-24 1164.12,-24 1164.12,-12 1164.12,-12 1164.12,-6 1170.12,0 1176.12,0 1176.12,0 1206.12,0 1206.12,0 1212.12,0 1218.12,-6 1218.12,-12 1218.12,-12 1218.12,-24 1218.12,-24 1218.12,-30 1212.12,-36 1206.12,-36"/>
<text text-anchor="middle" x="1191.12" y="-12.57" font-family="Helvetica,sans-Serif" font-size="14.00">(...)</text>
</g>
<!-- 53&#45;&gt;54 -->
<g id="edge30" class="edge">
<title>53&#45;&gt;54</title>
<path fill="none" stroke="black" d="M1227.24,-71.67C1221.29,-62.99 1215.01,-53.83 1209.38,-45.62"/>
<polygon fill="black" stroke="black" points="1212.31,-43.7 1203.76,-37.43 1206.53,-47.66 1212.31,-43.7"/>
</g>
<!-- 57 -->
<g id="node32" class="node">
<title>57</title>
<path fill="#c0c0c0" stroke="black" d="M1278.12,-36C1278.12,-36 1248.12,-36 1248.12,-36 1242.12,-36 1236.12,-30 1236.12,-24 1236.12,-24 1236.12,-12 1236.12,-12 1236.12,-6 1242.12,0 1248.12,0 1248.12,0 1278.12,0 1278.12,0 1284.12,0 1290.12,-6 1290.12,-12 1290.12,-12 1290.12,-24 1290.12,-24 1290.12,-30 1284.12,-36 1278.12,-36"/>
<text text-anchor="middle" x="1263.12" y="-12.57" font-family="Helvetica,sans-Serif" font-size="14.00">(...)</text>
</g>
<!-- 53&#45;&gt;57 -->
<g id="edge31" class="edge">
<title>53&#45;&gt;57</title>
<path fill="none" stroke="black" d="M1255.9,-71.67C1257,-63.66 1258.16,-55.24 1259.21,-47.53"/>
<polygon fill="black" stroke="black" points="1262.67,-48.07 1260.56,-37.68 1255.74,-47.11 1262.67,-48.07"/>
</g>
<!-- 59 -->
<g id="node34" class="node">
<title>59</title>
<path fill="#f0b78d" stroke="black" d="M1734.25,-357C1734.25,-357 1608,-357 1608,-357 1602,-357 1596,-351 1596,-345 1596,-345 1596,-298 1596,-298 1596,-292 1602,-286 1608,-286 1608,-286 1734.25,-286 1734.25,-286 1740.25,-286 1746.25,-292 1746.25,-298 1746.25,-298 1746.25,-345 1746.25,-345 1746.25,-351 1740.25,-357 1734.25,-357"/>
<text text-anchor="start" x="1631" y="-339.7" font-family="Helvetica,sans-Serif" font-size="14.00">P4_8_1 ≤ 2.5</text>
<text text-anchor="start" x="1604" y="-323.95" font-family="Helvetica,sans-Serif" font-size="14.00">squared_error = 4.481</text>
<text text-anchor="start" x="1626.5" y="-308.2" font-family="Helvetica,sans-Serif" font-size="14.00">samples = 888</text>
<text text-anchor="start" x="1626.5" y="-292.45" font-family="Helvetica,sans-Serif" font-size="14.00">value = 12.321</text>
</g>
<!-- 58&#45;&gt;59 -->
<g id="edge33" class="edge">
<title>58&#45;&gt;59</title>
<path fill="none" stroke="black" d="M1671.12,-392.54C1671.12,-384.92 1671.12,-376.75 1671.12,-368.77"/>
<polygon fill="black" stroke="black" points="1674.63,-368.82 1671.13,-358.82 1667.63,-368.82 1674.63,-368.82"/>
</g>
<!-- 90 -->
<g id="node49" class="node">
<title>90</title>
<path fill="#f5cfb3" stroke="black" d="M2233.25,-357C2233.25,-357 2107,-357 2107,-357 2101,-357 2095,-351 2095,-345 2095,-345 2095,-298 2095,-298 2095,-292 2101,-286 2107,-286 2107,-286 2233.25,-286 2233.25,-286 2239.25,-286 2245.25,-292 2245.25,-298 2245.25,-298 2245.25,-345 2245.25,-345 2245.25,-351 2239.25,-357 2233.25,-357"/>
<text text-anchor="start" x="2122.5" y="-339.7" font-family="Helvetica,sans-Serif" font-size="14.00">P7_9_2_2 ≤ 0.5</text>
<text text-anchor="start" x="2103" y="-323.95" font-family="Helvetica,sans-Serif" font-size="14.00">squared_error = 5.098</text>
<text text-anchor="start" x="2125.5" y="-308.2" font-family="Helvetica,sans-Serif" font-size="14.00">samples = 382</text>
<text text-anchor="start" x="2125.5" y="-292.45" font-family="Helvetica,sans-Serif" font-size="14.00">value = 10.221</text>
</g>
<!-- 58&#45;&gt;90 -->
<g id="edge48" class="edge">
<title>58&#45;&gt;90</title>
<path fill="none" stroke="black" d="M1746.64,-411.61C1837.19,-392.56 1988.62,-360.69 2083.74,-340.68"/>
<polygon fill="black" stroke="black" points="2084.22,-344.15 2093.28,-338.67 2082.78,-337.3 2084.22,-344.15"/>
</g>
<!-- 60 -->
<g id="node35" class="node">
<title>60</title>
<path fill="#f2bf9a" stroke="black" d="M1650.25,-250C1650.25,-250 1524,-250 1524,-250 1518,-250 1512,-244 1512,-238 1512,-238 1512,-191 1512,-191 1512,-185 1518,-179 1524,-179 1524,-179 1650.25,-179 1650.25,-179 1656.25,-179 1662.25,-185 1662.25,-191 1662.25,-191 1662.25,-238 1662.25,-238 1662.25,-244 1656.25,-250 1650.25,-250"/>
<text text-anchor="start" x="1543.62" y="-232.7" font-family="Helvetica,sans-Serif" font-size="14.00">P11_3_9 ≤ 0.5</text>
<text text-anchor="start" x="1520" y="-216.95" font-family="Helvetica,sans-Serif" font-size="14.00">squared_error = 3.748</text>
<text text-anchor="start" x="1542.5" y="-201.2" font-family="Helvetica,sans-Serif" font-size="14.00">samples = 535</text>
<text text-anchor="start" x="1542.88" y="-185.45" font-family="Helvetica,sans-Serif" font-size="14.00">value = 11.614</text>
</g>
<!-- 59&#45;&gt;60 -->
<g id="edge34" class="edge">
<title>59&#45;&gt;60</title>
<path fill="none" stroke="black" d="M1643.15,-285.54C1636.42,-277.12 1629.15,-268.03 1622.14,-259.27"/>
<polygon fill="black" stroke="black" points="1624.9,-257.11 1615.92,-251.49 1619.43,-261.49 1624.9,-257.11"/>
</g>
<!-- 75 -->
<g id="node42" class="node">
<title>75</title>
<path fill="#eeaa7a" stroke="black" d="M1814.5,-250C1814.5,-250 1695.75,-250 1695.75,-250 1689.75,-250 1683.75,-244 1683.75,-238 1683.75,-238 1683.75,-191 1683.75,-191 1683.75,-185 1689.75,-179 1695.75,-179 1695.75,-179 1814.5,-179 1814.5,-179 1820.5,-179 1826.5,-185 1826.5,-191 1826.5,-191 1826.5,-238 1826.5,-238 1826.5,-244 1820.5,-250 1814.5,-250"/>
<text text-anchor="start" x="1715" y="-232.7" font-family="Helvetica,sans-Serif" font-size="14.00">P4_6_4 ≤ 1.5</text>
<text text-anchor="start" x="1691.75" y="-216.95" font-family="Helvetica,sans-Serif" font-size="14.00">squared_error = 3.69</text>
<text text-anchor="start" x="1710.5" y="-201.2" font-family="Helvetica,sans-Serif" font-size="14.00">samples = 353</text>
<text text-anchor="start" x="1710.5" y="-185.45" font-family="Helvetica,sans-Serif" font-size="14.00">value = 13.391</text>
</g>
<!-- 59&#45;&gt;75 -->
<g id="edge41" class="edge">
<title>59&#45;&gt;75</title>
<path fill="none" stroke="black" d="M1699.1,-285.54C1705.83,-277.12 1713.1,-268.03 1720.11,-259.27"/>
<polygon fill="black" stroke="black" points="1722.82,-261.49 1726.33,-251.49 1717.35,-257.11 1722.82,-261.49"/>
</g>
<!-- 61 -->
<g id="node36" class="node">
<title>61</title>
<path fill="#f0b78e" stroke="black" d="M1482.25,-143C1482.25,-143 1356,-143 1356,-143 1350,-143 1344,-137 1344,-131 1344,-131 1344,-84 1344,-84 1344,-78 1350,-72 1356,-72 1356,-72 1482.25,-72 1482.25,-72 1488.25,-72 1494.25,-78 1494.25,-84 1494.25,-84 1494.25,-131 1494.25,-131 1494.25,-137 1488.25,-143 1482.25,-143"/>
<text text-anchor="start" x="1379" y="-125.7" font-family="Helvetica,sans-Serif" font-size="14.00">P4_8_3 ≤ 1.5</text>
<text text-anchor="start" x="1352" y="-109.95" font-family="Helvetica,sans-Serif" font-size="14.00">squared_error = 3.157</text>
<text text-anchor="start" x="1374.5" y="-94.2" font-family="Helvetica,sans-Serif" font-size="14.00">samples = 317</text>
<text text-anchor="start" x="1374.5" y="-78.45" font-family="Helvetica,sans-Serif" font-size="14.00">value = 12.264</text>
</g>
<!-- 60&#45;&gt;61 -->
<g id="edge35" class="edge">
<title>60&#45;&gt;61</title>
<path fill="none" stroke="black" d="M1531.18,-178.54C1516.24,-169.2 1499.97,-159.03 1484.56,-149.4"/>
<polygon fill="black" stroke="black" points="1486.73,-146.62 1476.39,-144.29 1483.02,-152.56 1486.73,-146.62"/>
</g>
<!-- 68 -->
<g id="node39" class="node">
<title>68</title>
<path fill="#f4c9ab" stroke="black" d="M1650.25,-143C1650.25,-143 1524,-143 1524,-143 1518,-143 1512,-137 1512,-131 1512,-131 1512,-84 1512,-84 1512,-78 1518,-72 1524,-72 1524,-72 1650.25,-72 1650.25,-72 1656.25,-72 1662.25,-78 1662.25,-84 1662.25,-84 1662.25,-131 1662.25,-131 1662.25,-137 1656.25,-143 1650.25,-143"/>
<text text-anchor="start" x="1547" y="-125.7" font-family="Helvetica,sans-Serif" font-size="14.00">P4_8_2 ≤ 1.5</text>
<text text-anchor="start" x="1520" y="-109.95" font-family="Helvetica,sans-Serif" font-size="14.00">squared_error = 3.103</text>
<text text-anchor="start" x="1542.5" y="-94.2" font-family="Helvetica,sans-Serif" font-size="14.00">samples = 218</text>
<text text-anchor="start" x="1546.25" y="-78.45" font-family="Helvetica,sans-Serif" font-size="14.00">value = 10.67</text>
</g>
<!-- 60&#45;&gt;68 -->
<g id="edge38" class="edge">
<title>60&#45;&gt;68</title>
<path fill="none" stroke="black" d="M1587.12,-178.54C1587.12,-170.92 1587.12,-162.75 1587.12,-154.77"/>
<polygon fill="black" stroke="black" points="1590.63,-154.82 1587.13,-144.82 1583.63,-154.82 1590.63,-154.82"/>
</g>
<!-- 62 -->
<g id="node37" class="node">
<title>62</title>
<path fill="#c0c0c0" stroke="black" d="M1374.12,-36C1374.12,-36 1344.12,-36 1344.12,-36 1338.12,-36 1332.12,-30 1332.12,-24 1332.12,-24 1332.12,-12 1332.12,-12 1332.12,-6 1338.12,0 1344.12,0 1344.12,0 1374.12,0 1374.12,0 1380.12,0 1386.12,-6 1386.12,-12 1386.12,-12 1386.12,-24 1386.12,-24 1386.12,-30 1380.12,-36 1374.12,-36"/>
<text text-anchor="middle" x="1359.12" y="-12.57" font-family="Helvetica,sans-Serif" font-size="14.00">(...)</text>
</g>
<!-- 61&#45;&gt;62 -->
<g id="edge36" class="edge">
<title>61&#45;&gt;62</title>
<path fill="none" stroke="black" d="M1395.24,-71.67C1389.29,-62.99 1383.01,-53.83 1377.38,-45.62"/>
<polygon fill="black" stroke="black" points="1380.31,-43.7 1371.76,-37.43 1374.53,-47.66 1380.31,-43.7"/>
</g>
<!-- 65 -->
<g id="node38" class="node">
<title>65</title>
<path fill="#c0c0c0" stroke="black" d="M1446.12,-36C1446.12,-36 1416.12,-36 1416.12,-36 1410.12,-36 1404.12,-30 1404.12,-24 1404.12,-24 1404.12,-12 1404.12,-12 1404.12,-6 1410.12,0 1416.12,0 1416.12,0 1446.12,0 1446.12,0 1452.12,0 1458.12,-6 1458.12,-12 1458.12,-12 1458.12,-24 1458.12,-24 1458.12,-30 1452.12,-36 1446.12,-36"/>
<text text-anchor="middle" x="1431.12" y="-12.57" font-family="Helvetica,sans-Serif" font-size="14.00">(...)</text>
</g>
<!-- 61&#45;&gt;65 -->
<g id="edge37" class="edge">
<title>61&#45;&gt;65</title>
<path fill="none" stroke="black" d="M1423.9,-71.67C1425,-63.66 1426.16,-55.24 1427.21,-47.53"/>
<polygon fill="black" stroke="black" points="1430.67,-48.07 1428.56,-37.68 1423.74,-47.11 1430.67,-48.07"/>
</g>
<!-- 69 -->
<g id="node40" class="node">
<title>69</title>
<path fill="#c0c0c0" stroke="black" d="M1542.12,-36C1542.12,-36 1512.12,-36 1512.12,-36 1506.12,-36 1500.12,-30 1500.12,-24 1500.12,-24 1500.12,-12 1500.12,-12 1500.12,-6 1506.12,0 1512.12,0 1512.12,0 1542.12,0 1542.12,0 1548.12,0 1554.12,-6 1554.12,-12 1554.12,-12 1554.12,-24 1554.12,-24 1554.12,-30 1548.12,-36 1542.12,-36"/>
<text text-anchor="middle" x="1527.12" y="-12.57" font-family="Helvetica,sans-Serif" font-size="14.00">(...)</text>
</g>
<!-- 68&#45;&gt;69 -->
<g id="edge39" class="edge">
<title>68&#45;&gt;69</title>
<path fill="none" stroke="black" d="M1563.24,-71.67C1557.29,-62.99 1551.01,-53.83 1545.38,-45.62"/>
<polygon fill="black" stroke="black" points="1548.31,-43.7 1539.76,-37.43 1542.53,-47.66 1548.31,-43.7"/>
</g>
<!-- 72 -->
<g id="node41" class="node">
<title>72</title>
<path fill="#c0c0c0" stroke="black" d="M1614.12,-36C1614.12,-36 1584.12,-36 1584.12,-36 1578.12,-36 1572.12,-30 1572.12,-24 1572.12,-24 1572.12,-12 1572.12,-12 1572.12,-6 1578.12,0 1584.12,0 1584.12,0 1614.12,0 1614.12,0 1620.12,0 1626.12,-6 1626.12,-12 1626.12,-12 1626.12,-24 1626.12,-24 1626.12,-30 1620.12,-36 1614.12,-36"/>
<text text-anchor="middle" x="1599.12" y="-12.57" font-family="Helvetica,sans-Serif" font-size="14.00">(...)</text>
</g>
<!-- 68&#45;&gt;72 -->
<g id="edge40" class="edge">
<title>68&#45;&gt;72</title>
<path fill="none" stroke="black" d="M1591.9,-71.67C1593,-63.66 1594.16,-55.24 1595.21,-47.53"/>
<polygon fill="black" stroke="black" points="1598.67,-48.07 1596.56,-37.68 1591.74,-47.11 1598.67,-48.07"/>
</g>
<!-- 76 -->
<g id="node43" class="node">
<title>76</title>
<path fill="#eba06a" stroke="black" d="M1818.25,-143C1818.25,-143 1692,-143 1692,-143 1686,-143 1680,-137 1680,-131 1680,-131 1680,-84 1680,-84 1680,-78 1686,-72 1692,-72 1692,-72 1818.25,-72 1818.25,-72 1824.25,-72 1830.25,-78 1830.25,-84 1830.25,-84 1830.25,-131 1830.25,-131 1830.25,-137 1824.25,-143 1818.25,-143"/>
<text text-anchor="start" x="1718.75" y="-125.7" font-family="Helvetica,sans-Serif" font-size="14.00">P12_4 ≤ 2.5</text>
<text text-anchor="start" x="1688" y="-109.95" font-family="Helvetica,sans-Serif" font-size="14.00">squared_error = 3.307</text>
<text text-anchor="start" x="1710.5" y="-94.2" font-family="Helvetica,sans-Serif" font-size="14.00">samples = 164</text>
<text text-anchor="start" x="1710.5" y="-78.45" font-family="Helvetica,sans-Serif" font-size="14.00">value = 14.248</text>
</g>
<!-- 75&#45;&gt;76 -->
<g id="edge42" class="edge">
<title>75&#45;&gt;76</title>
<path fill="none" stroke="black" d="M1755.12,-178.54C1755.12,-170.92 1755.12,-162.75 1755.12,-154.77"/>
<polygon fill="black" stroke="black" points="1758.63,-154.82 1755.13,-144.82 1751.63,-154.82 1758.63,-154.82"/>
</g>
<!-- 83 -->
<g id="node46" class="node">
<title>83</title>
<path fill="#efb387" stroke="black" d="M1986.25,-143C1986.25,-143 1860,-143 1860,-143 1854,-143 1848,-137 1848,-131 1848,-131 1848,-84 1848,-84 1848,-78 1854,-72 1860,-72 1860,-72 1986.25,-72 1986.25,-72 1992.25,-72 1998.25,-78 1998.25,-84 1998.25,-84 1998.25,-131 1998.25,-131 1998.25,-137 1992.25,-143 1986.25,-143"/>
<text text-anchor="start" x="1879.62" y="-125.7" font-family="Helvetica,sans-Serif" font-size="14.00">P11_3_9 ≤ 0.5</text>
<text text-anchor="start" x="1856" y="-109.95" font-family="Helvetica,sans-Serif" font-size="14.00">squared_error = 2.833</text>
<text text-anchor="start" x="1878.5" y="-94.2" font-family="Helvetica,sans-Serif" font-size="14.00">samples = 189</text>
<text text-anchor="start" x="1878.5" y="-78.45" font-family="Helvetica,sans-Serif" font-size="14.00">value = 12.647</text>
</g>
<!-- 75&#45;&gt;83 -->
<g id="edge45" class="edge">
<title>75&#45;&gt;83</title>
<path fill="none" stroke="black" d="M1811.07,-178.54C1826.01,-169.2 1842.28,-159.03 1857.69,-149.4"/>
<polygon fill="black" stroke="black" points="1859.23,-152.56 1865.86,-144.29 1855.52,-146.62 1859.23,-152.56"/>
</g>
<!-- 77 -->
<g id="node44" class="node">
<title>77</title>
<path fill="#c0c0c0" stroke="black" d="M1710.12,-36C1710.12,-36 1680.12,-36 1680.12,-36 1674.12,-36 1668.12,-30 1668.12,-24 1668.12,-24 1668.12,-12 1668.12,-12 1668.12,-6 1674.12,0 1680.12,0 1680.12,0 1710.12,0 1710.12,0 1716.12,0 1722.12,-6 1722.12,-12 1722.12,-12 1722.12,-24 1722.12,-24 1722.12,-30 1716.12,-36 1710.12,-36"/>
<text text-anchor="middle" x="1695.12" y="-12.57" font-family="Helvetica,sans-Serif" font-size="14.00">(...)</text>
</g>
<!-- 76&#45;&gt;77 -->
<g id="edge43" class="edge">
<title>76&#45;&gt;77</title>
<path fill="none" stroke="black" d="M1731.24,-71.67C1725.29,-62.99 1719.01,-53.83 1713.38,-45.62"/>
<polygon fill="black" stroke="black" points="1716.31,-43.7 1707.76,-37.43 1710.53,-47.66 1716.31,-43.7"/>
</g>
<!-- 80 -->
<g id="node45" class="node">
<title>80</title>
<path fill="#c0c0c0" stroke="black" d="M1782.12,-36C1782.12,-36 1752.12,-36 1752.12,-36 1746.12,-36 1740.12,-30 1740.12,-24 1740.12,-24 1740.12,-12 1740.12,-12 1740.12,-6 1746.12,0 1752.12,0 1752.12,0 1782.12,0 1782.12,0 1788.12,0 1794.12,-6 1794.12,-12 1794.12,-12 1794.12,-24 1794.12,-24 1794.12,-30 1788.12,-36 1782.12,-36"/>
<text text-anchor="middle" x="1767.12" y="-12.57" font-family="Helvetica,sans-Serif" font-size="14.00">(...)</text>
</g>
<!-- 76&#45;&gt;80 -->
<g id="edge44" class="edge">
<title>76&#45;&gt;80</title>
<path fill="none" stroke="black" d="M1759.9,-71.67C1761,-63.66 1762.16,-55.24 1763.21,-47.53"/>
<polygon fill="black" stroke="black" points="1766.67,-48.07 1764.56,-37.68 1759.74,-47.11 1766.67,-48.07"/>
</g>
<!-- 84 -->
<g id="node47" class="node">
<title>84</title>
<path fill="#c0c0c0" stroke="black" d="M1876.12,-36C1876.12,-36 1846.12,-36 1846.12,-36 1840.12,-36 1834.12,-30 1834.12,-24 1834.12,-24 1834.12,-12 1834.12,-12 1834.12,-6 1840.12,0 1846.12,0 1846.12,0 1876.12,0 1876.12,0 1882.12,0 1888.12,-6 1888.12,-12 1888.12,-12 1888.12,-24 1888.12,-24 1888.12,-30 1882.12,-36 1876.12,-36"/>
<text text-anchor="middle" x="1861.12" y="-12.57" font-family="Helvetica,sans-Serif" font-size="14.00">(...)</text>
</g>
<!-- 83&#45;&gt;84 -->
<g id="edge46" class="edge">
<title>83&#45;&gt;84</title>
<path fill="none" stroke="black" d="M1898.44,-71.67C1892.23,-62.9 1885.66,-53.63 1879.8,-45.35"/>
<polygon fill="black" stroke="black" points="1882.81,-43.55 1874.18,-37.42 1877.1,-47.6 1882.81,-43.55"/>
</g>
<!-- 87 -->
<g id="node48" class="node">
<title>87</title>
<path fill="#c0c0c0" stroke="black" d="M1948.12,-36C1948.12,-36 1918.12,-36 1918.12,-36 1912.12,-36 1906.12,-30 1906.12,-24 1906.12,-24 1906.12,-12 1906.12,-12 1906.12,-6 1912.12,0 1918.12,0 1918.12,0 1948.12,0 1948.12,0 1954.12,0 1960.12,-6 1960.12,-12 1960.12,-12 1960.12,-24 1960.12,-24 1960.12,-30 1954.12,-36 1948.12,-36"/>
<text text-anchor="middle" x="1933.12" y="-12.57" font-family="Helvetica,sans-Serif" font-size="14.00">(...)</text>
</g>
<!-- 83&#45;&gt;87 -->
<g id="edge47" class="edge">
<title>83&#45;&gt;87</title>
<path fill="none" stroke="black" d="M1927.11,-71.67C1928.02,-63.66 1928.98,-55.24 1929.86,-47.53"/>
<polygon fill="black" stroke="black" points="1933.33,-48.02 1930.99,-37.69 1926.38,-47.22 1933.33,-48.02"/>
</g>
<!-- 91 -->
<g id="node50" class="node">
<title>91</title>
<path fill="#f2bf9a" stroke="black" d="M2233.25,-250C2233.25,-250 2107,-250 2107,-250 2101,-250 2095,-244 2095,-238 2095,-238 2095,-191 2095,-191 2095,-185 2101,-179 2107,-179 2107,-179 2233.25,-179 2233.25,-179 2239.25,-179 2245.25,-185 2245.25,-191 2245.25,-191 2245.25,-238 2245.25,-238 2245.25,-244 2239.25,-250 2233.25,-250"/>
<text text-anchor="start" x="2130" y="-232.7" font-family="Helvetica,sans-Serif" font-size="14.00">P4_8_1 ≤ 2.5</text>
<text text-anchor="start" x="2103" y="-216.95" font-family="Helvetica,sans-Serif" font-size="14.00">squared_error = 2.966</text>
<text text-anchor="start" x="2125.5" y="-201.2" font-family="Helvetica,sans-Serif" font-size="14.00">samples = 132</text>
<text text-anchor="start" x="2125.88" y="-185.45" font-family="Helvetica,sans-Serif" font-size="14.00">value = 11.588</text>
</g>
<!-- 90&#45;&gt;91 -->
<g id="edge49" class="edge">
<title>90&#45;&gt;91</title>
<path fill="none" stroke="black" d="M2170.12,-285.54C2170.12,-277.92 2170.12,-269.75 2170.12,-261.77"/>
<polygon fill="black" stroke="black" points="2173.63,-261.82 2170.13,-251.82 2166.63,-261.82 2173.63,-261.82"/>
</g>
<!-- 104 -->
<g id="node57" class="node">
<title>104</title>
<path fill="#f7d7c0" stroke="black" d="M2484.25,-250C2484.25,-250 2358,-250 2358,-250 2352,-250 2346,-244 2346,-238 2346,-238 2346,-191 2346,-191 2346,-185 2352,-179 2358,-179 2358,-179 2484.25,-179 2484.25,-179 2490.25,-179 2496.25,-185 2496.25,-191 2496.25,-191 2496.25,-238 2496.25,-238 2496.25,-244 2490.25,-250 2484.25,-250"/>
<text text-anchor="start" x="2384.75" y="-232.7" font-family="Helvetica,sans-Serif" font-size="14.00">P12_4 ≤ 2.5</text>
<text text-anchor="start" x="2354" y="-216.95" font-family="Helvetica,sans-Serif" font-size="14.00">squared_error = 4.714</text>
<text text-anchor="start" x="2376.5" y="-201.2" font-family="Helvetica,sans-Serif" font-size="14.00">samples = 250</text>
<text text-anchor="start" x="2380.25" y="-185.45" font-family="Helvetica,sans-Serif" font-size="14.00">value = 9.499</text>
</g>
<!-- 90&#45;&gt;104 -->
<g id="edge56" class="edge">
<title>90&#45;&gt;104</title>
<path fill="none" stroke="black" d="M2245.43,-289C2273.73,-277.16 2306.1,-263.62 2335.28,-251.41"/>
<polygon fill="black" stroke="black" points="2336.6,-254.65 2344.47,-247.57 2333.9,-248.2 2336.6,-254.65"/>
</g>
<!-- 92 -->
<g id="node51" class="node">
<title>92</title>
<path fill="#f3c5a3" stroke="black" d="M2147.5,-143C2147.5,-143 2028.75,-143 2028.75,-143 2022.75,-143 2016.75,-137 2016.75,-131 2016.75,-131 2016.75,-84 2016.75,-84 2016.75,-78 2022.75,-72 2028.75,-72 2028.75,-72 2147.5,-72 2147.5,-72 2153.5,-72 2159.5,-78 2159.5,-84 2159.5,-84 2159.5,-131 2159.5,-131 2159.5,-137 2153.5,-143 2147.5,-143"/>
<text text-anchor="start" x="2044.62" y="-125.7" font-family="Helvetica,sans-Serif" font-size="14.00">P11_3_2 ≤ 0.5</text>
<text text-anchor="start" x="2024.75" y="-109.95" font-family="Helvetica,sans-Serif" font-size="14.00">squared_error = 2.37</text>
<text text-anchor="start" x="2047.25" y="-94.2" font-family="Helvetica,sans-Serif" font-size="14.00">samples = 88</text>
<text text-anchor="start" x="2043.88" y="-78.45" font-family="Helvetica,sans-Serif" font-size="14.00">value = 11.102</text>
</g>
<!-- 91&#45;&gt;92 -->
<g id="edge50" class="edge">
<title>91&#45;&gt;92</title>
<path fill="none" stroke="black" d="M2142.82,-178.54C2136.25,-170.12 2129.15,-161.03 2122.31,-152.27"/>
<polygon fill="black" stroke="black" points="2125.16,-150.23 2116.24,-144.5 2119.64,-154.54 2125.16,-150.23"/>
</g>
<!-- 99 -->
<g id="node54" class="node">
<title>99</title>
<path fill="#efb489" stroke="black" d="M2316.25,-143C2316.25,-143 2190,-143 2190,-143 2184,-143 2178,-137 2178,-131 2178,-131 2178,-84 2178,-84 2178,-78 2184,-72 2190,-72 2190,-72 2316.25,-72 2316.25,-72 2322.25,-72 2328.25,-78 2328.25,-84 2328.25,-84 2328.25,-131 2328.25,-131 2328.25,-137 2322.25,-143 2316.25,-143"/>
<text text-anchor="start" x="2213" y="-125.7" font-family="Helvetica,sans-Serif" font-size="14.00">P4_6_4 ≤ 1.5</text>
<text text-anchor="start" x="2186" y="-109.95" font-family="Helvetica,sans-Serif" font-size="14.00">squared_error = 2.741</text>
<text text-anchor="start" x="2212.25" y="-94.2" font-family="Helvetica,sans-Serif" font-size="14.00">samples = 44</text>
<text text-anchor="start" x="2208.5" y="-78.45" font-family="Helvetica,sans-Serif" font-size="14.00">value = 12.561</text>
</g>
<!-- 91&#45;&gt;99 -->
<g id="edge53" class="edge">
<title>91&#45;&gt;99</title>
<path fill="none" stroke="black" d="M2197.76,-178.54C2204.41,-170.12 2211.6,-161.03 2218.52,-152.27"/>
<polygon fill="black" stroke="black" points="2221.21,-154.51 2224.67,-144.5 2215.72,-150.17 2221.21,-154.51"/>
</g>
<!-- 93 -->
<g id="node52" class="node">
<title>93</title>
<path fill="#c0c0c0" stroke="black" d="M2041.12,-36C2041.12,-36 2011.12,-36 2011.12,-36 2005.12,-36 1999.12,-30 1999.12,-24 1999.12,-24 1999.12,-12 1999.12,-12 1999.12,-6 2005.12,0 2011.12,0 2011.12,0 2041.12,0 2041.12,0 2047.12,0 2053.12,-6 2053.12,-12 2053.12,-12 2053.12,-24 2053.12,-24 2053.12,-30 2047.12,-36 2041.12,-36"/>
<text text-anchor="middle" x="2026.12" y="-12.57" font-family="Helvetica,sans-Serif" font-size="14.00">(...)</text>
</g>
<!-- 92&#45;&gt;93 -->
<g id="edge51" class="edge">
<title>92&#45;&gt;93</title>
<path fill="none" stroke="black" d="M2063.44,-71.67C2057.23,-62.9 2050.66,-53.63 2044.8,-45.35"/>
<polygon fill="black" stroke="black" points="2047.81,-43.55 2039.18,-37.42 2042.1,-47.6 2047.81,-43.55"/>
</g>
<!-- 96 -->
<g id="node53" class="node">
<title>96</title>
<path fill="#c0c0c0" stroke="black" d="M2113.12,-36C2113.12,-36 2083.12,-36 2083.12,-36 2077.12,-36 2071.12,-30 2071.12,-24 2071.12,-24 2071.12,-12 2071.12,-12 2071.12,-6 2077.12,0 2083.12,0 2083.12,0 2113.12,0 2113.12,0 2119.12,0 2125.12,-6 2125.12,-12 2125.12,-12 2125.12,-24 2125.12,-24 2125.12,-30 2119.12,-36 2113.12,-36"/>
<text text-anchor="middle" x="2098.12" y="-12.57" font-family="Helvetica,sans-Serif" font-size="14.00">(...)</text>
</g>
<!-- 92&#45;&gt;96 -->
<g id="edge52" class="edge">
<title>92&#45;&gt;96</title>
<path fill="none" stroke="black" d="M2092.11,-71.67C2093.02,-63.66 2093.98,-55.24 2094.86,-47.53"/>
<polygon fill="black" stroke="black" points="2098.33,-48.02 2095.99,-37.69 2091.38,-47.22 2098.33,-48.02"/>
</g>
<!-- 100 -->
<g id="node55" class="node">
<title>100</title>
<path fill="#c0c0c0" stroke="black" d="M2208.12,-36C2208.12,-36 2178.12,-36 2178.12,-36 2172.12,-36 2166.12,-30 2166.12,-24 2166.12,-24 2166.12,-12 2166.12,-12 2166.12,-6 2172.12,0 2178.12,0 2178.12,0 2208.12,0 2208.12,0 2214.12,0 2220.12,-6 2220.12,-12 2220.12,-12 2220.12,-24 2220.12,-24 2220.12,-30 2214.12,-36 2208.12,-36"/>
<text text-anchor="middle" x="2193.12" y="-12.57" font-family="Helvetica,sans-Serif" font-size="14.00">(...)</text>
</g>
<!-- 99&#45;&gt;100 -->
<g id="edge54" class="edge">
<title>99&#45;&gt;100</title>
<path fill="none" stroke="black" d="M2229.24,-71.67C2223.29,-62.99 2217.01,-53.83 2211.38,-45.62"/>
<polygon fill="black" stroke="black" points="2214.31,-43.7 2205.76,-37.43 2208.53,-47.66 2214.31,-43.7"/>
</g>
<!-- 101 -->
<g id="node56" class="node">
<title>101</title>
<path fill="#c0c0c0" stroke="black" d="M2280.12,-36C2280.12,-36 2250.12,-36 2250.12,-36 2244.12,-36 2238.12,-30 2238.12,-24 2238.12,-24 2238.12,-12 2238.12,-12 2238.12,-6 2244.12,0 2250.12,0 2250.12,0 2280.12,0 2280.12,0 2286.12,0 2292.12,-6 2292.12,-12 2292.12,-12 2292.12,-24 2292.12,-24 2292.12,-30 2286.12,-36 2280.12,-36"/>
<text text-anchor="middle" x="2265.12" y="-12.57" font-family="Helvetica,sans-Serif" font-size="14.00">(...)</text>
</g>
<!-- 99&#45;&gt;101 -->
<g id="edge55" class="edge">
<title>99&#45;&gt;101</title>
<path fill="none" stroke="black" d="M2257.9,-71.67C2259,-63.66 2260.16,-55.24 2261.21,-47.53"/>
<polygon fill="black" stroke="black" points="2264.67,-48.07 2262.56,-37.68 2257.74,-47.11 2264.67,-48.07"/>
</g>
<!-- 105 -->
<g id="node58" class="node">
<title>105</title>
<path fill="#fbebdf" stroke="black" d="M2484.25,-143C2484.25,-143 2358,-143 2358,-143 2352,-143 2346,-137 2346,-131 2346,-131 2346,-84 2346,-84 2346,-78 2352,-72 2358,-72 2358,-72 2484.25,-72 2484.25,-72 2490.25,-72 2496.25,-78 2496.25,-84 2496.25,-84 2496.25,-131 2496.25,-131 2496.25,-137 2490.25,-143 2484.25,-143"/>
<text text-anchor="start" x="2381" y="-125.7" font-family="Helvetica,sans-Serif" font-size="14.00">P4_7_2 ≤ 1.5</text>
<text text-anchor="start" x="2354" y="-109.95" font-family="Helvetica,sans-Serif" font-size="14.00">squared_error = 2.568</text>
<text text-anchor="start" x="2380.25" y="-94.2" font-family="Helvetica,sans-Serif" font-size="14.00">samples = 56</text>
<text text-anchor="start" x="2380.25" y="-78.45" font-family="Helvetica,sans-Serif" font-size="14.00">value = 7.774</text>
</g>
<!-- 104&#45;&gt;105 -->
<g id="edge57" class="edge">
<title>104&#45;&gt;105</title>
<path fill="none" stroke="black" d="M2421.12,-178.54C2421.12,-170.92 2421.12,-162.75 2421.12,-154.77"/>
<polygon fill="black" stroke="black" points="2424.63,-154.82 2421.13,-144.82 2417.63,-154.82 2424.63,-154.82"/>
</g>
<!-- 112 -->
<g id="node61" class="node">
<title>112</title>
<path fill="#f6d1b7" stroke="black" d="M2652.25,-143C2652.25,-143 2526,-143 2526,-143 2520,-143 2514,-137 2514,-131 2514,-131 2514,-84 2514,-84 2514,-78 2520,-72 2526,-72 2526,-72 2652.25,-72 2652.25,-72 2658.25,-72 2664.25,-78 2664.25,-84 2664.25,-84 2664.25,-131 2664.25,-131 2664.25,-137 2658.25,-143 2652.25,-143"/>
<text text-anchor="start" x="2549" y="-125.7" font-family="Helvetica,sans-Serif" font-size="14.00">P4_7_2 ≤ 1.5</text>
<text text-anchor="start" x="2522" y="-109.95" font-family="Helvetica,sans-Serif" font-size="14.00">squared_error = 4.227</text>
<text text-anchor="start" x="2544.5" y="-94.2" font-family="Helvetica,sans-Serif" font-size="14.00">samples = 194</text>
<text text-anchor="start" x="2548.25" y="-78.45" font-family="Helvetica,sans-Serif" font-size="14.00">value = 9.997</text>
</g>
<!-- 104&#45;&gt;112 -->
<g id="edge60" class="edge">
<title>104&#45;&gt;112</title>
<path fill="none" stroke="black" d="M2477.07,-178.54C2492.01,-169.2 2508.28,-159.03 2523.69,-149.4"/>
<polygon fill="black" stroke="black" points="2525.23,-152.56 2531.86,-144.29 2521.52,-146.62 2525.23,-152.56"/>
</g>
<!-- 106 -->
<g id="node59" class="node">
<title>106</title>
<path fill="#c0c0c0" stroke="black" d="M2394.12,-36C2394.12,-36 2364.12,-36 2364.12,-36 2358.12,-36 2352.12,-30 2352.12,-24 2352.12,-24 2352.12,-12 2352.12,-12 2352.12,-6 2358.12,0 2364.12,0 2364.12,0 2394.12,0 2394.12,0 2400.12,0 2406.12,-6 2406.12,-12 2406.12,-12 2406.12,-24 2406.12,-24 2406.12,-30 2400.12,-36 2394.12,-36"/>
<text text-anchor="middle" x="2379.12" y="-12.57" font-family="Helvetica,sans-Serif" font-size="14.00">(...)</text>
</g>
<!-- 105&#45;&gt;106 -->
<g id="edge58" class="edge">
<title>105&#45;&gt;106</title>
<path fill="none" stroke="black" d="M2404.4,-71.67C2400.38,-63.28 2396.13,-54.43 2392.3,-46.44"/>
<polygon fill="black" stroke="black" points="2395.51,-45.05 2388.03,-37.55 2389.2,-48.08 2395.51,-45.05"/>
</g>
<!-- 109 -->
<g id="node60" class="node">
<title>109</title>
<path fill="#c0c0c0" stroke="black" d="M2466.12,-36C2466.12,-36 2436.12,-36 2436.12,-36 2430.12,-36 2424.12,-30 2424.12,-24 2424.12,-24 2424.12,-12 2424.12,-12 2424.12,-6 2430.12,0 2436.12,0 2436.12,0 2466.12,0 2466.12,0 2472.12,0 2478.12,-6 2478.12,-12 2478.12,-12 2478.12,-24 2478.12,-24 2478.12,-30 2472.12,-36 2466.12,-36"/>
<text text-anchor="middle" x="2451.12" y="-12.57" font-family="Helvetica,sans-Serif" font-size="14.00">(...)</text>
</g>
<!-- 105&#45;&gt;109 -->
<g id="edge59" class="edge">
<title>105&#45;&gt;109</title>
<path fill="none" stroke="black" d="M2433.07,-71.67C2435.88,-63.47 2438.84,-54.84 2441.53,-46.98"/>
<polygon fill="black" stroke="black" points="2444.81,-48.21 2444.74,-37.61 2438.19,-45.94 2444.81,-48.21"/>
</g>
<!-- 113 -->
<g id="node62" class="node">
<title>113</title>
<path fill="#c0c0c0" stroke="black" d="M2568.12,-36C2568.12,-36 2538.12,-36 2538.12,-36 2532.12,-36 2526.12,-30 2526.12,-24 2526.12,-24 2526.12,-12 2526.12,-12 2526.12,-6 2532.12,0 2538.12,0 2538.12,0 2568.12,0 2568.12,0 2574.12,0 2580.12,-6 2580.12,-12 2580.12,-12 2580.12,-24 2580.12,-24 2580.12,-30 2574.12,-36 2568.12,-36"/>
<text text-anchor="middle" x="2553.12" y="-12.57" font-family="Helvetica,sans-Serif" font-size="14.00">(...)</text>
</g>
<!-- 112&#45;&gt;113 -->
<g id="edge61" class="edge">
<title>112&#45;&gt;113</title>
<path fill="none" stroke="black" d="M2574.79,-71.67C2571.38,-63.37 2567.79,-54.63 2564.53,-46.71"/>
<polygon fill="black" stroke="black" points="2567.81,-45.5 2560.77,-37.58 2561.34,-48.16 2567.81,-45.5"/>
</g>
<!-- 116 -->
<g id="node63" class="node">
<title>116</title>
<path fill="#c0c0c0" stroke="black" d="M2640.12,-36C2640.12,-36 2610.12,-36 2610.12,-36 2604.12,-36 2598.12,-30 2598.12,-24 2598.12,-24 2598.12,-12 2598.12,-12 2598.12,-6 2604.12,0 2610.12,0 2610.12,0 2640.12,0 2640.12,0 2646.12,0 2652.12,-6 2652.12,-12 2652.12,-12 2652.12,-24 2652.12,-24 2652.12,-30 2646.12,-36 2640.12,-36"/>
<text text-anchor="middle" x="2625.12" y="-12.57" font-family="Helvetica,sans-Serif" font-size="14.00">(...)</text>
</g>
<!-- 112&#45;&gt;116 -->
<g id="edge62" class="edge">
<title>112&#45;&gt;116</title>
<path fill="none" stroke="black" d="M2603.46,-71.67C2606.87,-63.37 2610.46,-54.63 2613.72,-46.71"/>
<polygon fill="black" stroke="black" points="2616.91,-48.16 2617.48,-37.58 2610.44,-45.5 2616.91,-48.16"/>
</g>
</g>
</svg>
