<?xml version="1.0" encoding="UTF-8" standalone="no"?>
<!DOCTYPE svg PUBLIC "-//W3C//DTD SVG 1.1//EN"
 "http://www.w3.org/Graphics/SVG/1.1/DTD/svg11.dtd">
<!-- Generated by graphviz version 12.2.1 (20241206.2353)
 -->
<!-- Title: Tree Pages: 1 -->
<svg width="2666pt" height="579pt"
 viewBox="0.00 0.00 2666.25 579.00" xmlns="http://www.w3.org/2000/svg" xmlns:xlink="http://www.w3.org/1999/xlink">
<g id="graph0" class="graph" transform="scale(1 1) rotate(0) translate(4 575)">
<title>Tree</title>
<polygon fill="white" stroke="none" points="-4,4 -4,-575 2662.25,-575 2662.25,4 -4,4"/>
<!-- 0 -->
<g id="node1" class="node">
<title>0</title>
<path fill="#f2c09b" stroke="black" d="M1392.25,-571C1392.25,-571 1266,-571 1266,-571 1260,-571 1254,-565 1254,-559 1254,-559 1254,-512 1254,-512 1254,-506 1260,-500 1266,-500 1266,-500 1392.25,-500 1392.25,-500 1398.25,-500 1404.25,-506 1404.25,-512 1404.25,-512 1404.25,-559 1404.25,-559 1404.25,-565 1398.25,-571 1392.25,-571"/>
<text text-anchor="start" x="1289" y="-553.7" font-family="Helvetica,sans-Serif" font-size="14.00">P4_8_3 ≤ 1.5</text>
<text text-anchor="start" x="1262" y="-537.95" font-family="Helvetica,sans-Serif" font-size="14.00">squared_error = 7.256</text>
<text text-anchor="start" x="1280.75" y="-522.2" font-family="Helvetica,sans-Serif" font-size="14.00">samples = 4936</text>
<text text-anchor="start" x="1284.88" y="-506.45" font-family="Helvetica,sans-Serif" font-size="14.00">value = 11.743</text>
</g>
<!-- 1 -->
<g id="node2" class="node">
<title>1</title>
<path fill="#efb388" stroke="black" d="M1056.25,-464C1056.25,-464 930,-464 930,-464 924,-464 918,-458 918,-452 918,-452 918,-405 918,-405 918,-399 924,-393 930,-393 930,-393 1056.25,-393 1056.25,-393 1062.25,-393 1068.25,-399 1068.25,-405 1068.25,-405 1068.25,-452 1068.25,-452 1068.25,-458 1062.25,-464 1056.25,-464"/>
<text text-anchor="start" x="953" y="-446.7" font-family="Helvetica,sans-Serif" font-size="14.00">P4_8_2 ≤ 1.5</text>
<text text-anchor="start" x="926" y="-430.95" font-family="Helvetica,sans-Serif" font-size="14.00">squared_error = 6.063</text>
<text text-anchor="start" x="944.75" y="-415.2" font-family="Helvetica,sans-Serif" font-size="14.00">samples = 2349</text>
<text text-anchor="start" x="948.5" y="-399.45" font-family="Helvetica,sans-Serif" font-size="14.00">value = 13.003</text>
</g>
<!-- 0&#45;&gt;1 -->
<g id="edge1" class="edge">
<title>0&#45;&gt;1</title>
<path fill="none" stroke="black" d="M1253.72,-510.94C1202.04,-494.79 1133.36,-473.32 1079.48,-456.49"/>
<polygon fill="black" stroke="black" points="1080.6,-453.17 1070.01,-453.53 1078.51,-459.85 1080.6,-453.17"/>
<text text-anchor="middle" x="1080.17" y="-469.8" font-family="Helvetica,sans-Serif" font-size="14.00">True</text>
</g>
<!-- 308 -->
<g id="node33" class="node">
<title>308</title>
<path fill="#f4cbad" stroke="black" d="M1728.25,-464C1728.25,-464 1602,-464 1602,-464 1596,-464 1590,-458 1590,-452 1590,-452 1590,-405 1590,-405 1590,-399 1596,-393 1602,-393 1602,-393 1728.25,-393 1728.25,-393 1734.25,-393 1740.25,-399 1740.25,-405 1740.25,-405 1740.25,-452 1740.25,-452 1740.25,-458 1734.25,-464 1728.25,-464"/>
<text text-anchor="start" x="1625" y="-446.7" font-family="Helvetica,sans-Serif" font-size="14.00">P4_8_2 ≤ 1.5</text>
<text text-anchor="start" x="1598" y="-430.95" font-family="Helvetica,sans-Serif" font-size="14.00">squared_error = 5.587</text>
<text text-anchor="start" x="1616.75" y="-415.2" font-family="Helvetica,sans-Serif" font-size="14.00">samples = 2587</text>
<text text-anchor="start" x="1620.5" y="-399.45" font-family="Helvetica,sans-Serif" font-size="14.00">value = 10.598</text>
</g>
<!-- 0&#45;&gt;308 -->
<g id="edge32" class="edge">
<title>0&#45;&gt;308</title>
<path fill="none" stroke="black" d="M1404.53,-510.94C1456.21,-494.79 1524.89,-473.32 1578.77,-456.49"/>
<polygon fill="black" stroke="black" points="1579.74,-459.85 1588.24,-453.53 1577.65,-453.17 1579.74,-459.85"/>
<text text-anchor="middle" x="1578.08" y="-469.8" font-family="Helvetica,sans-Serif" font-size="14.00">False</text>
</g>
<!-- 2 -->
<g id="node3" class="node">
<title>2</title>
<path fill="#f2bf9a" stroke="black" d="M555.25,-357C555.25,-357 429,-357 429,-357 423,-357 417,-351 417,-345 417,-345 417,-298 417,-298 417,-292 423,-286 429,-286 429,-286 555.25,-286 555.25,-286 561.25,-286 567.25,-292 567.25,-298 567.25,-298 567.25,-345 567.25,-345 567.25,-351 561.25,-357 555.25,-357"/>
<text text-anchor="start" x="459.5" y="-339.7" font-family="Helvetica,sans-Serif" font-size="14.00">P4_1 ≤ 0.5</text>
<text text-anchor="start" x="425" y="-323.95" font-family="Helvetica,sans-Serif" font-size="14.00">squared_error = 4.636</text>
<text text-anchor="start" x="443.75" y="-308.2" font-family="Helvetica,sans-Serif" font-size="14.00">samples = 1082</text>
<text text-anchor="start" x="447.88" y="-292.45" font-family="Helvetica,sans-Serif" font-size="14.00">value = 11.799</text>
</g>
<!-- 1&#45;&gt;2 -->
<g id="edge2" class="edge">
<title>1&#45;&gt;2</title>
<path fill="none" stroke="black" d="M917.58,-411.67C826.6,-392.6 674.12,-360.64 578.54,-340.61"/>
<polygon fill="black" stroke="black" points="579.45,-337.23 568.95,-338.6 578.02,-344.08 579.45,-337.23"/>
</g>
<!-- 145 -->
<g id="node18" class="node">
<title>145</title>
<path fill="#eda977" stroke="black" d="M1056.25,-357C1056.25,-357 930,-357 930,-357 924,-357 918,-351 918,-345 918,-345 918,-298 918,-298 918,-292 924,-286 930,-286 930,-286 1056.25,-286 1056.25,-286 1062.25,-286 1068.25,-292 1068.25,-298 1068.25,-298 1068.25,-345 1068.25,-345 1068.25,-351 1062.25,-357 1056.25,-357"/>
<text text-anchor="start" x="960.5" y="-339.7" font-family="Helvetica,sans-Serif" font-size="14.00">P4_1 ≤ 0.5</text>
<text text-anchor="start" x="926" y="-323.95" font-family="Helvetica,sans-Serif" font-size="14.00">squared_error = 4.984</text>
<text text-anchor="start" x="944.75" y="-308.2" font-family="Helvetica,sans-Serif" font-size="14.00">samples = 1267</text>
<text text-anchor="start" x="948.5" y="-292.45" font-family="Helvetica,sans-Serif" font-size="14.00">value = 14.032</text>
</g>
<!-- 1&#45;&gt;145 -->
<g id="edge17" class="edge">
<title>1&#45;&gt;145</title>
<path fill="none" stroke="black" d="M993.12,-392.54C993.12,-384.92 993.12,-376.75 993.12,-368.77"/>
<polygon fill="black" stroke="black" points="996.63,-368.82 993.13,-358.82 989.63,-368.82 996.63,-368.82"/>
</g>
<!-- 3 -->
<g id="node4" class="node">
<title>3</title>
<path fill="#efb286" stroke="black" d="M306.25,-250C306.25,-250 180,-250 180,-250 174,-250 168,-244 168,-238 168,-238 168,-191 168,-191 168,-185 174,-179 180,-179 180,-179 306.25,-179 306.25,-179 312.25,-179 318.25,-185 318.25,-191 318.25,-191 318.25,-238 318.25,-238 318.25,-244 312.25,-250 306.25,-250"/>
<text text-anchor="start" x="206.75" y="-232.7" font-family="Helvetica,sans-Serif" font-size="14.00">P12_2 ≤ 1.5</text>
<text text-anchor="start" x="176" y="-216.95" font-family="Helvetica,sans-Serif" font-size="14.00">squared_error = 3.587</text>
<text text-anchor="start" x="198.5" y="-201.2" font-family="Helvetica,sans-Serif" font-size="14.00">samples = 336</text>
<text text-anchor="start" x="198.5" y="-185.45" font-family="Helvetica,sans-Serif" font-size="14.00">value = 13.105</text>
</g>
<!-- 2&#45;&gt;3 -->
<g id="edge3" class="edge">
<title>2&#45;&gt;3</title>
<path fill="none" stroke="black" d="M416.74,-288.71C389.08,-277.05 357.56,-263.76 329.04,-251.73"/>
<polygon fill="black" stroke="black" points="330.65,-248.61 320.08,-247.95 327.93,-255.06 330.65,-248.61"/>
</g>
<!-- 50 -->
<g id="node11" class="node">
<title>50</title>
<path fill="#f3c5a4" stroke="black" d="M555.25,-250C555.25,-250 429,-250 429,-250 423,-250 417,-244 417,-238 417,-238 417,-191 417,-191 417,-185 423,-179 429,-179 429,-179 555.25,-179 555.25,-179 561.25,-179 567.25,-185 567.25,-191 567.25,-191 567.25,-238 567.25,-238 567.25,-244 561.25,-250 555.25,-250"/>
<text text-anchor="start" x="452" y="-232.7" font-family="Helvetica,sans-Serif" font-size="14.00">P4_6_2 ≤ 1.5</text>
<text text-anchor="start" x="425" y="-216.95" font-family="Helvetica,sans-Serif" font-size="14.00">squared_error = 3.992</text>
<text text-anchor="start" x="447.5" y="-201.2" font-family="Helvetica,sans-Serif" font-size="14.00">samples = 746</text>
<text text-anchor="start" x="451.62" y="-185.45" font-family="Helvetica,sans-Serif" font-size="14.00">value = 11.21</text>
</g>
<!-- 2&#45;&gt;50 -->
<g id="edge10" class="edge">
<title>2&#45;&gt;50</title>
<path fill="none" stroke="black" d="M492.12,-285.54C492.12,-277.92 492.12,-269.75 492.12,-261.77"/>
<polygon fill="black" stroke="black" points="495.63,-261.82 492.13,-251.82 488.63,-261.82 495.63,-261.82"/>
</g>
<!-- 4 -->
<g id="node5" class="node">
<title>4</title>
<path fill="#f1bc96" stroke="black" d="M138.25,-143C138.25,-143 12,-143 12,-143 6,-143 0,-137 0,-131 0,-131 0,-84 0,-84 0,-78 6,-72 12,-72 12,-72 138.25,-72 138.25,-72 144.25,-72 150.25,-78 150.25,-84 150.25,-84 150.25,-131 150.25,-131 150.25,-137 144.25,-143 138.25,-143"/>
<text text-anchor="start" x="35" y="-125.7" font-family="Helvetica,sans-Serif" font-size="14.00">P4_6_3 ≤ 1.5</text>
<text text-anchor="start" x="8" y="-109.95" font-family="Helvetica,sans-Serif" font-size="14.00">squared_error = 2.735</text>
<text text-anchor="start" x="34.25" y="-94.2" font-family="Helvetica,sans-Serif" font-size="14.00">samples = 88</text>
<text text-anchor="start" x="30.5" y="-78.45" font-family="Helvetica,sans-Serif" font-size="14.00">value = 12.053</text>
</g>
<!-- 3&#45;&gt;4 -->
<g id="edge4" class="edge">
<title>3&#45;&gt;4</title>
<path fill="none" stroke="black" d="M187.18,-178.54C172.24,-169.2 155.97,-159.03 140.56,-149.4"/>
<polygon fill="black" stroke="black" points="142.73,-146.62 132.39,-144.29 139.02,-152.56 142.73,-146.62"/>
</g>
<!-- 17 -->
<g id="node8" class="node">
<title>17</title>
<path fill="#eeae80" stroke="black" d="M306.25,-143C306.25,-143 180,-143 180,-143 174,-143 168,-137 168,-131 168,-131 168,-84 168,-84 168,-78 174,-72 180,-72 180,-72 306.25,-72 306.25,-72 312.25,-72 318.25,-78 318.25,-84 318.25,-84 318.25,-131 318.25,-131 318.25,-137 312.25,-143 306.25,-143"/>
<text text-anchor="start" x="203" y="-125.7" font-family="Helvetica,sans-Serif" font-size="14.00">P4_7_2 ≤ 1.5</text>
<text text-anchor="start" x="176" y="-109.95" font-family="Helvetica,sans-Serif" font-size="14.00">squared_error = 3.358</text>
<text text-anchor="start" x="198.5" y="-94.2" font-family="Helvetica,sans-Serif" font-size="14.00">samples = 248</text>
<text text-anchor="start" x="198.5" y="-78.45" font-family="Helvetica,sans-Serif" font-size="14.00">value = 13.478</text>
</g>
<!-- 3&#45;&gt;17 -->
<g id="edge7" class="edge">
<title>3&#45;&gt;17</title>
<path fill="none" stroke="black" d="M243.12,-178.54C243.12,-170.92 243.12,-162.75 243.12,-154.77"/>
<polygon fill="black" stroke="black" points="246.63,-154.82 243.13,-144.82 239.63,-154.82 246.63,-154.82"/>
</g>
<!-- 5 -->
<g id="node6" class="node">
<title>5</title>
<path fill="#c0c0c0" stroke="black" d="M54.12,-36C54.12,-36 24.12,-36 24.12,-36 18.12,-36 12.12,-30 12.12,-24 12.12,-24 12.12,-12 12.12,-12 12.12,-6 18.12,0 24.12,0 24.12,0 54.12,0 54.12,0 60.12,0 66.12,-6 66.12,-12 66.12,-12 66.12,-24 66.12,-24 66.12,-30 60.12,-36 54.12,-36"/>
<text text-anchor="middle" x="39.12" y="-12.57" font-family="Helvetica,sans-Serif" font-size="14.00">(...)</text>
</g>
<!-- 4&#45;&gt;5 -->
<g id="edge5" class="edge">
<title>4&#45;&gt;5</title>
<path fill="none" stroke="black" d="M60.79,-71.67C57.38,-63.37 53.79,-54.63 50.53,-46.71"/>
<polygon fill="black" stroke="black" points="53.81,-45.5 46.77,-37.58 47.34,-48.16 53.81,-45.5"/>
</g>
<!-- 6 -->
<g id="node7" class="node">
<title>6</title>
<path fill="#c0c0c0" stroke="black" d="M126.12,-36C126.12,-36 96.12,-36 96.12,-36 90.12,-36 84.12,-30 84.12,-24 84.12,-24 84.12,-12 84.12,-12 84.12,-6 90.12,0 96.12,0 96.12,0 126.12,0 126.12,0 132.12,0 138.12,-6 138.12,-12 138.12,-12 138.12,-24 138.12,-24 138.12,-30 132.12,-36 126.12,-36"/>
<text text-anchor="middle" x="111.12" y="-12.57" font-family="Helvetica,sans-Serif" font-size="14.00">(...)</text>
</g>
<!-- 4&#45;&gt;6 -->
<g id="edge6" class="edge">
<title>4&#45;&gt;6</title>
<path fill="none" stroke="black" d="M89.46,-71.67C92.87,-63.37 96.46,-54.63 99.72,-46.71"/>
<polygon fill="black" stroke="black" points="102.91,-48.16 103.48,-37.58 96.44,-45.5 102.91,-48.16"/>
</g>
<!-- 18 -->
<g id="node9" class="node">
<title>18</title>
<path fill="#c0c0c0" stroke="black" d="M228.12,-36C228.12,-36 198.12,-36 198.12,-36 192.12,-36 186.12,-30 186.12,-24 186.12,-24 186.12,-12 186.12,-12 186.12,-6 192.12,0 198.12,0 198.12,0 228.12,0 228.12,0 234.12,0 240.12,-6 240.12,-12 240.12,-12 240.12,-24 240.12,-24 240.12,-30 234.12,-36 228.12,-36"/>
<text text-anchor="middle" x="213.12" y="-12.57" font-family="Helvetica,sans-Serif" font-size="14.00">(...)</text>
</g>
<!-- 17&#45;&gt;18 -->
<g id="edge8" class="edge">
<title>17&#45;&gt;18</title>
<path fill="none" stroke="black" d="M231.18,-71.67C228.37,-63.47 225.41,-54.84 222.72,-46.98"/>
<polygon fill="black" stroke="black" points="226.06,-45.94 219.51,-37.61 219.44,-48.21 226.06,-45.94"/>
</g>
<!-- 45 -->
<g id="node10" class="node">
<title>45</title>
<path fill="#c0c0c0" stroke="black" d="M300.12,-36C300.12,-36 270.12,-36 270.12,-36 264.12,-36 258.12,-30 258.12,-24 258.12,-24 258.12,-12 258.12,-12 258.12,-6 264.12,0 270.12,0 270.12,0 300.12,0 300.12,0 306.12,0 312.12,-6 312.12,-12 312.12,-12 312.12,-24 312.12,-24 312.12,-30 306.12,-36 300.12,-36"/>
<text text-anchor="middle" x="285.12" y="-12.57" font-family="Helvetica,sans-Serif" font-size="14.00">(...)</text>
</g>
<!-- 17&#45;&gt;45 -->
<g id="edge9" class="edge">
<title>17&#45;&gt;45</title>
<path fill="none" stroke="black" d="M259.85,-71.67C263.87,-63.28 268.12,-54.43 271.95,-46.44"/>
<polygon fill="black" stroke="black" points="275.05,-48.08 276.22,-37.55 268.74,-45.05 275.05,-48.08"/>
</g>
<!-- 51 -->
<g id="node12" class="node">
<title>51</title>
<path fill="#f2c19d" stroke="black" d="M467.5,-143C467.5,-143 348.75,-143 348.75,-143 342.75,-143 336.75,-137 336.75,-131 336.75,-131 336.75,-84 336.75,-84 336.75,-78 342.75,-72 348.75,-72 348.75,-72 467.5,-72 467.5,-72 473.5,-72 479.5,-78 479.5,-84 479.5,-84 479.5,-131 479.5,-131 479.5,-137 473.5,-143 467.5,-143"/>
<text text-anchor="start" x="368" y="-125.7" font-family="Helvetica,sans-Serif" font-size="14.00">P4_7_3 ≤ 1.5</text>
<text text-anchor="start" x="344.75" y="-109.95" font-family="Helvetica,sans-Serif" font-size="14.00">squared_error = 3.23</text>
<text text-anchor="start" x="363.5" y="-94.2" font-family="Helvetica,sans-Serif" font-size="14.00">samples = 578</text>
<text text-anchor="start" x="363.88" y="-78.45" font-family="Helvetica,sans-Serif" font-size="14.00">value = 11.636</text>
</g>
<!-- 50&#45;&gt;51 -->
<g id="edge11" class="edge">
<title>50&#45;&gt;51</title>
<path fill="none" stroke="black" d="M464.15,-178.54C457.42,-170.12 450.15,-161.03 443.14,-152.27"/>
<polygon fill="black" stroke="black" points="445.9,-150.11 436.92,-144.49 440.43,-154.49 445.9,-150.11"/>
</g>
<!-- 122 -->
<g id="node15" class="node">
<title>122</title>
<path fill="#f6d4bb" stroke="black" d="M636.25,-143C636.25,-143 510,-143 510,-143 504,-143 498,-137 498,-131 498,-131 498,-84 498,-84 498,-78 504,-72 510,-72 510,-72 636.25,-72 636.25,-72 642.25,-72 648.25,-78 648.25,-84 648.25,-84 648.25,-131 648.25,-131 648.25,-137 642.25,-143 636.25,-143"/>
<text text-anchor="start" x="533" y="-125.7" font-family="Helvetica,sans-Serif" font-size="14.00">P4_6_1 ≤ 1.5</text>
<text text-anchor="start" x="506" y="-109.95" font-family="Helvetica,sans-Serif" font-size="14.00">squared_error = 3.841</text>
<text text-anchor="start" x="528.5" y="-94.2" font-family="Helvetica,sans-Serif" font-size="14.00">samples = 168</text>
<text text-anchor="start" x="532.25" y="-78.45" font-family="Helvetica,sans-Serif" font-size="14.00">value = 9.744</text>
</g>
<!-- 50&#45;&gt;122 -->
<g id="edge14" class="edge">
<title>50&#45;&gt;122</title>
<path fill="none" stroke="black" d="M519.1,-178.54C525.59,-170.12 532.6,-161.03 539.36,-152.27"/>
<polygon fill="black" stroke="black" points="542.01,-154.56 545.35,-144.51 536.47,-150.29 542.01,-154.56"/>
</g>
<!-- 52 -->
<g id="node13" class="node">
<title>52</title>
<path fill="#c0c0c0" stroke="black" d="M398.12,-36C398.12,-36 368.12,-36 368.12,-36 362.12,-36 356.12,-30 356.12,-24 356.12,-24 356.12,-12 356.12,-12 356.12,-6 362.12,0 368.12,0 368.12,0 398.12,0 398.12,0 404.12,0 410.12,-6 410.12,-12 410.12,-12 410.12,-24 410.12,-24 410.12,-30 404.12,-36 398.12,-36"/>
<text text-anchor="middle" x="383.12" y="-12.57" font-family="Helvetica,sans-Serif" font-size="14.00">(...)</text>
</g>
<!-- 51&#45;&gt;52 -->
<g id="edge12" class="edge">
<title>51&#45;&gt;52</title>
<path fill="none" stroke="black" d="M398.17,-71.67C395.83,-63.47 393.36,-54.84 391.12,-46.98"/>
<polygon fill="black" stroke="black" points="394.56,-46.29 388.45,-37.64 387.83,-48.21 394.56,-46.29"/>
</g>
<!-- 95 -->
<g id="node14" class="node">
<title>95</title>
<path fill="#c0c0c0" stroke="black" d="M470.12,-36C470.12,-36 440.12,-36 440.12,-36 434.12,-36 428.12,-30 428.12,-24 428.12,-24 428.12,-12 428.12,-12 428.12,-6 434.12,0 440.12,0 440.12,0 470.12,0 470.12,0 476.12,0 482.12,-6 482.12,-12 482.12,-12 482.12,-24 482.12,-24 482.12,-30 476.12,-36 470.12,-36"/>
<text text-anchor="middle" x="455.12" y="-12.57" font-family="Helvetica,sans-Serif" font-size="14.00">(...)</text>
</g>
<!-- 51&#45;&gt;95 -->
<g id="edge13" class="edge">
<title>51&#45;&gt;95</title>
<path fill="none" stroke="black" d="M426.84,-71.67C431.39,-63.18 436.2,-54.23 440.53,-46.17"/>
<polygon fill="black" stroke="black" points="443.53,-47.98 445.18,-37.52 437.36,-44.67 443.53,-47.98"/>
</g>
<!-- 123 -->
<g id="node16" class="node">
<title>123</title>
<path fill="#c0c0c0" stroke="black" d="M578.12,-36C578.12,-36 548.12,-36 548.12,-36 542.12,-36 536.12,-30 536.12,-24 536.12,-24 536.12,-12 536.12,-12 536.12,-6 542.12,0 548.12,0 548.12,0 578.12,0 578.12,0 584.12,0 590.12,-6 590.12,-12 590.12,-12 590.12,-24 590.12,-24 590.12,-30 584.12,-36 578.12,-36"/>
<text text-anchor="middle" x="563.12" y="-12.57" font-family="Helvetica,sans-Serif" font-size="14.00">(...)</text>
</g>
<!-- 122&#45;&gt;123 -->
<g id="edge15" class="edge">
<title>122&#45;&gt;123</title>
<path fill="none" stroke="black" d="M569.14,-71.67C568.23,-63.66 567.27,-55.24 566.39,-47.53"/>
<polygon fill="black" stroke="black" points="569.87,-47.22 565.26,-37.69 562.92,-48.02 569.87,-47.22"/>
</g>
<!-- 136 -->
<g id="node17" class="node">
<title>136</title>
<path fill="#c0c0c0" stroke="black" d="M650.12,-36C650.12,-36 620.12,-36 620.12,-36 614.12,-36 608.12,-30 608.12,-24 608.12,-24 608.12,-12 608.12,-12 608.12,-6 614.12,0 620.12,0 620.12,0 650.12,0 650.12,0 656.12,0 662.12,-6 662.12,-12 662.12,-12 662.12,-24 662.12,-24 662.12,-30 656.12,-36 650.12,-36"/>
<text text-anchor="middle" x="635.12" y="-12.57" font-family="Helvetica,sans-Serif" font-size="14.00">(...)</text>
</g>
<!-- 122&#45;&gt;136 -->
<g id="edge16" class="edge">
<title>122&#45;&gt;136</title>
<path fill="none" stroke="black" d="M597.81,-71.67C604.02,-62.9 610.59,-53.63 616.45,-45.35"/>
<polygon fill="black" stroke="black" points="619.15,-47.6 622.07,-37.42 613.44,-43.55 619.15,-47.6"/>
</g>
<!-- 146 -->
<g id="node19" class="node">
<title>146</title>
<path fill="#eb9e67" stroke="black" d="M972.25,-250C972.25,-250 846,-250 846,-250 840,-250 834,-244 834,-238 834,-238 834,-191 834,-191 834,-185 840,-179 846,-179 846,-179 972.25,-179 972.25,-179 978.25,-179 984.25,-185 984.25,-191 984.25,-191 984.25,-238 984.25,-238 984.25,-244 978.25,-250 972.25,-250"/>
<text text-anchor="start" x="869" y="-232.7" font-family="Helvetica,sans-Serif" font-size="14.00">P4_7_3 ≤ 1.5</text>
<text text-anchor="start" x="842" y="-216.95" font-family="Helvetica,sans-Serif" font-size="14.00">squared_error = 4.029</text>
<text text-anchor="start" x="864.5" y="-201.2" font-family="Helvetica,sans-Serif" font-size="14.00">samples = 540</text>
<text text-anchor="start" x="864.5" y="-185.45" font-family="Helvetica,sans-Serif" font-size="14.00">value = 15.086</text>
</g>
<!-- 145&#45;&gt;146 -->
<g id="edge18" class="edge">
<title>145&#45;&gt;146</title>
<path fill="none" stroke="black" d="M965.15,-285.54C958.42,-277.12 951.15,-268.03 944.14,-259.27"/>
<polygon fill="black" stroke="black" points="946.9,-257.11 937.92,-251.49 941.43,-261.49 946.9,-257.11"/>
</g>
<!-- 215 -->
<g id="node26" class="node">
<title>215</title>
<path fill="#efb184" stroke="black" d="M1140.25,-250C1140.25,-250 1014,-250 1014,-250 1008,-250 1002,-244 1002,-238 1002,-238 1002,-191 1002,-191 1002,-185 1008,-179 1014,-179 1014,-179 1140.25,-179 1140.25,-179 1146.25,-179 1152.25,-185 1152.25,-191 1152.25,-191 1152.25,-238 1152.25,-238 1152.25,-244 1146.25,-250 1140.25,-250"/>
<text text-anchor="start" x="1037" y="-232.7" font-family="Helvetica,sans-Serif" font-size="14.00">P4_8_1 ≤ 2.5</text>
<text text-anchor="start" x="1010" y="-216.95" font-family="Helvetica,sans-Serif" font-size="14.00">squared_error = 4.255</text>
<text text-anchor="start" x="1032.5" y="-201.2" font-family="Helvetica,sans-Serif" font-size="14.00">samples = 727</text>
<text text-anchor="start" x="1032.5" y="-185.45" font-family="Helvetica,sans-Serif" font-size="14.00">value = 13.249</text>
</g>
<!-- 145&#45;&gt;215 -->
<g id="edge25" class="edge">
<title>145&#45;&gt;215</title>
<path fill="none" stroke="black" d="M1021.1,-285.54C1027.83,-277.12 1035.1,-268.03 1042.11,-259.27"/>
<polygon fill="black" stroke="black" points="1044.82,-261.49 1048.33,-251.49 1039.35,-257.11 1044.82,-261.49"/>
</g>
<!-- 147 -->
<g id="node20" class="node">
<title>147</title>
<path fill="#ea9a60" stroke="black" d="M804.25,-143C804.25,-143 678,-143 678,-143 672,-143 666,-137 666,-131 666,-131 666,-84 666,-84 666,-78 672,-72 678,-72 678,-72 804.25,-72 804.25,-72 810.25,-72 816.25,-78 816.25,-84 816.25,-84 816.25,-131 816.25,-131 816.25,-137 810.25,-143 804.25,-143"/>
<text text-anchor="start" x="701" y="-125.7" font-family="Helvetica,sans-Serif" font-size="14.00">P4_8_1 ≤ 2.5</text>
<text text-anchor="start" x="674" y="-109.95" font-family="Helvetica,sans-Serif" font-size="14.00">squared_error = 3.374</text>
<text text-anchor="start" x="696.5" y="-94.2" font-family="Helvetica,sans-Serif" font-size="14.00">samples = 418</text>
<text text-anchor="start" x="696.5" y="-78.45" font-family="Helvetica,sans-Serif" font-size="14.00">value = 15.529</text>
</g>
<!-- 146&#45;&gt;147 -->
<g id="edge19" class="edge">
<title>146&#45;&gt;147</title>
<path fill="none" stroke="black" d="M853.18,-178.54C838.24,-169.2 821.97,-159.03 806.56,-149.4"/>
<polygon fill="black" stroke="black" points="808.73,-146.62 798.39,-144.29 805.02,-152.56 808.73,-146.62"/>
</g>
<!-- 196 -->
<g id="node23" class="node">
<title>196</title>
<path fill="#eead7f" stroke="black" d="M972.25,-143C972.25,-143 846,-143 846,-143 840,-143 834,-137 834,-131 834,-131 834,-84 834,-84 834,-78 840,-72 846,-72 846,-72 972.25,-72 972.25,-72 978.25,-72 984.25,-78 984.25,-84 984.25,-84 984.25,-131 984.25,-131 984.25,-137 978.25,-143 972.25,-143"/>
<text text-anchor="start" x="869" y="-125.7" font-family="Helvetica,sans-Serif" font-size="14.00">P4_6_4 ≤ 1.5</text>
<text text-anchor="start" x="842" y="-109.95" font-family="Helvetica,sans-Serif" font-size="14.00">squared_error = 3.307</text>
<text text-anchor="start" x="864.5" y="-94.2" font-family="Helvetica,sans-Serif" font-size="14.00">samples = 122</text>
<text text-anchor="start" x="864.5" y="-78.45" font-family="Helvetica,sans-Serif" font-size="14.00">value = 13.571</text>
</g>
<!-- 146&#45;&gt;196 -->
<g id="edge22" class="edge">
<title>146&#45;&gt;196</title>
<path fill="none" stroke="black" d="M909.12,-178.54C909.12,-170.92 909.12,-162.75 909.12,-154.77"/>
<polygon fill="black" stroke="black" points="912.63,-154.82 909.13,-144.82 905.63,-154.82 912.63,-154.82"/>
</g>
<!-- 148 -->
<g id="node21" class="node">
<title>148</title>
<path fill="#c0c0c0" stroke="black" d="M727.12,-36C727.12,-36 697.12,-36 697.12,-36 691.12,-36 685.12,-30 685.12,-24 685.12,-24 685.12,-12 685.12,-12 685.12,-6 691.12,0 697.12,0 697.12,0 727.12,0 727.12,0 733.12,0 739.12,-6 739.12,-12 739.12,-12 739.12,-24 739.12,-24 739.12,-30 733.12,-36 727.12,-36"/>
<text text-anchor="middle" x="712.12" y="-12.57" font-family="Helvetica,sans-Serif" font-size="14.00">(...)</text>
</g>
<!-- 147&#45;&gt;148 -->
<g id="edge20" class="edge">
<title>147&#45;&gt;148</title>
<path fill="none" stroke="black" d="M729.58,-71.67C726.86,-63.47 724,-54.84 721.4,-46.98"/>
<polygon fill="black" stroke="black" points="724.76,-46.01 718.3,-37.62 718.12,-48.21 724.76,-46.01"/>
</g>
<!-- 171 -->
<g id="node22" class="node">
<title>171</title>
<path fill="#c0c0c0" stroke="black" d="M799.12,-36C799.12,-36 769.12,-36 769.12,-36 763.12,-36 757.12,-30 757.12,-24 757.12,-24 757.12,-12 757.12,-12 757.12,-6 763.12,0 769.12,0 769.12,0 799.12,0 799.12,0 805.12,0 811.12,-6 811.12,-12 811.12,-12 811.12,-24 811.12,-24 811.12,-30 805.12,-36 799.12,-36"/>
<text text-anchor="middle" x="784.12" y="-12.57" font-family="Helvetica,sans-Serif" font-size="14.00">(...)</text>
</g>
<!-- 147&#45;&gt;171 -->
<g id="edge21" class="edge">
<title>147&#45;&gt;171</title>
<path fill="none" stroke="black" d="M758.24,-71.67C762.37,-63.28 766.71,-54.43 770.64,-46.44"/>
<polygon fill="black" stroke="black" points="773.74,-48.06 775.01,-37.54 767.46,-44.97 773.74,-48.06"/>
</g>
<!-- 197 -->
<g id="node24" class="node">
<title>197</title>
<path fill="#c0c0c0" stroke="black" d="M886.12,-36C886.12,-36 856.12,-36 856.12,-36 850.12,-36 844.12,-30 844.12,-24 844.12,-24 844.12,-12 844.12,-12 844.12,-6 850.12,0 856.12,0 856.12,0 886.12,0 886.12,0 892.12,0 898.12,-6 898.12,-12 898.12,-12 898.12,-24 898.12,-24 898.12,-30 892.12,-36 886.12,-36"/>
<text text-anchor="middle" x="871.12" y="-12.57" font-family="Helvetica,sans-Serif" font-size="14.00">(...)</text>
</g>
<!-- 196&#45;&gt;197 -->
<g id="edge23" class="edge">
<title>196&#45;&gt;197</title>
<path fill="none" stroke="black" d="M894,-71.67C890.4,-63.37 886.6,-54.63 883.16,-46.71"/>
<polygon fill="black" stroke="black" points="886.38,-45.35 879.19,-37.57 879.96,-48.14 886.38,-45.35"/>
</g>
<!-- 208 -->
<g id="node25" class="node">
<title>208</title>
<path fill="#c0c0c0" stroke="black" d="M958.12,-36C958.12,-36 928.12,-36 928.12,-36 922.12,-36 916.12,-30 916.12,-24 916.12,-24 916.12,-12 916.12,-12 916.12,-6 922.12,0 928.12,0 928.12,0 958.12,0 958.12,0 964.12,0 970.12,-6 970.12,-12 970.12,-12 970.12,-24 970.12,-24 970.12,-30 964.12,-36 958.12,-36"/>
<text text-anchor="middle" x="943.12" y="-12.57" font-family="Helvetica,sans-Serif" font-size="14.00">(...)</text>
</g>
<!-- 196&#45;&gt;208 -->
<g id="edge24" class="edge">
<title>196&#45;&gt;208</title>
<path fill="none" stroke="black" d="M922.66,-71.67C925.88,-63.37 929.28,-54.63 932.36,-46.71"/>
<polygon fill="black" stroke="black" points="935.54,-48.18 935.9,-37.59 929.02,-45.65 935.54,-48.18"/>
</g>
<!-- 216 -->
<g id="node27" class="node">
<title>216</title>
<path fill="#f0b890" stroke="black" d="M1140.25,-143C1140.25,-143 1014,-143 1014,-143 1008,-143 1002,-137 1002,-131 1002,-131 1002,-84 1002,-84 1002,-78 1008,-72 1014,-72 1014,-72 1140.25,-72 1140.25,-72 1146.25,-72 1152.25,-78 1152.25,-84 1152.25,-84 1152.25,-131 1152.25,-131 1152.25,-137 1146.25,-143 1140.25,-143"/>
<text text-anchor="start" x="1037" y="-125.7" font-family="Helvetica,sans-Serif" font-size="14.00">P4_6_1 ≤ 1.5</text>
<text text-anchor="start" x="1010" y="-109.95" font-family="Helvetica,sans-Serif" font-size="14.00">squared_error = 3.914</text>
<text text-anchor="start" x="1032.5" y="-94.2" font-family="Helvetica,sans-Serif" font-size="14.00">samples = 387</text>
<text text-anchor="start" x="1032.5" y="-78.45" font-family="Helvetica,sans-Serif" font-size="14.00">value = 12.463</text>
</g>
<!-- 215&#45;&gt;216 -->
<g id="edge26" class="edge">
<title>215&#45;&gt;216</title>
<path fill="none" stroke="black" d="M1077.12,-178.54C1077.12,-170.92 1077.12,-162.75 1077.12,-154.77"/>
<polygon fill="black" stroke="black" points="1080.63,-154.82 1077.13,-144.82 1073.63,-154.82 1080.63,-154.82"/>
</g>
<!-- 267 -->
<g id="node30" class="node">
<title>267</title>
<path fill="#eda876" stroke="black" d="M1308.25,-143C1308.25,-143 1182,-143 1182,-143 1176,-143 1170,-137 1170,-131 1170,-131 1170,-84 1170,-84 1170,-78 1176,-72 1182,-72 1182,-72 1308.25,-72 1308.25,-72 1314.25,-72 1320.25,-78 1320.25,-84 1320.25,-84 1320.25,-131 1320.25,-131 1320.25,-137 1314.25,-143 1308.25,-143"/>
<text text-anchor="start" x="1205" y="-125.7" font-family="Helvetica,sans-Serif" font-size="14.00">P4_7_3 ≤ 1.5</text>
<text text-anchor="start" x="1178" y="-109.95" font-family="Helvetica,sans-Serif" font-size="14.00">squared_error = 3.136</text>
<text text-anchor="start" x="1200.5" y="-94.2" font-family="Helvetica,sans-Serif" font-size="14.00">samples = 340</text>
<text text-anchor="start" x="1200.5" y="-78.45" font-family="Helvetica,sans-Serif" font-size="14.00">value = 14.144</text>
</g>
<!-- 215&#45;&gt;267 -->
<g id="edge29" class="edge">
<title>215&#45;&gt;267</title>
<path fill="none" stroke="black" d="M1133.07,-178.54C1148.01,-169.2 1164.28,-159.03 1179.69,-149.4"/>
<polygon fill="black" stroke="black" points="1181.23,-152.56 1187.86,-144.29 1177.52,-146.62 1181.23,-152.56"/>
</g>
<!-- 217 -->
<g id="node28" class="node">
<title>217</title>
<path fill="#c0c0c0" stroke="black" d="M1032.12,-36C1032.12,-36 1002.12,-36 1002.12,-36 996.12,-36 990.12,-30 990.12,-24 990.12,-24 990.12,-12 990.12,-12 990.12,-6 996.12,0 1002.12,0 1002.12,0 1032.12,0 1032.12,0 1038.12,0 1044.12,-6 1044.12,-12 1044.12,-12 1044.12,-24 1044.12,-24 1044.12,-30 1038.12,-36 1032.12,-36"/>
<text text-anchor="middle" x="1017.12" y="-12.57" font-family="Helvetica,sans-Serif" font-size="14.00">(...)</text>
</g>
<!-- 216&#45;&gt;217 -->
<g id="edge27" class="edge">
<title>216&#45;&gt;217</title>
<path fill="none" stroke="black" d="M1053.24,-71.67C1047.29,-62.99 1041.01,-53.83 1035.38,-45.62"/>
<polygon fill="black" stroke="black" points="1038.31,-43.7 1029.76,-37.43 1032.53,-47.66 1038.31,-43.7"/>
</g>
<!-- 256 -->
<g id="node29" class="node">
<title>256</title>
<path fill="#c0c0c0" stroke="black" d="M1104.12,-36C1104.12,-36 1074.12,-36 1074.12,-36 1068.12,-36 1062.12,-30 1062.12,-24 1062.12,-24 1062.12,-12 1062.12,-12 1062.12,-6 1068.12,0 1074.12,0 1074.12,0 1104.12,0 1104.12,0 1110.12,0 1116.12,-6 1116.12,-12 1116.12,-12 1116.12,-24 1116.12,-24 1116.12,-30 1110.12,-36 1104.12,-36"/>
<text text-anchor="middle" x="1089.12" y="-12.57" font-family="Helvetica,sans-Serif" font-size="14.00">(...)</text>
</g>
<!-- 216&#45;&gt;256 -->
<g id="edge28" class="edge">
<title>216&#45;&gt;256</title>
<path fill="none" stroke="black" d="M1081.9,-71.67C1083,-63.66 1084.16,-55.24 1085.21,-47.53"/>
<polygon fill="black" stroke="black" points="1088.67,-48.07 1086.56,-37.68 1081.74,-47.11 1088.67,-48.07"/>
</g>
<!-- 268 -->
<g id="node31" class="node">
<title>268</title>
<path fill="#c0c0c0" stroke="black" d="M1200.12,-36C1200.12,-36 1170.12,-36 1170.12,-36 1164.12,-36 1158.12,-30 1158.12,-24 1158.12,-24 1158.12,-12 1158.12,-12 1158.12,-6 1164.12,0 1170.12,0 1170.12,0 1200.12,0 1200.12,0 1206.12,0 1212.12,-6 1212.12,-12 1212.12,-12 1212.12,-24 1212.12,-24 1212.12,-30 1206.12,-36 1200.12,-36"/>
<text text-anchor="middle" x="1185.12" y="-12.57" font-family="Helvetica,sans-Serif" font-size="14.00">(...)</text>
</g>
<!-- 267&#45;&gt;268 -->
<g id="edge30" class="edge">
<title>267&#45;&gt;268</title>
<path fill="none" stroke="black" d="M1221.24,-71.67C1215.29,-62.99 1209.01,-53.83 1203.38,-45.62"/>
<polygon fill="black" stroke="black" points="1206.31,-43.7 1197.76,-37.43 1200.53,-47.66 1206.31,-43.7"/>
</g>
<!-- 291 -->
<g id="node32" class="node">
<title>291</title>
<path fill="#c0c0c0" stroke="black" d="M1272.12,-36C1272.12,-36 1242.12,-36 1242.12,-36 1236.12,-36 1230.12,-30 1230.12,-24 1230.12,-24 1230.12,-12 1230.12,-12 1230.12,-6 1236.12,0 1242.12,0 1242.12,0 1272.12,0 1272.12,0 1278.12,0 1284.12,-6 1284.12,-12 1284.12,-12 1284.12,-24 1284.12,-24 1284.12,-30 1278.12,-36 1272.12,-36"/>
<text text-anchor="middle" x="1257.12" y="-12.57" font-family="Helvetica,sans-Serif" font-size="14.00">(...)</text>
</g>
<!-- 267&#45;&gt;291 -->
<g id="edge31" class="edge">
<title>267&#45;&gt;291</title>
<path fill="none" stroke="black" d="M1249.9,-71.67C1251,-63.66 1252.16,-55.24 1253.21,-47.53"/>
<polygon fill="black" stroke="black" points="1256.67,-48.07 1254.56,-37.68 1249.74,-47.11 1256.67,-48.07"/>
</g>
<!-- 309 -->
<g id="node34" class="node">
<title>309</title>
<path fill="#f6d3bb" stroke="black" d="M1728.25,-357C1728.25,-357 1602,-357 1602,-357 1596,-357 1590,-351 1590,-345 1590,-345 1590,-298 1590,-298 1590,-292 1596,-286 1602,-286 1602,-286 1728.25,-286 1728.25,-286 1734.25,-286 1740.25,-292 1740.25,-298 1740.25,-298 1740.25,-345 1740.25,-345 1740.25,-351 1734.25,-357 1728.25,-357"/>
<text text-anchor="start" x="1625" y="-339.7" font-family="Helvetica,sans-Serif" font-size="14.00">P4_6_4 ≤ 1.5</text>
<text text-anchor="start" x="1598" y="-323.95" font-family="Helvetica,sans-Serif" font-size="14.00">squared_error = 4.327</text>
<text text-anchor="start" x="1616.75" y="-308.2" font-family="Helvetica,sans-Serif" font-size="14.00">samples = 1294</text>
<text text-anchor="start" x="1628" y="-292.45" font-family="Helvetica,sans-Serif" font-size="14.00">value = 9.75</text>
</g>
<!-- 308&#45;&gt;309 -->
<g id="edge33" class="edge">
<title>308&#45;&gt;309</title>
<path fill="none" stroke="black" d="M1665.12,-392.54C1665.12,-384.92 1665.12,-376.75 1665.12,-368.77"/>
<polygon fill="black" stroke="black" points="1668.63,-368.82 1665.13,-358.82 1661.63,-368.82 1668.63,-368.82"/>
</g>
<!-- 476 -->
<g id="node49" class="node">
<title>476</title>
<path fill="#f3c3a0" stroke="black" d="M2226.25,-357C2226.25,-357 2100,-357 2100,-357 2094,-357 2088,-351 2088,-345 2088,-345 2088,-298 2088,-298 2088,-292 2094,-286 2100,-286 2100,-286 2226.25,-286 2226.25,-286 2232.25,-286 2238.25,-292 2238.25,-298 2238.25,-298 2238.25,-345 2238.25,-345 2238.25,-351 2232.25,-357 2226.25,-357"/>
<text text-anchor="start" x="2123" y="-339.7" font-family="Helvetica,sans-Serif" font-size="14.00">P4_6_2 ≤ 1.5</text>
<text text-anchor="start" x="2096" y="-323.95" font-family="Helvetica,sans-Serif" font-size="14.00">squared_error = 5.406</text>
<text text-anchor="start" x="2114.75" y="-308.2" font-family="Helvetica,sans-Serif" font-size="14.00">samples = 1293</text>
<text text-anchor="start" x="2118.88" y="-292.45" font-family="Helvetica,sans-Serif" font-size="14.00">value = 11.448</text>
</g>
<!-- 308&#45;&gt;476 -->
<g id="edge48" class="edge">
<title>308&#45;&gt;476</title>
<path fill="none" stroke="black" d="M1740.49,-411.61C1830.73,-392.58 1981.54,-360.79 2076.5,-340.76"/>
<polygon fill="black" stroke="black" points="2076.96,-344.24 2086.03,-338.76 2075.52,-337.39 2076.96,-344.24"/>
</g>
<!-- 310 -->
<g id="node35" class="node">
<title>310</title>
<path fill="#f4c8a9" stroke="black" d="M1644.25,-250C1644.25,-250 1518,-250 1518,-250 1512,-250 1506,-244 1506,-238 1506,-238 1506,-191 1506,-191 1506,-185 1512,-179 1518,-179 1518,-179 1644.25,-179 1644.25,-179 1650.25,-179 1656.25,-185 1656.25,-191 1656.25,-191 1656.25,-238 1656.25,-238 1656.25,-244 1650.25,-250 1644.25,-250"/>
<text text-anchor="start" x="1541" y="-232.7" font-family="Helvetica,sans-Serif" font-size="14.00">P4_7_3 ≤ 1.5</text>
<text text-anchor="start" x="1514" y="-216.95" font-family="Helvetica,sans-Serif" font-size="14.00">squared_error = 4.088</text>
<text text-anchor="start" x="1536.5" y="-201.2" font-family="Helvetica,sans-Serif" font-size="14.00">samples = 415</text>
<text text-anchor="start" x="1536.5" y="-185.45" font-family="Helvetica,sans-Serif" font-size="14.00">value = 10.851</text>
</g>
<!-- 309&#45;&gt;310 -->
<g id="edge34" class="edge">
<title>309&#45;&gt;310</title>
<path fill="none" stroke="black" d="M1637.15,-285.54C1630.42,-277.12 1623.15,-268.03 1616.14,-259.27"/>
<polygon fill="black" stroke="black" points="1618.9,-257.11 1609.92,-251.49 1613.43,-261.49 1618.9,-257.11"/>
</g>
<!-- 369 -->
<g id="node42" class="node">
<title>369</title>
<path fill="#f7d9c3" stroke="black" d="M1812.25,-250C1812.25,-250 1686,-250 1686,-250 1680,-250 1674,-244 1674,-238 1674,-238 1674,-191 1674,-191 1674,-185 1680,-179 1686,-179 1686,-179 1812.25,-179 1812.25,-179 1818.25,-179 1824.25,-185 1824.25,-191 1824.25,-191 1824.25,-238 1824.25,-238 1824.25,-244 1818.25,-250 1812.25,-250"/>
<text text-anchor="start" x="1709" y="-232.7" font-family="Helvetica,sans-Serif" font-size="14.00">P4_6_1 ≤ 1.5</text>
<text text-anchor="start" x="1682" y="-216.95" font-family="Helvetica,sans-Serif" font-size="14.00">squared_error = 3.598</text>
<text text-anchor="start" x="1704.5" y="-201.2" font-family="Helvetica,sans-Serif" font-size="14.00">samples = 879</text>
<text text-anchor="start" x="1712" y="-185.45" font-family="Helvetica,sans-Serif" font-size="14.00">value = 9.23</text>
</g>
<!-- 309&#45;&gt;369 -->
<g id="edge41" class="edge">
<title>309&#45;&gt;369</title>
<path fill="none" stroke="black" d="M1693.1,-285.54C1699.83,-277.12 1707.1,-268.03 1714.11,-259.27"/>
<polygon fill="black" stroke="black" points="1716.82,-261.49 1720.33,-251.49 1711.35,-257.11 1716.82,-261.49"/>
</g>
<!-- 311 -->
<g id="node36" class="node">
<title>311</title>
<path fill="#f3c3a1" stroke="black" d="M1476.25,-143C1476.25,-143 1350,-143 1350,-143 1344,-143 1338,-137 1338,-131 1338,-131 1338,-84 1338,-84 1338,-78 1344,-72 1350,-72 1350,-72 1476.25,-72 1476.25,-72 1482.25,-72 1488.25,-78 1488.25,-84 1488.25,-84 1488.25,-131 1488.25,-131 1488.25,-137 1482.25,-143 1476.25,-143"/>
<text text-anchor="start" x="1373" y="-125.7" font-family="Helvetica,sans-Serif" font-size="14.00">P4_6_2 ≤ 1.5</text>
<text text-anchor="start" x="1346" y="-109.95" font-family="Helvetica,sans-Serif" font-size="14.00">squared_error = 3.229</text>
<text text-anchor="start" x="1368.5" y="-94.2" font-family="Helvetica,sans-Serif" font-size="14.00">samples = 287</text>
<text text-anchor="start" x="1368.88" y="-78.45" font-family="Helvetica,sans-Serif" font-size="14.00">value = 11.367</text>
</g>
<!-- 310&#45;&gt;311 -->
<g id="edge35" class="edge">
<title>310&#45;&gt;311</title>
<path fill="none" stroke="black" d="M1525.18,-178.54C1510.24,-169.2 1493.97,-159.03 1478.56,-149.4"/>
<polygon fill="black" stroke="black" points="1480.73,-146.62 1470.39,-144.29 1477.02,-152.56 1480.73,-146.62"/>
</g>
<!-- 352 -->
<g id="node39" class="node">
<title>352</title>
<path fill="#f6d4bc" stroke="black" d="M1644.25,-143C1644.25,-143 1518,-143 1518,-143 1512,-143 1506,-137 1506,-131 1506,-131 1506,-84 1506,-84 1506,-78 1512,-72 1518,-72 1518,-72 1644.25,-72 1644.25,-72 1650.25,-72 1656.25,-78 1656.25,-84 1656.25,-84 1656.25,-131 1656.25,-131 1656.25,-137 1650.25,-143 1644.25,-143"/>
<text text-anchor="start" x="1541" y="-125.7" font-family="Helvetica,sans-Serif" font-size="14.00">P4_7_1 ≤ 1.5</text>
<text text-anchor="start" x="1514" y="-109.95" font-family="Helvetica,sans-Serif" font-size="14.00">squared_error = 4.076</text>
<text text-anchor="start" x="1536.5" y="-94.2" font-family="Helvetica,sans-Serif" font-size="14.00">samples = 128</text>
<text text-anchor="start" x="1540.25" y="-78.45" font-family="Helvetica,sans-Serif" font-size="14.00">value = 9.693</text>
</g>
<!-- 310&#45;&gt;352 -->
<g id="edge38" class="edge">
<title>310&#45;&gt;352</title>
<path fill="none" stroke="black" d="M1581.12,-178.54C1581.12,-170.92 1581.12,-162.75 1581.12,-154.77"/>
<polygon fill="black" stroke="black" points="1584.63,-154.82 1581.13,-144.82 1577.63,-154.82 1584.63,-154.82"/>
</g>
<!-- 312 -->
<g id="node37" class="node">
<title>312</title>
<path fill="#c0c0c0" stroke="black" d="M1368.12,-36C1368.12,-36 1338.12,-36 1338.12,-36 1332.12,-36 1326.12,-30 1326.12,-24 1326.12,-24 1326.12,-12 1326.12,-12 1326.12,-6 1332.12,0 1338.12,0 1338.12,0 1368.12,0 1368.12,0 1374.12,0 1380.12,-6 1380.12,-12 1380.12,-12 1380.12,-24 1380.12,-24 1380.12,-30 1374.12,-36 1368.12,-36"/>
<text text-anchor="middle" x="1353.12" y="-12.57" font-family="Helvetica,sans-Serif" font-size="14.00">(...)</text>
</g>
<!-- 311&#45;&gt;312 -->
<g id="edge36" class="edge">
<title>311&#45;&gt;312</title>
<path fill="none" stroke="black" d="M1389.24,-71.67C1383.29,-62.99 1377.01,-53.83 1371.38,-45.62"/>
<polygon fill="black" stroke="black" points="1374.31,-43.7 1365.76,-37.43 1368.53,-47.66 1374.31,-43.7"/>
</g>
<!-- 339 -->
<g id="node38" class="node">
<title>339</title>
<path fill="#c0c0c0" stroke="black" d="M1440.12,-36C1440.12,-36 1410.12,-36 1410.12,-36 1404.12,-36 1398.12,-30 1398.12,-24 1398.12,-24 1398.12,-12 1398.12,-12 1398.12,-6 1404.12,0 1410.12,0 1410.12,0 1440.12,0 1440.12,0 1446.12,0 1452.12,-6 1452.12,-12 1452.12,-12 1452.12,-24 1452.12,-24 1452.12,-30 1446.12,-36 1440.12,-36"/>
<text text-anchor="middle" x="1425.12" y="-12.57" font-family="Helvetica,sans-Serif" font-size="14.00">(...)</text>
</g>
<!-- 311&#45;&gt;339 -->
<g id="edge37" class="edge">
<title>311&#45;&gt;339</title>
<path fill="none" stroke="black" d="M1417.9,-71.67C1419,-63.66 1420.16,-55.24 1421.21,-47.53"/>
<polygon fill="black" stroke="black" points="1424.67,-48.07 1422.56,-37.68 1417.74,-47.11 1424.67,-48.07"/>
</g>
<!-- 353 -->
<g id="node40" class="node">
<title>353</title>
<path fill="#c0c0c0" stroke="black" d="M1536.12,-36C1536.12,-36 1506.12,-36 1506.12,-36 1500.12,-36 1494.12,-30 1494.12,-24 1494.12,-24 1494.12,-12 1494.12,-12 1494.12,-6 1500.12,0 1506.12,0 1506.12,0 1536.12,0 1536.12,0 1542.12,0 1548.12,-6 1548.12,-12 1548.12,-12 1548.12,-24 1548.12,-24 1548.12,-30 1542.12,-36 1536.12,-36"/>
<text text-anchor="middle" x="1521.12" y="-12.57" font-family="Helvetica,sans-Serif" font-size="14.00">(...)</text>
</g>
<!-- 352&#45;&gt;353 -->
<g id="edge39" class="edge">
<title>352&#45;&gt;353</title>
<path fill="none" stroke="black" d="M1557.24,-71.67C1551.29,-62.99 1545.01,-53.83 1539.38,-45.62"/>
<polygon fill="black" stroke="black" points="1542.31,-43.7 1533.76,-37.43 1536.53,-47.66 1542.31,-43.7"/>
</g>
<!-- 368 -->
<g id="node41" class="node">
<title>368</title>
<path fill="#c0c0c0" stroke="black" d="M1608.12,-36C1608.12,-36 1578.12,-36 1578.12,-36 1572.12,-36 1566.12,-30 1566.12,-24 1566.12,-24 1566.12,-12 1566.12,-12 1566.12,-6 1572.12,0 1578.12,0 1578.12,0 1608.12,0 1608.12,0 1614.12,0 1620.12,-6 1620.12,-12 1620.12,-12 1620.12,-24 1620.12,-24 1620.12,-30 1614.12,-36 1608.12,-36"/>
<text text-anchor="middle" x="1593.12" y="-12.57" font-family="Helvetica,sans-Serif" font-size="14.00">(...)</text>
</g>
<!-- 352&#45;&gt;368 -->
<g id="edge40" class="edge">
<title>352&#45;&gt;368</title>
<path fill="none" stroke="black" d="M1585.9,-71.67C1587,-63.66 1588.16,-55.24 1589.21,-47.53"/>
<polygon fill="black" stroke="black" points="1592.67,-48.07 1590.56,-37.68 1585.74,-47.11 1592.67,-48.07"/>
</g>
<!-- 370 -->
<g id="node43" class="node">
<title>370</title>
<path fill="#f6d3ba" stroke="black" d="M1812.25,-143C1812.25,-143 1686,-143 1686,-143 1680,-143 1674,-137 1674,-131 1674,-131 1674,-84 1674,-84 1674,-78 1680,-72 1686,-72 1686,-72 1812.25,-72 1812.25,-72 1818.25,-72 1824.25,-78 1824.25,-84 1824.25,-84 1824.25,-131 1824.25,-131 1824.25,-137 1818.25,-143 1812.25,-143"/>
<text text-anchor="start" x="1709" y="-125.7" font-family="Helvetica,sans-Serif" font-size="14.00">P5_1_6 ≤ 0.5</text>
<text text-anchor="start" x="1682" y="-109.95" font-family="Helvetica,sans-Serif" font-size="14.00">squared_error = 3.065</text>
<text text-anchor="start" x="1704.5" y="-94.2" font-family="Helvetica,sans-Serif" font-size="14.00">samples = 507</text>
<text text-anchor="start" x="1708.25" y="-78.45" font-family="Helvetica,sans-Serif" font-size="14.00">value = 9.818</text>
</g>
<!-- 369&#45;&gt;370 -->
<g id="edge42" class="edge">
<title>369&#45;&gt;370</title>
<path fill="none" stroke="black" d="M1749.12,-178.54C1749.12,-170.92 1749.12,-162.75 1749.12,-154.77"/>
<polygon fill="black" stroke="black" points="1752.63,-154.82 1749.13,-144.82 1745.63,-154.82 1752.63,-154.82"/>
</g>
<!-- 425 -->
<g id="node46" class="node">
<title>425</title>
<path fill="#f9e1cf" stroke="black" d="M1973.5,-143C1973.5,-143 1854.75,-143 1854.75,-143 1848.75,-143 1842.75,-137 1842.75,-131 1842.75,-131 1842.75,-84 1842.75,-84 1842.75,-78 1848.75,-72 1854.75,-72 1854.75,-72 1973.5,-72 1973.5,-72 1979.5,-72 1985.5,-78 1985.5,-84 1985.5,-84 1985.5,-131 1985.5,-131 1985.5,-137 1979.5,-143 1973.5,-143"/>
<text text-anchor="start" x="1874" y="-125.7" font-family="Helvetica,sans-Serif" font-size="14.00">P4_7_3 ≤ 1.5</text>
<text text-anchor="start" x="1850.75" y="-109.95" font-family="Helvetica,sans-Serif" font-size="14.00">squared_error = 3.21</text>
<text text-anchor="start" x="1869.5" y="-94.2" font-family="Helvetica,sans-Serif" font-size="14.00">samples = 372</text>
<text text-anchor="start" x="1873.25" y="-78.45" font-family="Helvetica,sans-Serif" font-size="14.00">value = 8.428</text>
</g>
<!-- 369&#45;&gt;425 -->
<g id="edge45" class="edge">
<title>369&#45;&gt;425</title>
<path fill="none" stroke="black" d="M1804.07,-178.54C1818.74,-169.2 1834.73,-159.03 1849.85,-149.4"/>
<polygon fill="black" stroke="black" points="1851.31,-152.62 1857.86,-144.3 1847.55,-146.72 1851.31,-152.62"/>
</g>
<!-- 371 -->
<g id="node44" class="node">
<title>371</title>
<path fill="#c0c0c0" stroke="black" d="M1702.12,-36C1702.12,-36 1672.12,-36 1672.12,-36 1666.12,-36 1660.12,-30 1660.12,-24 1660.12,-24 1660.12,-12 1660.12,-12 1660.12,-6 1666.12,0 1672.12,0 1672.12,0 1702.12,0 1702.12,0 1708.12,0 1714.12,-6 1714.12,-12 1714.12,-12 1714.12,-24 1714.12,-24 1714.12,-30 1708.12,-36 1702.12,-36"/>
<text text-anchor="middle" x="1687.12" y="-12.57" font-family="Helvetica,sans-Serif" font-size="14.00">(...)</text>
</g>
<!-- 370&#45;&gt;371 -->
<g id="edge43" class="edge">
<title>370&#45;&gt;371</title>
<path fill="none" stroke="black" d="M1724.44,-71.67C1718.23,-62.9 1711.66,-53.63 1705.8,-45.35"/>
<polygon fill="black" stroke="black" points="1708.81,-43.55 1700.18,-37.42 1703.1,-47.6 1708.81,-43.55"/>
</g>
<!-- 392 -->
<g id="node45" class="node">
<title>392</title>
<path fill="#c0c0c0" stroke="black" d="M1774.12,-36C1774.12,-36 1744.12,-36 1744.12,-36 1738.12,-36 1732.12,-30 1732.12,-24 1732.12,-24 1732.12,-12 1732.12,-12 1732.12,-6 1738.12,0 1744.12,0 1744.12,0 1774.12,0 1774.12,0 1780.12,0 1786.12,-6 1786.12,-12 1786.12,-12 1786.12,-24 1786.12,-24 1786.12,-30 1780.12,-36 1774.12,-36"/>
<text text-anchor="middle" x="1759.12" y="-12.57" font-family="Helvetica,sans-Serif" font-size="14.00">(...)</text>
</g>
<!-- 370&#45;&gt;392 -->
<g id="edge44" class="edge">
<title>370&#45;&gt;392</title>
<path fill="none" stroke="black" d="M1753.11,-71.67C1754.02,-63.66 1754.98,-55.24 1755.86,-47.53"/>
<polygon fill="black" stroke="black" points="1759.33,-48.02 1756.99,-37.69 1752.38,-47.22 1759.33,-48.02"/>
</g>
<!-- 426 -->
<g id="node47" class="node">
<title>426</title>
<path fill="#c0c0c0" stroke="black" d="M1867.12,-36C1867.12,-36 1837.12,-36 1837.12,-36 1831.12,-36 1825.12,-30 1825.12,-24 1825.12,-24 1825.12,-12 1825.12,-12 1825.12,-6 1831.12,0 1837.12,0 1837.12,0 1867.12,0 1867.12,0 1873.12,0 1879.12,-6 1879.12,-12 1879.12,-12 1879.12,-24 1879.12,-24 1879.12,-30 1873.12,-36 1867.12,-36"/>
<text text-anchor="middle" x="1852.12" y="-12.57" font-family="Helvetica,sans-Serif" font-size="14.00">(...)</text>
</g>
<!-- 425&#45;&gt;426 -->
<g id="edge46" class="edge">
<title>425&#45;&gt;426</title>
<path fill="none" stroke="black" d="M1889.44,-71.67C1883.23,-62.9 1876.66,-53.63 1870.8,-45.35"/>
<polygon fill="black" stroke="black" points="1873.81,-43.55 1865.18,-37.42 1868.1,-47.6 1873.81,-43.55"/>
</g>
<!-- 455 -->
<g id="node48" class="node">
<title>455</title>
<path fill="#c0c0c0" stroke="black" d="M1939.12,-36C1939.12,-36 1909.12,-36 1909.12,-36 1903.12,-36 1897.12,-30 1897.12,-24 1897.12,-24 1897.12,-12 1897.12,-12 1897.12,-6 1903.12,0 1909.12,0 1909.12,0 1939.12,0 1939.12,0 1945.12,0 1951.12,-6 1951.12,-12 1951.12,-12 1951.12,-24 1951.12,-24 1951.12,-30 1945.12,-36 1939.12,-36"/>
<text text-anchor="middle" x="1924.12" y="-12.57" font-family="Helvetica,sans-Serif" font-size="14.00">(...)</text>
</g>
<!-- 425&#45;&gt;455 -->
<g id="edge47" class="edge">
<title>425&#45;&gt;455</title>
<path fill="none" stroke="black" d="M1918.11,-71.67C1919.02,-63.66 1919.98,-55.24 1920.86,-47.53"/>
<polygon fill="black" stroke="black" points="1924.33,-48.02 1921.99,-37.69 1917.38,-47.22 1924.33,-48.02"/>
</g>
<!-- 477 -->
<g id="node50" class="node">
<title>477</title>
<path fill="#f1bc96" stroke="black" d="M2226.25,-250C2226.25,-250 2100,-250 2100,-250 2094,-250 2088,-244 2088,-238 2088,-238 2088,-191 2088,-191 2088,-185 2094,-179 2100,-179 2100,-179 2226.25,-179 2226.25,-179 2232.25,-179 2238.25,-185 2238.25,-191 2238.25,-191 2238.25,-238 2238.25,-238 2238.25,-244 2232.25,-250 2226.25,-250"/>
<text text-anchor="start" x="2123" y="-232.7" font-family="Helvetica,sans-Serif" font-size="14.00">P4_7_3 ≤ 1.5</text>
<text text-anchor="start" x="2096" y="-216.95" font-family="Helvetica,sans-Serif" font-size="14.00">squared_error = 4.501</text>
<text text-anchor="start" x="2118.5" y="-201.2" font-family="Helvetica,sans-Serif" font-size="14.00">samples = 858</text>
<text text-anchor="start" x="2119.25" y="-185.45" font-family="Helvetica,sans-Serif" font-size="14.00">value = 12.111</text>
</g>
<!-- 476&#45;&gt;477 -->
<g id="edge49" class="edge">
<title>476&#45;&gt;477</title>
<path fill="none" stroke="black" d="M2163.12,-285.54C2163.12,-277.92 2163.12,-269.75 2163.12,-261.77"/>
<polygon fill="black" stroke="black" points="2166.63,-261.82 2163.13,-251.82 2159.63,-261.82 2166.63,-261.82"/>
</g>
<!-- 586 -->
<g id="node57" class="node">
<title>586</title>
<path fill="#f5d0b5" stroke="black" d="M2474.5,-250C2474.5,-250 2355.75,-250 2355.75,-250 2349.75,-250 2343.75,-244 2343.75,-238 2343.75,-238 2343.75,-191 2343.75,-191 2343.75,-185 2349.75,-179 2355.75,-179 2355.75,-179 2474.5,-179 2474.5,-179 2480.5,-179 2486.5,-185 2486.5,-191 2486.5,-191 2486.5,-238 2486.5,-238 2486.5,-244 2480.5,-250 2474.5,-250"/>
<text text-anchor="start" x="2375" y="-232.7" font-family="Helvetica,sans-Serif" font-size="14.00">P4_7_2 ≤ 1.5</text>
<text text-anchor="start" x="2351.75" y="-216.95" font-family="Helvetica,sans-Serif" font-size="14.00">squared_error = 4.61</text>
<text text-anchor="start" x="2370.5" y="-201.2" font-family="Helvetica,sans-Serif" font-size="14.00">samples = 435</text>
<text text-anchor="start" x="2370.5" y="-185.45" font-family="Helvetica,sans-Serif" font-size="14.00">value = 10.139</text>
</g>
<!-- 476&#45;&gt;586 -->
<g id="edge56" class="edge">
<title>476&#45;&gt;586</title>
<path fill="none" stroke="black" d="M2238.73,-289C2268.43,-276.62 2302.6,-262.38 2332.91,-249.76"/>
<polygon fill="black" stroke="black" points="2334.18,-253.02 2342.06,-245.94 2331.48,-246.56 2334.18,-253.02"/>
</g>
<!-- 478 -->
<g id="node51" class="node">
<title>478</title>
<path fill="#f0b78e" stroke="black" d="M2142.25,-143C2142.25,-143 2016,-143 2016,-143 2010,-143 2004,-137 2004,-131 2004,-131 2004,-84 2004,-84 2004,-78 2010,-72 2016,-72 2016,-72 2142.25,-72 2142.25,-72 2148.25,-72 2154.25,-78 2154.25,-84 2154.25,-84 2154.25,-131 2154.25,-131 2154.25,-137 2148.25,-143 2142.25,-143"/>
<text text-anchor="start" x="2039" y="-125.7" font-family="Helvetica,sans-Serif" font-size="14.00">P4_8_1 ≤ 2.5</text>
<text text-anchor="start" x="2012" y="-109.95" font-family="Helvetica,sans-Serif" font-size="14.00">squared_error = 3.464</text>
<text text-anchor="start" x="2034.5" y="-94.2" font-family="Helvetica,sans-Serif" font-size="14.00">samples = 601</text>
<text text-anchor="start" x="2034.5" y="-78.45" font-family="Helvetica,sans-Serif" font-size="14.00">value = 12.622</text>
</g>
<!-- 477&#45;&gt;478 -->
<g id="edge50" class="edge">
<title>477&#45;&gt;478</title>
<path fill="none" stroke="black" d="M2135.15,-178.54C2128.42,-170.12 2121.15,-161.03 2114.14,-152.27"/>
<polygon fill="black" stroke="black" points="2116.9,-150.11 2107.92,-144.49 2111.43,-154.49 2116.9,-150.11"/>
</g>
<!-- 549 -->
<g id="node54" class="node">
<title>549</title>
<path fill="#f4c8a8" stroke="black" d="M2310.25,-143C2310.25,-143 2184,-143 2184,-143 2178,-143 2172,-137 2172,-131 2172,-131 2172,-84 2172,-84 2172,-78 2178,-72 2184,-72 2184,-72 2310.25,-72 2310.25,-72 2316.25,-72 2322.25,-78 2322.25,-84 2322.25,-84 2322.25,-131 2322.25,-131 2322.25,-137 2316.25,-143 2310.25,-143"/>
<text text-anchor="start" x="2207" y="-125.7" font-family="Helvetica,sans-Serif" font-size="14.00">P4_7_2 ≤ 1.5</text>
<text text-anchor="start" x="2180" y="-109.95" font-family="Helvetica,sans-Serif" font-size="14.00">squared_error = 4.886</text>
<text text-anchor="start" x="2202.5" y="-94.2" font-family="Helvetica,sans-Serif" font-size="14.00">samples = 257</text>
<text text-anchor="start" x="2202.5" y="-78.45" font-family="Helvetica,sans-Serif" font-size="14.00">value = 10.916</text>
</g>
<!-- 477&#45;&gt;549 -->
<g id="edge53" class="edge">
<title>477&#45;&gt;549</title>
<path fill="none" stroke="black" d="M2191.1,-178.54C2197.83,-170.12 2205.1,-161.03 2212.11,-152.27"/>
<polygon fill="black" stroke="black" points="2214.82,-154.49 2218.33,-144.49 2209.35,-150.11 2214.82,-154.49"/>
</g>
<!-- 479 -->
<g id="node52" class="node">
<title>479</title>
<path fill="#c0c0c0" stroke="black" d="M2034.12,-36C2034.12,-36 2004.12,-36 2004.12,-36 1998.12,-36 1992.12,-30 1992.12,-24 1992.12,-24 1992.12,-12 1992.12,-12 1992.12,-6 1998.12,0 2004.12,0 2004.12,0 2034.12,0 2034.12,0 2040.12,0 2046.12,-6 2046.12,-12 2046.12,-12 2046.12,-24 2046.12,-24 2046.12,-30 2040.12,-36 2034.12,-36"/>
<text text-anchor="middle" x="2019.12" y="-12.57" font-family="Helvetica,sans-Serif" font-size="14.00">(...)</text>
</g>
<!-- 478&#45;&gt;479 -->
<g id="edge51" class="edge">
<title>478&#45;&gt;479</title>
<path fill="none" stroke="black" d="M2055.24,-71.67C2049.29,-62.99 2043.01,-53.83 2037.38,-45.62"/>
<polygon fill="black" stroke="black" points="2040.31,-43.7 2031.76,-37.43 2034.53,-47.66 2040.31,-43.7"/>
</g>
<!-- 518 -->
<g id="node53" class="node">
<title>518</title>
<path fill="#c0c0c0" stroke="black" d="M2106.12,-36C2106.12,-36 2076.12,-36 2076.12,-36 2070.12,-36 2064.12,-30 2064.12,-24 2064.12,-24 2064.12,-12 2064.12,-12 2064.12,-6 2070.12,0 2076.12,0 2076.12,0 2106.12,0 2106.12,0 2112.12,0 2118.12,-6 2118.12,-12 2118.12,-12 2118.12,-24 2118.12,-24 2118.12,-30 2112.12,-36 2106.12,-36"/>
<text text-anchor="middle" x="2091.12" y="-12.57" font-family="Helvetica,sans-Serif" font-size="14.00">(...)</text>
</g>
<!-- 478&#45;&gt;518 -->
<g id="edge52" class="edge">
<title>478&#45;&gt;518</title>
<path fill="none" stroke="black" d="M2083.9,-71.67C2085,-63.66 2086.16,-55.24 2087.21,-47.53"/>
<polygon fill="black" stroke="black" points="2090.67,-48.07 2088.56,-37.68 2083.74,-47.11 2090.67,-48.07"/>
</g>
<!-- 550 -->
<g id="node55" class="node">
<title>550</title>
<path fill="#c0c0c0" stroke="black" d="M2202.12,-36C2202.12,-36 2172.12,-36 2172.12,-36 2166.12,-36 2160.12,-30 2160.12,-24 2160.12,-24 2160.12,-12 2160.12,-12 2160.12,-6 2166.12,0 2172.12,0 2172.12,0 2202.12,0 2202.12,0 2208.12,0 2214.12,-6 2214.12,-12 2214.12,-12 2214.12,-24 2214.12,-24 2214.12,-30 2208.12,-36 2202.12,-36"/>
<text text-anchor="middle" x="2187.12" y="-12.57" font-family="Helvetica,sans-Serif" font-size="14.00">(...)</text>
</g>
<!-- 549&#45;&gt;550 -->
<g id="edge54" class="edge">
<title>549&#45;&gt;550</title>
<path fill="none" stroke="black" d="M2223.24,-71.67C2217.29,-62.99 2211.01,-53.83 2205.38,-45.62"/>
<polygon fill="black" stroke="black" points="2208.31,-43.7 2199.76,-37.43 2202.53,-47.66 2208.31,-43.7"/>
</g>
<!-- 575 -->
<g id="node56" class="node">
<title>575</title>
<path fill="#c0c0c0" stroke="black" d="M2274.12,-36C2274.12,-36 2244.12,-36 2244.12,-36 2238.12,-36 2232.12,-30 2232.12,-24 2232.12,-24 2232.12,-12 2232.12,-12 2232.12,-6 2238.12,0 2244.12,0 2244.12,0 2274.12,0 2274.12,0 2280.12,0 2286.12,-6 2286.12,-12 2286.12,-12 2286.12,-24 2286.12,-24 2286.12,-30 2280.12,-36 2274.12,-36"/>
<text text-anchor="middle" x="2259.12" y="-12.57" font-family="Helvetica,sans-Serif" font-size="14.00">(...)</text>
</g>
<!-- 549&#45;&gt;575 -->
<g id="edge55" class="edge">
<title>549&#45;&gt;575</title>
<path fill="none" stroke="black" d="M2251.9,-71.67C2253,-63.66 2254.16,-55.24 2255.21,-47.53"/>
<polygon fill="black" stroke="black" points="2258.67,-48.07 2256.56,-37.68 2251.74,-47.11 2258.67,-48.07"/>
</g>
<!-- 587 -->
<g id="node58" class="node">
<title>587</title>
<path fill="#f4c9aa" stroke="black" d="M2478.25,-143C2478.25,-143 2352,-143 2352,-143 2346,-143 2340,-137 2340,-131 2340,-131 2340,-84 2340,-84 2340,-78 2346,-72 2352,-72 2352,-72 2478.25,-72 2478.25,-72 2484.25,-72 2490.25,-78 2490.25,-84 2490.25,-84 2490.25,-131 2490.25,-131 2490.25,-137 2484.25,-143 2478.25,-143"/>
<text text-anchor="start" x="2375" y="-125.7" font-family="Helvetica,sans-Serif" font-size="14.00">P4_8_1 ≤ 2.5</text>
<text text-anchor="start" x="2348" y="-109.95" font-family="Helvetica,sans-Serif" font-size="14.00">squared_error = 3.403</text>
<text text-anchor="start" x="2370.5" y="-94.2" font-family="Helvetica,sans-Serif" font-size="14.00">samples = 312</text>
<text text-anchor="start" x="2370.5" y="-78.45" font-family="Helvetica,sans-Serif" font-size="14.00">value = 10.781</text>
</g>
<!-- 586&#45;&gt;587 -->
<g id="edge57" class="edge">
<title>586&#45;&gt;587</title>
<path fill="none" stroke="black" d="M2415.12,-178.54C2415.12,-170.92 2415.12,-162.75 2415.12,-154.77"/>
<polygon fill="black" stroke="black" points="2418.63,-154.82 2415.13,-144.82 2411.63,-154.82 2418.63,-154.82"/>
</g>
<!-- 632 -->
<g id="node61" class="node">
<title>632</title>
<path fill="#f9e0ce" stroke="black" d="M2646.25,-143C2646.25,-143 2520,-143 2520,-143 2514,-143 2508,-137 2508,-131 2508,-131 2508,-84 2508,-84 2508,-78 2514,-72 2520,-72 2520,-72 2646.25,-72 2646.25,-72 2652.25,-72 2658.25,-78 2658.25,-84 2658.25,-84 2658.25,-131 2658.25,-131 2658.25,-137 2652.25,-143 2646.25,-143"/>
<text text-anchor="start" x="2543" y="-125.7" font-family="Helvetica,sans-Serif" font-size="14.00">P4_7_3 ≤ 1.5</text>
<text text-anchor="start" x="2516" y="-109.95" font-family="Helvetica,sans-Serif" font-size="14.00">squared_error = 3.982</text>
<text text-anchor="start" x="2538.5" y="-94.2" font-family="Helvetica,sans-Serif" font-size="14.00">samples = 123</text>
<text text-anchor="start" x="2542.25" y="-78.45" font-family="Helvetica,sans-Serif" font-size="14.00">value = 8.512</text>
</g>
<!-- 586&#45;&gt;632 -->
<g id="edge60" class="edge">
<title>586&#45;&gt;632</title>
<path fill="none" stroke="black" d="M2471.07,-178.54C2486.01,-169.2 2502.28,-159.03 2517.69,-149.4"/>
<polygon fill="black" stroke="black" points="2519.23,-152.56 2525.86,-144.29 2515.52,-146.62 2519.23,-152.56"/>
</g>
<!-- 588 -->
<g id="node59" class="node">
<title>588</title>
<path fill="#c0c0c0" stroke="black" d="M2388.12,-36C2388.12,-36 2358.12,-36 2358.12,-36 2352.12,-36 2346.12,-30 2346.12,-24 2346.12,-24 2346.12,-12 2346.12,-12 2346.12,-6 2352.12,0 2358.12,0 2358.12,0 2388.12,0 2388.12,0 2394.12,0 2400.12,-6 2400.12,-12 2400.12,-12 2400.12,-24 2400.12,-24 2400.12,-30 2394.12,-36 2388.12,-36"/>
<text text-anchor="middle" x="2373.12" y="-12.57" font-family="Helvetica,sans-Serif" font-size="14.00">(...)</text>
</g>
<!-- 587&#45;&gt;588 -->
<g id="edge58" class="edge">
<title>587&#45;&gt;588</title>
<path fill="none" stroke="black" d="M2398.4,-71.67C2394.38,-63.28 2390.13,-54.43 2386.3,-46.44"/>
<polygon fill="black" stroke="black" points="2389.51,-45.05 2382.03,-37.55 2383.2,-48.08 2389.51,-45.05"/>
</g>
<!-- 615 -->
<g id="node60" class="node">
<title>615</title>
<path fill="#c0c0c0" stroke="black" d="M2460.12,-36C2460.12,-36 2430.12,-36 2430.12,-36 2424.12,-36 2418.12,-30 2418.12,-24 2418.12,-24 2418.12,-12 2418.12,-12 2418.12,-6 2424.12,0 2430.12,0 2430.12,0 2460.12,0 2460.12,0 2466.12,0 2472.12,-6 2472.12,-12 2472.12,-12 2472.12,-24 2472.12,-24 2472.12,-30 2466.12,-36 2460.12,-36"/>
<text text-anchor="middle" x="2445.12" y="-12.57" font-family="Helvetica,sans-Serif" font-size="14.00">(...)</text>
</g>
<!-- 587&#45;&gt;615 -->
<g id="edge59" class="edge">
<title>587&#45;&gt;615</title>
<path fill="none" stroke="black" d="M2427.07,-71.67C2429.88,-63.47 2432.84,-54.84 2435.53,-46.98"/>
<polygon fill="black" stroke="black" points="2438.81,-48.21 2438.74,-37.61 2432.19,-45.94 2438.81,-48.21"/>
</g>
<!-- 633 -->
<g id="node62" class="node">
<title>633</title>
<path fill="#c0c0c0" stroke="black" d="M2562.12,-36C2562.12,-36 2532.12,-36 2532.12,-36 2526.12,-36 2520.12,-30 2520.12,-24 2520.12,-24 2520.12,-12 2520.12,-12 2520.12,-6 2526.12,0 2532.12,0 2532.12,0 2562.12,0 2562.12,0 2568.12,0 2574.12,-6 2574.12,-12 2574.12,-12 2574.12,-24 2574.12,-24 2574.12,-30 2568.12,-36 2562.12,-36"/>
<text text-anchor="middle" x="2547.12" y="-12.57" font-family="Helvetica,sans-Serif" font-size="14.00">(...)</text>
</g>
<!-- 632&#45;&gt;633 -->
<g id="edge61" class="edge">
<title>632&#45;&gt;633</title>
<path fill="none" stroke="black" d="M2568.79,-71.67C2565.38,-63.37 2561.79,-54.63 2558.53,-46.71"/>
<polygon fill="black" stroke="black" points="2561.81,-45.5 2554.77,-37.58 2555.34,-48.16 2561.81,-45.5"/>
</g>
<!-- 640 -->
<g id="node63" class="node">
<title>640</title>
<path fill="#c0c0c0" stroke="black" d="M2634.12,-36C2634.12,-36 2604.12,-36 2604.12,-36 2598.12,-36 2592.12,-30 2592.12,-24 2592.12,-24 2592.12,-12 2592.12,-12 2592.12,-6 2598.12,0 2604.12,0 2604.12,0 2634.12,0 2634.12,0 2640.12,0 2646.12,-6 2646.12,-12 2646.12,-12 2646.12,-24 2646.12,-24 2646.12,-30 2640.12,-36 2634.12,-36"/>
<text text-anchor="middle" x="2619.12" y="-12.57" font-family="Helvetica,sans-Serif" font-size="14.00">(...)</text>
</g>
<!-- 632&#45;&gt;640 -->
<g id="edge62" class="edge">
<title>632&#45;&gt;640</title>
<path fill="none" stroke="black" d="M2597.46,-71.67C2600.87,-63.37 2604.46,-54.63 2607.72,-46.71"/>
<polygon fill="black" stroke="black" points="2610.91,-48.16 2611.48,-37.58 2604.44,-45.5 2610.91,-48.16"/>
</g>
</g>
</svg>
