<?xml version="1.0" encoding="UTF-8" standalone="no"?>
<!DOCTYPE svg PUBLIC "-//W3C//DTD SVG 1.1//EN"
 "http://www.w3.org/Graphics/SVG/1.1/DTD/svg11.dtd">
<!-- Generated by graphviz version 12.2.1 (20241206.2353)
 -->
<!-- Title: Tree Pages: 1 -->
<svg width="2686pt" height="579pt"
 viewBox="0.00 0.00 2685.50 579.00" xmlns="http://www.w3.org/2000/svg" xmlns:xlink="http://www.w3.org/1999/xlink">
<g id="graph0" class="graph" transform="scale(1 1) rotate(0) translate(4 575)">
<title>Tree</title>
<polygon fill="white" stroke="none" points="-4,4 -4,-575 2681.5,-575 2681.5,4 -4,4"/>
<!-- 0 -->
<g id="node1" class="node">
<title>0</title>
<path fill="#f1bb94" stroke="black" d="M1410.75,-571C1410.75,-571 1289.75,-571 1289.75,-571 1283.75,-571 1277.75,-565 1277.75,-559 1277.75,-559 1277.75,-512 1277.75,-512 1277.75,-506 1283.75,-500 1289.75,-500 1289.75,-500 1410.75,-500 1410.75,-500 1416.75,-500 1422.75,-506 1422.75,-512 1422.75,-512 1422.75,-559 1422.75,-559 1422.75,-565 1416.75,-571 1410.75,-571"/>
<text text-anchor="start" x="1317.62" y="-553.7" font-family="Helvetica,sans-Serif" font-size="14.00">P4_1 ≤ 0.5</text>
<text text-anchor="start" x="1285.75" y="-537.95" font-family="Helvetica,sans-Serif" font-size="14.00">friedman_mse = 8.52</text>
<text text-anchor="start" x="1301.88" y="-522.2" font-family="Helvetica,sans-Serif" font-size="14.00">samples = 1877</text>
<text text-anchor="start" x="1305.62" y="-506.45" font-family="Helvetica,sans-Serif" font-size="14.00">value = 12.718</text>
</g>
<!-- 1 -->
<g id="node2" class="node">
<title>1</title>
<path fill="#edaa79" stroke="black" d="M1080.5,-464C1080.5,-464 952,-464 952,-464 946,-464 940,-458 940,-452 940,-452 940,-405 940,-405 940,-399 946,-393 952,-393 952,-393 1080.5,-393 1080.5,-393 1086.5,-393 1092.5,-399 1092.5,-405 1092.5,-405 1092.5,-452 1092.5,-452 1092.5,-458 1086.5,-464 1080.5,-464"/>
<text text-anchor="start" x="976.12" y="-446.7" font-family="Helvetica,sans-Serif" font-size="14.00">P4_6_3 ≤ 2.5</text>
<text text-anchor="start" x="948" y="-430.95" font-family="Helvetica,sans-Serif" font-size="14.00">friedman_mse = 6.412</text>
<text text-anchor="start" x="971.62" y="-415.2" font-family="Helvetica,sans-Serif" font-size="14.00">samples = 617</text>
<text text-anchor="start" x="971.62" y="-399.45" font-family="Helvetica,sans-Serif" font-size="14.00">value = 14.583</text>
</g>
<!-- 0&#45;&gt;1 -->
<g id="edge1" class="edge">
<title>0&#45;&gt;1</title>
<path fill="none" stroke="black" d="M1277.37,-511.59C1226.28,-495.53 1157.74,-473.98 1103.7,-456.99"/>
<polygon fill="black" stroke="black" points="1104.78,-453.66 1094.19,-454 1102.68,-460.34 1104.78,-453.66"/>
<text text-anchor="middle" x="1104.31" y="-470.29" font-family="Helvetica,sans-Serif" font-size="14.00">True</text>
</g>
<!-- 112 -->
<g id="node33" class="node">
<title>112</title>
<path fill="#f3c3a1" stroke="black" d="M1754.5,-464C1754.5,-464 1626,-464 1626,-464 1620,-464 1614,-458 1614,-452 1614,-452 1614,-405 1614,-405 1614,-399 1620,-393 1626,-393 1626,-393 1754.5,-393 1754.5,-393 1760.5,-393 1766.5,-399 1766.5,-405 1766.5,-405 1766.5,-452 1766.5,-452 1766.5,-458 1760.5,-464 1754.5,-464"/>
<text text-anchor="start" x="1650.12" y="-446.7" font-family="Helvetica,sans-Serif" font-size="14.00">P4_6_3 ≤ 2.5</text>
<text text-anchor="start" x="1622" y="-430.95" font-family="Helvetica,sans-Serif" font-size="14.00">friedman_mse = 7.014</text>
<text text-anchor="start" x="1641.88" y="-415.2" font-family="Helvetica,sans-Serif" font-size="14.00">samples = 1260</text>
<text text-anchor="start" x="1646" y="-399.45" font-family="Helvetica,sans-Serif" font-size="14.00">value = 11.804</text>
</g>
<!-- 0&#45;&gt;112 -->
<g id="edge32" class="edge">
<title>0&#45;&gt;112</title>
<path fill="none" stroke="black" d="M1423.19,-511.97C1475.78,-495.73 1547.01,-473.74 1602.68,-456.54"/>
<polygon fill="black" stroke="black" points="1603.63,-459.91 1612.15,-453.62 1601.56,-453.23 1603.63,-459.91"/>
<text text-anchor="middle" x="1601.92" y="-469.85" font-family="Helvetica,sans-Serif" font-size="14.00">False</text>
</g>
<!-- 2 -->
<g id="node3" class="node">
<title>2</title>
<path fill="#efb388" stroke="black" d="M568.5,-357C568.5,-357 440,-357 440,-357 434,-357 428,-351 428,-345 428,-345 428,-298 428,-298 428,-292 434,-286 440,-286 440,-286 568.5,-286 568.5,-286 574.5,-286 580.5,-292 580.5,-298 580.5,-298 580.5,-345 580.5,-345 580.5,-351 574.5,-357 568.5,-357"/>
<text text-anchor="start" x="464.12" y="-339.7" font-family="Helvetica,sans-Serif" font-size="14.00">P7_1_2 ≤ 2.5</text>
<text text-anchor="start" x="436" y="-323.95" font-family="Helvetica,sans-Serif" font-size="14.00">friedman_mse = 5.205</text>
<text text-anchor="start" x="459.62" y="-308.2" font-family="Helvetica,sans-Serif" font-size="14.00">samples = 381</text>
<text text-anchor="start" x="459.62" y="-292.45" font-family="Helvetica,sans-Serif" font-size="14.00">value = 13.555</text>
</g>
<!-- 1&#45;&gt;2 -->
<g id="edge2" class="edge">
<title>1&#45;&gt;2</title>
<path fill="none" stroke="black" d="M939.6,-411.78C846.39,-392.67 689.43,-360.48 591.63,-340.42"/>
<polygon fill="black" stroke="black" points="592.57,-337.04 582.07,-338.46 591.16,-343.9 592.57,-337.04"/>
</g>
<!-- 73 -->
<g id="node18" class="node">
<title>73</title>
<path fill="#ea9a61" stroke="black" d="M1080.5,-357C1080.5,-357 952,-357 952,-357 946,-357 940,-351 940,-345 940,-345 940,-298 940,-298 940,-292 946,-286 952,-286 952,-286 1080.5,-286 1080.5,-286 1086.5,-286 1092.5,-292 1092.5,-298 1092.5,-298 1092.5,-345 1092.5,-345 1092.5,-351 1086.5,-357 1080.5,-357"/>
<text text-anchor="start" x="976.12" y="-339.7" font-family="Helvetica,sans-Serif" font-size="14.00">P4_6_4 ≤ 1.5</text>
<text text-anchor="start" x="948" y="-323.95" font-family="Helvetica,sans-Serif" font-size="14.00">friedman_mse = 3.893</text>
<text text-anchor="start" x="971.62" y="-308.2" font-family="Helvetica,sans-Serif" font-size="14.00">samples = 236</text>
<text text-anchor="start" x="971.62" y="-292.45" font-family="Helvetica,sans-Serif" font-size="14.00">value = 16.244</text>
</g>
<!-- 1&#45;&gt;73 -->
<g id="edge17" class="edge">
<title>1&#45;&gt;73</title>
<path fill="none" stroke="black" d="M1016.25,-392.54C1016.25,-384.92 1016.25,-376.75 1016.25,-368.77"/>
<polygon fill="black" stroke="black" points="1019.75,-368.82 1016.25,-358.82 1012.75,-368.82 1019.75,-368.82"/>
</g>
<!-- 3 -->
<g id="node4" class="node">
<title>3</title>
<path fill="#eeab7a" stroke="black" d="M307.75,-250C307.75,-250 186.75,-250 186.75,-250 180.75,-250 174.75,-244 174.75,-238 174.75,-238 174.75,-191 174.75,-191 174.75,-185 180.75,-179 186.75,-179 186.75,-179 307.75,-179 307.75,-179 313.75,-179 319.75,-185 319.75,-191 319.75,-191 319.75,-238 319.75,-238 319.75,-244 313.75,-250 307.75,-250"/>
<text text-anchor="start" x="207.12" y="-232.7" font-family="Helvetica,sans-Serif" font-size="14.00">P4_6_4 ≤ 1.5</text>
<text text-anchor="start" x="182.75" y="-216.95" font-family="Helvetica,sans-Serif" font-size="14.00">friedman_mse = 3.75</text>
<text text-anchor="start" x="202.62" y="-201.2" font-family="Helvetica,sans-Serif" font-size="14.00">samples = 205</text>
<text text-anchor="start" x="202.62" y="-185.45" font-family="Helvetica,sans-Serif" font-size="14.00">value = 14.475</text>
</g>
<!-- 2&#45;&gt;3 -->
<g id="edge3" class="edge">
<title>2&#45;&gt;3</title>
<path fill="none" stroke="black" d="M427.84,-289.28C397.13,-276.73 361.64,-262.24 330.3,-249.43"/>
<polygon fill="black" stroke="black" points="331.82,-246.27 321.24,-245.73 329.18,-252.75 331.82,-246.27"/>
</g>
<!-- 42 -->
<g id="node11" class="node">
<title>42</title>
<path fill="#f1bd97" stroke="black" d="M568.5,-250C568.5,-250 440,-250 440,-250 434,-250 428,-244 428,-238 428,-238 428,-191 428,-191 428,-185 434,-179 440,-179 440,-179 568.5,-179 568.5,-179 574.5,-179 580.5,-185 580.5,-191 580.5,-191 580.5,-238 580.5,-238 580.5,-244 574.5,-250 568.5,-250"/>
<text text-anchor="start" x="464.12" y="-232.7" font-family="Helvetica,sans-Serif" font-size="14.00">P4_6_3 ≤ 1.5</text>
<text text-anchor="start" x="436" y="-216.95" font-family="Helvetica,sans-Serif" font-size="14.00">friedman_mse = 4.765</text>
<text text-anchor="start" x="459.62" y="-201.2" font-family="Helvetica,sans-Serif" font-size="14.00">samples = 176</text>
<text text-anchor="start" x="459.62" y="-185.45" font-family="Helvetica,sans-Serif" font-size="14.00">value = 12.483</text>
</g>
<!-- 2&#45;&gt;42 -->
<g id="edge10" class="edge">
<title>2&#45;&gt;42</title>
<path fill="none" stroke="black" d="M504.25,-285.54C504.25,-277.92 504.25,-269.75 504.25,-261.77"/>
<polygon fill="black" stroke="black" points="507.75,-261.82 504.25,-251.82 500.75,-261.82 507.75,-261.82"/>
</g>
<!-- 4 -->
<g id="node5" class="node">
<title>4</title>
<path fill="#eca470" stroke="black" d="M140.5,-143C140.5,-143 12,-143 12,-143 6,-143 0,-137 0,-131 0,-131 0,-84 0,-84 0,-78 6,-72 12,-72 12,-72 140.5,-72 140.5,-72 146.5,-72 152.5,-78 152.5,-84 152.5,-84 152.5,-131 152.5,-131 152.5,-137 146.5,-143 140.5,-143"/>
<text text-anchor="start" x="36.12" y="-125.7" font-family="Helvetica,sans-Serif" font-size="14.00">P4_6_3 ≤ 1.5</text>
<text text-anchor="start" x="8" y="-109.95" font-family="Helvetica,sans-Serif" font-size="14.00">friedman_mse = 3.002</text>
<text text-anchor="start" x="32" y="-94.2" font-family="Helvetica,sans-Serif" font-size="14.00">samples = 114</text>
<text text-anchor="start" x="31.62" y="-78.45" font-family="Helvetica,sans-Serif" font-size="14.00">value = 15.219</text>
</g>
<!-- 3&#45;&gt;4 -->
<g id="edge4" class="edge">
<title>3&#45;&gt;4</title>
<path fill="none" stroke="black" d="M190.31,-178.54C175.1,-169.2 158.53,-159.03 142.86,-149.4"/>
<polygon fill="black" stroke="black" points="144.88,-146.53 134.52,-144.28 141.21,-152.5 144.88,-146.53"/>
</g>
<!-- 25 -->
<g id="node8" class="node">
<title>25</title>
<path fill="#efb388" stroke="black" d="M311.5,-143C311.5,-143 183,-143 183,-143 177,-143 171,-137 171,-131 171,-131 171,-84 171,-84 171,-78 177,-72 183,-72 183,-72 311.5,-72 311.5,-72 317.5,-72 323.5,-78 323.5,-84 323.5,-84 323.5,-131 323.5,-131 323.5,-137 317.5,-143 311.5,-143"/>
<text text-anchor="start" x="207.12" y="-125.7" font-family="Helvetica,sans-Serif" font-size="14.00">P4_6_1 ≤ 1.5</text>
<text text-anchor="start" x="179" y="-109.95" font-family="Helvetica,sans-Serif" font-size="14.00">friedman_mse = 3.122</text>
<text text-anchor="start" x="206.38" y="-94.2" font-family="Helvetica,sans-Serif" font-size="14.00">samples = 91</text>
<text text-anchor="start" x="202.62" y="-78.45" font-family="Helvetica,sans-Serif" font-size="14.00">value = 13.542</text>
</g>
<!-- 3&#45;&gt;25 -->
<g id="edge7" class="edge">
<title>3&#45;&gt;25</title>
<path fill="none" stroke="black" d="M247.25,-178.54C247.25,-170.92 247.25,-162.75 247.25,-154.77"/>
<polygon fill="black" stroke="black" points="250.75,-154.82 247.25,-144.82 243.75,-154.82 250.75,-154.82"/>
</g>
<!-- 5 -->
<g id="node6" class="node">
<title>5</title>
<path fill="#c0c0c0" stroke="black" d="M55.25,-36C55.25,-36 25.25,-36 25.25,-36 19.25,-36 13.25,-30 13.25,-24 13.25,-24 13.25,-12 13.25,-12 13.25,-6 19.25,0 25.25,0 25.25,0 55.25,0 55.25,0 61.25,0 67.25,-6 67.25,-12 67.25,-12 67.25,-24 67.25,-24 67.25,-30 61.25,-36 55.25,-36"/>
<text text-anchor="middle" x="40.25" y="-12.57" font-family="Helvetica,sans-Serif" font-size="14.00">(...)</text>
</g>
<!-- 4&#45;&gt;5 -->
<g id="edge5" class="edge">
<title>4&#45;&gt;5</title>
<path fill="none" stroke="black" d="M61.92,-71.67C58.51,-63.37 54.91,-54.63 51.65,-46.71"/>
<polygon fill="black" stroke="black" points="54.94,-45.5 47.9,-37.58 48.46,-48.16 54.94,-45.5"/>
</g>
<!-- 10 -->
<g id="node7" class="node">
<title>10</title>
<path fill="#c0c0c0" stroke="black" d="M127.25,-36C127.25,-36 97.25,-36 97.25,-36 91.25,-36 85.25,-30 85.25,-24 85.25,-24 85.25,-12 85.25,-12 85.25,-6 91.25,0 97.25,0 97.25,0 127.25,0 127.25,0 133.25,0 139.25,-6 139.25,-12 139.25,-12 139.25,-24 139.25,-24 139.25,-30 133.25,-36 127.25,-36"/>
<text text-anchor="middle" x="112.25" y="-12.57" font-family="Helvetica,sans-Serif" font-size="14.00">(...)</text>
</g>
<!-- 4&#45;&gt;10 -->
<g id="edge6" class="edge">
<title>4&#45;&gt;10</title>
<path fill="none" stroke="black" d="M90.58,-71.67C93.99,-63.37 97.59,-54.63 100.85,-46.71"/>
<polygon fill="black" stroke="black" points="104.04,-48.16 104.6,-37.58 97.56,-45.5 104.04,-48.16"/>
</g>
<!-- 26 -->
<g id="node9" class="node">
<title>26</title>
<path fill="#c0c0c0" stroke="black" d="M231.25,-36C231.25,-36 201.25,-36 201.25,-36 195.25,-36 189.25,-30 189.25,-24 189.25,-24 189.25,-12 189.25,-12 189.25,-6 195.25,0 201.25,0 201.25,0 231.25,0 231.25,0 237.25,0 243.25,-6 243.25,-12 243.25,-12 243.25,-24 243.25,-24 243.25,-30 237.25,-36 231.25,-36"/>
<text text-anchor="middle" x="216.25" y="-12.57" font-family="Helvetica,sans-Serif" font-size="14.00">(...)</text>
</g>
<!-- 25&#45;&gt;26 -->
<g id="edge8" class="edge">
<title>25&#45;&gt;26</title>
<path fill="none" stroke="black" d="M234.91,-71.67C232,-63.47 228.95,-54.84 226.16,-46.98"/>
<polygon fill="black" stroke="black" points="229.48,-45.87 222.84,-37.61 222.88,-48.2 229.48,-45.87"/>
</g>
<!-- 39 -->
<g id="node10" class="node">
<title>39</title>
<path fill="#c0c0c0" stroke="black" d="M303.25,-36C303.25,-36 273.25,-36 273.25,-36 267.25,-36 261.25,-30 261.25,-24 261.25,-24 261.25,-12 261.25,-12 261.25,-6 267.25,0 273.25,0 273.25,0 303.25,0 303.25,0 309.25,0 315.25,-6 315.25,-12 315.25,-12 315.25,-24 315.25,-24 315.25,-30 309.25,-36 303.25,-36"/>
<text text-anchor="middle" x="288.25" y="-12.57" font-family="Helvetica,sans-Serif" font-size="14.00">(...)</text>
</g>
<!-- 25&#45;&gt;39 -->
<g id="edge9" class="edge">
<title>25&#45;&gt;39</title>
<path fill="none" stroke="black" d="M263.57,-71.67C267.5,-63.28 271.65,-54.43 275.39,-46.44"/>
<polygon fill="black" stroke="black" points="278.48,-48.09 279.56,-37.55 272.14,-45.12 278.48,-48.09"/>
</g>
<!-- 43 -->
<g id="node12" class="node">
<title>43</title>
<path fill="#f4caac" stroke="black" d="M482.5,-143C482.5,-143 354,-143 354,-143 348,-143 342,-137 342,-131 342,-131 342,-84 342,-84 342,-78 348,-72 354,-72 354,-72 482.5,-72 482.5,-72 488.5,-72 494.5,-78 494.5,-84 494.5,-84 494.5,-131 494.5,-131 494.5,-137 488.5,-143 482.5,-143"/>
<text text-anchor="start" x="378.12" y="-125.7" font-family="Helvetica,sans-Serif" font-size="14.00">P4_6_2 ≤ 1.5</text>
<text text-anchor="start" x="350" y="-109.95" font-family="Helvetica,sans-Serif" font-size="14.00">friedman_mse = 4.793</text>
<text text-anchor="start" x="377.38" y="-94.2" font-family="Helvetica,sans-Serif" font-size="14.00">samples = 56</text>
<text text-anchor="start" x="374" y="-78.45" font-family="Helvetica,sans-Serif" font-size="14.00">value = 11.095</text>
</g>
<!-- 42&#45;&gt;43 -->
<g id="edge11" class="edge">
<title>42&#45;&gt;43</title>
<path fill="none" stroke="black" d="M475.61,-178.54C468.65,-170.04 461.12,-160.84 453.88,-152"/>
<polygon fill="black" stroke="black" points="456.76,-150 447.72,-144.48 451.35,-154.44 456.76,-150"/>
</g>
<!-- 54 -->
<g id="node15" class="node">
<title>54</title>
<path fill="#f0b78e" stroke="black" d="M653.5,-143C653.5,-143 525,-143 525,-143 519,-143 513,-137 513,-131 513,-131 513,-84 513,-84 513,-78 519,-72 525,-72 525,-72 653.5,-72 653.5,-72 659.5,-72 665.5,-78 665.5,-84 665.5,-84 665.5,-131 665.5,-131 665.5,-137 659.5,-143 653.5,-143"/>
<text text-anchor="start" x="556.62" y="-125.7" font-family="Helvetica,sans-Serif" font-size="14.00">P3_8 ≤ 6.5</text>
<text text-anchor="start" x="521" y="-109.95" font-family="Helvetica,sans-Serif" font-size="14.00">friedman_mse = 3.434</text>
<text text-anchor="start" x="544.62" y="-94.2" font-family="Helvetica,sans-Serif" font-size="14.00">samples = 120</text>
<text text-anchor="start" x="544.62" y="-78.45" font-family="Helvetica,sans-Serif" font-size="14.00">value = 13.131</text>
</g>
<!-- 42&#45;&gt;54 -->
<g id="edge14" class="edge">
<title>42&#45;&gt;54</title>
<path fill="none" stroke="black" d="M532.55,-178.54C539.44,-170.04 546.88,-160.84 554.04,-152"/>
<polygon fill="black" stroke="black" points="556.55,-154.46 560.12,-144.49 551.11,-150.06 556.55,-154.46"/>
</g>
<!-- 44 -->
<g id="node13" class="node">
<title>44</title>
<path fill="#c0c0c0" stroke="black" d="M404.25,-36C404.25,-36 374.25,-36 374.25,-36 368.25,-36 362.25,-30 362.25,-24 362.25,-24 362.25,-12 362.25,-12 362.25,-6 368.25,0 374.25,0 374.25,0 404.25,0 404.25,0 410.25,0 416.25,-6 416.25,-12 416.25,-12 416.25,-24 416.25,-24 416.25,-30 410.25,-36 404.25,-36"/>
<text text-anchor="middle" x="389.25" y="-12.57" font-family="Helvetica,sans-Serif" font-size="14.00">(...)</text>
</g>
<!-- 43&#45;&gt;44 -->
<g id="edge12" class="edge">
<title>43&#45;&gt;44</title>
<path fill="none" stroke="black" d="M406.71,-71.67C403.99,-63.47 401.13,-54.84 398.52,-46.98"/>
<polygon fill="black" stroke="black" points="401.89,-46.01 395.42,-37.62 395.24,-48.21 401.89,-46.01"/>
</g>
<!-- 53 -->
<g id="node14" class="node">
<title>53</title>
<path fill="#c0c0c0" stroke="black" d="M476.25,-36C476.25,-36 446.25,-36 446.25,-36 440.25,-36 434.25,-30 434.25,-24 434.25,-24 434.25,-12 434.25,-12 434.25,-6 440.25,0 446.25,0 446.25,0 476.25,0 476.25,0 482.25,0 488.25,-6 488.25,-12 488.25,-12 488.25,-24 488.25,-24 488.25,-30 482.25,-36 476.25,-36"/>
<text text-anchor="middle" x="461.25" y="-12.57" font-family="Helvetica,sans-Serif" font-size="14.00">(...)</text>
</g>
<!-- 43&#45;&gt;53 -->
<g id="edge13" class="edge">
<title>43&#45;&gt;53</title>
<path fill="none" stroke="black" d="M435.37,-71.67C439.49,-63.28 443.84,-54.43 447.77,-46.44"/>
<polygon fill="black" stroke="black" points="450.87,-48.06 452.14,-37.54 444.59,-44.97 450.87,-48.06"/>
</g>
<!-- 55 -->
<g id="node16" class="node">
<title>55</title>
<path fill="#c0c0c0" stroke="black" d="M592.25,-36C592.25,-36 562.25,-36 562.25,-36 556.25,-36 550.25,-30 550.25,-24 550.25,-24 550.25,-12 550.25,-12 550.25,-6 556.25,0 562.25,0 562.25,0 592.25,0 592.25,0 598.25,0 604.25,-6 604.25,-12 604.25,-12 604.25,-24 604.25,-24 604.25,-30 598.25,-36 592.25,-36"/>
<text text-anchor="middle" x="577.25" y="-12.57" font-family="Helvetica,sans-Serif" font-size="14.00">(...)</text>
</g>
<!-- 54&#45;&gt;55 -->
<g id="edge15" class="edge">
<title>54&#45;&gt;55</title>
<path fill="none" stroke="black" d="M584.47,-71.67C583.37,-63.66 582.22,-55.24 581.16,-47.53"/>
<polygon fill="black" stroke="black" points="584.64,-47.11 579.81,-37.68 577.7,-48.07 584.64,-47.11"/>
</g>
<!-- 70 -->
<g id="node17" class="node">
<title>70</title>
<path fill="#c0c0c0" stroke="black" d="M664.25,-36C664.25,-36 634.25,-36 634.25,-36 628.25,-36 622.25,-30 622.25,-24 622.25,-24 622.25,-12 622.25,-12 622.25,-6 628.25,0 634.25,0 634.25,0 664.25,0 664.25,0 670.25,0 676.25,-6 676.25,-12 676.25,-12 676.25,-24 676.25,-24 676.25,-30 670.25,-36 664.25,-36"/>
<text text-anchor="middle" x="649.25" y="-12.57" font-family="Helvetica,sans-Serif" font-size="14.00">(...)</text>
</g>
<!-- 54&#45;&gt;70 -->
<g id="edge16" class="edge">
<title>54&#45;&gt;70</title>
<path fill="none" stroke="black" d="M613.14,-71.67C619.08,-62.99 625.37,-53.83 630.99,-45.62"/>
<polygon fill="black" stroke="black" points="633.84,-47.66 636.61,-37.43 628.07,-43.7 633.84,-47.66"/>
</g>
<!-- 74 -->
<g id="node19" class="node">
<title>74</title>
<path fill="#e99254" stroke="black" d="M995.5,-250C995.5,-250 867,-250 867,-250 861,-250 855,-244 855,-238 855,-238 855,-191 855,-191 855,-185 861,-179 867,-179 867,-179 995.5,-179 995.5,-179 1001.5,-179 1007.5,-185 1007.5,-191 1007.5,-191 1007.5,-238 1007.5,-238 1007.5,-244 1001.5,-250 995.5,-250"/>
<text text-anchor="start" x="894.88" y="-232.7" font-family="Helvetica,sans-Serif" font-size="14.00">P12_2 ≤ 2.5</text>
<text text-anchor="start" x="863" y="-216.95" font-family="Helvetica,sans-Serif" font-size="14.00">friedman_mse = 2.398</text>
<text text-anchor="start" x="886.62" y="-201.2" font-family="Helvetica,sans-Serif" font-size="14.00">samples = 127</text>
<text text-anchor="start" x="886.62" y="-185.45" font-family="Helvetica,sans-Serif" font-size="14.00">value = 17.134</text>
</g>
<!-- 73&#45;&gt;74 -->
<g id="edge18" class="edge">
<title>73&#45;&gt;74</title>
<path fill="none" stroke="black" d="M987.95,-285.54C981.06,-277.04 973.62,-267.84 966.46,-259"/>
<polygon fill="black" stroke="black" points="969.39,-257.06 960.38,-251.49 963.95,-261.46 969.39,-257.06"/>
</g>
<!-- 97 -->
<g id="node26" class="node">
<title>97</title>
<path fill="#eca470" stroke="black" d="M1166.5,-250C1166.5,-250 1038,-250 1038,-250 1032,-250 1026,-244 1026,-238 1026,-238 1026,-191 1026,-191 1026,-185 1032,-179 1038,-179 1038,-179 1166.5,-179 1166.5,-179 1172.5,-179 1178.5,-185 1178.5,-191 1178.5,-191 1178.5,-238 1178.5,-238 1178.5,-244 1172.5,-250 1166.5,-250"/>
<text text-anchor="start" x="1058.75" y="-232.7" font-family="Helvetica,sans-Serif" font-size="14.00">P11_3_9 ≤ 0.5</text>
<text text-anchor="start" x="1034" y="-216.95" font-family="Helvetica,sans-Serif" font-size="14.00">friedman_mse = 3.639</text>
<text text-anchor="start" x="1057.62" y="-201.2" font-family="Helvetica,sans-Serif" font-size="14.00">samples = 109</text>
<text text-anchor="start" x="1057.62" y="-185.45" font-family="Helvetica,sans-Serif" font-size="14.00">value = 15.208</text>
</g>
<!-- 73&#45;&gt;97 -->
<g id="edge25" class="edge">
<title>73&#45;&gt;97</title>
<path fill="none" stroke="black" d="M1044.89,-285.54C1051.85,-277.04 1059.38,-267.84 1066.62,-259"/>
<polygon fill="black" stroke="black" points="1069.15,-261.44 1072.78,-251.48 1063.74,-257 1069.15,-261.44"/>
</g>
<!-- 75 -->
<g id="node20" class="node">
<title>75</title>
<path fill="#e88f4f" stroke="black" d="M824.5,-143C824.5,-143 696,-143 696,-143 690,-143 684,-137 684,-131 684,-131 684,-84 684,-84 684,-78 690,-72 696,-72 696,-72 824.5,-72 824.5,-72 830.5,-72 836.5,-78 836.5,-84 836.5,-84 836.5,-131 836.5,-131 836.5,-137 830.5,-143 824.5,-143"/>
<text text-anchor="start" x="723.88" y="-125.7" font-family="Helvetica,sans-Serif" font-size="14.00">P12_2 ≤ 1.5</text>
<text text-anchor="start" x="692" y="-109.95" font-family="Helvetica,sans-Serif" font-size="14.00">friedman_mse = 1.854</text>
<text text-anchor="start" x="715.62" y="-94.2" font-family="Helvetica,sans-Serif" font-size="14.00">samples = 108</text>
<text text-anchor="start" x="715.62" y="-78.45" font-family="Helvetica,sans-Serif" font-size="14.00">value = 17.426</text>
</g>
<!-- 74&#45;&gt;75 -->
<g id="edge19" class="edge">
<title>74&#45;&gt;75</title>
<path fill="none" stroke="black" d="M874.31,-178.54C859.1,-169.2 842.53,-159.03 826.86,-149.4"/>
<polygon fill="black" stroke="black" points="828.88,-146.53 818.52,-144.28 825.21,-152.5 828.88,-146.53"/>
</g>
<!-- 94 -->
<g id="node23" class="node">
<title>94</title>
<path fill="#eca16c" stroke="black" d="M995.5,-143C995.5,-143 867,-143 867,-143 861,-143 855,-137 855,-131 855,-131 855,-84 855,-84 855,-78 861,-72 867,-72 867,-72 995.5,-72 995.5,-72 1001.5,-72 1007.5,-78 1007.5,-84 1007.5,-84 1007.5,-131 1007.5,-131 1007.5,-137 1001.5,-143 995.5,-143"/>
<text text-anchor="start" x="876.5" y="-125.7" font-family="Helvetica,sans-Serif" font-size="14.00">UPM_DIS ≤ 627.0</text>
<text text-anchor="start" x="863" y="-109.95" font-family="Helvetica,sans-Serif" font-size="14.00">friedman_mse = 2.249</text>
<text text-anchor="start" x="890.38" y="-94.2" font-family="Helvetica,sans-Serif" font-size="14.00">samples = 19</text>
<text text-anchor="start" x="886.62" y="-78.45" font-family="Helvetica,sans-Serif" font-size="14.00">value = 15.474</text>
</g>
<!-- 74&#45;&gt;94 -->
<g id="edge22" class="edge">
<title>74&#45;&gt;94</title>
<path fill="none" stroke="black" d="M931.25,-178.54C931.25,-170.92 931.25,-162.75 931.25,-154.77"/>
<polygon fill="black" stroke="black" points="934.75,-154.82 931.25,-144.82 927.75,-154.82 934.75,-154.82"/>
</g>
<!-- 76 -->
<g id="node21" class="node">
<title>76</title>
<path fill="#c0c0c0" stroke="black" d="M740.25,-36C740.25,-36 710.25,-36 710.25,-36 704.25,-36 698.25,-30 698.25,-24 698.25,-24 698.25,-12 698.25,-12 698.25,-6 704.25,0 710.25,0 710.25,0 740.25,0 740.25,0 746.25,0 752.25,-6 752.25,-12 752.25,-12 752.25,-24 752.25,-24 752.25,-30 746.25,-36 740.25,-36"/>
<text text-anchor="middle" x="725.25" y="-12.57" font-family="Helvetica,sans-Serif" font-size="14.00">(...)</text>
</g>
<!-- 75&#45;&gt;76 -->
<g id="edge20" class="edge">
<title>75&#45;&gt;76</title>
<path fill="none" stroke="black" d="M746.32,-71.67C743,-63.37 739.5,-54.63 736.33,-46.71"/>
<polygon fill="black" stroke="black" points="739.65,-45.57 732.69,-37.59 733.15,-48.17 739.65,-45.57"/>
</g>
<!-- 79 -->
<g id="node22" class="node">
<title>79</title>
<path fill="#c0c0c0" stroke="black" d="M812.25,-36C812.25,-36 782.25,-36 782.25,-36 776.25,-36 770.25,-30 770.25,-24 770.25,-24 770.25,-12 770.25,-12 770.25,-6 776.25,0 782.25,0 782.25,0 812.25,0 812.25,0 818.25,0 824.25,-6 824.25,-12 824.25,-12 824.25,-24 824.25,-24 824.25,-30 818.25,-36 812.25,-36"/>
<text text-anchor="middle" x="797.25" y="-12.57" font-family="Helvetica,sans-Serif" font-size="14.00">(...)</text>
</g>
<!-- 75&#45;&gt;79 -->
<g id="edge21" class="edge">
<title>75&#45;&gt;79</title>
<path fill="none" stroke="black" d="M774.98,-71.67C778.49,-63.37 782.18,-54.63 785.53,-46.71"/>
<polygon fill="black" stroke="black" points="788.72,-48.15 789.39,-37.58 782.28,-45.42 788.72,-48.15"/>
</g>
<!-- 95 -->
<g id="node24" class="node">
<title>95</title>
<path fill="#c0c0c0" stroke="black" d="M886.25,-36C886.25,-36 856.25,-36 856.25,-36 850.25,-36 844.25,-30 844.25,-24 844.25,-24 844.25,-12 844.25,-12 844.25,-6 850.25,0 856.25,0 856.25,0 886.25,0 886.25,0 892.25,0 898.25,-6 898.25,-12 898.25,-12 898.25,-24 898.25,-24 898.25,-30 892.25,-36 886.25,-36"/>
<text text-anchor="middle" x="871.25" y="-12.57" font-family="Helvetica,sans-Serif" font-size="14.00">(...)</text>
</g>
<!-- 94&#45;&gt;95 -->
<g id="edge23" class="edge">
<title>94&#45;&gt;95</title>
<path fill="none" stroke="black" d="M907.36,-71.67C901.42,-62.99 895.13,-53.83 889.51,-45.62"/>
<polygon fill="black" stroke="black" points="892.43,-43.7 883.89,-37.43 886.66,-47.66 892.43,-43.7"/>
</g>
<!-- 96 -->
<g id="node25" class="node">
<title>96</title>
<path fill="#c0c0c0" stroke="black" d="M958.25,-36C958.25,-36 928.25,-36 928.25,-36 922.25,-36 916.25,-30 916.25,-24 916.25,-24 916.25,-12 916.25,-12 916.25,-6 922.25,0 928.25,0 928.25,0 958.25,0 958.25,0 964.25,0 970.25,-6 970.25,-12 970.25,-12 970.25,-24 970.25,-24 970.25,-30 964.25,-36 958.25,-36"/>
<text text-anchor="middle" x="943.25" y="-12.57" font-family="Helvetica,sans-Serif" font-size="14.00">(...)</text>
</g>
<!-- 94&#45;&gt;96 -->
<g id="edge24" class="edge">
<title>94&#45;&gt;96</title>
<path fill="none" stroke="black" d="M936.03,-71.67C937.13,-63.66 938.28,-55.24 939.34,-47.53"/>
<polygon fill="black" stroke="black" points="942.8,-48.07 940.69,-37.68 935.86,-47.11 942.8,-48.07"/>
</g>
<!-- 98 -->
<g id="node27" class="node">
<title>98</title>
<path fill="#eb9f68" stroke="black" d="M1166.5,-143C1166.5,-143 1038,-143 1038,-143 1032,-143 1026,-137 1026,-131 1026,-131 1026,-84 1026,-84 1026,-78 1032,-72 1038,-72 1038,-72 1166.5,-72 1166.5,-72 1172.5,-72 1178.5,-78 1178.5,-84 1178.5,-84 1178.5,-131 1178.5,-131 1178.5,-137 1172.5,-143 1166.5,-143"/>
<text text-anchor="start" x="1062.12" y="-125.7" font-family="Helvetica,sans-Serif" font-size="14.00">P4_6_2 ≤ 1.5</text>
<text text-anchor="start" x="1034" y="-109.95" font-family="Helvetica,sans-Serif" font-size="14.00">friedman_mse = 2.326</text>
<text text-anchor="start" x="1061.38" y="-94.2" font-family="Helvetica,sans-Serif" font-size="14.00">samples = 88</text>
<text text-anchor="start" x="1057.62" y="-78.45" font-family="Helvetica,sans-Serif" font-size="14.00">value = 15.765</text>
</g>
<!-- 97&#45;&gt;98 -->
<g id="edge26" class="edge">
<title>97&#45;&gt;98</title>
<path fill="none" stroke="black" d="M1102.25,-178.54C1102.25,-170.92 1102.25,-162.75 1102.25,-154.77"/>
<polygon fill="black" stroke="black" points="1105.75,-154.82 1102.25,-144.82 1098.75,-154.82 1105.75,-154.82"/>
</g>
<!-- 109 -->
<g id="node30" class="node">
<title>109</title>
<path fill="#f1b992" stroke="black" d="M1337.5,-143C1337.5,-143 1209,-143 1209,-143 1203,-143 1197,-137 1197,-131 1197,-131 1197,-84 1197,-84 1197,-78 1203,-72 1209,-72 1209,-72 1337.5,-72 1337.5,-72 1343.5,-72 1349.5,-78 1349.5,-84 1349.5,-84 1349.5,-131 1349.5,-131 1349.5,-137 1343.5,-143 1337.5,-143"/>
<text text-anchor="start" x="1240.62" y="-125.7" font-family="Helvetica,sans-Serif" font-size="14.00">P3_2 ≤ 4.5</text>
<text text-anchor="start" x="1205" y="-109.95" font-family="Helvetica,sans-Serif" font-size="14.00">friedman_mse = 2.386</text>
<text text-anchor="start" x="1232.38" y="-94.2" font-family="Helvetica,sans-Serif" font-size="14.00">samples = 21</text>
<text text-anchor="start" x="1228.62" y="-78.45" font-family="Helvetica,sans-Serif" font-size="14.00">value = 12.873</text>
</g>
<!-- 97&#45;&gt;109 -->
<g id="edge29" class="edge">
<title>97&#45;&gt;109</title>
<path fill="none" stroke="black" d="M1159.19,-178.54C1174.4,-169.2 1190.97,-159.03 1206.64,-149.4"/>
<polygon fill="black" stroke="black" points="1208.29,-152.5 1214.98,-144.28 1204.62,-146.53 1208.29,-152.5"/>
</g>
<!-- 99 -->
<g id="node28" class="node">
<title>99</title>
<path fill="#c0c0c0" stroke="black" d="M1058.25,-36C1058.25,-36 1028.25,-36 1028.25,-36 1022.25,-36 1016.25,-30 1016.25,-24 1016.25,-24 1016.25,-12 1016.25,-12 1016.25,-6 1022.25,0 1028.25,0 1028.25,0 1058.25,0 1058.25,0 1064.25,0 1070.25,-6 1070.25,-12 1070.25,-12 1070.25,-24 1070.25,-24 1070.25,-30 1064.25,-36 1058.25,-36"/>
<text text-anchor="middle" x="1043.25" y="-12.57" font-family="Helvetica,sans-Serif" font-size="14.00">(...)</text>
</g>
<!-- 98&#45;&gt;99 -->
<g id="edge27" class="edge">
<title>98&#45;&gt;99</title>
<path fill="none" stroke="black" d="M1078.76,-71.67C1072.91,-62.99 1066.74,-53.83 1061.2,-45.62"/>
<polygon fill="black" stroke="black" points="1064.17,-43.77 1055.68,-37.44 1058.37,-47.69 1064.17,-43.77"/>
</g>
<!-- 108 -->
<g id="node29" class="node">
<title>108</title>
<path fill="#c0c0c0" stroke="black" d="M1130.25,-36C1130.25,-36 1100.25,-36 1100.25,-36 1094.25,-36 1088.25,-30 1088.25,-24 1088.25,-24 1088.25,-12 1088.25,-12 1088.25,-6 1094.25,0 1100.25,0 1100.25,0 1130.25,0 1130.25,0 1136.25,0 1142.25,-6 1142.25,-12 1142.25,-12 1142.25,-24 1142.25,-24 1142.25,-30 1136.25,-36 1130.25,-36"/>
<text text-anchor="middle" x="1115.25" y="-12.57" font-family="Helvetica,sans-Serif" font-size="14.00">(...)</text>
</g>
<!-- 98&#45;&gt;108 -->
<g id="edge28" class="edge">
<title>98&#45;&gt;108</title>
<path fill="none" stroke="black" d="M1107.43,-71.67C1108.61,-63.66 1109.87,-55.24 1111.01,-47.53"/>
<polygon fill="black" stroke="black" points="1114.47,-48.09 1112.47,-37.68 1107.54,-47.06 1114.47,-48.09"/>
</g>
<!-- 110 -->
<g id="node31" class="node">
<title>110</title>
<path fill="#c0c0c0" stroke="black" d="M1229.25,-36C1229.25,-36 1199.25,-36 1199.25,-36 1193.25,-36 1187.25,-30 1187.25,-24 1187.25,-24 1187.25,-12 1187.25,-12 1187.25,-6 1193.25,0 1199.25,0 1199.25,0 1229.25,0 1229.25,0 1235.25,0 1241.25,-6 1241.25,-12 1241.25,-12 1241.25,-24 1241.25,-24 1241.25,-30 1235.25,-36 1229.25,-36"/>
<text text-anchor="middle" x="1214.25" y="-12.57" font-family="Helvetica,sans-Serif" font-size="14.00">(...)</text>
</g>
<!-- 109&#45;&gt;110 -->
<g id="edge30" class="edge">
<title>109&#45;&gt;110</title>
<path fill="none" stroke="black" d="M1249.76,-71.67C1243.91,-62.99 1237.74,-53.83 1232.2,-45.62"/>
<polygon fill="black" stroke="black" points="1235.17,-43.77 1226.68,-37.44 1229.37,-47.69 1235.17,-43.77"/>
</g>
<!-- 111 -->
<g id="node32" class="node">
<title>111</title>
<path fill="#c0c0c0" stroke="black" d="M1301.25,-36C1301.25,-36 1271.25,-36 1271.25,-36 1265.25,-36 1259.25,-30 1259.25,-24 1259.25,-24 1259.25,-12 1259.25,-12 1259.25,-6 1265.25,0 1271.25,0 1271.25,0 1301.25,0 1301.25,0 1307.25,0 1313.25,-6 1313.25,-12 1313.25,-12 1313.25,-24 1313.25,-24 1313.25,-30 1307.25,-36 1301.25,-36"/>
<text text-anchor="middle" x="1286.25" y="-12.57" font-family="Helvetica,sans-Serif" font-size="14.00">(...)</text>
</g>
<!-- 109&#45;&gt;111 -->
<g id="edge31" class="edge">
<title>109&#45;&gt;111</title>
<path fill="none" stroke="black" d="M1278.43,-71.67C1279.61,-63.66 1280.87,-55.24 1282.01,-47.53"/>
<polygon fill="black" stroke="black" points="1285.47,-48.09 1283.47,-37.68 1278.54,-47.06 1285.47,-48.09"/>
</g>
<!-- 113 -->
<g id="node34" class="node">
<title>113</title>
<path fill="#f4caac" stroke="black" d="M1750.75,-357C1750.75,-357 1629.75,-357 1629.75,-357 1623.75,-357 1617.75,-351 1617.75,-345 1617.75,-345 1617.75,-298 1617.75,-298 1617.75,-292 1623.75,-286 1629.75,-286 1629.75,-286 1750.75,-286 1750.75,-286 1756.75,-286 1762.75,-292 1762.75,-298 1762.75,-298 1762.75,-345 1762.75,-345 1762.75,-351 1756.75,-357 1750.75,-357"/>
<text text-anchor="start" x="1653.88" y="-339.7" font-family="Helvetica,sans-Serif" font-size="14.00">P12_2 ≤ 2.5</text>
<text text-anchor="start" x="1625.75" y="-323.95" font-family="Helvetica,sans-Serif" font-size="14.00">friedman_mse = 5.75</text>
<text text-anchor="start" x="1645.62" y="-308.2" font-family="Helvetica,sans-Serif" font-size="14.00">samples = 880</text>
<text text-anchor="start" x="1646" y="-292.45" font-family="Helvetica,sans-Serif" font-size="14.00">value = 11.093</text>
</g>
<!-- 112&#45;&gt;113 -->
<g id="edge33" class="edge">
<title>112&#45;&gt;113</title>
<path fill="none" stroke="black" d="M1690.25,-392.54C1690.25,-384.92 1690.25,-376.75 1690.25,-368.77"/>
<polygon fill="black" stroke="black" points="1693.75,-368.82 1690.25,-358.82 1686.75,-368.82 1693.75,-368.82"/>
</g>
<!-- 234 -->
<g id="node49" class="node">
<title>234</title>
<path fill="#f0b489" stroke="black" d="M2243.5,-357C2243.5,-357 2115,-357 2115,-357 2109,-357 2103,-351 2103,-345 2103,-345 2103,-298 2103,-298 2103,-292 2109,-286 2115,-286 2115,-286 2243.5,-286 2243.5,-286 2249.5,-286 2255.5,-292 2255.5,-298 2255.5,-298 2255.5,-345 2255.5,-345 2255.5,-351 2249.5,-357 2243.5,-357"/>
<text text-anchor="start" x="2139.12" y="-339.7" font-family="Helvetica,sans-Serif" font-size="14.00">P4_6_4 ≤ 1.5</text>
<text text-anchor="start" x="2111" y="-323.95" font-family="Helvetica,sans-Serif" font-size="14.00">friedman_mse = 6.054</text>
<text text-anchor="start" x="2134.62" y="-308.2" font-family="Helvetica,sans-Serif" font-size="14.00">samples = 380</text>
<text text-anchor="start" x="2134.62" y="-292.45" font-family="Helvetica,sans-Serif" font-size="14.00">value = 13.452</text>
</g>
<!-- 112&#45;&gt;234 -->
<g id="edge48" class="edge">
<title>112&#45;&gt;234</title>
<path fill="none" stroke="black" d="M1766.93,-411.04C1855,-392.12 1999.23,-361.15 2091.66,-341.31"/>
<polygon fill="black" stroke="black" points="2092.14,-344.78 2101.18,-339.26 2090.67,-337.94 2092.14,-344.78"/>
</g>
<!-- 114 -->
<g id="node35" class="node">
<title>114</title>
<path fill="#f3c3a1" stroke="black" d="M1669.5,-250C1669.5,-250 1541,-250 1541,-250 1535,-250 1529,-244 1529,-238 1529,-238 1529,-191 1529,-191 1529,-185 1535,-179 1541,-179 1541,-179 1669.5,-179 1669.5,-179 1675.5,-179 1681.5,-185 1681.5,-191 1681.5,-191 1681.5,-238 1681.5,-238 1681.5,-244 1675.5,-250 1669.5,-250"/>
<text text-anchor="start" x="1565.12" y="-232.7" font-family="Helvetica,sans-Serif" font-size="14.00">P4_6_2 ≤ 1.5</text>
<text text-anchor="start" x="1537" y="-216.95" font-family="Helvetica,sans-Serif" font-size="14.00">friedman_mse = 4.461</text>
<text text-anchor="start" x="1560.62" y="-201.2" font-family="Helvetica,sans-Serif" font-size="14.00">samples = 600</text>
<text text-anchor="start" x="1561" y="-185.45" font-family="Helvetica,sans-Serif" font-size="14.00">value = 11.833</text>
</g>
<!-- 113&#45;&gt;114 -->
<g id="edge34" class="edge">
<title>113&#45;&gt;114</title>
<path fill="none" stroke="black" d="M1661.95,-285.54C1655.06,-277.04 1647.62,-267.84 1640.46,-259"/>
<polygon fill="black" stroke="black" points="1643.39,-257.06 1634.38,-251.49 1637.95,-261.46 1643.39,-257.06"/>
</g>
<!-- 187 -->
<g id="node42" class="node">
<title>187</title>
<path fill="#f7d9c3" stroke="black" d="M1840.5,-250C1840.5,-250 1712,-250 1712,-250 1706,-250 1700,-244 1700,-238 1700,-238 1700,-191 1700,-191 1700,-185 1706,-179 1712,-179 1712,-179 1840.5,-179 1840.5,-179 1846.5,-179 1852.5,-185 1852.5,-191 1852.5,-191 1852.5,-238 1852.5,-238 1852.5,-244 1846.5,-250 1840.5,-250"/>
<text text-anchor="start" x="1736.12" y="-232.7" font-family="Helvetica,sans-Serif" font-size="14.00">P4_6_1 ≤ 1.5</text>
<text text-anchor="start" x="1708" y="-216.95" font-family="Helvetica,sans-Serif" font-size="14.00">friedman_mse = 4.825</text>
<text text-anchor="start" x="1731.62" y="-201.2" font-family="Helvetica,sans-Serif" font-size="14.00">samples = 280</text>
<text text-anchor="start" x="1735.38" y="-185.45" font-family="Helvetica,sans-Serif" font-size="14.00">value = 9.507</text>
</g>
<!-- 113&#45;&gt;187 -->
<g id="edge41" class="edge">
<title>113&#45;&gt;187</title>
<path fill="none" stroke="black" d="M1718.89,-285.54C1725.85,-277.04 1733.38,-267.84 1740.62,-259"/>
<polygon fill="black" stroke="black" points="1743.15,-261.44 1746.78,-251.48 1737.74,-257 1743.15,-261.44"/>
</g>
<!-- 115 -->
<g id="node36" class="node">
<title>115</title>
<path fill="#f2bf9a" stroke="black" d="M1508.5,-143C1508.5,-143 1380,-143 1380,-143 1374,-143 1368,-137 1368,-131 1368,-131 1368,-84 1368,-84 1368,-78 1374,-72 1380,-72 1380,-72 1508.5,-72 1508.5,-72 1514.5,-72 1520.5,-78 1520.5,-84 1520.5,-84 1520.5,-131 1520.5,-131 1520.5,-137 1514.5,-143 1508.5,-143"/>
<text text-anchor="start" x="1404.12" y="-125.7" font-family="Helvetica,sans-Serif" font-size="14.00">P4_6_3 ≤ 1.5</text>
<text text-anchor="start" x="1376" y="-109.95" font-family="Helvetica,sans-Serif" font-size="14.00">friedman_mse = 3.438</text>
<text text-anchor="start" x="1399.62" y="-94.2" font-family="Helvetica,sans-Serif" font-size="14.00">samples = 463</text>
<text text-anchor="start" x="1399.62" y="-78.45" font-family="Helvetica,sans-Serif" font-size="14.00">value = 12.312</text>
</g>
<!-- 114&#45;&gt;115 -->
<g id="edge35" class="edge">
<title>114&#45;&gt;115</title>
<path fill="none" stroke="black" d="M1551.64,-178.54C1537.46,-169.29 1522.02,-159.22 1507.38,-149.67"/>
<polygon fill="black" stroke="black" points="1509.46,-146.85 1499.17,-144.32 1505.63,-152.71 1509.46,-146.85"/>
</g>
<!-- 162 -->
<g id="node39" class="node">
<title>162</title>
<path fill="#f6d2b8" stroke="black" d="M1671.75,-143C1671.75,-143 1550.75,-143 1550.75,-143 1544.75,-143 1538.75,-137 1538.75,-131 1538.75,-131 1538.75,-84 1538.75,-84 1538.75,-78 1544.75,-72 1550.75,-72 1550.75,-72 1671.75,-72 1671.75,-72 1677.75,-72 1683.75,-78 1683.75,-84 1683.75,-84 1683.75,-131 1683.75,-131 1683.75,-137 1677.75,-143 1671.75,-143"/>
<text text-anchor="start" x="1563.62" y="-125.7" font-family="Helvetica,sans-Serif" font-size="14.00">P7_9_2_2 ≤ 0.5</text>
<text text-anchor="start" x="1546.75" y="-109.95" font-family="Helvetica,sans-Serif" font-size="14.00">friedman_mse = 4.52</text>
<text text-anchor="start" x="1566.62" y="-94.2" font-family="Helvetica,sans-Serif" font-size="14.00">samples = 137</text>
<text text-anchor="start" x="1566.62" y="-78.45" font-family="Helvetica,sans-Serif" font-size="14.00">value = 10.214</text>
</g>
<!-- 114&#45;&gt;162 -->
<g id="edge38" class="edge">
<title>114&#45;&gt;162</title>
<path fill="none" stroke="black" d="M1607.25,-178.54C1607.68,-170.92 1608.15,-162.75 1608.61,-154.77"/>
<polygon fill="black" stroke="black" points="1612.1,-155.01 1609.17,-144.82 1605.11,-154.61 1612.1,-155.01"/>
</g>
<!-- 116 -->
<g id="node37" class="node">
<title>116</title>
<path fill="#c0c0c0" stroke="black" d="M1398.25,-36C1398.25,-36 1368.25,-36 1368.25,-36 1362.25,-36 1356.25,-30 1356.25,-24 1356.25,-24 1356.25,-12 1356.25,-12 1356.25,-6 1362.25,0 1368.25,0 1368.25,0 1398.25,0 1398.25,0 1404.25,0 1410.25,-6 1410.25,-12 1410.25,-12 1410.25,-24 1410.25,-24 1410.25,-30 1404.25,-36 1398.25,-36"/>
<text text-anchor="middle" x="1383.25" y="-12.57" font-family="Helvetica,sans-Serif" font-size="14.00">(...)</text>
</g>
<!-- 115&#45;&gt;116 -->
<g id="edge36" class="edge">
<title>115&#45;&gt;116</title>
<path fill="none" stroke="black" d="M1419.97,-71.67C1413.92,-62.99 1407.53,-53.83 1401.81,-45.62"/>
<polygon fill="black" stroke="black" points="1404.68,-43.63 1396.09,-37.42 1398.94,-47.63 1404.68,-43.63"/>
</g>
<!-- 135 -->
<g id="node38" class="node">
<title>135</title>
<path fill="#c0c0c0" stroke="black" d="M1470.25,-36C1470.25,-36 1440.25,-36 1440.25,-36 1434.25,-36 1428.25,-30 1428.25,-24 1428.25,-24 1428.25,-12 1428.25,-12 1428.25,-6 1434.25,0 1440.25,0 1440.25,0 1470.25,0 1470.25,0 1476.25,0 1482.25,-6 1482.25,-12 1482.25,-12 1482.25,-24 1482.25,-24 1482.25,-30 1476.25,-36 1470.25,-36"/>
<text text-anchor="middle" x="1455.25" y="-12.57" font-family="Helvetica,sans-Serif" font-size="14.00">(...)</text>
</g>
<!-- 115&#45;&gt;135 -->
<g id="edge37" class="edge">
<title>115&#45;&gt;135</title>
<path fill="none" stroke="black" d="M1448.63,-71.67C1449.64,-63.66 1450.69,-55.24 1451.66,-47.53"/>
<polygon fill="black" stroke="black" points="1455.13,-48.04 1452.9,-37.68 1448.18,-47.17 1455.13,-48.04"/>
</g>
<!-- 163 -->
<g id="node40" class="node">
<title>163</title>
<path fill="#c0c0c0" stroke="black" d="M1561.25,-36C1561.25,-36 1531.25,-36 1531.25,-36 1525.25,-36 1519.25,-30 1519.25,-24 1519.25,-24 1519.25,-12 1519.25,-12 1519.25,-6 1525.25,0 1531.25,0 1531.25,0 1561.25,0 1561.25,0 1567.25,0 1573.25,-6 1573.25,-12 1573.25,-12 1573.25,-24 1573.25,-24 1573.25,-30 1567.25,-36 1561.25,-36"/>
<text text-anchor="middle" x="1546.25" y="-12.57" font-family="Helvetica,sans-Serif" font-size="14.00">(...)</text>
</g>
<!-- 162&#45;&gt;163 -->
<g id="edge39" class="edge">
<title>162&#45;&gt;163</title>
<path fill="none" stroke="black" d="M1585.37,-71.67C1578.86,-62.9 1571.97,-53.63 1565.83,-45.35"/>
<polygon fill="black" stroke="black" points="1568.69,-43.34 1559.92,-37.4 1563.07,-47.51 1568.69,-43.34"/>
</g>
<!-- 174 -->
<g id="node41" class="node">
<title>174</title>
<path fill="#c0c0c0" stroke="black" d="M1633.25,-36C1633.25,-36 1603.25,-36 1603.25,-36 1597.25,-36 1591.25,-30 1591.25,-24 1591.25,-24 1591.25,-12 1591.25,-12 1591.25,-6 1597.25,0 1603.25,0 1603.25,0 1633.25,0 1633.25,0 1639.25,0 1645.25,-6 1645.25,-12 1645.25,-12 1645.25,-24 1645.25,-24 1645.25,-30 1639.25,-36 1633.25,-36"/>
<text text-anchor="middle" x="1618.25" y="-12.57" font-family="Helvetica,sans-Serif" font-size="14.00">(...)</text>
</g>
<!-- 162&#45;&gt;174 -->
<g id="edge40" class="edge">
<title>162&#45;&gt;174</title>
<path fill="none" stroke="black" d="M1614.04,-71.67C1614.68,-63.66 1615.35,-55.24 1615.97,-47.53"/>
<polygon fill="black" stroke="black" points="1619.45,-47.94 1616.75,-37.69 1612.47,-47.38 1619.45,-47.94"/>
</g>
<!-- 188 -->
<g id="node43" class="node">
<title>188</title>
<path fill="#f6d2b8" stroke="black" d="M1827,-143C1827,-143 1713.5,-143 1713.5,-143 1707.5,-143 1701.5,-137 1701.5,-131 1701.5,-131 1701.5,-84 1701.5,-84 1701.5,-78 1707.5,-72 1713.5,-72 1713.5,-72 1827,-72 1827,-72 1833,-72 1839,-78 1839,-84 1839,-84 1839,-131 1839,-131 1839,-137 1833,-143 1827,-143"/>
<text text-anchor="start" x="1726.75" y="-125.7" font-family="Helvetica,sans-Serif" font-size="14.00">P11_3_9 ≤ 0.5</text>
<text text-anchor="start" x="1709.5" y="-109.95" font-family="Helvetica,sans-Serif" font-size="14.00">friedman_mse = 3.6</text>
<text text-anchor="start" x="1725.62" y="-94.2" font-family="Helvetica,sans-Serif" font-size="14.00">samples = 184</text>
<text text-anchor="start" x="1729.38" y="-78.45" font-family="Helvetica,sans-Serif" font-size="14.00">value = 10.23</text>
</g>
<!-- 187&#45;&gt;188 -->
<g id="edge42" class="edge">
<title>187&#45;&gt;188</title>
<path fill="none" stroke="black" d="M1774.25,-178.54C1773.82,-170.92 1773.35,-162.75 1772.89,-154.77"/>
<polygon fill="black" stroke="black" points="1776.39,-154.61 1772.33,-144.82 1769.4,-155.01 1776.39,-154.61"/>
</g>
<!-- 217 -->
<g id="node46" class="node">
<title>217</title>
<path fill="#fae5d7" stroke="black" d="M1989.75,-143C1989.75,-143 1868.75,-143 1868.75,-143 1862.75,-143 1856.75,-137 1856.75,-131 1856.75,-131 1856.75,-84 1856.75,-84 1856.75,-78 1862.75,-72 1868.75,-72 1868.75,-72 1989.75,-72 1989.75,-72 1995.75,-72 2001.75,-78 2001.75,-84 2001.75,-84 2001.75,-131 2001.75,-131 2001.75,-137 1995.75,-143 1989.75,-143"/>
<text text-anchor="start" x="1889.12" y="-125.7" font-family="Helvetica,sans-Serif" font-size="14.00">P4_7_3 ≤ 0.5</text>
<text text-anchor="start" x="1864.75" y="-109.95" font-family="Helvetica,sans-Serif" font-size="14.00">friedman_mse = 4.25</text>
<text text-anchor="start" x="1888.38" y="-94.2" font-family="Helvetica,sans-Serif" font-size="14.00">samples = 96</text>
<text text-anchor="start" x="1888.38" y="-78.45" font-family="Helvetica,sans-Serif" font-size="14.00">value = 8.122</text>
</g>
<!-- 187&#45;&gt;217 -->
<g id="edge45" class="edge">
<title>187&#45;&gt;217</title>
<path fill="none" stroke="black" d="M1827.2,-178.54C1840.55,-169.38 1855.07,-159.41 1868.86,-149.95"/>
<polygon fill="black" stroke="black" points="1870.75,-152.89 1877.02,-144.35 1866.79,-147.12 1870.75,-152.89"/>
</g>
<!-- 189 -->
<g id="node44" class="node">
<title>189</title>
<path fill="#c0c0c0" stroke="black" d="M1720.25,-36C1720.25,-36 1690.25,-36 1690.25,-36 1684.25,-36 1678.25,-30 1678.25,-24 1678.25,-24 1678.25,-12 1678.25,-12 1678.25,-6 1684.25,0 1690.25,0 1690.25,0 1720.25,0 1720.25,0 1726.25,0 1732.25,-6 1732.25,-12 1732.25,-12 1732.25,-24 1732.25,-24 1732.25,-30 1726.25,-36 1720.25,-36"/>
<text text-anchor="middle" x="1705.25" y="-12.57" font-family="Helvetica,sans-Serif" font-size="14.00">(...)</text>
</g>
<!-- 188&#45;&gt;189 -->
<g id="edge43" class="edge">
<title>188&#45;&gt;189</title>
<path fill="none" stroke="black" d="M1744.37,-71.67C1737.86,-62.9 1730.97,-53.63 1724.83,-45.35"/>
<polygon fill="black" stroke="black" points="1727.69,-43.34 1718.92,-37.4 1722.07,-47.51 1727.69,-43.34"/>
</g>
<!-- 200 -->
<g id="node45" class="node">
<title>200</title>
<path fill="#c0c0c0" stroke="black" d="M1792.25,-36C1792.25,-36 1762.25,-36 1762.25,-36 1756.25,-36 1750.25,-30 1750.25,-24 1750.25,-24 1750.25,-12 1750.25,-12 1750.25,-6 1756.25,0 1762.25,0 1762.25,0 1792.25,0 1792.25,0 1798.25,0 1804.25,-6 1804.25,-12 1804.25,-12 1804.25,-24 1804.25,-24 1804.25,-30 1798.25,-36 1792.25,-36"/>
<text text-anchor="middle" x="1777.25" y="-12.57" font-family="Helvetica,sans-Serif" font-size="14.00">(...)</text>
</g>
<!-- 188&#45;&gt;200 -->
<g id="edge44" class="edge">
<title>188&#45;&gt;200</title>
<path fill="none" stroke="black" d="M1773.04,-71.67C1773.68,-63.66 1774.35,-55.24 1774.97,-47.53"/>
<polygon fill="black" stroke="black" points="1778.45,-47.94 1775.75,-37.69 1771.47,-47.38 1778.45,-47.94"/>
</g>
<!-- 218 -->
<g id="node47" class="node">
<title>218</title>
<path fill="#c0c0c0" stroke="black" d="M1883.25,-36C1883.25,-36 1853.25,-36 1853.25,-36 1847.25,-36 1841.25,-30 1841.25,-24 1841.25,-24 1841.25,-12 1841.25,-12 1841.25,-6 1847.25,0 1853.25,0 1853.25,0 1883.25,0 1883.25,0 1889.25,0 1895.25,-6 1895.25,-12 1895.25,-12 1895.25,-24 1895.25,-24 1895.25,-30 1889.25,-36 1883.25,-36"/>
<text text-anchor="middle" x="1868.25" y="-12.57" font-family="Helvetica,sans-Serif" font-size="14.00">(...)</text>
</g>
<!-- 217&#45;&gt;218 -->
<g id="edge46" class="edge">
<title>217&#45;&gt;218</title>
<path fill="none" stroke="black" d="M1904.97,-71.67C1898.92,-62.99 1892.53,-53.83 1886.81,-45.62"/>
<polygon fill="black" stroke="black" points="1889.68,-43.63 1881.09,-37.42 1883.94,-47.63 1889.68,-43.63"/>
</g>
<!-- 227 -->
<g id="node48" class="node">
<title>227</title>
<path fill="#c0c0c0" stroke="black" d="M1955.25,-36C1955.25,-36 1925.25,-36 1925.25,-36 1919.25,-36 1913.25,-30 1913.25,-24 1913.25,-24 1913.25,-12 1913.25,-12 1913.25,-6 1919.25,0 1925.25,0 1925.25,0 1955.25,0 1955.25,0 1961.25,0 1967.25,-6 1967.25,-12 1967.25,-12 1967.25,-24 1967.25,-24 1967.25,-30 1961.25,-36 1955.25,-36"/>
<text text-anchor="middle" x="1940.25" y="-12.57" font-family="Helvetica,sans-Serif" font-size="14.00">(...)</text>
</g>
<!-- 217&#45;&gt;227 -->
<g id="edge47" class="edge">
<title>217&#45;&gt;227</title>
<path fill="none" stroke="black" d="M1933.63,-71.67C1934.64,-63.66 1935.69,-55.24 1936.66,-47.53"/>
<polygon fill="black" stroke="black" points="1940.13,-48.04 1937.9,-37.68 1933.18,-47.17 1940.13,-48.04"/>
</g>
<!-- 235 -->
<g id="node50" class="node">
<title>235</title>
<path fill="#eda673" stroke="black" d="M2242.75,-250C2242.75,-250 2115.75,-250 2115.75,-250 2109.75,-250 2103.75,-244 2103.75,-238 2103.75,-238 2103.75,-191 2103.75,-191 2103.75,-185 2109.75,-179 2115.75,-179 2115.75,-179 2242.75,-179 2242.75,-179 2248.75,-179 2254.75,-185 2254.75,-191 2254.75,-191 2254.75,-238 2254.75,-238 2254.75,-244 2248.75,-250 2242.75,-250"/>
<text text-anchor="start" x="2135.75" y="-232.7" font-family="Helvetica,sans-Serif" font-size="14.00">P11_3_9 ≤ 0.5</text>
<text text-anchor="start" x="2111.75" y="-216.95" font-family="Helvetica,sans-Serif" font-size="14.00">friedman_mse = 3.111</text>
<text text-anchor="start" x="2134.62" y="-201.2" font-family="Helvetica,sans-Serif" font-size="14.00">samples = 155</text>
<text text-anchor="start" x="2134.62" y="-185.45" font-family="Helvetica,sans-Serif" font-size="14.00">value = 15.017</text>
</g>
<!-- 234&#45;&gt;235 -->
<g id="edge49" class="edge">
<title>234&#45;&gt;235</title>
<path fill="none" stroke="black" d="M2179.25,-285.54C2179.25,-277.92 2179.25,-269.75 2179.25,-261.77"/>
<polygon fill="black" stroke="black" points="2182.75,-261.82 2179.25,-251.82 2175.75,-261.82 2182.75,-261.82"/>
</g>
<!-- 264 -->
<g id="node57" class="node">
<title>264</title>
<path fill="#f2be99" stroke="black" d="M2490.75,-250C2490.75,-250 2369.75,-250 2369.75,-250 2363.75,-250 2357.75,-244 2357.75,-238 2357.75,-238 2357.75,-191 2357.75,-191 2357.75,-185 2363.75,-179 2369.75,-179 2369.75,-179 2490.75,-179 2490.75,-179 2496.75,-179 2502.75,-185 2502.75,-191 2502.75,-191 2502.75,-238 2502.75,-238 2502.75,-244 2496.75,-250 2490.75,-250"/>
<text text-anchor="start" x="2393.88" y="-232.7" font-family="Helvetica,sans-Serif" font-size="14.00">P12_1 ≤ 0.5</text>
<text text-anchor="start" x="2365.75" y="-216.95" font-family="Helvetica,sans-Serif" font-size="14.00">friedman_mse = 5.23</text>
<text text-anchor="start" x="2385.62" y="-201.2" font-family="Helvetica,sans-Serif" font-size="14.00">samples = 225</text>
<text text-anchor="start" x="2385.62" y="-185.45" font-family="Helvetica,sans-Serif" font-size="14.00">value = 12.373</text>
</g>
<!-- 234&#45;&gt;264 -->
<g id="edge56" class="edge">
<title>234&#45;&gt;264</title>
<path fill="none" stroke="black" d="M2255.92,-288.43C2284.81,-276.34 2317.79,-262.55 2347.23,-250.23"/>
<polygon fill="black" stroke="black" points="2348.21,-253.61 2356.09,-246.52 2345.51,-247.16 2348.21,-253.61"/>
</g>
<!-- 236 -->
<g id="node51" class="node">
<title>236</title>
<path fill="#eba06a" stroke="black" d="M2160.5,-143C2160.5,-143 2032,-143 2032,-143 2026,-143 2020,-137 2020,-131 2020,-131 2020,-84 2020,-84 2020,-78 2026,-72 2032,-72 2032,-72 2160.5,-72 2160.5,-72 2166.5,-72 2172.5,-78 2172.5,-84 2172.5,-84 2172.5,-131 2172.5,-131 2172.5,-137 2166.5,-143 2160.5,-143"/>
<text text-anchor="start" x="2059.88" y="-125.7" font-family="Helvetica,sans-Serif" font-size="14.00">P12_2 ≤ 1.5</text>
<text text-anchor="start" x="2028" y="-109.95" font-family="Helvetica,sans-Serif" font-size="14.00">friedman_mse = 1.991</text>
<text text-anchor="start" x="2051.62" y="-94.2" font-family="Helvetica,sans-Serif" font-size="14.00">samples = 100</text>
<text text-anchor="start" x="2051.62" y="-78.45" font-family="Helvetica,sans-Serif" font-size="14.00">value = 15.637</text>
</g>
<!-- 235&#45;&gt;236 -->
<g id="edge50" class="edge">
<title>235&#45;&gt;236</title>
<path fill="none" stroke="black" d="M2151.61,-178.54C2144.96,-170.12 2137.78,-161.03 2130.85,-152.27"/>
<polygon fill="black" stroke="black" points="2133.65,-150.17 2124.71,-144.5 2128.16,-154.51 2133.65,-150.17"/>
</g>
<!-- 253 -->
<g id="node54" class="node">
<title>253</title>
<path fill="#efb083" stroke="black" d="M2323.75,-143C2323.75,-143 2202.75,-143 2202.75,-143 2196.75,-143 2190.75,-137 2190.75,-131 2190.75,-131 2190.75,-84 2190.75,-84 2190.75,-78 2196.75,-72 2202.75,-72 2202.75,-72 2323.75,-72 2323.75,-72 2329.75,-72 2335.75,-78 2335.75,-84 2335.75,-84 2335.75,-131 2335.75,-131 2335.75,-137 2329.75,-143 2323.75,-143"/>
<text text-anchor="start" x="2223.12" y="-125.7" font-family="Helvetica,sans-Serif" font-size="14.00">P4_6_2 ≤ 1.5</text>
<text text-anchor="start" x="2198.75" y="-109.95" font-family="Helvetica,sans-Serif" font-size="14.00">friedman_mse = 3.18</text>
<text text-anchor="start" x="2222.38" y="-94.2" font-family="Helvetica,sans-Serif" font-size="14.00">samples = 55</text>
<text text-anchor="start" x="2218.62" y="-78.45" font-family="Helvetica,sans-Serif" font-size="14.00">value = 13.891</text>
</g>
<!-- 235&#45;&gt;253 -->
<g id="edge53" class="edge">
<title>235&#45;&gt;253</title>
<path fill="none" stroke="black" d="M2207.22,-178.54C2213.95,-170.12 2221.22,-161.03 2228.23,-152.27"/>
<polygon fill="black" stroke="black" points="2230.94,-154.49 2234.46,-144.49 2225.48,-150.11 2230.94,-154.49"/>
</g>
<!-- 237 -->
<g id="node52" class="node">
<title>237</title>
<path fill="#c0c0c0" stroke="black" d="M2050.25,-36C2050.25,-36 2020.25,-36 2020.25,-36 2014.25,-36 2008.25,-30 2008.25,-24 2008.25,-24 2008.25,-12 2008.25,-12 2008.25,-6 2014.25,0 2020.25,0 2020.25,0 2050.25,0 2050.25,0 2056.25,0 2062.25,-6 2062.25,-12 2062.25,-12 2062.25,-24 2062.25,-24 2062.25,-30 2056.25,-36 2050.25,-36"/>
<text text-anchor="middle" x="2035.25" y="-12.57" font-family="Helvetica,sans-Serif" font-size="14.00">(...)</text>
</g>
<!-- 236&#45;&gt;237 -->
<g id="edge51" class="edge">
<title>236&#45;&gt;237</title>
<path fill="none" stroke="black" d="M2071.97,-71.67C2065.92,-62.99 2059.53,-53.83 2053.81,-45.62"/>
<polygon fill="black" stroke="black" points="2056.68,-43.63 2048.09,-37.42 2050.94,-47.63 2056.68,-43.63"/>
</g>
<!-- 240 -->
<g id="node53" class="node">
<title>240</title>
<path fill="#c0c0c0" stroke="black" d="M2122.25,-36C2122.25,-36 2092.25,-36 2092.25,-36 2086.25,-36 2080.25,-30 2080.25,-24 2080.25,-24 2080.25,-12 2080.25,-12 2080.25,-6 2086.25,0 2092.25,0 2092.25,0 2122.25,0 2122.25,0 2128.25,0 2134.25,-6 2134.25,-12 2134.25,-12 2134.25,-24 2134.25,-24 2134.25,-30 2128.25,-36 2122.25,-36"/>
<text text-anchor="middle" x="2107.25" y="-12.57" font-family="Helvetica,sans-Serif" font-size="14.00">(...)</text>
</g>
<!-- 236&#45;&gt;240 -->
<g id="edge52" class="edge">
<title>236&#45;&gt;240</title>
<path fill="none" stroke="black" d="M2100.63,-71.67C2101.64,-63.66 2102.69,-55.24 2103.66,-47.53"/>
<polygon fill="black" stroke="black" points="2107.13,-48.04 2104.9,-37.68 2100.18,-47.17 2107.13,-48.04"/>
</g>
<!-- 254 -->
<g id="node55" class="node">
<title>254</title>
<path fill="#c0c0c0" stroke="black" d="M2217.25,-36C2217.25,-36 2187.25,-36 2187.25,-36 2181.25,-36 2175.25,-30 2175.25,-24 2175.25,-24 2175.25,-12 2175.25,-12 2175.25,-6 2181.25,0 2187.25,0 2187.25,0 2217.25,0 2217.25,0 2223.25,0 2229.25,-6 2229.25,-12 2229.25,-12 2229.25,-24 2229.25,-24 2229.25,-30 2223.25,-36 2217.25,-36"/>
<text text-anchor="middle" x="2202.25" y="-12.57" font-family="Helvetica,sans-Serif" font-size="14.00">(...)</text>
</g>
<!-- 253&#45;&gt;254 -->
<g id="edge54" class="edge">
<title>253&#45;&gt;254</title>
<path fill="none" stroke="black" d="M2238.97,-71.67C2232.92,-62.99 2226.53,-53.83 2220.81,-45.62"/>
<polygon fill="black" stroke="black" points="2223.68,-43.63 2215.09,-37.42 2217.94,-47.63 2223.68,-43.63"/>
</g>
<!-- 263 -->
<g id="node56" class="node">
<title>263</title>
<path fill="#c0c0c0" stroke="black" d="M2289.25,-36C2289.25,-36 2259.25,-36 2259.25,-36 2253.25,-36 2247.25,-30 2247.25,-24 2247.25,-24 2247.25,-12 2247.25,-12 2247.25,-6 2253.25,0 2259.25,0 2259.25,0 2289.25,0 2289.25,0 2295.25,0 2301.25,-6 2301.25,-12 2301.25,-12 2301.25,-24 2301.25,-24 2301.25,-30 2295.25,-36 2289.25,-36"/>
<text text-anchor="middle" x="2274.25" y="-12.57" font-family="Helvetica,sans-Serif" font-size="14.00">(...)</text>
</g>
<!-- 253&#45;&gt;263 -->
<g id="edge55" class="edge">
<title>253&#45;&gt;263</title>
<path fill="none" stroke="black" d="M2267.63,-71.67C2268.64,-63.66 2269.69,-55.24 2270.66,-47.53"/>
<polygon fill="black" stroke="black" points="2274.13,-48.04 2271.9,-37.68 2267.18,-47.17 2274.13,-48.04"/>
</g>
<!-- 265 -->
<g id="node58" class="node">
<title>265</title>
<path fill="#f1b991" stroke="black" d="M2494.5,-143C2494.5,-143 2366,-143 2366,-143 2360,-143 2354,-137 2354,-131 2354,-131 2354,-84 2354,-84 2354,-78 2360,-72 2366,-72 2366,-72 2494.5,-72 2494.5,-72 2500.5,-72 2506.5,-78 2506.5,-84 2506.5,-84 2506.5,-131 2506.5,-131 2506.5,-137 2500.5,-143 2494.5,-143"/>
<text text-anchor="start" x="2386.75" y="-125.7" font-family="Helvetica,sans-Serif" font-size="14.00">P11_3_9 ≤ 0.5</text>
<text text-anchor="start" x="2362" y="-109.95" font-family="Helvetica,sans-Serif" font-size="14.00">friedman_mse = 3.841</text>
<text text-anchor="start" x="2385.62" y="-94.2" font-family="Helvetica,sans-Serif" font-size="14.00">samples = 189</text>
<text text-anchor="start" x="2385.62" y="-78.45" font-family="Helvetica,sans-Serif" font-size="14.00">value = 12.912</text>
</g>
<!-- 264&#45;&gt;265 -->
<g id="edge57" class="edge">
<title>264&#45;&gt;265</title>
<path fill="none" stroke="black" d="M2430.25,-178.54C2430.25,-170.92 2430.25,-162.75 2430.25,-154.77"/>
<polygon fill="black" stroke="black" points="2433.75,-154.82 2430.25,-144.82 2426.75,-154.82 2433.75,-154.82"/>
</g>
<!-- 296 -->
<g id="node61" class="node">
<title>296</title>
<path fill="#f7d8c2" stroke="black" d="M2665.5,-143C2665.5,-143 2537,-143 2537,-143 2531,-143 2525,-137 2525,-131 2525,-131 2525,-84 2525,-84 2525,-78 2531,-72 2537,-72 2537,-72 2665.5,-72 2665.5,-72 2671.5,-72 2677.5,-78 2677.5,-84 2677.5,-84 2677.5,-131 2677.5,-131 2677.5,-137 2671.5,-143 2665.5,-143"/>
<text text-anchor="start" x="2561.12" y="-125.7" font-family="Helvetica,sans-Serif" font-size="14.00">P4_6_1 ≤ 1.5</text>
<text text-anchor="start" x="2533" y="-109.95" font-family="Helvetica,sans-Serif" font-size="14.00">friedman_mse = 3.007</text>
<text text-anchor="start" x="2560.38" y="-94.2" font-family="Helvetica,sans-Serif" font-size="14.00">samples = 36</text>
<text text-anchor="start" x="2560.38" y="-78.45" font-family="Helvetica,sans-Serif" font-size="14.00">value = 9.546</text>
</g>
<!-- 264&#45;&gt;296 -->
<g id="edge60" class="edge">
<title>264&#45;&gt;296</title>
<path fill="none" stroke="black" d="M2487.19,-178.54C2502.4,-169.2 2518.97,-159.03 2534.64,-149.4"/>
<polygon fill="black" stroke="black" points="2536.29,-152.5 2542.98,-144.28 2532.62,-146.53 2536.29,-152.5"/>
</g>
<!-- 266 -->
<g id="node59" class="node">
<title>266</title>
<path fill="#c0c0c0" stroke="black" d="M2404.25,-36C2404.25,-36 2374.25,-36 2374.25,-36 2368.25,-36 2362.25,-30 2362.25,-24 2362.25,-24 2362.25,-12 2362.25,-12 2362.25,-6 2368.25,0 2374.25,0 2374.25,0 2404.25,0 2404.25,0 2410.25,0 2416.25,-6 2416.25,-12 2416.25,-12 2416.25,-24 2416.25,-24 2416.25,-30 2410.25,-36 2404.25,-36"/>
<text text-anchor="middle" x="2389.25" y="-12.57" font-family="Helvetica,sans-Serif" font-size="14.00">(...)</text>
</g>
<!-- 265&#45;&gt;266 -->
<g id="edge58" class="edge">
<title>265&#45;&gt;266</title>
<path fill="none" stroke="black" d="M2413.93,-71.67C2410,-63.28 2405.85,-54.43 2402.11,-46.44"/>
<polygon fill="black" stroke="black" points="2405.36,-45.12 2397.94,-37.55 2399.02,-48.09 2405.36,-45.12"/>
</g>
<!-- 285 -->
<g id="node60" class="node">
<title>285</title>
<path fill="#c0c0c0" stroke="black" d="M2476.25,-36C2476.25,-36 2446.25,-36 2446.25,-36 2440.25,-36 2434.25,-30 2434.25,-24 2434.25,-24 2434.25,-12 2434.25,-12 2434.25,-6 2440.25,0 2446.25,0 2446.25,0 2476.25,0 2476.25,0 2482.25,0 2488.25,-6 2488.25,-12 2488.25,-12 2488.25,-24 2488.25,-24 2488.25,-30 2482.25,-36 2476.25,-36"/>
<text text-anchor="middle" x="2461.25" y="-12.57" font-family="Helvetica,sans-Serif" font-size="14.00">(...)</text>
</g>
<!-- 265&#45;&gt;285 -->
<g id="edge59" class="edge">
<title>265&#45;&gt;285</title>
<path fill="none" stroke="black" d="M2442.59,-71.67C2445.5,-63.47 2448.55,-54.84 2451.34,-46.98"/>
<polygon fill="black" stroke="black" points="2454.62,-48.2 2454.66,-37.61 2448.02,-45.87 2454.62,-48.2"/>
</g>
<!-- 297 -->
<g id="node62" class="node">
<title>297</title>
<path fill="#c0c0c0" stroke="black" d="M2580.25,-36C2580.25,-36 2550.25,-36 2550.25,-36 2544.25,-36 2538.25,-30 2538.25,-24 2538.25,-24 2538.25,-12 2538.25,-12 2538.25,-6 2544.25,0 2550.25,0 2550.25,0 2580.25,0 2580.25,0 2586.25,0 2592.25,-6 2592.25,-12 2592.25,-12 2592.25,-24 2592.25,-24 2592.25,-30 2586.25,-36 2580.25,-36"/>
<text text-anchor="middle" x="2565.25" y="-12.57" font-family="Helvetica,sans-Serif" font-size="14.00">(...)</text>
</g>
<!-- 296&#45;&gt;297 -->
<g id="edge61" class="edge">
<title>296&#45;&gt;297</title>
<path fill="none" stroke="black" d="M2586.92,-71.67C2583.51,-63.37 2579.91,-54.63 2576.65,-46.71"/>
<polygon fill="black" stroke="black" points="2579.94,-45.5 2572.9,-37.58 2573.46,-48.16 2579.94,-45.5"/>
</g>
<!-- 300 -->
<g id="node63" class="node">
<title>300</title>
<path fill="#c0c0c0" stroke="black" d="M2652.25,-36C2652.25,-36 2622.25,-36 2622.25,-36 2616.25,-36 2610.25,-30 2610.25,-24 2610.25,-24 2610.25,-12 2610.25,-12 2610.25,-6 2616.25,0 2622.25,0 2622.25,0 2652.25,0 2652.25,0 2658.25,0 2664.25,-6 2664.25,-12 2664.25,-12 2664.25,-24 2664.25,-24 2664.25,-30 2658.25,-36 2652.25,-36"/>
<text text-anchor="middle" x="2637.25" y="-12.57" font-family="Helvetica,sans-Serif" font-size="14.00">(...)</text>
</g>
<!-- 296&#45;&gt;300 -->
<g id="edge62" class="edge">
<title>296&#45;&gt;300</title>
<path fill="none" stroke="black" d="M2615.58,-71.67C2618.99,-63.37 2622.59,-54.63 2625.85,-46.71"/>
<polygon fill="black" stroke="black" points="2629.04,-48.16 2629.6,-37.58 2622.56,-45.5 2629.04,-48.16"/>
</g>
</g>
</svg>
