<?xml version="1.0" encoding="UTF-8" standalone="no"?>
<!DOCTYPE svg PUBLIC "-//W3C//DTD SVG 1.1//EN"
 "http://www.w3.org/Graphics/SVG/1.1/DTD/svg11.dtd">
<!-- Generated by graphviz version 12.2.1 (20241206.2353)
 -->
<!-- Title: Tree Pages: 1 -->
<svg width="2294pt" height="579pt"
 viewBox="0.00 0.00 2294.00 579.00" xmlns="http://www.w3.org/2000/svg" xmlns:xlink="http://www.w3.org/1999/xlink">
<g id="graph0" class="graph" transform="scale(1 1) rotate(0) translate(4 575)">
<title>Tree</title>
<polygon fill="white" stroke="none" points="-4,4 -4,-575 2290,-575 2290,4 -4,4"/>
<!-- 0 -->
<g id="node1" class="node">
<title>0</title>
<path fill="#f2bf9b" stroke="black" d="M1253.38,-571C1253.38,-571 1164.62,-571 1164.62,-571 1158.62,-571 1152.62,-565 1152.62,-559 1152.62,-559 1152.62,-512 1152.62,-512 1152.62,-506 1158.62,-500 1164.62,-500 1164.62,-500 1253.38,-500 1253.38,-500 1259.38,-500 1265.38,-506 1265.38,-512 1265.38,-512 1265.38,-559 1265.38,-559 1265.38,-565 1259.38,-571 1253.38,-571"/>
<text text-anchor="start" x="1168.88" y="-553.7" font-family="Helvetica,sans-Serif" font-size="14.00">P4_6_3 ≤ 1.5</text>
<text text-anchor="start" x="1164.75" y="-537.95" font-family="Helvetica,sans-Serif" font-size="14.00">poisson = 0.36</text>
<text text-anchor="start" x="1160.62" y="-522.2" font-family="Helvetica,sans-Serif" font-size="14.00">samples = 4934</text>
<text text-anchor="start" x="1164.75" y="-506.45" font-family="Helvetica,sans-Serif" font-size="14.00">value = 11.783</text>
</g>
<!-- 1 -->
<g id="node2" class="node">
<title>1</title>
<path fill="#f6d3ba" stroke="black" d="M900.38,-464C900.38,-464 811.62,-464 811.62,-464 805.62,-464 799.62,-458 799.62,-452 799.62,-452 799.62,-405 799.62,-405 799.62,-399 805.62,-393 811.62,-393 811.62,-393 900.38,-393 900.38,-393 906.38,-393 912.38,-399 912.38,-405 912.38,-405 912.38,-452 912.38,-452 912.38,-458 906.38,-464 900.38,-464"/>
<text text-anchor="start" x="815.88" y="-446.7" font-family="Helvetica,sans-Serif" font-size="14.00">P4_6_4 ≤ 1.5</text>
<text text-anchor="start" x="808" y="-430.95" font-family="Helvetica,sans-Serif" font-size="14.00">poisson = 0.286</text>
<text text-anchor="start" x="807.62" y="-415.2" font-family="Helvetica,sans-Serif" font-size="14.00">samples = 1035</text>
<text text-anchor="start" x="818.88" y="-399.45" font-family="Helvetica,sans-Serif" font-size="14.00">value = 9.32</text>
</g>
<!-- 0&#45;&gt;1 -->
<g id="edge1" class="edge">
<title>0&#45;&gt;1</title>
<path fill="none" stroke="black" d="M1152.28,-517.63C1089.98,-499.1 989.96,-469.35 923.62,-449.61"/>
<polygon fill="black" stroke="black" points="924.9,-446.34 914.32,-446.85 922.9,-453.05 924.9,-446.34"/>
<text text-anchor="middle" x="924.77" y="-462.97" font-family="Helvetica,sans-Serif" font-size="14.00">True</text>
</g>
<!-- 224 -->
<g id="node33" class="node">
<title>224</title>
<path fill="#f1ba93" stroke="black" d="M1474.38,-464C1474.38,-464 1385.62,-464 1385.62,-464 1379.62,-464 1373.62,-458 1373.62,-452 1373.62,-452 1373.62,-405 1373.62,-405 1373.62,-399 1379.62,-393 1385.62,-393 1385.62,-393 1474.38,-393 1474.38,-393 1480.38,-393 1486.38,-399 1486.38,-405 1486.38,-405 1486.38,-452 1486.38,-452 1486.38,-458 1480.38,-464 1474.38,-464"/>
<text text-anchor="start" x="1389.88" y="-446.7" font-family="Helvetica,sans-Serif" font-size="14.00">P4_6_4 ≤ 1.5</text>
<text text-anchor="start" x="1382" y="-430.95" font-family="Helvetica,sans-Serif" font-size="14.00">poisson = 0.289</text>
<text text-anchor="start" x="1381.62" y="-415.2" font-family="Helvetica,sans-Serif" font-size="14.00">samples = 3899</text>
<text text-anchor="start" x="1385.38" y="-399.45" font-family="Helvetica,sans-Serif" font-size="14.00">value = 12.436</text>
</g>
<!-- 0&#45;&gt;224 -->
<g id="edge32" class="edge">
<title>0&#45;&gt;224</title>
<path fill="none" stroke="black" d="M1265.63,-507.6C1295.27,-493.51 1331.76,-476.17 1362.83,-461.41"/>
<polygon fill="black" stroke="black" points="1364.24,-464.62 1371.77,-457.17 1361.24,-458.3 1364.24,-464.62"/>
<text text-anchor="middle" x="1364.76" y="-474.64" font-family="Helvetica,sans-Serif" font-size="14.00">False</text>
</g>
<!-- 2 -->
<g id="node3" class="node">
<title>2</title>
<path fill="#f4caac" stroke="black" d="M485,-357C485,-357 397,-357 397,-357 391,-357 385,-351 385,-345 385,-345 385,-298 385,-298 385,-292 391,-286 397,-286 397,-286 485,-286 485,-286 491,-286 497,-292 497,-298 497,-298 497,-345 497,-345 497,-351 491,-357 485,-357"/>
<text text-anchor="start" x="397.5" y="-339.7" font-family="Helvetica,sans-Serif" font-size="14.00">P11_3_9 ≤ 0.5</text>
<text text-anchor="start" x="393" y="-323.95" font-family="Helvetica,sans-Serif" font-size="14.00">poisson = 0.198</text>
<text text-anchor="start" x="396.38" y="-308.2" font-family="Helvetica,sans-Serif" font-size="14.00">samples = 489</text>
<text text-anchor="start" x="396.38" y="-292.45" font-family="Helvetica,sans-Serif" font-size="14.00">value = 10.406</text>
</g>
<!-- 1&#45;&gt;2 -->
<g id="edge2" class="edge">
<title>1&#45;&gt;2</title>
<path fill="none" stroke="black" d="M799.17,-413.12C723.37,-393.94 589.38,-360.04 508.52,-339.58"/>
<polygon fill="black" stroke="black" points="509.5,-336.22 498.95,-337.16 507.78,-343.01 509.5,-336.22"/>
</g>
<!-- 109 -->
<g id="node18" class="node">
<title>109</title>
<path fill="#f8dbc6" stroke="black" d="M900,-357C900,-357 812,-357 812,-357 806,-357 800,-351 800,-345 800,-345 800,-298 800,-298 800,-292 806,-286 812,-286 812,-286 900,-286 900,-286 906,-286 912,-292 912,-298 912,-298 912,-345 912,-345 912,-351 906,-357 900,-357"/>
<text text-anchor="start" x="815.88" y="-339.7" font-family="Helvetica,sans-Serif" font-size="14.00">P4_6_1 ≤ 1.5</text>
<text text-anchor="start" x="808" y="-323.95" font-family="Helvetica,sans-Serif" font-size="14.00">poisson = 0.257</text>
<text text-anchor="start" x="811.38" y="-308.2" font-family="Helvetica,sans-Serif" font-size="14.00">samples = 546</text>
<text text-anchor="start" x="815.12" y="-292.45" font-family="Helvetica,sans-Serif" font-size="14.00">value = 8.347</text>
</g>
<!-- 1&#45;&gt;109 -->
<g id="edge17" class="edge">
<title>1&#45;&gt;109</title>
<path fill="none" stroke="black" d="M856,-392.54C856,-384.92 856,-376.75 856,-368.77"/>
<polygon fill="black" stroke="black" points="859.5,-368.82 856,-358.82 852.5,-368.82 859.5,-368.82"/>
</g>
<!-- 3 -->
<g id="node4" class="node">
<title>3</title>
<path fill="#f3c4a3" stroke="black" d="M276.62,-250C276.62,-250 195.38,-250 195.38,-250 189.38,-250 183.38,-244 183.38,-238 183.38,-238 183.38,-191 183.38,-191 183.38,-185 189.38,-179 195.38,-179 195.38,-179 276.62,-179 276.62,-179 282.62,-179 288.62,-185 288.62,-191 288.62,-191 288.62,-238 288.62,-238 288.62,-244 282.62,-250 276.62,-250"/>
<text text-anchor="start" x="195.88" y="-232.7" font-family="Helvetica,sans-Serif" font-size="14.00">P4_7_2 ≤ 0.5</text>
<text text-anchor="start" x="191.75" y="-216.95" font-family="Helvetica,sans-Serif" font-size="14.00">poisson = 0.15</text>
<text text-anchor="start" x="191.38" y="-201.2" font-family="Helvetica,sans-Serif" font-size="14.00">samples = 265</text>
<text text-anchor="start" x="191.75" y="-185.45" font-family="Helvetica,sans-Serif" font-size="14.00">value = 11.157</text>
</g>
<!-- 2&#45;&gt;3 -->
<g id="edge3" class="edge">
<title>2&#45;&gt;3</title>
<path fill="none" stroke="black" d="M384.71,-291.67C358.23,-278.1 326.53,-261.87 299.22,-247.88"/>
<polygon fill="black" stroke="black" points="300.83,-244.78 290.34,-243.33 297.64,-251.01 300.83,-244.78"/>
</g>
<!-- 60 -->
<g id="node11" class="node">
<title>60</title>
<path fill="#f6d2b8" stroke="black" d="M485,-250C485,-250 397,-250 397,-250 391,-250 385,-244 385,-238 385,-238 385,-191 385,-191 385,-185 391,-179 397,-179 397,-179 485,-179 485,-179 491,-179 497,-185 497,-191 497,-191 497,-238 497,-238 497,-244 491,-250 485,-250"/>
<text text-anchor="start" x="400.88" y="-232.7" font-family="Helvetica,sans-Serif" font-size="14.00">P4_6_1 ≤ 1.5</text>
<text text-anchor="start" x="393" y="-216.95" font-family="Helvetica,sans-Serif" font-size="14.00">poisson = 0.184</text>
<text text-anchor="start" x="396.38" y="-201.2" font-family="Helvetica,sans-Serif" font-size="14.00">samples = 224</text>
<text text-anchor="start" x="400.12" y="-185.45" font-family="Helvetica,sans-Serif" font-size="14.00">value = 9.518</text>
</g>
<!-- 2&#45;&gt;60 -->
<g id="edge10" class="edge">
<title>2&#45;&gt;60</title>
<path fill="none" stroke="black" d="M441,-285.54C441,-277.92 441,-269.75 441,-261.77"/>
<polygon fill="black" stroke="black" points="444.5,-261.82 441,-251.82 437.5,-261.82 444.5,-261.82"/>
</g>
<!-- 4 -->
<g id="node5" class="node">
<title>4</title>
<path fill="#f2c19d" stroke="black" d="M143,-143C143,-143 55,-143 55,-143 49,-143 43,-137 43,-131 43,-131 43,-84 43,-84 43,-78 49,-72 55,-72 55,-72 143,-72 143,-72 149,-72 155,-78 155,-84 155,-84 155,-131 155,-131 155,-137 149,-143 143,-143"/>
<text text-anchor="start" x="58.88" y="-125.7" font-family="Helvetica,sans-Serif" font-size="14.00">P4_6_2 ≤ 1.5</text>
<text text-anchor="start" x="51" y="-109.95" font-family="Helvetica,sans-Serif" font-size="14.00">poisson = 0.103</text>
<text text-anchor="start" x="54.38" y="-94.2" font-family="Helvetica,sans-Serif" font-size="14.00">samples = 206</text>
<text text-anchor="start" x="54.75" y="-78.45" font-family="Helvetica,sans-Serif" font-size="14.00">value = 11.625</text>
</g>
<!-- 3&#45;&gt;4 -->
<g id="edge4" class="edge">
<title>3&#45;&gt;4</title>
<path fill="none" stroke="black" d="M190.38,-178.54C178.48,-169.42 165.54,-159.5 153.24,-150.07"/>
<polygon fill="black" stroke="black" points="155.69,-147.54 145.62,-144.23 151.43,-153.09 155.69,-147.54"/>
</g>
<!-- 47 -->
<g id="node8" class="node">
<title>47</title>
<path fill="#f6d2b8" stroke="black" d="M280,-143C280,-143 192,-143 192,-143 186,-143 180,-137 180,-131 180,-131 180,-84 180,-84 180,-78 186,-72 192,-72 192,-72 280,-72 280,-72 286,-72 292,-78 292,-84 292,-84 292,-131 292,-131 292,-137 286,-143 280,-143"/>
<text text-anchor="start" x="192.5" y="-125.7" font-family="Helvetica,sans-Serif" font-size="14.00">P11_3_1 ≤ 0.5</text>
<text text-anchor="start" x="188" y="-109.95" font-family="Helvetica,sans-Serif" font-size="14.00">poisson = 0.156</text>
<text text-anchor="start" x="195.12" y="-94.2" font-family="Helvetica,sans-Serif" font-size="14.00">samples = 59</text>
<text text-anchor="start" x="195.12" y="-78.45" font-family="Helvetica,sans-Serif" font-size="14.00">value = 9.525</text>
</g>
<!-- 3&#45;&gt;47 -->
<g id="edge7" class="edge">
<title>3&#45;&gt;47</title>
<path fill="none" stroke="black" d="M236,-178.54C236,-170.92 236,-162.75 236,-154.77"/>
<polygon fill="black" stroke="black" points="239.5,-154.82 236,-144.82 232.5,-154.82 239.5,-154.82"/>
</g>
<!-- 5 -->
<g id="node6" class="node">
<title>5</title>
<path fill="#c0c0c0" stroke="black" d="M42,-36C42,-36 12,-36 12,-36 6,-36 0,-30 0,-24 0,-24 0,-12 0,-12 0,-6 6,0 12,0 12,0 42,0 42,0 48,0 54,-6 54,-12 54,-12 54,-24 54,-24 54,-30 48,-36 42,-36"/>
<text text-anchor="middle" x="27" y="-12.57" font-family="Helvetica,sans-Serif" font-size="14.00">(...)</text>
</g>
<!-- 4&#45;&gt;5 -->
<g id="edge5" class="edge">
<title>4&#45;&gt;5</title>
<path fill="none" stroke="black" d="M70.34,-71.67C62.96,-62.71 55.16,-53.23 48.24,-44.81"/>
<polygon fill="black" stroke="black" points="51.16,-42.85 42.1,-37.35 45.75,-47.3 51.16,-42.85"/>
</g>
<!-- 38 -->
<g id="node7" class="node">
<title>38</title>
<path fill="#c0c0c0" stroke="black" d="M114,-36C114,-36 84,-36 84,-36 78,-36 72,-30 72,-24 72,-24 72,-12 72,-12 72,-6 78,0 84,0 84,0 114,0 114,0 120,0 126,-6 126,-12 126,-12 126,-24 126,-24 126,-30 120,-36 114,-36"/>
<text text-anchor="middle" x="99" y="-12.57" font-family="Helvetica,sans-Serif" font-size="14.00">(...)</text>
</g>
<!-- 4&#45;&gt;38 -->
<g id="edge6" class="edge">
<title>4&#45;&gt;38</title>
<path fill="none" stroke="black" d="M99,-71.67C99,-63.66 99,-55.24 99,-47.53"/>
<polygon fill="black" stroke="black" points="102.5,-47.7 99,-37.7 95.5,-47.7 102.5,-47.7"/>
</g>
<!-- 48 -->
<g id="node9" class="node">
<title>48</title>
<path fill="#c0c0c0" stroke="black" d="M186,-36C186,-36 156,-36 156,-36 150,-36 144,-30 144,-24 144,-24 144,-12 144,-12 144,-6 150,0 156,0 156,0 186,0 186,0 192,0 198,-6 198,-12 198,-12 198,-24 198,-24 198,-30 192,-36 186,-36"/>
<text text-anchor="middle" x="171" y="-12.57" font-family="Helvetica,sans-Serif" font-size="14.00">(...)</text>
</g>
<!-- 47&#45;&gt;48 -->
<g id="edge8" class="edge">
<title>47&#45;&gt;48</title>
<path fill="none" stroke="black" d="M210.12,-71.67C203.61,-62.9 196.72,-53.63 190.58,-45.35"/>
<polygon fill="black" stroke="black" points="193.44,-43.34 184.67,-37.4 187.82,-47.51 193.44,-43.34"/>
</g>
<!-- 51 -->
<g id="node10" class="node">
<title>51</title>
<path fill="#c0c0c0" stroke="black" d="M258,-36C258,-36 228,-36 228,-36 222,-36 216,-30 216,-24 216,-24 216,-12 216,-12 216,-6 222,0 228,0 228,0 258,0 258,0 264,0 270,-6 270,-12 270,-12 270,-24 270,-24 270,-30 264,-36 258,-36"/>
<text text-anchor="middle" x="243" y="-12.57" font-family="Helvetica,sans-Serif" font-size="14.00">(...)</text>
</g>
<!-- 47&#45;&gt;51 -->
<g id="edge9" class="edge">
<title>47&#45;&gt;51</title>
<path fill="none" stroke="black" d="M238.79,-71.67C239.43,-63.66 240.1,-55.24 240.72,-47.53"/>
<polygon fill="black" stroke="black" points="244.2,-47.94 241.5,-37.69 237.22,-47.38 244.2,-47.94"/>
</g>
<!-- 61 -->
<g id="node12" class="node">
<title>61</title>
<path fill="#f5cdb1" stroke="black" d="M420,-143C420,-143 332,-143 332,-143 326,-143 320,-137 320,-131 320,-131 320,-84 320,-84 320,-78 326,-72 332,-72 332,-72 420,-72 420,-72 426,-72 432,-78 432,-84 432,-84 432,-131 432,-131 432,-137 426,-143 420,-143"/>
<text text-anchor="start" x="335.88" y="-125.7" font-family="Helvetica,sans-Serif" font-size="14.00">P4_7_1 ≤ 0.5</text>
<text text-anchor="start" x="328" y="-109.95" font-family="Helvetica,sans-Serif" font-size="14.00">poisson = 0.141</text>
<text text-anchor="start" x="331.38" y="-94.2" font-family="Helvetica,sans-Serif" font-size="14.00">samples = 162</text>
<text text-anchor="start" x="331.38" y="-78.45" font-family="Helvetica,sans-Serif" font-size="14.00">value = 10.033</text>
</g>
<!-- 60&#45;&gt;61 -->
<g id="edge11" class="edge">
<title>60&#45;&gt;61</title>
<path fill="none" stroke="black" d="M419.36,-178.54C414.26,-170.3 408.76,-161.42 403.44,-152.83"/>
<polygon fill="black" stroke="black" points="406.59,-151.26 398.35,-144.6 400.63,-154.94 406.59,-151.26"/>
</g>
<!-- 96 -->
<g id="node15" class="node">
<title>96</title>
<path fill="#f8dcc9" stroke="black" d="M550,-143C550,-143 462,-143 462,-143 456,-143 450,-137 450,-131 450,-131 450,-84 450,-84 450,-78 456,-72 462,-72 462,-72 550,-72 550,-72 556,-72 562,-78 562,-84 562,-84 562,-131 562,-131 562,-137 556,-143 550,-143"/>
<text text-anchor="start" x="465.88" y="-125.7" font-family="Helvetica,sans-Serif" font-size="14.00">P5_1_5 ≤ 0.5</text>
<text text-anchor="start" x="458" y="-109.95" font-family="Helvetica,sans-Serif" font-size="14.00">poisson = 0.162</text>
<text text-anchor="start" x="465.12" y="-94.2" font-family="Helvetica,sans-Serif" font-size="14.00">samples = 62</text>
<text text-anchor="start" x="465.12" y="-78.45" font-family="Helvetica,sans-Serif" font-size="14.00">value = 8.172</text>
</g>
<!-- 60&#45;&gt;96 -->
<g id="edge14" class="edge">
<title>60&#45;&gt;96</title>
<path fill="none" stroke="black" d="M462.64,-178.54C467.74,-170.3 473.24,-161.42 478.56,-152.83"/>
<polygon fill="black" stroke="black" points="481.37,-154.94 483.65,-144.6 475.41,-151.26 481.37,-154.94"/>
</g>
<!-- 62 -->
<g id="node13" class="node">
<title>62</title>
<path fill="#c0c0c0" stroke="black" d="M330,-36C330,-36 300,-36 300,-36 294,-36 288,-30 288,-24 288,-24 288,-12 288,-12 288,-6 294,0 300,0 300,0 330,0 330,0 336,0 342,-6 342,-12 342,-12 342,-24 342,-24 342,-30 336,-36 330,-36"/>
<text text-anchor="middle" x="315" y="-12.57" font-family="Helvetica,sans-Serif" font-size="14.00">(...)</text>
</g>
<!-- 61&#45;&gt;62 -->
<g id="edge12" class="edge">
<title>61&#45;&gt;62</title>
<path fill="none" stroke="black" d="M351.72,-71.67C345.67,-62.99 339.28,-53.83 333.56,-45.62"/>
<polygon fill="black" stroke="black" points="336.43,-43.63 327.84,-37.42 330.69,-47.63 336.43,-43.63"/>
</g>
<!-- 93 -->
<g id="node14" class="node">
<title>93</title>
<path fill="#c0c0c0" stroke="black" d="M402,-36C402,-36 372,-36 372,-36 366,-36 360,-30 360,-24 360,-24 360,-12 360,-12 360,-6 366,0 372,0 372,0 402,0 402,0 408,0 414,-6 414,-12 414,-12 414,-24 414,-24 414,-30 408,-36 402,-36"/>
<text text-anchor="middle" x="387" y="-12.57" font-family="Helvetica,sans-Serif" font-size="14.00">(...)</text>
</g>
<!-- 61&#45;&gt;93 -->
<g id="edge13" class="edge">
<title>61&#45;&gt;93</title>
<path fill="none" stroke="black" d="M380.38,-71.67C381.39,-63.66 382.44,-55.24 383.41,-47.53"/>
<polygon fill="black" stroke="black" points="386.88,-48.04 384.65,-37.68 379.93,-47.17 386.88,-48.04"/>
</g>
<!-- 97 -->
<g id="node16" class="node">
<title>97</title>
<path fill="#c0c0c0" stroke="black" d="M474,-36C474,-36 444,-36 444,-36 438,-36 432,-30 432,-24 432,-24 432,-12 432,-12 432,-6 438,0 444,0 444,0 474,0 474,0 480,0 486,-6 486,-12 486,-12 486,-24 486,-24 486,-30 480,-36 474,-36"/>
<text text-anchor="middle" x="459" y="-12.57" font-family="Helvetica,sans-Serif" font-size="14.00">(...)</text>
</g>
<!-- 96&#45;&gt;97 -->
<g id="edge15" class="edge">
<title>96&#45;&gt;97</title>
<path fill="none" stroke="black" d="M487.29,-71.67C482.73,-63.18 477.93,-54.23 473.59,-46.17"/>
<polygon fill="black" stroke="black" points="476.76,-44.67 468.95,-37.52 470.59,-47.98 476.76,-44.67"/>
</g>
<!-- 98 -->
<g id="node17" class="node">
<title>98</title>
<path fill="#c0c0c0" stroke="black" d="M546,-36C546,-36 516,-36 516,-36 510,-36 504,-30 504,-24 504,-24 504,-12 504,-12 504,-6 510,0 516,0 516,0 546,0 546,0 552,0 558,-6 558,-12 558,-12 558,-24 558,-24 558,-30 552,-36 546,-36"/>
<text text-anchor="middle" x="531" y="-12.57" font-family="Helvetica,sans-Serif" font-size="14.00">(...)</text>
</g>
<!-- 96&#45;&gt;98 -->
<g id="edge16" class="edge">
<title>96&#45;&gt;98</title>
<path fill="none" stroke="black" d="M515.95,-71.67C518.29,-63.47 520.76,-54.84 523,-46.98"/>
<polygon fill="black" stroke="black" points="526.29,-48.21 525.67,-37.64 519.56,-46.29 526.29,-48.21"/>
</g>
<!-- 110 -->
<g id="node19" class="node">
<title>110</title>
<path fill="#f6d5be" stroke="black" d="M835,-250C835,-250 747,-250 747,-250 741,-250 735,-244 735,-238 735,-238 735,-191 735,-191 735,-185 741,-179 747,-179 747,-179 835,-179 835,-179 841,-179 847,-185 847,-191 847,-191 847,-238 847,-238 847,-244 841,-250 835,-250"/>
<text text-anchor="start" x="762.88" y="-232.7" font-family="Helvetica,sans-Serif" font-size="14.00">NIV ≤ 3.5</text>
<text text-anchor="start" x="743" y="-216.95" font-family="Helvetica,sans-Serif" font-size="14.00">poisson = 0.191</text>
<text text-anchor="start" x="746.38" y="-201.2" font-family="Helvetica,sans-Serif" font-size="14.00">samples = 339</text>
<text text-anchor="start" x="750.12" y="-185.45" font-family="Helvetica,sans-Serif" font-size="14.00">value = 9.053</text>
</g>
<!-- 109&#45;&gt;110 -->
<g id="edge18" class="edge">
<title>109&#45;&gt;110</title>
<path fill="none" stroke="black" d="M834.36,-285.54C829.26,-277.3 823.76,-268.42 818.44,-259.83"/>
<polygon fill="black" stroke="black" points="821.59,-258.26 813.35,-251.6 815.63,-261.94 821.59,-258.26"/>
</g>
<!-- 179 -->
<g id="node26" class="node">
<title>179</title>
<path fill="#f9e4d5" stroke="black" d="M965,-250C965,-250 877,-250 877,-250 871,-250 865,-244 865,-238 865,-238 865,-191 865,-191 865,-185 871,-179 877,-179 877,-179 965,-179 965,-179 971,-179 977,-185 977,-191 977,-191 977,-238 977,-238 977,-244 971,-250 965,-250"/>
<text text-anchor="start" x="877.5" y="-232.7" font-family="Helvetica,sans-Serif" font-size="14.00">P11_3_9 ≤ 0.5</text>
<text text-anchor="start" x="873" y="-216.95" font-family="Helvetica,sans-Serif" font-size="14.00">poisson = 0.233</text>
<text text-anchor="start" x="876.38" y="-201.2" font-family="Helvetica,sans-Serif" font-size="14.00">samples = 207</text>
<text text-anchor="start" x="883.88" y="-185.45" font-family="Helvetica,sans-Serif" font-size="14.00">value = 7.19</text>
</g>
<!-- 109&#45;&gt;179 -->
<g id="edge25" class="edge">
<title>109&#45;&gt;179</title>
<path fill="none" stroke="black" d="M877.64,-285.54C882.74,-277.3 888.24,-268.42 893.56,-259.83"/>
<polygon fill="black" stroke="black" points="896.37,-261.94 898.65,-251.6 890.41,-258.26 896.37,-261.94"/>
</g>
<!-- 111 -->
<g id="node20" class="node">
<title>111</title>
<path fill="#f8dbc6" stroke="black" d="M709,-143C709,-143 621,-143 621,-143 615,-143 609,-137 609,-131 609,-131 609,-84 609,-84 609,-78 615,-72 621,-72 621,-72 709,-72 709,-72 715,-72 721,-78 721,-84 721,-84 721,-131 721,-131 721,-137 715,-143 709,-143"/>
<text text-anchor="start" x="624.88" y="-125.7" font-family="Helvetica,sans-Serif" font-size="14.00">P4_7_3 ≤ 0.5</text>
<text text-anchor="start" x="617" y="-109.95" font-family="Helvetica,sans-Serif" font-size="14.00">poisson = 0.159</text>
<text text-anchor="start" x="620.38" y="-94.2" font-family="Helvetica,sans-Serif" font-size="14.00">samples = 190</text>
<text text-anchor="start" x="624.12" y="-78.45" font-family="Helvetica,sans-Serif" font-size="14.00">value = 8.344</text>
</g>
<!-- 110&#45;&gt;111 -->
<g id="edge19" class="edge">
<title>110&#45;&gt;111</title>
<path fill="none" stroke="black" d="M749.04,-178.54C738.31,-169.59 726.66,-159.88 715.54,-150.62"/>
<polygon fill="black" stroke="black" points="717.86,-147.99 707.94,-144.28 713.38,-153.37 717.86,-147.99"/>
</g>
<!-- 148 -->
<g id="node23" class="node">
<title>148</title>
<path fill="#f5ceb2" stroke="black" d="M832.62,-143C832.62,-143 751.38,-143 751.38,-143 745.38,-143 739.38,-137 739.38,-131 739.38,-131 739.38,-84 739.38,-84 739.38,-78 745.38,-72 751.38,-72 751.38,-72 832.62,-72 832.62,-72 838.62,-72 844.62,-78 844.62,-84 844.62,-84 844.62,-131 844.62,-131 844.62,-137 838.62,-143 832.62,-143"/>
<text text-anchor="start" x="751.88" y="-125.7" font-family="Helvetica,sans-Serif" font-size="14.00">P5_1_6 ≤ 0.5</text>
<text text-anchor="start" x="747.75" y="-109.95" font-family="Helvetica,sans-Serif" font-size="14.00">poisson = 0.15</text>
<text text-anchor="start" x="747.38" y="-94.2" font-family="Helvetica,sans-Serif" font-size="14.00">samples = 149</text>
<text text-anchor="start" x="751.12" y="-78.45" font-family="Helvetica,sans-Serif" font-size="14.00">value = 9.957</text>
</g>
<!-- 110&#45;&gt;148 -->
<g id="edge22" class="edge">
<title>110&#45;&gt;148</title>
<path fill="none" stroke="black" d="M791.33,-178.54C791.41,-170.92 791.48,-162.75 791.56,-154.77"/>
<polygon fill="black" stroke="black" points="795.06,-154.86 791.65,-144.82 788.06,-154.79 795.06,-154.86"/>
</g>
<!-- 112 -->
<g id="node21" class="node">
<title>112</title>
<path fill="#c0c0c0" stroke="black" d="M618,-36C618,-36 588,-36 588,-36 582,-36 576,-30 576,-24 576,-24 576,-12 576,-12 576,-6 582,0 588,0 588,0 618,0 618,0 624,0 630,-6 630,-12 630,-12 630,-24 630,-24 630,-30 624,-36 618,-36"/>
<text text-anchor="middle" x="603" y="-12.57" font-family="Helvetica,sans-Serif" font-size="14.00">(...)</text>
</g>
<!-- 111&#45;&gt;112 -->
<g id="edge20" class="edge">
<title>111&#45;&gt;112</title>
<path fill="none" stroke="black" d="M640.32,-71.67C634.1,-62.9 627.54,-53.63 621.67,-45.35"/>
<polygon fill="black" stroke="black" points="624.69,-43.55 616.05,-37.42 618.98,-47.6 624.69,-43.55"/>
</g>
<!-- 131 -->
<g id="node22" class="node">
<title>131</title>
<path fill="#c0c0c0" stroke="black" d="M690,-36C690,-36 660,-36 660,-36 654,-36 648,-30 648,-24 648,-24 648,-12 648,-12 648,-6 654,0 660,0 660,0 690,0 690,0 696,0 702,-6 702,-12 702,-12 702,-24 702,-24 702,-30 696,-36 690,-36"/>
<text text-anchor="middle" x="675" y="-12.57" font-family="Helvetica,sans-Serif" font-size="14.00">(...)</text>
</g>
<!-- 111&#45;&gt;131 -->
<g id="edge21" class="edge">
<title>111&#45;&gt;131</title>
<path fill="none" stroke="black" d="M668.98,-71.67C669.9,-63.66 670.86,-55.24 671.74,-47.53"/>
<polygon fill="black" stroke="black" points="675.21,-48.02 672.86,-37.69 668.25,-47.22 675.21,-48.02"/>
</g>
<!-- 149 -->
<g id="node24" class="node">
<title>149</title>
<path fill="#c0c0c0" stroke="black" d="M762,-36C762,-36 732,-36 732,-36 726,-36 720,-30 720,-24 720,-24 720,-12 720,-12 720,-6 726,0 732,0 732,0 762,0 762,0 768,0 774,-6 774,-12 774,-12 774,-24 774,-24 774,-30 768,-36 762,-36"/>
<text text-anchor="middle" x="747" y="-12.57" font-family="Helvetica,sans-Serif" font-size="14.00">(...)</text>
</g>
<!-- 148&#45;&gt;149 -->
<g id="edge23" class="edge">
<title>148&#45;&gt;149</title>
<path fill="none" stroke="black" d="M774.09,-71.67C769.72,-63.18 765.12,-54.23 760.97,-46.17"/>
<polygon fill="black" stroke="black" points="764.22,-44.82 756.53,-37.53 757.99,-48.02 764.22,-44.82"/>
</g>
<!-- 156 -->
<g id="node25" class="node">
<title>156</title>
<path fill="#c0c0c0" stroke="black" d="M834,-36C834,-36 804,-36 804,-36 798,-36 792,-30 792,-24 792,-24 792,-12 792,-12 792,-6 798,0 804,0 804,0 834,0 834,0 840,0 846,-6 846,-12 846,-12 846,-24 846,-24 846,-30 840,-36 834,-36"/>
<text text-anchor="middle" x="819" y="-12.57" font-family="Helvetica,sans-Serif" font-size="14.00">(...)</text>
</g>
<!-- 148&#45;&gt;156 -->
<g id="edge24" class="edge">
<title>148&#45;&gt;156</title>
<path fill="none" stroke="black" d="M802.75,-71.67C805.28,-63.47 807.94,-54.84 810.36,-46.98"/>
<polygon fill="black" stroke="black" points="813.65,-48.22 813.25,-37.63 806.96,-46.15 813.65,-48.22"/>
</g>
<!-- 180 -->
<g id="node27" class="node">
<title>180</title>
<path fill="#f8decc" stroke="black" d="M964,-143C964,-143 876,-143 876,-143 870,-143 864,-137 864,-131 864,-131 864,-84 864,-84 864,-78 870,-72 876,-72 876,-72 964,-72 964,-72 970,-72 976,-78 976,-84 976,-84 976,-131 976,-131 976,-137 970,-143 964,-143"/>
<text text-anchor="start" x="887.38" y="-125.7" font-family="Helvetica,sans-Serif" font-size="14.00">P4_1 ≤ 0.5</text>
<text text-anchor="start" x="872" y="-109.95" font-family="Helvetica,sans-Serif" font-size="14.00">poisson = 0.198</text>
<text text-anchor="start" x="875.38" y="-94.2" font-family="Helvetica,sans-Serif" font-size="14.00">samples = 109</text>
<text text-anchor="start" x="879.12" y="-78.45" font-family="Helvetica,sans-Serif" font-size="14.00">value = 7.939</text>
</g>
<!-- 179&#45;&gt;180 -->
<g id="edge26" class="edge">
<title>179&#45;&gt;180</title>
<path fill="none" stroke="black" d="M920.67,-178.54C920.59,-170.92 920.52,-162.75 920.44,-154.77"/>
<polygon fill="black" stroke="black" points="923.94,-154.79 920.35,-144.82 916.94,-154.86 923.94,-154.79"/>
</g>
<!-- 203 -->
<g id="node30" class="node">
<title>203</title>
<path fill="#fbebe0" stroke="black" d="M1086.25,-143C1086.25,-143 1005.75,-143 1005.75,-143 999.75,-143 993.75,-137 993.75,-131 993.75,-131 993.75,-84 993.75,-84 993.75,-78 999.75,-72 1005.75,-72 1005.75,-72 1086.25,-72 1086.25,-72 1092.25,-72 1098.25,-78 1098.25,-84 1098.25,-84 1098.25,-131 1098.25,-131 1098.25,-137 1092.25,-143 1086.25,-143"/>
<text text-anchor="start" x="1005.88" y="-125.7" font-family="Helvetica,sans-Serif" font-size="14.00">P4_6_2 ≤ 1.5</text>
<text text-anchor="start" x="1001.75" y="-109.95" font-family="Helvetica,sans-Serif" font-size="14.00">poisson = 0.18</text>
<text text-anchor="start" x="1005.12" y="-94.2" font-family="Helvetica,sans-Serif" font-size="14.00">samples = 98</text>
<text text-anchor="start" x="1005.12" y="-78.45" font-family="Helvetica,sans-Serif" font-size="14.00">value = 6.357</text>
</g>
<!-- 179&#45;&gt;203 -->
<g id="edge29" class="edge">
<title>179&#45;&gt;203</title>
<path fill="none" stroke="black" d="M962.62,-178.54C973.27,-169.59 984.83,-159.88 995.86,-150.62"/>
<polygon fill="black" stroke="black" points="997.99,-153.4 1003.4,-144.28 993.49,-148.04 997.99,-153.4"/>
</g>
<!-- 181 -->
<g id="node28" class="node">
<title>181</title>
<path fill="#c0c0c0" stroke="black" d="M906,-36C906,-36 876,-36 876,-36 870,-36 864,-30 864,-24 864,-24 864,-12 864,-12 864,-6 870,0 876,0 876,0 906,0 906,0 912,0 918,-6 918,-12 918,-12 918,-24 918,-24 918,-30 912,-36 906,-36"/>
<text text-anchor="middle" x="891" y="-12.57" font-family="Helvetica,sans-Serif" font-size="14.00">(...)</text>
</g>
<!-- 180&#45;&gt;181 -->
<g id="edge27" class="edge">
<title>180&#45;&gt;181</title>
<path fill="none" stroke="black" d="M908.46,-71.67C905.74,-63.47 902.88,-54.84 900.27,-46.98"/>
<polygon fill="black" stroke="black" points="903.64,-46.01 897.17,-37.62 896.99,-48.21 903.64,-46.01"/>
</g>
<!-- 182 -->
<g id="node29" class="node">
<title>182</title>
<path fill="#c0c0c0" stroke="black" d="M978,-36C978,-36 948,-36 948,-36 942,-36 936,-30 936,-24 936,-24 936,-12 936,-12 936,-6 942,0 948,0 948,0 978,0 978,0 984,0 990,-6 990,-12 990,-12 990,-24 990,-24 990,-30 984,-36 978,-36"/>
<text text-anchor="middle" x="963" y="-12.57" font-family="Helvetica,sans-Serif" font-size="14.00">(...)</text>
</g>
<!-- 180&#45;&gt;182 -->
<g id="edge28" class="edge">
<title>180&#45;&gt;182</title>
<path fill="none" stroke="black" d="M937.12,-71.67C941.24,-63.28 945.59,-54.43 949.52,-46.44"/>
<polygon fill="black" stroke="black" points="952.62,-48.06 953.89,-37.54 946.34,-44.97 952.62,-48.06"/>
</g>
<!-- 204 -->
<g id="node31" class="node">
<title>204</title>
<path fill="#c0c0c0" stroke="black" d="M1050,-36C1050,-36 1020,-36 1020,-36 1014,-36 1008,-30 1008,-24 1008,-24 1008,-12 1008,-12 1008,-6 1014,0 1020,0 1020,0 1050,0 1050,0 1056,0 1062,-6 1062,-12 1062,-12 1062,-24 1062,-24 1062,-30 1056,-36 1050,-36"/>
<text text-anchor="middle" x="1035" y="-12.57" font-family="Helvetica,sans-Serif" font-size="14.00">(...)</text>
</g>
<!-- 203&#45;&gt;204 -->
<g id="edge30" class="edge">
<title>203&#45;&gt;204</title>
<path fill="none" stroke="black" d="M1041.62,-71.67C1040.61,-63.66 1039.56,-55.24 1038.59,-47.53"/>
<polygon fill="black" stroke="black" points="1042.07,-47.17 1037.35,-37.68 1035.12,-48.04 1042.07,-47.17"/>
</g>
<!-- 215 -->
<g id="node32" class="node">
<title>215</title>
<path fill="#c0c0c0" stroke="black" d="M1122,-36C1122,-36 1092,-36 1092,-36 1086,-36 1080,-30 1080,-24 1080,-24 1080,-12 1080,-12 1080,-6 1086,0 1092,0 1092,0 1122,0 1122,0 1128,0 1134,-6 1134,-12 1134,-12 1134,-24 1134,-24 1134,-30 1128,-36 1122,-36"/>
<text text-anchor="middle" x="1107" y="-12.57" font-family="Helvetica,sans-Serif" font-size="14.00">(...)</text>
</g>
<!-- 203&#45;&gt;215 -->
<g id="edge31" class="edge">
<title>203&#45;&gt;215</title>
<path fill="none" stroke="black" d="M1070.28,-71.67C1076.33,-62.99 1082.72,-53.83 1088.44,-45.62"/>
<polygon fill="black" stroke="black" points="1091.31,-47.63 1094.16,-37.42 1085.57,-43.63 1091.31,-47.63"/>
</g>
<!-- 225 -->
<g id="node34" class="node">
<title>225</title>
<path fill="#eeaf81" stroke="black" d="M1474.38,-357C1474.38,-357 1385.62,-357 1385.62,-357 1379.62,-357 1373.62,-351 1373.62,-345 1373.62,-345 1373.62,-298 1373.62,-298 1373.62,-292 1379.62,-286 1385.62,-286 1385.62,-286 1474.38,-286 1474.38,-286 1480.38,-286 1486.38,-292 1486.38,-298 1486.38,-298 1486.38,-345 1486.38,-345 1486.38,-351 1480.38,-357 1474.38,-357"/>
<text text-anchor="start" x="1389.88" y="-339.7" font-family="Helvetica,sans-Serif" font-size="14.00">P4_6_3 ≤ 2.5</text>
<text text-anchor="start" x="1382" y="-323.95" font-family="Helvetica,sans-Serif" font-size="14.00">poisson = 0.172</text>
<text text-anchor="start" x="1381.62" y="-308.2" font-family="Helvetica,sans-Serif" font-size="14.00">samples = 1660</text>
<text text-anchor="start" x="1385.38" y="-292.45" font-family="Helvetica,sans-Serif" font-size="14.00">value = 13.874</text>
</g>
<!-- 224&#45;&gt;225 -->
<g id="edge33" class="edge">
<title>224&#45;&gt;225</title>
<path fill="none" stroke="black" d="M1430,-392.54C1430,-384.92 1430,-376.75 1430,-368.77"/>
<polygon fill="black" stroke="black" points="1433.5,-368.82 1430,-358.82 1426.5,-368.82 1433.5,-368.82"/>
</g>
<!-- 542 -->
<g id="node49" class="node">
<title>542</title>
<path fill="#f3c3a0" stroke="black" d="M1899.38,-357C1899.38,-357 1810.62,-357 1810.62,-357 1804.62,-357 1798.62,-351 1798.62,-345 1798.62,-345 1798.62,-298 1798.62,-298 1798.62,-292 1804.62,-286 1810.62,-286 1810.62,-286 1899.38,-286 1899.38,-286 1905.38,-286 1911.38,-292 1911.38,-298 1911.38,-298 1911.38,-345 1911.38,-345 1911.38,-351 1905.38,-357 1899.38,-357"/>
<text text-anchor="start" x="1814.88" y="-339.7" font-family="Helvetica,sans-Serif" font-size="14.00">P4_6_2 ≤ 1.5</text>
<text text-anchor="start" x="1807" y="-323.95" font-family="Helvetica,sans-Serif" font-size="14.00">poisson = 0.269</text>
<text text-anchor="start" x="1806.62" y="-308.2" font-family="Helvetica,sans-Serif" font-size="14.00">samples = 2239</text>
<text text-anchor="start" x="1810.75" y="-292.45" font-family="Helvetica,sans-Serif" font-size="14.00">value = 11.371</text>
</g>
<!-- 224&#45;&gt;542 -->
<g id="edge48" class="edge">
<title>224&#45;&gt;542</title>
<path fill="none" stroke="black" d="M1486.44,-413.56C1564.15,-394.36 1703.93,-359.82 1787.22,-339.25"/>
<polygon fill="black" stroke="black" points="1787.99,-342.66 1796.86,-336.86 1786.31,-335.86 1787.99,-342.66"/>
</g>
<!-- 226 -->
<g id="node35" class="node">
<title>226</title>
<path fill="#f0b48a" stroke="black" d="M1409,-250C1409,-250 1321,-250 1321,-250 1315,-250 1309,-244 1309,-238 1309,-238 1309,-191 1309,-191 1309,-185 1315,-179 1321,-179 1321,-179 1409,-179 1409,-179 1415,-179 1421,-185 1421,-191 1421,-191 1421,-238 1421,-238 1421,-244 1415,-250 1409,-250"/>
<text text-anchor="start" x="1332.38" y="-232.7" font-family="Helvetica,sans-Serif" font-size="14.00">P4_1 ≤ 0.5</text>
<text text-anchor="start" x="1317" y="-216.95" font-family="Helvetica,sans-Serif" font-size="14.00">poisson = 0.146</text>
<text text-anchor="start" x="1320.38" y="-201.2" font-family="Helvetica,sans-Serif" font-size="14.00">samples = 987</text>
<text text-anchor="start" x="1320.38" y="-185.45" font-family="Helvetica,sans-Serif" font-size="14.00">value = 13.161</text>
</g>
<!-- 225&#45;&gt;226 -->
<g id="edge34" class="edge">
<title>225&#45;&gt;226</title>
<path fill="none" stroke="black" d="M1408.36,-285.54C1403.26,-277.3 1397.76,-268.42 1392.44,-259.83"/>
<polygon fill="black" stroke="black" points="1395.59,-258.26 1387.35,-251.6 1389.63,-261.94 1395.59,-258.26"/>
</g>
<!-- 413 -->
<g id="node42" class="node">
<title>413</title>
<path fill="#eda674" stroke="black" d="M1539,-250C1539,-250 1451,-250 1451,-250 1445,-250 1439,-244 1439,-238 1439,-238 1439,-191 1439,-191 1439,-185 1445,-179 1451,-179 1451,-179 1539,-179 1539,-179 1545,-179 1551,-185 1551,-191 1551,-191 1551,-238 1551,-238 1551,-244 1545,-250 1539,-250"/>
<text text-anchor="start" x="1462.38" y="-232.7" font-family="Helvetica,sans-Serif" font-size="14.00">P4_1 ≤ 0.5</text>
<text text-anchor="start" x="1447" y="-216.95" font-family="Helvetica,sans-Serif" font-size="14.00">poisson = 0.144</text>
<text text-anchor="start" x="1450.38" y="-201.2" font-family="Helvetica,sans-Serif" font-size="14.00">samples = 673</text>
<text text-anchor="start" x="1454.12" y="-185.45" font-family="Helvetica,sans-Serif" font-size="14.00">value = 14.92</text>
</g>
<!-- 225&#45;&gt;413 -->
<g id="edge41" class="edge">
<title>225&#45;&gt;413</title>
<path fill="none" stroke="black" d="M1451.64,-285.54C1456.74,-277.3 1462.24,-268.42 1467.56,-259.83"/>
<polygon fill="black" stroke="black" points="1470.37,-261.94 1472.65,-251.6 1464.41,-258.26 1470.37,-261.94"/>
</g>
<!-- 227 -->
<g id="node36" class="node">
<title>227</title>
<path fill="#eeac7c" stroke="black" d="M1283,-143C1283,-143 1195,-143 1195,-143 1189,-143 1183,-137 1183,-131 1183,-131 1183,-84 1183,-84 1183,-78 1189,-72 1195,-72 1195,-72 1283,-72 1283,-72 1289,-72 1295,-78 1295,-84 1295,-84 1295,-131 1295,-131 1295,-137 1289,-143 1283,-143"/>
<text text-anchor="start" x="1198.88" y="-125.7" font-family="Helvetica,sans-Serif" font-size="14.00">P4_7_3 ≤ 0.5</text>
<text text-anchor="start" x="1191" y="-109.95" font-family="Helvetica,sans-Serif" font-size="14.00">poisson = 0.106</text>
<text text-anchor="start" x="1194.38" y="-94.2" font-family="Helvetica,sans-Serif" font-size="14.00">samples = 346</text>
<text text-anchor="start" x="1194.38" y="-78.45" font-family="Helvetica,sans-Serif" font-size="14.00">value = 14.267</text>
</g>
<!-- 226&#45;&gt;227 -->
<g id="edge35" class="edge">
<title>226&#45;&gt;227</title>
<path fill="none" stroke="black" d="M1323.04,-178.54C1312.31,-169.59 1300.66,-159.88 1289.54,-150.62"/>
<polygon fill="black" stroke="black" points="1291.86,-147.99 1281.94,-144.28 1287.38,-153.37 1291.86,-147.99"/>
</g>
<!-- 290 -->
<g id="node39" class="node">
<title>290</title>
<path fill="#f1b991" stroke="black" d="M1406.62,-143C1406.62,-143 1325.38,-143 1325.38,-143 1319.38,-143 1313.38,-137 1313.38,-131 1313.38,-131 1313.38,-84 1313.38,-84 1313.38,-78 1319.38,-72 1325.38,-72 1325.38,-72 1406.62,-72 1406.62,-72 1412.62,-72 1418.62,-78 1418.62,-84 1418.62,-84 1418.62,-131 1418.62,-131 1418.62,-137 1412.62,-143 1406.62,-143"/>
<text text-anchor="start" x="1325.88" y="-125.7" font-family="Helvetica,sans-Serif" font-size="14.00">P4_6_2 ≤ 1.5</text>
<text text-anchor="start" x="1321.75" y="-109.95" font-family="Helvetica,sans-Serif" font-size="14.00">poisson = 0.13</text>
<text text-anchor="start" x="1321.38" y="-94.2" font-family="Helvetica,sans-Serif" font-size="14.00">samples = 641</text>
<text text-anchor="start" x="1321.38" y="-78.45" font-family="Helvetica,sans-Serif" font-size="14.00">value = 12.564</text>
</g>
<!-- 226&#45;&gt;290 -->
<g id="edge38" class="edge">
<title>226&#45;&gt;290</title>
<path fill="none" stroke="black" d="M1365.33,-178.54C1365.41,-170.92 1365.48,-162.75 1365.56,-154.77"/>
<polygon fill="black" stroke="black" points="1369.06,-154.86 1365.65,-144.82 1362.06,-154.79 1369.06,-154.86"/>
</g>
<!-- 228 -->
<g id="node37" class="node">
<title>228</title>
<path fill="#c0c0c0" stroke="black" d="M1194,-36C1194,-36 1164,-36 1164,-36 1158,-36 1152,-30 1152,-24 1152,-24 1152,-12 1152,-12 1152,-6 1158,0 1164,0 1164,0 1194,0 1194,0 1200,0 1206,-6 1206,-12 1206,-12 1206,-24 1206,-24 1206,-30 1200,-36 1194,-36"/>
<text text-anchor="middle" x="1179" y="-12.57" font-family="Helvetica,sans-Serif" font-size="14.00">(...)</text>
</g>
<!-- 227&#45;&gt;228 -->
<g id="edge36" class="edge">
<title>227&#45;&gt;228</title>
<path fill="none" stroke="black" d="M1215.11,-71.67C1209.17,-62.99 1202.88,-53.83 1197.26,-45.62"/>
<polygon fill="black" stroke="black" points="1200.18,-43.7 1191.64,-37.43 1194.41,-47.66 1200.18,-43.7"/>
</g>
<!-- 277 -->
<g id="node38" class="node">
<title>277</title>
<path fill="#c0c0c0" stroke="black" d="M1266,-36C1266,-36 1236,-36 1236,-36 1230,-36 1224,-30 1224,-24 1224,-24 1224,-12 1224,-12 1224,-6 1230,0 1236,0 1236,0 1266,0 1266,0 1272,0 1278,-6 1278,-12 1278,-12 1278,-24 1278,-24 1278,-30 1272,-36 1266,-36"/>
<text text-anchor="middle" x="1251" y="-12.57" font-family="Helvetica,sans-Serif" font-size="14.00">(...)</text>
</g>
<!-- 227&#45;&gt;277 -->
<g id="edge37" class="edge">
<title>227&#45;&gt;277</title>
<path fill="none" stroke="black" d="M1243.78,-71.67C1244.88,-63.66 1246.03,-55.24 1247.09,-47.53"/>
<polygon fill="black" stroke="black" points="1250.55,-48.07 1248.44,-37.68 1243.61,-47.11 1250.55,-48.07"/>
</g>
<!-- 291 -->
<g id="node40" class="node">
<title>291</title>
<path fill="#c0c0c0" stroke="black" d="M1338,-36C1338,-36 1308,-36 1308,-36 1302,-36 1296,-30 1296,-24 1296,-24 1296,-12 1296,-12 1296,-6 1302,0 1308,0 1308,0 1338,0 1338,0 1344,0 1350,-6 1350,-12 1350,-12 1350,-24 1350,-24 1350,-30 1344,-36 1338,-36"/>
<text text-anchor="middle" x="1323" y="-12.57" font-family="Helvetica,sans-Serif" font-size="14.00">(...)</text>
</g>
<!-- 290&#45;&gt;291 -->
<g id="edge39" class="edge">
<title>290&#45;&gt;291</title>
<path fill="none" stroke="black" d="M1348.88,-71.67C1344.76,-63.28 1340.41,-54.43 1336.48,-46.44"/>
<polygon fill="black" stroke="black" points="1339.66,-44.97 1332.11,-37.54 1333.38,-48.06 1339.66,-44.97"/>
</g>
<!-- 380 -->
<g id="node41" class="node">
<title>380</title>
<path fill="#c0c0c0" stroke="black" d="M1410,-36C1410,-36 1380,-36 1380,-36 1374,-36 1368,-30 1368,-24 1368,-24 1368,-12 1368,-12 1368,-6 1374,0 1380,0 1380,0 1410,0 1410,0 1416,0 1422,-6 1422,-12 1422,-12 1422,-24 1422,-24 1422,-30 1416,-36 1410,-36"/>
<text text-anchor="middle" x="1395" y="-12.57" font-family="Helvetica,sans-Serif" font-size="14.00">(...)</text>
</g>
<!-- 290&#45;&gt;380 -->
<g id="edge40" class="edge">
<title>290&#45;&gt;380</title>
<path fill="none" stroke="black" d="M1377.54,-71.67C1380.26,-63.47 1383.12,-54.84 1385.73,-46.98"/>
<polygon fill="black" stroke="black" points="1389.01,-48.21 1388.83,-37.62 1382.36,-46.01 1389.01,-48.21"/>
</g>
<!-- 414 -->
<g id="node43" class="node">
<title>414</title>
<path fill="#eb9c64" stroke="black" d="M1537.62,-143C1537.62,-143 1450.38,-143 1450.38,-143 1444.38,-143 1438.38,-137 1438.38,-131 1438.38,-131 1438.38,-84 1438.38,-84 1438.38,-78 1444.38,-72 1450.38,-72 1450.38,-72 1537.62,-72 1537.62,-72 1543.62,-72 1549.62,-78 1549.62,-84 1549.62,-84 1549.62,-131 1549.62,-131 1549.62,-137 1543.62,-143 1537.62,-143"/>
<text text-anchor="start" x="1450.5" y="-125.7" font-family="Helvetica,sans-Serif" font-size="14.00">P11_3_9 ≤ 0.5</text>
<text text-anchor="start" x="1446.38" y="-109.95" font-family="Helvetica,sans-Serif" font-size="14.00">poisson = 0.117</text>
<text text-anchor="start" x="1449.38" y="-94.2" font-family="Helvetica,sans-Serif" font-size="14.00">samples = 233</text>
<text text-anchor="start" x="1453.12" y="-78.45" font-family="Helvetica,sans-Serif" font-size="14.00">value = 16.16</text>
</g>
<!-- 413&#45;&gt;414 -->
<g id="edge42" class="edge">
<title>413&#45;&gt;414</title>
<path fill="none" stroke="black" d="M1494.67,-178.54C1494.59,-170.92 1494.52,-162.75 1494.44,-154.77"/>
<polygon fill="black" stroke="black" points="1497.94,-154.79 1494.35,-144.82 1490.94,-154.86 1497.94,-154.79"/>
</g>
<!-- 463 -->
<g id="node46" class="node">
<title>463</title>
<path fill="#eeac7c" stroke="black" d="M1666.62,-143C1666.62,-143 1579.38,-143 1579.38,-143 1573.38,-143 1567.38,-137 1567.38,-131 1567.38,-131 1567.38,-84 1567.38,-84 1567.38,-78 1573.38,-72 1579.38,-72 1579.38,-72 1666.62,-72 1666.62,-72 1672.62,-72 1678.62,-78 1678.62,-84 1678.62,-84 1678.62,-131 1678.62,-131 1678.62,-137 1672.62,-143 1666.62,-143"/>
<text text-anchor="start" x="1582.88" y="-125.7" font-family="Helvetica,sans-Serif" font-size="14.00">P4_6_1 ≤ 1.5</text>
<text text-anchor="start" x="1575.38" y="-109.95" font-family="Helvetica,sans-Serif" font-size="14.00">poisson = 0.117</text>
<text text-anchor="start" x="1578.38" y="-94.2" font-family="Helvetica,sans-Serif" font-size="14.00">samples = 440</text>
<text text-anchor="start" x="1578.38" y="-78.45" font-family="Helvetica,sans-Serif" font-size="14.00">value = 14.263</text>
</g>
<!-- 413&#45;&gt;463 -->
<g id="edge45" class="edge">
<title>413&#45;&gt;463</title>
<path fill="none" stroke="black" d="M1537.62,-178.54C1548.63,-169.5 1560.6,-159.69 1571.99,-150.34"/>
<polygon fill="black" stroke="black" points="1573.88,-153.32 1579.39,-144.27 1569.44,-147.91 1573.88,-153.32"/>
</g>
<!-- 415 -->
<g id="node44" class="node">
<title>415</title>
<path fill="#c0c0c0" stroke="black" d="M1482,-36C1482,-36 1452,-36 1452,-36 1446,-36 1440,-30 1440,-24 1440,-24 1440,-12 1440,-12 1440,-6 1446,0 1452,0 1452,0 1482,0 1482,0 1488,0 1494,-6 1494,-12 1494,-12 1494,-24 1494,-24 1494,-30 1488,-36 1482,-36"/>
<text text-anchor="middle" x="1467" y="-12.57" font-family="Helvetica,sans-Serif" font-size="14.00">(...)</text>
</g>
<!-- 414&#45;&gt;415 -->
<g id="edge43" class="edge">
<title>414&#45;&gt;415</title>
<path fill="none" stroke="black" d="M1483.25,-71.67C1480.72,-63.47 1478.06,-54.84 1475.64,-46.98"/>
<polygon fill="black" stroke="black" points="1479.04,-46.15 1472.75,-37.63 1472.35,-48.22 1479.04,-46.15"/>
</g>
<!-- 450 -->
<g id="node45" class="node">
<title>450</title>
<path fill="#c0c0c0" stroke="black" d="M1554,-36C1554,-36 1524,-36 1524,-36 1518,-36 1512,-30 1512,-24 1512,-24 1512,-12 1512,-12 1512,-6 1518,0 1524,0 1524,0 1554,0 1554,0 1560,0 1566,-6 1566,-12 1566,-12 1566,-24 1566,-24 1566,-30 1560,-36 1554,-36"/>
<text text-anchor="middle" x="1539" y="-12.57" font-family="Helvetica,sans-Serif" font-size="14.00">(...)</text>
</g>
<!-- 414&#45;&gt;450 -->
<g id="edge44" class="edge">
<title>414&#45;&gt;450</title>
<path fill="none" stroke="black" d="M1511.91,-71.67C1516.28,-63.18 1520.88,-54.23 1525.03,-46.17"/>
<polygon fill="black" stroke="black" points="1528.01,-48.02 1529.47,-37.53 1521.78,-44.82 1528.01,-48.02"/>
</g>
<!-- 464 -->
<g id="node47" class="node">
<title>464</title>
<path fill="#c0c0c0" stroke="black" d="M1626,-36C1626,-36 1596,-36 1596,-36 1590,-36 1584,-30 1584,-24 1584,-24 1584,-12 1584,-12 1584,-6 1590,0 1596,0 1596,0 1626,0 1626,0 1632,0 1638,-6 1638,-12 1638,-12 1638,-24 1638,-24 1638,-30 1632,-36 1626,-36"/>
<text text-anchor="middle" x="1611" y="-12.57" font-family="Helvetica,sans-Serif" font-size="14.00">(...)</text>
</g>
<!-- 463&#45;&gt;464 -->
<g id="edge46" class="edge">
<title>463&#45;&gt;464</title>
<path fill="none" stroke="black" d="M1618.22,-71.67C1617.12,-63.66 1615.97,-55.24 1614.91,-47.53"/>
<polygon fill="black" stroke="black" points="1618.39,-47.11 1613.56,-37.68 1611.45,-48.07 1618.39,-47.11"/>
</g>
<!-- 523 -->
<g id="node48" class="node">
<title>523</title>
<path fill="#c0c0c0" stroke="black" d="M1698,-36C1698,-36 1668,-36 1668,-36 1662,-36 1656,-30 1656,-24 1656,-24 1656,-12 1656,-12 1656,-6 1662,0 1668,0 1668,0 1698,0 1698,0 1704,0 1710,-6 1710,-12 1710,-12 1710,-24 1710,-24 1710,-30 1704,-36 1698,-36"/>
<text text-anchor="middle" x="1683" y="-12.57" font-family="Helvetica,sans-Serif" font-size="14.00">(...)</text>
</g>
<!-- 463&#45;&gt;523 -->
<g id="edge47" class="edge">
<title>463&#45;&gt;523</title>
<path fill="none" stroke="black" d="M1646.89,-71.67C1652.83,-62.99 1659.12,-53.83 1664.74,-45.62"/>
<polygon fill="black" stroke="black" points="1667.59,-47.66 1670.36,-37.43 1661.82,-43.7 1667.59,-47.66"/>
</g>
<!-- 543 -->
<g id="node50" class="node">
<title>543</title>
<path fill="#f1bd97" stroke="black" d="M1899.38,-250C1899.38,-250 1810.62,-250 1810.62,-250 1804.62,-250 1798.62,-244 1798.62,-238 1798.62,-238 1798.62,-191 1798.62,-191 1798.62,-185 1804.62,-179 1810.62,-179 1810.62,-179 1899.38,-179 1899.38,-179 1905.38,-179 1911.38,-185 1911.38,-191 1911.38,-191 1911.38,-238 1911.38,-238 1911.38,-244 1905.38,-250 1899.38,-250"/>
<text text-anchor="start" x="1814.88" y="-232.7" font-family="Helvetica,sans-Serif" font-size="14.00">P4_6_1 ≤ 1.5</text>
<text text-anchor="start" x="1807" y="-216.95" font-family="Helvetica,sans-Serif" font-size="14.00">poisson = 0.194</text>
<text text-anchor="start" x="1806.62" y="-201.2" font-family="Helvetica,sans-Serif" font-size="14.00">samples = 1507</text>
<text text-anchor="start" x="1810.38" y="-185.45" font-family="Helvetica,sans-Serif" font-size="14.00">value = 12.131</text>
</g>
<!-- 542&#45;&gt;543 -->
<g id="edge49" class="edge">
<title>542&#45;&gt;543</title>
<path fill="none" stroke="black" d="M1855,-285.54C1855,-277.92 1855,-269.75 1855,-261.77"/>
<polygon fill="black" stroke="black" points="1858.5,-261.82 1855,-251.82 1851.5,-261.82 1858.5,-261.82"/>
</g>
<!-- 810 -->
<g id="node57" class="node">
<title>810</title>
<path fill="#f5cfb4" stroke="black" d="M2094,-250C2094,-250 2006,-250 2006,-250 2000,-250 1994,-244 1994,-238 1994,-238 1994,-191 1994,-191 1994,-185 2000,-179 2006,-179 2006,-179 2094,-179 2094,-179 2100,-179 2106,-185 2106,-191 2106,-191 2106,-238 2106,-238 2106,-244 2100,-250 2094,-250"/>
<text text-anchor="start" x="2013.62" y="-232.7" font-family="Helvetica,sans-Serif" font-size="14.00">P12_1 ≤ 0.5</text>
<text text-anchor="start" x="2002" y="-216.95" font-family="Helvetica,sans-Serif" font-size="14.00">poisson = 0.259</text>
<text text-anchor="start" x="2005.38" y="-201.2" font-family="Helvetica,sans-Serif" font-size="14.00">samples = 732</text>
<text text-anchor="start" x="2009.12" y="-185.45" font-family="Helvetica,sans-Serif" font-size="14.00">value = 9.806</text>
</g>
<!-- 542&#45;&gt;810 -->
<g id="edge56" class="edge">
<title>542&#45;&gt;810</title>
<path fill="none" stroke="black" d="M1911.66,-289.99C1934.2,-277.86 1960.28,-263.81 1983.68,-251.21"/>
<polygon fill="black" stroke="black" points="1985.05,-254.45 1992.2,-246.62 1981.74,-248.28 1985.05,-254.45"/>
</g>
<!-- 544 -->
<g id="node51" class="node">
<title>544</title>
<path fill="#f0b890" stroke="black" d="M1824.38,-143C1824.38,-143 1735.62,-143 1735.62,-143 1729.62,-143 1723.62,-137 1723.62,-131 1723.62,-131 1723.62,-84 1723.62,-84 1723.62,-78 1729.62,-72 1735.62,-72 1735.62,-72 1824.38,-72 1824.38,-72 1830.38,-72 1836.38,-78 1836.38,-84 1836.38,-84 1836.38,-131 1836.38,-131 1836.38,-137 1830.38,-143 1824.38,-143"/>
<text text-anchor="start" x="1739.88" y="-125.7" font-family="Helvetica,sans-Serif" font-size="14.00">P4_7_3 ≤ 0.5</text>
<text text-anchor="start" x="1732" y="-109.95" font-family="Helvetica,sans-Serif" font-size="14.00">poisson = 0.146</text>
<text text-anchor="start" x="1731.62" y="-94.2" font-family="Helvetica,sans-Serif" font-size="14.00">samples = 1090</text>
<text text-anchor="start" x="1735.38" y="-78.45" font-family="Helvetica,sans-Serif" font-size="14.00">value = 12.657</text>
</g>
<!-- 543&#45;&gt;544 -->
<g id="edge50" class="edge">
<title>543&#45;&gt;544</title>
<path fill="none" stroke="black" d="M1830.03,-178.54C1824.08,-170.21 1817.66,-161.22 1811.47,-152.55"/>
<polygon fill="black" stroke="black" points="1814.41,-150.65 1805.74,-144.54 1808.71,-154.71 1814.41,-150.65"/>
</g>
<!-- 727 -->
<g id="node54" class="node">
<title>727</title>
<path fill="#f4c8a8" stroke="black" d="M1954,-143C1954,-143 1866,-143 1866,-143 1860,-143 1854,-137 1854,-131 1854,-131 1854,-84 1854,-84 1854,-78 1860,-72 1866,-72 1866,-72 1954,-72 1954,-72 1960,-72 1966,-78 1966,-84 1966,-84 1966,-131 1966,-131 1966,-137 1960,-143 1954,-143"/>
<text text-anchor="start" x="1873.62" y="-125.7" font-family="Helvetica,sans-Serif" font-size="14.00">P12_1 ≤ 0.5</text>
<text text-anchor="start" x="1862" y="-109.95" font-family="Helvetica,sans-Serif" font-size="14.00">poisson = 0.212</text>
<text text-anchor="start" x="1865.38" y="-94.2" font-family="Helvetica,sans-Serif" font-size="14.00">samples = 417</text>
<text text-anchor="start" x="1865.38" y="-78.45" font-family="Helvetica,sans-Serif" font-size="14.00">value = 10.755</text>
</g>
<!-- 543&#45;&gt;727 -->
<g id="edge53" class="edge">
<title>543&#45;&gt;727</title>
<path fill="none" stroke="black" d="M1873.31,-178.54C1877.54,-170.48 1882.08,-161.8 1886.49,-153.38"/>
<polygon fill="black" stroke="black" points="1889.52,-155.13 1891.06,-144.65 1883.32,-151.89 1889.52,-155.13"/>
</g>
<!-- 545 -->
<g id="node52" class="node">
<title>545</title>
<path fill="#c0c0c0" stroke="black" d="M1770,-36C1770,-36 1740,-36 1740,-36 1734,-36 1728,-30 1728,-24 1728,-24 1728,-12 1728,-12 1728,-6 1734,0 1740,0 1740,0 1770,0 1770,0 1776,0 1782,-6 1782,-12 1782,-12 1782,-24 1782,-24 1782,-30 1776,-36 1770,-36"/>
<text text-anchor="middle" x="1755" y="-12.57" font-family="Helvetica,sans-Serif" font-size="14.00">(...)</text>
</g>
<!-- 544&#45;&gt;545 -->
<g id="edge51" class="edge">
<title>544&#45;&gt;545</title>
<path fill="none" stroke="black" d="M1770.05,-71.67C1767.71,-63.47 1765.24,-54.84 1763,-46.98"/>
<polygon fill="black" stroke="black" points="1766.44,-46.29 1760.33,-37.64 1759.71,-48.21 1766.44,-46.29"/>
</g>
<!-- 656 -->
<g id="node53" class="node">
<title>656</title>
<path fill="#c0c0c0" stroke="black" d="M1842,-36C1842,-36 1812,-36 1812,-36 1806,-36 1800,-30 1800,-24 1800,-24 1800,-12 1800,-12 1800,-6 1806,0 1812,0 1812,0 1842,0 1842,0 1848,0 1854,-6 1854,-12 1854,-12 1854,-24 1854,-24 1854,-30 1848,-36 1842,-36"/>
<text text-anchor="middle" x="1827" y="-12.57" font-family="Helvetica,sans-Serif" font-size="14.00">(...)</text>
</g>
<!-- 544&#45;&gt;656 -->
<g id="edge52" class="edge">
<title>544&#45;&gt;656</title>
<path fill="none" stroke="black" d="M1798.71,-71.67C1803.27,-63.18 1808.07,-54.23 1812.41,-46.17"/>
<polygon fill="black" stroke="black" points="1815.41,-47.98 1817.05,-37.52 1809.24,-44.67 1815.41,-47.98"/>
</g>
<!-- 728 -->
<g id="node55" class="node">
<title>728</title>
<path fill="#c0c0c0" stroke="black" d="M1914,-36C1914,-36 1884,-36 1884,-36 1878,-36 1872,-30 1872,-24 1872,-24 1872,-12 1872,-12 1872,-6 1878,0 1884,0 1884,0 1914,0 1914,0 1920,0 1926,-6 1926,-12 1926,-12 1926,-24 1926,-24 1926,-30 1920,-36 1914,-36"/>
<text text-anchor="middle" x="1899" y="-12.57" font-family="Helvetica,sans-Serif" font-size="14.00">(...)</text>
</g>
<!-- 727&#45;&gt;728 -->
<g id="edge54" class="edge">
<title>727&#45;&gt;728</title>
<path fill="none" stroke="black" d="M1905.62,-71.67C1904.61,-63.66 1903.56,-55.24 1902.59,-47.53"/>
<polygon fill="black" stroke="black" points="1906.07,-47.17 1901.35,-37.68 1899.12,-48.04 1906.07,-47.17"/>
</g>
<!-- 801 -->
<g id="node56" class="node">
<title>801</title>
<path fill="#c0c0c0" stroke="black" d="M1986,-36C1986,-36 1956,-36 1956,-36 1950,-36 1944,-30 1944,-24 1944,-24 1944,-12 1944,-12 1944,-6 1950,0 1956,0 1956,0 1986,0 1986,0 1992,0 1998,-6 1998,-12 1998,-12 1998,-24 1998,-24 1998,-30 1992,-36 1986,-36"/>
<text text-anchor="middle" x="1971" y="-12.57" font-family="Helvetica,sans-Serif" font-size="14.00">(...)</text>
</g>
<!-- 727&#45;&gt;801 -->
<g id="edge55" class="edge">
<title>727&#45;&gt;801</title>
<path fill="none" stroke="black" d="M1934.28,-71.67C1940.33,-62.99 1946.72,-53.83 1952.44,-45.62"/>
<polygon fill="black" stroke="black" points="1955.31,-47.63 1958.16,-37.42 1949.57,-43.63 1955.31,-47.63"/>
</g>
<!-- 811 -->
<g id="node58" class="node">
<title>811</title>
<path fill="#f5cdb0" stroke="black" d="M2094,-143C2094,-143 2006,-143 2006,-143 2000,-143 1994,-137 1994,-131 1994,-131 1994,-84 1994,-84 1994,-78 2000,-72 2006,-72 2006,-72 2094,-72 2094,-72 2100,-72 2106,-78 2106,-84 2106,-84 2106,-131 2106,-131 2106,-137 2100,-143 2094,-143"/>
<text text-anchor="start" x="2009.88" y="-125.7" font-family="Helvetica,sans-Serif" font-size="14.00">P4_6_3 ≤ 2.5</text>
<text text-anchor="start" x="2002" y="-109.95" font-family="Helvetica,sans-Serif" font-size="14.00">poisson = 0.213</text>
<text text-anchor="start" x="2005.38" y="-94.2" font-family="Helvetica,sans-Serif" font-size="14.00">samples = 644</text>
<text text-anchor="start" x="2005.38" y="-78.45" font-family="Helvetica,sans-Serif" font-size="14.00">value = 10.151</text>
</g>
<!-- 810&#45;&gt;811 -->
<g id="edge57" class="edge">
<title>810&#45;&gt;811</title>
<path fill="none" stroke="black" d="M2050,-178.54C2050,-170.92 2050,-162.75 2050,-154.77"/>
<polygon fill="black" stroke="black" points="2053.5,-154.82 2050,-144.82 2046.5,-154.82 2053.5,-154.82"/>
</g>
<!-- 932 -->
<g id="node61" class="node">
<title>932</title>
<path fill="#f9e4d4" stroke="black" d="M2231,-143C2231,-143 2143,-143 2143,-143 2137,-143 2131,-137 2131,-131 2131,-131 2131,-84 2131,-84 2131,-78 2137,-72 2143,-72 2143,-72 2231,-72 2231,-72 2237,-72 2243,-78 2243,-84 2243,-84 2243,-131 2243,-131 2243,-137 2237,-143 2231,-143"/>
<text text-anchor="start" x="2146.88" y="-125.7" font-family="Helvetica,sans-Serif" font-size="14.00">P4_7_2 ≤ 0.5</text>
<text text-anchor="start" x="2139" y="-109.95" font-family="Helvetica,sans-Serif" font-size="14.00">poisson = 0.193</text>
<text text-anchor="start" x="2146.12" y="-94.2" font-family="Helvetica,sans-Serif" font-size="14.00">samples = 88</text>
<text text-anchor="start" x="2146.12" y="-78.45" font-family="Helvetica,sans-Serif" font-size="14.00">value = 7.284</text>
</g>
<!-- 810&#45;&gt;932 -->
<g id="edge60" class="edge">
<title>810&#45;&gt;932</title>
<path fill="none" stroke="black" d="M2095.62,-178.54C2107.52,-169.42 2120.46,-159.5 2132.76,-150.07"/>
<polygon fill="black" stroke="black" points="2134.57,-153.09 2140.38,-144.23 2130.31,-147.54 2134.57,-153.09"/>
</g>
<!-- 812 -->
<g id="node59" class="node">
<title>812</title>
<path fill="#c0c0c0" stroke="black" d="M2058,-36C2058,-36 2028,-36 2028,-36 2022,-36 2016,-30 2016,-24 2016,-24 2016,-12 2016,-12 2016,-6 2022,0 2028,0 2028,0 2058,0 2058,0 2064,0 2070,-6 2070,-12 2070,-12 2070,-24 2070,-24 2070,-30 2064,-36 2058,-36"/>
<text text-anchor="middle" x="2043" y="-12.57" font-family="Helvetica,sans-Serif" font-size="14.00">(...)</text>
</g>
<!-- 811&#45;&gt;812 -->
<g id="edge58" class="edge">
<title>811&#45;&gt;812</title>
<path fill="none" stroke="black" d="M2047.21,-71.67C2046.57,-63.66 2045.9,-55.24 2045.28,-47.53"/>
<polygon fill="black" stroke="black" points="2048.78,-47.38 2044.5,-37.69 2041.8,-47.94 2048.78,-47.38"/>
</g>
<!-- 893 -->
<g id="node60" class="node">
<title>893</title>
<path fill="#c0c0c0" stroke="black" d="M2130,-36C2130,-36 2100,-36 2100,-36 2094,-36 2088,-30 2088,-24 2088,-24 2088,-12 2088,-12 2088,-6 2094,0 2100,0 2100,0 2130,0 2130,0 2136,0 2142,-6 2142,-12 2142,-12 2142,-24 2142,-24 2142,-30 2136,-36 2130,-36"/>
<text text-anchor="middle" x="2115" y="-12.57" font-family="Helvetica,sans-Serif" font-size="14.00">(...)</text>
</g>
<!-- 811&#45;&gt;893 -->
<g id="edge59" class="edge">
<title>811&#45;&gt;893</title>
<path fill="none" stroke="black" d="M2075.88,-71.67C2082.39,-62.9 2089.28,-53.63 2095.42,-45.35"/>
<polygon fill="black" stroke="black" points="2098.18,-47.51 2101.33,-37.4 2092.56,-43.34 2098.18,-47.51"/>
</g>
<!-- 933 -->
<g id="node62" class="node">
<title>933</title>
<path fill="#c0c0c0" stroke="black" d="M2202,-36C2202,-36 2172,-36 2172,-36 2166,-36 2160,-30 2160,-24 2160,-24 2160,-12 2160,-12 2160,-6 2166,0 2172,0 2172,0 2202,0 2202,0 2208,0 2214,-6 2214,-12 2214,-12 2214,-24 2214,-24 2214,-30 2208,-36 2202,-36"/>
<text text-anchor="middle" x="2187" y="-12.57" font-family="Helvetica,sans-Serif" font-size="14.00">(...)</text>
</g>
<!-- 932&#45;&gt;933 -->
<g id="edge61" class="edge">
<title>932&#45;&gt;933</title>
<path fill="none" stroke="black" d="M2187,-71.67C2187,-63.66 2187,-55.24 2187,-47.53"/>
<polygon fill="black" stroke="black" points="2190.5,-47.7 2187,-37.7 2183.5,-47.7 2190.5,-47.7"/>
</g>
<!-- 944 -->
<g id="node63" class="node">
<title>944</title>
<path fill="#c0c0c0" stroke="black" d="M2274,-36C2274,-36 2244,-36 2244,-36 2238,-36 2232,-30 2232,-24 2232,-24 2232,-12 2232,-12 2232,-6 2238,0 2244,0 2244,0 2274,0 2274,0 2280,0 2286,-6 2286,-12 2286,-12 2286,-24 2286,-24 2286,-30 2280,-36 2274,-36"/>
<text text-anchor="middle" x="2259" y="-12.57" font-family="Helvetica,sans-Serif" font-size="14.00">(...)</text>
</g>
<!-- 932&#45;&gt;944 -->
<g id="edge62" class="edge">
<title>932&#45;&gt;944</title>
<path fill="none" stroke="black" d="M2215.66,-71.67C2223.04,-62.71 2230.84,-53.23 2237.76,-44.81"/>
<polygon fill="black" stroke="black" points="2240.25,-47.3 2243.9,-37.35 2234.84,-42.85 2240.25,-47.3"/>
</g>
</g>
</svg>
