<?xml version="1.0" encoding="UTF-8" standalone="no"?>
<!DOCTYPE svg PUBLIC "-//W3C//DTD SVG 1.1//EN"
 "http://www.w3.org/Graphics/SVG/1.1/DTD/svg11.dtd">
<!-- Generated by graphviz version 12.2.1 (20241206.2353)
 -->
<!-- Title: Tree Pages: 1 -->
<svg width="2294pt" height="579pt"
 viewBox="0.00 0.00 2294.00 579.00" xmlns="http://www.w3.org/2000/svg" xmlns:xlink="http://www.w3.org/1999/xlink">
<g id="graph0" class="graph" transform="scale(1 1) rotate(0) translate(4 575)">
<title>Tree</title>
<polygon fill="white" stroke="none" points="-4,4 -4,-575 2290,-575 2290,4 -4,4"/>
<!-- 0 -->
<g id="node1" class="node">
<title>0</title>
<path fill="#f1bd98" stroke="black" d="M1253.38,-571C1253.38,-571 1164.62,-571 1164.62,-571 1158.62,-571 1152.62,-565 1152.62,-559 1152.62,-559 1152.62,-512 1152.62,-512 1152.62,-506 1158.62,-500 1164.62,-500 1164.62,-500 1253.38,-500 1253.38,-500 1259.38,-500 1265.38,-506 1265.38,-512 1265.38,-512 1265.38,-559 1265.38,-559 1265.38,-565 1259.38,-571 1253.38,-571"/>
<text text-anchor="start" x="1168.88" y="-553.7" font-family="Helvetica,sans-Serif" font-size="14.00">P4_6_3 ≤ 1.5</text>
<text text-anchor="start" x="1161" y="-537.95" font-family="Helvetica,sans-Serif" font-size="14.00">poisson = 0.362</text>
<text text-anchor="start" x="1160.62" y="-522.2" font-family="Helvetica,sans-Serif" font-size="14.00">samples = 5050</text>
<text text-anchor="start" x="1164.75" y="-506.45" font-family="Helvetica,sans-Serif" font-size="14.00">value = 11.643</text>
</g>
<!-- 1 -->
<g id="node2" class="node">
<title>1</title>
<path fill="#f6d6be" stroke="black" d="M900,-464C900,-464 812,-464 812,-464 806,-464 800,-458 800,-452 800,-452 800,-405 800,-405 800,-399 806,-393 812,-393 812,-393 900,-393 900,-393 906,-393 912,-399 912,-405 912,-405 912,-452 912,-452 912,-458 906,-464 900,-464"/>
<text text-anchor="start" x="815.88" y="-446.7" font-family="Helvetica,sans-Serif" font-size="14.00">P4_7_3 ≤ 0.5</text>
<text text-anchor="start" x="808" y="-430.95" font-family="Helvetica,sans-Serif" font-size="14.00">poisson = 0.272</text>
<text text-anchor="start" x="811.38" y="-415.2" font-family="Helvetica,sans-Serif" font-size="14.00">samples = 910</text>
<text text-anchor="start" x="815.12" y="-399.45" font-family="Helvetica,sans-Serif" font-size="14.00">value = 8.948</text>
</g>
<!-- 0&#45;&gt;1 -->
<g id="edge1" class="edge">
<title>0&#45;&gt;1</title>
<path fill="none" stroke="black" d="M1152.28,-517.63C1089.79,-499.04 989.37,-469.17 923.03,-449.44"/>
<polygon fill="black" stroke="black" points="924.32,-446.17 913.73,-446.67 922.32,-452.88 924.32,-446.17"/>
<text text-anchor="middle" x="924.19" y="-462.8" font-family="Helvetica,sans-Serif" font-size="14.00">True</text>
</g>
<!-- 172 -->
<g id="node33" class="node">
<title>172</title>
<path fill="#f0b88f" stroke="black" d="M1475.38,-464C1475.38,-464 1386.62,-464 1386.62,-464 1380.62,-464 1374.62,-458 1374.62,-452 1374.62,-452 1374.62,-405 1374.62,-405 1374.62,-399 1380.62,-393 1386.62,-393 1386.62,-393 1475.38,-393 1475.38,-393 1481.38,-393 1487.38,-399 1487.38,-405 1487.38,-405 1487.38,-452 1487.38,-452 1487.38,-458 1481.38,-464 1475.38,-464"/>
<text text-anchor="start" x="1390.88" y="-446.7" font-family="Helvetica,sans-Serif" font-size="14.00">P4_6_4 ≤ 1.5</text>
<text text-anchor="start" x="1383" y="-430.95" font-family="Helvetica,sans-Serif" font-size="14.00">poisson = 0.293</text>
<text text-anchor="start" x="1382.62" y="-415.2" font-family="Helvetica,sans-Serif" font-size="14.00">samples = 4140</text>
<text text-anchor="start" x="1386.38" y="-399.45" font-family="Helvetica,sans-Serif" font-size="14.00">value = 12.236</text>
</g>
<!-- 0&#45;&gt;172 -->
<g id="edge32" class="edge">
<title>0&#45;&gt;172</title>
<path fill="none" stroke="black" d="M1265.59,-507.73C1295.73,-493.48 1332.98,-475.86 1364.49,-460.96"/>
<polygon fill="black" stroke="black" points="1365.6,-464.31 1373.14,-456.87 1362.6,-457.98 1365.6,-464.31"/>
<text text-anchor="middle" x="1366.09" y="-474.33" font-family="Helvetica,sans-Serif" font-size="14.00">False</text>
</g>
<!-- 2 -->
<g id="node3" class="node">
<title>2</title>
<path fill="#f5cfb4" stroke="black" d="M482,-357C482,-357 394,-357 394,-357 388,-357 382,-351 382,-345 382,-345 382,-298 382,-298 382,-292 388,-286 394,-286 394,-286 482,-286 482,-286 488,-286 494,-292 494,-298 494,-298 494,-345 494,-345 494,-351 488,-357 482,-357"/>
<text text-anchor="start" x="397.88" y="-339.7" font-family="Helvetica,sans-Serif" font-size="14.00">P4_6_1 ≤ 1.5</text>
<text text-anchor="start" x="390" y="-323.95" font-family="Helvetica,sans-Serif" font-size="14.00">poisson = 0.205</text>
<text text-anchor="start" x="393.38" y="-308.2" font-family="Helvetica,sans-Serif" font-size="14.00">samples = 586</text>
<text text-anchor="start" x="397.12" y="-292.45" font-family="Helvetica,sans-Serif" font-size="14.00">value = 9.651</text>
</g>
<!-- 1&#45;&gt;2 -->
<g id="edge2" class="edge">
<title>1&#45;&gt;2</title>
<path fill="none" stroke="black" d="M799.63,-413.34C723.33,-394.17 587.35,-360.02 505.64,-339.49"/>
<polygon fill="black" stroke="black" points="506.5,-336.1 495.95,-337.06 504.79,-342.89 506.5,-336.1"/>
</g>
<!-- 105 -->
<g id="node18" class="node">
<title>105</title>
<path fill="#f9e1d0" stroke="black" d="M900,-357C900,-357 812,-357 812,-357 806,-357 800,-351 800,-345 800,-345 800,-298 800,-298 800,-292 806,-286 812,-286 812,-286 900,-286 900,-286 906,-286 912,-292 912,-298 912,-298 912,-345 912,-345 912,-351 906,-357 900,-357"/>
<text text-anchor="start" x="815.88" y="-339.7" font-family="Helvetica,sans-Serif" font-size="14.00">P4_6_4 ≤ 1.5</text>
<text text-anchor="start" x="808" y="-323.95" font-family="Helvetica,sans-Serif" font-size="14.00">poisson = 0.249</text>
<text text-anchor="start" x="811.38" y="-308.2" font-family="Helvetica,sans-Serif" font-size="14.00">samples = 324</text>
<text text-anchor="start" x="815.12" y="-292.45" font-family="Helvetica,sans-Serif" font-size="14.00">value = 7.678</text>
</g>
<!-- 1&#45;&gt;105 -->
<g id="edge17" class="edge">
<title>1&#45;&gt;105</title>
<path fill="none" stroke="black" d="M856,-392.54C856,-384.92 856,-376.75 856,-368.77"/>
<polygon fill="black" stroke="black" points="859.5,-368.82 856,-358.82 852.5,-368.82 859.5,-368.82"/>
</g>
<!-- 3 -->
<g id="node4" class="node">
<title>3</title>
<path fill="#f4cbad" stroke="black" d="M278,-250C278,-250 190,-250 190,-250 184,-250 178,-244 178,-238 178,-238 178,-191 178,-191 178,-185 184,-179 190,-179 190,-179 278,-179 278,-179 284,-179 290,-185 290,-191 290,-191 290,-238 290,-238 290,-244 284,-250 278,-250"/>
<text text-anchor="start" x="201.38" y="-232.7" font-family="Helvetica,sans-Serif" font-size="14.00">P4_1 ≤ 0.5</text>
<text text-anchor="start" x="186" y="-216.95" font-family="Helvetica,sans-Serif" font-size="14.00">poisson = 0.158</text>
<text text-anchor="start" x="189.38" y="-201.2" font-family="Helvetica,sans-Serif" font-size="14.00">samples = 425</text>
<text text-anchor="start" x="189.38" y="-185.45" font-family="Helvetica,sans-Serif" font-size="14.00">value = 10.169</text>
</g>
<!-- 2&#45;&gt;3 -->
<g id="edge3" class="edge">
<title>2&#45;&gt;3</title>
<path fill="none" stroke="black" d="M381.72,-291.53C356.62,-278.62 326.88,-263.31 300.68,-249.82"/>
<polygon fill="black" stroke="black" points="302.29,-246.71 291.8,-245.25 299.09,-252.94 302.29,-246.71"/>
</g>
<!-- 74 -->
<g id="node11" class="node">
<title>74</title>
<path fill="#f8dcc8" stroke="black" d="M482,-250C482,-250 394,-250 394,-250 388,-250 382,-244 382,-238 382,-238 382,-191 382,-191 382,-185 388,-179 394,-179 394,-179 482,-179 482,-179 488,-179 494,-185 494,-191 494,-191 494,-238 494,-238 494,-244 488,-250 482,-250"/>
<text text-anchor="start" x="397.88" y="-232.7" font-family="Helvetica,sans-Serif" font-size="14.00">P4_6_4 ≤ 1.5</text>
<text text-anchor="start" x="390" y="-216.95" font-family="Helvetica,sans-Serif" font-size="14.00">poisson = 0.192</text>
<text text-anchor="start" x="393.38" y="-201.2" font-family="Helvetica,sans-Serif" font-size="14.00">samples = 161</text>
<text text-anchor="start" x="397.12" y="-185.45" font-family="Helvetica,sans-Serif" font-size="14.00">value = 8.284</text>
</g>
<!-- 2&#45;&gt;74 -->
<g id="edge10" class="edge">
<title>2&#45;&gt;74</title>
<path fill="none" stroke="black" d="M438,-285.54C438,-277.92 438,-269.75 438,-261.77"/>
<polygon fill="black" stroke="black" points="441.5,-261.82 438,-251.82 434.5,-261.82 441.5,-261.82"/>
</g>
<!-- 4 -->
<g id="node5" class="node">
<title>4</title>
<path fill="#f0b890" stroke="black" d="M139.62,-143C139.62,-143 58.38,-143 58.38,-143 52.38,-143 46.38,-137 46.38,-131 46.38,-131 46.38,-84 46.38,-84 46.38,-78 52.38,-72 58.38,-72 58.38,-72 139.62,-72 139.62,-72 145.62,-72 151.62,-78 151.62,-84 151.62,-84 151.62,-131 151.62,-131 151.62,-137 145.62,-143 139.62,-143"/>
<text text-anchor="start" x="55.5" y="-125.7" font-family="Helvetica,sans-Serif" font-size="14.00">P11_3_9 ≤ 0.5</text>
<text text-anchor="start" x="54.75" y="-109.95" font-family="Helvetica,sans-Serif" font-size="14.00">poisson = 0.14</text>
<text text-anchor="start" x="58.12" y="-94.2" font-family="Helvetica,sans-Serif" font-size="14.00">samples = 56</text>
<text text-anchor="start" x="54.38" y="-78.45" font-family="Helvetica,sans-Serif" font-size="14.00">value = 12.173</text>
</g>
<!-- 3&#45;&gt;4 -->
<g id="edge4" class="edge">
<title>3&#45;&gt;4</title>
<path fill="none" stroke="black" d="M189.05,-178.54C177.43,-169.5 164.81,-159.69 152.8,-150.34"/>
<polygon fill="black" stroke="black" points="154.99,-147.62 144.95,-144.24 150.7,-153.14 154.99,-147.62"/>
</g>
<!-- 15 -->
<g id="node8" class="node">
<title>15</title>
<path fill="#f5cdb1" stroke="black" d="M278,-143C278,-143 190,-143 190,-143 184,-143 178,-137 178,-131 178,-131 178,-84 178,-84 178,-78 184,-72 190,-72 190,-72 278,-72 278,-72 284,-72 290,-78 290,-84 290,-84 290,-131 290,-131 290,-137 284,-143 278,-143"/>
<text text-anchor="start" x="197.62" y="-125.7" font-family="Helvetica,sans-Serif" font-size="14.00">P12_2 ≤ 2.5</text>
<text text-anchor="start" x="186" y="-109.95" font-family="Helvetica,sans-Serif" font-size="14.00">poisson = 0.128</text>
<text text-anchor="start" x="189.38" y="-94.2" font-family="Helvetica,sans-Serif" font-size="14.00">samples = 369</text>
<text text-anchor="start" x="193.12" y="-78.45" font-family="Helvetica,sans-Serif" font-size="14.00">value = 9.864</text>
</g>
<!-- 3&#45;&gt;15 -->
<g id="edge7" class="edge">
<title>3&#45;&gt;15</title>
<path fill="none" stroke="black" d="M234,-178.54C234,-170.92 234,-162.75 234,-154.77"/>
<polygon fill="black" stroke="black" points="237.5,-154.82 234,-144.82 230.5,-154.82 237.5,-154.82"/>
</g>
<!-- 5 -->
<g id="node6" class="node">
<title>5</title>
<path fill="#c0c0c0" stroke="black" d="M42,-36C42,-36 12,-36 12,-36 6,-36 0,-30 0,-24 0,-24 0,-12 0,-12 0,-6 6,0 12,0 12,0 42,0 42,0 48,0 54,-6 54,-12 54,-12 54,-24 54,-24 54,-30 48,-36 42,-36"/>
<text text-anchor="middle" x="27" y="-12.57" font-family="Helvetica,sans-Serif" font-size="14.00">(...)</text>
</g>
<!-- 4&#45;&gt;5 -->
<g id="edge5" class="edge">
<title>4&#45;&gt;5</title>
<path fill="none" stroke="black" d="M70.34,-71.67C62.96,-62.71 55.16,-53.23 48.24,-44.81"/>
<polygon fill="black" stroke="black" points="51.16,-42.85 42.1,-37.35 45.75,-47.3 51.16,-42.85"/>
</g>
<!-- 12 -->
<g id="node7" class="node">
<title>12</title>
<path fill="#c0c0c0" stroke="black" d="M114,-36C114,-36 84,-36 84,-36 78,-36 72,-30 72,-24 72,-24 72,-12 72,-12 72,-6 78,0 84,0 84,0 114,0 114,0 120,0 126,-6 126,-12 126,-12 126,-24 126,-24 126,-30 120,-36 114,-36"/>
<text text-anchor="middle" x="99" y="-12.57" font-family="Helvetica,sans-Serif" font-size="14.00">(...)</text>
</g>
<!-- 4&#45;&gt;12 -->
<g id="edge6" class="edge">
<title>4&#45;&gt;12</title>
<path fill="none" stroke="black" d="M99,-71.67C99,-63.66 99,-55.24 99,-47.53"/>
<polygon fill="black" stroke="black" points="102.5,-47.7 99,-37.7 95.5,-47.7 102.5,-47.7"/>
</g>
<!-- 16 -->
<g id="node9" class="node">
<title>16</title>
<path fill="#c0c0c0" stroke="black" d="M186,-36C186,-36 156,-36 156,-36 150,-36 144,-30 144,-24 144,-24 144,-12 144,-12 144,-6 150,0 156,0 156,0 186,0 186,0 192,0 198,-6 198,-12 198,-12 198,-24 198,-24 198,-30 192,-36 186,-36"/>
<text text-anchor="middle" x="171" y="-12.57" font-family="Helvetica,sans-Serif" font-size="14.00">(...)</text>
</g>
<!-- 15&#45;&gt;16 -->
<g id="edge8" class="edge">
<title>15&#45;&gt;16</title>
<path fill="none" stroke="black" d="M208.92,-71.67C202.61,-62.9 195.93,-53.63 189.97,-45.35"/>
<polygon fill="black" stroke="black" points="192.94,-43.48 184.26,-37.41 187.26,-47.57 192.94,-43.48"/>
</g>
<!-- 47 -->
<g id="node10" class="node">
<title>47</title>
<path fill="#c0c0c0" stroke="black" d="M258,-36C258,-36 228,-36 228,-36 222,-36 216,-30 216,-24 216,-24 216,-12 216,-12 216,-6 222,0 228,0 228,0 258,0 258,0 264,0 270,-6 270,-12 270,-12 270,-24 270,-24 270,-30 264,-36 258,-36"/>
<text text-anchor="middle" x="243" y="-12.57" font-family="Helvetica,sans-Serif" font-size="14.00">(...)</text>
</g>
<!-- 15&#45;&gt;47 -->
<g id="edge9" class="edge">
<title>15&#45;&gt;47</title>
<path fill="none" stroke="black" d="M237.58,-71.67C238.41,-63.66 239.27,-55.24 240.07,-47.53"/>
<polygon fill="black" stroke="black" points="243.54,-47.99 241.08,-37.69 236.57,-47.28 243.54,-47.99"/>
</g>
<!-- 75 -->
<g id="node12" class="node">
<title>75</title>
<path fill="#f6d3ba" stroke="black" d="M419,-143C419,-143 331,-143 331,-143 325,-143 319,-137 319,-131 319,-131 319,-84 319,-84 319,-78 325,-72 331,-72 331,-72 419,-72 419,-72 425,-72 431,-78 431,-84 431,-84 431,-131 431,-131 431,-137 425,-143 419,-143"/>
<text text-anchor="start" x="334.88" y="-125.7" font-family="Helvetica,sans-Serif" font-size="14.00">P7_1_2 ≤ 2.5</text>
<text text-anchor="start" x="327" y="-109.95" font-family="Helvetica,sans-Serif" font-size="14.00">poisson = 0.125</text>
<text text-anchor="start" x="334.12" y="-94.2" font-family="Helvetica,sans-Serif" font-size="14.00">samples = 68</text>
<text text-anchor="start" x="334.12" y="-78.45" font-family="Helvetica,sans-Serif" font-size="14.00">value = 9.245</text>
</g>
<!-- 74&#45;&gt;75 -->
<g id="edge11" class="edge">
<title>74&#45;&gt;75</title>
<path fill="none" stroke="black" d="M417.02,-178.54C412.13,-170.39 406.86,-161.61 401.76,-153.11"/>
<polygon fill="black" stroke="black" points="404.81,-151.38 396.67,-144.61 398.81,-154.98 404.81,-151.38"/>
</g>
<!-- 86 -->
<g id="node15" class="node">
<title>86</title>
<path fill="#f9e2d2" stroke="black" d="M541.25,-143C541.25,-143 460.75,-143 460.75,-143 454.75,-143 448.75,-137 448.75,-131 448.75,-131 448.75,-84 448.75,-84 448.75,-78 454.75,-72 460.75,-72 460.75,-72 541.25,-72 541.25,-72 547.25,-72 553.25,-78 553.25,-84 553.25,-84 553.25,-131 553.25,-131 553.25,-137 547.25,-143 541.25,-143"/>
<text text-anchor="start" x="464.62" y="-125.7" font-family="Helvetica,sans-Serif" font-size="14.00">P12_2 ≤ 2.5</text>
<text text-anchor="start" x="456.75" y="-109.95" font-family="Helvetica,sans-Serif" font-size="14.00">poisson = 0.17</text>
<text text-anchor="start" x="460.12" y="-94.2" font-family="Helvetica,sans-Serif" font-size="14.00">samples = 93</text>
<text text-anchor="start" x="460.12" y="-78.45" font-family="Helvetica,sans-Serif" font-size="14.00">value = 7.581</text>
</g>
<!-- 74&#45;&gt;86 -->
<g id="edge14" class="edge">
<title>74&#45;&gt;86</title>
<path fill="none" stroke="black" d="M458.98,-178.54C463.87,-170.39 469.14,-161.61 474.24,-153.11"/>
<polygon fill="black" stroke="black" points="477.19,-154.98 479.33,-144.61 471.19,-151.38 477.19,-154.98"/>
</g>
<!-- 76 -->
<g id="node13" class="node">
<title>76</title>
<path fill="#c0c0c0" stroke="black" d="M330,-36C330,-36 300,-36 300,-36 294,-36 288,-30 288,-24 288,-24 288,-12 288,-12 288,-6 294,0 300,0 300,0 330,0 330,0 336,0 342,-6 342,-12 342,-12 342,-24 342,-24 342,-30 336,-36 330,-36"/>
<text text-anchor="middle" x="315" y="-12.57" font-family="Helvetica,sans-Serif" font-size="14.00">(...)</text>
</g>
<!-- 75&#45;&gt;76 -->
<g id="edge12" class="edge">
<title>75&#45;&gt;76</title>
<path fill="none" stroke="black" d="M351.11,-71.67C345.17,-62.99 338.88,-53.83 333.26,-45.62"/>
<polygon fill="black" stroke="black" points="336.18,-43.7 327.64,-37.43 330.41,-47.66 336.18,-43.7"/>
</g>
<!-- 77 -->
<g id="node14" class="node">
<title>77</title>
<path fill="#c0c0c0" stroke="black" d="M402,-36C402,-36 372,-36 372,-36 366,-36 360,-30 360,-24 360,-24 360,-12 360,-12 360,-6 366,0 372,0 372,0 402,0 402,0 408,0 414,-6 414,-12 414,-12 414,-24 414,-24 414,-30 408,-36 402,-36"/>
<text text-anchor="middle" x="387" y="-12.57" font-family="Helvetica,sans-Serif" font-size="14.00">(...)</text>
</g>
<!-- 75&#45;&gt;77 -->
<g id="edge13" class="edge">
<title>75&#45;&gt;77</title>
<path fill="none" stroke="black" d="M379.78,-71.67C380.88,-63.66 382.03,-55.24 383.09,-47.53"/>
<polygon fill="black" stroke="black" points="386.55,-48.07 384.44,-37.68 379.61,-47.11 386.55,-48.07"/>
</g>
<!-- 87 -->
<g id="node16" class="node">
<title>87</title>
<path fill="#c0c0c0" stroke="black" d="M474,-36C474,-36 444,-36 444,-36 438,-36 432,-30 432,-24 432,-24 432,-12 432,-12 432,-6 438,0 444,0 444,0 474,0 474,0 480,0 486,-6 486,-12 486,-12 486,-24 486,-24 486,-30 480,-36 474,-36"/>
<text text-anchor="middle" x="459" y="-12.57" font-family="Helvetica,sans-Serif" font-size="14.00">(...)</text>
</g>
<!-- 86&#45;&gt;87 -->
<g id="edge15" class="edge">
<title>86&#45;&gt;87</title>
<path fill="none" stroke="black" d="M484.28,-71.67C480.25,-63.28 476.01,-54.43 472.17,-46.44"/>
<polygon fill="black" stroke="black" points="475.39,-45.05 467.9,-37.55 469.07,-48.08 475.39,-45.05"/>
</g>
<!-- 96 -->
<g id="node17" class="node">
<title>96</title>
<path fill="#c0c0c0" stroke="black" d="M546,-36C546,-36 516,-36 516,-36 510,-36 504,-30 504,-24 504,-24 504,-12 504,-12 504,-6 510,0 516,0 516,0 546,0 546,0 552,0 558,-6 558,-12 558,-12 558,-24 558,-24 558,-30 552,-36 546,-36"/>
<text text-anchor="middle" x="531" y="-12.57" font-family="Helvetica,sans-Serif" font-size="14.00">(...)</text>
</g>
<!-- 86&#45;&gt;96 -->
<g id="edge16" class="edge">
<title>86&#45;&gt;96</title>
<path fill="none" stroke="black" d="M512.94,-71.67C515.75,-63.47 518.71,-54.84 521.41,-46.98"/>
<polygon fill="black" stroke="black" points="524.69,-48.21 524.62,-37.61 518.06,-45.94 524.69,-48.21"/>
</g>
<!-- 106 -->
<g id="node19" class="node">
<title>106</title>
<path fill="#f7d7c1" stroke="black" d="M837,-250C837,-250 749,-250 749,-250 743,-250 737,-244 737,-238 737,-238 737,-191 737,-191 737,-185 743,-179 749,-179 749,-179 837,-179 837,-179 843,-179 849,-185 849,-191 849,-191 849,-238 849,-238 849,-244 843,-250 837,-250"/>
<text text-anchor="start" x="752.88" y="-232.7" font-family="Helvetica,sans-Serif" font-size="14.00">P4_6_1 ≤ 1.5</text>
<text text-anchor="start" x="745" y="-216.95" font-family="Helvetica,sans-Serif" font-size="14.00">poisson = 0.195</text>
<text text-anchor="start" x="748.38" y="-201.2" font-family="Helvetica,sans-Serif" font-size="14.00">samples = 129</text>
<text text-anchor="start" x="752.12" y="-185.45" font-family="Helvetica,sans-Serif" font-size="14.00">value = 8.773</text>
</g>
<!-- 105&#45;&gt;106 -->
<g id="edge18" class="edge">
<title>105&#45;&gt;106</title>
<path fill="none" stroke="black" d="M835.02,-285.54C830.13,-277.39 824.86,-268.61 819.76,-260.11"/>
<polygon fill="black" stroke="black" points="822.81,-258.38 814.67,-251.61 816.81,-261.98 822.81,-258.38"/>
</g>
<!-- 131 -->
<g id="node26" class="node">
<title>131</title>
<path fill="#fae8db" stroke="black" d="M960.62,-250C960.62,-250 879.38,-250 879.38,-250 873.38,-250 867.38,-244 867.38,-238 867.38,-238 867.38,-191 867.38,-191 867.38,-185 873.38,-179 879.38,-179 879.38,-179 960.62,-179 960.62,-179 966.62,-179 972.62,-185 972.62,-191 972.62,-191 972.62,-238 972.62,-238 972.62,-244 966.62,-250 960.62,-250"/>
<text text-anchor="start" x="879.88" y="-232.7" font-family="Helvetica,sans-Serif" font-size="14.00">P4_6_2 ≤ 1.5</text>
<text text-anchor="start" x="879.5" y="-216.95" font-family="Helvetica,sans-Serif" font-size="14.00">poisson = 0.2</text>
<text text-anchor="start" x="875.38" y="-201.2" font-family="Helvetica,sans-Serif" font-size="14.00">samples = 195</text>
<text text-anchor="start" x="879.12" y="-185.45" font-family="Helvetica,sans-Serif" font-size="14.00">value = 6.954</text>
</g>
<!-- 105&#45;&gt;131 -->
<g id="edge25" class="edge">
<title>105&#45;&gt;131</title>
<path fill="none" stroke="black" d="M877.31,-285.54C882.28,-277.39 887.63,-268.61 892.81,-260.11"/>
<polygon fill="black" stroke="black" points="895.78,-261.96 897.99,-251.6 889.8,-258.32 895.78,-261.96"/>
</g>
<!-- 107 -->
<g id="node20" class="node">
<title>107</title>
<path fill="#f6d2b8" stroke="black" d="M707,-143C707,-143 619,-143 619,-143 613,-143 607,-137 607,-131 607,-131 607,-84 607,-84 607,-78 613,-72 619,-72 619,-72 707,-72 707,-72 713,-72 719,-78 719,-84 719,-84 719,-131 719,-131 719,-137 713,-143 707,-143"/>
<text text-anchor="start" x="619.5" y="-125.7" font-family="Helvetica,sans-Serif" font-size="14.00">P11_3_9 ≤ 0.5</text>
<text text-anchor="start" x="615" y="-109.95" font-family="Helvetica,sans-Serif" font-size="14.00">poisson = 0.144</text>
<text text-anchor="start" x="622.12" y="-94.2" font-family="Helvetica,sans-Serif" font-size="14.00">samples = 93</text>
<text text-anchor="start" x="622.12" y="-78.45" font-family="Helvetica,sans-Serif" font-size="14.00">value = 9.351</text>
</g>
<!-- 106&#45;&gt;107 -->
<g id="edge19" class="edge">
<title>106&#45;&gt;107</title>
<path fill="none" stroke="black" d="M749.71,-178.54C738.53,-169.5 726.38,-159.69 714.81,-150.34"/>
<polygon fill="black" stroke="black" points="717.26,-147.82 707.28,-144.26 712.86,-153.27 717.26,-147.82"/>
</g>
<!-- 124 -->
<g id="node23" class="node">
<title>124</title>
<path fill="#fae5d6" stroke="black" d="M837,-143C837,-143 749,-143 749,-143 743,-143 737,-137 737,-131 737,-131 737,-84 737,-84 737,-78 743,-72 749,-72 749,-72 837,-72 837,-72 843,-72 849,-78 849,-84 849,-84 849,-131 849,-131 849,-137 843,-143 837,-143"/>
<text text-anchor="start" x="752.88" y="-125.7" font-family="Helvetica,sans-Serif" font-size="14.00">P4_7_2 ≤ 0.5</text>
<text text-anchor="start" x="745" y="-109.95" font-family="Helvetica,sans-Serif" font-size="14.00">poisson = 0.145</text>
<text text-anchor="start" x="752.12" y="-94.2" font-family="Helvetica,sans-Serif" font-size="14.00">samples = 36</text>
<text text-anchor="start" x="752.12" y="-78.45" font-family="Helvetica,sans-Serif" font-size="14.00">value = 7.278</text>
</g>
<!-- 106&#45;&gt;124 -->
<g id="edge22" class="edge">
<title>106&#45;&gt;124</title>
<path fill="none" stroke="black" d="M793,-178.54C793,-170.92 793,-162.75 793,-154.77"/>
<polygon fill="black" stroke="black" points="796.5,-154.82 793,-144.82 789.5,-154.82 796.5,-154.82"/>
</g>
<!-- 108 -->
<g id="node21" class="node">
<title>108</title>
<path fill="#c0c0c0" stroke="black" d="M618,-36C618,-36 588,-36 588,-36 582,-36 576,-30 576,-24 576,-24 576,-12 576,-12 576,-6 582,0 588,0 588,0 618,0 618,0 624,0 630,-6 630,-12 630,-12 630,-24 630,-24 630,-30 624,-36 618,-36"/>
<text text-anchor="middle" x="603" y="-12.57" font-family="Helvetica,sans-Serif" font-size="14.00">(...)</text>
</g>
<!-- 107&#45;&gt;108 -->
<g id="edge20" class="edge">
<title>107&#45;&gt;108</title>
<path fill="none" stroke="black" d="M639.11,-71.67C633.17,-62.99 626.88,-53.83 621.26,-45.62"/>
<polygon fill="black" stroke="black" points="624.18,-43.7 615.64,-37.43 618.41,-47.66 624.18,-43.7"/>
</g>
<!-- 113 -->
<g id="node22" class="node">
<title>113</title>
<path fill="#c0c0c0" stroke="black" d="M690,-36C690,-36 660,-36 660,-36 654,-36 648,-30 648,-24 648,-24 648,-12 648,-12 648,-6 654,0 660,0 660,0 690,0 690,0 696,0 702,-6 702,-12 702,-12 702,-24 702,-24 702,-30 696,-36 690,-36"/>
<text text-anchor="middle" x="675" y="-12.57" font-family="Helvetica,sans-Serif" font-size="14.00">(...)</text>
</g>
<!-- 107&#45;&gt;113 -->
<g id="edge21" class="edge">
<title>107&#45;&gt;113</title>
<path fill="none" stroke="black" d="M667.78,-71.67C668.88,-63.66 670.03,-55.24 671.09,-47.53"/>
<polygon fill="black" stroke="black" points="674.55,-48.07 672.44,-37.68 667.61,-47.11 674.55,-48.07"/>
</g>
<!-- 125 -->
<g id="node24" class="node">
<title>125</title>
<path fill="#c0c0c0" stroke="black" d="M762,-36C762,-36 732,-36 732,-36 726,-36 720,-30 720,-24 720,-24 720,-12 720,-12 720,-6 726,0 732,0 732,0 762,0 762,0 768,0 774,-6 774,-12 774,-12 774,-24 774,-24 774,-30 768,-36 762,-36"/>
<text text-anchor="middle" x="747" y="-12.57" font-family="Helvetica,sans-Serif" font-size="14.00">(...)</text>
</g>
<!-- 124&#45;&gt;125 -->
<g id="edge23" class="edge">
<title>124&#45;&gt;125</title>
<path fill="none" stroke="black" d="M774.69,-71.67C770.23,-63.18 765.52,-54.23 761.28,-46.17"/>
<polygon fill="black" stroke="black" points="764.49,-44.75 756.74,-37.52 758.29,-48 764.49,-44.75"/>
</g>
<!-- 128 -->
<g id="node25" class="node">
<title>128</title>
<path fill="#c0c0c0" stroke="black" d="M834,-36C834,-36 804,-36 804,-36 798,-36 792,-30 792,-24 792,-24 792,-12 792,-12 792,-6 798,0 804,0 804,0 834,0 834,0 840,0 846,-6 846,-12 846,-12 846,-24 846,-24 846,-30 840,-36 834,-36"/>
<text text-anchor="middle" x="819" y="-12.57" font-family="Helvetica,sans-Serif" font-size="14.00">(...)</text>
</g>
<!-- 124&#45;&gt;128 -->
<g id="edge24" class="edge">
<title>124&#45;&gt;128</title>
<path fill="none" stroke="black" d="M803.35,-71.67C805.79,-63.47 808.35,-54.84 810.68,-46.98"/>
<polygon fill="black" stroke="black" points="813.97,-48.22 813.46,-37.63 807.26,-46.22 813.97,-48.22"/>
</g>
<!-- 132 -->
<g id="node27" class="node">
<title>132</title>
<path fill="#f9e4d4" stroke="black" d="M960.62,-143C960.62,-143 879.38,-143 879.38,-143 873.38,-143 867.38,-137 867.38,-131 867.38,-131 867.38,-84 867.38,-84 867.38,-78 873.38,-72 879.38,-72 879.38,-72 960.62,-72 960.62,-72 966.62,-72 972.62,-78 972.62,-84 972.62,-84 972.62,-131 972.62,-131 972.62,-137 966.62,-143 960.62,-143"/>
<text text-anchor="start" x="876.5" y="-125.7" font-family="Helvetica,sans-Serif" font-size="14.00">P11_3_9 ≤ 0.5</text>
<text text-anchor="start" x="875.75" y="-109.95" font-family="Helvetica,sans-Serif" font-size="14.00">poisson = 0.15</text>
<text text-anchor="start" x="875.38" y="-94.2" font-family="Helvetica,sans-Serif" font-size="14.00">samples = 148</text>
<text text-anchor="start" x="882.88" y="-78.45" font-family="Helvetica,sans-Serif" font-size="14.00">value = 7.39</text>
</g>
<!-- 131&#45;&gt;132 -->
<g id="edge26" class="edge">
<title>131&#45;&gt;132</title>
<path fill="none" stroke="black" d="M920,-178.54C920,-170.92 920,-162.75 920,-154.77"/>
<polygon fill="black" stroke="black" points="923.5,-154.82 920,-144.82 916.5,-154.82 923.5,-154.82"/>
</g>
<!-- 163 -->
<g id="node30" class="node">
<title>163</title>
<path fill="#fdf4ee" stroke="black" d="M1091,-143C1091,-143 1003,-143 1003,-143 997,-143 991,-137 991,-131 991,-131 991,-84 991,-84 991,-78 997,-72 1003,-72 1003,-72 1091,-72 1091,-72 1097,-72 1103,-78 1103,-84 1103,-84 1103,-131 1103,-131 1103,-137 1097,-143 1091,-143"/>
<text text-anchor="start" x="1010.62" y="-125.7" font-family="Helvetica,sans-Serif" font-size="14.00">P12_1 ≤ 0.5</text>
<text text-anchor="start" x="999" y="-109.95" font-family="Helvetica,sans-Serif" font-size="14.00">poisson = 0.168</text>
<text text-anchor="start" x="1006.12" y="-94.2" font-family="Helvetica,sans-Serif" font-size="14.00">samples = 47</text>
<text text-anchor="start" x="1006.12" y="-78.45" font-family="Helvetica,sans-Serif" font-size="14.00">value = 5.582</text>
</g>
<!-- 131&#45;&gt;163 -->
<g id="edge29" class="edge">
<title>131&#45;&gt;163</title>
<path fill="none" stroke="black" d="M962.29,-178.54C973.11,-169.59 984.85,-159.88 996.06,-150.62"/>
<polygon fill="black" stroke="black" points="998.25,-153.34 1003.73,-144.28 993.79,-147.95 998.25,-153.34"/>
</g>
<!-- 133 -->
<g id="node28" class="node">
<title>133</title>
<path fill="#c0c0c0" stroke="black" d="M906,-36C906,-36 876,-36 876,-36 870,-36 864,-30 864,-24 864,-24 864,-12 864,-12 864,-6 870,0 876,0 876,0 906,0 906,0 912,0 918,-6 918,-12 918,-12 918,-24 918,-24 918,-30 912,-36 906,-36"/>
<text text-anchor="middle" x="891" y="-12.57" font-family="Helvetica,sans-Serif" font-size="14.00">(...)</text>
</g>
<!-- 132&#45;&gt;133 -->
<g id="edge27" class="edge">
<title>132&#45;&gt;133</title>
<path fill="none" stroke="black" d="M908.46,-71.67C905.74,-63.47 902.88,-54.84 900.27,-46.98"/>
<polygon fill="black" stroke="black" points="903.64,-46.01 897.17,-37.62 896.99,-48.21 903.64,-46.01"/>
</g>
<!-- 144 -->
<g id="node29" class="node">
<title>144</title>
<path fill="#c0c0c0" stroke="black" d="M978,-36C978,-36 948,-36 948,-36 942,-36 936,-30 936,-24 936,-24 936,-12 936,-12 936,-6 942,0 948,0 948,0 978,0 978,0 984,0 990,-6 990,-12 990,-12 990,-24 990,-24 990,-30 984,-36 978,-36"/>
<text text-anchor="middle" x="963" y="-12.57" font-family="Helvetica,sans-Serif" font-size="14.00">(...)</text>
</g>
<!-- 132&#45;&gt;144 -->
<g id="edge28" class="edge">
<title>132&#45;&gt;144</title>
<path fill="none" stroke="black" d="M937.12,-71.67C941.24,-63.28 945.59,-54.43 949.52,-46.44"/>
<polygon fill="black" stroke="black" points="952.62,-48.06 953.89,-37.54 946.34,-44.97 952.62,-48.06"/>
</g>
<!-- 164 -->
<g id="node31" class="node">
<title>164</title>
<path fill="#c0c0c0" stroke="black" d="M1050,-36C1050,-36 1020,-36 1020,-36 1014,-36 1008,-30 1008,-24 1008,-24 1008,-12 1008,-12 1008,-6 1014,0 1020,0 1020,0 1050,0 1050,0 1056,0 1062,-6 1062,-12 1062,-12 1062,-24 1062,-24 1062,-30 1056,-36 1050,-36"/>
<text text-anchor="middle" x="1035" y="-12.57" font-family="Helvetica,sans-Serif" font-size="14.00">(...)</text>
</g>
<!-- 163&#45;&gt;164 -->
<g id="edge30" class="edge">
<title>163&#45;&gt;164</title>
<path fill="none" stroke="black" d="M1042.22,-71.67C1041.12,-63.66 1039.97,-55.24 1038.91,-47.53"/>
<polygon fill="black" stroke="black" points="1042.39,-47.11 1037.56,-37.68 1035.45,-48.07 1042.39,-47.11"/>
</g>
<!-- 171 -->
<g id="node32" class="node">
<title>171</title>
<path fill="#c0c0c0" stroke="black" d="M1122,-36C1122,-36 1092,-36 1092,-36 1086,-36 1080,-30 1080,-24 1080,-24 1080,-12 1080,-12 1080,-6 1086,0 1092,0 1092,0 1122,0 1122,0 1128,0 1134,-6 1134,-12 1134,-12 1134,-24 1134,-24 1134,-30 1128,-36 1122,-36"/>
<text text-anchor="middle" x="1107" y="-12.57" font-family="Helvetica,sans-Serif" font-size="14.00">(...)</text>
</g>
<!-- 163&#45;&gt;171 -->
<g id="edge31" class="edge">
<title>163&#45;&gt;171</title>
<path fill="none" stroke="black" d="M1070.89,-71.67C1076.83,-62.99 1083.12,-53.83 1088.74,-45.62"/>
<polygon fill="black" stroke="black" points="1091.59,-47.66 1094.36,-37.43 1085.82,-43.7 1091.59,-47.66"/>
</g>
<!-- 173 -->
<g id="node34" class="node">
<title>173</title>
<path fill="#edaa79" stroke="black" d="M1475.38,-357C1475.38,-357 1386.62,-357 1386.62,-357 1380.62,-357 1374.62,-351 1374.62,-345 1374.62,-345 1374.62,-298 1374.62,-298 1374.62,-292 1380.62,-286 1386.62,-286 1386.62,-286 1475.38,-286 1475.38,-286 1481.38,-286 1487.38,-292 1487.38,-298 1487.38,-298 1487.38,-345 1487.38,-345 1487.38,-351 1481.38,-357 1475.38,-357"/>
<text text-anchor="start" x="1390.88" y="-339.7" font-family="Helvetica,sans-Serif" font-size="14.00">P4_6_3 ≤ 2.5</text>
<text text-anchor="start" x="1383" y="-323.95" font-family="Helvetica,sans-Serif" font-size="14.00">poisson = 0.174</text>
<text text-anchor="start" x="1382.62" y="-308.2" font-family="Helvetica,sans-Serif" font-size="14.00">samples = 1837</text>
<text text-anchor="start" x="1386.38" y="-292.45" font-family="Helvetica,sans-Serif" font-size="14.00">value = 13.771</text>
</g>
<!-- 172&#45;&gt;173 -->
<g id="edge33" class="edge">
<title>172&#45;&gt;173</title>
<path fill="none" stroke="black" d="M1431,-392.54C1431,-384.92 1431,-376.75 1431,-368.77"/>
<polygon fill="black" stroke="black" points="1434.5,-368.82 1431,-358.82 1427.5,-368.82 1434.5,-368.82"/>
</g>
<!-- 412 -->
<g id="node49" class="node">
<title>412</title>
<path fill="#f3c3a1" stroke="black" d="M1889.38,-357C1889.38,-357 1800.62,-357 1800.62,-357 1794.62,-357 1788.62,-351 1788.62,-345 1788.62,-345 1788.62,-298 1788.62,-298 1788.62,-292 1794.62,-286 1800.62,-286 1800.62,-286 1889.38,-286 1889.38,-286 1895.38,-286 1901.38,-292 1901.38,-298 1901.38,-298 1901.38,-345 1901.38,-345 1901.38,-351 1895.38,-357 1889.38,-357"/>
<text text-anchor="start" x="1801.5" y="-339.7" font-family="Helvetica,sans-Serif" font-size="14.00">P11_3_9 ≤ 0.5</text>
<text text-anchor="start" x="1800.75" y="-323.95" font-family="Helvetica,sans-Serif" font-size="14.00">poisson = 0.25</text>
<text text-anchor="start" x="1796.62" y="-308.2" font-family="Helvetica,sans-Serif" font-size="14.00">samples = 2303</text>
<text text-anchor="start" x="1801.12" y="-292.45" font-family="Helvetica,sans-Serif" font-size="14.00">value = 11.011</text>
</g>
<!-- 172&#45;&gt;412 -->
<g id="edge48" class="edge">
<title>172&#45;&gt;412</title>
<path fill="none" stroke="black" d="M1487.7,-413.12C1563.2,-393.97 1696.6,-360.14 1777.3,-339.67"/>
<polygon fill="black" stroke="black" points="1778.03,-343.1 1786.86,-337.25 1776.3,-336.31 1778.03,-343.1"/>
</g>
<!-- 174 -->
<g id="node35" class="node">
<title>174</title>
<path fill="#efb388" stroke="black" d="M1406.62,-250C1406.62,-250 1325.38,-250 1325.38,-250 1319.38,-250 1313.38,-244 1313.38,-238 1313.38,-238 1313.38,-191 1313.38,-191 1313.38,-185 1319.38,-179 1325.38,-179 1325.38,-179 1406.62,-179 1406.62,-179 1412.62,-179 1418.62,-185 1418.62,-191 1418.62,-191 1418.62,-238 1418.62,-238 1418.62,-244 1412.62,-250 1406.62,-250"/>
<text text-anchor="start" x="1333.38" y="-232.7" font-family="Helvetica,sans-Serif" font-size="14.00">P4_1 ≤ 0.5</text>
<text text-anchor="start" x="1321.75" y="-216.95" font-family="Helvetica,sans-Serif" font-size="14.00">poisson = 0.16</text>
<text text-anchor="start" x="1321.38" y="-201.2" font-family="Helvetica,sans-Serif" font-size="14.00">samples = 892</text>
<text text-anchor="start" x="1321.38" y="-185.45" font-family="Helvetica,sans-Serif" font-size="14.00">value = 12.776</text>
</g>
<!-- 173&#45;&gt;174 -->
<g id="edge34" class="edge">
<title>173&#45;&gt;174</title>
<path fill="none" stroke="black" d="M1409.36,-285.54C1404.26,-277.3 1398.76,-268.42 1393.44,-259.83"/>
<polygon fill="black" stroke="black" points="1396.59,-258.26 1388.35,-251.6 1390.63,-261.94 1396.59,-258.26"/>
</g>
<!-- 297 -->
<g id="node42" class="node">
<title>297</title>
<path fill="#eca16c" stroke="black" d="M1540,-250C1540,-250 1452,-250 1452,-250 1446,-250 1440,-244 1440,-238 1440,-238 1440,-191 1440,-191 1440,-185 1446,-179 1452,-179 1452,-179 1540,-179 1540,-179 1546,-179 1552,-185 1552,-191 1552,-191 1552,-238 1552,-238 1552,-244 1546,-250 1540,-250"/>
<text text-anchor="start" x="1452.5" y="-232.7" font-family="Helvetica,sans-Serif" font-size="14.00">P11_3_9 ≤ 0.5</text>
<text text-anchor="start" x="1448" y="-216.95" font-family="Helvetica,sans-Serif" font-size="14.00">poisson = 0.121</text>
<text text-anchor="start" x="1451.38" y="-201.2" font-family="Helvetica,sans-Serif" font-size="14.00">samples = 945</text>
<text text-anchor="start" x="1451.38" y="-185.45" font-family="Helvetica,sans-Serif" font-size="14.00">value = 14.709</text>
</g>
<!-- 173&#45;&gt;297 -->
<g id="edge41" class="edge">
<title>173&#45;&gt;297</title>
<path fill="none" stroke="black" d="M1452.64,-285.54C1457.74,-277.3 1463.24,-268.42 1468.56,-259.83"/>
<polygon fill="black" stroke="black" points="1471.37,-261.94 1473.65,-251.6 1465.41,-258.26 1471.37,-261.94"/>
</g>
<!-- 175 -->
<g id="node36" class="node">
<title>175</title>
<path fill="#eca471" stroke="black" d="M1280,-143C1280,-143 1192,-143 1192,-143 1186,-143 1180,-137 1180,-131 1180,-131 1180,-84 1180,-84 1180,-78 1186,-72 1192,-72 1192,-72 1280,-72 1280,-72 1286,-72 1292,-78 1292,-84 1292,-84 1292,-131 1292,-131 1292,-137 1286,-143 1280,-143"/>
<text text-anchor="start" x="1195.88" y="-125.7" font-family="Helvetica,sans-Serif" font-size="14.00">P4_6_1 ≤ 1.5</text>
<text text-anchor="start" x="1188" y="-109.95" font-family="Helvetica,sans-Serif" font-size="14.00">poisson = 0.097</text>
<text text-anchor="start" x="1191.38" y="-94.2" font-family="Helvetica,sans-Serif" font-size="14.00">samples = 236</text>
<text text-anchor="start" x="1191.38" y="-78.45" font-family="Helvetica,sans-Serif" font-size="14.00">value = 14.383</text>
</g>
<!-- 174&#45;&gt;175 -->
<g id="edge35" class="edge">
<title>174&#45;&gt;175</title>
<path fill="none" stroke="black" d="M1322.71,-178.54C1311.53,-169.5 1299.38,-159.69 1287.81,-150.34"/>
<polygon fill="black" stroke="black" points="1290.26,-147.82 1280.28,-144.26 1285.86,-153.27 1290.26,-147.82"/>
</g>
<!-- 216 -->
<g id="node39" class="node">
<title>216</title>
<path fill="#f0b890" stroke="black" d="M1410,-143C1410,-143 1322,-143 1322,-143 1316,-143 1310,-137 1310,-131 1310,-131 1310,-84 1310,-84 1310,-78 1316,-72 1322,-72 1322,-72 1410,-72 1410,-72 1416,-72 1422,-78 1422,-84 1422,-84 1422,-131 1422,-131 1422,-137 1416,-143 1410,-143"/>
<text text-anchor="start" x="1322.5" y="-125.7" font-family="Helvetica,sans-Serif" font-size="14.00">P11_3_9 ≤ 0.5</text>
<text text-anchor="start" x="1318" y="-109.95" font-family="Helvetica,sans-Serif" font-size="14.00">poisson = 0.134</text>
<text text-anchor="start" x="1321.38" y="-94.2" font-family="Helvetica,sans-Serif" font-size="14.00">samples = 656</text>
<text text-anchor="start" x="1321.38" y="-78.45" font-family="Helvetica,sans-Serif" font-size="14.00">value = 12.198</text>
</g>
<!-- 174&#45;&gt;216 -->
<g id="edge38" class="edge">
<title>174&#45;&gt;216</title>
<path fill="none" stroke="black" d="M1366,-178.54C1366,-170.92 1366,-162.75 1366,-154.77"/>
<polygon fill="black" stroke="black" points="1369.5,-154.82 1366,-144.82 1362.5,-154.82 1369.5,-154.82"/>
</g>
<!-- 176 -->
<g id="node37" class="node">
<title>176</title>
<path fill="#c0c0c0" stroke="black" d="M1194,-36C1194,-36 1164,-36 1164,-36 1158,-36 1152,-30 1152,-24 1152,-24 1152,-12 1152,-12 1152,-6 1158,0 1164,0 1164,0 1194,0 1194,0 1200,0 1206,-6 1206,-12 1206,-12 1206,-24 1206,-24 1206,-30 1200,-36 1194,-36"/>
<text text-anchor="middle" x="1179" y="-12.57" font-family="Helvetica,sans-Serif" font-size="14.00">(...)</text>
</g>
<!-- 175&#45;&gt;176 -->
<g id="edge36" class="edge">
<title>175&#45;&gt;176</title>
<path fill="none" stroke="black" d="M1213.31,-71.67C1207.66,-62.99 1201.69,-53.83 1196.34,-45.62"/>
<polygon fill="black" stroke="black" points="1199.41,-43.92 1191.02,-37.45 1193.55,-47.74 1199.41,-43.92"/>
</g>
<!-- 209 -->
<g id="node38" class="node">
<title>209</title>
<path fill="#c0c0c0" stroke="black" d="M1266,-36C1266,-36 1236,-36 1236,-36 1230,-36 1224,-30 1224,-24 1224,-24 1224,-12 1224,-12 1224,-6 1230,0 1236,0 1236,0 1266,0 1266,0 1272,0 1278,-6 1278,-12 1278,-12 1278,-24 1278,-24 1278,-30 1272,-36 1266,-36"/>
<text text-anchor="middle" x="1251" y="-12.57" font-family="Helvetica,sans-Serif" font-size="14.00">(...)</text>
</g>
<!-- 175&#45;&gt;209 -->
<g id="edge37" class="edge">
<title>175&#45;&gt;209</title>
<path fill="none" stroke="black" d="M1241.97,-71.67C1243.36,-63.56 1244.82,-55.04 1246.16,-47.26"/>
<polygon fill="black" stroke="black" points="1249.56,-48.12 1247.8,-37.67 1242.66,-46.94 1249.56,-48.12"/>
</g>
<!-- 217 -->
<g id="node40" class="node">
<title>217</title>
<path fill="#c0c0c0" stroke="black" d="M1338,-36C1338,-36 1308,-36 1308,-36 1302,-36 1296,-30 1296,-24 1296,-24 1296,-12 1296,-12 1296,-6 1302,0 1308,0 1308,0 1338,0 1338,0 1344,0 1350,-6 1350,-12 1350,-12 1350,-24 1350,-24 1350,-30 1344,-36 1338,-36"/>
<text text-anchor="middle" x="1323" y="-12.57" font-family="Helvetica,sans-Serif" font-size="14.00">(...)</text>
</g>
<!-- 216&#45;&gt;217 -->
<g id="edge39" class="edge">
<title>216&#45;&gt;217</title>
<path fill="none" stroke="black" d="M1348.88,-71.67C1344.76,-63.28 1340.41,-54.43 1336.48,-46.44"/>
<polygon fill="black" stroke="black" points="1339.66,-44.97 1332.11,-37.54 1333.38,-48.06 1339.66,-44.97"/>
</g>
<!-- 258 -->
<g id="node41" class="node">
<title>258</title>
<path fill="#c0c0c0" stroke="black" d="M1410,-36C1410,-36 1380,-36 1380,-36 1374,-36 1368,-30 1368,-24 1368,-24 1368,-12 1368,-12 1368,-6 1374,0 1380,0 1380,0 1410,0 1410,0 1416,0 1422,-6 1422,-12 1422,-12 1422,-24 1422,-24 1422,-30 1416,-36 1410,-36"/>
<text text-anchor="middle" x="1395" y="-12.57" font-family="Helvetica,sans-Serif" font-size="14.00">(...)</text>
</g>
<!-- 216&#45;&gt;258 -->
<g id="edge40" class="edge">
<title>216&#45;&gt;258</title>
<path fill="none" stroke="black" d="M1377.54,-71.67C1380.26,-63.47 1383.12,-54.84 1385.73,-46.98"/>
<polygon fill="black" stroke="black" points="1389.01,-48.21 1388.83,-37.62 1382.36,-46.01 1389.01,-48.21"/>
</g>
<!-- 298 -->
<g id="node43" class="node">
<title>298</title>
<path fill="#ea9b62" stroke="black" d="M1540,-143C1540,-143 1452,-143 1452,-143 1446,-143 1440,-137 1440,-131 1440,-131 1440,-84 1440,-84 1440,-78 1446,-72 1452,-72 1452,-72 1540,-72 1540,-72 1546,-72 1552,-78 1552,-84 1552,-84 1552,-131 1552,-131 1552,-137 1546,-143 1540,-143"/>
<text text-anchor="start" x="1463.38" y="-125.7" font-family="Helvetica,sans-Serif" font-size="14.00">P4_1 ≤ 0.5</text>
<text text-anchor="start" x="1448" y="-109.95" font-family="Helvetica,sans-Serif" font-size="14.00">poisson = 0.102</text>
<text text-anchor="start" x="1451.38" y="-94.2" font-family="Helvetica,sans-Serif" font-size="14.00">samples = 509</text>
<text text-anchor="start" x="1451.38" y="-78.45" font-family="Helvetica,sans-Serif" font-size="14.00">value = 15.437</text>
</g>
<!-- 297&#45;&gt;298 -->
<g id="edge42" class="edge">
<title>297&#45;&gt;298</title>
<path fill="none" stroke="black" d="M1496,-178.54C1496,-170.92 1496,-162.75 1496,-154.77"/>
<polygon fill="black" stroke="black" points="1499.5,-154.82 1496,-144.82 1492.5,-154.82 1499.5,-154.82"/>
</g>
<!-- 361 -->
<g id="node46" class="node">
<title>361</title>
<path fill="#eda978" stroke="black" d="M1670,-143C1670,-143 1582,-143 1582,-143 1576,-143 1570,-137 1570,-131 1570,-131 1570,-84 1570,-84 1570,-78 1576,-72 1582,-72 1582,-72 1670,-72 1670,-72 1676,-72 1682,-78 1682,-84 1682,-84 1682,-131 1682,-131 1682,-137 1676,-143 1670,-143"/>
<text text-anchor="start" x="1585.88" y="-125.7" font-family="Helvetica,sans-Serif" font-size="14.00">P4_7_3 ≤ 0.5</text>
<text text-anchor="start" x="1578" y="-109.95" font-family="Helvetica,sans-Serif" font-size="14.00">poisson = 0.099</text>
<text text-anchor="start" x="1581.38" y="-94.2" font-family="Helvetica,sans-Serif" font-size="14.00">samples = 436</text>
<text text-anchor="start" x="1581.38" y="-78.45" font-family="Helvetica,sans-Serif" font-size="14.00">value = 13.859</text>
</g>
<!-- 297&#45;&gt;361 -->
<g id="edge45" class="edge">
<title>297&#45;&gt;361</title>
<path fill="none" stroke="black" d="M1539.29,-178.54C1550.47,-169.5 1562.62,-159.69 1574.19,-150.34"/>
<polygon fill="black" stroke="black" points="1576.14,-153.27 1581.72,-144.26 1571.74,-147.82 1576.14,-153.27"/>
</g>
<!-- 299 -->
<g id="node44" class="node">
<title>299</title>
<path fill="#c0c0c0" stroke="black" d="M1482,-36C1482,-36 1452,-36 1452,-36 1446,-36 1440,-30 1440,-24 1440,-24 1440,-12 1440,-12 1440,-6 1446,0 1452,0 1452,0 1482,0 1482,0 1488,0 1494,-6 1494,-12 1494,-12 1494,-24 1494,-24 1494,-30 1488,-36 1482,-36"/>
<text text-anchor="middle" x="1467" y="-12.57" font-family="Helvetica,sans-Serif" font-size="14.00">(...)</text>
</g>
<!-- 298&#45;&gt;299 -->
<g id="edge43" class="edge">
<title>298&#45;&gt;299</title>
<path fill="none" stroke="black" d="M1484.46,-71.67C1481.74,-63.47 1478.88,-54.84 1476.27,-46.98"/>
<polygon fill="black" stroke="black" points="1479.64,-46.01 1473.17,-37.62 1472.99,-48.21 1479.64,-46.01"/>
</g>
<!-- 322 -->
<g id="node45" class="node">
<title>322</title>
<path fill="#c0c0c0" stroke="black" d="M1554,-36C1554,-36 1524,-36 1524,-36 1518,-36 1512,-30 1512,-24 1512,-24 1512,-12 1512,-12 1512,-6 1518,0 1524,0 1524,0 1554,0 1554,0 1560,0 1566,-6 1566,-12 1566,-12 1566,-24 1566,-24 1566,-30 1560,-36 1554,-36"/>
<text text-anchor="middle" x="1539" y="-12.57" font-family="Helvetica,sans-Serif" font-size="14.00">(...)</text>
</g>
<!-- 298&#45;&gt;322 -->
<g id="edge44" class="edge">
<title>298&#45;&gt;322</title>
<path fill="none" stroke="black" d="M1513.12,-71.67C1517.24,-63.28 1521.59,-54.43 1525.52,-46.44"/>
<polygon fill="black" stroke="black" points="1528.62,-48.06 1529.89,-37.54 1522.34,-44.97 1528.62,-48.06"/>
</g>
<!-- 362 -->
<g id="node47" class="node">
<title>362</title>
<path fill="#c0c0c0" stroke="black" d="M1626,-36C1626,-36 1596,-36 1596,-36 1590,-36 1584,-30 1584,-24 1584,-24 1584,-12 1584,-12 1584,-6 1590,0 1596,0 1596,0 1626,0 1626,0 1632,0 1638,-6 1638,-12 1638,-12 1638,-24 1638,-24 1638,-30 1632,-36 1626,-36"/>
<text text-anchor="middle" x="1611" y="-12.57" font-family="Helvetica,sans-Serif" font-size="14.00">(...)</text>
</g>
<!-- 361&#45;&gt;362 -->
<g id="edge46" class="edge">
<title>361&#45;&gt;362</title>
<path fill="none" stroke="black" d="M1620.03,-71.67C1618.64,-63.56 1617.18,-55.04 1615.84,-47.26"/>
<polygon fill="black" stroke="black" points="1619.34,-46.94 1614.2,-37.67 1612.44,-48.12 1619.34,-46.94"/>
</g>
<!-- 391 -->
<g id="node48" class="node">
<title>391</title>
<path fill="#c0c0c0" stroke="black" d="M1698,-36C1698,-36 1668,-36 1668,-36 1662,-36 1656,-30 1656,-24 1656,-24 1656,-12 1656,-12 1656,-6 1662,0 1668,0 1668,0 1698,0 1698,0 1704,0 1710,-6 1710,-12 1710,-12 1710,-24 1710,-24 1710,-30 1704,-36 1698,-36"/>
<text text-anchor="middle" x="1683" y="-12.57" font-family="Helvetica,sans-Serif" font-size="14.00">(...)</text>
</g>
<!-- 361&#45;&gt;391 -->
<g id="edge47" class="edge">
<title>361&#45;&gt;391</title>
<path fill="none" stroke="black" d="M1648.69,-71.67C1654.34,-62.99 1660.31,-53.83 1665.66,-45.62"/>
<polygon fill="black" stroke="black" points="1668.45,-47.74 1670.98,-37.45 1662.59,-43.92 1668.45,-47.74"/>
</g>
<!-- 413 -->
<g id="node50" class="node">
<title>413</title>
<path fill="#f0b890" stroke="black" d="M1889,-250C1889,-250 1801,-250 1801,-250 1795,-250 1789,-244 1789,-238 1789,-238 1789,-191 1789,-191 1789,-185 1795,-179 1801,-179 1801,-179 1889,-179 1889,-179 1895,-179 1901,-185 1901,-191 1901,-191 1901,-238 1901,-238 1901,-244 1895,-250 1889,-250"/>
<text text-anchor="start" x="1804.88" y="-232.7" font-family="Helvetica,sans-Serif" font-size="14.00">P4_6_1 ≤ 1.5</text>
<text text-anchor="start" x="1797" y="-216.95" font-family="Helvetica,sans-Serif" font-size="14.00">poisson = 0.201</text>
<text text-anchor="start" x="1800.38" y="-201.2" font-family="Helvetica,sans-Serif" font-size="14.00">samples = 976</text>
<text text-anchor="start" x="1800.38" y="-185.45" font-family="Helvetica,sans-Serif" font-size="14.00">value = 12.171</text>
</g>
<!-- 412&#45;&gt;413 -->
<g id="edge49" class="edge">
<title>412&#45;&gt;413</title>
<path fill="none" stroke="black" d="M1845,-285.54C1845,-277.92 1845,-269.75 1845,-261.77"/>
<polygon fill="black" stroke="black" points="1848.5,-261.82 1845,-251.82 1841.5,-261.82 1848.5,-261.82"/>
</g>
<!-- 534 -->
<g id="node57" class="node">
<title>534</title>
<path fill="#f4cbad" stroke="black" d="M2094.38,-250C2094.38,-250 2005.62,-250 2005.62,-250 1999.62,-250 1993.62,-244 1993.62,-238 1993.62,-238 1993.62,-191 1993.62,-191 1993.62,-185 1999.62,-179 2005.62,-179 2005.62,-179 2094.38,-179 2094.38,-179 2100.38,-179 2106.38,-185 2106.38,-191 2106.38,-191 2106.38,-238 2106.38,-238 2106.38,-244 2100.38,-250 2094.38,-250"/>
<text text-anchor="start" x="2009.88" y="-232.7" font-family="Helvetica,sans-Serif" font-size="14.00">P4_6_1 ≤ 1.5</text>
<text text-anchor="start" x="2002" y="-216.95" font-family="Helvetica,sans-Serif" font-size="14.00">poisson = 0.209</text>
<text text-anchor="start" x="2001.62" y="-201.2" font-family="Helvetica,sans-Serif" font-size="14.00">samples = 1327</text>
<text text-anchor="start" x="2005.38" y="-185.45" font-family="Helvetica,sans-Serif" font-size="14.00">value = 10.158</text>
</g>
<!-- 412&#45;&gt;534 -->
<g id="edge56" class="edge">
<title>412&#45;&gt;534</title>
<path fill="none" stroke="black" d="M1901.83,-291.39C1927.15,-278.42 1957.15,-263.06 1983.51,-249.56"/>
<polygon fill="black" stroke="black" points="1984.76,-252.85 1992.07,-245.17 1981.57,-246.62 1984.76,-252.85"/>
</g>
<!-- 414 -->
<g id="node51" class="node">
<title>414</title>
<path fill="#efb286" stroke="black" d="M1824,-143C1824,-143 1736,-143 1736,-143 1730,-143 1724,-137 1724,-131 1724,-131 1724,-84 1724,-84 1724,-78 1730,-72 1736,-72 1736,-72 1824,-72 1824,-72 1830,-72 1836,-78 1836,-84 1836,-84 1836,-131 1836,-131 1836,-137 1830,-143 1824,-143"/>
<text text-anchor="start" x="1739.88" y="-125.7" font-family="Helvetica,sans-Serif" font-size="14.00">P4_6_3 ≤ 2.5</text>
<text text-anchor="start" x="1732" y="-109.95" font-family="Helvetica,sans-Serif" font-size="14.00">poisson = 0.151</text>
<text text-anchor="start" x="1735.38" y="-94.2" font-family="Helvetica,sans-Serif" font-size="14.00">samples = 662</text>
<text text-anchor="start" x="1735.38" y="-78.45" font-family="Helvetica,sans-Serif" font-size="14.00">value = 12.887</text>
</g>
<!-- 413&#45;&gt;414 -->
<g id="edge50" class="edge">
<title>413&#45;&gt;414</title>
<path fill="none" stroke="black" d="M1823.36,-178.54C1818.26,-170.3 1812.76,-161.42 1807.44,-152.83"/>
<polygon fill="black" stroke="black" points="1810.59,-151.26 1802.35,-144.6 1804.63,-154.94 1810.59,-151.26"/>
</g>
<!-- 487 -->
<g id="node54" class="node">
<title>487</title>
<path fill="#f3c6a6" stroke="black" d="M1954,-143C1954,-143 1866,-143 1866,-143 1860,-143 1854,-137 1854,-131 1854,-131 1854,-84 1854,-84 1854,-78 1860,-72 1866,-72 1866,-72 1954,-72 1954,-72 1960,-72 1966,-78 1966,-84 1966,-84 1966,-131 1966,-131 1966,-137 1960,-143 1954,-143"/>
<text text-anchor="start" x="1869.88" y="-125.7" font-family="Helvetica,sans-Serif" font-size="14.00">P4_7_2 ≤ 0.5</text>
<text text-anchor="start" x="1862" y="-109.95" font-family="Helvetica,sans-Serif" font-size="14.00">poisson = 0.166</text>
<text text-anchor="start" x="1865.38" y="-94.2" font-family="Helvetica,sans-Serif" font-size="14.00">samples = 314</text>
<text text-anchor="start" x="1865.38" y="-78.45" font-family="Helvetica,sans-Serif" font-size="14.00">value = 10.663</text>
</g>
<!-- 413&#45;&gt;487 -->
<g id="edge53" class="edge">
<title>413&#45;&gt;487</title>
<path fill="none" stroke="black" d="M1866.64,-178.54C1871.74,-170.3 1877.24,-161.42 1882.56,-152.83"/>
<polygon fill="black" stroke="black" points="1885.37,-154.94 1887.65,-144.6 1879.41,-151.26 1885.37,-154.94"/>
</g>
<!-- 415 -->
<g id="node52" class="node">
<title>415</title>
<path fill="#c0c0c0" stroke="black" d="M1770,-36C1770,-36 1740,-36 1740,-36 1734,-36 1728,-30 1728,-24 1728,-24 1728,-12 1728,-12 1728,-6 1734,0 1740,0 1740,0 1770,0 1770,0 1776,0 1782,-6 1782,-12 1782,-12 1782,-24 1782,-24 1782,-30 1776,-36 1770,-36"/>
<text text-anchor="middle" x="1755" y="-12.57" font-family="Helvetica,sans-Serif" font-size="14.00">(...)</text>
</g>
<!-- 414&#45;&gt;415 -->
<g id="edge51" class="edge">
<title>414&#45;&gt;415</title>
<path fill="none" stroke="black" d="M1770.05,-71.67C1767.71,-63.47 1765.24,-54.84 1763,-46.98"/>
<polygon fill="black" stroke="black" points="1766.44,-46.29 1760.33,-37.64 1759.71,-48.21 1766.44,-46.29"/>
</g>
<!-- 458 -->
<g id="node53" class="node">
<title>458</title>
<path fill="#c0c0c0" stroke="black" d="M1842,-36C1842,-36 1812,-36 1812,-36 1806,-36 1800,-30 1800,-24 1800,-24 1800,-12 1800,-12 1800,-6 1806,0 1812,0 1812,0 1842,0 1842,0 1848,0 1854,-6 1854,-12 1854,-12 1854,-24 1854,-24 1854,-30 1848,-36 1842,-36"/>
<text text-anchor="middle" x="1827" y="-12.57" font-family="Helvetica,sans-Serif" font-size="14.00">(...)</text>
</g>
<!-- 414&#45;&gt;458 -->
<g id="edge52" class="edge">
<title>414&#45;&gt;458</title>
<path fill="none" stroke="black" d="M1798.71,-71.67C1803.27,-63.18 1808.07,-54.23 1812.41,-46.17"/>
<polygon fill="black" stroke="black" points="1815.41,-47.98 1817.05,-37.52 1809.24,-44.67 1815.41,-47.98"/>
</g>
<!-- 488 -->
<g id="node55" class="node">
<title>488</title>
<path fill="#c0c0c0" stroke="black" d="M1914,-36C1914,-36 1884,-36 1884,-36 1878,-36 1872,-30 1872,-24 1872,-24 1872,-12 1872,-12 1872,-6 1878,0 1884,0 1884,0 1914,0 1914,0 1920,0 1926,-6 1926,-12 1926,-12 1926,-24 1926,-24 1926,-30 1920,-36 1914,-36"/>
<text text-anchor="middle" x="1899" y="-12.57" font-family="Helvetica,sans-Serif" font-size="14.00">(...)</text>
</g>
<!-- 487&#45;&gt;488 -->
<g id="edge54" class="edge">
<title>487&#45;&gt;488</title>
<path fill="none" stroke="black" d="M1905.62,-71.67C1904.61,-63.66 1903.56,-55.24 1902.59,-47.53"/>
<polygon fill="black" stroke="black" points="1906.07,-47.17 1901.35,-37.68 1899.12,-48.04 1906.07,-47.17"/>
</g>
<!-- 519 -->
<g id="node56" class="node">
<title>519</title>
<path fill="#c0c0c0" stroke="black" d="M1986,-36C1986,-36 1956,-36 1956,-36 1950,-36 1944,-30 1944,-24 1944,-24 1944,-12 1944,-12 1944,-6 1950,0 1956,0 1956,0 1986,0 1986,0 1992,0 1998,-6 1998,-12 1998,-12 1998,-24 1998,-24 1998,-30 1992,-36 1986,-36"/>
<text text-anchor="middle" x="1971" y="-12.57" font-family="Helvetica,sans-Serif" font-size="14.00">(...)</text>
</g>
<!-- 487&#45;&gt;519 -->
<g id="edge55" class="edge">
<title>487&#45;&gt;519</title>
<path fill="none" stroke="black" d="M1934.28,-71.67C1940.33,-62.99 1946.72,-53.83 1952.44,-45.62"/>
<polygon fill="black" stroke="black" points="1955.31,-47.63 1958.16,-37.42 1949.57,-43.63 1955.31,-47.63"/>
</g>
<!-- 535 -->
<g id="node58" class="node">
<title>535</title>
<path fill="#f3c5a4" stroke="black" d="M2094,-143C2094,-143 2006,-143 2006,-143 2000,-143 1994,-137 1994,-131 1994,-131 1994,-84 1994,-84 1994,-78 2000,-72 2006,-72 2006,-72 2094,-72 2094,-72 2100,-72 2106,-78 2106,-84 2106,-84 2106,-131 2106,-131 2106,-137 2100,-143 2094,-143"/>
<text text-anchor="start" x="2009.88" y="-125.7" font-family="Helvetica,sans-Serif" font-size="14.00">P4_6_3 ≤ 2.5</text>
<text text-anchor="start" x="2002" y="-109.95" font-family="Helvetica,sans-Serif" font-size="14.00">poisson = 0.172</text>
<text text-anchor="start" x="2005.38" y="-94.2" font-family="Helvetica,sans-Serif" font-size="14.00">samples = 874</text>
<text text-anchor="start" x="2005.38" y="-78.45" font-family="Helvetica,sans-Serif" font-size="14.00">value = 10.796</text>
</g>
<!-- 534&#45;&gt;535 -->
<g id="edge57" class="edge">
<title>534&#45;&gt;535</title>
<path fill="none" stroke="black" d="M2050,-178.54C2050,-170.92 2050,-162.75 2050,-154.77"/>
<polygon fill="black" stroke="black" points="2053.5,-154.82 2050,-144.82 2046.5,-154.82 2053.5,-154.82"/>
</g>
<!-- 632 -->
<g id="node61" class="node">
<title>632</title>
<path fill="#f7d6be" stroke="black" d="M2231,-143C2231,-143 2143,-143 2143,-143 2137,-143 2131,-137 2131,-131 2131,-131 2131,-84 2131,-84 2131,-78 2137,-72 2143,-72 2143,-72 2231,-72 2231,-72 2237,-72 2243,-78 2243,-84 2243,-84 2243,-131 2243,-131 2243,-137 2237,-143 2231,-143"/>
<text text-anchor="start" x="2146.88" y="-125.7" font-family="Helvetica,sans-Serif" font-size="14.00">P4_6_3 ≤ 2.5</text>
<text text-anchor="start" x="2139" y="-109.95" font-family="Helvetica,sans-Serif" font-size="14.00">poisson = 0.165</text>
<text text-anchor="start" x="2142.38" y="-94.2" font-family="Helvetica,sans-Serif" font-size="14.00">samples = 453</text>
<text text-anchor="start" x="2146.12" y="-78.45" font-family="Helvetica,sans-Serif" font-size="14.00">value = 8.926</text>
</g>
<!-- 534&#45;&gt;632 -->
<g id="edge60" class="edge">
<title>534&#45;&gt;632</title>
<path fill="none" stroke="black" d="M2095.62,-178.54C2107.52,-169.42 2120.46,-159.5 2132.76,-150.07"/>
<polygon fill="black" stroke="black" points="2134.57,-153.09 2140.38,-144.23 2130.31,-147.54 2134.57,-153.09"/>
</g>
<!-- 536 -->
<g id="node59" class="node">
<title>536</title>
<path fill="#c0c0c0" stroke="black" d="M2058,-36C2058,-36 2028,-36 2028,-36 2022,-36 2016,-30 2016,-24 2016,-24 2016,-12 2016,-12 2016,-6 2022,0 2028,0 2028,0 2058,0 2058,0 2064,0 2070,-6 2070,-12 2070,-12 2070,-24 2070,-24 2070,-30 2064,-36 2058,-36"/>
<text text-anchor="middle" x="2043" y="-12.57" font-family="Helvetica,sans-Serif" font-size="14.00">(...)</text>
</g>
<!-- 535&#45;&gt;536 -->
<g id="edge58" class="edge">
<title>535&#45;&gt;536</title>
<path fill="none" stroke="black" d="M2047.21,-71.67C2046.57,-63.66 2045.9,-55.24 2045.28,-47.53"/>
<polygon fill="black" stroke="black" points="2048.78,-47.38 2044.5,-37.69 2041.8,-47.94 2048.78,-47.38"/>
</g>
<!-- 587 -->
<g id="node60" class="node">
<title>587</title>
<path fill="#c0c0c0" stroke="black" d="M2130,-36C2130,-36 2100,-36 2100,-36 2094,-36 2088,-30 2088,-24 2088,-24 2088,-12 2088,-12 2088,-6 2094,0 2100,0 2100,0 2130,0 2130,0 2136,0 2142,-6 2142,-12 2142,-12 2142,-24 2142,-24 2142,-30 2136,-36 2130,-36"/>
<text text-anchor="middle" x="2115" y="-12.57" font-family="Helvetica,sans-Serif" font-size="14.00">(...)</text>
</g>
<!-- 535&#45;&gt;587 -->
<g id="edge59" class="edge">
<title>535&#45;&gt;587</title>
<path fill="none" stroke="black" d="M2075.88,-71.67C2082.39,-62.9 2089.28,-53.63 2095.42,-45.35"/>
<polygon fill="black" stroke="black" points="2098.18,-47.51 2101.33,-37.4 2092.56,-43.34 2098.18,-47.51"/>
</g>
<!-- 633 -->
<g id="node62" class="node">
<title>633</title>
<path fill="#c0c0c0" stroke="black" d="M2202,-36C2202,-36 2172,-36 2172,-36 2166,-36 2160,-30 2160,-24 2160,-24 2160,-12 2160,-12 2160,-6 2166,0 2172,0 2172,0 2202,0 2202,0 2208,0 2214,-6 2214,-12 2214,-12 2214,-24 2214,-24 2214,-30 2208,-36 2202,-36"/>
<text text-anchor="middle" x="2187" y="-12.57" font-family="Helvetica,sans-Serif" font-size="14.00">(...)</text>
</g>
<!-- 632&#45;&gt;633 -->
<g id="edge61" class="edge">
<title>632&#45;&gt;633</title>
<path fill="none" stroke="black" d="M2187,-71.67C2187,-63.66 2187,-55.24 2187,-47.53"/>
<polygon fill="black" stroke="black" points="2190.5,-47.7 2187,-37.7 2183.5,-47.7 2190.5,-47.7"/>
</g>
<!-- 670 -->
<g id="node63" class="node">
<title>670</title>
<path fill="#c0c0c0" stroke="black" d="M2274,-36C2274,-36 2244,-36 2244,-36 2238,-36 2232,-30 2232,-24 2232,-24 2232,-12 2232,-12 2232,-6 2238,0 2244,0 2244,0 2274,0 2274,0 2280,0 2286,-6 2286,-12 2286,-12 2286,-24 2286,-24 2286,-30 2280,-36 2274,-36"/>
<text text-anchor="middle" x="2259" y="-12.57" font-family="Helvetica,sans-Serif" font-size="14.00">(...)</text>
</g>
<!-- 632&#45;&gt;670 -->
<g id="edge62" class="edge">
<title>632&#45;&gt;670</title>
<path fill="none" stroke="black" d="M2215.66,-71.67C2223.04,-62.71 2230.84,-53.23 2237.76,-44.81"/>
<polygon fill="black" stroke="black" points="2240.25,-47.3 2243.9,-37.35 2234.84,-42.85 2240.25,-47.3"/>
</g>
</g>
</svg>
