<?xml version="1.0" encoding="UTF-8" standalone="no"?>
<!DOCTYPE svg PUBLIC "-//W3C//DTD SVG 1.1//EN"
 "http://www.w3.org/Graphics/SVG/1.1/DTD/svg11.dtd">
<!-- Generated by graphviz version 12.2.1 (20241206.2353)
 -->
<!-- Title: Tree Pages: 1 -->
<svg width="2660pt" height="579pt"
 viewBox="0.00 0.00 2660.25 579.00" xmlns="http://www.w3.org/2000/svg" xmlns:xlink="http://www.w3.org/1999/xlink">
<g id="graph0" class="graph" transform="scale(1 1) rotate(0) translate(4 575)">
<title>Tree</title>
<polygon fill="white" stroke="none" points="-4,4 -4,-575 2656.25,-575 2656.25,4 -4,4"/>
<!-- 0 -->
<g id="node1" class="node">
<title>0</title>
<path fill="#f2c09c" stroke="black" d="M1385.5,-571C1385.5,-571 1266.75,-571 1266.75,-571 1260.75,-571 1254.75,-565 1254.75,-559 1254.75,-559 1254.75,-512 1254.75,-512 1254.75,-506 1260.75,-500 1266.75,-500 1266.75,-500 1385.5,-500 1385.5,-500 1391.5,-500 1397.5,-506 1397.5,-512 1397.5,-512 1397.5,-559 1397.5,-559 1397.5,-565 1391.5,-571 1385.5,-571"/>
<text text-anchor="start" x="1286" y="-553.7" font-family="Helvetica,sans-Serif" font-size="14.00">P4_6_3 ≤ 2.5</text>
<text text-anchor="start" x="1262.75" y="-537.95" font-family="Helvetica,sans-Serif" font-size="14.00">squared_error = 7.55</text>
<text text-anchor="start" x="1277.75" y="-522.2" font-family="Helvetica,sans-Serif" font-size="14.00">samples = 5064</text>
<text text-anchor="start" x="1281.88" y="-506.45" font-family="Helvetica,sans-Serif" font-size="14.00">value = 11.883</text>
</g>
<!-- 1 -->
<g id="node2" class="node">
<title>1</title>
<path fill="#f4c8a8" stroke="black" d="M1056.25,-464C1056.25,-464 930,-464 930,-464 924,-464 918,-458 918,-452 918,-452 918,-405 918,-405 918,-399 924,-393 930,-393 930,-393 1056.25,-393 1056.25,-393 1062.25,-393 1068.25,-399 1068.25,-405 1068.25,-405 1068.25,-452 1068.25,-452 1068.25,-458 1062.25,-464 1056.25,-464"/>
<text text-anchor="start" x="953" y="-446.7" font-family="Helvetica,sans-Serif" font-size="14.00">P4_6_3 ≤ 1.5</text>
<text text-anchor="start" x="926" y="-430.95" font-family="Helvetica,sans-Serif" font-size="14.00">squared_error = 6.281</text>
<text text-anchor="start" x="944.75" y="-415.2" font-family="Helvetica,sans-Serif" font-size="14.00">samples = 3215</text>
<text text-anchor="start" x="948.5" y="-399.45" font-family="Helvetica,sans-Serif" font-size="14.00">value = 10.977</text>
</g>
<!-- 0&#45;&gt;1 -->
<g id="edge1" class="edge">
<title>0&#45;&gt;1</title>
<path fill="none" stroke="black" d="M1254.28,-511.85C1202.92,-495.65 1133.58,-473.79 1079.25,-456.66"/>
<polygon fill="black" stroke="black" points="1080.63,-453.42 1070.04,-453.75 1078.53,-460.1 1080.63,-453.42"/>
<text text-anchor="middle" x="1080.14" y="-470.05" font-family="Helvetica,sans-Serif" font-size="14.00">True</text>
</g>
<!-- 470 -->
<g id="node33" class="node">
<title>470</title>
<path fill="#efb287" stroke="black" d="M1722.25,-464C1722.25,-464 1596,-464 1596,-464 1590,-464 1584,-458 1584,-452 1584,-452 1584,-405 1584,-405 1584,-399 1590,-393 1596,-393 1596,-393 1722.25,-393 1722.25,-393 1728.25,-393 1734.25,-399 1734.25,-405 1734.25,-405 1734.25,-452 1734.25,-452 1734.25,-458 1728.25,-464 1722.25,-464"/>
<text text-anchor="start" x="1619" y="-446.7" font-family="Helvetica,sans-Serif" font-size="14.00">P4_6_4 ≤ 1.5</text>
<text text-anchor="start" x="1592" y="-430.95" font-family="Helvetica,sans-Serif" font-size="14.00">squared_error = 5.843</text>
<text text-anchor="start" x="1610.75" y="-415.2" font-family="Helvetica,sans-Serif" font-size="14.00">samples = 1849</text>
<text text-anchor="start" x="1614.5" y="-399.45" font-family="Helvetica,sans-Serif" font-size="14.00">value = 13.459</text>
</g>
<!-- 0&#45;&gt;470 -->
<g id="edge32" class="edge">
<title>0&#45;&gt;470</title>
<path fill="none" stroke="black" d="M1397.97,-511.85C1449.33,-495.65 1518.67,-473.79 1573,-456.66"/>
<polygon fill="black" stroke="black" points="1573.72,-460.1 1582.21,-453.75 1571.62,-453.42 1573.72,-460.1"/>
<text text-anchor="middle" x="1572.11" y="-470.05" font-family="Helvetica,sans-Serif" font-size="14.00">False</text>
</g>
<!-- 2 -->
<g id="node3" class="node">
<title>2</title>
<path fill="#f7d6be" stroke="black" d="M555.25,-357C555.25,-357 429,-357 429,-357 423,-357 417,-351 417,-345 417,-345 417,-298 417,-298 417,-292 423,-286 429,-286 429,-286 555.25,-286 555.25,-286 561.25,-286 567.25,-292 567.25,-298 567.25,-298 567.25,-345 567.25,-345 567.25,-351 561.25,-357 555.25,-357"/>
<text text-anchor="start" x="452" y="-339.7" font-family="Helvetica,sans-Serif" font-size="14.00">P4_6_1 ≤ 1.5</text>
<text text-anchor="start" x="425" y="-323.95" font-family="Helvetica,sans-Serif" font-size="14.00">squared_error = 5.081</text>
<text text-anchor="start" x="447.5" y="-308.2" font-family="Helvetica,sans-Serif" font-size="14.00">samples = 860</text>
<text text-anchor="start" x="451.25" y="-292.45" font-family="Helvetica,sans-Serif" font-size="14.00">value = 9.297</text>
</g>
<!-- 1&#45;&gt;2 -->
<g id="edge2" class="edge">
<title>1&#45;&gt;2</title>
<path fill="none" stroke="black" d="M917.58,-411.67C826.6,-392.6 674.12,-360.64 578.54,-340.61"/>
<polygon fill="black" stroke="black" points="579.45,-337.23 568.95,-338.6 578.02,-344.08 579.45,-337.23"/>
</g>
<!-- 129 -->
<g id="node18" class="node">
<title>129</title>
<path fill="#f2c2a0" stroke="black" d="M1056.25,-357C1056.25,-357 930,-357 930,-357 924,-357 918,-351 918,-345 918,-345 918,-298 918,-298 918,-292 924,-286 930,-286 930,-286 1056.25,-286 1056.25,-286 1062.25,-286 1068.25,-292 1068.25,-298 1068.25,-298 1068.25,-345 1068.25,-345 1068.25,-351 1062.25,-357 1056.25,-357"/>
<text text-anchor="start" x="953" y="-339.7" font-family="Helvetica,sans-Serif" font-size="14.00">P4_6_4 ≤ 1.5</text>
<text text-anchor="start" x="926" y="-323.95" font-family="Helvetica,sans-Serif" font-size="14.00">squared_error = 5.314</text>
<text text-anchor="start" x="944.75" y="-308.2" font-family="Helvetica,sans-Serif" font-size="14.00">samples = 2355</text>
<text text-anchor="start" x="952.62" y="-292.45" font-family="Helvetica,sans-Serif" font-size="14.00">value = 11.59</text>
</g>
<!-- 1&#45;&gt;129 -->
<g id="edge17" class="edge">
<title>1&#45;&gt;129</title>
<path fill="none" stroke="black" d="M993.12,-392.54C993.12,-384.92 993.12,-376.75 993.12,-368.77"/>
<polygon fill="black" stroke="black" points="996.63,-368.82 993.13,-358.82 989.63,-368.82 996.63,-368.82"/>
</g>
<!-- 3 -->
<g id="node4" class="node">
<title>3</title>
<path fill="#f5d0b5" stroke="black" d="M306.25,-250C306.25,-250 180,-250 180,-250 174,-250 168,-244 168,-238 168,-238 168,-191 168,-191 168,-185 174,-179 180,-179 180,-179 306.25,-179 306.25,-179 312.25,-179 318.25,-185 318.25,-191 318.25,-191 318.25,-238 318.25,-238 318.25,-244 312.25,-250 306.25,-250"/>
<text text-anchor="start" x="203" y="-232.7" font-family="Helvetica,sans-Serif" font-size="14.00">P4_6_4 ≤ 1.5</text>
<text text-anchor="start" x="176" y="-216.95" font-family="Helvetica,sans-Serif" font-size="14.00">squared_error = 4.122</text>
<text text-anchor="start" x="198.5" y="-201.2" font-family="Helvetica,sans-Serif" font-size="14.00">samples = 597</text>
<text text-anchor="start" x="198.5" y="-185.45" font-family="Helvetica,sans-Serif" font-size="14.00">value = 10.022</text>
</g>
<!-- 2&#45;&gt;3 -->
<g id="edge3" class="edge">
<title>2&#45;&gt;3</title>
<path fill="none" stroke="black" d="M416.74,-288.71C389.08,-277.05 357.56,-263.76 329.04,-251.73"/>
<polygon fill="black" stroke="black" points="330.65,-248.61 320.08,-247.95 327.93,-255.06 330.65,-248.61"/>
</g>
<!-- 88 -->
<g id="node11" class="node">
<title>88</title>
<path fill="#f9e4d4" stroke="black" d="M555.25,-250C555.25,-250 429,-250 429,-250 423,-250 417,-244 417,-238 417,-238 417,-191 417,-191 417,-185 423,-179 429,-179 429,-179 555.25,-179 555.25,-179 561.25,-179 567.25,-185 567.25,-191 567.25,-191 567.25,-238 567.25,-238 567.25,-244 561.25,-250 555.25,-250"/>
<text text-anchor="start" x="452" y="-232.7" font-family="Helvetica,sans-Serif" font-size="14.00">P4_7_3 ≤ 0.5</text>
<text text-anchor="start" x="425" y="-216.95" font-family="Helvetica,sans-Serif" font-size="14.00">squared_error = 3.361</text>
<text text-anchor="start" x="447.5" y="-201.2" font-family="Helvetica,sans-Serif" font-size="14.00">samples = 263</text>
<text text-anchor="start" x="451.25" y="-185.45" font-family="Helvetica,sans-Serif" font-size="14.00">value = 7.653</text>
</g>
<!-- 2&#45;&gt;88 -->
<g id="edge10" class="edge">
<title>2&#45;&gt;88</title>
<path fill="none" stroke="black" d="M492.12,-285.54C492.12,-277.92 492.12,-269.75 492.12,-261.77"/>
<polygon fill="black" stroke="black" points="495.63,-261.82 492.13,-251.82 488.63,-261.82 495.63,-261.82"/>
</g>
<!-- 4 -->
<g id="node5" class="node">
<title>4</title>
<path fill="#f3c7a7" stroke="black" d="M138.25,-143C138.25,-143 12,-143 12,-143 6,-143 0,-137 0,-131 0,-131 0,-84 0,-84 0,-78 6,-72 12,-72 12,-72 138.25,-72 138.25,-72 144.25,-72 150.25,-78 150.25,-84 150.25,-84 150.25,-131 150.25,-131 150.25,-137 144.25,-143 138.25,-143"/>
<text text-anchor="start" x="35" y="-125.7" font-family="Helvetica,sans-Serif" font-size="14.00">P4_7_3 ≤ 0.5</text>
<text text-anchor="start" x="8" y="-109.95" font-family="Helvetica,sans-Serif" font-size="14.00">squared_error = 3.134</text>
<text text-anchor="start" x="30.5" y="-94.2" font-family="Helvetica,sans-Serif" font-size="14.00">samples = 297</text>
<text text-anchor="start" x="30.88" y="-78.45" font-family="Helvetica,sans-Serif" font-size="14.00">value = 11.017</text>
</g>
<!-- 3&#45;&gt;4 -->
<g id="edge4" class="edge">
<title>3&#45;&gt;4</title>
<path fill="none" stroke="black" d="M187.18,-178.54C172.24,-169.2 155.97,-159.03 140.56,-149.4"/>
<polygon fill="black" stroke="black" points="142.73,-146.62 132.39,-144.29 139.02,-152.56 142.73,-146.62"/>
</g>
<!-- 47 -->
<g id="node8" class="node">
<title>47</title>
<path fill="#f7d8c2" stroke="black" d="M306.25,-143C306.25,-143 180,-143 180,-143 174,-143 168,-137 168,-131 168,-131 168,-84 168,-84 168,-78 174,-72 180,-72 180,-72 306.25,-72 306.25,-72 312.25,-72 318.25,-78 318.25,-84 318.25,-84 318.25,-131 318.25,-131 318.25,-137 312.25,-143 306.25,-143"/>
<text text-anchor="start" x="199.62" y="-125.7" font-family="Helvetica,sans-Serif" font-size="14.00">P11_3_9 ≤ 0.5</text>
<text text-anchor="start" x="176" y="-109.95" font-family="Helvetica,sans-Serif" font-size="14.00">squared_error = 3.149</text>
<text text-anchor="start" x="198.5" y="-94.2" font-family="Helvetica,sans-Serif" font-size="14.00">samples = 300</text>
<text text-anchor="start" x="202.25" y="-78.45" font-family="Helvetica,sans-Serif" font-size="14.00">value = 9.037</text>
</g>
<!-- 3&#45;&gt;47 -->
<g id="edge7" class="edge">
<title>3&#45;&gt;47</title>
<path fill="none" stroke="black" d="M243.12,-178.54C243.12,-170.92 243.12,-162.75 243.12,-154.77"/>
<polygon fill="black" stroke="black" points="246.63,-154.82 243.13,-144.82 239.63,-154.82 246.63,-154.82"/>
</g>
<!-- 5 -->
<g id="node6" class="node">
<title>5</title>
<path fill="#c0c0c0" stroke="black" d="M54.12,-36C54.12,-36 24.12,-36 24.12,-36 18.12,-36 12.12,-30 12.12,-24 12.12,-24 12.12,-12 12.12,-12 12.12,-6 18.12,0 24.12,0 24.12,0 54.12,0 54.12,0 60.12,0 66.12,-6 66.12,-12 66.12,-12 66.12,-24 66.12,-24 66.12,-30 60.12,-36 54.12,-36"/>
<text text-anchor="middle" x="39.12" y="-12.57" font-family="Helvetica,sans-Serif" font-size="14.00">(...)</text>
</g>
<!-- 4&#45;&gt;5 -->
<g id="edge5" class="edge">
<title>4&#45;&gt;5</title>
<path fill="none" stroke="black" d="M60.79,-71.67C57.38,-63.37 53.79,-54.63 50.53,-46.71"/>
<polygon fill="black" stroke="black" points="53.81,-45.5 46.77,-37.58 47.34,-48.16 53.81,-45.5"/>
</g>
<!-- 36 -->
<g id="node7" class="node">
<title>36</title>
<path fill="#c0c0c0" stroke="black" d="M126.12,-36C126.12,-36 96.12,-36 96.12,-36 90.12,-36 84.12,-30 84.12,-24 84.12,-24 84.12,-12 84.12,-12 84.12,-6 90.12,0 96.12,0 96.12,0 126.12,0 126.12,0 132.12,0 138.12,-6 138.12,-12 138.12,-12 138.12,-24 138.12,-24 138.12,-30 132.12,-36 126.12,-36"/>
<text text-anchor="middle" x="111.12" y="-12.57" font-family="Helvetica,sans-Serif" font-size="14.00">(...)</text>
</g>
<!-- 4&#45;&gt;36 -->
<g id="edge6" class="edge">
<title>4&#45;&gt;36</title>
<path fill="none" stroke="black" d="M89.46,-71.67C92.87,-63.37 96.46,-54.63 99.72,-46.71"/>
<polygon fill="black" stroke="black" points="102.91,-48.16 103.48,-37.58 96.44,-45.5 102.91,-48.16"/>
</g>
<!-- 48 -->
<g id="node9" class="node">
<title>48</title>
<path fill="#c0c0c0" stroke="black" d="M228.12,-36C228.12,-36 198.12,-36 198.12,-36 192.12,-36 186.12,-30 186.12,-24 186.12,-24 186.12,-12 186.12,-12 186.12,-6 192.12,0 198.12,0 198.12,0 228.12,0 228.12,0 234.12,0 240.12,-6 240.12,-12 240.12,-12 240.12,-24 240.12,-24 240.12,-30 234.12,-36 228.12,-36"/>
<text text-anchor="middle" x="213.12" y="-12.57" font-family="Helvetica,sans-Serif" font-size="14.00">(...)</text>
</g>
<!-- 47&#45;&gt;48 -->
<g id="edge8" class="edge">
<title>47&#45;&gt;48</title>
<path fill="none" stroke="black" d="M231.18,-71.67C228.37,-63.47 225.41,-54.84 222.72,-46.98"/>
<polygon fill="black" stroke="black" points="226.06,-45.94 219.51,-37.61 219.44,-48.21 226.06,-45.94"/>
</g>
<!-- 67 -->
<g id="node10" class="node">
<title>67</title>
<path fill="#c0c0c0" stroke="black" d="M300.12,-36C300.12,-36 270.12,-36 270.12,-36 264.12,-36 258.12,-30 258.12,-24 258.12,-24 258.12,-12 258.12,-12 258.12,-6 264.12,0 270.12,0 270.12,0 300.12,0 300.12,0 306.12,0 312.12,-6 312.12,-12 312.12,-12 312.12,-24 312.12,-24 312.12,-30 306.12,-36 300.12,-36"/>
<text text-anchor="middle" x="285.12" y="-12.57" font-family="Helvetica,sans-Serif" font-size="14.00">(...)</text>
</g>
<!-- 47&#45;&gt;67 -->
<g id="edge9" class="edge">
<title>47&#45;&gt;67</title>
<path fill="none" stroke="black" d="M259.85,-71.67C263.87,-63.28 268.12,-54.43 271.95,-46.44"/>
<polygon fill="black" stroke="black" points="275.05,-48.08 276.22,-37.55 268.74,-45.05 275.05,-48.08"/>
</g>
<!-- 89 -->
<g id="node12" class="node">
<title>89</title>
<path fill="#f8decb" stroke="black" d="M467.5,-143C467.5,-143 348.75,-143 348.75,-143 342.75,-143 336.75,-137 336.75,-131 336.75,-131 336.75,-84 336.75,-84 336.75,-78 342.75,-72 348.75,-72 348.75,-72 467.5,-72 467.5,-72 473.5,-72 479.5,-78 479.5,-84 479.5,-84 479.5,-131 479.5,-131 479.5,-137 473.5,-143 467.5,-143"/>
<text text-anchor="start" x="368" y="-125.7" font-family="Helvetica,sans-Serif" font-size="14.00">P4_6_2 ≤ 1.5</text>
<text text-anchor="start" x="344.75" y="-109.95" font-family="Helvetica,sans-Serif" font-size="14.00">squared_error = 2.63</text>
<text text-anchor="start" x="363.5" y="-94.2" font-family="Helvetica,sans-Serif" font-size="14.00">samples = 165</text>
<text text-anchor="start" x="367.25" y="-78.45" font-family="Helvetica,sans-Serif" font-size="14.00">value = 8.317</text>
</g>
<!-- 88&#45;&gt;89 -->
<g id="edge11" class="edge">
<title>88&#45;&gt;89</title>
<path fill="none" stroke="black" d="M464.15,-178.54C457.42,-170.12 450.15,-161.03 443.14,-152.27"/>
<polygon fill="black" stroke="black" points="445.9,-150.11 436.92,-144.49 440.43,-154.49 445.9,-150.11"/>
</g>
<!-- 114 -->
<g id="node15" class="node">
<title>114</title>
<path fill="#fbede3" stroke="black" d="M636.25,-143C636.25,-143 510,-143 510,-143 504,-143 498,-137 498,-131 498,-131 498,-84 498,-84 498,-78 504,-72 510,-72 510,-72 636.25,-72 636.25,-72 642.25,-72 648.25,-78 648.25,-84 648.25,-84 648.25,-131 648.25,-131 648.25,-137 642.25,-143 636.25,-143"/>
<text text-anchor="start" x="533" y="-125.7" font-family="Helvetica,sans-Serif" font-size="14.00">P4_6_4 ≤ 1.5</text>
<text text-anchor="start" x="506" y="-109.95" font-family="Helvetica,sans-Serif" font-size="14.00">squared_error = 2.598</text>
<text text-anchor="start" x="532.25" y="-94.2" font-family="Helvetica,sans-Serif" font-size="14.00">samples = 98</text>
<text text-anchor="start" x="532.25" y="-78.45" font-family="Helvetica,sans-Serif" font-size="14.00">value = 6.534</text>
</g>
<!-- 88&#45;&gt;114 -->
<g id="edge14" class="edge">
<title>88&#45;&gt;114</title>
<path fill="none" stroke="black" d="M519.1,-178.54C525.59,-170.12 532.6,-161.03 539.36,-152.27"/>
<polygon fill="black" stroke="black" points="542.01,-154.56 545.35,-144.51 536.47,-150.29 542.01,-154.56"/>
</g>
<!-- 90 -->
<g id="node13" class="node">
<title>90</title>
<path fill="#c0c0c0" stroke="black" d="M398.12,-36C398.12,-36 368.12,-36 368.12,-36 362.12,-36 356.12,-30 356.12,-24 356.12,-24 356.12,-12 356.12,-12 356.12,-6 362.12,0 368.12,0 368.12,0 398.12,0 398.12,0 404.12,0 410.12,-6 410.12,-12 410.12,-12 410.12,-24 410.12,-24 410.12,-30 404.12,-36 398.12,-36"/>
<text text-anchor="middle" x="383.12" y="-12.57" font-family="Helvetica,sans-Serif" font-size="14.00">(...)</text>
</g>
<!-- 89&#45;&gt;90 -->
<g id="edge12" class="edge">
<title>89&#45;&gt;90</title>
<path fill="none" stroke="black" d="M398.17,-71.67C395.83,-63.47 393.36,-54.84 391.12,-46.98"/>
<polygon fill="black" stroke="black" points="394.56,-46.29 388.45,-37.64 387.83,-48.21 394.56,-46.29"/>
</g>
<!-- 105 -->
<g id="node14" class="node">
<title>105</title>
<path fill="#c0c0c0" stroke="black" d="M470.12,-36C470.12,-36 440.12,-36 440.12,-36 434.12,-36 428.12,-30 428.12,-24 428.12,-24 428.12,-12 428.12,-12 428.12,-6 434.12,0 440.12,0 440.12,0 470.12,0 470.12,0 476.12,0 482.12,-6 482.12,-12 482.12,-12 482.12,-24 482.12,-24 482.12,-30 476.12,-36 470.12,-36"/>
<text text-anchor="middle" x="455.12" y="-12.57" font-family="Helvetica,sans-Serif" font-size="14.00">(...)</text>
</g>
<!-- 89&#45;&gt;105 -->
<g id="edge13" class="edge">
<title>89&#45;&gt;105</title>
<path fill="none" stroke="black" d="M426.84,-71.67C431.39,-63.18 436.2,-54.23 440.53,-46.17"/>
<polygon fill="black" stroke="black" points="443.53,-47.98 445.18,-37.52 437.36,-44.67 443.53,-47.98"/>
</g>
<!-- 115 -->
<g id="node16" class="node">
<title>115</title>
<path fill="#c0c0c0" stroke="black" d="M578.12,-36C578.12,-36 548.12,-36 548.12,-36 542.12,-36 536.12,-30 536.12,-24 536.12,-24 536.12,-12 536.12,-12 536.12,-6 542.12,0 548.12,0 548.12,0 578.12,0 578.12,0 584.12,0 590.12,-6 590.12,-12 590.12,-12 590.12,-24 590.12,-24 590.12,-30 584.12,-36 578.12,-36"/>
<text text-anchor="middle" x="563.12" y="-12.57" font-family="Helvetica,sans-Serif" font-size="14.00">(...)</text>
</g>
<!-- 114&#45;&gt;115 -->
<g id="edge15" class="edge">
<title>114&#45;&gt;115</title>
<path fill="none" stroke="black" d="M569.14,-71.67C568.23,-63.66 567.27,-55.24 566.39,-47.53"/>
<polygon fill="black" stroke="black" points="569.87,-47.22 565.26,-37.69 562.92,-48.02 569.87,-47.22"/>
</g>
<!-- 118 -->
<g id="node17" class="node">
<title>118</title>
<path fill="#c0c0c0" stroke="black" d="M650.12,-36C650.12,-36 620.12,-36 620.12,-36 614.12,-36 608.12,-30 608.12,-24 608.12,-24 608.12,-12 608.12,-12 608.12,-6 614.12,0 620.12,0 620.12,0 650.12,0 650.12,0 656.12,0 662.12,-6 662.12,-12 662.12,-12 662.12,-24 662.12,-24 662.12,-30 656.12,-36 650.12,-36"/>
<text text-anchor="middle" x="635.12" y="-12.57" font-family="Helvetica,sans-Serif" font-size="14.00">(...)</text>
</g>
<!-- 114&#45;&gt;118 -->
<g id="edge16" class="edge">
<title>114&#45;&gt;118</title>
<path fill="none" stroke="black" d="M597.81,-71.67C604.02,-62.9 610.59,-53.63 616.45,-45.35"/>
<polygon fill="black" stroke="black" points="619.15,-47.6 622.07,-37.42 613.44,-43.55 619.15,-47.6"/>
</g>
<!-- 130 -->
<g id="node19" class="node">
<title>130</title>
<path fill="#f0b68d" stroke="black" d="M972.25,-250C972.25,-250 846,-250 846,-250 840,-250 834,-244 834,-238 834,-238 834,-191 834,-191 834,-185 840,-179 846,-179 846,-179 972.25,-179 972.25,-179 978.25,-179 984.25,-185 984.25,-191 984.25,-191 984.25,-238 984.25,-238 984.25,-244 978.25,-250 972.25,-250"/>
<text text-anchor="start" x="876.5" y="-232.7" font-family="Helvetica,sans-Serif" font-size="14.00">P4_1 ≤ 0.5</text>
<text text-anchor="start" x="842" y="-216.95" font-family="Helvetica,sans-Serif" font-size="14.00">squared_error = 3.557</text>
<text text-anchor="start" x="864.5" y="-201.2" font-family="Helvetica,sans-Serif" font-size="14.00">samples = 844</text>
<text text-anchor="start" x="864.5" y="-185.45" font-family="Helvetica,sans-Serif" font-size="14.00">value = 12.986</text>
</g>
<!-- 129&#45;&gt;130 -->
<g id="edge18" class="edge">
<title>129&#45;&gt;130</title>
<path fill="none" stroke="black" d="M965.15,-285.54C958.42,-277.12 951.15,-268.03 944.14,-259.27"/>
<polygon fill="black" stroke="black" points="946.9,-257.11 937.92,-251.49 941.43,-261.49 946.9,-257.11"/>
</g>
<!-- 253 -->
<g id="node26" class="node">
<title>253</title>
<path fill="#f4c9aa" stroke="black" d="M1140.25,-250C1140.25,-250 1014,-250 1014,-250 1008,-250 1002,-244 1002,-238 1002,-238 1002,-191 1002,-191 1002,-185 1008,-179 1014,-179 1014,-179 1140.25,-179 1140.25,-179 1146.25,-179 1152.25,-185 1152.25,-191 1152.25,-191 1152.25,-238 1152.25,-238 1152.25,-244 1146.25,-250 1140.25,-250"/>
<text text-anchor="start" x="1033.62" y="-232.7" font-family="Helvetica,sans-Serif" font-size="14.00">P11_3_9 ≤ 0.5</text>
<text text-anchor="start" x="1010" y="-216.95" font-family="Helvetica,sans-Serif" font-size="14.00">squared_error = 4.599</text>
<text text-anchor="start" x="1029.12" y="-201.2" font-family="Helvetica,sans-Serif" font-size="14.00">samples = 1511</text>
<text text-anchor="start" x="1036.25" y="-185.45" font-family="Helvetica,sans-Serif" font-size="14.00">value = 10.81</text>
</g>
<!-- 129&#45;&gt;253 -->
<g id="edge25" class="edge">
<title>129&#45;&gt;253</title>
<path fill="none" stroke="black" d="M1021.1,-285.54C1027.83,-277.12 1035.1,-268.03 1042.11,-259.27"/>
<polygon fill="black" stroke="black" points="1044.82,-261.49 1048.33,-251.49 1039.35,-257.11 1044.82,-261.49"/>
</g>
<!-- 131 -->
<g id="node20" class="node">
<title>131</title>
<path fill="#eeac7c" stroke="black" d="M804.25,-143C804.25,-143 678,-143 678,-143 672,-143 666,-137 666,-131 666,-131 666,-84 666,-84 666,-78 672,-72 678,-72 678,-72 804.25,-72 804.25,-72 810.25,-72 816.25,-78 816.25,-84 816.25,-84 816.25,-131 816.25,-131 816.25,-137 810.25,-143 804.25,-143"/>
<text text-anchor="start" x="701" y="-125.7" font-family="Helvetica,sans-Serif" font-size="14.00">P4_6_2 ≤ 1.5</text>
<text text-anchor="start" x="674" y="-109.95" font-family="Helvetica,sans-Serif" font-size="14.00">squared_error = 3.291</text>
<text text-anchor="start" x="696.5" y="-94.2" font-family="Helvetica,sans-Serif" font-size="14.00">samples = 243</text>
<text text-anchor="start" x="696.5" y="-78.45" font-family="Helvetica,sans-Serif" font-size="14.00">value = 14.221</text>
</g>
<!-- 130&#45;&gt;131 -->
<g id="edge19" class="edge">
<title>130&#45;&gt;131</title>
<path fill="none" stroke="black" d="M853.18,-178.54C838.24,-169.2 821.97,-159.03 806.56,-149.4"/>
<polygon fill="black" stroke="black" points="808.73,-146.62 798.39,-144.29 805.02,-152.56 808.73,-146.62"/>
</g>
<!-- 166 -->
<g id="node23" class="node">
<title>166</title>
<path fill="#f1bb94" stroke="black" d="M972.25,-143C972.25,-143 846,-143 846,-143 840,-143 834,-137 834,-131 834,-131 834,-84 834,-84 834,-78 840,-72 846,-72 846,-72 972.25,-72 972.25,-72 978.25,-72 984.25,-78 984.25,-84 984.25,-84 984.25,-131 984.25,-131 984.25,-137 978.25,-143 972.25,-143"/>
<text text-anchor="start" x="869" y="-125.7" font-family="Helvetica,sans-Serif" font-size="14.00">P4_6_1 ≤ 1.5</text>
<text text-anchor="start" x="842" y="-109.95" font-family="Helvetica,sans-Serif" font-size="14.00">squared_error = 2.799</text>
<text text-anchor="start" x="864.5" y="-94.2" font-family="Helvetica,sans-Serif" font-size="14.00">samples = 601</text>
<text text-anchor="start" x="864.5" y="-78.45" font-family="Helvetica,sans-Serif" font-size="14.00">value = 12.486</text>
</g>
<!-- 130&#45;&gt;166 -->
<g id="edge22" class="edge">
<title>130&#45;&gt;166</title>
<path fill="none" stroke="black" d="M909.12,-178.54C909.12,-170.92 909.12,-162.75 909.12,-154.77"/>
<polygon fill="black" stroke="black" points="912.63,-154.82 909.13,-144.82 905.63,-154.82 912.63,-154.82"/>
</g>
<!-- 132 -->
<g id="node21" class="node">
<title>132</title>
<path fill="#c0c0c0" stroke="black" d="M727.12,-36C727.12,-36 697.12,-36 697.12,-36 691.12,-36 685.12,-30 685.12,-24 685.12,-24 685.12,-12 685.12,-12 685.12,-6 691.12,0 697.12,0 697.12,0 727.12,0 727.12,0 733.12,0 739.12,-6 739.12,-12 739.12,-12 739.12,-24 739.12,-24 739.12,-30 733.12,-36 727.12,-36"/>
<text text-anchor="middle" x="712.12" y="-12.57" font-family="Helvetica,sans-Serif" font-size="14.00">(...)</text>
</g>
<!-- 131&#45;&gt;132 -->
<g id="edge20" class="edge">
<title>131&#45;&gt;132</title>
<path fill="none" stroke="black" d="M729.58,-71.67C726.86,-63.47 724,-54.84 721.4,-46.98"/>
<polygon fill="black" stroke="black" points="724.76,-46.01 718.3,-37.62 718.12,-48.21 724.76,-46.01"/>
</g>
<!-- 161 -->
<g id="node22" class="node">
<title>161</title>
<path fill="#c0c0c0" stroke="black" d="M799.12,-36C799.12,-36 769.12,-36 769.12,-36 763.12,-36 757.12,-30 757.12,-24 757.12,-24 757.12,-12 757.12,-12 757.12,-6 763.12,0 769.12,0 769.12,0 799.12,0 799.12,0 805.12,0 811.12,-6 811.12,-12 811.12,-12 811.12,-24 811.12,-24 811.12,-30 805.12,-36 799.12,-36"/>
<text text-anchor="middle" x="784.12" y="-12.57" font-family="Helvetica,sans-Serif" font-size="14.00">(...)</text>
</g>
<!-- 131&#45;&gt;161 -->
<g id="edge21" class="edge">
<title>131&#45;&gt;161</title>
<path fill="none" stroke="black" d="M758.24,-71.67C762.37,-63.28 766.71,-54.43 770.64,-46.44"/>
<polygon fill="black" stroke="black" points="773.74,-48.06 775.01,-37.54 767.46,-44.97 773.74,-48.06"/>
</g>
<!-- 167 -->
<g id="node24" class="node">
<title>167</title>
<path fill="#c0c0c0" stroke="black" d="M884.12,-36C884.12,-36 854.12,-36 854.12,-36 848.12,-36 842.12,-30 842.12,-24 842.12,-24 842.12,-12 842.12,-12 842.12,-6 848.12,0 854.12,0 854.12,0 884.12,0 884.12,0 890.12,0 896.12,-6 896.12,-12 896.12,-12 896.12,-24 896.12,-24 896.12,-30 890.12,-36 884.12,-36"/>
<text text-anchor="middle" x="869.12" y="-12.57" font-family="Helvetica,sans-Serif" font-size="14.00">(...)</text>
</g>
<!-- 166&#45;&gt;167 -->
<g id="edge23" class="edge">
<title>166&#45;&gt;167</title>
<path fill="none" stroke="black" d="M893.2,-71.67C889.37,-63.28 885.32,-54.43 881.67,-46.44"/>
<polygon fill="black" stroke="black" points="884.95,-45.2 877.61,-37.56 878.58,-48.11 884.95,-45.2"/>
</g>
<!-- 230 -->
<g id="node25" class="node">
<title>230</title>
<path fill="#c0c0c0" stroke="black" d="M956.12,-36C956.12,-36 926.12,-36 926.12,-36 920.12,-36 914.12,-30 914.12,-24 914.12,-24 914.12,-12 914.12,-12 914.12,-6 920.12,0 926.12,0 926.12,0 956.12,0 956.12,0 962.12,0 968.12,-6 968.12,-12 968.12,-12 968.12,-24 968.12,-24 968.12,-30 962.12,-36 956.12,-36"/>
<text text-anchor="middle" x="941.12" y="-12.57" font-family="Helvetica,sans-Serif" font-size="14.00">(...)</text>
</g>
<!-- 166&#45;&gt;230 -->
<g id="edge24" class="edge">
<title>166&#45;&gt;230</title>
<path fill="none" stroke="black" d="M921.86,-71.67C924.86,-63.47 928.02,-54.84 930.89,-46.98"/>
<polygon fill="black" stroke="black" points="934.17,-48.2 934.32,-37.6 927.6,-45.79 934.17,-48.2"/>
</g>
<!-- 254 -->
<g id="node27" class="node">
<title>254</title>
<path fill="#f2c19e" stroke="black" d="M1140.25,-143C1140.25,-143 1014,-143 1014,-143 1008,-143 1002,-137 1002,-131 1002,-131 1002,-84 1002,-84 1002,-78 1008,-72 1014,-72 1014,-72 1140.25,-72 1140.25,-72 1146.25,-72 1152.25,-78 1152.25,-84 1152.25,-84 1152.25,-131 1152.25,-131 1152.25,-137 1146.25,-143 1140.25,-143"/>
<text text-anchor="start" x="1037" y="-125.7" font-family="Helvetica,sans-Serif" font-size="14.00">P4_6_1 ≤ 1.5</text>
<text text-anchor="start" x="1010" y="-109.95" font-family="Helvetica,sans-Serif" font-size="14.00">squared_error = 3.865</text>
<text text-anchor="start" x="1032.5" y="-94.2" font-family="Helvetica,sans-Serif" font-size="14.00">samples = 754</text>
<text text-anchor="start" x="1036.62" y="-78.45" font-family="Helvetica,sans-Serif" font-size="14.00">value = 11.74</text>
</g>
<!-- 253&#45;&gt;254 -->
<g id="edge26" class="edge">
<title>253&#45;&gt;254</title>
<path fill="none" stroke="black" d="M1077.12,-178.54C1077.12,-170.92 1077.12,-162.75 1077.12,-154.77"/>
<polygon fill="black" stroke="black" points="1080.63,-154.82 1077.13,-144.82 1073.63,-154.82 1080.63,-154.82"/>
</g>
<!-- 359 -->
<g id="node30" class="node">
<title>359</title>
<path fill="#f5d1b6" stroke="black" d="M1301.5,-143C1301.5,-143 1182.75,-143 1182.75,-143 1176.75,-143 1170.75,-137 1170.75,-131 1170.75,-131 1170.75,-84 1170.75,-84 1170.75,-78 1176.75,-72 1182.75,-72 1182.75,-72 1301.5,-72 1301.5,-72 1307.5,-72 1313.5,-78 1313.5,-84 1313.5,-84 1313.5,-131 1313.5,-131 1313.5,-137 1307.5,-143 1301.5,-143"/>
<text text-anchor="start" x="1202" y="-125.7" font-family="Helvetica,sans-Serif" font-size="14.00">P4_6_1 ≤ 1.5</text>
<text text-anchor="start" x="1178.75" y="-109.95" font-family="Helvetica,sans-Serif" font-size="14.00">squared_error = 3.61</text>
<text text-anchor="start" x="1197.5" y="-94.2" font-family="Helvetica,sans-Serif" font-size="14.00">samples = 757</text>
<text text-anchor="start" x="1201.25" y="-78.45" font-family="Helvetica,sans-Serif" font-size="14.00">value = 9.884</text>
</g>
<!-- 253&#45;&gt;359 -->
<g id="edge29" class="edge">
<title>253&#45;&gt;359</title>
<path fill="none" stroke="black" d="M1132.07,-178.54C1146.74,-169.2 1162.73,-159.03 1177.85,-149.4"/>
<polygon fill="black" stroke="black" points="1179.31,-152.62 1185.86,-144.3 1175.55,-146.72 1179.31,-152.62"/>
</g>
<!-- 255 -->
<g id="node28" class="node">
<title>255</title>
<path fill="#c0c0c0" stroke="black" d="M1030.12,-36C1030.12,-36 1000.12,-36 1000.12,-36 994.12,-36 988.12,-30 988.12,-24 988.12,-24 988.12,-12 988.12,-12 988.12,-6 994.12,0 1000.12,0 1000.12,0 1030.12,0 1030.12,0 1036.12,0 1042.12,-6 1042.12,-12 1042.12,-12 1042.12,-24 1042.12,-24 1042.12,-30 1036.12,-36 1030.12,-36"/>
<text text-anchor="middle" x="1015.12" y="-12.57" font-family="Helvetica,sans-Serif" font-size="14.00">(...)</text>
</g>
<!-- 254&#45;&gt;255 -->
<g id="edge27" class="edge">
<title>254&#45;&gt;255</title>
<path fill="none" stroke="black" d="M1052.44,-71.67C1046.23,-62.9 1039.66,-53.63 1033.8,-45.35"/>
<polygon fill="black" stroke="black" points="1036.81,-43.55 1028.18,-37.42 1031.1,-47.6 1036.81,-43.55"/>
</g>
<!-- 320 -->
<g id="node29" class="node">
<title>320</title>
<path fill="#c0c0c0" stroke="black" d="M1102.12,-36C1102.12,-36 1072.12,-36 1072.12,-36 1066.12,-36 1060.12,-30 1060.12,-24 1060.12,-24 1060.12,-12 1060.12,-12 1060.12,-6 1066.12,0 1072.12,0 1072.12,0 1102.12,0 1102.12,0 1108.12,0 1114.12,-6 1114.12,-12 1114.12,-12 1114.12,-24 1114.12,-24 1114.12,-30 1108.12,-36 1102.12,-36"/>
<text text-anchor="middle" x="1087.12" y="-12.57" font-family="Helvetica,sans-Serif" font-size="14.00">(...)</text>
</g>
<!-- 254&#45;&gt;320 -->
<g id="edge28" class="edge">
<title>254&#45;&gt;320</title>
<path fill="none" stroke="black" d="M1081.11,-71.67C1082.02,-63.66 1082.98,-55.24 1083.86,-47.53"/>
<polygon fill="black" stroke="black" points="1087.33,-48.02 1084.99,-37.69 1080.38,-47.22 1087.33,-48.02"/>
</g>
<!-- 360 -->
<g id="node31" class="node">
<title>360</title>
<path fill="#c0c0c0" stroke="black" d="M1195.12,-36C1195.12,-36 1165.12,-36 1165.12,-36 1159.12,-36 1153.12,-30 1153.12,-24 1153.12,-24 1153.12,-12 1153.12,-12 1153.12,-6 1159.12,0 1165.12,0 1165.12,0 1195.12,0 1195.12,0 1201.12,0 1207.12,-6 1207.12,-12 1207.12,-12 1207.12,-24 1207.12,-24 1207.12,-30 1201.12,-36 1195.12,-36"/>
<text text-anchor="middle" x="1180.12" y="-12.57" font-family="Helvetica,sans-Serif" font-size="14.00">(...)</text>
</g>
<!-- 359&#45;&gt;360 -->
<g id="edge30" class="edge">
<title>359&#45;&gt;360</title>
<path fill="none" stroke="black" d="M1217.44,-71.67C1211.23,-62.9 1204.66,-53.63 1198.8,-45.35"/>
<polygon fill="black" stroke="black" points="1201.81,-43.55 1193.18,-37.42 1196.1,-47.6 1201.81,-43.55"/>
</g>
<!-- 427 -->
<g id="node32" class="node">
<title>427</title>
<path fill="#c0c0c0" stroke="black" d="M1267.12,-36C1267.12,-36 1237.12,-36 1237.12,-36 1231.12,-36 1225.12,-30 1225.12,-24 1225.12,-24 1225.12,-12 1225.12,-12 1225.12,-6 1231.12,0 1237.12,0 1237.12,0 1267.12,0 1267.12,0 1273.12,0 1279.12,-6 1279.12,-12 1279.12,-12 1279.12,-24 1279.12,-24 1279.12,-30 1273.12,-36 1267.12,-36"/>
<text text-anchor="middle" x="1252.12" y="-12.57" font-family="Helvetica,sans-Serif" font-size="14.00">(...)</text>
</g>
<!-- 359&#45;&gt;427 -->
<g id="edge31" class="edge">
<title>359&#45;&gt;427</title>
<path fill="none" stroke="black" d="M1246.11,-71.67C1247.02,-63.66 1247.98,-55.24 1248.86,-47.53"/>
<polygon fill="black" stroke="black" points="1252.33,-48.02 1249.99,-37.69 1245.38,-47.22 1252.33,-48.02"/>
</g>
<!-- 471 -->
<g id="node34" class="node">
<title>471</title>
<path fill="#eda674" stroke="black" d="M1722.25,-357C1722.25,-357 1596,-357 1596,-357 1590,-357 1584,-351 1584,-345 1584,-345 1584,-298 1584,-298 1584,-292 1590,-286 1596,-286 1596,-286 1722.25,-286 1722.25,-286 1728.25,-286 1734.25,-292 1734.25,-298 1734.25,-298 1734.25,-345 1734.25,-345 1734.25,-351 1728.25,-357 1722.25,-357"/>
<text text-anchor="start" x="1626.5" y="-339.7" font-family="Helvetica,sans-Serif" font-size="14.00">P4_1 ≤ 0.5</text>
<text text-anchor="start" x="1592" y="-323.95" font-family="Helvetica,sans-Serif" font-size="14.00">squared_error = 3.788</text>
<text text-anchor="start" x="1614.5" y="-308.2" font-family="Helvetica,sans-Serif" font-size="14.00">samples = 831</text>
<text text-anchor="start" x="1618.25" y="-292.45" font-family="Helvetica,sans-Serif" font-size="14.00">value = 14.88</text>
</g>
<!-- 470&#45;&gt;471 -->
<g id="edge33" class="edge">
<title>470&#45;&gt;471</title>
<path fill="none" stroke="black" d="M1659.12,-392.54C1659.12,-384.92 1659.12,-376.75 1659.12,-368.77"/>
<polygon fill="black" stroke="black" points="1662.63,-368.82 1659.13,-358.82 1655.63,-368.82 1662.63,-368.82"/>
</g>
<!-- 594 -->
<g id="node49" class="node">
<title>594</title>
<path fill="#f1bc96" stroke="black" d="M2221.25,-357C2221.25,-357 2095,-357 2095,-357 2089,-357 2083,-351 2083,-345 2083,-345 2083,-298 2083,-298 2083,-292 2089,-286 2095,-286 2095,-286 2221.25,-286 2221.25,-286 2227.25,-286 2233.25,-292 2233.25,-298 2233.25,-298 2233.25,-345 2233.25,-345 2233.25,-351 2227.25,-357 2221.25,-357"/>
<text text-anchor="start" x="2118" y="-339.7" font-family="Helvetica,sans-Serif" font-size="14.00">P4_6_1 ≤ 1.5</text>
<text text-anchor="start" x="2091" y="-323.95" font-family="Helvetica,sans-Serif" font-size="14.00">squared_error = 4.525</text>
<text text-anchor="start" x="2109.75" y="-308.2" font-family="Helvetica,sans-Serif" font-size="14.00">samples = 1018</text>
<text text-anchor="start" x="2113.5" y="-292.45" font-family="Helvetica,sans-Serif" font-size="14.00">value = 12.299</text>
</g>
<!-- 470&#45;&gt;594 -->
<g id="edge48" class="edge">
<title>470&#45;&gt;594</title>
<path fill="none" stroke="black" d="M1734.64,-411.61C1825.19,-392.56 1976.62,-360.69 2071.74,-340.68"/>
<polygon fill="black" stroke="black" points="2072.22,-344.15 2081.28,-338.67 2070.78,-337.3 2072.22,-344.15"/>
</g>
<!-- 472 -->
<g id="node35" class="node">
<title>472</title>
<path fill="#ea9b62" stroke="black" d="M1638.25,-250C1638.25,-250 1512,-250 1512,-250 1506,-250 1500,-244 1500,-238 1500,-238 1500,-191 1500,-191 1500,-185 1506,-179 1512,-179 1512,-179 1638.25,-179 1638.25,-179 1644.25,-179 1650.25,-185 1650.25,-191 1650.25,-191 1650.25,-238 1650.25,-238 1650.25,-244 1644.25,-250 1638.25,-250"/>
<text text-anchor="start" x="1535" y="-232.7" font-family="Helvetica,sans-Serif" font-size="14.00">P4_6_1 ≤ 1.5</text>
<text text-anchor="start" x="1508" y="-216.95" font-family="Helvetica,sans-Serif" font-size="14.00">squared_error = 3.008</text>
<text text-anchor="start" x="1530.5" y="-201.2" font-family="Helvetica,sans-Serif" font-size="14.00">samples = 261</text>
<text text-anchor="start" x="1530.5" y="-185.45" font-family="Helvetica,sans-Serif" font-size="14.00">value = 16.197</text>
</g>
<!-- 471&#45;&gt;472 -->
<g id="edge34" class="edge">
<title>471&#45;&gt;472</title>
<path fill="none" stroke="black" d="M1631.15,-285.54C1624.42,-277.12 1617.15,-268.03 1610.14,-259.27"/>
<polygon fill="black" stroke="black" points="1612.9,-257.11 1603.92,-251.49 1607.43,-261.49 1612.9,-257.11"/>
</g>
<!-- 509 -->
<g id="node42" class="node">
<title>509</title>
<path fill="#eeab7c" stroke="black" d="M1806.25,-250C1806.25,-250 1680,-250 1680,-250 1674,-250 1668,-244 1668,-238 1668,-238 1668,-191 1668,-191 1668,-185 1674,-179 1680,-179 1680,-179 1806.25,-179 1806.25,-179 1812.25,-179 1818.25,-185 1818.25,-191 1818.25,-191 1818.25,-238 1818.25,-238 1818.25,-244 1812.25,-250 1806.25,-250"/>
<text text-anchor="start" x="1703" y="-232.7" font-family="Helvetica,sans-Serif" font-size="14.00">P4_6_2 ≤ 1.5</text>
<text text-anchor="start" x="1676" y="-216.95" font-family="Helvetica,sans-Serif" font-size="14.00">squared_error = 2.988</text>
<text text-anchor="start" x="1698.5" y="-201.2" font-family="Helvetica,sans-Serif" font-size="14.00">samples = 570</text>
<text text-anchor="start" x="1698.5" y="-185.45" font-family="Helvetica,sans-Serif" font-size="14.00">value = 14.278</text>
</g>
<!-- 471&#45;&gt;509 -->
<g id="edge41" class="edge">
<title>471&#45;&gt;509</title>
<path fill="none" stroke="black" d="M1687.1,-285.54C1693.83,-277.12 1701.1,-268.03 1708.11,-259.27"/>
<polygon fill="black" stroke="black" points="1710.82,-261.49 1714.33,-251.49 1705.35,-257.11 1710.82,-261.49"/>
</g>
<!-- 473 -->
<g id="node36" class="node">
<title>473</title>
<path fill="#ea985e" stroke="black" d="M1470.25,-143C1470.25,-143 1344,-143 1344,-143 1338,-143 1332,-137 1332,-131 1332,-131 1332,-84 1332,-84 1332,-78 1338,-72 1344,-72 1344,-72 1470.25,-72 1470.25,-72 1476.25,-72 1482.25,-78 1482.25,-84 1482.25,-84 1482.25,-131 1482.25,-131 1482.25,-137 1476.25,-143 1470.25,-143"/>
<text text-anchor="start" x="1363.62" y="-125.7" font-family="Helvetica,sans-Serif" font-size="14.00">P11_3_9 ≤ 0.5</text>
<text text-anchor="start" x="1340" y="-109.95" font-family="Helvetica,sans-Serif" font-size="14.00">squared_error = 2.508</text>
<text text-anchor="start" x="1362.5" y="-94.2" font-family="Helvetica,sans-Serif" font-size="14.00">samples = 223</text>
<text text-anchor="start" x="1362.5" y="-78.45" font-family="Helvetica,sans-Serif" font-size="14.00">value = 16.495</text>
</g>
<!-- 472&#45;&gt;473 -->
<g id="edge35" class="edge">
<title>472&#45;&gt;473</title>
<path fill="none" stroke="black" d="M1519.18,-178.54C1504.24,-169.2 1487.97,-159.03 1472.56,-149.4"/>
<polygon fill="black" stroke="black" points="1474.73,-146.62 1464.39,-144.29 1471.02,-152.56 1474.73,-146.62"/>
</g>
<!-- 504 -->
<g id="node39" class="node">
<title>504</title>
<path fill="#edaa79" stroke="black" d="M1638.25,-143C1638.25,-143 1512,-143 1512,-143 1506,-143 1500,-137 1500,-131 1500,-131 1500,-84 1500,-84 1500,-78 1506,-72 1512,-72 1512,-72 1638.25,-72 1638.25,-72 1644.25,-72 1650.25,-78 1650.25,-84 1650.25,-84 1650.25,-131 1650.25,-131 1650.25,-137 1644.25,-143 1638.25,-143"/>
<text text-anchor="start" x="1538.75" y="-125.7" font-family="Helvetica,sans-Serif" font-size="14.00">P10_1 ≤ 0.5</text>
<text text-anchor="start" x="1508" y="-109.95" font-family="Helvetica,sans-Serif" font-size="14.00">squared_error = 2.358</text>
<text text-anchor="start" x="1534.25" y="-94.2" font-family="Helvetica,sans-Serif" font-size="14.00">samples = 38</text>
<text text-anchor="start" x="1530.5" y="-78.45" font-family="Helvetica,sans-Serif" font-size="14.00">value = 14.447</text>
</g>
<!-- 472&#45;&gt;504 -->
<g id="edge38" class="edge">
<title>472&#45;&gt;504</title>
<path fill="none" stroke="black" d="M1575.12,-178.54C1575.12,-170.92 1575.12,-162.75 1575.12,-154.77"/>
<polygon fill="black" stroke="black" points="1578.63,-154.82 1575.13,-144.82 1571.63,-154.82 1578.63,-154.82"/>
</g>
<!-- 474 -->
<g id="node37" class="node">
<title>474</title>
<path fill="#c0c0c0" stroke="black" d="M1362.12,-36C1362.12,-36 1332.12,-36 1332.12,-36 1326.12,-36 1320.12,-30 1320.12,-24 1320.12,-24 1320.12,-12 1320.12,-12 1320.12,-6 1326.12,0 1332.12,0 1332.12,0 1362.12,0 1362.12,0 1368.12,0 1374.12,-6 1374.12,-12 1374.12,-12 1374.12,-24 1374.12,-24 1374.12,-30 1368.12,-36 1362.12,-36"/>
<text text-anchor="middle" x="1347.12" y="-12.57" font-family="Helvetica,sans-Serif" font-size="14.00">(...)</text>
</g>
<!-- 473&#45;&gt;474 -->
<g id="edge36" class="edge">
<title>473&#45;&gt;474</title>
<path fill="none" stroke="black" d="M1383.24,-71.67C1377.29,-62.99 1371.01,-53.83 1365.38,-45.62"/>
<polygon fill="black" stroke="black" points="1368.31,-43.7 1359.76,-37.43 1362.53,-47.66 1368.31,-43.7"/>
</g>
<!-- 493 -->
<g id="node38" class="node">
<title>493</title>
<path fill="#c0c0c0" stroke="black" d="M1434.12,-36C1434.12,-36 1404.12,-36 1404.12,-36 1398.12,-36 1392.12,-30 1392.12,-24 1392.12,-24 1392.12,-12 1392.12,-12 1392.12,-6 1398.12,0 1404.12,0 1404.12,0 1434.12,0 1434.12,0 1440.12,0 1446.12,-6 1446.12,-12 1446.12,-12 1446.12,-24 1446.12,-24 1446.12,-30 1440.12,-36 1434.12,-36"/>
<text text-anchor="middle" x="1419.12" y="-12.57" font-family="Helvetica,sans-Serif" font-size="14.00">(...)</text>
</g>
<!-- 473&#45;&gt;493 -->
<g id="edge37" class="edge">
<title>473&#45;&gt;493</title>
<path fill="none" stroke="black" d="M1411.9,-71.67C1413,-63.66 1414.16,-55.24 1415.21,-47.53"/>
<polygon fill="black" stroke="black" points="1418.67,-48.07 1416.56,-37.68 1411.74,-47.11 1418.67,-48.07"/>
</g>
<!-- 505 -->
<g id="node40" class="node">
<title>505</title>
<path fill="#c0c0c0" stroke="black" d="M1530.12,-36C1530.12,-36 1500.12,-36 1500.12,-36 1494.12,-36 1488.12,-30 1488.12,-24 1488.12,-24 1488.12,-12 1488.12,-12 1488.12,-6 1494.12,0 1500.12,0 1500.12,0 1530.12,0 1530.12,0 1536.12,0 1542.12,-6 1542.12,-12 1542.12,-12 1542.12,-24 1542.12,-24 1542.12,-30 1536.12,-36 1530.12,-36"/>
<text text-anchor="middle" x="1515.12" y="-12.57" font-family="Helvetica,sans-Serif" font-size="14.00">(...)</text>
</g>
<!-- 504&#45;&gt;505 -->
<g id="edge39" class="edge">
<title>504&#45;&gt;505</title>
<path fill="none" stroke="black" d="M1551.24,-71.67C1545.29,-62.99 1539.01,-53.83 1533.38,-45.62"/>
<polygon fill="black" stroke="black" points="1536.31,-43.7 1527.76,-37.43 1530.53,-47.66 1536.31,-43.7"/>
</g>
<!-- 508 -->
<g id="node41" class="node">
<title>508</title>
<path fill="#c0c0c0" stroke="black" d="M1602.12,-36C1602.12,-36 1572.12,-36 1572.12,-36 1566.12,-36 1560.12,-30 1560.12,-24 1560.12,-24 1560.12,-12 1560.12,-12 1560.12,-6 1566.12,0 1572.12,0 1572.12,0 1602.12,0 1602.12,0 1608.12,0 1614.12,-6 1614.12,-12 1614.12,-12 1614.12,-24 1614.12,-24 1614.12,-30 1608.12,-36 1602.12,-36"/>
<text text-anchor="middle" x="1587.12" y="-12.57" font-family="Helvetica,sans-Serif" font-size="14.00">(...)</text>
</g>
<!-- 504&#45;&gt;508 -->
<g id="edge40" class="edge">
<title>504&#45;&gt;508</title>
<path fill="none" stroke="black" d="M1579.9,-71.67C1581,-63.66 1582.16,-55.24 1583.21,-47.53"/>
<polygon fill="black" stroke="black" points="1586.67,-48.07 1584.56,-37.68 1579.74,-47.11 1586.67,-48.07"/>
</g>
<!-- 510 -->
<g id="node43" class="node">
<title>510</title>
<path fill="#eda877" stroke="black" d="M1806.25,-143C1806.25,-143 1680,-143 1680,-143 1674,-143 1668,-137 1668,-131 1668,-131 1668,-84 1668,-84 1668,-78 1674,-72 1680,-72 1680,-72 1806.25,-72 1806.25,-72 1812.25,-72 1818.25,-78 1818.25,-84 1818.25,-84 1818.25,-131 1818.25,-131 1818.25,-137 1812.25,-143 1806.25,-143"/>
<text text-anchor="start" x="1699.62" y="-125.7" font-family="Helvetica,sans-Serif" font-size="14.00">P11_3_9 ≤ 0.5</text>
<text text-anchor="start" x="1676" y="-109.95" font-family="Helvetica,sans-Serif" font-size="14.00">squared_error = 2.391</text>
<text text-anchor="start" x="1698.5" y="-94.2" font-family="Helvetica,sans-Serif" font-size="14.00">samples = 456</text>
<text text-anchor="start" x="1698.5" y="-78.45" font-family="Helvetica,sans-Serif" font-size="14.00">value = 14.641</text>
</g>
<!-- 509&#45;&gt;510 -->
<g id="edge42" class="edge">
<title>509&#45;&gt;510</title>
<path fill="none" stroke="black" d="M1743.12,-178.54C1743.12,-170.92 1743.12,-162.75 1743.12,-154.77"/>
<polygon fill="black" stroke="black" points="1746.63,-154.82 1743.13,-144.82 1739.63,-154.82 1746.63,-154.82"/>
</g>
<!-- 577 -->
<g id="node46" class="node">
<title>577</title>
<path fill="#f0b88f" stroke="black" d="M1974.25,-143C1974.25,-143 1848,-143 1848,-143 1842,-143 1836,-137 1836,-131 1836,-131 1836,-84 1836,-84 1836,-78 1842,-72 1848,-72 1848,-72 1974.25,-72 1974.25,-72 1980.25,-72 1986.25,-78 1986.25,-84 1986.25,-84 1986.25,-131 1986.25,-131 1986.25,-137 1980.25,-143 1974.25,-143"/>
<text text-anchor="start" x="1867.62" y="-125.7" font-family="Helvetica,sans-Serif" font-size="14.00">P11_3_9 ≤ 0.5</text>
<text text-anchor="start" x="1844" y="-109.95" font-family="Helvetica,sans-Serif" font-size="14.00">squared_error = 2.735</text>
<text text-anchor="start" x="1866.88" y="-94.2" font-family="Helvetica,sans-Serif" font-size="14.00">samples = 114</text>
<text text-anchor="start" x="1866.5" y="-78.45" font-family="Helvetica,sans-Serif" font-size="14.00">value = 12.825</text>
</g>
<!-- 509&#45;&gt;577 -->
<g id="edge45" class="edge">
<title>509&#45;&gt;577</title>
<path fill="none" stroke="black" d="M1799.07,-178.54C1814.01,-169.2 1830.28,-159.03 1845.69,-149.4"/>
<polygon fill="black" stroke="black" points="1847.23,-152.56 1853.86,-144.29 1843.52,-146.62 1847.23,-152.56"/>
</g>
<!-- 511 -->
<g id="node44" class="node">
<title>511</title>
<path fill="#c0c0c0" stroke="black" d="M1698.12,-36C1698.12,-36 1668.12,-36 1668.12,-36 1662.12,-36 1656.12,-30 1656.12,-24 1656.12,-24 1656.12,-12 1656.12,-12 1656.12,-6 1662.12,0 1668.12,0 1668.12,0 1698.12,0 1698.12,0 1704.12,0 1710.12,-6 1710.12,-12 1710.12,-12 1710.12,-24 1710.12,-24 1710.12,-30 1704.12,-36 1698.12,-36"/>
<text text-anchor="middle" x="1683.12" y="-12.57" font-family="Helvetica,sans-Serif" font-size="14.00">(...)</text>
</g>
<!-- 510&#45;&gt;511 -->
<g id="edge43" class="edge">
<title>510&#45;&gt;511</title>
<path fill="none" stroke="black" d="M1719.24,-71.67C1713.29,-62.99 1707.01,-53.83 1701.38,-45.62"/>
<polygon fill="black" stroke="black" points="1704.31,-43.7 1695.76,-37.43 1698.53,-47.66 1704.31,-43.7"/>
</g>
<!-- 544 -->
<g id="node45" class="node">
<title>544</title>
<path fill="#c0c0c0" stroke="black" d="M1770.12,-36C1770.12,-36 1740.12,-36 1740.12,-36 1734.12,-36 1728.12,-30 1728.12,-24 1728.12,-24 1728.12,-12 1728.12,-12 1728.12,-6 1734.12,0 1740.12,0 1740.12,0 1770.12,0 1770.12,0 1776.12,0 1782.12,-6 1782.12,-12 1782.12,-12 1782.12,-24 1782.12,-24 1782.12,-30 1776.12,-36 1770.12,-36"/>
<text text-anchor="middle" x="1755.12" y="-12.57" font-family="Helvetica,sans-Serif" font-size="14.00">(...)</text>
</g>
<!-- 510&#45;&gt;544 -->
<g id="edge44" class="edge">
<title>510&#45;&gt;544</title>
<path fill="none" stroke="black" d="M1747.9,-71.67C1749,-63.66 1750.16,-55.24 1751.21,-47.53"/>
<polygon fill="black" stroke="black" points="1754.67,-48.07 1752.56,-37.68 1747.74,-47.11 1754.67,-48.07"/>
</g>
<!-- 578 -->
<g id="node47" class="node">
<title>578</title>
<path fill="#c0c0c0" stroke="black" d="M1864.12,-36C1864.12,-36 1834.12,-36 1834.12,-36 1828.12,-36 1822.12,-30 1822.12,-24 1822.12,-24 1822.12,-12 1822.12,-12 1822.12,-6 1828.12,0 1834.12,0 1834.12,0 1864.12,0 1864.12,0 1870.12,0 1876.12,-6 1876.12,-12 1876.12,-12 1876.12,-24 1876.12,-24 1876.12,-30 1870.12,-36 1864.12,-36"/>
<text text-anchor="middle" x="1849.12" y="-12.57" font-family="Helvetica,sans-Serif" font-size="14.00">(...)</text>
</g>
<!-- 577&#45;&gt;578 -->
<g id="edge46" class="edge">
<title>577&#45;&gt;578</title>
<path fill="none" stroke="black" d="M1886.44,-71.67C1880.23,-62.9 1873.66,-53.63 1867.8,-45.35"/>
<polygon fill="black" stroke="black" points="1870.81,-43.55 1862.18,-37.42 1865.1,-47.6 1870.81,-43.55"/>
</g>
<!-- 585 -->
<g id="node48" class="node">
<title>585</title>
<path fill="#c0c0c0" stroke="black" d="M1936.12,-36C1936.12,-36 1906.12,-36 1906.12,-36 1900.12,-36 1894.12,-30 1894.12,-24 1894.12,-24 1894.12,-12 1894.12,-12 1894.12,-6 1900.12,0 1906.12,0 1906.12,0 1936.12,0 1936.12,0 1942.12,0 1948.12,-6 1948.12,-12 1948.12,-12 1948.12,-24 1948.12,-24 1948.12,-30 1942.12,-36 1936.12,-36"/>
<text text-anchor="middle" x="1921.12" y="-12.57" font-family="Helvetica,sans-Serif" font-size="14.00">(...)</text>
</g>
<!-- 577&#45;&gt;585 -->
<g id="edge47" class="edge">
<title>577&#45;&gt;585</title>
<path fill="none" stroke="black" d="M1915.11,-71.67C1916.02,-63.66 1916.98,-55.24 1917.86,-47.53"/>
<polygon fill="black" stroke="black" points="1921.33,-48.02 1918.99,-37.69 1914.38,-47.22 1921.33,-48.02"/>
</g>
<!-- 595 -->
<g id="node50" class="node">
<title>595</title>
<path fill="#f0b68c" stroke="black" d="M2221.25,-250C2221.25,-250 2095,-250 2095,-250 2089,-250 2083,-244 2083,-238 2083,-238 2083,-191 2083,-191 2083,-185 2089,-179 2095,-179 2095,-179 2221.25,-179 2221.25,-179 2227.25,-179 2233.25,-185 2233.25,-191 2233.25,-191 2233.25,-238 2233.25,-238 2233.25,-244 2227.25,-250 2221.25,-250"/>
<text text-anchor="start" x="2121.75" y="-232.7" font-family="Helvetica,sans-Serif" font-size="14.00">P12_2 ≤ 2.5</text>
<text text-anchor="start" x="2091" y="-216.95" font-family="Helvetica,sans-Serif" font-size="14.00">squared_error = 3.387</text>
<text text-anchor="start" x="2113.5" y="-201.2" font-family="Helvetica,sans-Serif" font-size="14.00">samples = 682</text>
<text text-anchor="start" x="2113.5" y="-185.45" font-family="Helvetica,sans-Serif" font-size="14.00">value = 13.034</text>
</g>
<!-- 594&#45;&gt;595 -->
<g id="edge49" class="edge">
<title>594&#45;&gt;595</title>
<path fill="none" stroke="black" d="M2158.12,-285.54C2158.12,-277.92 2158.12,-269.75 2158.12,-261.77"/>
<polygon fill="black" stroke="black" points="2161.63,-261.82 2158.13,-251.82 2154.63,-261.82 2161.63,-261.82"/>
</g>
<!-- 702 -->
<g id="node57" class="node">
<title>702</title>
<path fill="#f4c9aa" stroke="black" d="M2471.88,-250C2471.88,-250 2346.38,-250 2346.38,-250 2340.38,-250 2334.38,-244 2334.38,-238 2334.38,-238 2334.38,-191 2334.38,-191 2334.38,-185 2340.38,-179 2346.38,-179 2346.38,-179 2471.88,-179 2471.88,-179 2477.88,-179 2483.88,-185 2483.88,-191 2483.88,-191 2483.88,-238 2483.88,-238 2483.88,-244 2477.88,-250 2471.88,-250"/>
<text text-anchor="start" x="2369" y="-232.7" font-family="Helvetica,sans-Serif" font-size="14.00">P4_7_3 ≤ 0.5</text>
<text text-anchor="start" x="2342.38" y="-216.95" font-family="Helvetica,sans-Serif" font-size="14.00">squared_error = 3.511</text>
<text text-anchor="start" x="2364.5" y="-201.2" font-family="Helvetica,sans-Serif" font-size="14.00">samples = 336</text>
<text text-anchor="start" x="2364.5" y="-185.45" font-family="Helvetica,sans-Serif" font-size="14.00">value = 10.807</text>
</g>
<!-- 594&#45;&gt;702 -->
<g id="edge56" class="edge">
<title>594&#45;&gt;702</title>
<path fill="none" stroke="black" d="M2233.43,-289C2261.98,-277.05 2294.68,-263.38 2324.06,-251.09"/>
<polygon fill="black" stroke="black" points="2325.03,-254.47 2332.91,-247.38 2322.33,-248.01 2325.03,-254.47"/>
</g>
<!-- 596 -->
<g id="node51" class="node">
<title>596</title>
<path fill="#eeae80" stroke="black" d="M2135.5,-143C2135.5,-143 2016.75,-143 2016.75,-143 2010.75,-143 2004.75,-137 2004.75,-131 2004.75,-131 2004.75,-84 2004.75,-84 2004.75,-78 2010.75,-72 2016.75,-72 2016.75,-72 2135.5,-72 2135.5,-72 2141.5,-72 2147.5,-78 2147.5,-84 2147.5,-84 2147.5,-131 2147.5,-131 2147.5,-137 2141.5,-143 2135.5,-143"/>
<text text-anchor="start" x="2039.75" y="-125.7" font-family="Helvetica,sans-Serif" font-size="14.00">P12_2 ≤ 1.5</text>
<text text-anchor="start" x="2012.75" y="-109.95" font-family="Helvetica,sans-Serif" font-size="14.00">squared_error = 3.06</text>
<text text-anchor="start" x="2031.5" y="-94.2" font-family="Helvetica,sans-Serif" font-size="14.00">samples = 334</text>
<text text-anchor="start" x="2031.5" y="-78.45" font-family="Helvetica,sans-Serif" font-size="14.00">value = 13.914</text>
</g>
<!-- 595&#45;&gt;596 -->
<g id="edge50" class="edge">
<title>595&#45;&gt;596</title>
<path fill="none" stroke="black" d="M2130.82,-178.54C2124.25,-170.12 2117.15,-161.03 2110.31,-152.27"/>
<polygon fill="black" stroke="black" points="2113.16,-150.23 2104.24,-144.5 2107.64,-154.54 2113.16,-150.23"/>
</g>
<!-- 645 -->
<g id="node54" class="node">
<title>645</title>
<path fill="#f1bd98" stroke="black" d="M2304.25,-143C2304.25,-143 2178,-143 2178,-143 2172,-143 2166,-137 2166,-131 2166,-131 2166,-84 2166,-84 2166,-78 2172,-72 2178,-72 2178,-72 2304.25,-72 2304.25,-72 2310.25,-72 2316.25,-78 2316.25,-84 2316.25,-84 2316.25,-131 2316.25,-131 2316.25,-137 2310.25,-143 2304.25,-143"/>
<text text-anchor="start" x="2201" y="-125.7" font-family="Helvetica,sans-Serif" font-size="14.00">P4_7_3 ≤ 0.5</text>
<text text-anchor="start" x="2174" y="-109.95" font-family="Helvetica,sans-Serif" font-size="14.00">squared_error = 2.243</text>
<text text-anchor="start" x="2196.5" y="-94.2" font-family="Helvetica,sans-Serif" font-size="14.00">samples = 348</text>
<text text-anchor="start" x="2196.5" y="-78.45" font-family="Helvetica,sans-Serif" font-size="14.00">value = 12.189</text>
</g>
<!-- 595&#45;&gt;645 -->
<g id="edge53" class="edge">
<title>595&#45;&gt;645</title>
<path fill="none" stroke="black" d="M2185.76,-178.54C2192.41,-170.12 2199.6,-161.03 2206.52,-152.27"/>
<polygon fill="black" stroke="black" points="2209.21,-154.51 2212.67,-144.5 2203.72,-150.17 2209.21,-154.51"/>
</g>
<!-- 597 -->
<g id="node52" class="node">
<title>597</title>
<path fill="#c0c0c0" stroke="black" d="M2029.12,-36C2029.12,-36 1999.12,-36 1999.12,-36 1993.12,-36 1987.12,-30 1987.12,-24 1987.12,-24 1987.12,-12 1987.12,-12 1987.12,-6 1993.12,0 1999.12,0 1999.12,0 2029.12,0 2029.12,0 2035.12,0 2041.12,-6 2041.12,-12 2041.12,-12 2041.12,-24 2041.12,-24 2041.12,-30 2035.12,-36 2029.12,-36"/>
<text text-anchor="middle" x="2014.12" y="-12.57" font-family="Helvetica,sans-Serif" font-size="14.00">(...)</text>
</g>
<!-- 596&#45;&gt;597 -->
<g id="edge51" class="edge">
<title>596&#45;&gt;597</title>
<path fill="none" stroke="black" d="M2051.44,-71.67C2045.23,-62.9 2038.66,-53.63 2032.8,-45.35"/>
<polygon fill="black" stroke="black" points="2035.81,-43.55 2027.18,-37.42 2030.1,-47.6 2035.81,-43.55"/>
</g>
<!-- 616 -->
<g id="node53" class="node">
<title>616</title>
<path fill="#c0c0c0" stroke="black" d="M2101.12,-36C2101.12,-36 2071.12,-36 2071.12,-36 2065.12,-36 2059.12,-30 2059.12,-24 2059.12,-24 2059.12,-12 2059.12,-12 2059.12,-6 2065.12,0 2071.12,0 2071.12,0 2101.12,0 2101.12,0 2107.12,0 2113.12,-6 2113.12,-12 2113.12,-12 2113.12,-24 2113.12,-24 2113.12,-30 2107.12,-36 2101.12,-36"/>
<text text-anchor="middle" x="2086.12" y="-12.57" font-family="Helvetica,sans-Serif" font-size="14.00">(...)</text>
</g>
<!-- 596&#45;&gt;616 -->
<g id="edge52" class="edge">
<title>596&#45;&gt;616</title>
<path fill="none" stroke="black" d="M2080.11,-71.67C2081.02,-63.66 2081.98,-55.24 2082.86,-47.53"/>
<polygon fill="black" stroke="black" points="2086.33,-48.02 2083.99,-37.69 2079.38,-47.22 2086.33,-48.02"/>
</g>
<!-- 646 -->
<g id="node55" class="node">
<title>646</title>
<path fill="#c0c0c0" stroke="black" d="M2196.12,-36C2196.12,-36 2166.12,-36 2166.12,-36 2160.12,-36 2154.12,-30 2154.12,-24 2154.12,-24 2154.12,-12 2154.12,-12 2154.12,-6 2160.12,0 2166.12,0 2166.12,0 2196.12,0 2196.12,0 2202.12,0 2208.12,-6 2208.12,-12 2208.12,-12 2208.12,-24 2208.12,-24 2208.12,-30 2202.12,-36 2196.12,-36"/>
<text text-anchor="middle" x="2181.12" y="-12.57" font-family="Helvetica,sans-Serif" font-size="14.00">(...)</text>
</g>
<!-- 645&#45;&gt;646 -->
<g id="edge54" class="edge">
<title>645&#45;&gt;646</title>
<path fill="none" stroke="black" d="M2217.24,-71.67C2211.29,-62.99 2205.01,-53.83 2199.38,-45.62"/>
<polygon fill="black" stroke="black" points="2202.31,-43.7 2193.76,-37.43 2196.53,-47.66 2202.31,-43.7"/>
</g>
<!-- 675 -->
<g id="node56" class="node">
<title>675</title>
<path fill="#c0c0c0" stroke="black" d="M2268.12,-36C2268.12,-36 2238.12,-36 2238.12,-36 2232.12,-36 2226.12,-30 2226.12,-24 2226.12,-24 2226.12,-12 2226.12,-12 2226.12,-6 2232.12,0 2238.12,0 2238.12,0 2268.12,0 2268.12,0 2274.12,0 2280.12,-6 2280.12,-12 2280.12,-12 2280.12,-24 2280.12,-24 2280.12,-30 2274.12,-36 2268.12,-36"/>
<text text-anchor="middle" x="2253.12" y="-12.57" font-family="Helvetica,sans-Serif" font-size="14.00">(...)</text>
</g>
<!-- 645&#45;&gt;675 -->
<g id="edge55" class="edge">
<title>645&#45;&gt;675</title>
<path fill="none" stroke="black" d="M2245.9,-71.67C2247,-63.66 2248.16,-55.24 2249.21,-47.53"/>
<polygon fill="black" stroke="black" points="2252.67,-48.07 2250.56,-37.68 2245.74,-47.11 2252.67,-48.07"/>
</g>
<!-- 703 -->
<g id="node58" class="node">
<title>703</title>
<path fill="#f2c19e" stroke="black" d="M2472.25,-143C2472.25,-143 2346,-143 2346,-143 2340,-143 2334,-137 2334,-131 2334,-131 2334,-84 2334,-84 2334,-78 2340,-72 2346,-72 2346,-72 2472.25,-72 2472.25,-72 2478.25,-72 2484.25,-78 2484.25,-84 2484.25,-84 2484.25,-131 2484.25,-131 2484.25,-137 2478.25,-143 2472.25,-143"/>
<text text-anchor="start" x="2365.62" y="-125.7" font-family="Helvetica,sans-Serif" font-size="14.00">P11_3_9 ≤ 0.5</text>
<text text-anchor="start" x="2342" y="-109.95" font-family="Helvetica,sans-Serif" font-size="14.00">squared_error = 2.388</text>
<text text-anchor="start" x="2364.5" y="-94.2" font-family="Helvetica,sans-Serif" font-size="14.00">samples = 180</text>
<text text-anchor="start" x="2364.88" y="-78.45" font-family="Helvetica,sans-Serif" font-size="14.00">value = 11.704</text>
</g>
<!-- 702&#45;&gt;703 -->
<g id="edge57" class="edge">
<title>702&#45;&gt;703</title>
<path fill="none" stroke="black" d="M2409.12,-178.54C2409.12,-170.92 2409.12,-162.75 2409.12,-154.77"/>
<polygon fill="black" stroke="black" points="2412.63,-154.82 2409.13,-144.82 2405.63,-154.82 2412.63,-154.82"/>
</g>
<!-- 728 -->
<g id="node61" class="node">
<title>728</title>
<path fill="#f6d2b8" stroke="black" d="M2640.25,-143C2640.25,-143 2514,-143 2514,-143 2508,-143 2502,-137 2502,-131 2502,-131 2502,-84 2502,-84 2502,-78 2508,-72 2514,-72 2514,-72 2640.25,-72 2640.25,-72 2646.25,-72 2652.25,-78 2652.25,-84 2652.25,-84 2652.25,-131 2652.25,-131 2652.25,-137 2646.25,-143 2640.25,-143"/>
<text text-anchor="start" x="2537" y="-125.7" font-family="Helvetica,sans-Serif" font-size="14.00">P4_6_2 ≤ 1.5</text>
<text text-anchor="start" x="2510" y="-109.95" font-family="Helvetica,sans-Serif" font-size="14.00">squared_error = 2.807</text>
<text text-anchor="start" x="2532.5" y="-94.2" font-family="Helvetica,sans-Serif" font-size="14.00">samples = 156</text>
<text text-anchor="start" x="2536.25" y="-78.45" font-family="Helvetica,sans-Serif" font-size="14.00">value = 9.771</text>
</g>
<!-- 702&#45;&gt;728 -->
<g id="edge60" class="edge">
<title>702&#45;&gt;728</title>
<path fill="none" stroke="black" d="M2465.07,-178.54C2480.01,-169.2 2496.28,-159.03 2511.69,-149.4"/>
<polygon fill="black" stroke="black" points="2513.23,-152.56 2519.86,-144.29 2509.52,-146.62 2513.23,-152.56"/>
</g>
<!-- 704 -->
<g id="node59" class="node">
<title>704</title>
<path fill="#c0c0c0" stroke="black" d="M2382.12,-36C2382.12,-36 2352.12,-36 2352.12,-36 2346.12,-36 2340.12,-30 2340.12,-24 2340.12,-24 2340.12,-12 2340.12,-12 2340.12,-6 2346.12,0 2352.12,0 2352.12,0 2382.12,0 2382.12,0 2388.12,0 2394.12,-6 2394.12,-12 2394.12,-12 2394.12,-24 2394.12,-24 2394.12,-30 2388.12,-36 2382.12,-36"/>
<text text-anchor="middle" x="2367.12" y="-12.57" font-family="Helvetica,sans-Serif" font-size="14.00">(...)</text>
</g>
<!-- 703&#45;&gt;704 -->
<g id="edge58" class="edge">
<title>703&#45;&gt;704</title>
<path fill="none" stroke="black" d="M2392.4,-71.67C2388.38,-63.28 2384.13,-54.43 2380.3,-46.44"/>
<polygon fill="black" stroke="black" points="2383.51,-45.05 2376.03,-37.55 2377.2,-48.08 2383.51,-45.05"/>
</g>
<!-- 715 -->
<g id="node60" class="node">
<title>715</title>
<path fill="#c0c0c0" stroke="black" d="M2454.12,-36C2454.12,-36 2424.12,-36 2424.12,-36 2418.12,-36 2412.12,-30 2412.12,-24 2412.12,-24 2412.12,-12 2412.12,-12 2412.12,-6 2418.12,0 2424.12,0 2424.12,0 2454.12,0 2454.12,0 2460.12,0 2466.12,-6 2466.12,-12 2466.12,-12 2466.12,-24 2466.12,-24 2466.12,-30 2460.12,-36 2454.12,-36"/>
<text text-anchor="middle" x="2439.12" y="-12.57" font-family="Helvetica,sans-Serif" font-size="14.00">(...)</text>
</g>
<!-- 703&#45;&gt;715 -->
<g id="edge59" class="edge">
<title>703&#45;&gt;715</title>
<path fill="none" stroke="black" d="M2421.07,-71.67C2423.88,-63.47 2426.84,-54.84 2429.53,-46.98"/>
<polygon fill="black" stroke="black" points="2432.81,-48.21 2432.74,-37.61 2426.19,-45.94 2432.81,-48.21"/>
</g>
<!-- 729 -->
<g id="node62" class="node">
<title>729</title>
<path fill="#c0c0c0" stroke="black" d="M2556.12,-36C2556.12,-36 2526.12,-36 2526.12,-36 2520.12,-36 2514.12,-30 2514.12,-24 2514.12,-24 2514.12,-12 2514.12,-12 2514.12,-6 2520.12,0 2526.12,0 2526.12,0 2556.12,0 2556.12,0 2562.12,0 2568.12,-6 2568.12,-12 2568.12,-12 2568.12,-24 2568.12,-24 2568.12,-30 2562.12,-36 2556.12,-36"/>
<text text-anchor="middle" x="2541.12" y="-12.57" font-family="Helvetica,sans-Serif" font-size="14.00">(...)</text>
</g>
<!-- 728&#45;&gt;729 -->
<g id="edge61" class="edge">
<title>728&#45;&gt;729</title>
<path fill="none" stroke="black" d="M2562.79,-71.67C2559.38,-63.37 2555.79,-54.63 2552.53,-46.71"/>
<polygon fill="black" stroke="black" points="2555.81,-45.5 2548.77,-37.58 2549.34,-48.16 2555.81,-45.5"/>
</g>
<!-- 740 -->
<g id="node63" class="node">
<title>740</title>
<path fill="#c0c0c0" stroke="black" d="M2628.12,-36C2628.12,-36 2598.12,-36 2598.12,-36 2592.12,-36 2586.12,-30 2586.12,-24 2586.12,-24 2586.12,-12 2586.12,-12 2586.12,-6 2592.12,0 2598.12,0 2598.12,0 2628.12,0 2628.12,0 2634.12,0 2640.12,-6 2640.12,-12 2640.12,-12 2640.12,-24 2640.12,-24 2640.12,-30 2634.12,-36 2628.12,-36"/>
<text text-anchor="middle" x="2613.12" y="-12.57" font-family="Helvetica,sans-Serif" font-size="14.00">(...)</text>
</g>
<!-- 728&#45;&gt;740 -->
<g id="edge62" class="edge">
<title>728&#45;&gt;740</title>
<path fill="none" stroke="black" d="M2591.46,-71.67C2594.87,-63.37 2598.46,-54.63 2601.72,-46.71"/>
<polygon fill="black" stroke="black" points="2604.91,-48.16 2605.48,-37.58 2598.44,-45.5 2604.91,-48.16"/>
</g>
</g>
</svg>
