<?xml version="1.0" encoding="UTF-8" standalone="no"?>
<!DOCTYPE svg PUBLIC "-//W3C//DTD SVG 1.1//EN"
 "http://www.w3.org/Graphics/SVG/1.1/DTD/svg11.dtd">
<!-- Generated by graphviz version 12.2.1 (20241206.2353)
 -->
<!-- Title: Tree Pages: 1 -->
<svg width="2672pt" height="579pt"
 viewBox="0.00 0.00 2672.25 579.00" xmlns="http://www.w3.org/2000/svg" xmlns:xlink="http://www.w3.org/1999/xlink">
<g id="graph0" class="graph" transform="scale(1 1) rotate(0) translate(4 575)">
<title>Tree</title>
<polygon fill="white" stroke="none" points="-4,4 -4,-575 2668.25,-575 2668.25,4 -4,4"/>
<!-- 0 -->
<g id="node1" class="node">
<title>0</title>
<path fill="#f1bb95" stroke="black" d="M1479.25,-571C1479.25,-571 1353,-571 1353,-571 1347,-571 1341,-565 1341,-559 1341,-559 1341,-512 1341,-512 1341,-506 1347,-500 1353,-500 1353,-500 1479.25,-500 1479.25,-500 1485.25,-500 1491.25,-506 1491.25,-512 1491.25,-512 1491.25,-559 1491.25,-559 1491.25,-565 1485.25,-571 1479.25,-571"/>
<text text-anchor="start" x="1376" y="-553.7" font-family="Helvetica,sans-Serif" font-size="14.00">P4_6_3 ≤ 2.5</text>
<text text-anchor="start" x="1349" y="-537.95" font-family="Helvetica,sans-Serif" font-size="14.00">squared_error = 8.488</text>
<text text-anchor="start" x="1367.75" y="-522.2" font-family="Helvetica,sans-Serif" font-size="14.00">samples = 5159</text>
<text text-anchor="start" x="1371.5" y="-506.45" font-family="Helvetica,sans-Serif" font-size="14.00">value = 12.025</text>
</g>
<!-- 1 -->
<g id="node2" class="node">
<title>1</title>
<path fill="#f3c3a1" stroke="black" d="M1062.25,-464C1062.25,-464 936,-464 936,-464 930,-464 924,-458 924,-452 924,-452 924,-405 924,-405 924,-399 930,-393 936,-393 936,-393 1062.25,-393 1062.25,-393 1068.25,-393 1074.25,-399 1074.25,-405 1074.25,-405 1074.25,-452 1074.25,-452 1074.25,-458 1068.25,-464 1062.25,-464"/>
<text text-anchor="start" x="959" y="-446.7" font-family="Helvetica,sans-Serif" font-size="14.00">P4_6_3 ≤ 1.5</text>
<text text-anchor="start" x="932" y="-430.95" font-family="Helvetica,sans-Serif" font-size="14.00">squared_error = 6.916</text>
<text text-anchor="start" x="950.75" y="-415.2" font-family="Helvetica,sans-Serif" font-size="14.00">samples = 3398</text>
<text text-anchor="start" x="954.88" y="-399.45" font-family="Helvetica,sans-Serif" font-size="14.00">value = 11.033</text>
</g>
<!-- 0&#45;&gt;1 -->
<g id="edge1" class="edge">
<title>0&#45;&gt;1</title>
<path fill="none" stroke="black" d="M1340.61,-515.49C1268.69,-497.38 1160.54,-470.14 1085.29,-451.2"/>
<polygon fill="black" stroke="black" points="1086.45,-447.88 1075.9,-448.83 1084.74,-454.67 1086.45,-447.88"/>
<text text-anchor="middle" x="1087.26" y="-464.5" font-family="Helvetica,sans-Serif" font-size="14.00">True</text>
</g>
<!-- 476 -->
<g id="node33" class="node">
<title>476</title>
<path fill="#eeac7c" stroke="black" d="M1728.25,-464C1728.25,-464 1602,-464 1602,-464 1596,-464 1590,-458 1590,-452 1590,-452 1590,-405 1590,-405 1590,-399 1596,-393 1602,-393 1602,-393 1728.25,-393 1728.25,-393 1734.25,-393 1740.25,-399 1740.25,-405 1740.25,-405 1740.25,-452 1740.25,-452 1740.25,-458 1734.25,-464 1728.25,-464"/>
<text text-anchor="start" x="1625" y="-446.7" font-family="Helvetica,sans-Serif" font-size="14.00">P4_6_4 ≤ 1.5</text>
<text text-anchor="start" x="1598" y="-430.95" font-family="Helvetica,sans-Serif" font-size="14.00">squared_error = 5.951</text>
<text text-anchor="start" x="1616.75" y="-415.2" font-family="Helvetica,sans-Serif" font-size="14.00">samples = 1761</text>
<text text-anchor="start" x="1620.5" y="-399.45" font-family="Helvetica,sans-Serif" font-size="14.00">value = 13.941</text>
</g>
<!-- 0&#45;&gt;476 -->
<g id="edge32" class="edge">
<title>0&#45;&gt;476</title>
<path fill="none" stroke="black" d="M1491.51,-502.71C1519.17,-491.05 1550.69,-477.76 1579.21,-465.73"/>
<polygon fill="black" stroke="black" points="1580.32,-469.06 1588.17,-461.95 1577.6,-462.61 1580.32,-469.06"/>
<text text-anchor="middle" x="1580.15" y="-479.09" font-family="Helvetica,sans-Serif" font-size="14.00">False</text>
</g>
<!-- 2 -->
<g id="node3" class="node">
<title>2</title>
<path fill="#f6d3b9" stroke="black" d="M554.5,-357C554.5,-357 435.75,-357 435.75,-357 429.75,-357 423.75,-351 423.75,-345 423.75,-345 423.75,-298 423.75,-298 423.75,-292 429.75,-286 435.75,-286 435.75,-286 554.5,-286 554.5,-286 560.5,-286 566.5,-292 566.5,-298 566.5,-298 566.5,-345 566.5,-345 566.5,-351 560.5,-357 554.5,-357"/>
<text text-anchor="start" x="455" y="-339.7" font-family="Helvetica,sans-Serif" font-size="14.00">P4_6_4 ≤ 1.5</text>
<text text-anchor="start" x="431.75" y="-323.95" font-family="Helvetica,sans-Serif" font-size="14.00">squared_error = 5.54</text>
<text text-anchor="start" x="450.5" y="-308.2" font-family="Helvetica,sans-Serif" font-size="14.00">samples = 959</text>
<text text-anchor="start" x="454.25" y="-292.45" font-family="Helvetica,sans-Serif" font-size="14.00">value = 9.168</text>
</g>
<!-- 1&#45;&gt;2 -->
<g id="edge2" class="edge">
<title>1&#45;&gt;2</title>
<path fill="none" stroke="black" d="M923.67,-411.78C830.82,-392.44 673.72,-359.71 577.71,-339.71"/>
<polygon fill="black" stroke="black" points="578.59,-336.31 568.09,-337.7 577.16,-343.17 578.59,-336.31"/>
</g>
<!-- 189 -->
<g id="node18" class="node">
<title>189</title>
<path fill="#f1bd98" stroke="black" d="M1062.25,-357C1062.25,-357 936,-357 936,-357 930,-357 924,-351 924,-345 924,-345 924,-298 924,-298 924,-292 930,-286 936,-286 936,-286 1062.25,-286 1062.25,-286 1068.25,-286 1074.25,-292 1074.25,-298 1074.25,-298 1074.25,-345 1074.25,-345 1074.25,-351 1068.25,-357 1062.25,-357"/>
<text text-anchor="start" x="959" y="-339.7" font-family="Helvetica,sans-Serif" font-size="14.00">P4_6_4 ≤ 1.5</text>
<text text-anchor="start" x="932" y="-323.95" font-family="Helvetica,sans-Serif" font-size="14.00">squared_error = 5.551</text>
<text text-anchor="start" x="950.75" y="-308.2" font-family="Helvetica,sans-Serif" font-size="14.00">samples = 2439</text>
<text text-anchor="start" x="954.88" y="-292.45" font-family="Helvetica,sans-Serif" font-size="14.00">value = 11.766</text>
</g>
<!-- 1&#45;&gt;189 -->
<g id="edge17" class="edge">
<title>1&#45;&gt;189</title>
<path fill="none" stroke="black" d="M999.12,-392.54C999.12,-384.92 999.12,-376.75 999.12,-368.77"/>
<polygon fill="black" stroke="black" points="1002.63,-368.82 999.13,-358.82 995.63,-368.82 1002.63,-368.82"/>
</g>
<!-- 3 -->
<g id="node4" class="node">
<title>3</title>
<path fill="#f4c8a8" stroke="black" d="M306.25,-250C306.25,-250 180,-250 180,-250 174,-250 168,-244 168,-238 168,-238 168,-191 168,-191 168,-185 174,-179 180,-179 180,-179 306.25,-179 306.25,-179 312.25,-179 318.25,-185 318.25,-191 318.25,-191 318.25,-238 318.25,-238 318.25,-244 312.25,-250 306.25,-250"/>
<text text-anchor="start" x="199.62" y="-232.7" font-family="Helvetica,sans-Serif" font-size="14.00">P11_3_9 ≤ 0.5</text>
<text text-anchor="start" x="176" y="-216.95" font-family="Helvetica,sans-Serif" font-size="14.00">squared_error = 4.048</text>
<text text-anchor="start" x="198.5" y="-201.2" font-family="Helvetica,sans-Serif" font-size="14.00">samples = 410</text>
<text text-anchor="start" x="198.5" y="-185.45" font-family="Helvetica,sans-Serif" font-size="14.00">value = 10.507</text>
</g>
<!-- 2&#45;&gt;3 -->
<g id="edge3" class="edge">
<title>2&#45;&gt;3</title>
<path fill="none" stroke="black" d="M423.59,-290.69C394.04,-278.38 359.55,-264.01 328.68,-251.15"/>
<polygon fill="black" stroke="black" points="330.33,-248.05 319.76,-247.43 327.64,-254.51 330.33,-248.05"/>
</g>
<!-- 84 -->
<g id="node11" class="node">
<title>84</title>
<path fill="#f8dbc6" stroke="black" d="M558.25,-250C558.25,-250 432,-250 432,-250 426,-250 420,-244 420,-238 420,-238 420,-191 420,-191 420,-185 426,-179 432,-179 432,-179 558.25,-179 558.25,-179 564.25,-179 570.25,-185 570.25,-191 570.25,-191 570.25,-238 570.25,-238 570.25,-244 564.25,-250 558.25,-250"/>
<text text-anchor="start" x="451.62" y="-232.7" font-family="Helvetica,sans-Serif" font-size="14.00">P11_3_9 ≤ 0.5</text>
<text text-anchor="start" x="428" y="-216.95" font-family="Helvetica,sans-Serif" font-size="14.00">squared_error = 4.316</text>
<text text-anchor="start" x="450.5" y="-201.2" font-family="Helvetica,sans-Serif" font-size="14.00">samples = 549</text>
<text text-anchor="start" x="454.25" y="-185.45" font-family="Helvetica,sans-Serif" font-size="14.00">value = 8.168</text>
</g>
<!-- 2&#45;&gt;84 -->
<g id="edge10" class="edge">
<title>2&#45;&gt;84</title>
<path fill="none" stroke="black" d="M495.12,-285.54C495.12,-277.92 495.12,-269.75 495.12,-261.77"/>
<polygon fill="black" stroke="black" points="498.63,-261.82 495.13,-251.82 491.63,-261.82 498.63,-261.82"/>
</g>
<!-- 4 -->
<g id="node5" class="node">
<title>4</title>
<path fill="#f2c09c" stroke="black" d="M138.25,-143C138.25,-143 12,-143 12,-143 6,-143 0,-137 0,-131 0,-131 0,-84 0,-84 0,-78 6,-72 12,-72 12,-72 138.25,-72 138.25,-72 144.25,-72 150.25,-78 150.25,-84 150.25,-84 150.25,-131 150.25,-131 150.25,-137 144.25,-143 138.25,-143"/>
<text text-anchor="start" x="35" y="-125.7" font-family="Helvetica,sans-Serif" font-size="14.00">P4_6_2 ≤ 1.5</text>
<text text-anchor="start" x="8" y="-109.95" font-family="Helvetica,sans-Serif" font-size="14.00">squared_error = 3.476</text>
<text text-anchor="start" x="30.5" y="-94.2" font-family="Helvetica,sans-Serif" font-size="14.00">samples = 209</text>
<text text-anchor="start" x="30.88" y="-78.45" font-family="Helvetica,sans-Serif" font-size="14.00">value = 11.437</text>
</g>
<!-- 3&#45;&gt;4 -->
<g id="edge4" class="edge">
<title>3&#45;&gt;4</title>
<path fill="none" stroke="black" d="M187.18,-178.54C172.24,-169.2 155.97,-159.03 140.56,-149.4"/>
<polygon fill="black" stroke="black" points="142.73,-146.62 132.39,-144.29 139.02,-152.56 142.73,-146.62"/>
</g>
<!-- 47 -->
<g id="node8" class="node">
<title>47</title>
<path fill="#f5d0b5" stroke="black" d="M306.25,-143C306.25,-143 180,-143 180,-143 174,-143 168,-137 168,-131 168,-131 168,-84 168,-84 168,-78 174,-72 180,-72 180,-72 306.25,-72 306.25,-72 312.25,-72 318.25,-78 318.25,-84 318.25,-84 318.25,-131 318.25,-131 318.25,-137 312.25,-143 306.25,-143"/>
<text text-anchor="start" x="203" y="-125.7" font-family="Helvetica,sans-Serif" font-size="14.00">P4_7_3 ≤ 0.5</text>
<text text-anchor="start" x="176" y="-109.95" font-family="Helvetica,sans-Serif" font-size="14.00">squared_error = 2.807</text>
<text text-anchor="start" x="198.5" y="-94.2" font-family="Helvetica,sans-Serif" font-size="14.00">samples = 201</text>
<text text-anchor="start" x="202.25" y="-78.45" font-family="Helvetica,sans-Serif" font-size="14.00">value = 9.539</text>
</g>
<!-- 3&#45;&gt;47 -->
<g id="edge7" class="edge">
<title>3&#45;&gt;47</title>
<path fill="none" stroke="black" d="M243.12,-178.54C243.12,-170.92 243.12,-162.75 243.12,-154.77"/>
<polygon fill="black" stroke="black" points="246.63,-154.82 243.13,-144.82 239.63,-154.82 246.63,-154.82"/>
</g>
<!-- 5 -->
<g id="node6" class="node">
<title>5</title>
<path fill="#c0c0c0" stroke="black" d="M54.12,-36C54.12,-36 24.12,-36 24.12,-36 18.12,-36 12.12,-30 12.12,-24 12.12,-24 12.12,-12 12.12,-12 12.12,-6 18.12,0 24.12,0 24.12,0 54.12,0 54.12,0 60.12,0 66.12,-6 66.12,-12 66.12,-12 66.12,-24 66.12,-24 66.12,-30 60.12,-36 54.12,-36"/>
<text text-anchor="middle" x="39.12" y="-12.57" font-family="Helvetica,sans-Serif" font-size="14.00">(...)</text>
</g>
<!-- 4&#45;&gt;5 -->
<g id="edge5" class="edge">
<title>4&#45;&gt;5</title>
<path fill="none" stroke="black" d="M60.79,-71.67C57.38,-63.37 53.79,-54.63 50.53,-46.71"/>
<polygon fill="black" stroke="black" points="53.81,-45.5 46.77,-37.58 47.34,-48.16 53.81,-45.5"/>
</g>
<!-- 38 -->
<g id="node7" class="node">
<title>38</title>
<path fill="#c0c0c0" stroke="black" d="M126.12,-36C126.12,-36 96.12,-36 96.12,-36 90.12,-36 84.12,-30 84.12,-24 84.12,-24 84.12,-12 84.12,-12 84.12,-6 90.12,0 96.12,0 96.12,0 126.12,0 126.12,0 132.12,0 138.12,-6 138.12,-12 138.12,-12 138.12,-24 138.12,-24 138.12,-30 132.12,-36 126.12,-36"/>
<text text-anchor="middle" x="111.12" y="-12.57" font-family="Helvetica,sans-Serif" font-size="14.00">(...)</text>
</g>
<!-- 4&#45;&gt;38 -->
<g id="edge6" class="edge">
<title>4&#45;&gt;38</title>
<path fill="none" stroke="black" d="M89.46,-71.67C92.87,-63.37 96.46,-54.63 99.72,-46.71"/>
<polygon fill="black" stroke="black" points="102.91,-48.16 103.48,-37.58 96.44,-45.5 102.91,-48.16"/>
</g>
<!-- 48 -->
<g id="node9" class="node">
<title>48</title>
<path fill="#c0c0c0" stroke="black" d="M228.12,-36C228.12,-36 198.12,-36 198.12,-36 192.12,-36 186.12,-30 186.12,-24 186.12,-24 186.12,-12 186.12,-12 186.12,-6 192.12,0 198.12,0 198.12,0 228.12,0 228.12,0 234.12,0 240.12,-6 240.12,-12 240.12,-12 240.12,-24 240.12,-24 240.12,-30 234.12,-36 228.12,-36"/>
<text text-anchor="middle" x="213.12" y="-12.57" font-family="Helvetica,sans-Serif" font-size="14.00">(...)</text>
</g>
<!-- 47&#45;&gt;48 -->
<g id="edge8" class="edge">
<title>47&#45;&gt;48</title>
<path fill="none" stroke="black" d="M231.18,-71.67C228.37,-63.47 225.41,-54.84 222.72,-46.98"/>
<polygon fill="black" stroke="black" points="226.06,-45.94 219.51,-37.61 219.44,-48.21 226.06,-45.94"/>
</g>
<!-- 69 -->
<g id="node10" class="node">
<title>69</title>
<path fill="#c0c0c0" stroke="black" d="M300.12,-36C300.12,-36 270.12,-36 270.12,-36 264.12,-36 258.12,-30 258.12,-24 258.12,-24 258.12,-12 258.12,-12 258.12,-6 264.12,0 270.12,0 270.12,0 300.12,0 300.12,0 306.12,0 312.12,-6 312.12,-12 312.12,-12 312.12,-24 312.12,-24 312.12,-30 306.12,-36 300.12,-36"/>
<text text-anchor="middle" x="285.12" y="-12.57" font-family="Helvetica,sans-Serif" font-size="14.00">(...)</text>
</g>
<!-- 47&#45;&gt;69 -->
<g id="edge9" class="edge">
<title>47&#45;&gt;69</title>
<path fill="none" stroke="black" d="M259.85,-71.67C263.87,-63.28 268.12,-54.43 271.95,-46.44"/>
<polygon fill="black" stroke="black" points="275.05,-48.08 276.22,-37.55 268.74,-45.05 275.05,-48.08"/>
</g>
<!-- 85 -->
<g id="node12" class="node">
<title>85</title>
<path fill="#f6d3b9" stroke="black" d="M474.25,-143C474.25,-143 348,-143 348,-143 342,-143 336,-137 336,-131 336,-131 336,-84 336,-84 336,-78 342,-72 348,-72 348,-72 474.25,-72 474.25,-72 480.25,-72 486.25,-78 486.25,-84 486.25,-84 486.25,-131 486.25,-131 486.25,-137 480.25,-143 474.25,-143"/>
<text text-anchor="start" x="371" y="-125.7" font-family="Helvetica,sans-Serif" font-size="14.00">P4_6_2 ≤ 1.5</text>
<text text-anchor="start" x="344" y="-109.95" font-family="Helvetica,sans-Serif" font-size="14.00">squared_error = 3.648</text>
<text text-anchor="start" x="366.5" y="-94.2" font-family="Helvetica,sans-Serif" font-size="14.00">samples = 243</text>
<text text-anchor="start" x="370.25" y="-78.45" font-family="Helvetica,sans-Serif" font-size="14.00">value = 9.174</text>
</g>
<!-- 84&#45;&gt;85 -->
<g id="edge11" class="edge">
<title>84&#45;&gt;85</title>
<path fill="none" stroke="black" d="M467.15,-178.54C460.42,-170.12 453.15,-161.03 446.14,-152.27"/>
<polygon fill="black" stroke="black" points="448.9,-150.11 439.92,-144.49 443.43,-154.49 448.9,-150.11"/>
</g>
<!-- 128 -->
<g id="node15" class="node">
<title>128</title>
<path fill="#f9e2d1" stroke="black" d="M642.25,-143C642.25,-143 516,-143 516,-143 510,-143 504,-137 504,-131 504,-131 504,-84 504,-84 504,-78 510,-72 516,-72 516,-72 642.25,-72 642.25,-72 648.25,-72 654.25,-78 654.25,-84 654.25,-84 654.25,-131 654.25,-131 654.25,-137 648.25,-143 642.25,-143"/>
<text text-anchor="start" x="539" y="-125.7" font-family="Helvetica,sans-Serif" font-size="14.00">P4_7_2 ≤ 0.5</text>
<text text-anchor="start" x="512" y="-109.95" font-family="Helvetica,sans-Serif" font-size="14.00">squared_error = 3.403</text>
<text text-anchor="start" x="534.5" y="-94.2" font-family="Helvetica,sans-Serif" font-size="14.00">samples = 306</text>
<text text-anchor="start" x="538.25" y="-78.45" font-family="Helvetica,sans-Serif" font-size="14.00">value = 7.368</text>
</g>
<!-- 84&#45;&gt;128 -->
<g id="edge14" class="edge">
<title>84&#45;&gt;128</title>
<path fill="none" stroke="black" d="M523.1,-178.54C529.83,-170.12 537.1,-161.03 544.11,-152.27"/>
<polygon fill="black" stroke="black" points="546.82,-154.49 550.33,-144.49 541.35,-150.11 546.82,-154.49"/>
</g>
<!-- 86 -->
<g id="node13" class="node">
<title>86</title>
<path fill="#c0c0c0" stroke="black" d="M398.12,-36C398.12,-36 368.12,-36 368.12,-36 362.12,-36 356.12,-30 356.12,-24 356.12,-24 356.12,-12 356.12,-12 356.12,-6 362.12,0 368.12,0 368.12,0 398.12,0 398.12,0 404.12,0 410.12,-6 410.12,-12 410.12,-12 410.12,-24 410.12,-24 410.12,-30 404.12,-36 398.12,-36"/>
<text text-anchor="middle" x="383.12" y="-12.57" font-family="Helvetica,sans-Serif" font-size="14.00">(...)</text>
</g>
<!-- 85&#45;&gt;86 -->
<g id="edge12" class="edge">
<title>85&#45;&gt;86</title>
<path fill="none" stroke="black" d="M399.98,-71.67C397.36,-63.47 394.59,-54.84 392.08,-46.98"/>
<polygon fill="black" stroke="black" points="395.47,-46.08 389.08,-37.62 388.8,-48.22 395.47,-46.08"/>
</g>
<!-- 115 -->
<g id="node14" class="node">
<title>115</title>
<path fill="#c0c0c0" stroke="black" d="M470.12,-36C470.12,-36 440.12,-36 440.12,-36 434.12,-36 428.12,-30 428.12,-24 428.12,-24 428.12,-12 428.12,-12 428.12,-6 434.12,0 440.12,0 440.12,0 470.12,0 470.12,0 476.12,0 482.12,-6 482.12,-12 482.12,-12 482.12,-24 482.12,-24 482.12,-30 476.12,-36 470.12,-36"/>
<text text-anchor="middle" x="455.12" y="-12.57" font-family="Helvetica,sans-Serif" font-size="14.00">(...)</text>
</g>
<!-- 85&#45;&gt;115 -->
<g id="edge13" class="edge">
<title>85&#45;&gt;115</title>
<path fill="none" stroke="black" d="M428.64,-71.67C432.86,-63.28 437.31,-54.43 441.33,-46.44"/>
<polygon fill="black" stroke="black" points="444.44,-48.04 445.8,-37.53 438.19,-44.9 444.44,-48.04"/>
</g>
<!-- 129 -->
<g id="node16" class="node">
<title>129</title>
<path fill="#c0c0c0" stroke="black" d="M557.12,-36C557.12,-36 527.12,-36 527.12,-36 521.12,-36 515.12,-30 515.12,-24 515.12,-24 515.12,-12 515.12,-12 515.12,-6 521.12,0 527.12,0 527.12,0 557.12,0 557.12,0 563.12,0 569.12,-6 569.12,-12 569.12,-12 569.12,-24 569.12,-24 569.12,-30 563.12,-36 557.12,-36"/>
<text text-anchor="middle" x="542.12" y="-12.57" font-family="Helvetica,sans-Serif" font-size="14.00">(...)</text>
</g>
<!-- 128&#45;&gt;129 -->
<g id="edge15" class="edge">
<title>128&#45;&gt;129</title>
<path fill="none" stroke="black" d="M564.4,-71.67C560.89,-63.37 557.19,-54.63 553.84,-46.71"/>
<polygon fill="black" stroke="black" points="557.1,-45.42 549.98,-37.58 550.65,-48.15 557.1,-45.42"/>
</g>
<!-- 172 -->
<g id="node17" class="node">
<title>172</title>
<path fill="#c0c0c0" stroke="black" d="M629.12,-36C629.12,-36 599.12,-36 599.12,-36 593.12,-36 587.12,-30 587.12,-24 587.12,-24 587.12,-12 587.12,-12 587.12,-6 593.12,0 599.12,0 599.12,0 629.12,0 629.12,0 635.12,0 641.12,-6 641.12,-12 641.12,-12 641.12,-24 641.12,-24 641.12,-30 635.12,-36 629.12,-36"/>
<text text-anchor="middle" x="614.12" y="-12.57" font-family="Helvetica,sans-Serif" font-size="14.00">(...)</text>
</g>
<!-- 128&#45;&gt;172 -->
<g id="edge16" class="edge">
<title>128&#45;&gt;172</title>
<path fill="none" stroke="black" d="M593.06,-71.67C596.38,-63.37 599.87,-54.63 603.04,-46.71"/>
<polygon fill="black" stroke="black" points="606.23,-48.17 606.69,-37.59 599.73,-45.57 606.23,-48.17"/>
</g>
<!-- 190 -->
<g id="node19" class="node">
<title>190</title>
<path fill="#efb286" stroke="black" d="M978.25,-250C978.25,-250 852,-250 852,-250 846,-250 840,-244 840,-238 840,-238 840,-191 840,-191 840,-185 846,-179 852,-179 852,-179 978.25,-179 978.25,-179 984.25,-179 990.25,-185 990.25,-191 990.25,-191 990.25,-238 990.25,-238 990.25,-244 984.25,-250 978.25,-250"/>
<text text-anchor="start" x="875" y="-232.7" font-family="Helvetica,sans-Serif" font-size="14.00">P7_1_2 ≤ 2.5</text>
<text text-anchor="start" x="848" y="-216.95" font-family="Helvetica,sans-Serif" font-size="14.00">squared_error = 3.848</text>
<text text-anchor="start" x="870.5" y="-201.2" font-family="Helvetica,sans-Serif" font-size="14.00">samples = 944</text>
<text text-anchor="start" x="870.5" y="-185.45" font-family="Helvetica,sans-Serif" font-size="14.00">value = 13.178</text>
</g>
<!-- 189&#45;&gt;190 -->
<g id="edge18" class="edge">
<title>189&#45;&gt;190</title>
<path fill="none" stroke="black" d="M971.15,-285.54C964.42,-277.12 957.15,-268.03 950.14,-259.27"/>
<polygon fill="black" stroke="black" points="952.9,-257.11 943.92,-251.49 947.43,-261.49 952.9,-257.11"/>
</g>
<!-- 313 -->
<g id="node26" class="node">
<title>313</title>
<path fill="#f3c5a3" stroke="black" d="M1146.25,-250C1146.25,-250 1020,-250 1020,-250 1014,-250 1008,-244 1008,-238 1008,-238 1008,-191 1008,-191 1008,-185 1014,-179 1020,-179 1020,-179 1146.25,-179 1146.25,-179 1152.25,-179 1158.25,-185 1158.25,-191 1158.25,-191 1158.25,-238 1158.25,-238 1158.25,-244 1152.25,-250 1146.25,-250"/>
<text text-anchor="start" x="1043" y="-232.7" font-family="Helvetica,sans-Serif" font-size="14.00">P4_6_2 ≤ 1.5</text>
<text text-anchor="start" x="1016" y="-216.95" font-family="Helvetica,sans-Serif" font-size="14.00">squared_error = 4.572</text>
<text text-anchor="start" x="1034.75" y="-201.2" font-family="Helvetica,sans-Serif" font-size="14.00">samples = 1495</text>
<text text-anchor="start" x="1038.5" y="-185.45" font-family="Helvetica,sans-Serif" font-size="14.00">value = 10.874</text>
</g>
<!-- 189&#45;&gt;313 -->
<g id="edge25" class="edge">
<title>189&#45;&gt;313</title>
<path fill="none" stroke="black" d="M1027.1,-285.54C1033.83,-277.12 1041.1,-268.03 1048.11,-259.27"/>
<polygon fill="black" stroke="black" points="1050.82,-261.49 1054.33,-251.49 1045.35,-257.11 1050.82,-261.49"/>
</g>
<!-- 191 -->
<g id="node20" class="node">
<title>191</title>
<path fill="#eda674" stroke="black" d="M810.25,-143C810.25,-143 684,-143 684,-143 678,-143 672,-137 672,-131 672,-131 672,-84 672,-84 672,-78 678,-72 684,-72 684,-72 810.25,-72 810.25,-72 816.25,-72 822.25,-78 822.25,-84 822.25,-84 822.25,-131 822.25,-131 822.25,-137 816.25,-143 810.25,-143"/>
<text text-anchor="start" x="707" y="-125.7" font-family="Helvetica,sans-Serif" font-size="14.00">P4_6_1 ≤ 1.5</text>
<text text-anchor="start" x="680" y="-109.95" font-family="Helvetica,sans-Serif" font-size="14.00">squared_error = 3.003</text>
<text text-anchor="start" x="702.5" y="-94.2" font-family="Helvetica,sans-Serif" font-size="14.00">samples = 285</text>
<text text-anchor="start" x="706.25" y="-78.45" font-family="Helvetica,sans-Serif" font-size="14.00">value = 14.57</text>
</g>
<!-- 190&#45;&gt;191 -->
<g id="edge19" class="edge">
<title>190&#45;&gt;191</title>
<path fill="none" stroke="black" d="M859.18,-178.54C844.24,-169.2 827.97,-159.03 812.56,-149.4"/>
<polygon fill="black" stroke="black" points="814.73,-146.62 804.39,-144.29 811.02,-152.56 814.73,-146.62"/>
</g>
<!-- 234 -->
<g id="node23" class="node">
<title>234</title>
<path fill="#f0b78d" stroke="black" d="M978.25,-143C978.25,-143 852,-143 852,-143 846,-143 840,-137 840,-131 840,-131 840,-84 840,-84 840,-78 846,-72 852,-72 852,-72 978.25,-72 978.25,-72 984.25,-72 990.25,-78 990.25,-84 990.25,-84 990.25,-131 990.25,-131 990.25,-137 984.25,-143 978.25,-143"/>
<text text-anchor="start" x="875" y="-125.7" font-family="Helvetica,sans-Serif" font-size="14.00">P4_6_1 ≤ 1.5</text>
<text text-anchor="start" x="848" y="-109.95" font-family="Helvetica,sans-Serif" font-size="14.00">squared_error = 3.015</text>
<text text-anchor="start" x="870.5" y="-94.2" font-family="Helvetica,sans-Serif" font-size="14.00">samples = 659</text>
<text text-anchor="start" x="870.5" y="-78.45" font-family="Helvetica,sans-Serif" font-size="14.00">value = 12.577</text>
</g>
<!-- 190&#45;&gt;234 -->
<g id="edge22" class="edge">
<title>190&#45;&gt;234</title>
<path fill="none" stroke="black" d="M915.12,-178.54C915.12,-170.92 915.12,-162.75 915.12,-154.77"/>
<polygon fill="black" stroke="black" points="918.63,-154.82 915.13,-144.82 911.63,-154.82 918.63,-154.82"/>
</g>
<!-- 192 -->
<g id="node21" class="node">
<title>192</title>
<path fill="#c0c0c0" stroke="black" d="M708.12,-36C708.12,-36 678.12,-36 678.12,-36 672.12,-36 666.12,-30 666.12,-24 666.12,-24 666.12,-12 666.12,-12 666.12,-6 672.12,0 678.12,0 678.12,0 708.12,0 708.12,0 714.12,0 720.12,-6 720.12,-12 720.12,-12 720.12,-24 720.12,-24 720.12,-30 714.12,-36 708.12,-36"/>
<text text-anchor="middle" x="693.12" y="-12.57" font-family="Helvetica,sans-Serif" font-size="14.00">(...)</text>
</g>
<!-- 191&#45;&gt;192 -->
<g id="edge20" class="edge">
<title>191&#45;&gt;192</title>
<path fill="none" stroke="black" d="M725.63,-71.67C720.33,-63.09 714.74,-54.03 709.72,-45.89"/>
<polygon fill="black" stroke="black" points="712.75,-44.14 704.52,-37.47 706.8,-47.82 712.75,-44.14"/>
</g>
<!-- 223 -->
<g id="node22" class="node">
<title>223</title>
<path fill="#c0c0c0" stroke="black" d="M780.12,-36C780.12,-36 750.12,-36 750.12,-36 744.12,-36 738.12,-30 738.12,-24 738.12,-24 738.12,-12 738.12,-12 738.12,-6 744.12,0 750.12,0 750.12,0 780.12,0 780.12,0 786.12,0 792.12,-6 792.12,-12 792.12,-12 792.12,-24 792.12,-24 792.12,-30 786.12,-36 780.12,-36"/>
<text text-anchor="middle" x="765.12" y="-12.57" font-family="Helvetica,sans-Serif" font-size="14.00">(...)</text>
</g>
<!-- 191&#45;&gt;223 -->
<g id="edge21" class="edge">
<title>191&#45;&gt;223</title>
<path fill="none" stroke="black" d="M754.29,-71.67C755.96,-63.56 757.71,-55.04 759.31,-47.26"/>
<polygon fill="black" stroke="black" points="762.7,-48.17 761.29,-37.67 755.84,-46.75 762.7,-48.17"/>
</g>
<!-- 235 -->
<g id="node24" class="node">
<title>235</title>
<path fill="#c0c0c0" stroke="black" d="M880.12,-36C880.12,-36 850.12,-36 850.12,-36 844.12,-36 838.12,-30 838.12,-24 838.12,-24 838.12,-12 838.12,-12 838.12,-6 844.12,0 850.12,0 850.12,0 880.12,0 880.12,0 886.12,0 892.12,-6 892.12,-12 892.12,-12 892.12,-24 892.12,-24 892.12,-30 886.12,-36 880.12,-36"/>
<text text-anchor="middle" x="865.12" y="-12.57" font-family="Helvetica,sans-Serif" font-size="14.00">(...)</text>
</g>
<!-- 234&#45;&gt;235 -->
<g id="edge23" class="edge">
<title>234&#45;&gt;235</title>
<path fill="none" stroke="black" d="M895.22,-71.67C890.37,-63.18 885.26,-54.23 880.65,-46.17"/>
<polygon fill="black" stroke="black" points="883.69,-44.44 875.69,-37.5 877.62,-47.92 883.69,-44.44"/>
</g>
<!-- 284 -->
<g id="node25" class="node">
<title>284</title>
<path fill="#c0c0c0" stroke="black" d="M952.12,-36C952.12,-36 922.12,-36 922.12,-36 916.12,-36 910.12,-30 910.12,-24 910.12,-24 910.12,-12 910.12,-12 910.12,-6 916.12,0 922.12,0 922.12,0 952.12,0 952.12,0 958.12,0 964.12,-6 964.12,-12 964.12,-12 964.12,-24 964.12,-24 964.12,-30 958.12,-36 952.12,-36"/>
<text text-anchor="middle" x="937.12" y="-12.57" font-family="Helvetica,sans-Serif" font-size="14.00">(...)</text>
</g>
<!-- 234&#45;&gt;284 -->
<g id="edge24" class="edge">
<title>234&#45;&gt;284</title>
<path fill="none" stroke="black" d="M923.88,-71.67C925.92,-63.56 928.06,-55.04 930.02,-47.26"/>
<polygon fill="black" stroke="black" points="933.39,-48.2 932.44,-37.65 926.6,-46.5 933.39,-48.2"/>
</g>
<!-- 314 -->
<g id="node27" class="node">
<title>314</title>
<path fill="#f2c09c" stroke="black" d="M1146.25,-143C1146.25,-143 1020,-143 1020,-143 1014,-143 1008,-137 1008,-131 1008,-131 1008,-84 1008,-84 1008,-78 1014,-72 1020,-72 1020,-72 1146.25,-72 1146.25,-72 1152.25,-72 1158.25,-78 1158.25,-84 1158.25,-84 1158.25,-131 1158.25,-131 1158.25,-137 1152.25,-143 1146.25,-143"/>
<text text-anchor="start" x="1039.62" y="-125.7" font-family="Helvetica,sans-Serif" font-size="14.00">P11_3_9 ≤ 0.5</text>
<text text-anchor="start" x="1016" y="-109.95" font-family="Helvetica,sans-Serif" font-size="14.00">squared_error = 3.824</text>
<text text-anchor="start" x="1034.75" y="-94.2" font-family="Helvetica,sans-Serif" font-size="14.00">samples = 1096</text>
<text text-anchor="start" x="1038.88" y="-78.45" font-family="Helvetica,sans-Serif" font-size="14.00">value = 11.444</text>
</g>
<!-- 313&#45;&gt;314 -->
<g id="edge26" class="edge">
<title>313&#45;&gt;314</title>
<path fill="none" stroke="black" d="M1083.12,-178.54C1083.12,-170.92 1083.12,-162.75 1083.12,-154.77"/>
<polygon fill="black" stroke="black" points="1086.63,-154.82 1083.13,-144.82 1079.63,-154.82 1086.63,-154.82"/>
</g>
<!-- 413 -->
<g id="node30" class="node">
<title>413</title>
<path fill="#f6d2b8" stroke="black" d="M1314.25,-143C1314.25,-143 1188,-143 1188,-143 1182,-143 1176,-137 1176,-131 1176,-131 1176,-84 1176,-84 1176,-78 1182,-72 1188,-72 1188,-72 1314.25,-72 1314.25,-72 1320.25,-72 1326.25,-78 1326.25,-84 1326.25,-84 1326.25,-131 1326.25,-131 1326.25,-137 1320.25,-143 1314.25,-143"/>
<text text-anchor="start" x="1214.75" y="-125.7" font-family="Helvetica,sans-Serif" font-size="14.00">P12_1 ≤ 0.5</text>
<text text-anchor="start" x="1184" y="-109.95" font-family="Helvetica,sans-Serif" font-size="14.00">squared_error = 3.284</text>
<text text-anchor="start" x="1206.5" y="-94.2" font-family="Helvetica,sans-Serif" font-size="14.00">samples = 399</text>
<text text-anchor="start" x="1210.25" y="-78.45" font-family="Helvetica,sans-Serif" font-size="14.00">value = 9.309</text>
</g>
<!-- 313&#45;&gt;413 -->
<g id="edge29" class="edge">
<title>313&#45;&gt;413</title>
<path fill="none" stroke="black" d="M1139.07,-178.54C1154.01,-169.2 1170.28,-159.03 1185.69,-149.4"/>
<polygon fill="black" stroke="black" points="1187.23,-152.56 1193.86,-144.29 1183.52,-146.62 1187.23,-152.56"/>
</g>
<!-- 315 -->
<g id="node28" class="node">
<title>315</title>
<path fill="#c0c0c0" stroke="black" d="M1048.12,-36C1048.12,-36 1018.12,-36 1018.12,-36 1012.12,-36 1006.12,-30 1006.12,-24 1006.12,-24 1006.12,-12 1006.12,-12 1006.12,-6 1012.12,0 1018.12,0 1018.12,0 1048.12,0 1048.12,0 1054.12,0 1060.12,-6 1060.12,-12 1060.12,-12 1060.12,-24 1060.12,-24 1060.12,-30 1054.12,-36 1048.12,-36"/>
<text text-anchor="middle" x="1033.12" y="-12.57" font-family="Helvetica,sans-Serif" font-size="14.00">(...)</text>
</g>
<!-- 314&#45;&gt;315 -->
<g id="edge27" class="edge">
<title>314&#45;&gt;315</title>
<path fill="none" stroke="black" d="M1063.22,-71.67C1058.37,-63.18 1053.26,-54.23 1048.65,-46.17"/>
<polygon fill="black" stroke="black" points="1051.69,-44.44 1043.69,-37.5 1045.62,-47.92 1051.69,-44.44"/>
</g>
<!-- 364 -->
<g id="node29" class="node">
<title>364</title>
<path fill="#c0c0c0" stroke="black" d="M1120.12,-36C1120.12,-36 1090.12,-36 1090.12,-36 1084.12,-36 1078.12,-30 1078.12,-24 1078.12,-24 1078.12,-12 1078.12,-12 1078.12,-6 1084.12,0 1090.12,0 1090.12,0 1120.12,0 1120.12,0 1126.12,0 1132.12,-6 1132.12,-12 1132.12,-12 1132.12,-24 1132.12,-24 1132.12,-30 1126.12,-36 1120.12,-36"/>
<text text-anchor="middle" x="1105.12" y="-12.57" font-family="Helvetica,sans-Serif" font-size="14.00">(...)</text>
</g>
<!-- 314&#45;&gt;364 -->
<g id="edge28" class="edge">
<title>314&#45;&gt;364</title>
<path fill="none" stroke="black" d="M1091.88,-71.67C1093.92,-63.56 1096.06,-55.04 1098.02,-47.26"/>
<polygon fill="black" stroke="black" points="1101.39,-48.2 1100.44,-37.65 1094.6,-46.5 1101.39,-48.2"/>
</g>
<!-- 414 -->
<g id="node31" class="node">
<title>414</title>
<path fill="#c0c0c0" stroke="black" d="M1204.12,-36C1204.12,-36 1174.12,-36 1174.12,-36 1168.12,-36 1162.12,-30 1162.12,-24 1162.12,-24 1162.12,-12 1162.12,-12 1162.12,-6 1168.12,0 1174.12,0 1174.12,0 1204.12,0 1204.12,0 1210.12,0 1216.12,-6 1216.12,-12 1216.12,-12 1216.12,-24 1216.12,-24 1216.12,-30 1210.12,-36 1204.12,-36"/>
<text text-anchor="middle" x="1189.12" y="-12.57" font-family="Helvetica,sans-Serif" font-size="14.00">(...)</text>
</g>
<!-- 413&#45;&gt;414 -->
<g id="edge30" class="edge">
<title>413&#45;&gt;414</title>
<path fill="none" stroke="black" d="M1226.44,-71.67C1220.23,-62.9 1213.66,-53.63 1207.8,-45.35"/>
<polygon fill="black" stroke="black" points="1210.81,-43.55 1202.18,-37.42 1205.1,-47.6 1210.81,-43.55"/>
</g>
<!-- 467 -->
<g id="node32" class="node">
<title>467</title>
<path fill="#c0c0c0" stroke="black" d="M1276.12,-36C1276.12,-36 1246.12,-36 1246.12,-36 1240.12,-36 1234.12,-30 1234.12,-24 1234.12,-24 1234.12,-12 1234.12,-12 1234.12,-6 1240.12,0 1246.12,0 1246.12,0 1276.12,0 1276.12,0 1282.12,0 1288.12,-6 1288.12,-12 1288.12,-12 1288.12,-24 1288.12,-24 1288.12,-30 1282.12,-36 1276.12,-36"/>
<text text-anchor="middle" x="1261.12" y="-12.57" font-family="Helvetica,sans-Serif" font-size="14.00">(...)</text>
</g>
<!-- 413&#45;&gt;467 -->
<g id="edge31" class="edge">
<title>413&#45;&gt;467</title>
<path fill="none" stroke="black" d="M1255.11,-71.67C1256.02,-63.66 1256.98,-55.24 1257.86,-47.53"/>
<polygon fill="black" stroke="black" points="1261.33,-48.02 1258.99,-37.69 1254.38,-47.22 1261.33,-48.02"/>
</g>
<!-- 477 -->
<g id="node34" class="node">
<title>477</title>
<path fill="#eca16c" stroke="black" d="M1728.25,-357C1728.25,-357 1602,-357 1602,-357 1596,-357 1590,-351 1590,-345 1590,-345 1590,-298 1590,-298 1590,-292 1596,-286 1602,-286 1602,-286 1728.25,-286 1728.25,-286 1734.25,-286 1740.25,-292 1740.25,-298 1740.25,-298 1740.25,-345 1740.25,-345 1740.25,-351 1734.25,-357 1728.25,-357"/>
<text text-anchor="start" x="1625" y="-339.7" font-family="Helvetica,sans-Serif" font-size="14.00">P7_1_2 ≤ 2.5</text>
<text text-anchor="start" x="1598" y="-323.95" font-family="Helvetica,sans-Serif" font-size="14.00">squared_error = 3.843</text>
<text text-anchor="start" x="1620.5" y="-308.2" font-family="Helvetica,sans-Serif" font-size="14.00">samples = 902</text>
<text text-anchor="start" x="1620.5" y="-292.45" font-family="Helvetica,sans-Serif" font-size="14.00">value = 15.192</text>
</g>
<!-- 476&#45;&gt;477 -->
<g id="edge33" class="edge">
<title>476&#45;&gt;477</title>
<path fill="none" stroke="black" d="M1665.12,-392.54C1665.12,-384.92 1665.12,-376.75 1665.12,-368.77"/>
<polygon fill="black" stroke="black" points="1668.63,-368.82 1665.13,-358.82 1661.63,-368.82 1668.63,-368.82"/>
</g>
<!-- 622 -->
<g id="node49" class="node">
<title>622</title>
<path fill="#f0b68d" stroke="black" d="M2232.25,-357C2232.25,-357 2106,-357 2106,-357 2100,-357 2094,-351 2094,-345 2094,-345 2094,-298 2094,-298 2094,-292 2100,-286 2106,-286 2106,-286 2232.25,-286 2232.25,-286 2238.25,-286 2244.25,-292 2244.25,-298 2244.25,-298 2244.25,-345 2244.25,-345 2244.25,-351 2238.25,-357 2232.25,-357"/>
<text text-anchor="start" x="2125.62" y="-339.7" font-family="Helvetica,sans-Serif" font-size="14.00">P11_3_9 ≤ 0.5</text>
<text text-anchor="start" x="2102" y="-323.95" font-family="Helvetica,sans-Serif" font-size="14.00">squared_error = 4.795</text>
<text text-anchor="start" x="2124.5" y="-308.2" font-family="Helvetica,sans-Serif" font-size="14.00">samples = 859</text>
<text text-anchor="start" x="2124.5" y="-292.45" font-family="Helvetica,sans-Serif" font-size="14.00">value = 12.627</text>
</g>
<!-- 476&#45;&gt;622 -->
<g id="edge48" class="edge">
<title>476&#45;&gt;622</title>
<path fill="none" stroke="black" d="M1740.58,-411.78C1832.11,-392.71 1986.08,-360.63 2082.4,-340.57"/>
<polygon fill="black" stroke="black" points="2083.01,-344.02 2092.09,-338.55 2081.58,-337.16 2083.01,-344.02"/>
</g>
<!-- 478 -->
<g id="node35" class="node">
<title>478</title>
<path fill="#e99558" stroke="black" d="M1644.25,-250C1644.25,-250 1518,-250 1518,-250 1512,-250 1506,-244 1506,-238 1506,-238 1506,-191 1506,-191 1506,-185 1512,-179 1518,-179 1518,-179 1644.25,-179 1644.25,-179 1650.25,-179 1656.25,-185 1656.25,-191 1656.25,-191 1656.25,-238 1656.25,-238 1656.25,-244 1650.25,-250 1644.25,-250"/>
<text text-anchor="start" x="1544.75" y="-232.7" font-family="Helvetica,sans-Serif" font-size="14.00">P12_2 ≤ 4.0</text>
<text text-anchor="start" x="1514" y="-216.95" font-family="Helvetica,sans-Serif" font-size="14.00">squared_error = 2.357</text>
<text text-anchor="start" x="1536.5" y="-201.2" font-family="Helvetica,sans-Serif" font-size="14.00">samples = 235</text>
<text text-anchor="start" x="1536.5" y="-185.45" font-family="Helvetica,sans-Serif" font-size="14.00">value = 16.701</text>
</g>
<!-- 477&#45;&gt;478 -->
<g id="edge34" class="edge">
<title>477&#45;&gt;478</title>
<path fill="none" stroke="black" d="M1637.15,-285.54C1630.42,-277.12 1623.15,-268.03 1616.14,-259.27"/>
<polygon fill="black" stroke="black" points="1618.9,-257.11 1609.92,-251.49 1613.43,-261.49 1618.9,-257.11"/>
</g>
<!-- 523 -->
<g id="node42" class="node">
<title>523</title>
<path fill="#eda673" stroke="black" d="M1812.25,-250C1812.25,-250 1686,-250 1686,-250 1680,-250 1674,-244 1674,-238 1674,-238 1674,-191 1674,-191 1674,-185 1680,-179 1686,-179 1686,-179 1812.25,-179 1812.25,-179 1818.25,-179 1824.25,-185 1824.25,-191 1824.25,-191 1824.25,-238 1824.25,-238 1824.25,-244 1818.25,-250 1812.25,-250"/>
<text text-anchor="start" x="1709" y="-232.7" font-family="Helvetica,sans-Serif" font-size="14.00">P4_7_3 ≤ 0.5</text>
<text text-anchor="start" x="1682" y="-216.95" font-family="Helvetica,sans-Serif" font-size="14.00">squared_error = 3.282</text>
<text text-anchor="start" x="1704.5" y="-201.2" font-family="Helvetica,sans-Serif" font-size="14.00">samples = 667</text>
<text text-anchor="start" x="1704.5" y="-185.45" font-family="Helvetica,sans-Serif" font-size="14.00">value = 14.661</text>
</g>
<!-- 477&#45;&gt;523 -->
<g id="edge41" class="edge">
<title>477&#45;&gt;523</title>
<path fill="none" stroke="black" d="M1693.1,-285.54C1699.83,-277.12 1707.1,-268.03 1714.11,-259.27"/>
<polygon fill="black" stroke="black" points="1716.82,-261.49 1720.33,-251.49 1711.35,-257.11 1716.82,-261.49"/>
</g>
<!-- 479 -->
<g id="node36" class="node">
<title>479</title>
<path fill="#e99355" stroke="black" d="M1475.5,-143C1475.5,-143 1356.75,-143 1356.75,-143 1350.75,-143 1344.75,-137 1344.75,-131 1344.75,-131 1344.75,-84 1344.75,-84 1344.75,-78 1350.75,-72 1356.75,-72 1356.75,-72 1475.5,-72 1475.5,-72 1481.5,-72 1487.5,-78 1487.5,-84 1487.5,-84 1487.5,-131 1487.5,-131 1487.5,-137 1481.5,-143 1475.5,-143"/>
<text text-anchor="start" x="1379.75" y="-125.7" font-family="Helvetica,sans-Serif" font-size="14.00">P12_2 ≤ 1.5</text>
<text text-anchor="start" x="1352.75" y="-109.95" font-family="Helvetica,sans-Serif" font-size="14.00">squared_error = 2.05</text>
<text text-anchor="start" x="1371.5" y="-94.2" font-family="Helvetica,sans-Serif" font-size="14.00">samples = 203</text>
<text text-anchor="start" x="1371.5" y="-78.45" font-family="Helvetica,sans-Serif" font-size="14.00">value = 16.939</text>
</g>
<!-- 478&#45;&gt;479 -->
<g id="edge35" class="edge">
<title>478&#45;&gt;479</title>
<path fill="none" stroke="black" d="M1526.18,-178.54C1511.51,-169.2 1495.52,-159.03 1480.4,-149.4"/>
<polygon fill="black" stroke="black" points="1482.7,-146.72 1472.39,-144.3 1478.94,-152.62 1482.7,-146.72"/>
</g>
<!-- 516 -->
<g id="node39" class="node">
<title>516</title>
<path fill="#eca16c" stroke="black" d="M1644.25,-143C1644.25,-143 1518,-143 1518,-143 1512,-143 1506,-137 1506,-131 1506,-131 1506,-84 1506,-84 1506,-78 1512,-72 1518,-72 1518,-72 1644.25,-72 1644.25,-72 1650.25,-72 1656.25,-78 1656.25,-84 1656.25,-84 1656.25,-131 1656.25,-131 1656.25,-137 1650.25,-143 1644.25,-143"/>
<text text-anchor="start" x="1541" y="-125.7" font-family="Helvetica,sans-Serif" font-size="14.00">P7_1_1 ≤ 2.5</text>
<text text-anchor="start" x="1514" y="-109.95" font-family="Helvetica,sans-Serif" font-size="14.00">squared_error = 1.652</text>
<text text-anchor="start" x="1540.25" y="-94.2" font-family="Helvetica,sans-Serif" font-size="14.00">samples = 32</text>
<text text-anchor="start" x="1536.5" y="-78.45" font-family="Helvetica,sans-Serif" font-size="14.00">value = 15.188</text>
</g>
<!-- 478&#45;&gt;516 -->
<g id="edge38" class="edge">
<title>478&#45;&gt;516</title>
<path fill="none" stroke="black" d="M1581.12,-178.54C1581.12,-170.92 1581.12,-162.75 1581.12,-154.77"/>
<polygon fill="black" stroke="black" points="1584.63,-154.82 1581.13,-144.82 1577.63,-154.82 1584.63,-154.82"/>
</g>
<!-- 480 -->
<g id="node37" class="node">
<title>480</title>
<path fill="#c0c0c0" stroke="black" d="M1369.12,-36C1369.12,-36 1339.12,-36 1339.12,-36 1333.12,-36 1327.12,-30 1327.12,-24 1327.12,-24 1327.12,-12 1327.12,-12 1327.12,-6 1333.12,0 1339.12,0 1339.12,0 1369.12,0 1369.12,0 1375.12,0 1381.12,-6 1381.12,-12 1381.12,-12 1381.12,-24 1381.12,-24 1381.12,-30 1375.12,-36 1369.12,-36"/>
<text text-anchor="middle" x="1354.12" y="-12.57" font-family="Helvetica,sans-Serif" font-size="14.00">(...)</text>
</g>
<!-- 479&#45;&gt;480 -->
<g id="edge36" class="edge">
<title>479&#45;&gt;480</title>
<path fill="none" stroke="black" d="M1391.44,-71.67C1385.23,-62.9 1378.66,-53.63 1372.8,-45.35"/>
<polygon fill="black" stroke="black" points="1375.81,-43.55 1367.18,-37.42 1370.1,-47.6 1375.81,-43.55"/>
</g>
<!-- 491 -->
<g id="node38" class="node">
<title>491</title>
<path fill="#c0c0c0" stroke="black" d="M1441.12,-36C1441.12,-36 1411.12,-36 1411.12,-36 1405.12,-36 1399.12,-30 1399.12,-24 1399.12,-24 1399.12,-12 1399.12,-12 1399.12,-6 1405.12,0 1411.12,0 1411.12,0 1441.12,0 1441.12,0 1447.12,0 1453.12,-6 1453.12,-12 1453.12,-12 1453.12,-24 1453.12,-24 1453.12,-30 1447.12,-36 1441.12,-36"/>
<text text-anchor="middle" x="1426.12" y="-12.57" font-family="Helvetica,sans-Serif" font-size="14.00">(...)</text>
</g>
<!-- 479&#45;&gt;491 -->
<g id="edge37" class="edge">
<title>479&#45;&gt;491</title>
<path fill="none" stroke="black" d="M1420.11,-71.67C1421.02,-63.66 1421.98,-55.24 1422.86,-47.53"/>
<polygon fill="black" stroke="black" points="1426.33,-48.02 1423.99,-37.69 1419.38,-47.22 1426.33,-48.02"/>
</g>
<!-- 517 -->
<g id="node40" class="node">
<title>517</title>
<path fill="#c0c0c0" stroke="black" d="M1536.12,-36C1536.12,-36 1506.12,-36 1506.12,-36 1500.12,-36 1494.12,-30 1494.12,-24 1494.12,-24 1494.12,-12 1494.12,-12 1494.12,-6 1500.12,0 1506.12,0 1506.12,0 1536.12,0 1536.12,0 1542.12,0 1548.12,-6 1548.12,-12 1548.12,-12 1548.12,-24 1548.12,-24 1548.12,-30 1542.12,-36 1536.12,-36"/>
<text text-anchor="middle" x="1521.12" y="-12.57" font-family="Helvetica,sans-Serif" font-size="14.00">(...)</text>
</g>
<!-- 516&#45;&gt;517 -->
<g id="edge39" class="edge">
<title>516&#45;&gt;517</title>
<path fill="none" stroke="black" d="M1557.24,-71.67C1551.29,-62.99 1545.01,-53.83 1539.38,-45.62"/>
<polygon fill="black" stroke="black" points="1542.31,-43.7 1533.76,-37.43 1536.53,-47.66 1542.31,-43.7"/>
</g>
<!-- 520 -->
<g id="node41" class="node">
<title>520</title>
<path fill="#c0c0c0" stroke="black" d="M1608.12,-36C1608.12,-36 1578.12,-36 1578.12,-36 1572.12,-36 1566.12,-30 1566.12,-24 1566.12,-24 1566.12,-12 1566.12,-12 1566.12,-6 1572.12,0 1578.12,0 1578.12,0 1608.12,0 1608.12,0 1614.12,0 1620.12,-6 1620.12,-12 1620.12,-12 1620.12,-24 1620.12,-24 1620.12,-30 1614.12,-36 1608.12,-36"/>
<text text-anchor="middle" x="1593.12" y="-12.57" font-family="Helvetica,sans-Serif" font-size="14.00">(...)</text>
</g>
<!-- 516&#45;&gt;520 -->
<g id="edge40" class="edge">
<title>516&#45;&gt;520</title>
<path fill="none" stroke="black" d="M1585.9,-71.67C1587,-63.66 1588.16,-55.24 1589.21,-47.53"/>
<polygon fill="black" stroke="black" points="1592.67,-48.07 1590.56,-37.68 1585.74,-47.11 1592.67,-48.07"/>
</g>
<!-- 524 -->
<g id="node43" class="node">
<title>524</title>
<path fill="#eca26c" stroke="black" d="M1812.25,-143C1812.25,-143 1686,-143 1686,-143 1680,-143 1674,-137 1674,-131 1674,-131 1674,-84 1674,-84 1674,-78 1680,-72 1686,-72 1686,-72 1812.25,-72 1812.25,-72 1818.25,-72 1824.25,-78 1824.25,-84 1824.25,-84 1824.25,-131 1824.25,-131 1824.25,-137 1818.25,-143 1812.25,-143"/>
<text text-anchor="start" x="1709" y="-125.7" font-family="Helvetica,sans-Serif" font-size="14.00">P4_6_1 ≤ 1.5</text>
<text text-anchor="start" x="1682" y="-109.95" font-family="Helvetica,sans-Serif" font-size="14.00">squared_error = 2.572</text>
<text text-anchor="start" x="1704.5" y="-94.2" font-family="Helvetica,sans-Serif" font-size="14.00">samples = 484</text>
<text text-anchor="start" x="1704.5" y="-78.45" font-family="Helvetica,sans-Serif" font-size="14.00">value = 15.145</text>
</g>
<!-- 523&#45;&gt;524 -->
<g id="edge42" class="edge">
<title>523&#45;&gt;524</title>
<path fill="none" stroke="black" d="M1749.12,-178.54C1749.12,-170.92 1749.12,-162.75 1749.12,-154.77"/>
<polygon fill="black" stroke="black" points="1752.63,-154.82 1749.13,-144.82 1745.63,-154.82 1752.63,-154.82"/>
</g>
<!-- 587 -->
<g id="node46" class="node">
<title>587</title>
<path fill="#efb083" stroke="black" d="M1980.25,-143C1980.25,-143 1854,-143 1854,-143 1848,-143 1842,-137 1842,-131 1842,-131 1842,-84 1842,-84 1842,-78 1848,-72 1854,-72 1854,-72 1980.25,-72 1980.25,-72 1986.25,-72 1992.25,-78 1992.25,-84 1992.25,-84 1992.25,-131 1992.25,-131 1992.25,-137 1986.25,-143 1980.25,-143"/>
<text text-anchor="start" x="1873.62" y="-125.7" font-family="Helvetica,sans-Serif" font-size="14.00">P11_3_9 ≤ 0.5</text>
<text text-anchor="start" x="1850" y="-109.95" font-family="Helvetica,sans-Serif" font-size="14.00">squared_error = 2.897</text>
<text text-anchor="start" x="1872.5" y="-94.2" font-family="Helvetica,sans-Serif" font-size="14.00">samples = 183</text>
<text text-anchor="start" x="1872.5" y="-78.45" font-family="Helvetica,sans-Serif" font-size="14.00">value = 13.379</text>
</g>
<!-- 523&#45;&gt;587 -->
<g id="edge45" class="edge">
<title>523&#45;&gt;587</title>
<path fill="none" stroke="black" d="M1805.07,-178.54C1820.01,-169.2 1836.28,-159.03 1851.69,-149.4"/>
<polygon fill="black" stroke="black" points="1853.23,-152.56 1859.86,-144.29 1849.52,-146.62 1853.23,-152.56"/>
</g>
<!-- 525 -->
<g id="node44" class="node">
<title>525</title>
<path fill="#c0c0c0" stroke="black" d="M1704.12,-36C1704.12,-36 1674.12,-36 1674.12,-36 1668.12,-36 1662.12,-30 1662.12,-24 1662.12,-24 1662.12,-12 1662.12,-12 1662.12,-6 1668.12,0 1674.12,0 1674.12,0 1704.12,0 1704.12,0 1710.12,0 1716.12,-6 1716.12,-12 1716.12,-12 1716.12,-24 1716.12,-24 1716.12,-30 1710.12,-36 1704.12,-36"/>
<text text-anchor="middle" x="1689.12" y="-12.57" font-family="Helvetica,sans-Serif" font-size="14.00">(...)</text>
</g>
<!-- 524&#45;&gt;525 -->
<g id="edge43" class="edge">
<title>524&#45;&gt;525</title>
<path fill="none" stroke="black" d="M1725.24,-71.67C1719.29,-62.99 1713.01,-53.83 1707.38,-45.62"/>
<polygon fill="black" stroke="black" points="1710.31,-43.7 1701.76,-37.43 1704.53,-47.66 1710.31,-43.7"/>
</g>
<!-- 568 -->
<g id="node45" class="node">
<title>568</title>
<path fill="#c0c0c0" stroke="black" d="M1776.12,-36C1776.12,-36 1746.12,-36 1746.12,-36 1740.12,-36 1734.12,-30 1734.12,-24 1734.12,-24 1734.12,-12 1734.12,-12 1734.12,-6 1740.12,0 1746.12,0 1746.12,0 1776.12,0 1776.12,0 1782.12,0 1788.12,-6 1788.12,-12 1788.12,-12 1788.12,-24 1788.12,-24 1788.12,-30 1782.12,-36 1776.12,-36"/>
<text text-anchor="middle" x="1761.12" y="-12.57" font-family="Helvetica,sans-Serif" font-size="14.00">(...)</text>
</g>
<!-- 524&#45;&gt;568 -->
<g id="edge44" class="edge">
<title>524&#45;&gt;568</title>
<path fill="none" stroke="black" d="M1753.9,-71.67C1755,-63.66 1756.16,-55.24 1757.21,-47.53"/>
<polygon fill="black" stroke="black" points="1760.67,-48.07 1758.56,-37.68 1753.74,-47.11 1760.67,-48.07"/>
</g>
<!-- 588 -->
<g id="node47" class="node">
<title>588</title>
<path fill="#c0c0c0" stroke="black" d="M1872.12,-36C1872.12,-36 1842.12,-36 1842.12,-36 1836.12,-36 1830.12,-30 1830.12,-24 1830.12,-24 1830.12,-12 1830.12,-12 1830.12,-6 1836.12,0 1842.12,0 1842.12,0 1872.12,0 1872.12,0 1878.12,0 1884.12,-6 1884.12,-12 1884.12,-12 1884.12,-24 1884.12,-24 1884.12,-30 1878.12,-36 1872.12,-36"/>
<text text-anchor="middle" x="1857.12" y="-12.57" font-family="Helvetica,sans-Serif" font-size="14.00">(...)</text>
</g>
<!-- 587&#45;&gt;588 -->
<g id="edge46" class="edge">
<title>587&#45;&gt;588</title>
<path fill="none" stroke="black" d="M1893.24,-71.67C1887.29,-62.99 1881.01,-53.83 1875.38,-45.62"/>
<polygon fill="black" stroke="black" points="1878.31,-43.7 1869.76,-37.43 1872.53,-47.66 1878.31,-43.7"/>
</g>
<!-- 605 -->
<g id="node48" class="node">
<title>605</title>
<path fill="#c0c0c0" stroke="black" d="M1944.12,-36C1944.12,-36 1914.12,-36 1914.12,-36 1908.12,-36 1902.12,-30 1902.12,-24 1902.12,-24 1902.12,-12 1902.12,-12 1902.12,-6 1908.12,0 1914.12,0 1914.12,0 1944.12,0 1944.12,0 1950.12,0 1956.12,-6 1956.12,-12 1956.12,-12 1956.12,-24 1956.12,-24 1956.12,-30 1950.12,-36 1944.12,-36"/>
<text text-anchor="middle" x="1929.12" y="-12.57" font-family="Helvetica,sans-Serif" font-size="14.00">(...)</text>
</g>
<!-- 587&#45;&gt;605 -->
<g id="edge47" class="edge">
<title>587&#45;&gt;605</title>
<path fill="none" stroke="black" d="M1921.9,-71.67C1923,-63.66 1924.16,-55.24 1925.21,-47.53"/>
<polygon fill="black" stroke="black" points="1928.67,-48.07 1926.56,-37.68 1921.74,-47.11 1928.67,-48.07"/>
</g>
<!-- 623 -->
<g id="node50" class="node">
<title>623</title>
<path fill="#eeae7f" stroke="black" d="M2228.5,-250C2228.5,-250 2109.75,-250 2109.75,-250 2103.75,-250 2097.75,-244 2097.75,-238 2097.75,-238 2097.75,-191 2097.75,-191 2097.75,-185 2103.75,-179 2109.75,-179 2109.75,-179 2228.5,-179 2228.5,-179 2234.5,-179 2240.5,-185 2240.5,-191 2240.5,-191 2240.5,-238 2240.5,-238 2240.5,-244 2234.5,-250 2228.5,-250"/>
<text text-anchor="start" x="2129" y="-232.7" font-family="Helvetica,sans-Serif" font-size="14.00">P4_6_1 ≤ 1.5</text>
<text text-anchor="start" x="2105.75" y="-216.95" font-family="Helvetica,sans-Serif" font-size="14.00">squared_error = 3.74</text>
<text text-anchor="start" x="2124.5" y="-201.2" font-family="Helvetica,sans-Serif" font-size="14.00">samples = 415</text>
<text text-anchor="start" x="2124.5" y="-185.45" font-family="Helvetica,sans-Serif" font-size="14.00">value = 13.688</text>
</g>
<!-- 622&#45;&gt;623 -->
<g id="edge49" class="edge">
<title>622&#45;&gt;623</title>
<path fill="none" stroke="black" d="M2169.12,-285.54C2169.12,-277.92 2169.12,-269.75 2169.12,-261.77"/>
<polygon fill="black" stroke="black" points="2172.63,-261.82 2169.13,-251.82 2165.63,-261.82 2172.63,-261.82"/>
</g>
<!-- 710 -->
<g id="node57" class="node">
<title>710</title>
<path fill="#f2be9a" stroke="black" d="M2484.25,-250C2484.25,-250 2358,-250 2358,-250 2352,-250 2346,-244 2346,-238 2346,-238 2346,-191 2346,-191 2346,-185 2352,-179 2358,-179 2358,-179 2484.25,-179 2484.25,-179 2490.25,-179 2496.25,-185 2496.25,-191 2496.25,-191 2496.25,-238 2496.25,-238 2496.25,-244 2490.25,-250 2484.25,-250"/>
<text text-anchor="start" x="2381" y="-232.7" font-family="Helvetica,sans-Serif" font-size="14.00">P4_7_3 ≤ 0.5</text>
<text text-anchor="start" x="2354" y="-216.95" font-family="Helvetica,sans-Serif" font-size="14.00">squared_error = 3.745</text>
<text text-anchor="start" x="2376.5" y="-201.2" font-family="Helvetica,sans-Serif" font-size="14.00">samples = 444</text>
<text text-anchor="start" x="2376.88" y="-185.45" font-family="Helvetica,sans-Serif" font-size="14.00">value = 11.635</text>
</g>
<!-- 622&#45;&gt;710 -->
<g id="edge56" class="edge">
<title>622&#45;&gt;710</title>
<path fill="none" stroke="black" d="M2244.73,-289C2273.26,-277.11 2305.92,-263.5 2335.32,-251.25"/>
<polygon fill="black" stroke="black" points="2336.29,-254.64 2344.17,-247.56 2333.6,-248.18 2336.29,-254.64"/>
</g>
<!-- 624 -->
<g id="node51" class="node">
<title>624</title>
<path fill="#eda979" stroke="black" d="M2148.25,-143C2148.25,-143 2022,-143 2022,-143 2016,-143 2010,-137 2010,-131 2010,-131 2010,-84 2010,-84 2010,-78 2016,-72 2022,-72 2022,-72 2148.25,-72 2148.25,-72 2154.25,-72 2160.25,-78 2160.25,-84 2160.25,-84 2160.25,-131 2160.25,-131 2160.25,-137 2154.25,-143 2148.25,-143"/>
<text text-anchor="start" x="2052.5" y="-125.7" font-family="Helvetica,sans-Serif" font-size="14.00">P4_1 ≤ 0.5</text>
<text text-anchor="start" x="2018" y="-109.95" font-family="Helvetica,sans-Serif" font-size="14.00">squared_error = 2.794</text>
<text text-anchor="start" x="2040.5" y="-94.2" font-family="Helvetica,sans-Serif" font-size="14.00">samples = 306</text>
<text text-anchor="start" x="2040.5" y="-78.45" font-family="Helvetica,sans-Serif" font-size="14.00">value = 14.193</text>
</g>
<!-- 623&#45;&gt;624 -->
<g id="edge50" class="edge">
<title>623&#45;&gt;624</title>
<path fill="none" stroke="black" d="M2141.15,-178.54C2134.42,-170.12 2127.15,-161.03 2120.14,-152.27"/>
<polygon fill="black" stroke="black" points="2122.9,-150.11 2113.92,-144.49 2117.43,-154.49 2122.9,-150.11"/>
</g>
<!-- 683 -->
<g id="node54" class="node">
<title>683</title>
<path fill="#f1b991" stroke="black" d="M2316.25,-143C2316.25,-143 2190,-143 2190,-143 2184,-143 2178,-137 2178,-131 2178,-131 2178,-84 2178,-84 2178,-78 2184,-72 2190,-72 2190,-72 2316.25,-72 2316.25,-72 2322.25,-72 2328.25,-78 2328.25,-84 2328.25,-84 2328.25,-131 2328.25,-131 2328.25,-137 2322.25,-143 2316.25,-143"/>
<text text-anchor="start" x="2213" y="-125.7" font-family="Helvetica,sans-Serif" font-size="14.00">P4_7_3 ≤ 0.5</text>
<text text-anchor="start" x="2186" y="-109.95" font-family="Helvetica,sans-Serif" font-size="14.00">squared_error = 3.674</text>
<text text-anchor="start" x="2208.5" y="-94.2" font-family="Helvetica,sans-Serif" font-size="14.00">samples = 109</text>
<text text-anchor="start" x="2208.5" y="-78.45" font-family="Helvetica,sans-Serif" font-size="14.00">value = 12.272</text>
</g>
<!-- 623&#45;&gt;683 -->
<g id="edge53" class="edge">
<title>623&#45;&gt;683</title>
<path fill="none" stroke="black" d="M2197.1,-178.54C2203.83,-170.12 2211.1,-161.03 2218.11,-152.27"/>
<polygon fill="black" stroke="black" points="2220.82,-154.49 2224.33,-144.49 2215.35,-150.11 2220.82,-154.49"/>
</g>
<!-- 625 -->
<g id="node52" class="node">
<title>625</title>
<path fill="#c0c0c0" stroke="black" d="M2040.12,-36C2040.12,-36 2010.12,-36 2010.12,-36 2004.12,-36 1998.12,-30 1998.12,-24 1998.12,-24 1998.12,-12 1998.12,-12 1998.12,-6 2004.12,0 2010.12,0 2010.12,0 2040.12,0 2040.12,0 2046.12,0 2052.12,-6 2052.12,-12 2052.12,-12 2052.12,-24 2052.12,-24 2052.12,-30 2046.12,-36 2040.12,-36"/>
<text text-anchor="middle" x="2025.12" y="-12.57" font-family="Helvetica,sans-Serif" font-size="14.00">(...)</text>
</g>
<!-- 624&#45;&gt;625 -->
<g id="edge51" class="edge">
<title>624&#45;&gt;625</title>
<path fill="none" stroke="black" d="M2061.24,-71.67C2055.29,-62.99 2049.01,-53.83 2043.38,-45.62"/>
<polygon fill="black" stroke="black" points="2046.31,-43.7 2037.76,-37.43 2040.53,-47.66 2046.31,-43.7"/>
</g>
<!-- 642 -->
<g id="node53" class="node">
<title>642</title>
<path fill="#c0c0c0" stroke="black" d="M2112.12,-36C2112.12,-36 2082.12,-36 2082.12,-36 2076.12,-36 2070.12,-30 2070.12,-24 2070.12,-24 2070.12,-12 2070.12,-12 2070.12,-6 2076.12,0 2082.12,0 2082.12,0 2112.12,0 2112.12,0 2118.12,0 2124.12,-6 2124.12,-12 2124.12,-12 2124.12,-24 2124.12,-24 2124.12,-30 2118.12,-36 2112.12,-36"/>
<text text-anchor="middle" x="2097.12" y="-12.57" font-family="Helvetica,sans-Serif" font-size="14.00">(...)</text>
</g>
<!-- 624&#45;&gt;642 -->
<g id="edge52" class="edge">
<title>624&#45;&gt;642</title>
<path fill="none" stroke="black" d="M2089.9,-71.67C2091,-63.66 2092.16,-55.24 2093.21,-47.53"/>
<polygon fill="black" stroke="black" points="2096.67,-48.07 2094.56,-37.68 2089.74,-47.11 2096.67,-48.07"/>
</g>
<!-- 684 -->
<g id="node55" class="node">
<title>684</title>
<path fill="#c0c0c0" stroke="black" d="M2208.12,-36C2208.12,-36 2178.12,-36 2178.12,-36 2172.12,-36 2166.12,-30 2166.12,-24 2166.12,-24 2166.12,-12 2166.12,-12 2166.12,-6 2172.12,0 2178.12,0 2178.12,0 2208.12,0 2208.12,0 2214.12,0 2220.12,-6 2220.12,-12 2220.12,-12 2220.12,-24 2220.12,-24 2220.12,-30 2214.12,-36 2208.12,-36"/>
<text text-anchor="middle" x="2193.12" y="-12.57" font-family="Helvetica,sans-Serif" font-size="14.00">(...)</text>
</g>
<!-- 683&#45;&gt;684 -->
<g id="edge54" class="edge">
<title>683&#45;&gt;684</title>
<path fill="none" stroke="black" d="M2229.24,-71.67C2223.29,-62.99 2217.01,-53.83 2211.38,-45.62"/>
<polygon fill="black" stroke="black" points="2214.31,-43.7 2205.76,-37.43 2208.53,-47.66 2214.31,-43.7"/>
</g>
<!-- 701 -->
<g id="node56" class="node">
<title>701</title>
<path fill="#c0c0c0" stroke="black" d="M2280.12,-36C2280.12,-36 2250.12,-36 2250.12,-36 2244.12,-36 2238.12,-30 2238.12,-24 2238.12,-24 2238.12,-12 2238.12,-12 2238.12,-6 2244.12,0 2250.12,0 2250.12,0 2280.12,0 2280.12,0 2286.12,0 2292.12,-6 2292.12,-12 2292.12,-12 2292.12,-24 2292.12,-24 2292.12,-30 2286.12,-36 2280.12,-36"/>
<text text-anchor="middle" x="2265.12" y="-12.57" font-family="Helvetica,sans-Serif" font-size="14.00">(...)</text>
</g>
<!-- 683&#45;&gt;701 -->
<g id="edge55" class="edge">
<title>683&#45;&gt;701</title>
<path fill="none" stroke="black" d="M2257.9,-71.67C2259,-63.66 2260.16,-55.24 2261.21,-47.53"/>
<polygon fill="black" stroke="black" points="2264.67,-48.07 2262.56,-37.68 2257.74,-47.11 2264.67,-48.07"/>
</g>
<!-- 711 -->
<g id="node58" class="node">
<title>711</title>
<path fill="#f0b88f" stroke="black" d="M2484.25,-143C2484.25,-143 2358,-143 2358,-143 2352,-143 2346,-137 2346,-131 2346,-131 2346,-84 2346,-84 2346,-78 2352,-72 2358,-72 2358,-72 2484.25,-72 2484.25,-72 2490.25,-72 2496.25,-78 2496.25,-84 2496.25,-84 2496.25,-131 2496.25,-131 2496.25,-137 2490.25,-143 2484.25,-143"/>
<text text-anchor="start" x="2381" y="-125.7" font-family="Helvetica,sans-Serif" font-size="14.00">P4_6_1 ≤ 1.5</text>
<text text-anchor="start" x="2354" y="-109.95" font-family="Helvetica,sans-Serif" font-size="14.00">squared_error = 2.852</text>
<text text-anchor="start" x="2376.5" y="-94.2" font-family="Helvetica,sans-Serif" font-size="14.00">samples = 258</text>
<text text-anchor="start" x="2376.5" y="-78.45" font-family="Helvetica,sans-Serif" font-size="14.00">value = 12.479</text>
</g>
<!-- 710&#45;&gt;711 -->
<g id="edge57" class="edge">
<title>710&#45;&gt;711</title>
<path fill="none" stroke="black" d="M2421.12,-178.54C2421.12,-170.92 2421.12,-162.75 2421.12,-154.77"/>
<polygon fill="black" stroke="black" points="2424.63,-154.82 2421.13,-144.82 2417.63,-154.82 2424.63,-154.82"/>
</g>
<!-- 756 -->
<g id="node61" class="node">
<title>756</title>
<path fill="#f4c8a9" stroke="black" d="M2652.25,-143C2652.25,-143 2526,-143 2526,-143 2520,-143 2514,-137 2514,-131 2514,-131 2514,-84 2514,-84 2514,-78 2520,-72 2526,-72 2526,-72 2652.25,-72 2652.25,-72 2658.25,-72 2664.25,-78 2664.25,-84 2664.25,-84 2664.25,-131 2664.25,-131 2664.25,-137 2658.25,-143 2652.25,-143"/>
<text text-anchor="start" x="2549" y="-125.7" font-family="Helvetica,sans-Serif" font-size="14.00">P4_6_1 ≤ 1.5</text>
<text text-anchor="start" x="2522" y="-109.95" font-family="Helvetica,sans-Serif" font-size="14.00">squared_error = 2.625</text>
<text text-anchor="start" x="2544.5" y="-94.2" font-family="Helvetica,sans-Serif" font-size="14.00">samples = 186</text>
<text text-anchor="start" x="2544.5" y="-78.45" font-family="Helvetica,sans-Serif" font-size="14.00">value = 10.464</text>
</g>
<!-- 710&#45;&gt;756 -->
<g id="edge60" class="edge">
<title>710&#45;&gt;756</title>
<path fill="none" stroke="black" d="M2477.07,-178.54C2492.01,-169.2 2508.28,-159.03 2523.69,-149.4"/>
<polygon fill="black" stroke="black" points="2525.23,-152.56 2531.86,-144.29 2521.52,-146.62 2525.23,-152.56"/>
</g>
<!-- 712 -->
<g id="node59" class="node">
<title>712</title>
<path fill="#c0c0c0" stroke="black" d="M2394.12,-36C2394.12,-36 2364.12,-36 2364.12,-36 2358.12,-36 2352.12,-30 2352.12,-24 2352.12,-24 2352.12,-12 2352.12,-12 2352.12,-6 2358.12,0 2364.12,0 2364.12,0 2394.12,0 2394.12,0 2400.12,0 2406.12,-6 2406.12,-12 2406.12,-12 2406.12,-24 2406.12,-24 2406.12,-30 2400.12,-36 2394.12,-36"/>
<text text-anchor="middle" x="2379.12" y="-12.57" font-family="Helvetica,sans-Serif" font-size="14.00">(...)</text>
</g>
<!-- 711&#45;&gt;712 -->
<g id="edge58" class="edge">
<title>711&#45;&gt;712</title>
<path fill="none" stroke="black" d="M2404.4,-71.67C2400.38,-63.28 2396.13,-54.43 2392.3,-46.44"/>
<polygon fill="black" stroke="black" points="2395.51,-45.05 2388.03,-37.55 2389.2,-48.08 2395.51,-45.05"/>
</g>
<!-- 739 -->
<g id="node60" class="node">
<title>739</title>
<path fill="#c0c0c0" stroke="black" d="M2466.12,-36C2466.12,-36 2436.12,-36 2436.12,-36 2430.12,-36 2424.12,-30 2424.12,-24 2424.12,-24 2424.12,-12 2424.12,-12 2424.12,-6 2430.12,0 2436.12,0 2436.12,0 2466.12,0 2466.12,0 2472.12,0 2478.12,-6 2478.12,-12 2478.12,-12 2478.12,-24 2478.12,-24 2478.12,-30 2472.12,-36 2466.12,-36"/>
<text text-anchor="middle" x="2451.12" y="-12.57" font-family="Helvetica,sans-Serif" font-size="14.00">(...)</text>
</g>
<!-- 711&#45;&gt;739 -->
<g id="edge59" class="edge">
<title>711&#45;&gt;739</title>
<path fill="none" stroke="black" d="M2433.07,-71.67C2435.88,-63.47 2438.84,-54.84 2441.53,-46.98"/>
<polygon fill="black" stroke="black" points="2444.81,-48.21 2444.74,-37.61 2438.19,-45.94 2444.81,-48.21"/>
</g>
<!-- 757 -->
<g id="node62" class="node">
<title>757</title>
<path fill="#c0c0c0" stroke="black" d="M2568.12,-36C2568.12,-36 2538.12,-36 2538.12,-36 2532.12,-36 2526.12,-30 2526.12,-24 2526.12,-24 2526.12,-12 2526.12,-12 2526.12,-6 2532.12,0 2538.12,0 2538.12,0 2568.12,0 2568.12,0 2574.12,0 2580.12,-6 2580.12,-12 2580.12,-12 2580.12,-24 2580.12,-24 2580.12,-30 2574.12,-36 2568.12,-36"/>
<text text-anchor="middle" x="2553.12" y="-12.57" font-family="Helvetica,sans-Serif" font-size="14.00">(...)</text>
</g>
<!-- 756&#45;&gt;757 -->
<g id="edge61" class="edge">
<title>756&#45;&gt;757</title>
<path fill="none" stroke="black" d="M2574.79,-71.67C2571.38,-63.37 2567.79,-54.63 2564.53,-46.71"/>
<polygon fill="black" stroke="black" points="2567.81,-45.5 2560.77,-37.58 2561.34,-48.16 2567.81,-45.5"/>
</g>
<!-- 778 -->
<g id="node63" class="node">
<title>778</title>
<path fill="#c0c0c0" stroke="black" d="M2640.12,-36C2640.12,-36 2610.12,-36 2610.12,-36 2604.12,-36 2598.12,-30 2598.12,-24 2598.12,-24 2598.12,-12 2598.12,-12 2598.12,-6 2604.12,0 2610.12,0 2610.12,0 2640.12,0 2640.12,0 2646.12,0 2652.12,-6 2652.12,-12 2652.12,-12 2652.12,-24 2652.12,-24 2652.12,-30 2646.12,-36 2640.12,-36"/>
<text text-anchor="middle" x="2625.12" y="-12.57" font-family="Helvetica,sans-Serif" font-size="14.00">(...)</text>
</g>
<!-- 756&#45;&gt;778 -->
<g id="edge62" class="edge">
<title>756&#45;&gt;778</title>
<path fill="none" stroke="black" d="M2603.46,-71.67C2606.87,-63.37 2610.46,-54.63 2613.72,-46.71"/>
<polygon fill="black" stroke="black" points="2616.91,-48.16 2617.48,-37.58 2610.44,-45.5 2616.91,-48.16"/>
</g>
</g>
</svg>
