<?xml version="1.0" encoding="UTF-8" standalone="no"?>
<!DOCTYPE svg PUBLIC "-//W3C//DTD SVG 1.1//EN"
 "http://www.w3.org/Graphics/SVG/1.1/DTD/svg11.dtd">
<!-- Generated by graphviz version 12.2.1 (20241206.2353)
 -->
<!-- Title: Tree Pages: 1 -->
<svg width="2294pt" height="579pt"
 viewBox="0.00 0.00 2294.00 579.00" xmlns="http://www.w3.org/2000/svg" xmlns:xlink="http://www.w3.org/1999/xlink">
<g id="graph0" class="graph" transform="scale(1 1) rotate(0) translate(4 575)">
<title>Tree</title>
<polygon fill="white" stroke="none" points="-4,4 -4,-575 2290,-575 2290,4 -4,4"/>
<!-- 0 -->
<g id="node1" class="node">
<title>0</title>
<path fill="#f0b88f" stroke="black" d="M1257.12,-571C1257.12,-571 1160.88,-571 1160.88,-571 1154.88,-571 1148.88,-565 1148.88,-559 1148.88,-559 1148.88,-512 1148.88,-512 1148.88,-506 1154.88,-500 1160.88,-500 1160.88,-500 1257.12,-500 1257.12,-500 1263.12,-500 1269.12,-506 1269.12,-512 1269.12,-512 1269.12,-559 1269.12,-559 1269.12,-565 1263.12,-571 1257.12,-571"/>
<text text-anchor="start" x="1168.88" y="-553.7" font-family="Helvetica,sans-Serif" font-size="14.00">P4_6_3 ≤ 1.5</text>
<text text-anchor="start" x="1161" y="-537.95" font-family="Helvetica,sans-Serif" font-size="14.00">poisson = 0.355</text>
<text text-anchor="start" x="1156.88" y="-522.2" font-family="Helvetica,sans-Serif" font-size="14.00">samples = 27056</text>
<text text-anchor="start" x="1164.75" y="-506.45" font-family="Helvetica,sans-Serif" font-size="14.00">value = 11.928</text>
</g>
<!-- 1 -->
<g id="node2" class="node">
<title>1</title>
<path fill="#f5ccaf" stroke="black" d="M899.38,-464C899.38,-464 810.62,-464 810.62,-464 804.62,-464 798.62,-458 798.62,-452 798.62,-452 798.62,-405 798.62,-405 798.62,-399 804.62,-393 810.62,-393 810.62,-393 899.38,-393 899.38,-393 905.38,-393 911.38,-399 911.38,-405 911.38,-405 911.38,-452 911.38,-452 911.38,-458 905.38,-464 899.38,-464"/>
<text text-anchor="start" x="814.88" y="-446.7" font-family="Helvetica,sans-Serif" font-size="14.00">P4_6_4 ≤ 1.5</text>
<text text-anchor="start" x="807" y="-430.95" font-family="Helvetica,sans-Serif" font-size="14.00">poisson = 0.295</text>
<text text-anchor="start" x="806.62" y="-415.2" font-family="Helvetica,sans-Serif" font-size="14.00">samples = 5038</text>
<text text-anchor="start" x="814.12" y="-399.45" font-family="Helvetica,sans-Serif" font-size="14.00">value = 9.298</text>
</g>
<!-- 0&#45;&gt;1 -->
<g id="edge1" class="edge">
<title>0&#45;&gt;1</title>
<path fill="none" stroke="black" d="M1148.55,-516.57C1085.82,-497.96 987.95,-468.94 922.68,-449.57"/>
<polygon fill="black" stroke="black" points="923.73,-446.23 913.14,-446.75 921.74,-452.95 923.73,-446.23"/>
<text text-anchor="middle" x="923.61" y="-462.87" font-family="Helvetica,sans-Serif" font-size="14.00">True</text>
</g>
<!-- 874 -->
<g id="node33" class="node">
<title>874</title>
<path fill="#efb388" stroke="black" d="M1480.12,-464C1480.12,-464 1383.88,-464 1383.88,-464 1377.88,-464 1371.88,-458 1371.88,-452 1371.88,-452 1371.88,-405 1371.88,-405 1371.88,-399 1377.88,-393 1383.88,-393 1383.88,-393 1480.12,-393 1480.12,-393 1486.12,-393 1492.12,-399 1492.12,-405 1492.12,-405 1492.12,-452 1492.12,-452 1492.12,-458 1486.12,-464 1480.12,-464"/>
<text text-anchor="start" x="1391.88" y="-446.7" font-family="Helvetica,sans-Serif" font-size="14.00">P4_6_4 ≤ 1.5</text>
<text text-anchor="start" x="1384" y="-430.95" font-family="Helvetica,sans-Serif" font-size="14.00">poisson = 0.282</text>
<text text-anchor="start" x="1379.88" y="-415.2" font-family="Helvetica,sans-Serif" font-size="14.00">samples = 22018</text>
<text text-anchor="start" x="1387.38" y="-399.45" font-family="Helvetica,sans-Serif" font-size="14.00">value = 12.529</text>
</g>
<!-- 0&#45;&gt;874 -->
<g id="edge32" class="edge">
<title>0&#45;&gt;874</title>
<path fill="none" stroke="black" d="M1269.35,-506.09C1297.73,-492.72 1331.76,-476.7 1361.34,-462.77"/>
<polygon fill="black" stroke="black" points="1362.68,-466.01 1370.24,-458.58 1359.7,-459.68 1362.68,-466.01"/>
<text text-anchor="middle" x="1363.14" y="-476.04" font-family="Helvetica,sans-Serif" font-size="14.00">False</text>
</g>
<!-- 2 -->
<g id="node3" class="node">
<title>2</title>
<path fill="#f3c3a1" stroke="black" d="M473.38,-357C473.38,-357 384.62,-357 384.62,-357 378.62,-357 372.62,-351 372.62,-345 372.62,-345 372.62,-298 372.62,-298 372.62,-292 378.62,-286 384.62,-286 384.62,-286 473.38,-286 473.38,-286 479.38,-286 485.38,-292 485.38,-298 485.38,-298 485.38,-345 485.38,-345 485.38,-351 479.38,-357 473.38,-357"/>
<text text-anchor="start" x="385.5" y="-339.7" font-family="Helvetica,sans-Serif" font-size="14.00">P11_3_9 ≤ 0.5</text>
<text text-anchor="start" x="388.5" y="-323.95" font-family="Helvetica,sans-Serif" font-size="14.00">poisson = 0.2</text>
<text text-anchor="start" x="380.62" y="-308.2" font-family="Helvetica,sans-Serif" font-size="14.00">samples = 2294</text>
<text text-anchor="start" x="384.38" y="-292.45" font-family="Helvetica,sans-Serif" font-size="14.00">value = 10.471</text>
</g>
<!-- 1&#45;&gt;2 -->
<g id="edge2" class="edge">
<title>1&#45;&gt;2</title>
<path fill="none" stroke="black" d="M798.43,-413.56C720.53,-394.36 580.42,-359.82 496.94,-339.25"/>
<polygon fill="black" stroke="black" points="497.82,-335.86 487.27,-336.86 496.14,-342.65 497.82,-335.86"/>
</g>
<!-- 379 -->
<g id="node18" class="node">
<title>379</title>
<path fill="#f6d4bb" stroke="black" d="M899.38,-357C899.38,-357 810.62,-357 810.62,-357 804.62,-357 798.62,-351 798.62,-345 798.62,-345 798.62,-298 798.62,-298 798.62,-292 804.62,-286 810.62,-286 810.62,-286 899.38,-286 899.38,-286 905.38,-286 911.38,-292 911.38,-298 911.38,-298 911.38,-345 911.38,-345 911.38,-351 905.38,-357 899.38,-357"/>
<text text-anchor="start" x="814.88" y="-339.7" font-family="Helvetica,sans-Serif" font-size="14.00">P4_7_3 ≤ 0.5</text>
<text text-anchor="start" x="807" y="-323.95" font-family="Helvetica,sans-Serif" font-size="14.00">poisson = 0.261</text>
<text text-anchor="start" x="806.62" y="-308.2" font-family="Helvetica,sans-Serif" font-size="14.00">samples = 2744</text>
<text text-anchor="start" x="814.12" y="-292.45" font-family="Helvetica,sans-Serif" font-size="14.00">value = 8.317</text>
</g>
<!-- 1&#45;&gt;379 -->
<g id="edge17" class="edge">
<title>1&#45;&gt;379</title>
<path fill="none" stroke="black" d="M855,-392.54C855,-384.92 855,-376.75 855,-368.77"/>
<polygon fill="black" stroke="black" points="858.5,-368.82 855,-358.82 851.5,-368.82 858.5,-368.82"/>
</g>
<!-- 3 -->
<g id="node4" class="node">
<title>3</title>
<path fill="#f1bd97" stroke="black" d="M278,-250C278,-250 190,-250 190,-250 184,-250 178,-244 178,-238 178,-238 178,-191 178,-191 178,-185 184,-179 190,-179 190,-179 278,-179 278,-179 284,-179 290,-185 290,-191 290,-191 290,-238 290,-238 290,-244 284,-250 278,-250"/>
<text text-anchor="start" x="193.88" y="-232.7" font-family="Helvetica,sans-Serif" font-size="14.00">P4_6_1 ≤ 1.5</text>
<text text-anchor="start" x="186" y="-216.95" font-family="Helvetica,sans-Serif" font-size="14.00">poisson = 0.163</text>
<text text-anchor="start" x="186" y="-201.2" font-family="Helvetica,sans-Serif" font-size="14.00">samples = 1199</text>
<text text-anchor="start" x="189.75" y="-185.45" font-family="Helvetica,sans-Serif" font-size="14.00">value = 11.305</text>
</g>
<!-- 2&#45;&gt;3 -->
<g id="edge3" class="edge">
<title>2&#45;&gt;3</title>
<path fill="none" stroke="black" d="M372.34,-289.99C349.8,-277.86 323.72,-263.81 300.32,-251.21"/>
<polygon fill="black" stroke="black" points="302.26,-248.28 291.8,-246.62 298.95,-254.45 302.26,-248.28"/>
</g>
<!-- 208 -->
<g id="node11" class="node">
<title>208</title>
<path fill="#f4caac" stroke="black" d="M473.38,-250C473.38,-250 384.62,-250 384.62,-250 378.62,-250 372.62,-244 372.62,-238 372.62,-238 372.62,-191 372.62,-191 372.62,-185 378.62,-179 384.62,-179 384.62,-179 473.38,-179 473.38,-179 479.38,-179 485.38,-185 485.38,-191 485.38,-191 485.38,-238 485.38,-238 485.38,-244 479.38,-250 473.38,-250"/>
<text text-anchor="start" x="388.88" y="-232.7" font-family="Helvetica,sans-Serif" font-size="14.00">P4_6_1 ≤ 1.5</text>
<text text-anchor="start" x="381" y="-216.95" font-family="Helvetica,sans-Serif" font-size="14.00">poisson = 0.164</text>
<text text-anchor="start" x="380.62" y="-201.2" font-family="Helvetica,sans-Serif" font-size="14.00">samples = 1095</text>
<text text-anchor="start" x="388.12" y="-185.45" font-family="Helvetica,sans-Serif" font-size="14.00">value = 9.559</text>
</g>
<!-- 2&#45;&gt;208 -->
<g id="edge10" class="edge">
<title>2&#45;&gt;208</title>
<path fill="none" stroke="black" d="M429,-285.54C429,-277.92 429,-269.75 429,-261.77"/>
<polygon fill="black" stroke="black" points="432.5,-261.82 429,-251.82 425.5,-261.82 432.5,-261.82"/>
</g>
<!-- 4 -->
<g id="node5" class="node">
<title>4</title>
<path fill="#f1ba92" stroke="black" d="M139.62,-143C139.62,-143 58.38,-143 58.38,-143 52.38,-143 46.38,-137 46.38,-131 46.38,-131 46.38,-84 46.38,-84 46.38,-78 52.38,-72 58.38,-72 58.38,-72 139.62,-72 139.62,-72 145.62,-72 151.62,-78 151.62,-84 151.62,-84 151.62,-131 151.62,-131 151.62,-137 145.62,-143 139.62,-143"/>
<text text-anchor="start" x="58.88" y="-125.7" font-family="Helvetica,sans-Serif" font-size="14.00">P7_1_2 ≤ 2.5</text>
<text text-anchor="start" x="54.75" y="-109.95" font-family="Helvetica,sans-Serif" font-size="14.00">poisson = 0.13</text>
<text text-anchor="start" x="54.38" y="-94.2" font-family="Helvetica,sans-Serif" font-size="14.00">samples = 950</text>
<text text-anchor="start" x="54.75" y="-78.45" font-family="Helvetica,sans-Serif" font-size="14.00">value = 11.705</text>
</g>
<!-- 3&#45;&gt;4 -->
<g id="edge4" class="edge">
<title>3&#45;&gt;4</title>
<path fill="none" stroke="black" d="M189.05,-178.54C177.43,-169.5 164.81,-159.69 152.8,-150.34"/>
<polygon fill="black" stroke="black" points="154.99,-147.62 144.95,-144.24 150.7,-153.14 154.99,-147.62"/>
</g>
<!-- 155 -->
<g id="node8" class="node">
<title>155</title>
<path fill="#f4c9a9" stroke="black" d="M278,-143C278,-143 190,-143 190,-143 184,-143 178,-137 178,-131 178,-131 178,-84 178,-84 178,-78 184,-72 190,-72 190,-72 278,-72 278,-72 284,-72 290,-78 290,-84 290,-84 290,-131 290,-131 290,-137 284,-143 278,-143"/>
<text text-anchor="start" x="197.62" y="-125.7" font-family="Helvetica,sans-Serif" font-size="14.00">P12_4 ≤ 2.5</text>
<text text-anchor="start" x="186" y="-109.95" font-family="Helvetica,sans-Serif" font-size="14.00">poisson = 0.154</text>
<text text-anchor="start" x="189.38" y="-94.2" font-family="Helvetica,sans-Serif" font-size="14.00">samples = 249</text>
<text text-anchor="start" x="193.12" y="-78.45" font-family="Helvetica,sans-Serif" font-size="14.00">value = 9.778</text>
</g>
<!-- 3&#45;&gt;155 -->
<g id="edge7" class="edge">
<title>3&#45;&gt;155</title>
<path fill="none" stroke="black" d="M234,-178.54C234,-170.92 234,-162.75 234,-154.77"/>
<polygon fill="black" stroke="black" points="237.5,-154.82 234,-144.82 230.5,-154.82 237.5,-154.82"/>
</g>
<!-- 5 -->
<g id="node6" class="node">
<title>5</title>
<path fill="#c0c0c0" stroke="black" d="M42,-36C42,-36 12,-36 12,-36 6,-36 0,-30 0,-24 0,-24 0,-12 0,-12 0,-6 6,0 12,0 12,0 42,0 42,0 48,0 54,-6 54,-12 54,-12 54,-24 54,-24 54,-30 48,-36 42,-36"/>
<text text-anchor="middle" x="27" y="-12.57" font-family="Helvetica,sans-Serif" font-size="14.00">(...)</text>
</g>
<!-- 4&#45;&gt;5 -->
<g id="edge5" class="edge">
<title>4&#45;&gt;5</title>
<path fill="none" stroke="black" d="M70.34,-71.67C62.96,-62.71 55.16,-53.23 48.24,-44.81"/>
<polygon fill="black" stroke="black" points="51.16,-42.85 42.1,-37.35 45.75,-47.3 51.16,-42.85"/>
</g>
<!-- 62 -->
<g id="node7" class="node">
<title>62</title>
<path fill="#c0c0c0" stroke="black" d="M114,-36C114,-36 84,-36 84,-36 78,-36 72,-30 72,-24 72,-24 72,-12 72,-12 72,-6 78,0 84,0 84,0 114,0 114,0 120,0 126,-6 126,-12 126,-12 126,-24 126,-24 126,-30 120,-36 114,-36"/>
<text text-anchor="middle" x="99" y="-12.57" font-family="Helvetica,sans-Serif" font-size="14.00">(...)</text>
</g>
<!-- 4&#45;&gt;62 -->
<g id="edge6" class="edge">
<title>4&#45;&gt;62</title>
<path fill="none" stroke="black" d="M99,-71.67C99,-63.66 99,-55.24 99,-47.53"/>
<polygon fill="black" stroke="black" points="102.5,-47.7 99,-37.7 95.5,-47.7 102.5,-47.7"/>
</g>
<!-- 156 -->
<g id="node9" class="node">
<title>156</title>
<path fill="#c0c0c0" stroke="black" d="M186,-36C186,-36 156,-36 156,-36 150,-36 144,-30 144,-24 144,-24 144,-12 144,-12 144,-6 150,0 156,0 156,0 186,0 186,0 192,0 198,-6 198,-12 198,-12 198,-24 198,-24 198,-30 192,-36 186,-36"/>
<text text-anchor="middle" x="171" y="-12.57" font-family="Helvetica,sans-Serif" font-size="14.00">(...)</text>
</g>
<!-- 155&#45;&gt;156 -->
<g id="edge8" class="edge">
<title>155&#45;&gt;156</title>
<path fill="none" stroke="black" d="M208.92,-71.67C202.61,-62.9 195.93,-53.63 189.97,-45.35"/>
<polygon fill="black" stroke="black" points="192.94,-43.48 184.26,-37.41 187.26,-47.57 192.94,-43.48"/>
</g>
<!-- 169 -->
<g id="node10" class="node">
<title>169</title>
<path fill="#c0c0c0" stroke="black" d="M258,-36C258,-36 228,-36 228,-36 222,-36 216,-30 216,-24 216,-24 216,-12 216,-12 216,-6 222,0 228,0 228,0 258,0 258,0 264,0 270,-6 270,-12 270,-12 270,-24 270,-24 270,-30 264,-36 258,-36"/>
<text text-anchor="middle" x="243" y="-12.57" font-family="Helvetica,sans-Serif" font-size="14.00">(...)</text>
</g>
<!-- 155&#45;&gt;169 -->
<g id="edge9" class="edge">
<title>155&#45;&gt;169</title>
<path fill="none" stroke="black" d="M237.58,-71.67C238.41,-63.66 239.27,-55.24 240.07,-47.53"/>
<polygon fill="black" stroke="black" points="243.54,-47.99 241.08,-37.69 236.57,-47.28 243.54,-47.99"/>
</g>
<!-- 209 -->
<g id="node12" class="node">
<title>209</title>
<path fill="#f3c7a6" stroke="black" d="M419,-143C419,-143 331,-143 331,-143 325,-143 319,-137 319,-131 319,-131 319,-84 319,-84 319,-78 325,-72 331,-72 331,-72 419,-72 419,-72 425,-72 431,-78 431,-84 431,-84 431,-131 431,-131 431,-137 425,-143 419,-143"/>
<text text-anchor="start" x="334.88" y="-125.7" font-family="Helvetica,sans-Serif" font-size="14.00">P4_7_3 ≤ 0.5</text>
<text text-anchor="start" x="327" y="-109.95" font-family="Helvetica,sans-Serif" font-size="14.00">poisson = 0.121</text>
<text text-anchor="start" x="330.38" y="-94.2" font-family="Helvetica,sans-Serif" font-size="14.00">samples = 820</text>
<text text-anchor="start" x="334.12" y="-78.45" font-family="Helvetica,sans-Serif" font-size="14.00">value = 10.02</text>
</g>
<!-- 208&#45;&gt;209 -->
<g id="edge11" class="edge">
<title>208&#45;&gt;209</title>
<path fill="none" stroke="black" d="M411.02,-178.54C406.87,-170.48 402.41,-161.8 398.08,-153.38"/>
<polygon fill="black" stroke="black" points="401.28,-151.95 393.59,-144.66 395.06,-155.15 401.28,-151.95"/>
</g>
<!-- 324 -->
<g id="node15" class="node">
<title>324</title>
<path fill="#f6d5bd" stroke="black" d="M549,-143C549,-143 461,-143 461,-143 455,-143 449,-137 449,-131 449,-131 449,-84 449,-84 449,-78 455,-72 461,-72 461,-72 549,-72 549,-72 555,-72 561,-78 561,-84 561,-84 561,-131 561,-131 561,-137 555,-143 549,-143"/>
<text text-anchor="start" x="464.88" y="-125.7" font-family="Helvetica,sans-Serif" font-size="14.00">P4_7_3 ≤ 0.5</text>
<text text-anchor="start" x="457" y="-109.95" font-family="Helvetica,sans-Serif" font-size="14.00">poisson = 0.154</text>
<text text-anchor="start" x="460.38" y="-94.2" font-family="Helvetica,sans-Serif" font-size="14.00">samples = 275</text>
<text text-anchor="start" x="464.12" y="-78.45" font-family="Helvetica,sans-Serif" font-size="14.00">value = 8.183</text>
</g>
<!-- 208&#45;&gt;324 -->
<g id="edge14" class="edge">
<title>208&#45;&gt;324</title>
<path fill="none" stroke="black" d="M454.31,-178.54C460.33,-170.21 466.84,-161.22 473.12,-152.55"/>
<polygon fill="black" stroke="black" points="475.89,-154.69 478.92,-144.54 470.22,-150.59 475.89,-154.69"/>
</g>
<!-- 210 -->
<g id="node13" class="node">
<title>210</title>
<path fill="#c0c0c0" stroke="black" d="M330,-36C330,-36 300,-36 300,-36 294,-36 288,-30 288,-24 288,-24 288,-12 288,-12 288,-6 294,0 300,0 300,0 330,0 330,0 336,0 342,-6 342,-12 342,-12 342,-24 342,-24 342,-30 336,-36 330,-36"/>
<text text-anchor="middle" x="315" y="-12.57" font-family="Helvetica,sans-Serif" font-size="14.00">(...)</text>
</g>
<!-- 209&#45;&gt;210 -->
<g id="edge12" class="edge">
<title>209&#45;&gt;210</title>
<path fill="none" stroke="black" d="M351.11,-71.67C345.17,-62.99 338.88,-53.83 333.26,-45.62"/>
<polygon fill="black" stroke="black" points="336.18,-43.7 327.64,-37.43 330.41,-47.66 336.18,-43.7"/>
</g>
<!-- 277 -->
<g id="node14" class="node">
<title>277</title>
<path fill="#c0c0c0" stroke="black" d="M402,-36C402,-36 372,-36 372,-36 366,-36 360,-30 360,-24 360,-24 360,-12 360,-12 360,-6 366,0 372,0 372,0 402,0 402,0 408,0 414,-6 414,-12 414,-12 414,-24 414,-24 414,-30 408,-36 402,-36"/>
<text text-anchor="middle" x="387" y="-12.57" font-family="Helvetica,sans-Serif" font-size="14.00">(...)</text>
</g>
<!-- 209&#45;&gt;277 -->
<g id="edge13" class="edge">
<title>209&#45;&gt;277</title>
<path fill="none" stroke="black" d="M379.78,-71.67C380.88,-63.66 382.03,-55.24 383.09,-47.53"/>
<polygon fill="black" stroke="black" points="386.55,-48.07 384.44,-37.68 379.61,-47.11 386.55,-48.07"/>
</g>
<!-- 325 -->
<g id="node16" class="node">
<title>325</title>
<path fill="#c0c0c0" stroke="black" d="M474,-36C474,-36 444,-36 444,-36 438,-36 432,-30 432,-24 432,-24 432,-12 432,-12 432,-6 438,0 444,0 444,0 474,0 474,0 480,0 486,-6 486,-12 486,-12 486,-24 486,-24 486,-30 480,-36 474,-36"/>
<text text-anchor="middle" x="459" y="-12.57" font-family="Helvetica,sans-Serif" font-size="14.00">(...)</text>
</g>
<!-- 324&#45;&gt;325 -->
<g id="edge15" class="edge">
<title>324&#45;&gt;325</title>
<path fill="none" stroke="black" d="M486.69,-71.67C482.23,-63.18 477.52,-54.23 473.28,-46.17"/>
<polygon fill="black" stroke="black" points="476.49,-44.75 468.74,-37.52 470.29,-48 476.49,-44.75"/>
</g>
<!-- 360 -->
<g id="node17" class="node">
<title>360</title>
<path fill="#c0c0c0" stroke="black" d="M546,-36C546,-36 516,-36 516,-36 510,-36 504,-30 504,-24 504,-24 504,-12 504,-12 504,-6 510,0 516,0 516,0 546,0 546,0 552,0 558,-6 558,-12 558,-12 558,-24 558,-24 558,-30 552,-36 546,-36"/>
<text text-anchor="middle" x="531" y="-12.57" font-family="Helvetica,sans-Serif" font-size="14.00">(...)</text>
</g>
<!-- 324&#45;&gt;360 -->
<g id="edge16" class="edge">
<title>324&#45;&gt;360</title>
<path fill="none" stroke="black" d="M515.35,-71.67C517.79,-63.47 520.35,-54.84 522.68,-46.98"/>
<polygon fill="black" stroke="black" points="525.97,-48.22 525.46,-37.63 519.26,-46.22 525.97,-48.22"/>
</g>
<!-- 380 -->
<g id="node19" class="node">
<title>380</title>
<path fill="#f5cfb3" stroke="black" d="M834.38,-250C834.38,-250 745.62,-250 745.62,-250 739.62,-250 733.62,-244 733.62,-238 733.62,-238 733.62,-191 733.62,-191 733.62,-185 739.62,-179 745.62,-179 745.62,-179 834.38,-179 834.38,-179 840.38,-179 846.38,-185 846.38,-191 846.38,-191 846.38,-238 846.38,-238 846.38,-244 840.38,-250 834.38,-250"/>
<text text-anchor="start" x="749.88" y="-232.7" font-family="Helvetica,sans-Serif" font-size="14.00">P4_6_1 ≤ 1.5</text>
<text text-anchor="start" x="742" y="-216.95" font-family="Helvetica,sans-Serif" font-size="14.00">poisson = 0.201</text>
<text text-anchor="start" x="741.62" y="-201.2" font-family="Helvetica,sans-Serif" font-size="14.00">samples = 1676</text>
<text text-anchor="start" x="749.12" y="-185.45" font-family="Helvetica,sans-Serif" font-size="14.00">value = 9.002</text>
</g>
<!-- 379&#45;&gt;380 -->
<g id="edge18" class="edge">
<title>379&#45;&gt;380</title>
<path fill="none" stroke="black" d="M833.36,-285.54C828.26,-277.3 822.76,-268.42 817.44,-259.83"/>
<polygon fill="black" stroke="black" points="820.59,-258.26 812.35,-251.6 814.63,-261.94 820.59,-258.26"/>
</g>
<!-- 661 -->
<g id="node26" class="node">
<title>661</title>
<path fill="#f8dcc9" stroke="black" d="M965.38,-250C965.38,-250 876.62,-250 876.62,-250 870.62,-250 864.62,-244 864.62,-238 864.62,-238 864.62,-191 864.62,-191 864.62,-185 870.62,-179 876.62,-179 876.62,-179 965.38,-179 965.38,-179 971.38,-179 977.38,-185 977.38,-191 977.38,-191 977.38,-238 977.38,-238 977.38,-244 971.38,-250 965.38,-250"/>
<text text-anchor="start" x="880.88" y="-232.7" font-family="Helvetica,sans-Serif" font-size="14.00">P4_6_2 ≤ 1.5</text>
<text text-anchor="start" x="873" y="-216.95" font-family="Helvetica,sans-Serif" font-size="14.00">poisson = 0.239</text>
<text text-anchor="start" x="872.62" y="-201.2" font-family="Helvetica,sans-Serif" font-size="14.00">samples = 1068</text>
<text text-anchor="start" x="880.12" y="-185.45" font-family="Helvetica,sans-Serif" font-size="14.00">value = 7.242</text>
</g>
<!-- 379&#45;&gt;661 -->
<g id="edge25" class="edge">
<title>379&#45;&gt;661</title>
<path fill="none" stroke="black" d="M876.98,-285.54C882.15,-277.3 887.74,-268.42 893.14,-259.83"/>
<polygon fill="black" stroke="black" points="895.95,-261.92 898.31,-251.59 890.03,-258.2 895.95,-261.92"/>
</g>
<!-- 381 -->
<g id="node20" class="node">
<title>381</title>
<path fill="#f4caab" stroke="black" d="M704.38,-143C704.38,-143 615.62,-143 615.62,-143 609.62,-143 603.62,-137 603.62,-131 603.62,-131 603.62,-84 603.62,-84 603.62,-78 609.62,-72 615.62,-72 615.62,-72 704.38,-72 704.38,-72 710.38,-72 716.38,-78 716.38,-84 716.38,-84 716.38,-131 716.38,-131 716.38,-137 710.38,-143 704.38,-143"/>
<text text-anchor="start" x="616.5" y="-125.7" font-family="Helvetica,sans-Serif" font-size="14.00">P11_3_9 ≤ 0.5</text>
<text text-anchor="start" x="612" y="-109.95" font-family="Helvetica,sans-Serif" font-size="14.00">poisson = 0.152</text>
<text text-anchor="start" x="611.62" y="-94.2" font-family="Helvetica,sans-Serif" font-size="14.00">samples = 1063</text>
<text text-anchor="start" x="619.12" y="-78.45" font-family="Helvetica,sans-Serif" font-size="14.00">value = 9.624</text>
</g>
<!-- 380&#45;&gt;381 -->
<g id="edge19" class="edge">
<title>380&#45;&gt;381</title>
<path fill="none" stroke="black" d="M746.71,-178.54C735.53,-169.5 723.38,-159.69 711.81,-150.34"/>
<polygon fill="black" stroke="black" points="714.26,-147.82 704.28,-144.26 709.86,-153.27 714.26,-147.82"/>
</g>
<!-- 546 -->
<g id="node23" class="node">
<title>546</title>
<path fill="#f7d7c0" stroke="black" d="M834,-143C834,-143 746,-143 746,-143 740,-143 734,-137 734,-131 734,-131 734,-84 734,-84 734,-78 740,-72 746,-72 746,-72 834,-72 834,-72 840,-72 846,-78 846,-84 846,-84 846,-131 846,-131 846,-137 840,-143 834,-143"/>
<text text-anchor="start" x="746.5" y="-125.7" font-family="Helvetica,sans-Serif" font-size="14.00">P11_3_9 ≤ 0.5</text>
<text text-anchor="start" x="742" y="-109.95" font-family="Helvetica,sans-Serif" font-size="14.00">poisson = 0.182</text>
<text text-anchor="start" x="745.38" y="-94.2" font-family="Helvetica,sans-Serif" font-size="14.00">samples = 613</text>
<text text-anchor="start" x="749.12" y="-78.45" font-family="Helvetica,sans-Serif" font-size="14.00">value = 7.922</text>
</g>
<!-- 380&#45;&gt;546 -->
<g id="edge22" class="edge">
<title>380&#45;&gt;546</title>
<path fill="none" stroke="black" d="M790,-178.54C790,-170.92 790,-162.75 790,-154.77"/>
<polygon fill="black" stroke="black" points="793.5,-154.82 790,-144.82 786.5,-154.82 793.5,-154.82"/>
</g>
<!-- 382 -->
<g id="node21" class="node">
<title>382</title>
<path fill="#c0c0c0" stroke="black" d="M618,-36C618,-36 588,-36 588,-36 582,-36 576,-30 576,-24 576,-24 576,-12 576,-12 576,-6 582,0 588,0 588,0 618,0 618,0 624,0 630,-6 630,-12 630,-12 630,-24 630,-24 630,-30 624,-36 618,-36"/>
<text text-anchor="middle" x="603" y="-12.57" font-family="Helvetica,sans-Serif" font-size="14.00">(...)</text>
</g>
<!-- 381&#45;&gt;382 -->
<g id="edge20" class="edge">
<title>381&#45;&gt;382</title>
<path fill="none" stroke="black" d="M637.31,-71.67C631.66,-62.99 625.69,-53.83 620.34,-45.62"/>
<polygon fill="black" stroke="black" points="623.41,-43.92 615.02,-37.45 617.55,-47.74 623.41,-43.92"/>
</g>
<!-- 471 -->
<g id="node22" class="node">
<title>471</title>
<path fill="#c0c0c0" stroke="black" d="M690,-36C690,-36 660,-36 660,-36 654,-36 648,-30 648,-24 648,-24 648,-12 648,-12 648,-6 654,0 660,0 660,0 690,0 690,0 696,0 702,-6 702,-12 702,-12 702,-24 702,-24 702,-30 696,-36 690,-36"/>
<text text-anchor="middle" x="675" y="-12.57" font-family="Helvetica,sans-Serif" font-size="14.00">(...)</text>
</g>
<!-- 381&#45;&gt;471 -->
<g id="edge21" class="edge">
<title>381&#45;&gt;471</title>
<path fill="none" stroke="black" d="M665.97,-71.67C667.36,-63.56 668.82,-55.04 670.16,-47.26"/>
<polygon fill="black" stroke="black" points="673.56,-48.12 671.8,-37.67 666.66,-46.94 673.56,-48.12"/>
</g>
<!-- 547 -->
<g id="node24" class="node">
<title>547</title>
<path fill="#c0c0c0" stroke="black" d="M762,-36C762,-36 732,-36 732,-36 726,-36 720,-30 720,-24 720,-24 720,-12 720,-12 720,-6 726,0 732,0 732,0 762,0 762,0 768,0 774,-6 774,-12 774,-12 774,-24 774,-24 774,-30 768,-36 762,-36"/>
<text text-anchor="middle" x="747" y="-12.57" font-family="Helvetica,sans-Serif" font-size="14.00">(...)</text>
</g>
<!-- 546&#45;&gt;547 -->
<g id="edge23" class="edge">
<title>546&#45;&gt;547</title>
<path fill="none" stroke="black" d="M772.88,-71.67C768.76,-63.28 764.41,-54.43 760.48,-46.44"/>
<polygon fill="black" stroke="black" points="763.66,-44.97 756.11,-37.54 757.38,-48.06 763.66,-44.97"/>
</g>
<!-- 608 -->
<g id="node25" class="node">
<title>608</title>
<path fill="#c0c0c0" stroke="black" d="M834,-36C834,-36 804,-36 804,-36 798,-36 792,-30 792,-24 792,-24 792,-12 792,-12 792,-6 798,0 804,0 804,0 834,0 834,0 840,0 846,-6 846,-12 846,-12 846,-24 846,-24 846,-30 840,-36 834,-36"/>
<text text-anchor="middle" x="819" y="-12.57" font-family="Helvetica,sans-Serif" font-size="14.00">(...)</text>
</g>
<!-- 546&#45;&gt;608 -->
<g id="edge24" class="edge">
<title>546&#45;&gt;608</title>
<path fill="none" stroke="black" d="M801.54,-71.67C804.26,-63.47 807.12,-54.84 809.73,-46.98"/>
<polygon fill="black" stroke="black" points="813.01,-48.21 812.83,-37.62 806.36,-46.01 813.01,-48.21"/>
</g>
<!-- 662 -->
<g id="node27" class="node">
<title>662</title>
<path fill="#f7d8c2" stroke="black" d="M965,-143C965,-143 877,-143 877,-143 871,-143 865,-137 865,-131 865,-131 865,-84 865,-84 865,-78 871,-72 877,-72 877,-72 965,-72 965,-72 971,-72 977,-78 977,-84 977,-84 977,-131 977,-131 977,-137 971,-143 965,-143"/>
<text text-anchor="start" x="877.5" y="-125.7" font-family="Helvetica,sans-Serif" font-size="14.00">P11_3_9 ≤ 0.5</text>
<text text-anchor="start" x="873" y="-109.95" font-family="Helvetica,sans-Serif" font-size="14.00">poisson = 0.177</text>
<text text-anchor="start" x="876.38" y="-94.2" font-family="Helvetica,sans-Serif" font-size="14.00">samples = 740</text>
<text text-anchor="start" x="880.12" y="-78.45" font-family="Helvetica,sans-Serif" font-size="14.00">value = 7.777</text>
</g>
<!-- 661&#45;&gt;662 -->
<g id="edge26" class="edge">
<title>661&#45;&gt;662</title>
<path fill="none" stroke="black" d="M921,-178.54C921,-170.92 921,-162.75 921,-154.77"/>
<polygon fill="black" stroke="black" points="924.5,-154.82 921,-144.82 917.5,-154.82 924.5,-154.82"/>
</g>
<!-- 807 -->
<g id="node30" class="node">
<title>807</title>
<path fill="#fae6d7" stroke="black" d="M1095,-143C1095,-143 1007,-143 1007,-143 1001,-143 995,-137 995,-131 995,-131 995,-84 995,-84 995,-78 1001,-72 1007,-72 1007,-72 1095,-72 1095,-72 1101,-72 1107,-78 1107,-84 1107,-84 1107,-131 1107,-131 1107,-137 1101,-143 1095,-143"/>
<text text-anchor="start" x="1007.5" y="-125.7" font-family="Helvetica,sans-Serif" font-size="14.00">P11_3_9 ≤ 0.5</text>
<text text-anchor="start" x="1003" y="-109.95" font-family="Helvetica,sans-Serif" font-size="14.00">poisson = 0.228</text>
<text text-anchor="start" x="1006.38" y="-94.2" font-family="Helvetica,sans-Serif" font-size="14.00">samples = 328</text>
<text text-anchor="start" x="1010.12" y="-78.45" font-family="Helvetica,sans-Serif" font-size="14.00">value = 6.033</text>
</g>
<!-- 661&#45;&gt;807 -->
<g id="edge29" class="edge">
<title>661&#45;&gt;807</title>
<path fill="none" stroke="black" d="M964.29,-178.54C975.47,-169.5 987.62,-159.69 999.19,-150.34"/>
<polygon fill="black" stroke="black" points="1001.14,-153.27 1006.72,-144.26 996.74,-147.82 1001.14,-153.27"/>
</g>
<!-- 663 -->
<g id="node28" class="node">
<title>663</title>
<path fill="#c0c0c0" stroke="black" d="M906,-36C906,-36 876,-36 876,-36 870,-36 864,-30 864,-24 864,-24 864,-12 864,-12 864,-6 870,0 876,0 876,0 906,0 906,0 912,0 918,-6 918,-12 918,-12 918,-24 918,-24 918,-30 912,-36 906,-36"/>
<text text-anchor="middle" x="891" y="-12.57" font-family="Helvetica,sans-Serif" font-size="14.00">(...)</text>
</g>
<!-- 662&#45;&gt;663 -->
<g id="edge27" class="edge">
<title>662&#45;&gt;663</title>
<path fill="none" stroke="black" d="M909.06,-71.67C906.25,-63.47 903.29,-54.84 900.59,-46.98"/>
<polygon fill="black" stroke="black" points="903.94,-45.94 897.38,-37.61 897.31,-48.21 903.94,-45.94"/>
</g>
<!-- 730 -->
<g id="node29" class="node">
<title>730</title>
<path fill="#c0c0c0" stroke="black" d="M978,-36C978,-36 948,-36 948,-36 942,-36 936,-30 936,-24 936,-24 936,-12 936,-12 936,-6 942,0 948,0 948,0 978,0 978,0 984,0 990,-6 990,-12 990,-12 990,-24 990,-24 990,-30 984,-36 978,-36"/>
<text text-anchor="middle" x="963" y="-12.57" font-family="Helvetica,sans-Serif" font-size="14.00">(...)</text>
</g>
<!-- 662&#45;&gt;730 -->
<g id="edge28" class="edge">
<title>662&#45;&gt;730</title>
<path fill="none" stroke="black" d="M937.72,-71.67C941.75,-63.28 945.99,-54.43 949.83,-46.44"/>
<polygon fill="black" stroke="black" points="952.93,-48.08 954.1,-37.55 946.61,-45.05 952.93,-48.08"/>
</g>
<!-- 808 -->
<g id="node31" class="node">
<title>808</title>
<path fill="#c0c0c0" stroke="black" d="M1050,-36C1050,-36 1020,-36 1020,-36 1014,-36 1008,-30 1008,-24 1008,-24 1008,-12 1008,-12 1008,-6 1014,0 1020,0 1020,0 1050,0 1050,0 1056,0 1062,-6 1062,-12 1062,-12 1062,-24 1062,-24 1062,-30 1056,-36 1050,-36"/>
<text text-anchor="middle" x="1035" y="-12.57" font-family="Helvetica,sans-Serif" font-size="14.00">(...)</text>
</g>
<!-- 807&#45;&gt;808 -->
<g id="edge30" class="edge">
<title>807&#45;&gt;808</title>
<path fill="none" stroke="black" d="M1044.63,-71.67C1043.15,-63.56 1041.59,-55.04 1040.17,-47.26"/>
<polygon fill="black" stroke="black" points="1043.66,-46.88 1038.41,-37.67 1036.77,-48.14 1043.66,-46.88"/>
</g>
<!-- 837 -->
<g id="node32" class="node">
<title>837</title>
<path fill="#c0c0c0" stroke="black" d="M1122,-36C1122,-36 1092,-36 1092,-36 1086,-36 1080,-30 1080,-24 1080,-24 1080,-12 1080,-12 1080,-6 1086,0 1092,0 1092,0 1122,0 1122,0 1128,0 1134,-6 1134,-12 1134,-12 1134,-24 1134,-24 1134,-30 1128,-36 1122,-36"/>
<text text-anchor="middle" x="1107" y="-12.57" font-family="Helvetica,sans-Serif" font-size="14.00">(...)</text>
</g>
<!-- 807&#45;&gt;837 -->
<g id="edge31" class="edge">
<title>807&#45;&gt;837</title>
<path fill="none" stroke="black" d="M1073.29,-71.67C1078.84,-62.99 1084.71,-53.83 1089.96,-45.62"/>
<polygon fill="black" stroke="black" points="1092.74,-47.77 1095.19,-37.46 1086.85,-43.99 1092.74,-47.77"/>
</g>
<!-- 875 -->
<g id="node34" class="node">
<title>875</title>
<path fill="#eda775" stroke="black" d="M1476.38,-357C1476.38,-357 1387.62,-357 1387.62,-357 1381.62,-357 1375.62,-351 1375.62,-345 1375.62,-345 1375.62,-298 1375.62,-298 1375.62,-292 1381.62,-286 1387.62,-286 1387.62,-286 1476.38,-286 1476.38,-286 1482.38,-286 1488.38,-292 1488.38,-298 1488.38,-298 1488.38,-345 1488.38,-345 1488.38,-351 1482.38,-357 1476.38,-357"/>
<text text-anchor="start" x="1391.88" y="-339.7" font-family="Helvetica,sans-Serif" font-size="14.00">P4_6_3 ≤ 2.5</text>
<text text-anchor="start" x="1384" y="-323.95" font-family="Helvetica,sans-Serif" font-size="14.00">poisson = 0.175</text>
<text text-anchor="start" x="1383.62" y="-308.2" font-family="Helvetica,sans-Serif" font-size="14.00">samples = 9346</text>
<text text-anchor="start" x="1387.38" y="-292.45" font-family="Helvetica,sans-Serif" font-size="14.00">value = 14.019</text>
</g>
<!-- 874&#45;&gt;875 -->
<g id="edge33" class="edge">
<title>874&#45;&gt;875</title>
<path fill="none" stroke="black" d="M1432,-392.54C1432,-384.92 1432,-376.75 1432,-368.77"/>
<polygon fill="black" stroke="black" points="1435.5,-368.82 1432,-358.82 1428.5,-368.82 1435.5,-368.82"/>
</g>
<!-- 1818 -->
<g id="node49" class="node">
<title>1818</title>
<path fill="#f1bc95" stroke="black" d="M1892.12,-357C1892.12,-357 1795.88,-357 1795.88,-357 1789.88,-357 1783.88,-351 1783.88,-345 1783.88,-345 1783.88,-298 1783.88,-298 1783.88,-292 1789.88,-286 1795.88,-286 1795.88,-286 1892.12,-286 1892.12,-286 1898.12,-286 1904.12,-292 1904.12,-298 1904.12,-298 1904.12,-345 1904.12,-345 1904.12,-351 1898.12,-357 1892.12,-357"/>
<text text-anchor="start" x="1803.88" y="-339.7" font-family="Helvetica,sans-Serif" font-size="14.00">P4_6_1 ≤ 1.5</text>
<text text-anchor="start" x="1796" y="-323.95" font-family="Helvetica,sans-Serif" font-size="14.00">poisson = 0.249</text>
<text text-anchor="start" x="1791.88" y="-308.2" font-family="Helvetica,sans-Serif" font-size="14.00">samples = 12672</text>
<text text-anchor="start" x="1799.75" y="-292.45" font-family="Helvetica,sans-Serif" font-size="14.00">value = 11.431</text>
</g>
<!-- 874&#45;&gt;1818 -->
<g id="edge48" class="edge">
<title>874&#45;&gt;1818</title>
<path fill="none" stroke="black" d="M1492.35,-412.12C1566.85,-393.13 1693.39,-360.88 1772.63,-340.69"/>
<polygon fill="black" stroke="black" points="1773.2,-344.16 1782.02,-338.3 1771.47,-337.37 1773.2,-344.16"/>
</g>
<!-- 876 -->
<g id="node35" class="node">
<title>876</title>
<path fill="#eeae80" stroke="black" d="M1410.38,-250C1410.38,-250 1321.62,-250 1321.62,-250 1315.62,-250 1309.62,-244 1309.62,-238 1309.62,-238 1309.62,-191 1309.62,-191 1309.62,-185 1315.62,-179 1321.62,-179 1321.62,-179 1410.38,-179 1410.38,-179 1416.38,-179 1422.38,-185 1422.38,-191 1422.38,-191 1422.38,-238 1422.38,-238 1422.38,-244 1416.38,-250 1410.38,-250"/>
<text text-anchor="start" x="1333.38" y="-232.7" font-family="Helvetica,sans-Serif" font-size="14.00">P4_1 ≤ 0.5</text>
<text text-anchor="start" x="1321.75" y="-216.95" font-family="Helvetica,sans-Serif" font-size="14.00">poisson = 0.15</text>
<text text-anchor="start" x="1317.62" y="-201.2" font-family="Helvetica,sans-Serif" font-size="14.00">samples = 4977</text>
<text text-anchor="start" x="1321.38" y="-185.45" font-family="Helvetica,sans-Serif" font-size="14.00">value = 13.127</text>
</g>
<!-- 875&#45;&gt;876 -->
<g id="edge34" class="edge">
<title>875&#45;&gt;876</title>
<path fill="none" stroke="black" d="M1410.02,-285.54C1404.85,-277.3 1399.26,-268.42 1393.86,-259.83"/>
<polygon fill="black" stroke="black" points="1396.97,-258.2 1388.69,-251.59 1391.05,-261.92 1396.97,-258.2"/>
</g>
<!-- 1361 -->
<g id="node42" class="node">
<title>1361</title>
<path fill="#eba069" stroke="black" d="M1541.38,-250C1541.38,-250 1452.62,-250 1452.62,-250 1446.62,-250 1440.62,-244 1440.62,-238 1440.62,-238 1440.62,-191 1440.62,-191 1440.62,-185 1446.62,-179 1452.62,-179 1452.62,-179 1541.38,-179 1541.38,-179 1547.38,-179 1553.38,-185 1553.38,-191 1553.38,-191 1553.38,-238 1553.38,-238 1553.38,-244 1547.38,-250 1541.38,-250"/>
<text text-anchor="start" x="1464.38" y="-232.7" font-family="Helvetica,sans-Serif" font-size="14.00">P4_1 ≤ 0.5</text>
<text text-anchor="start" x="1449" y="-216.95" font-family="Helvetica,sans-Serif" font-size="14.00">poisson = 0.135</text>
<text text-anchor="start" x="1448.62" y="-201.2" font-family="Helvetica,sans-Serif" font-size="14.00">samples = 4369</text>
<text text-anchor="start" x="1452.38" y="-185.45" font-family="Helvetica,sans-Serif" font-size="14.00">value = 15.035</text>
</g>
<!-- 875&#45;&gt;1361 -->
<g id="edge41" class="edge">
<title>875&#45;&gt;1361</title>
<path fill="none" stroke="black" d="M1453.64,-285.54C1458.74,-277.3 1464.24,-268.42 1469.56,-259.83"/>
<polygon fill="black" stroke="black" points="1472.37,-261.94 1474.65,-251.6 1466.41,-258.26 1472.37,-261.94"/>
</g>
<!-- 877 -->
<g id="node36" class="node">
<title>877</title>
<path fill="#eca471" stroke="black" d="M1279.38,-143C1279.38,-143 1190.62,-143 1190.62,-143 1184.62,-143 1178.62,-137 1178.62,-131 1178.62,-131 1178.62,-84 1178.62,-84 1178.62,-78 1184.62,-72 1190.62,-72 1190.62,-72 1279.38,-72 1279.38,-72 1285.38,-72 1291.38,-78 1291.38,-84 1291.38,-84 1291.38,-131 1291.38,-131 1291.38,-137 1285.38,-143 1279.38,-143"/>
<text text-anchor="start" x="1194.88" y="-125.7" font-family="Helvetica,sans-Serif" font-size="14.00">P4_6_1 ≤ 1.5</text>
<text text-anchor="start" x="1187" y="-109.95" font-family="Helvetica,sans-Serif" font-size="14.00">poisson = 0.105</text>
<text text-anchor="start" x="1186.62" y="-94.2" font-family="Helvetica,sans-Serif" font-size="14.00">samples = 1604</text>
<text text-anchor="start" x="1190.38" y="-78.45" font-family="Helvetica,sans-Serif" font-size="14.00">value = 14.407</text>
</g>
<!-- 876&#45;&gt;877 -->
<g id="edge35" class="edge">
<title>876&#45;&gt;877</title>
<path fill="none" stroke="black" d="M1322.38,-178.54C1311.11,-169.5 1298.86,-159.69 1287.21,-150.34"/>
<polygon fill="black" stroke="black" points="1289.6,-147.78 1279.61,-144.26 1285.23,-153.24 1289.6,-147.78"/>
</g>
<!-- 1068 -->
<g id="node39" class="node">
<title>1068</title>
<path fill="#efb388" stroke="black" d="M1410.38,-143C1410.38,-143 1321.62,-143 1321.62,-143 1315.62,-143 1309.62,-137 1309.62,-131 1309.62,-131 1309.62,-84 1309.62,-84 1309.62,-78 1315.62,-72 1321.62,-72 1321.62,-72 1410.38,-72 1410.38,-72 1416.38,-72 1422.38,-78 1422.38,-84 1422.38,-84 1422.38,-131 1422.38,-131 1422.38,-137 1416.38,-143 1410.38,-143"/>
<text text-anchor="start" x="1325.88" y="-125.7" font-family="Helvetica,sans-Serif" font-size="14.00">P4_6_1 ≤ 1.5</text>
<text text-anchor="start" x="1318" y="-109.95" font-family="Helvetica,sans-Serif" font-size="14.00">poisson = 0.129</text>
<text text-anchor="start" x="1317.62" y="-94.2" font-family="Helvetica,sans-Serif" font-size="14.00">samples = 3373</text>
<text text-anchor="start" x="1321.38" y="-78.45" font-family="Helvetica,sans-Serif" font-size="14.00">value = 12.518</text>
</g>
<!-- 876&#45;&gt;1068 -->
<g id="edge38" class="edge">
<title>876&#45;&gt;1068</title>
<path fill="none" stroke="black" d="M1366,-178.54C1366,-170.92 1366,-162.75 1366,-154.77"/>
<polygon fill="black" stroke="black" points="1369.5,-154.82 1366,-144.82 1362.5,-154.82 1369.5,-154.82"/>
</g>
<!-- 878 -->
<g id="node37" class="node">
<title>878</title>
<path fill="#c0c0c0" stroke="black" d="M1194,-36C1194,-36 1164,-36 1164,-36 1158,-36 1152,-30 1152,-24 1152,-24 1152,-12 1152,-12 1152,-6 1158,0 1164,0 1164,0 1194,0 1194,0 1200,0 1206,-6 1206,-12 1206,-12 1206,-24 1206,-24 1206,-30 1200,-36 1194,-36"/>
<text text-anchor="middle" x="1179" y="-12.57" font-family="Helvetica,sans-Serif" font-size="14.00">(...)</text>
</g>
<!-- 877&#45;&gt;878 -->
<g id="edge36" class="edge">
<title>877&#45;&gt;878</title>
<path fill="none" stroke="black" d="M1212.71,-71.67C1207.16,-62.99 1201.29,-53.83 1196.04,-45.62"/>
<polygon fill="black" stroke="black" points="1199.15,-43.99 1190.81,-37.46 1193.26,-47.77 1199.15,-43.99"/>
</g>
<!-- 1017 -->
<g id="node38" class="node">
<title>1017</title>
<path fill="#c0c0c0" stroke="black" d="M1266,-36C1266,-36 1236,-36 1236,-36 1230,-36 1224,-30 1224,-24 1224,-24 1224,-12 1224,-12 1224,-6 1230,0 1236,0 1236,0 1266,0 1266,0 1272,0 1278,-6 1278,-12 1278,-12 1278,-24 1278,-24 1278,-30 1272,-36 1266,-36"/>
<text text-anchor="middle" x="1251" y="-12.57" font-family="Helvetica,sans-Serif" font-size="14.00">(...)</text>
</g>
<!-- 877&#45;&gt;1017 -->
<g id="edge37" class="edge">
<title>877&#45;&gt;1017</title>
<path fill="none" stroke="black" d="M1241.37,-71.67C1242.85,-63.56 1244.41,-55.04 1245.83,-47.26"/>
<polygon fill="black" stroke="black" points="1249.23,-48.14 1247.59,-37.67 1242.34,-46.88 1249.23,-48.14"/>
</g>
<!-- 1069 -->
<g id="node40" class="node">
<title>1069</title>
<path fill="#c0c0c0" stroke="black" d="M1338,-36C1338,-36 1308,-36 1308,-36 1302,-36 1296,-30 1296,-24 1296,-24 1296,-12 1296,-12 1296,-6 1302,0 1308,0 1308,0 1338,0 1338,0 1344,0 1350,-6 1350,-12 1350,-12 1350,-24 1350,-24 1350,-30 1344,-36 1338,-36"/>
<text text-anchor="middle" x="1323" y="-12.57" font-family="Helvetica,sans-Serif" font-size="14.00">(...)</text>
</g>
<!-- 1068&#45;&gt;1069 -->
<g id="edge39" class="edge">
<title>1068&#45;&gt;1069</title>
<path fill="none" stroke="black" d="M1348.88,-71.67C1344.76,-63.28 1340.41,-54.43 1336.48,-46.44"/>
<polygon fill="black" stroke="black" points="1339.66,-44.97 1332.11,-37.54 1333.38,-48.06 1339.66,-44.97"/>
</g>
<!-- 1240 -->
<g id="node41" class="node">
<title>1240</title>
<path fill="#c0c0c0" stroke="black" d="M1410,-36C1410,-36 1380,-36 1380,-36 1374,-36 1368,-30 1368,-24 1368,-24 1368,-12 1368,-12 1368,-6 1374,0 1380,0 1380,0 1410,0 1410,0 1416,0 1422,-6 1422,-12 1422,-12 1422,-24 1422,-24 1422,-30 1416,-36 1410,-36"/>
<text text-anchor="middle" x="1395" y="-12.57" font-family="Helvetica,sans-Serif" font-size="14.00">(...)</text>
</g>
<!-- 1068&#45;&gt;1240 -->
<g id="edge40" class="edge">
<title>1068&#45;&gt;1240</title>
<path fill="none" stroke="black" d="M1377.54,-71.67C1380.26,-63.47 1383.12,-54.84 1385.73,-46.98"/>
<polygon fill="black" stroke="black" points="1389.01,-48.21 1388.83,-37.62 1382.36,-46.01 1389.01,-48.21"/>
</g>
<!-- 1362 -->
<g id="node43" class="node">
<title>1362</title>
<path fill="#e9965a" stroke="black" d="M1541.38,-143C1541.38,-143 1452.62,-143 1452.62,-143 1446.62,-143 1440.62,-137 1440.62,-131 1440.62,-131 1440.62,-84 1440.62,-84 1440.62,-78 1446.62,-72 1452.62,-72 1452.62,-72 1541.38,-72 1541.38,-72 1547.38,-72 1553.38,-78 1553.38,-84 1553.38,-84 1553.38,-131 1553.38,-131 1553.38,-137 1547.38,-143 1541.38,-143"/>
<text text-anchor="start" x="1460.62" y="-125.7" font-family="Helvetica,sans-Serif" font-size="14.00">P12_2 ≤ 2.5</text>
<text text-anchor="start" x="1449" y="-109.95" font-family="Helvetica,sans-Serif" font-size="14.00">poisson = 0.097</text>
<text text-anchor="start" x="1448.62" y="-94.2" font-family="Helvetica,sans-Serif" font-size="14.00">samples = 1477</text>
<text text-anchor="start" x="1452.38" y="-78.45" font-family="Helvetica,sans-Serif" font-size="14.00">value = 16.294</text>
</g>
<!-- 1361&#45;&gt;1362 -->
<g id="edge42" class="edge">
<title>1361&#45;&gt;1362</title>
<path fill="none" stroke="black" d="M1497,-178.54C1497,-170.92 1497,-162.75 1497,-154.77"/>
<polygon fill="black" stroke="black" points="1500.5,-154.82 1497,-144.82 1493.5,-154.82 1500.5,-154.82"/>
</g>
<!-- 1545 -->
<g id="node46" class="node">
<title>1545</title>
<path fill="#eca571" stroke="black" d="M1672.38,-143C1672.38,-143 1583.62,-143 1583.62,-143 1577.62,-143 1571.62,-137 1571.62,-131 1571.62,-131 1571.62,-84 1571.62,-84 1571.62,-78 1577.62,-72 1583.62,-72 1583.62,-72 1672.38,-72 1672.38,-72 1678.38,-72 1684.38,-78 1684.38,-84 1684.38,-84 1684.38,-131 1684.38,-131 1684.38,-137 1678.38,-143 1672.38,-143"/>
<text text-anchor="start" x="1584.5" y="-125.7" font-family="Helvetica,sans-Serif" font-size="14.00">P11_3_9 ≤ 0.5</text>
<text text-anchor="start" x="1580.38" y="-109.95" font-family="Helvetica,sans-Serif" font-size="14.00">poisson = 0.114</text>
<text text-anchor="start" x="1579.62" y="-94.2" font-family="Helvetica,sans-Serif" font-size="14.00">samples = 2892</text>
<text text-anchor="start" x="1583.38" y="-78.45" font-family="Helvetica,sans-Serif" font-size="14.00">value = 14.392</text>
</g>
<!-- 1361&#45;&gt;1545 -->
<g id="edge45" class="edge">
<title>1361&#45;&gt;1545</title>
<path fill="none" stroke="black" d="M1540.62,-178.54C1551.89,-169.5 1564.14,-159.69 1575.79,-150.34"/>
<polygon fill="black" stroke="black" points="1577.77,-153.24 1583.39,-144.26 1573.4,-147.78 1577.77,-153.24"/>
</g>
<!-- 1363 -->
<g id="node44" class="node">
<title>1363</title>
<path fill="#c0c0c0" stroke="black" d="M1482,-36C1482,-36 1452,-36 1452,-36 1446,-36 1440,-30 1440,-24 1440,-24 1440,-12 1440,-12 1440,-6 1446,0 1452,0 1452,0 1482,0 1482,0 1488,0 1494,-6 1494,-12 1494,-12 1494,-24 1494,-24 1494,-30 1488,-36 1482,-36"/>
<text text-anchor="middle" x="1467" y="-12.57" font-family="Helvetica,sans-Serif" font-size="14.00">(...)</text>
</g>
<!-- 1362&#45;&gt;1363 -->
<g id="edge43" class="edge">
<title>1362&#45;&gt;1363</title>
<path fill="none" stroke="black" d="M1485.06,-71.67C1482.25,-63.47 1479.29,-54.84 1476.59,-46.98"/>
<polygon fill="black" stroke="black" points="1479.94,-45.94 1473.38,-37.61 1473.31,-48.21 1479.94,-45.94"/>
</g>
<!-- 1474 -->
<g id="node45" class="node">
<title>1474</title>
<path fill="#c0c0c0" stroke="black" d="M1554,-36C1554,-36 1524,-36 1524,-36 1518,-36 1512,-30 1512,-24 1512,-24 1512,-12 1512,-12 1512,-6 1518,0 1524,0 1524,0 1554,0 1554,0 1560,0 1566,-6 1566,-12 1566,-12 1566,-24 1566,-24 1566,-30 1560,-36 1554,-36"/>
<text text-anchor="middle" x="1539" y="-12.57" font-family="Helvetica,sans-Serif" font-size="14.00">(...)</text>
</g>
<!-- 1362&#45;&gt;1474 -->
<g id="edge44" class="edge">
<title>1362&#45;&gt;1474</title>
<path fill="none" stroke="black" d="M1513.72,-71.67C1517.75,-63.28 1521.99,-54.43 1525.83,-46.44"/>
<polygon fill="black" stroke="black" points="1528.93,-48.08 1530.1,-37.55 1522.61,-45.05 1528.93,-48.08"/>
</g>
<!-- 1546 -->
<g id="node47" class="node">
<title>1546</title>
<path fill="#c0c0c0" stroke="black" d="M1626,-36C1626,-36 1596,-36 1596,-36 1590,-36 1584,-30 1584,-24 1584,-24 1584,-12 1584,-12 1584,-6 1590,0 1596,0 1596,0 1626,0 1626,0 1632,0 1638,-6 1638,-12 1638,-12 1638,-24 1638,-24 1638,-30 1632,-36 1626,-36"/>
<text text-anchor="middle" x="1611" y="-12.57" font-family="Helvetica,sans-Serif" font-size="14.00">(...)</text>
</g>
<!-- 1545&#45;&gt;1546 -->
<g id="edge46" class="edge">
<title>1545&#45;&gt;1546</title>
<path fill="none" stroke="black" d="M1621.23,-71.67C1619.66,-63.56 1618,-55.04 1616.49,-47.26"/>
<polygon fill="black" stroke="black" points="1619.97,-46.82 1614.63,-37.67 1613.1,-48.15 1619.97,-46.82"/>
</g>
<!-- 1685 -->
<g id="node48" class="node">
<title>1685</title>
<path fill="#c0c0c0" stroke="black" d="M1698,-36C1698,-36 1668,-36 1668,-36 1662,-36 1656,-30 1656,-24 1656,-24 1656,-12 1656,-12 1656,-6 1662,0 1668,0 1668,0 1698,0 1698,0 1704,0 1710,-6 1710,-12 1710,-12 1710,-24 1710,-24 1710,-30 1704,-36 1698,-36"/>
<text text-anchor="middle" x="1683" y="-12.57" font-family="Helvetica,sans-Serif" font-size="14.00">(...)</text>
</g>
<!-- 1545&#45;&gt;1685 -->
<g id="edge47" class="edge">
<title>1545&#45;&gt;1685</title>
<path fill="none" stroke="black" d="M1649.9,-71.67C1655.29,-63.09 1660.98,-54.03 1666.1,-45.89"/>
<polygon fill="black" stroke="black" points="1669.04,-47.79 1671.39,-37.46 1663.11,-44.07 1669.04,-47.79"/>
</g>
<!-- 1819 -->
<g id="node50" class="node">
<title>1819</title>
<path fill="#f0b68c" stroke="black" d="M1888.38,-250C1888.38,-250 1799.62,-250 1799.62,-250 1793.62,-250 1787.62,-244 1787.62,-238 1787.62,-238 1787.62,-191 1787.62,-191 1787.62,-185 1793.62,-179 1799.62,-179 1799.62,-179 1888.38,-179 1888.38,-179 1894.38,-179 1900.38,-185 1900.38,-191 1900.38,-191 1900.38,-238 1900.38,-238 1900.38,-244 1894.38,-250 1888.38,-250"/>
<text text-anchor="start" x="1800.5" y="-232.7" font-family="Helvetica,sans-Serif" font-size="14.00">P11_3_9 ≤ 0.5</text>
<text text-anchor="start" x="1796" y="-216.95" font-family="Helvetica,sans-Serif" font-size="14.00">poisson = 0.194</text>
<text text-anchor="start" x="1795.62" y="-201.2" font-family="Helvetica,sans-Serif" font-size="14.00">samples = 8317</text>
<text text-anchor="start" x="1799.38" y="-185.45" font-family="Helvetica,sans-Serif" font-size="14.00">value = 12.145</text>
</g>
<!-- 1818&#45;&gt;1819 -->
<g id="edge49" class="edge">
<title>1818&#45;&gt;1819</title>
<path fill="none" stroke="black" d="M1844,-285.54C1844,-277.92 1844,-269.75 1844,-261.77"/>
<polygon fill="black" stroke="black" points="1847.5,-261.82 1844,-251.82 1840.5,-261.82 1847.5,-261.82"/>
</g>
<!-- 2486 -->
<g id="node57" class="node">
<title>2486</title>
<path fill="#f3c6a6" stroke="black" d="M2093.38,-250C2093.38,-250 2004.62,-250 2004.62,-250 1998.62,-250 1992.62,-244 1992.62,-238 1992.62,-238 1992.62,-191 1992.62,-191 1992.62,-185 1998.62,-179 2004.62,-179 2004.62,-179 2093.38,-179 2093.38,-179 2099.38,-179 2105.38,-185 2105.38,-191 2105.38,-191 2105.38,-238 2105.38,-238 2105.38,-244 2099.38,-250 2093.38,-250"/>
<text text-anchor="start" x="2005.5" y="-232.7" font-family="Helvetica,sans-Serif" font-size="14.00">P11_3_9 ≤ 0.5</text>
<text text-anchor="start" x="2001" y="-216.95" font-family="Helvetica,sans-Serif" font-size="14.00">poisson = 0.228</text>
<text text-anchor="start" x="2000.62" y="-201.2" font-family="Helvetica,sans-Serif" font-size="14.00">samples = 4355</text>
<text text-anchor="start" x="2004.38" y="-185.45" font-family="Helvetica,sans-Serif" font-size="14.00">value = 10.068</text>
</g>
<!-- 1818&#45;&gt;2486 -->
<g id="edge56" class="edge">
<title>1818&#45;&gt;2486</title>
<path fill="none" stroke="black" d="M1904.4,-289.56C1928.79,-277.07 1957.04,-262.6 1982.05,-249.79"/>
<polygon fill="black" stroke="black" points="1983.54,-252.96 1990.85,-245.29 1980.35,-246.73 1983.54,-252.96"/>
</g>
<!-- 1820 -->
<g id="node51" class="node">
<title>1820</title>
<path fill="#efb082" stroke="black" d="M1822.38,-143C1822.38,-143 1733.62,-143 1733.62,-143 1727.62,-143 1721.62,-137 1721.62,-131 1721.62,-131 1721.62,-84 1721.62,-84 1721.62,-78 1727.62,-72 1733.62,-72 1733.62,-72 1822.38,-72 1822.38,-72 1828.38,-72 1834.38,-78 1834.38,-84 1834.38,-84 1834.38,-131 1834.38,-131 1834.38,-137 1828.38,-143 1822.38,-143"/>
<text text-anchor="start" x="1737.88" y="-125.7" font-family="Helvetica,sans-Serif" font-size="14.00">P4_6_3 ≤ 2.5</text>
<text text-anchor="start" x="1730" y="-109.95" font-family="Helvetica,sans-Serif" font-size="14.00">poisson = 0.154</text>
<text text-anchor="start" x="1729.62" y="-94.2" font-family="Helvetica,sans-Serif" font-size="14.00">samples = 4537</text>
<text text-anchor="start" x="1733.38" y="-78.45" font-family="Helvetica,sans-Serif" font-size="14.00">value = 12.985</text>
</g>
<!-- 1819&#45;&gt;1820 -->
<g id="edge50" class="edge">
<title>1819&#45;&gt;1820</title>
<path fill="none" stroke="black" d="M1822.02,-178.54C1816.85,-170.3 1811.26,-161.42 1805.86,-152.83"/>
<polygon fill="black" stroke="black" points="1808.97,-151.2 1800.69,-144.59 1803.05,-154.92 1808.97,-151.2"/>
</g>
<!-- 2155 -->
<g id="node54" class="node">
<title>2155</title>
<path fill="#f2be99" stroke="black" d="M1953.38,-143C1953.38,-143 1864.62,-143 1864.62,-143 1858.62,-143 1852.62,-137 1852.62,-131 1852.62,-131 1852.62,-84 1852.62,-84 1852.62,-78 1858.62,-72 1864.62,-72 1864.62,-72 1953.38,-72 1953.38,-72 1959.38,-72 1965.38,-78 1965.38,-84 1965.38,-84 1965.38,-131 1965.38,-131 1965.38,-137 1959.38,-143 1953.38,-143"/>
<text text-anchor="start" x="1868.88" y="-125.7" font-family="Helvetica,sans-Serif" font-size="14.00">P4_6_3 ≤ 2.5</text>
<text text-anchor="start" x="1861" y="-109.95" font-family="Helvetica,sans-Serif" font-size="14.00">poisson = 0.164</text>
<text text-anchor="start" x="1860.62" y="-94.2" font-family="Helvetica,sans-Serif" font-size="14.00">samples = 3780</text>
<text text-anchor="start" x="1864.75" y="-78.45" font-family="Helvetica,sans-Serif" font-size="14.00">value = 11.137</text>
</g>
<!-- 1819&#45;&gt;2155 -->
<g id="edge53" class="edge">
<title>1819&#45;&gt;2155</title>
<path fill="none" stroke="black" d="M1865.64,-178.54C1870.74,-170.3 1876.24,-161.42 1881.56,-152.83"/>
<polygon fill="black" stroke="black" points="1884.37,-154.94 1886.65,-144.6 1878.41,-151.26 1884.37,-154.94"/>
</g>
<!-- 1821 -->
<g id="node52" class="node">
<title>1821</title>
<path fill="#c0c0c0" stroke="black" d="M1770,-36C1770,-36 1740,-36 1740,-36 1734,-36 1728,-30 1728,-24 1728,-24 1728,-12 1728,-12 1728,-6 1734,0 1740,0 1740,0 1770,0 1770,0 1776,0 1782,-6 1782,-12 1782,-12 1782,-24 1782,-24 1782,-30 1776,-36 1770,-36"/>
<text text-anchor="middle" x="1755" y="-12.57" font-family="Helvetica,sans-Serif" font-size="14.00">(...)</text>
</g>
<!-- 1820&#45;&gt;1821 -->
<g id="edge51" class="edge">
<title>1820&#45;&gt;1821</title>
<path fill="none" stroke="black" d="M1768.84,-71.67C1766.71,-63.56 1764.47,-55.04 1762.43,-47.26"/>
<polygon fill="black" stroke="black" points="1765.83,-46.43 1759.9,-37.65 1759.06,-48.21 1765.83,-46.43"/>
</g>
<!-- 2008 -->
<g id="node53" class="node">
<title>2008</title>
<path fill="#c0c0c0" stroke="black" d="M1842,-36C1842,-36 1812,-36 1812,-36 1806,-36 1800,-30 1800,-24 1800,-24 1800,-12 1800,-12 1800,-6 1806,0 1812,0 1812,0 1842,0 1842,0 1848,0 1854,-6 1854,-12 1854,-12 1854,-24 1854,-24 1854,-30 1848,-36 1842,-36"/>
<text text-anchor="middle" x="1827" y="-12.57" font-family="Helvetica,sans-Serif" font-size="14.00">(...)</text>
</g>
<!-- 1820&#45;&gt;2008 -->
<g id="edge52" class="edge">
<title>1820&#45;&gt;2008</title>
<path fill="none" stroke="black" d="M1797.51,-71.67C1802.26,-63.18 1807.27,-54.23 1811.79,-46.17"/>
<polygon fill="black" stroke="black" points="1814.81,-47.94 1816.64,-37.5 1808.7,-44.52 1814.81,-47.94"/>
</g>
<!-- 2156 -->
<g id="node55" class="node">
<title>2156</title>
<path fill="#c0c0c0" stroke="black" d="M1914,-36C1914,-36 1884,-36 1884,-36 1878,-36 1872,-30 1872,-24 1872,-24 1872,-12 1872,-12 1872,-6 1878,0 1884,0 1884,0 1914,0 1914,0 1920,0 1926,-6 1926,-12 1926,-12 1926,-24 1926,-24 1926,-30 1920,-36 1914,-36"/>
<text text-anchor="middle" x="1899" y="-12.57" font-family="Helvetica,sans-Serif" font-size="14.00">(...)</text>
</g>
<!-- 2155&#45;&gt;2156 -->
<g id="edge54" class="edge">
<title>2155&#45;&gt;2156</title>
<path fill="none" stroke="black" d="M1905.02,-71.67C1904.1,-63.66 1903.14,-55.24 1902.26,-47.53"/>
<polygon fill="black" stroke="black" points="1905.75,-47.22 1901.14,-37.69 1898.79,-48.02 1905.75,-47.22"/>
</g>
<!-- 2333 -->
<g id="node56" class="node">
<title>2333</title>
<path fill="#c0c0c0" stroke="black" d="M1986,-36C1986,-36 1956,-36 1956,-36 1950,-36 1944,-30 1944,-24 1944,-24 1944,-12 1944,-12 1944,-6 1950,0 1956,0 1956,0 1986,0 1986,0 1992,0 1998,-6 1998,-12 1998,-12 1998,-24 1998,-24 1998,-30 1992,-36 1986,-36"/>
<text text-anchor="middle" x="1971" y="-12.57" font-family="Helvetica,sans-Serif" font-size="14.00">(...)</text>
</g>
<!-- 2155&#45;&gt;2333 -->
<g id="edge55" class="edge">
<title>2155&#45;&gt;2333</title>
<path fill="none" stroke="black" d="M1933.68,-71.67C1939.9,-62.9 1946.46,-53.63 1952.33,-45.35"/>
<polygon fill="black" stroke="black" points="1955.02,-47.6 1957.95,-37.42 1949.31,-43.55 1955.02,-47.6"/>
</g>
<!-- 2487 -->
<g id="node58" class="node">
<title>2487</title>
<path fill="#f2c09c" stroke="black" d="M2093.38,-143C2093.38,-143 2004.62,-143 2004.62,-143 1998.62,-143 1992.62,-137 1992.62,-131 1992.62,-131 1992.62,-84 1992.62,-84 1992.62,-78 1998.62,-72 2004.62,-72 2004.62,-72 2093.38,-72 2093.38,-72 2099.38,-72 2105.38,-78 2105.38,-84 2105.38,-84 2105.38,-131 2105.38,-131 2105.38,-137 2099.38,-143 2093.38,-143"/>
<text text-anchor="start" x="2008.88" y="-125.7" font-family="Helvetica,sans-Serif" font-size="14.00">P4_6_2 ≤ 1.5</text>
<text text-anchor="start" x="2001" y="-109.95" font-family="Helvetica,sans-Serif" font-size="14.00">poisson = 0.188</text>
<text text-anchor="start" x="2000.62" y="-94.2" font-family="Helvetica,sans-Serif" font-size="14.00">samples = 2231</text>
<text text-anchor="start" x="2004.38" y="-78.45" font-family="Helvetica,sans-Serif" font-size="14.00">value = 10.904</text>
</g>
<!-- 2486&#45;&gt;2487 -->
<g id="edge57" class="edge">
<title>2486&#45;&gt;2487</title>
<path fill="none" stroke="black" d="M2049,-178.54C2049,-170.92 2049,-162.75 2049,-154.77"/>
<polygon fill="black" stroke="black" points="2052.5,-154.82 2049,-144.82 2045.5,-154.82 2052.5,-154.82"/>
</g>
<!-- 2774 -->
<g id="node61" class="node">
<title>2774</title>
<path fill="#f5cdb1" stroke="black" d="M2231.38,-143C2231.38,-143 2142.62,-143 2142.62,-143 2136.62,-143 2130.62,-137 2130.62,-131 2130.62,-131 2130.62,-84 2130.62,-84 2130.62,-78 2136.62,-72 2142.62,-72 2142.62,-72 2231.38,-72 2231.38,-72 2237.38,-72 2243.38,-78 2243.38,-84 2243.38,-84 2243.38,-131 2243.38,-131 2243.38,-137 2237.38,-143 2231.38,-143"/>
<text text-anchor="start" x="2146.88" y="-125.7" font-family="Helvetica,sans-Serif" font-size="14.00">P4_7_3 ≤ 0.5</text>
<text text-anchor="start" x="2139" y="-109.95" font-family="Helvetica,sans-Serif" font-size="14.00">poisson = 0.196</text>
<text text-anchor="start" x="2138.62" y="-94.2" font-family="Helvetica,sans-Serif" font-size="14.00">samples = 2124</text>
<text text-anchor="start" x="2146.12" y="-78.45" font-family="Helvetica,sans-Serif" font-size="14.00">value = 9.189</text>
</g>
<!-- 2486&#45;&gt;2774 -->
<g id="edge60" class="edge">
<title>2486&#45;&gt;2774</title>
<path fill="none" stroke="black" d="M2094.95,-178.54C2106.94,-169.42 2119.98,-159.5 2132.37,-150.07"/>
<polygon fill="black" stroke="black" points="2134.21,-153.07 2140.04,-144.23 2129.97,-147.5 2134.21,-153.07"/>
</g>
<!-- 2488 -->
<g id="node59" class="node">
<title>2488</title>
<path fill="#c0c0c0" stroke="black" d="M2058,-36C2058,-36 2028,-36 2028,-36 2022,-36 2016,-30 2016,-24 2016,-24 2016,-12 2016,-12 2016,-6 2022,0 2028,0 2028,0 2058,0 2058,0 2064,0 2070,-6 2070,-12 2070,-12 2070,-24 2070,-24 2070,-30 2064,-36 2058,-36"/>
<text text-anchor="middle" x="2043" y="-12.57" font-family="Helvetica,sans-Serif" font-size="14.00">(...)</text>
</g>
<!-- 2487&#45;&gt;2488 -->
<g id="edge58" class="edge">
<title>2487&#45;&gt;2488</title>
<path fill="none" stroke="black" d="M2046.61,-71.67C2046.06,-63.66 2045.48,-55.24 2044.96,-47.53"/>
<polygon fill="black" stroke="black" points="2048.46,-47.43 2044.28,-37.69 2041.47,-47.91 2048.46,-47.43"/>
</g>
<!-- 2651 -->
<g id="node60" class="node">
<title>2651</title>
<path fill="#c0c0c0" stroke="black" d="M2130,-36C2130,-36 2100,-36 2100,-36 2094,-36 2088,-30 2088,-24 2088,-24 2088,-12 2088,-12 2088,-6 2094,0 2100,0 2100,0 2130,0 2130,0 2136,0 2142,-6 2142,-12 2142,-12 2142,-24 2142,-24 2142,-30 2136,-36 2130,-36"/>
<text text-anchor="middle" x="2115" y="-12.57" font-family="Helvetica,sans-Serif" font-size="14.00">(...)</text>
</g>
<!-- 2487&#45;&gt;2651 -->
<g id="edge59" class="edge">
<title>2487&#45;&gt;2651</title>
<path fill="none" stroke="black" d="M2075.27,-71.67C2081.89,-62.9 2088.88,-53.63 2095.12,-45.35"/>
<polygon fill="black" stroke="black" points="2097.9,-47.48 2101.13,-37.39 2092.31,-43.27 2097.9,-47.48"/>
</g>
<!-- 2775 -->
<g id="node62" class="node">
<title>2775</title>
<path fill="#c0c0c0" stroke="black" d="M2202,-36C2202,-36 2172,-36 2172,-36 2166,-36 2160,-30 2160,-24 2160,-24 2160,-12 2160,-12 2160,-6 2166,0 2172,0 2172,0 2202,0 2202,0 2208,0 2214,-6 2214,-12 2214,-12 2214,-24 2214,-24 2214,-30 2208,-36 2202,-36"/>
<text text-anchor="middle" x="2187" y="-12.57" font-family="Helvetica,sans-Serif" font-size="14.00">(...)</text>
</g>
<!-- 2774&#45;&gt;2775 -->
<g id="edge61" class="edge">
<title>2774&#45;&gt;2775</title>
<path fill="none" stroke="black" d="M2187,-71.67C2187,-63.66 2187,-55.24 2187,-47.53"/>
<polygon fill="black" stroke="black" points="2190.5,-47.7 2187,-37.7 2183.5,-47.7 2190.5,-47.7"/>
</g>
<!-- 2926 -->
<g id="node63" class="node">
<title>2926</title>
<path fill="#c0c0c0" stroke="black" d="M2274,-36C2274,-36 2244,-36 2244,-36 2238,-36 2232,-30 2232,-24 2232,-24 2232,-12 2232,-12 2232,-6 2238,0 2244,0 2244,0 2274,0 2274,0 2280,0 2286,-6 2286,-12 2286,-12 2286,-24 2286,-24 2286,-30 2280,-36 2274,-36"/>
<text text-anchor="middle" x="2259" y="-12.57" font-family="Helvetica,sans-Serif" font-size="14.00">(...)</text>
</g>
<!-- 2774&#45;&gt;2926 -->
<g id="edge62" class="edge">
<title>2774&#45;&gt;2926</title>
<path fill="none" stroke="black" d="M2215.66,-71.67C2223.04,-62.71 2230.84,-53.23 2237.76,-44.81"/>
<polygon fill="black" stroke="black" points="2240.25,-47.3 2243.9,-37.35 2234.84,-42.85 2240.25,-47.3"/>
</g>
</g>
</svg>
