<?xml version="1.0" encoding="UTF-8" standalone="no"?>
<!DOCTYPE svg PUBLIC "-//W3C//DTD SVG 1.1//EN"
 "http://www.w3.org/Graphics/SVG/1.1/DTD/svg11.dtd">
<!-- Generated by graphviz version 12.2.1 (20241206.2353)
 -->
<!-- Title: Tree Pages: 1 -->
<svg width="2294pt" height="579pt"
 viewBox="0.00 0.00 2294.00 579.00" xmlns="http://www.w3.org/2000/svg" xmlns:xlink="http://www.w3.org/1999/xlink">
<g id="graph0" class="graph" transform="scale(1 1) rotate(0) translate(4 575)">
<title>Tree</title>
<polygon fill="white" stroke="none" points="-4,4 -4,-575 2290,-575 2290,4 -4,4"/>
<!-- 0 -->
<g id="node1" class="node">
<title>0</title>
<path fill="#f2c09b" stroke="black" d="M1252.38,-571C1252.38,-571 1163.62,-571 1163.62,-571 1157.62,-571 1151.62,-565 1151.62,-559 1151.62,-559 1151.62,-512 1151.62,-512 1151.62,-506 1157.62,-500 1163.62,-500 1163.62,-500 1252.38,-500 1252.38,-500 1258.38,-500 1264.38,-506 1264.38,-512 1264.38,-512 1264.38,-559 1264.38,-559 1264.38,-565 1258.38,-571 1252.38,-571"/>
<text text-anchor="start" x="1167.88" y="-553.7" font-family="Helvetica,sans-Serif" font-size="14.00">P4_6_3 ≤ 1.5</text>
<text text-anchor="start" x="1160" y="-537.95" font-family="Helvetica,sans-Serif" font-size="14.00">poisson = 0.346</text>
<text text-anchor="start" x="1159.62" y="-522.2" font-family="Helvetica,sans-Serif" font-size="14.00">samples = 4972</text>
<text text-anchor="start" x="1163.38" y="-506.45" font-family="Helvetica,sans-Serif" font-size="14.00">value = 12.006</text>
</g>
<!-- 1 -->
<g id="node2" class="node">
<title>1</title>
<path fill="#f7d7c0" stroke="black" d="M899,-464C899,-464 811,-464 811,-464 805,-464 799,-458 799,-452 799,-452 799,-405 799,-405 799,-399 805,-393 811,-393 811,-393 899,-393 899,-393 905,-393 911,-399 911,-405 911,-405 911,-452 911,-452 911,-458 905,-464 899,-464"/>
<text text-anchor="start" x="814.88" y="-446.7" font-family="Helvetica,sans-Serif" font-size="14.00">P4_6_4 ≤ 1.5</text>
<text text-anchor="start" x="807" y="-430.95" font-family="Helvetica,sans-Serif" font-size="14.00">poisson = 0.276</text>
<text text-anchor="start" x="810.38" y="-415.2" font-family="Helvetica,sans-Serif" font-size="14.00">samples = 932</text>
<text text-anchor="start" x="814.12" y="-399.45" font-family="Helvetica,sans-Serif" font-size="14.00">value = 9.262</text>
</g>
<!-- 0&#45;&gt;1 -->
<g id="edge1" class="edge">
<title>0&#45;&gt;1</title>
<path fill="none" stroke="black" d="M1151.28,-517.63C1088.79,-499.04 988.37,-469.17 922.03,-449.44"/>
<polygon fill="black" stroke="black" points="923.32,-446.17 912.73,-446.67 921.32,-452.88 923.32,-446.17"/>
<text text-anchor="middle" x="923.19" y="-462.8" font-family="Helvetica,sans-Serif" font-size="14.00">True</text>
</g>
<!-- 156 -->
<g id="node33" class="node">
<title>156</title>
<path fill="#f1ba93" stroke="black" d="M1475.38,-464C1475.38,-464 1386.62,-464 1386.62,-464 1380.62,-464 1374.62,-458 1374.62,-452 1374.62,-452 1374.62,-405 1374.62,-405 1374.62,-399 1380.62,-393 1386.62,-393 1386.62,-393 1475.38,-393 1475.38,-393 1481.38,-393 1487.38,-399 1487.38,-405 1487.38,-405 1487.38,-452 1487.38,-452 1487.38,-458 1481.38,-464 1475.38,-464"/>
<text text-anchor="start" x="1390.88" y="-446.7" font-family="Helvetica,sans-Serif" font-size="14.00">P4_6_4 ≤ 1.5</text>
<text text-anchor="start" x="1383" y="-430.95" font-family="Helvetica,sans-Serif" font-size="14.00">poisson = 0.267</text>
<text text-anchor="start" x="1382.62" y="-415.2" font-family="Helvetica,sans-Serif" font-size="14.00">samples = 4040</text>
<text text-anchor="start" x="1390.12" y="-399.45" font-family="Helvetica,sans-Serif" font-size="14.00">value = 12.64</text>
</g>
<!-- 0&#45;&gt;156 -->
<g id="edge32" class="edge">
<title>0&#45;&gt;156</title>
<path fill="none" stroke="black" d="M1264.85,-507.73C1295.12,-493.48 1332.54,-475.86 1364.2,-460.96"/>
<polygon fill="black" stroke="black" points="1365.33,-464.29 1372.89,-456.86 1362.35,-457.96 1365.33,-464.29"/>
<text text-anchor="middle" x="1365.79" y="-474.32" font-family="Helvetica,sans-Serif" font-size="14.00">False</text>
</g>
<!-- 2 -->
<g id="node3" class="node">
<title>2</title>
<path fill="#f5cdb0" stroke="black" d="M471,-357C471,-357 383,-357 383,-357 377,-357 371,-351 371,-345 371,-345 371,-298 371,-298 371,-292 377,-286 383,-286 383,-286 471,-286 471,-286 477,-286 483,-292 483,-298 483,-298 483,-345 483,-345 483,-351 477,-357 471,-357"/>
<text text-anchor="start" x="386.88" y="-339.7" font-family="Helvetica,sans-Serif" font-size="14.00">P4_6_1 ≤ 1.5</text>
<text text-anchor="start" x="379" y="-323.95" font-family="Helvetica,sans-Serif" font-size="14.00">poisson = 0.188</text>
<text text-anchor="start" x="382.38" y="-308.2" font-family="Helvetica,sans-Serif" font-size="14.00">samples = 397</text>
<text text-anchor="start" x="382.38" y="-292.45" font-family="Helvetica,sans-Serif" font-size="14.00">value = 10.437</text>
</g>
<!-- 1&#45;&gt;2 -->
<g id="edge2" class="edge">
<title>1&#45;&gt;2</title>
<path fill="none" stroke="black" d="M798.61,-413.67C720.07,-394.4 578,-359.54 494.11,-338.96"/>
<polygon fill="black" stroke="black" points="495.19,-335.63 484.65,-336.64 493.53,-342.42 495.19,-335.63"/>
</g>
<!-- 67 -->
<g id="node18" class="node">
<title>67</title>
<path fill="#f8decb" stroke="black" d="M899,-357C899,-357 811,-357 811,-357 805,-357 799,-351 799,-345 799,-345 799,-298 799,-298 799,-292 805,-286 811,-286 811,-286 899,-286 899,-286 905,-286 911,-292 911,-298 911,-298 911,-345 911,-345 911,-351 905,-357 899,-357"/>
<text text-anchor="start" x="811.5" y="-339.7" font-family="Helvetica,sans-Serif" font-size="14.00">P11_3_9 ≤ 0.5</text>
<text text-anchor="start" x="807" y="-323.95" font-family="Helvetica,sans-Serif" font-size="14.00">poisson = 0.246</text>
<text text-anchor="start" x="810.38" y="-308.2" font-family="Helvetica,sans-Serif" font-size="14.00">samples = 535</text>
<text text-anchor="start" x="817.88" y="-292.45" font-family="Helvetica,sans-Serif" font-size="14.00">value = 8.39</text>
</g>
<!-- 1&#45;&gt;67 -->
<g id="edge17" class="edge">
<title>1&#45;&gt;67</title>
<path fill="none" stroke="black" d="M855,-392.54C855,-384.92 855,-376.75 855,-368.77"/>
<polygon fill="black" stroke="black" points="858.5,-368.82 855,-358.82 851.5,-368.82 858.5,-368.82"/>
</g>
<!-- 3 -->
<g id="node4" class="node">
<title>3</title>
<path fill="#f4c9aa" stroke="black" d="M278,-250C278,-250 190,-250 190,-250 184,-250 178,-244 178,-238 178,-238 178,-191 178,-191 178,-185 184,-179 190,-179 190,-179 278,-179 278,-179 284,-179 290,-185 290,-191 290,-191 290,-238 290,-238 290,-244 284,-250 278,-250"/>
<text text-anchor="start" x="190.5" y="-232.7" font-family="Helvetica,sans-Serif" font-size="14.00">P11_3_9 ≤ 0.5</text>
<text text-anchor="start" x="186" y="-216.95" font-family="Helvetica,sans-Serif" font-size="14.00">poisson = 0.143</text>
<text text-anchor="start" x="189.38" y="-201.2" font-family="Helvetica,sans-Serif" font-size="14.00">samples = 304</text>
<text text-anchor="start" x="189.38" y="-185.45" font-family="Helvetica,sans-Serif" font-size="14.00">value = 10.929</text>
</g>
<!-- 2&#45;&gt;3 -->
<g id="edge3" class="edge">
<title>2&#45;&gt;3</title>
<path fill="none" stroke="black" d="M370.66,-289.85C348.66,-277.88 323.27,-264.06 300.39,-251.62"/>
<polygon fill="black" stroke="black" points="302.2,-248.62 291.74,-246.91 298.85,-254.77 302.2,-248.62"/>
</g>
<!-- 52 -->
<g id="node11" class="node">
<title>52</title>
<path fill="#f7dac5" stroke="black" d="M471,-250C471,-250 383,-250 383,-250 377,-250 371,-244 371,-238 371,-238 371,-191 371,-191 371,-185 377,-179 383,-179 383,-179 471,-179 471,-179 477,-179 483,-185 483,-191 483,-191 483,-238 483,-238 483,-244 477,-250 471,-250"/>
<text text-anchor="start" x="386.88" y="-232.7" font-family="Helvetica,sans-Serif" font-size="14.00">P4_7_3 ≤ 0.5</text>
<text text-anchor="start" x="379" y="-216.95" font-family="Helvetica,sans-Serif" font-size="14.00">poisson = 0.168</text>
<text text-anchor="start" x="386.12" y="-201.2" font-family="Helvetica,sans-Serif" font-size="14.00">samples = 93</text>
<text text-anchor="start" x="386.12" y="-185.45" font-family="Helvetica,sans-Serif" font-size="14.00">value = 8.832</text>
</g>
<!-- 2&#45;&gt;52 -->
<g id="edge10" class="edge">
<title>2&#45;&gt;52</title>
<path fill="none" stroke="black" d="M427,-285.54C427,-277.92 427,-269.75 427,-261.77"/>
<polygon fill="black" stroke="black" points="430.5,-261.82 427,-251.82 423.5,-261.82 430.5,-261.82"/>
</g>
<!-- 4 -->
<g id="node5" class="node">
<title>4</title>
<path fill="#f3c3a1" stroke="black" d="M143,-143C143,-143 55,-143 55,-143 49,-143 43,-137 43,-131 43,-131 43,-84 43,-84 43,-78 49,-72 55,-72 55,-72 143,-72 143,-72 149,-72 155,-78 155,-84 155,-84 155,-131 155,-131 155,-137 149,-143 143,-143"/>
<text text-anchor="start" x="70.88" y="-125.7" font-family="Helvetica,sans-Serif" font-size="14.00">NIV ≤ 5.5</text>
<text text-anchor="start" x="51" y="-109.95" font-family="Helvetica,sans-Serif" font-size="14.00">poisson = 0.137</text>
<text text-anchor="start" x="54.38" y="-94.2" font-family="Helvetica,sans-Serif" font-size="14.00">samples = 174</text>
<text text-anchor="start" x="58.5" y="-78.45" font-family="Helvetica,sans-Serif" font-size="14.00">value = 11.58</text>
</g>
<!-- 3&#45;&gt;4 -->
<g id="edge4" class="edge">
<title>3&#45;&gt;4</title>
<path fill="none" stroke="black" d="M189.05,-178.54C177.43,-169.5 164.81,-159.69 152.8,-150.34"/>
<polygon fill="black" stroke="black" points="154.99,-147.62 144.95,-144.24 150.7,-153.14 154.99,-147.62"/>
</g>
<!-- 33 -->
<g id="node8" class="node">
<title>33</title>
<path fill="#f5d0b5" stroke="black" d="M274.62,-143C274.62,-143 193.38,-143 193.38,-143 187.38,-143 181.38,-137 181.38,-131 181.38,-131 181.38,-84 181.38,-84 181.38,-78 187.38,-72 193.38,-72 193.38,-72 274.62,-72 274.62,-72 280.62,-72 286.62,-78 286.62,-84 286.62,-84 286.62,-131 286.62,-131 286.62,-137 280.62,-143 274.62,-143"/>
<text text-anchor="start" x="193.88" y="-125.7" font-family="Helvetica,sans-Serif" font-size="14.00">P5_1_6 ≤ 0.5</text>
<text text-anchor="start" x="189.75" y="-109.95" font-family="Helvetica,sans-Serif" font-size="14.00">poisson = 0.09</text>
<text text-anchor="start" x="189.38" y="-94.2" font-family="Helvetica,sans-Serif" font-size="14.00">samples = 130</text>
<text text-anchor="start" x="189.38" y="-78.45" font-family="Helvetica,sans-Serif" font-size="14.00">value = 10.056</text>
</g>
<!-- 3&#45;&gt;33 -->
<g id="edge7" class="edge">
<title>3&#45;&gt;33</title>
<path fill="none" stroke="black" d="M234,-178.54C234,-170.92 234,-162.75 234,-154.77"/>
<polygon fill="black" stroke="black" points="237.5,-154.82 234,-144.82 230.5,-154.82 237.5,-154.82"/>
</g>
<!-- 5 -->
<g id="node6" class="node">
<title>5</title>
<path fill="#c0c0c0" stroke="black" d="M42,-36C42,-36 12,-36 12,-36 6,-36 0,-30 0,-24 0,-24 0,-12 0,-12 0,-6 6,0 12,0 12,0 42,0 42,0 48,0 54,-6 54,-12 54,-12 54,-24 54,-24 54,-30 48,-36 42,-36"/>
<text text-anchor="middle" x="27" y="-12.57" font-family="Helvetica,sans-Serif" font-size="14.00">(...)</text>
</g>
<!-- 4&#45;&gt;5 -->
<g id="edge5" class="edge">
<title>4&#45;&gt;5</title>
<path fill="none" stroke="black" d="M70.34,-71.67C62.96,-62.71 55.16,-53.23 48.24,-44.81"/>
<polygon fill="black" stroke="black" points="51.16,-42.85 42.1,-37.35 45.75,-47.3 51.16,-42.85"/>
</g>
<!-- 20 -->
<g id="node7" class="node">
<title>20</title>
<path fill="#c0c0c0" stroke="black" d="M114,-36C114,-36 84,-36 84,-36 78,-36 72,-30 72,-24 72,-24 72,-12 72,-12 72,-6 78,0 84,0 84,0 114,0 114,0 120,0 126,-6 126,-12 126,-12 126,-24 126,-24 126,-30 120,-36 114,-36"/>
<text text-anchor="middle" x="99" y="-12.57" font-family="Helvetica,sans-Serif" font-size="14.00">(...)</text>
</g>
<!-- 4&#45;&gt;20 -->
<g id="edge6" class="edge">
<title>4&#45;&gt;20</title>
<path fill="none" stroke="black" d="M99,-71.67C99,-63.66 99,-55.24 99,-47.53"/>
<polygon fill="black" stroke="black" points="102.5,-47.7 99,-37.7 95.5,-47.7 102.5,-47.7"/>
</g>
<!-- 34 -->
<g id="node9" class="node">
<title>34</title>
<path fill="#c0c0c0" stroke="black" d="M186,-36C186,-36 156,-36 156,-36 150,-36 144,-30 144,-24 144,-24 144,-12 144,-12 144,-6 150,0 156,0 156,0 186,0 186,0 192,0 198,-6 198,-12 198,-12 198,-24 198,-24 198,-30 192,-36 186,-36"/>
<text text-anchor="middle" x="171" y="-12.57" font-family="Helvetica,sans-Serif" font-size="14.00">(...)</text>
</g>
<!-- 33&#45;&gt;34 -->
<g id="edge8" class="edge">
<title>33&#45;&gt;34</title>
<path fill="none" stroke="black" d="M208.92,-71.67C202.61,-62.9 195.93,-53.63 189.97,-45.35"/>
<polygon fill="black" stroke="black" points="192.94,-43.48 184.26,-37.41 187.26,-47.57 192.94,-43.48"/>
</g>
<!-- 43 -->
<g id="node10" class="node">
<title>43</title>
<path fill="#c0c0c0" stroke="black" d="M258,-36C258,-36 228,-36 228,-36 222,-36 216,-30 216,-24 216,-24 216,-12 216,-12 216,-6 222,0 228,0 228,0 258,0 258,0 264,0 270,-6 270,-12 270,-12 270,-24 270,-24 270,-30 264,-36 258,-36"/>
<text text-anchor="middle" x="243" y="-12.57" font-family="Helvetica,sans-Serif" font-size="14.00">(...)</text>
</g>
<!-- 33&#45;&gt;43 -->
<g id="edge9" class="edge">
<title>33&#45;&gt;43</title>
<path fill="none" stroke="black" d="M237.58,-71.67C238.41,-63.66 239.27,-55.24 240.07,-47.53"/>
<polygon fill="black" stroke="black" points="243.54,-47.99 241.08,-37.69 236.57,-47.28 243.54,-47.99"/>
</g>
<!-- 53 -->
<g id="node12" class="node">
<title>53</title>
<path fill="#f6d5bd" stroke="black" d="M418,-143C418,-143 330,-143 330,-143 324,-143 318,-137 318,-131 318,-131 318,-84 318,-84 318,-78 324,-72 330,-72 330,-72 418,-72 418,-72 424,-72 430,-78 430,-84 430,-84 430,-131 430,-131 430,-137 424,-143 418,-143"/>
<text text-anchor="start" x="333.88" y="-125.7" font-family="Helvetica,sans-Serif" font-size="14.00">P4_6_2 ≤ 1.5</text>
<text text-anchor="start" x="326" y="-109.95" font-family="Helvetica,sans-Serif" font-size="14.00">poisson = 0.092</text>
<text text-anchor="start" x="333.12" y="-94.2" font-family="Helvetica,sans-Serif" font-size="14.00">samples = 60</text>
<text text-anchor="start" x="333.12" y="-78.45" font-family="Helvetica,sans-Serif" font-size="14.00">value = 9.444</text>
</g>
<!-- 52&#45;&gt;53 -->
<g id="edge11" class="edge">
<title>52&#45;&gt;53</title>
<path fill="none" stroke="black" d="M409.35,-178.54C405.28,-170.48 400.9,-161.8 396.65,-153.38"/>
<polygon fill="black" stroke="black" points="399.88,-152.01 392.25,-144.66 393.63,-155.17 399.88,-152.01"/>
</g>
<!-- 62 -->
<g id="node15" class="node">
<title>62</title>
<path fill="#f9e4d4" stroke="black" d="M548,-143C548,-143 460,-143 460,-143 454,-143 448,-137 448,-131 448,-131 448,-84 448,-84 448,-78 454,-72 460,-72 460,-72 548,-72 548,-72 554,-72 560,-78 560,-84 560,-84 560,-131 560,-131 560,-137 554,-143 548,-143"/>
<text text-anchor="start" x="467.62" y="-125.7" font-family="Helvetica,sans-Serif" font-size="14.00">P12_1 ≤ 0.5</text>
<text text-anchor="start" x="456" y="-109.95" font-family="Helvetica,sans-Serif" font-size="14.00">poisson = 0.194</text>
<text text-anchor="start" x="463.12" y="-94.2" font-family="Helvetica,sans-Serif" font-size="14.00">samples = 33</text>
<text text-anchor="start" x="463.12" y="-78.45" font-family="Helvetica,sans-Serif" font-size="14.00">value = 7.717</text>
</g>
<!-- 52&#45;&gt;62 -->
<g id="edge14" class="edge">
<title>52&#45;&gt;62</title>
<path fill="none" stroke="black" d="M452.64,-178.54C458.74,-170.21 465.34,-161.22 471.7,-152.55"/>
<polygon fill="black" stroke="black" points="474.49,-154.67 477.58,-144.53 468.84,-150.53 474.49,-154.67"/>
</g>
<!-- 54 -->
<g id="node13" class="node">
<title>54</title>
<path fill="#c0c0c0" stroke="black" d="M330,-36C330,-36 300,-36 300,-36 294,-36 288,-30 288,-24 288,-24 288,-12 288,-12 288,-6 294,0 300,0 300,0 330,0 330,0 336,0 342,-6 342,-12 342,-12 342,-24 342,-24 342,-30 336,-36 330,-36"/>
<text text-anchor="middle" x="315" y="-12.57" font-family="Helvetica,sans-Serif" font-size="14.00">(...)</text>
</g>
<!-- 53&#45;&gt;54 -->
<g id="edge12" class="edge">
<title>53&#45;&gt;54</title>
<path fill="none" stroke="black" d="M350.51,-71.67C344.66,-62.99 338.49,-53.83 332.95,-45.62"/>
<polygon fill="black" stroke="black" points="335.92,-43.77 327.43,-37.44 330.12,-47.69 335.92,-43.77"/>
</g>
<!-- 61 -->
<g id="node14" class="node">
<title>61</title>
<path fill="#c0c0c0" stroke="black" d="M402,-36C402,-36 372,-36 372,-36 366,-36 360,-30 360,-24 360,-24 360,-12 360,-12 360,-6 366,0 372,0 372,0 402,0 402,0 408,0 414,-6 414,-12 414,-12 414,-24 414,-24 414,-30 408,-36 402,-36"/>
<text text-anchor="middle" x="387" y="-12.57" font-family="Helvetica,sans-Serif" font-size="14.00">(...)</text>
</g>
<!-- 53&#45;&gt;61 -->
<g id="edge13" class="edge">
<title>53&#45;&gt;61</title>
<path fill="none" stroke="black" d="M379.18,-71.67C380.36,-63.66 381.62,-55.24 382.76,-47.53"/>
<polygon fill="black" stroke="black" points="386.22,-48.09 384.22,-37.68 379.29,-47.06 386.22,-48.09"/>
</g>
<!-- 63 -->
<g id="node16" class="node">
<title>63</title>
<path fill="#c0c0c0" stroke="black" d="M474,-36C474,-36 444,-36 444,-36 438,-36 432,-30 432,-24 432,-24 432,-12 432,-12 432,-6 438,0 444,0 444,0 474,0 474,0 480,0 486,-6 486,-12 486,-12 486,-24 486,-24 486,-30 480,-36 474,-36"/>
<text text-anchor="middle" x="459" y="-12.57" font-family="Helvetica,sans-Serif" font-size="14.00">(...)</text>
</g>
<!-- 62&#45;&gt;63 -->
<g id="edge15" class="edge">
<title>62&#45;&gt;63</title>
<path fill="none" stroke="black" d="M486.09,-71.67C481.72,-63.18 477.12,-54.23 472.97,-46.17"/>
<polygon fill="black" stroke="black" points="476.22,-44.82 468.53,-37.53 469.99,-48.02 476.22,-44.82"/>
</g>
<!-- 66 -->
<g id="node17" class="node">
<title>66</title>
<path fill="#c0c0c0" stroke="black" d="M546,-36C546,-36 516,-36 516,-36 510,-36 504,-30 504,-24 504,-24 504,-12 504,-12 504,-6 510,0 516,0 516,0 546,0 546,0 552,0 558,-6 558,-12 558,-12 558,-24 558,-24 558,-30 552,-36 546,-36"/>
<text text-anchor="middle" x="531" y="-12.57" font-family="Helvetica,sans-Serif" font-size="14.00">(...)</text>
</g>
<!-- 62&#45;&gt;66 -->
<g id="edge16" class="edge">
<title>62&#45;&gt;66</title>
<path fill="none" stroke="black" d="M514.75,-71.67C517.28,-63.47 519.94,-54.84 522.36,-46.98"/>
<polygon fill="black" stroke="black" points="525.65,-48.22 525.25,-37.63 518.96,-46.15 525.65,-48.22"/>
</g>
<!-- 68 -->
<g id="node19" class="node">
<title>68</title>
<path fill="#f7d7c1" stroke="black" d="M834,-250C834,-250 746,-250 746,-250 740,-250 734,-244 734,-238 734,-238 734,-191 734,-191 734,-185 740,-179 746,-179 746,-179 834,-179 834,-179 840,-179 846,-185 846,-191 846,-191 846,-238 846,-238 846,-244 840,-250 834,-250"/>
<text text-anchor="start" x="749.88" y="-232.7" font-family="Helvetica,sans-Serif" font-size="14.00">P4_6_1 ≤ 1.5</text>
<text text-anchor="start" x="742" y="-216.95" font-family="Helvetica,sans-Serif" font-size="14.00">poisson = 0.186</text>
<text text-anchor="start" x="745.38" y="-201.2" font-family="Helvetica,sans-Serif" font-size="14.00">samples = 289</text>
<text text-anchor="start" x="749.12" y="-185.45" font-family="Helvetica,sans-Serif" font-size="14.00">value = 9.167</text>
</g>
<!-- 67&#45;&gt;68 -->
<g id="edge18" class="edge">
<title>67&#45;&gt;68</title>
<path fill="none" stroke="black" d="M833.36,-285.54C828.26,-277.3 822.76,-268.42 817.44,-259.83"/>
<polygon fill="black" stroke="black" points="820.59,-258.26 812.35,-251.6 814.63,-261.94 820.59,-258.26"/>
</g>
<!-- 115 -->
<g id="node26" class="node">
<title>115</title>
<path fill="#fae6d7" stroke="black" d="M964,-250C964,-250 876,-250 876,-250 870,-250 864,-244 864,-238 864,-238 864,-191 864,-191 864,-185 870,-179 876,-179 876,-179 964,-179 964,-179 970,-179 976,-185 976,-191 976,-191 976,-238 976,-238 976,-244 970,-250 964,-250"/>
<text text-anchor="start" x="879.88" y="-232.7" font-family="Helvetica,sans-Serif" font-size="14.00">P4_7_3 ≤ 0.5</text>
<text text-anchor="start" x="872" y="-216.95" font-family="Helvetica,sans-Serif" font-size="14.00">poisson = 0.223</text>
<text text-anchor="start" x="875.38" y="-201.2" font-family="Helvetica,sans-Serif" font-size="14.00">samples = 246</text>
<text text-anchor="start" x="879.12" y="-185.45" font-family="Helvetica,sans-Serif" font-size="14.00">value = 7.477</text>
</g>
<!-- 67&#45;&gt;115 -->
<g id="edge25" class="edge">
<title>67&#45;&gt;115</title>
<path fill="none" stroke="black" d="M876.64,-285.54C881.74,-277.3 887.24,-268.42 892.56,-259.83"/>
<polygon fill="black" stroke="black" points="895.37,-261.94 897.65,-251.6 889.41,-258.26 895.37,-261.94"/>
</g>
<!-- 69 -->
<g id="node20" class="node">
<title>69</title>
<path fill="#f6d2b8" stroke="black" d="M704,-143C704,-143 616,-143 616,-143 610,-143 604,-137 604,-131 604,-131 604,-84 604,-84 604,-78 610,-72 616,-72 616,-72 704,-72 704,-72 710,-72 716,-78 716,-84 716,-84 716,-131 716,-131 716,-137 710,-143 704,-143"/>
<text text-anchor="start" x="619.88" y="-125.7" font-family="Helvetica,sans-Serif" font-size="14.00">P7_1_2 ≤ 2.5</text>
<text text-anchor="start" x="612" y="-109.95" font-family="Helvetica,sans-Serif" font-size="14.00">poisson = 0.157</text>
<text text-anchor="start" x="615.38" y="-94.2" font-family="Helvetica,sans-Serif" font-size="14.00">samples = 170</text>
<text text-anchor="start" x="619.12" y="-78.45" font-family="Helvetica,sans-Serif" font-size="14.00">value = 9.825</text>
</g>
<!-- 68&#45;&gt;69 -->
<g id="edge19" class="edge">
<title>68&#45;&gt;69</title>
<path fill="none" stroke="black" d="M746.71,-178.54C735.53,-169.5 723.38,-159.69 711.81,-150.34"/>
<polygon fill="black" stroke="black" points="714.26,-147.82 704.28,-144.26 709.86,-153.27 714.26,-147.82"/>
</g>
<!-- 96 -->
<g id="node23" class="node">
<title>96</title>
<path fill="#f8dfcd" stroke="black" d="M834,-143C834,-143 746,-143 746,-143 740,-143 734,-137 734,-131 734,-131 734,-84 734,-84 734,-78 740,-72 746,-72 746,-72 834,-72 834,-72 840,-72 846,-78 846,-84 846,-84 846,-131 846,-131 846,-137 840,-143 834,-143"/>
<text text-anchor="start" x="749.88" y="-125.7" font-family="Helvetica,sans-Serif" font-size="14.00">P4_7_2 ≤ 0.5</text>
<text text-anchor="start" x="742" y="-109.95" font-family="Helvetica,sans-Serif" font-size="14.00">poisson = 0.146</text>
<text text-anchor="start" x="745.75" y="-94.2" font-family="Helvetica,sans-Serif" font-size="14.00">samples = 119</text>
<text text-anchor="start" x="749.12" y="-78.45" font-family="Helvetica,sans-Serif" font-size="14.00">value = 8.227</text>
</g>
<!-- 68&#45;&gt;96 -->
<g id="edge22" class="edge">
<title>68&#45;&gt;96</title>
<path fill="none" stroke="black" d="M790,-178.54C790,-170.92 790,-162.75 790,-154.77"/>
<polygon fill="black" stroke="black" points="793.5,-154.82 790,-144.82 786.5,-154.82 793.5,-154.82"/>
</g>
<!-- 70 -->
<g id="node21" class="node">
<title>70</title>
<path fill="#c0c0c0" stroke="black" d="M618,-36C618,-36 588,-36 588,-36 582,-36 576,-30 576,-24 576,-24 576,-12 576,-12 576,-6 582,0 588,0 588,0 618,0 618,0 624,0 630,-6 630,-12 630,-12 630,-24 630,-24 630,-30 624,-36 618,-36"/>
<text text-anchor="middle" x="603" y="-12.57" font-family="Helvetica,sans-Serif" font-size="14.00">(...)</text>
</g>
<!-- 69&#45;&gt;70 -->
<g id="edge20" class="edge">
<title>69&#45;&gt;70</title>
<path fill="none" stroke="black" d="M637.31,-71.67C631.66,-62.99 625.69,-53.83 620.34,-45.62"/>
<polygon fill="black" stroke="black" points="623.41,-43.92 615.02,-37.45 617.55,-47.74 623.41,-43.92"/>
</g>
<!-- 75 -->
<g id="node22" class="node">
<title>75</title>
<path fill="#c0c0c0" stroke="black" d="M690,-36C690,-36 660,-36 660,-36 654,-36 648,-30 648,-24 648,-24 648,-12 648,-12 648,-6 654,0 660,0 660,0 690,0 690,0 696,0 702,-6 702,-12 702,-12 702,-24 702,-24 702,-30 696,-36 690,-36"/>
<text text-anchor="middle" x="675" y="-12.57" font-family="Helvetica,sans-Serif" font-size="14.00">(...)</text>
</g>
<!-- 69&#45;&gt;75 -->
<g id="edge21" class="edge">
<title>69&#45;&gt;75</title>
<path fill="none" stroke="black" d="M665.97,-71.67C667.36,-63.56 668.82,-55.04 670.16,-47.26"/>
<polygon fill="black" stroke="black" points="673.56,-48.12 671.8,-37.67 666.66,-46.94 673.56,-48.12"/>
</g>
<!-- 97 -->
<g id="node24" class="node">
<title>97</title>
<path fill="#c0c0c0" stroke="black" d="M762,-36C762,-36 732,-36 732,-36 726,-36 720,-30 720,-24 720,-24 720,-12 720,-12 720,-6 726,0 732,0 732,0 762,0 762,0 768,0 774,-6 774,-12 774,-12 774,-24 774,-24 774,-30 768,-36 762,-36"/>
<text text-anchor="middle" x="747" y="-12.57" font-family="Helvetica,sans-Serif" font-size="14.00">(...)</text>
</g>
<!-- 96&#45;&gt;97 -->
<g id="edge23" class="edge">
<title>96&#45;&gt;97</title>
<path fill="none" stroke="black" d="M772.88,-71.67C768.76,-63.28 764.41,-54.43 760.48,-46.44"/>
<polygon fill="black" stroke="black" points="763.66,-44.97 756.11,-37.54 757.38,-48.06 763.66,-44.97"/>
</g>
<!-- 112 -->
<g id="node25" class="node">
<title>112</title>
<path fill="#c0c0c0" stroke="black" d="M834,-36C834,-36 804,-36 804,-36 798,-36 792,-30 792,-24 792,-24 792,-12 792,-12 792,-6 798,0 804,0 804,0 834,0 834,0 840,0 846,-6 846,-12 846,-12 846,-24 846,-24 846,-30 840,-36 834,-36"/>
<text text-anchor="middle" x="819" y="-12.57" font-family="Helvetica,sans-Serif" font-size="14.00">(...)</text>
</g>
<!-- 96&#45;&gt;112 -->
<g id="edge24" class="edge">
<title>96&#45;&gt;112</title>
<path fill="none" stroke="black" d="M801.54,-71.67C804.26,-63.47 807.12,-54.84 809.73,-46.98"/>
<polygon fill="black" stroke="black" points="813.01,-48.21 812.83,-37.62 806.36,-46.01 813.01,-48.21"/>
</g>
<!-- 116 -->
<g id="node27" class="node">
<title>116</title>
<path fill="#f8dfcd" stroke="black" d="M964,-143C964,-143 876,-143 876,-143 870,-143 864,-137 864,-131 864,-131 864,-84 864,-84 864,-78 870,-72 876,-72 876,-72 964,-72 964,-72 970,-72 976,-78 976,-84 976,-84 976,-131 976,-131 976,-137 970,-143 964,-143"/>
<text text-anchor="start" x="879.88" y="-125.7" font-family="Helvetica,sans-Serif" font-size="14.00">P4_6_1 ≤ 1.5</text>
<text text-anchor="start" x="872" y="-109.95" font-family="Helvetica,sans-Serif" font-size="14.00">poisson = 0.172</text>
<text text-anchor="start" x="875.38" y="-94.2" font-family="Helvetica,sans-Serif" font-size="14.00">samples = 134</text>
<text text-anchor="start" x="879.12" y="-78.45" font-family="Helvetica,sans-Serif" font-size="14.00">value = 8.256</text>
</g>
<!-- 115&#45;&gt;116 -->
<g id="edge26" class="edge">
<title>115&#45;&gt;116</title>
<path fill="none" stroke="black" d="M920,-178.54C920,-170.92 920,-162.75 920,-154.77"/>
<polygon fill="black" stroke="black" points="923.5,-154.82 920,-144.82 916.5,-154.82 923.5,-154.82"/>
</g>
<!-- 139 -->
<g id="node30" class="node">
<title>139</title>
<path fill="#fbede3" stroke="black" d="M1094,-143C1094,-143 1006,-143 1006,-143 1000,-143 994,-137 994,-131 994,-131 994,-84 994,-84 994,-78 1000,-72 1006,-72 1006,-72 1094,-72 1094,-72 1100,-72 1106,-78 1106,-84 1106,-84 1106,-131 1106,-131 1106,-137 1100,-143 1094,-143"/>
<text text-anchor="start" x="1009.88" y="-125.7" font-family="Helvetica,sans-Serif" font-size="14.00">P4_6_2 ≤ 1.5</text>
<text text-anchor="start" x="1002" y="-109.95" font-family="Helvetica,sans-Serif" font-size="14.00">poisson = 0.176</text>
<text text-anchor="start" x="1005.75" y="-94.2" font-family="Helvetica,sans-Serif" font-size="14.00">samples = 112</text>
<text text-anchor="start" x="1009.12" y="-78.45" font-family="Helvetica,sans-Serif" font-size="14.00">value = 6.545</text>
</g>
<!-- 115&#45;&gt;139 -->
<g id="edge29" class="edge">
<title>115&#45;&gt;139</title>
<path fill="none" stroke="black" d="M963.29,-178.54C974.47,-169.5 986.62,-159.69 998.19,-150.34"/>
<polygon fill="black" stroke="black" points="1000.14,-153.27 1005.72,-144.26 995.74,-147.82 1000.14,-153.27"/>
</g>
<!-- 117 -->
<g id="node28" class="node">
<title>117</title>
<path fill="#c0c0c0" stroke="black" d="M906,-36C906,-36 876,-36 876,-36 870,-36 864,-30 864,-24 864,-24 864,-12 864,-12 864,-6 870,0 876,0 876,0 906,0 906,0 912,0 918,-6 918,-12 918,-12 918,-24 918,-24 918,-30 912,-36 906,-36"/>
<text text-anchor="middle" x="891" y="-12.57" font-family="Helvetica,sans-Serif" font-size="14.00">(...)</text>
</g>
<!-- 116&#45;&gt;117 -->
<g id="edge27" class="edge">
<title>116&#45;&gt;117</title>
<path fill="none" stroke="black" d="M908.46,-71.67C905.74,-63.47 902.88,-54.84 900.27,-46.98"/>
<polygon fill="black" stroke="black" points="903.64,-46.01 897.17,-37.62 896.99,-48.21 903.64,-46.01"/>
</g>
<!-- 132 -->
<g id="node29" class="node">
<title>132</title>
<path fill="#c0c0c0" stroke="black" d="M978,-36C978,-36 948,-36 948,-36 942,-36 936,-30 936,-24 936,-24 936,-12 936,-12 936,-6 942,0 948,0 948,0 978,0 978,0 984,0 990,-6 990,-12 990,-12 990,-24 990,-24 990,-30 984,-36 978,-36"/>
<text text-anchor="middle" x="963" y="-12.57" font-family="Helvetica,sans-Serif" font-size="14.00">(...)</text>
</g>
<!-- 116&#45;&gt;132 -->
<g id="edge28" class="edge">
<title>116&#45;&gt;132</title>
<path fill="none" stroke="black" d="M937.12,-71.67C941.24,-63.28 945.59,-54.43 949.52,-46.44"/>
<polygon fill="black" stroke="black" points="952.62,-48.06 953.89,-37.54 946.34,-44.97 952.62,-48.06"/>
</g>
<!-- 140 -->
<g id="node31" class="node">
<title>140</title>
<path fill="#c0c0c0" stroke="black" d="M1050,-36C1050,-36 1020,-36 1020,-36 1014,-36 1008,-30 1008,-24 1008,-24 1008,-12 1008,-12 1008,-6 1014,0 1020,0 1020,0 1050,0 1050,0 1056,0 1062,-6 1062,-12 1062,-12 1062,-24 1062,-24 1062,-30 1056,-36 1050,-36"/>
<text text-anchor="middle" x="1035" y="-12.57" font-family="Helvetica,sans-Serif" font-size="14.00">(...)</text>
</g>
<!-- 139&#45;&gt;140 -->
<g id="edge30" class="edge">
<title>139&#45;&gt;140</title>
<path fill="none" stroke="black" d="M1044.03,-71.67C1042.64,-63.56 1041.18,-55.04 1039.84,-47.26"/>
<polygon fill="black" stroke="black" points="1043.34,-46.94 1038.2,-37.67 1036.44,-48.12 1043.34,-46.94"/>
</g>
<!-- 151 -->
<g id="node32" class="node">
<title>151</title>
<path fill="#c0c0c0" stroke="black" d="M1122,-36C1122,-36 1092,-36 1092,-36 1086,-36 1080,-30 1080,-24 1080,-24 1080,-12 1080,-12 1080,-6 1086,0 1092,0 1092,0 1122,0 1122,0 1128,0 1134,-6 1134,-12 1134,-12 1134,-24 1134,-24 1134,-30 1128,-36 1122,-36"/>
<text text-anchor="middle" x="1107" y="-12.57" font-family="Helvetica,sans-Serif" font-size="14.00">(...)</text>
</g>
<!-- 139&#45;&gt;151 -->
<g id="edge31" class="edge">
<title>139&#45;&gt;151</title>
<path fill="none" stroke="black" d="M1072.69,-71.67C1078.34,-62.99 1084.31,-53.83 1089.66,-45.62"/>
<polygon fill="black" stroke="black" points="1092.45,-47.74 1094.98,-37.45 1086.59,-43.92 1092.45,-47.74"/>
</g>
<!-- 157 -->
<g id="node34" class="node">
<title>157</title>
<path fill="#eeae80" stroke="black" d="M1475.38,-357C1475.38,-357 1386.62,-357 1386.62,-357 1380.62,-357 1374.62,-351 1374.62,-345 1374.62,-345 1374.62,-298 1374.62,-298 1374.62,-292 1380.62,-286 1386.62,-286 1386.62,-286 1475.38,-286 1475.38,-286 1481.38,-286 1487.38,-292 1487.38,-298 1487.38,-298 1487.38,-345 1487.38,-345 1487.38,-351 1481.38,-357 1475.38,-357"/>
<text text-anchor="start" x="1390.88" y="-339.7" font-family="Helvetica,sans-Serif" font-size="14.00">P4_6_3 ≤ 2.5</text>
<text text-anchor="start" x="1383" y="-323.95" font-family="Helvetica,sans-Serif" font-size="14.00">poisson = 0.178</text>
<text text-anchor="start" x="1382.62" y="-308.2" font-family="Helvetica,sans-Serif" font-size="14.00">samples = 1732</text>
<text text-anchor="start" x="1386.38" y="-292.45" font-family="Helvetica,sans-Serif" font-size="14.00">value = 14.048</text>
</g>
<!-- 156&#45;&gt;157 -->
<g id="edge33" class="edge">
<title>156&#45;&gt;157</title>
<path fill="none" stroke="black" d="M1431,-392.54C1431,-384.92 1431,-376.75 1431,-368.77"/>
<polygon fill="black" stroke="black" points="1434.5,-368.82 1431,-358.82 1427.5,-368.82 1434.5,-368.82"/>
</g>
<!-- 362 -->
<g id="node49" class="node">
<title>362</title>
<path fill="#f3c3a1" stroke="black" d="M1889.38,-357C1889.38,-357 1800.62,-357 1800.62,-357 1794.62,-357 1788.62,-351 1788.62,-345 1788.62,-345 1788.62,-298 1788.62,-298 1788.62,-292 1794.62,-286 1800.62,-286 1800.62,-286 1889.38,-286 1889.38,-286 1895.38,-286 1901.38,-292 1901.38,-298 1901.38,-298 1901.38,-345 1901.38,-345 1901.38,-351 1895.38,-357 1889.38,-357"/>
<text text-anchor="start" x="1804.88" y="-339.7" font-family="Helvetica,sans-Serif" font-size="14.00">P4_6_2 ≤ 1.5</text>
<text text-anchor="start" x="1797" y="-323.95" font-family="Helvetica,sans-Serif" font-size="14.00">poisson = 0.231</text>
<text text-anchor="start" x="1796.62" y="-308.2" font-family="Helvetica,sans-Serif" font-size="14.00">samples = 2308</text>
<text text-anchor="start" x="1800.75" y="-292.45" font-family="Helvetica,sans-Serif" font-size="14.00">value = 11.583</text>
</g>
<!-- 156&#45;&gt;362 -->
<g id="edge48" class="edge">
<title>156&#45;&gt;362</title>
<path fill="none" stroke="black" d="M1487.7,-413.12C1563.2,-393.97 1696.6,-360.14 1777.3,-339.67"/>
<polygon fill="black" stroke="black" points="1778.03,-343.1 1786.86,-337.25 1776.3,-336.31 1778.03,-343.1"/>
</g>
<!-- 158 -->
<g id="node35" class="node">
<title>158</title>
<path fill="#f0b58b" stroke="black" d="M1410,-250C1410,-250 1322,-250 1322,-250 1316,-250 1310,-244 1310,-238 1310,-238 1310,-191 1310,-191 1310,-185 1316,-179 1322,-179 1322,-179 1410,-179 1410,-179 1416,-179 1422,-185 1422,-191 1422,-191 1422,-238 1422,-238 1422,-244 1416,-250 1410,-250"/>
<text text-anchor="start" x="1325.88" y="-232.7" font-family="Helvetica,sans-Serif" font-size="14.00">P4_6_1 ≤ 1.5</text>
<text text-anchor="start" x="1318" y="-216.95" font-family="Helvetica,sans-Serif" font-size="14.00">poisson = 0.145</text>
<text text-anchor="start" x="1321.38" y="-201.2" font-family="Helvetica,sans-Serif" font-size="14.00">samples = 996</text>
<text text-anchor="start" x="1321.75" y="-185.45" font-family="Helvetica,sans-Serif" font-size="14.00">value = 13.211</text>
</g>
<!-- 157&#45;&gt;158 -->
<g id="edge34" class="edge">
<title>157&#45;&gt;158</title>
<path fill="none" stroke="black" d="M1409.36,-285.54C1404.26,-277.3 1398.76,-268.42 1393.44,-259.83"/>
<polygon fill="black" stroke="black" points="1396.59,-258.26 1388.35,-251.6 1390.63,-261.94 1396.59,-258.26"/>
</g>
<!-- 267 -->
<g id="node42" class="node">
<title>267</title>
<path fill="#eca572" stroke="black" d="M1540,-250C1540,-250 1452,-250 1452,-250 1446,-250 1440,-244 1440,-238 1440,-238 1440,-191 1440,-191 1440,-185 1446,-179 1452,-179 1452,-179 1540,-179 1540,-179 1546,-179 1552,-185 1552,-191 1552,-191 1552,-238 1552,-238 1552,-244 1546,-250 1540,-250"/>
<text text-anchor="start" x="1452.5" y="-232.7" font-family="Helvetica,sans-Serif" font-size="14.00">P11_3_9 ≤ 0.5</text>
<text text-anchor="start" x="1448" y="-216.95" font-family="Helvetica,sans-Serif" font-size="14.00">poisson = 0.143</text>
<text text-anchor="start" x="1451.38" y="-201.2" font-family="Helvetica,sans-Serif" font-size="14.00">samples = 736</text>
<text text-anchor="start" x="1451.38" y="-185.45" font-family="Helvetica,sans-Serif" font-size="14.00">value = 15.179</text>
</g>
<!-- 157&#45;&gt;267 -->
<g id="edge41" class="edge">
<title>157&#45;&gt;267</title>
<path fill="none" stroke="black" d="M1452.64,-285.54C1457.74,-277.3 1463.24,-268.42 1468.56,-259.83"/>
<polygon fill="black" stroke="black" points="1471.37,-261.94 1473.65,-251.6 1465.41,-258.26 1471.37,-261.94"/>
</g>
<!-- 159 -->
<g id="node36" class="node">
<title>159</title>
<path fill="#efb286" stroke="black" d="M1279.62,-143C1279.62,-143 1192.38,-143 1192.38,-143 1186.38,-143 1180.38,-137 1180.38,-131 1180.38,-131 1180.38,-84 1180.38,-84 1180.38,-78 1186.38,-72 1192.38,-72 1192.38,-72 1279.62,-72 1279.62,-72 1285.62,-72 1291.62,-78 1291.62,-84 1291.62,-84 1291.62,-131 1291.62,-131 1291.62,-137 1285.62,-143 1279.62,-143"/>
<text text-anchor="start" x="1203.38" y="-125.7" font-family="Helvetica,sans-Serif" font-size="14.00">P4_1 ≤ 0.5</text>
<text text-anchor="start" x="1188.38" y="-109.95" font-family="Helvetica,sans-Serif" font-size="14.00">poisson = 0.112</text>
<text text-anchor="start" x="1191.38" y="-94.2" font-family="Helvetica,sans-Serif" font-size="14.00">samples = 788</text>
<text text-anchor="start" x="1191.38" y="-78.45" font-family="Helvetica,sans-Serif" font-size="14.00">value = 13.651</text>
</g>
<!-- 158&#45;&gt;159 -->
<g id="edge35" class="edge">
<title>158&#45;&gt;159</title>
<path fill="none" stroke="black" d="M1322.71,-178.54C1311.53,-169.5 1299.38,-159.69 1287.81,-150.34"/>
<polygon fill="black" stroke="black" points="1290.26,-147.82 1280.28,-144.26 1285.86,-153.27 1290.26,-147.82"/>
</g>
<!-- 232 -->
<g id="node39" class="node">
<title>232</title>
<path fill="#f3c3a1" stroke="black" d="M1410,-143C1410,-143 1322,-143 1322,-143 1316,-143 1310,-137 1310,-131 1310,-131 1310,-84 1310,-84 1310,-78 1316,-72 1322,-72 1322,-72 1410,-72 1410,-72 1416,-72 1422,-78 1422,-84 1422,-84 1422,-131 1422,-131 1422,-137 1416,-143 1410,-143"/>
<text text-anchor="start" x="1322.5" y="-125.7" font-family="Helvetica,sans-Serif" font-size="14.00">P11_3_9 ≤ 0.5</text>
<text text-anchor="start" x="1318" y="-109.95" font-family="Helvetica,sans-Serif" font-size="14.00">poisson = 0.136</text>
<text text-anchor="start" x="1321.38" y="-94.2" font-family="Helvetica,sans-Serif" font-size="14.00">samples = 208</text>
<text text-anchor="start" x="1321.75" y="-78.45" font-family="Helvetica,sans-Serif" font-size="14.00">value = 11.546</text>
</g>
<!-- 158&#45;&gt;232 -->
<g id="edge38" class="edge">
<title>158&#45;&gt;232</title>
<path fill="none" stroke="black" d="M1366,-178.54C1366,-170.92 1366,-162.75 1366,-154.77"/>
<polygon fill="black" stroke="black" points="1369.5,-154.82 1366,-144.82 1362.5,-154.82 1369.5,-154.82"/>
</g>
<!-- 160 -->
<g id="node37" class="node">
<title>160</title>
<path fill="#c0c0c0" stroke="black" d="M1194,-36C1194,-36 1164,-36 1164,-36 1158,-36 1152,-30 1152,-24 1152,-24 1152,-12 1152,-12 1152,-6 1158,0 1164,0 1164,0 1194,0 1194,0 1200,0 1206,-6 1206,-12 1206,-12 1206,-24 1206,-24 1206,-30 1200,-36 1194,-36"/>
<text text-anchor="middle" x="1179" y="-12.57" font-family="Helvetica,sans-Serif" font-size="14.00">(...)</text>
</g>
<!-- 159&#45;&gt;160 -->
<g id="edge36" class="edge">
<title>159&#45;&gt;160</title>
<path fill="none" stroke="black" d="M1213.31,-71.67C1207.66,-62.99 1201.69,-53.83 1196.34,-45.62"/>
<polygon fill="black" stroke="black" points="1199.41,-43.92 1191.02,-37.45 1193.55,-47.74 1199.41,-43.92"/>
</g>
<!-- 195 -->
<g id="node38" class="node">
<title>195</title>
<path fill="#c0c0c0" stroke="black" d="M1266,-36C1266,-36 1236,-36 1236,-36 1230,-36 1224,-30 1224,-24 1224,-24 1224,-12 1224,-12 1224,-6 1230,0 1236,0 1236,0 1266,0 1266,0 1272,0 1278,-6 1278,-12 1278,-12 1278,-24 1278,-24 1278,-30 1272,-36 1266,-36"/>
<text text-anchor="middle" x="1251" y="-12.57" font-family="Helvetica,sans-Serif" font-size="14.00">(...)</text>
</g>
<!-- 159&#45;&gt;195 -->
<g id="edge37" class="edge">
<title>159&#45;&gt;195</title>
<path fill="none" stroke="black" d="M1241.97,-71.67C1243.36,-63.56 1244.82,-55.04 1246.16,-47.26"/>
<polygon fill="black" stroke="black" points="1249.56,-48.12 1247.8,-37.67 1242.66,-46.94 1249.56,-48.12"/>
</g>
<!-- 233 -->
<g id="node40" class="node">
<title>233</title>
<path fill="#c0c0c0" stroke="black" d="M1338,-36C1338,-36 1308,-36 1308,-36 1302,-36 1296,-30 1296,-24 1296,-24 1296,-12 1296,-12 1296,-6 1302,0 1308,0 1308,0 1338,0 1338,0 1344,0 1350,-6 1350,-12 1350,-12 1350,-24 1350,-24 1350,-30 1344,-36 1338,-36"/>
<text text-anchor="middle" x="1323" y="-12.57" font-family="Helvetica,sans-Serif" font-size="14.00">(...)</text>
</g>
<!-- 232&#45;&gt;233 -->
<g id="edge39" class="edge">
<title>232&#45;&gt;233</title>
<path fill="none" stroke="black" d="M1348.88,-71.67C1344.76,-63.28 1340.41,-54.43 1336.48,-46.44"/>
<polygon fill="black" stroke="black" points="1339.66,-44.97 1332.11,-37.54 1333.38,-48.06 1339.66,-44.97"/>
</g>
<!-- 254 -->
<g id="node41" class="node">
<title>254</title>
<path fill="#c0c0c0" stroke="black" d="M1410,-36C1410,-36 1380,-36 1380,-36 1374,-36 1368,-30 1368,-24 1368,-24 1368,-12 1368,-12 1368,-6 1374,0 1380,0 1380,0 1410,0 1410,0 1416,0 1422,-6 1422,-12 1422,-12 1422,-24 1422,-24 1422,-30 1416,-36 1410,-36"/>
<text text-anchor="middle" x="1395" y="-12.57" font-family="Helvetica,sans-Serif" font-size="14.00">(...)</text>
</g>
<!-- 232&#45;&gt;254 -->
<g id="edge40" class="edge">
<title>232&#45;&gt;254</title>
<path fill="none" stroke="black" d="M1377.54,-71.67C1380.26,-63.47 1383.12,-54.84 1385.73,-46.98"/>
<polygon fill="black" stroke="black" points="1389.01,-48.21 1388.83,-37.62 1382.36,-46.01 1389.01,-48.21"/>
</g>
<!-- 268 -->
<g id="node43" class="node">
<title>268</title>
<path fill="#eb9f69" stroke="black" d="M1539.62,-143C1539.62,-143 1452.38,-143 1452.38,-143 1446.38,-143 1440.38,-137 1440.38,-131 1440.38,-131 1440.38,-84 1440.38,-84 1440.38,-78 1446.38,-72 1452.38,-72 1452.38,-72 1539.62,-72 1539.62,-72 1545.62,-72 1551.62,-78 1551.62,-84 1551.62,-84 1551.62,-131 1551.62,-131 1551.62,-137 1545.62,-143 1539.62,-143"/>
<text text-anchor="start" x="1463.38" y="-125.7" font-family="Helvetica,sans-Serif" font-size="14.00">P4_1 ≤ 0.5</text>
<text text-anchor="start" x="1448.38" y="-109.95" font-family="Helvetica,sans-Serif" font-size="14.00">poisson = 0.112</text>
<text text-anchor="start" x="1451.38" y="-94.2" font-family="Helvetica,sans-Serif" font-size="14.00">samples = 487</text>
<text text-anchor="start" x="1451.38" y="-78.45" font-family="Helvetica,sans-Serif" font-size="14.00">value = 15.831</text>
</g>
<!-- 267&#45;&gt;268 -->
<g id="edge42" class="edge">
<title>267&#45;&gt;268</title>
<path fill="none" stroke="black" d="M1496,-178.54C1496,-170.92 1496,-162.75 1496,-154.77"/>
<polygon fill="black" stroke="black" points="1499.5,-154.82 1496,-144.82 1492.5,-154.82 1499.5,-154.82"/>
</g>
<!-- 325 -->
<g id="node46" class="node">
<title>325</title>
<path fill="#efb082" stroke="black" d="M1670,-143C1670,-143 1582,-143 1582,-143 1576,-143 1570,-137 1570,-131 1570,-131 1570,-84 1570,-84 1570,-78 1576,-72 1582,-72 1582,-72 1670,-72 1670,-72 1676,-72 1682,-78 1682,-84 1682,-84 1682,-131 1682,-131 1682,-137 1676,-143 1670,-143"/>
<text text-anchor="start" x="1593.38" y="-125.7" font-family="Helvetica,sans-Serif" font-size="14.00">P4_1 ≤ 0.5</text>
<text text-anchor="start" x="1578" y="-109.95" font-family="Helvetica,sans-Serif" font-size="14.00">poisson = 0.123</text>
<text text-anchor="start" x="1581.38" y="-94.2" font-family="Helvetica,sans-Serif" font-size="14.00">samples = 249</text>
<text text-anchor="start" x="1581.38" y="-78.45" font-family="Helvetica,sans-Serif" font-size="14.00">value = 13.905</text>
</g>
<!-- 267&#45;&gt;325 -->
<g id="edge45" class="edge">
<title>267&#45;&gt;325</title>
<path fill="none" stroke="black" d="M1539.29,-178.54C1550.47,-169.5 1562.62,-159.69 1574.19,-150.34"/>
<polygon fill="black" stroke="black" points="1576.14,-153.27 1581.72,-144.26 1571.74,-147.82 1576.14,-153.27"/>
</g>
<!-- 269 -->
<g id="node44" class="node">
<title>269</title>
<path fill="#c0c0c0" stroke="black" d="M1482,-36C1482,-36 1452,-36 1452,-36 1446,-36 1440,-30 1440,-24 1440,-24 1440,-12 1440,-12 1440,-6 1446,0 1452,0 1452,0 1482,0 1482,0 1488,0 1494,-6 1494,-12 1494,-12 1494,-24 1494,-24 1494,-30 1488,-36 1482,-36"/>
<text text-anchor="middle" x="1467" y="-12.57" font-family="Helvetica,sans-Serif" font-size="14.00">(...)</text>
</g>
<!-- 268&#45;&gt;269 -->
<g id="edge43" class="edge">
<title>268&#45;&gt;269</title>
<path fill="none" stroke="black" d="M1484.46,-71.67C1481.74,-63.47 1478.88,-54.84 1476.27,-46.98"/>
<polygon fill="black" stroke="black" points="1479.64,-46.01 1473.17,-37.62 1472.99,-48.21 1479.64,-46.01"/>
</g>
<!-- 296 -->
<g id="node45" class="node">
<title>296</title>
<path fill="#c0c0c0" stroke="black" d="M1554,-36C1554,-36 1524,-36 1524,-36 1518,-36 1512,-30 1512,-24 1512,-24 1512,-12 1512,-12 1512,-6 1518,0 1524,0 1524,0 1554,0 1554,0 1560,0 1566,-6 1566,-12 1566,-12 1566,-24 1566,-24 1566,-30 1560,-36 1554,-36"/>
<text text-anchor="middle" x="1539" y="-12.57" font-family="Helvetica,sans-Serif" font-size="14.00">(...)</text>
</g>
<!-- 268&#45;&gt;296 -->
<g id="edge44" class="edge">
<title>268&#45;&gt;296</title>
<path fill="none" stroke="black" d="M1513.12,-71.67C1517.24,-63.28 1521.59,-54.43 1525.52,-46.44"/>
<polygon fill="black" stroke="black" points="1528.62,-48.06 1529.89,-37.54 1522.34,-44.97 1528.62,-48.06"/>
</g>
<!-- 326 -->
<g id="node47" class="node">
<title>326</title>
<path fill="#c0c0c0" stroke="black" d="M1626,-36C1626,-36 1596,-36 1596,-36 1590,-36 1584,-30 1584,-24 1584,-24 1584,-12 1584,-12 1584,-6 1590,0 1596,0 1596,0 1626,0 1626,0 1632,0 1638,-6 1638,-12 1638,-12 1638,-24 1638,-24 1638,-30 1632,-36 1626,-36"/>
<text text-anchor="middle" x="1611" y="-12.57" font-family="Helvetica,sans-Serif" font-size="14.00">(...)</text>
</g>
<!-- 325&#45;&gt;326 -->
<g id="edge46" class="edge">
<title>325&#45;&gt;326</title>
<path fill="none" stroke="black" d="M1620.03,-71.67C1618.64,-63.56 1617.18,-55.04 1615.84,-47.26"/>
<polygon fill="black" stroke="black" points="1619.34,-46.94 1614.2,-37.67 1612.44,-48.12 1619.34,-46.94"/>
</g>
<!-- 339 -->
<g id="node48" class="node">
<title>339</title>
<path fill="#c0c0c0" stroke="black" d="M1698,-36C1698,-36 1668,-36 1668,-36 1662,-36 1656,-30 1656,-24 1656,-24 1656,-12 1656,-12 1656,-6 1662,0 1668,0 1668,0 1698,0 1698,0 1704,0 1710,-6 1710,-12 1710,-12 1710,-24 1710,-24 1710,-30 1704,-36 1698,-36"/>
<text text-anchor="middle" x="1683" y="-12.57" font-family="Helvetica,sans-Serif" font-size="14.00">(...)</text>
</g>
<!-- 325&#45;&gt;339 -->
<g id="edge47" class="edge">
<title>325&#45;&gt;339</title>
<path fill="none" stroke="black" d="M1648.69,-71.67C1654.34,-62.99 1660.31,-53.83 1665.66,-45.62"/>
<polygon fill="black" stroke="black" points="1668.45,-47.74 1670.98,-37.45 1662.59,-43.92 1668.45,-47.74"/>
</g>
<!-- 363 -->
<g id="node50" class="node">
<title>363</title>
<path fill="#f2be99" stroke="black" d="M1889.38,-250C1889.38,-250 1800.62,-250 1800.62,-250 1794.62,-250 1788.62,-244 1788.62,-238 1788.62,-238 1788.62,-191 1788.62,-191 1788.62,-185 1794.62,-179 1800.62,-179 1800.62,-179 1889.38,-179 1889.38,-179 1895.38,-179 1901.38,-185 1901.38,-191 1901.38,-191 1901.38,-238 1901.38,-238 1901.38,-244 1895.38,-250 1889.38,-250"/>
<text text-anchor="start" x="1801.5" y="-232.7" font-family="Helvetica,sans-Serif" font-size="14.00">P11_3_9 ≤ 0.5</text>
<text text-anchor="start" x="1797" y="-216.95" font-family="Helvetica,sans-Serif" font-size="14.00">poisson = 0.182</text>
<text text-anchor="start" x="1796.62" y="-201.2" font-family="Helvetica,sans-Serif" font-size="14.00">samples = 1704</text>
<text text-anchor="start" x="1804.12" y="-185.45" font-family="Helvetica,sans-Serif" font-size="14.00">value = 12.16</text>
</g>
<!-- 362&#45;&gt;363 -->
<g id="edge49" class="edge">
<title>362&#45;&gt;363</title>
<path fill="none" stroke="black" d="M1845,-285.54C1845,-277.92 1845,-269.75 1845,-261.77"/>
<polygon fill="black" stroke="black" points="1848.5,-261.82 1845,-251.82 1841.5,-261.82 1848.5,-261.82"/>
</g>
<!-- 534 -->
<g id="node57" class="node">
<title>534</title>
<path fill="#f5d1b6" stroke="black" d="M2095,-250C2095,-250 2007,-250 2007,-250 2001,-250 1995,-244 1995,-238 1995,-238 1995,-191 1995,-191 1995,-185 2001,-179 2007,-179 2007,-179 2095,-179 2095,-179 2101,-179 2107,-185 2107,-191 2107,-191 2107,-238 2107,-238 2107,-244 2101,-250 2095,-250"/>
<text text-anchor="start" x="2007.5" y="-232.7" font-family="Helvetica,sans-Serif" font-size="14.00">P11_3_9 ≤ 0.5</text>
<text text-anchor="start" x="2003" y="-216.95" font-family="Helvetica,sans-Serif" font-size="14.00">poisson = 0.212</text>
<text text-anchor="start" x="2006.38" y="-201.2" font-family="Helvetica,sans-Serif" font-size="14.00">samples = 604</text>
<text text-anchor="start" x="2010.12" y="-185.45" font-family="Helvetica,sans-Serif" font-size="14.00">value = 9.955</text>
</g>
<!-- 362&#45;&gt;534 -->
<g id="edge56" class="edge">
<title>362&#45;&gt;534</title>
<path fill="none" stroke="black" d="M1901.84,-291.53C1927.5,-278.45 1957.98,-262.91 1984.68,-249.31"/>
<polygon fill="black" stroke="black" points="1986.04,-252.54 1993.36,-244.88 1982.86,-246.3 1986.04,-252.54"/>
</g>
<!-- 364 -->
<g id="node51" class="node">
<title>364</title>
<path fill="#f1b991" stroke="black" d="M1824.38,-143C1824.38,-143 1735.62,-143 1735.62,-143 1729.62,-143 1723.62,-137 1723.62,-131 1723.62,-131 1723.62,-84 1723.62,-84 1723.62,-78 1729.62,-72 1735.62,-72 1735.62,-72 1824.38,-72 1824.38,-72 1830.38,-72 1836.38,-78 1836.38,-84 1836.38,-84 1836.38,-131 1836.38,-131 1836.38,-137 1830.38,-143 1824.38,-143"/>
<text text-anchor="start" x="1739.88" y="-125.7" font-family="Helvetica,sans-Serif" font-size="14.00">P4_7_3 ≤ 0.5</text>
<text text-anchor="start" x="1732" y="-109.95" font-family="Helvetica,sans-Serif" font-size="14.00">poisson = 0.148</text>
<text text-anchor="start" x="1731.62" y="-94.2" font-family="Helvetica,sans-Serif" font-size="14.00">samples = 1072</text>
<text text-anchor="start" x="1735.38" y="-78.45" font-family="Helvetica,sans-Serif" font-size="14.00">value = 12.818</text>
</g>
<!-- 363&#45;&gt;364 -->
<g id="edge50" class="edge">
<title>363&#45;&gt;364</title>
<path fill="none" stroke="black" d="M1823.36,-178.54C1818.26,-170.3 1812.76,-161.42 1807.44,-152.83"/>
<polygon fill="black" stroke="black" points="1810.59,-151.26 1802.35,-144.6 1804.63,-154.94 1810.59,-151.26"/>
</g>
<!-- 461 -->
<g id="node54" class="node">
<title>461</title>
<path fill="#f4c8a8" stroke="black" d="M1954,-143C1954,-143 1866,-143 1866,-143 1860,-143 1854,-137 1854,-131 1854,-131 1854,-84 1854,-84 1854,-78 1860,-72 1866,-72 1866,-72 1954,-72 1954,-72 1960,-72 1966,-78 1966,-84 1966,-84 1966,-131 1966,-131 1966,-137 1960,-143 1954,-143"/>
<text text-anchor="start" x="1869.88" y="-125.7" font-family="Helvetica,sans-Serif" font-size="14.00">P4_6_3 ≤ 2.5</text>
<text text-anchor="start" x="1862" y="-109.95" font-family="Helvetica,sans-Serif" font-size="14.00">poisson = 0.156</text>
<text text-anchor="start" x="1865.38" y="-94.2" font-family="Helvetica,sans-Serif" font-size="14.00">samples = 632</text>
<text text-anchor="start" x="1865.75" y="-78.45" font-family="Helvetica,sans-Serif" font-size="14.00">value = 11.044</text>
</g>
<!-- 363&#45;&gt;461 -->
<g id="edge53" class="edge">
<title>363&#45;&gt;461</title>
<path fill="none" stroke="black" d="M1866.64,-178.54C1871.74,-170.3 1877.24,-161.42 1882.56,-152.83"/>
<polygon fill="black" stroke="black" points="1885.37,-154.94 1887.65,-144.6 1879.41,-151.26 1885.37,-154.94"/>
</g>
<!-- 365 -->
<g id="node52" class="node">
<title>365</title>
<path fill="#c0c0c0" stroke="black" d="M1770,-36C1770,-36 1740,-36 1740,-36 1734,-36 1728,-30 1728,-24 1728,-24 1728,-12 1728,-12 1728,-6 1734,0 1740,0 1740,0 1770,0 1770,0 1776,0 1782,-6 1782,-12 1782,-12 1782,-24 1782,-24 1782,-30 1776,-36 1770,-36"/>
<text text-anchor="middle" x="1755" y="-12.57" font-family="Helvetica,sans-Serif" font-size="14.00">(...)</text>
</g>
<!-- 364&#45;&gt;365 -->
<g id="edge51" class="edge">
<title>364&#45;&gt;365</title>
<path fill="none" stroke="black" d="M1770.05,-71.67C1767.71,-63.47 1765.24,-54.84 1763,-46.98"/>
<polygon fill="black" stroke="black" points="1766.44,-46.29 1760.33,-37.64 1759.71,-48.21 1766.44,-46.29"/>
</g>
<!-- 420 -->
<g id="node53" class="node">
<title>420</title>
<path fill="#c0c0c0" stroke="black" d="M1842,-36C1842,-36 1812,-36 1812,-36 1806,-36 1800,-30 1800,-24 1800,-24 1800,-12 1800,-12 1800,-6 1806,0 1812,0 1812,0 1842,0 1842,0 1848,0 1854,-6 1854,-12 1854,-12 1854,-24 1854,-24 1854,-30 1848,-36 1842,-36"/>
<text text-anchor="middle" x="1827" y="-12.57" font-family="Helvetica,sans-Serif" font-size="14.00">(...)</text>
</g>
<!-- 364&#45;&gt;420 -->
<g id="edge52" class="edge">
<title>364&#45;&gt;420</title>
<path fill="none" stroke="black" d="M1798.71,-71.67C1803.27,-63.18 1808.07,-54.23 1812.41,-46.17"/>
<polygon fill="black" stroke="black" points="1815.41,-47.98 1817.05,-37.52 1809.24,-44.67 1815.41,-47.98"/>
</g>
<!-- 462 -->
<g id="node55" class="node">
<title>462</title>
<path fill="#c0c0c0" stroke="black" d="M1914,-36C1914,-36 1884,-36 1884,-36 1878,-36 1872,-30 1872,-24 1872,-24 1872,-12 1872,-12 1872,-6 1878,0 1884,0 1884,0 1914,0 1914,0 1920,0 1926,-6 1926,-12 1926,-12 1926,-24 1926,-24 1926,-30 1920,-36 1914,-36"/>
<text text-anchor="middle" x="1899" y="-12.57" font-family="Helvetica,sans-Serif" font-size="14.00">(...)</text>
</g>
<!-- 461&#45;&gt;462 -->
<g id="edge54" class="edge">
<title>461&#45;&gt;462</title>
<path fill="none" stroke="black" d="M1905.62,-71.67C1904.61,-63.66 1903.56,-55.24 1902.59,-47.53"/>
<polygon fill="black" stroke="black" points="1906.07,-47.17 1901.35,-37.68 1899.12,-48.04 1906.07,-47.17"/>
</g>
<!-- 503 -->
<g id="node56" class="node">
<title>503</title>
<path fill="#c0c0c0" stroke="black" d="M1986,-36C1986,-36 1956,-36 1956,-36 1950,-36 1944,-30 1944,-24 1944,-24 1944,-12 1944,-12 1944,-6 1950,0 1956,0 1956,0 1986,0 1986,0 1992,0 1998,-6 1998,-12 1998,-12 1998,-24 1998,-24 1998,-30 1992,-36 1986,-36"/>
<text text-anchor="middle" x="1971" y="-12.57" font-family="Helvetica,sans-Serif" font-size="14.00">(...)</text>
</g>
<!-- 461&#45;&gt;503 -->
<g id="edge55" class="edge">
<title>461&#45;&gt;503</title>
<path fill="none" stroke="black" d="M1934.28,-71.67C1940.33,-62.99 1946.72,-53.83 1952.44,-45.62"/>
<polygon fill="black" stroke="black" points="1955.31,-47.63 1958.16,-37.42 1949.57,-43.63 1955.31,-47.63"/>
</g>
<!-- 535 -->
<g id="node58" class="node">
<title>535</title>
<path fill="#f4caac" stroke="black" d="M2095,-143C2095,-143 2007,-143 2007,-143 2001,-143 1995,-137 1995,-131 1995,-131 1995,-84 1995,-84 1995,-78 2001,-72 2007,-72 2007,-72 2095,-72 2095,-72 2101,-72 2107,-78 2107,-84 2107,-84 2107,-131 2107,-131 2107,-137 2101,-143 2095,-143"/>
<text text-anchor="start" x="2010.88" y="-125.7" font-family="Helvetica,sans-Serif" font-size="14.00">P4_6_1 ≤ 1.5</text>
<text text-anchor="start" x="2003" y="-109.95" font-family="Helvetica,sans-Serif" font-size="14.00">poisson = 0.193</text>
<text text-anchor="start" x="2006.38" y="-94.2" font-family="Helvetica,sans-Serif" font-size="14.00">samples = 337</text>
<text text-anchor="start" x="2006.38" y="-78.45" font-family="Helvetica,sans-Serif" font-size="14.00">value = 10.727</text>
</g>
<!-- 534&#45;&gt;535 -->
<g id="edge57" class="edge">
<title>534&#45;&gt;535</title>
<path fill="none" stroke="black" d="M2051,-178.54C2051,-170.92 2051,-162.75 2051,-154.77"/>
<polygon fill="black" stroke="black" points="2054.5,-154.82 2051,-144.82 2047.5,-154.82 2054.5,-154.82"/>
</g>
<!-- 588 -->
<g id="node61" class="node">
<title>588</title>
<path fill="#f7d9c3" stroke="black" d="M2227.62,-143C2227.62,-143 2146.38,-143 2146.38,-143 2140.38,-143 2134.38,-137 2134.38,-131 2134.38,-131 2134.38,-84 2134.38,-84 2134.38,-78 2140.38,-72 2146.38,-72 2146.38,-72 2227.62,-72 2227.62,-72 2233.62,-72 2239.62,-78 2239.62,-84 2239.62,-84 2239.62,-131 2239.62,-131 2239.62,-137 2233.62,-143 2227.62,-143"/>
<text text-anchor="start" x="2146.88" y="-125.7" font-family="Helvetica,sans-Serif" font-size="14.00">P4_6_1 ≤ 1.5</text>
<text text-anchor="start" x="2142.75" y="-109.95" font-family="Helvetica,sans-Serif" font-size="14.00">poisson = 0.15</text>
<text text-anchor="start" x="2142.38" y="-94.2" font-family="Helvetica,sans-Serif" font-size="14.00">samples = 267</text>
<text text-anchor="start" x="2149.88" y="-78.45" font-family="Helvetica,sans-Serif" font-size="14.00">value = 8.98</text>
</g>
<!-- 534&#45;&gt;588 -->
<g id="edge60" class="edge">
<title>534&#45;&gt;588</title>
<path fill="none" stroke="black" d="M2096.29,-178.54C2107.99,-169.5 2120.7,-159.69 2132.8,-150.34"/>
<polygon fill="black" stroke="black" points="2134.94,-153.12 2140.71,-144.24 2130.66,-147.58 2134.94,-153.12"/>
</g>
<!-- 536 -->
<g id="node59" class="node">
<title>536</title>
<path fill="#c0c0c0" stroke="black" d="M2058,-36C2058,-36 2028,-36 2028,-36 2022,-36 2016,-30 2016,-24 2016,-24 2016,-12 2016,-12 2016,-6 2022,0 2028,0 2028,0 2058,0 2058,0 2064,0 2070,-6 2070,-12 2070,-12 2070,-24 2070,-24 2070,-30 2064,-36 2058,-36"/>
<text text-anchor="middle" x="2043" y="-12.57" font-family="Helvetica,sans-Serif" font-size="14.00">(...)</text>
</g>
<!-- 535&#45;&gt;536 -->
<g id="edge58" class="edge">
<title>535&#45;&gt;536</title>
<path fill="none" stroke="black" d="M2047.82,-71.67C2047.08,-63.66 2046.31,-55.24 2045.61,-47.53"/>
<polygon fill="black" stroke="black" points="2049.1,-47.33 2044.71,-37.69 2042.13,-47.97 2049.1,-47.33"/>
</g>
<!-- 563 -->
<g id="node60" class="node">
<title>563</title>
<path fill="#c0c0c0" stroke="black" d="M2130,-36C2130,-36 2100,-36 2100,-36 2094,-36 2088,-30 2088,-24 2088,-24 2088,-12 2088,-12 2088,-6 2094,0 2100,0 2100,0 2130,0 2130,0 2136,0 2142,-6 2142,-12 2142,-12 2142,-24 2142,-24 2142,-30 2136,-36 2130,-36"/>
<text text-anchor="middle" x="2115" y="-12.57" font-family="Helvetica,sans-Serif" font-size="14.00">(...)</text>
</g>
<!-- 535&#45;&gt;563 -->
<g id="edge59" class="edge">
<title>535&#45;&gt;563</title>
<path fill="none" stroke="black" d="M2076.48,-71.67C2082.89,-62.9 2089.67,-53.63 2095.72,-45.35"/>
<polygon fill="black" stroke="black" points="2098.46,-47.54 2101.54,-37.4 2092.81,-43.41 2098.46,-47.54"/>
</g>
<!-- 589 -->
<g id="node62" class="node">
<title>589</title>
<path fill="#c0c0c0" stroke="black" d="M2202,-36C2202,-36 2172,-36 2172,-36 2166,-36 2160,-30 2160,-24 2160,-24 2160,-12 2160,-12 2160,-6 2166,0 2172,0 2172,0 2202,0 2202,0 2208,0 2214,-6 2214,-12 2214,-12 2214,-24 2214,-24 2214,-30 2208,-36 2202,-36"/>
<text text-anchor="middle" x="2187" y="-12.57" font-family="Helvetica,sans-Serif" font-size="14.00">(...)</text>
</g>
<!-- 588&#45;&gt;589 -->
<g id="edge61" class="edge">
<title>588&#45;&gt;589</title>
<path fill="none" stroke="black" d="M2187,-71.67C2187,-63.66 2187,-55.24 2187,-47.53"/>
<polygon fill="black" stroke="black" points="2190.5,-47.7 2187,-37.7 2183.5,-47.7 2190.5,-47.7"/>
</g>
<!-- 606 -->
<g id="node63" class="node">
<title>606</title>
<path fill="#c0c0c0" stroke="black" d="M2274,-36C2274,-36 2244,-36 2244,-36 2238,-36 2232,-30 2232,-24 2232,-24 2232,-12 2232,-12 2232,-6 2238,0 2244,0 2244,0 2274,0 2274,0 2280,0 2286,-6 2286,-12 2286,-12 2286,-24 2286,-24 2286,-30 2280,-36 2274,-36"/>
<text text-anchor="middle" x="2259" y="-12.57" font-family="Helvetica,sans-Serif" font-size="14.00">(...)</text>
</g>
<!-- 588&#45;&gt;606 -->
<g id="edge62" class="edge">
<title>588&#45;&gt;606</title>
<path fill="none" stroke="black" d="M2215.66,-71.67C2223.04,-62.71 2230.84,-53.23 2237.76,-44.81"/>
<polygon fill="black" stroke="black" points="2240.25,-47.3 2243.9,-37.35 2234.84,-42.85 2240.25,-47.3"/>
</g>
</g>
</svg>
